<?xml version="1.0" encoding="UTF-8" standalone="no"?>
<!DOCTYPE svg PUBLIC "-//W3C//DTD SVG 1.1//EN" "http://www.w3.org/Graphics/SVG/1.1/DTD/svg11.dtd">
<svg width="100%" height="100%" viewBox="0 0 1024 1024" version="1.1" xmlns="http://www.w3.org/2000/svg" xmlns:xlink="http://www.w3.org/1999/xlink" xml:space="preserve" xmlns:serif="http://www.serif.com/" style="fill-rule:evenodd;clip-rule:evenodd;stroke-linejoin:round;stroke-miterlimit:2;">
    <g transform="matrix(1.11608,0,0,1.11608,-7.85963,-115.454)">
        <path d="M769.5,305.5C789.247,304.947 803.081,313.613 811,331.5C816.137,361.532 803.637,378.866 773.5,383.5C746.77,378.601 734.604,362.601 737,335.5C738.53,330.108 740.863,325.108 744,320.5C747.833,317.333 751.667,314.167 755.5,311C760.046,308.545 764.712,306.712 769.5,305.5ZM771.5,324.5C768.125,325.991 764.792,327.824 761.5,330C750.359,343.875 752.692,354.875 768.5,363C786.193,364.972 794.36,357.139 793,339.5C789.229,329.553 782.063,324.553 771.5,324.5ZM924.5,266.5C903.47,309.548 875.136,347.214 839.5,379.5C812.664,402.262 782.664,419.929 749.5,432.5C719.736,443.277 689.736,453.443 659.5,463C645.735,467.724 632.402,473.224 619.5,479.5C598.593,488.285 578.593,498.619 559.5,510.5C543.52,519.162 528.52,529.328 514.5,541C504.5,549.667 494.5,558.333 484.5,567C474.605,577.063 464.605,586.896 454.5,596.5C446.576,604.461 438.243,611.961 429.5,619C426.24,619.784 423.073,619.617 420,618.5C415.827,610.707 416.993,603.874 423.5,598C427.447,595.72 431.113,593.053 434.5,590C448.311,576.767 461.977,563.6 475.5,550.5C478.5,547.833 481.5,545.167 484.5,542.5C523.181,508.808 566.181,481.641 613.5,461C635.293,452.437 657.293,444.437 679.5,437C648.613,409.021 635.446,374.187 640,332.5C644.509,323.753 650.509,322.419 658,328.5C654.41,357.343 660.744,383.676 677,407.5C684.772,415.444 693.272,422.444 702.5,428.5C779.738,408.666 840.238,365.666 884,299.5C889.626,290.416 895.126,281.25 900.5,272C803.705,271.855 710.038,288.855 619.5,323C539.75,357.761 470.25,406.927 411,470.5C400.957,481.705 391.124,493.039 381.5,504.5C332.349,561.982 284.682,620.649 238.5,680.5C232.685,687.429 226.852,694.429 221,701.5C245.839,697.926 269.006,688.093 290.5,672C311.399,653.102 330.899,632.935 349,611.5C371.333,583.167 393.667,554.833 416,526.5C425.316,515.842 435.816,506.675 447.5,499C472.525,484.81 498.525,482.81 525.5,493C527.958,494.787 529.624,497.121 530.5,500C528.945,503.561 526.612,506.561 523.5,509C513.402,507.792 503.236,506.959 493,506.5C488.118,506.554 483.285,506.888 478.5,507.5C462.206,511.231 448.373,519.231 437,531.5C408.239,567.35 379.239,603.017 350,638.5C334.29,655.55 317.79,671.55 300.5,686.5C282.267,700.225 263.601,713.391 244.5,726C224.08,737.294 203.58,748.46 183,759.5C182.667,797.167 182.333,834.833 182,872.5C177.983,879.138 172.15,881.304 164.5,879C162.051,878.275 159.717,877.275 157.5,876C152.801,870.966 147.801,866.3 142.5,862C135.579,860.781 128.579,860.114 121.5,860C116.244,853.883 116.244,847.883 121.5,842C131.811,839.207 141.478,840.54 150.5,846C155.746,850.575 160.246,855.742 164,861.5C163.405,826.435 163.405,791.435 164,756.5C156.318,763.857 147.818,770.023 138.5,775C131.285,777.115 127.285,774.449 126.5,767C127.301,764.402 128.634,762.069 130.5,760C139.833,752 149.167,744 158.5,736C143.869,734.47 129.203,733.47 114.5,733C80.495,732.128 46.495,731.128 12.5,730C10.714,729.215 9.214,728.049 8,726.5C4.838,714.116 9.505,708.783 22,710.5C76.488,713.291 130.988,715.458 185.5,717C249.818,634.674 315.651,553.507 383,473.5C411.356,442.249 442.19,413.749 475.5,388C469.557,389.712 463.39,390.878 457,391.5C445.577,389.738 442.577,383.738 448,373.5C453.711,369.456 458.378,364.456 462,358.5C471.299,343.4 480.466,328.233 489.5,313C479.792,295.747 468.958,279.247 457,263.5C453.271,258.726 451.938,253.393 453,247.5C453.374,246.584 453.874,245.75 454.5,245C457.5,244.333 460.5,244.333 463.5,245C521.583,260.683 578.917,278.516 635.5,298.5C705.026,273.688 776.693,259.188 850.5,255C870.832,254.061 891.165,253.228 911.5,252.5C920.676,252.676 925.009,257.342 924.5,266.5ZM484.5,269.5C490.978,279.777 497.478,290.11 504,300.5C506.347,304.191 507.847,308.191 508.5,312.5C501.252,331.579 491.252,349.079 478.5,365C485.671,366.266 492.671,368.1 499.5,370.5C532.965,346.093 568.632,325.26 606.5,308C594.326,303.207 581.993,298.873 569.5,295C540.923,287.195 512.589,278.695 484.5,269.5ZM618.5,494.5C620.017,494.511 621.184,495.177 622,496.5C625.301,501.343 624.967,506.01 621,510.5C604.333,535.833 587.667,561.167 571,586.5C568.386,590.09 565.552,593.424 562.5,596.5C553.604,597.768 549.77,593.768 551,584.5C552.059,581.382 553.392,578.382 555,575.5C571.83,551.177 588.163,526.51 604,501.5C606.07,499.151 608.237,496.984 610.5,495C613.146,494.503 615.813,494.336 618.5,494.5ZM12.5,732.5C26.877,733.292 41.211,734.458 55.5,736C56.701,736.903 57.535,738.069 58,739.5C58.667,742.833 58.667,746.167 58,749.5C57.167,751.667 55.667,753.167 53.5,754C40.833,754.667 28.167,754.667 15.5,754C13,752.833 11.167,751 10,748.5C8.834,742.753 9.668,737.419 12.5,732.5ZM55.5,767.5C70.171,767.333 84.837,767.5 99.5,768C103.764,772.168 104.597,777.002 102,782.5C100.786,784.049 99.286,785.215 97.5,786C84.167,786.667 70.833,786.667 57.5,786C55.951,784.786 54.785,783.286 54,781.5C53.034,776.61 53.534,771.943 55.5,767.5ZM112.5,786.5C117.589,785.428 121.422,787.095 124,791.5C126.05,798.38 126.716,805.38 126,812.5C123.829,816.844 121.163,820.844 118,824.5C111.128,831.041 103.961,837.207 96.5,843C91.933,843.632 88.766,841.799 87,837.5C86.035,833.218 86.702,829.218 89,825.5C94.073,819.756 99.74,814.756 106,810.5C106.242,804.116 106.908,797.782 108,791.5C109.025,789.313 110.525,787.646 112.5,786.5Z" style="fill:rgb(4,0,0);"/>
    </g>
</svg>
