<?xml version="1.0" encoding="UTF-8" standalone="no"?>
<!DOCTYPE svg PUBLIC "-//W3C//DTD SVG 1.1//EN" "http://www.w3.org/Graphics/SVG/1.1/DTD/svg11.dtd">
<svg width="100%" height="100%" viewBox="0 0 1024 1024" version="1.1" xmlns="http://www.w3.org/2000/svg" xmlns:xlink="http://www.w3.org/1999/xlink" xml:space="preserve" xmlns:serif="http://www.serif.com/" style="fill-rule:evenodd;clip-rule:evenodd;stroke-linejoin:round;stroke-miterlimit:2;">
    <g transform="matrix(1.41309,0,0,1.41309,-197.403,-259.795)">
        <path d="M652.5,513.5C621.062,489.907 589.728,466.074 558.5,442C554.476,438.787 552.476,434.62 552.5,429.5C553.596,427.897 554.93,426.397 556.5,425C560.956,424.133 565.289,424.466 569.5,426C611.307,457.982 652.64,490.482 693.5,523.5C696.815,525.808 700.149,528.141 703.5,530.5C711.763,537.315 720.096,544.148 728.5,551C741.122,547.957 746.289,552.79 744,565.5C738.681,571.167 732.181,573.001 724.5,571C700.024,552.349 676.024,533.183 652.5,513.5ZM319.5,307.5C283.079,312.348 246.745,317.848 210.5,324C205.617,325.257 201.284,324.424 197.5,321.5C195.564,316.611 196.564,312.444 200.5,309C204.09,307.47 207.757,306.136 211.5,305C242.37,286.064 273.703,267.897 305.5,250.5C310.214,246.648 315.547,243.814 321.5,242C331.5,241.667 341.5,241.333 351.5,241C352.833,240.333 354.167,239.667 355.5,239C360.387,233.114 364.887,226.947 369,220.5C383.153,204.513 400.32,193.18 420.5,186.5C461.961,177.479 493.128,191.479 514,228.5C519.559,242.387 521.392,256.72 519.5,271.5C515.316,294.207 504.65,313.207 487.5,328.5C471.882,340.316 455.549,351.149 438.5,361C428.086,368.41 420.253,377.91 415,389.5C412.37,404.279 415.87,417.446 425.5,429C431.311,433.31 436.977,437.81 442.5,442.5C445.904,418.365 455.737,397.365 472,379.5C501.337,355.257 534.17,349.424 570.5,362C647.58,381.095 706.413,424.595 747,492.5C766.152,526.283 780.819,561.95 791,599.5C794.278,611.828 797.444,624.161 800.5,636.5C805.124,658.583 807.458,680.916 807.5,703.5L807.5,802.5C802.789,809.535 797.289,810.201 791,804.5C789.719,786.219 789.053,767.885 789,749.5C787.887,748.695 786.721,748.028 785.5,747.5C783.036,745.43 780.369,743.596 777.5,742C718.619,712.107 660.452,680.941 603,648.5C601.408,644.979 599.575,641.646 597.5,638.5C595.529,635.426 594.696,632.092 595,628.5C596.521,624.547 599.354,623.047 603.5,624C610.216,629.717 617.216,635.05 624.5,640C673.093,665.959 721.76,691.292 770.5,716C767.331,711.999 763.997,708.166 760.5,704.5C753.843,699.175 747.51,693.509 741.5,687.5C724.727,674.571 708.061,661.405 691.5,648C651.053,619.22 610.887,590.054 571,560.5C566.397,548.501 570.563,543.667 583.5,546C612.888,567.721 642.554,589.054 672.5,610C693.45,626.798 714.783,642.965 736.5,658.5C743.082,662.908 749.249,667.908 755,673.5C749.698,657.595 744.365,641.595 739,625.5C738.333,621.833 738.333,618.167 739,614.5C743.25,608.626 748.25,607.959 754,612.5C760.74,632.388 768.074,652.054 776,671.5C780.426,681.351 785.093,691.017 790,700.5C789.304,686.12 787.804,671.787 785.5,657.5C774.969,603.409 757.135,551.742 732,502.5C701.148,450.657 657.648,413.49 601.5,391C583.889,386.13 566.222,381.463 548.5,377C538.167,376.333 527.833,376.333 517.5,377C513.265,378.211 509.265,379.711 505.5,381.5C485.661,389.174 472.494,403.174 466,423.5C456.305,467.055 465.639,506.055 494,540.5C516.564,564.576 541.064,586.243 567.5,605.5C568.721,606.028 569.887,606.695 571,607.5C571.5,701.166 571.667,794.833 571.5,888.5C600.835,888.333 630.169,888.5 659.5,889C665.542,892.748 667.042,897.915 664,904.5C662.786,906.049 661.286,907.215 659.5,908C583.5,908.667 507.5,908.667 431.5,908C426.538,904.457 424.704,899.624 426,893.5C426.833,891.333 428.333,889.833 430.5,889C469.514,888.887 508.514,888.22 547.5,887C550.438,884.975 552.272,882.142 553,878.5C553.499,872.509 553.666,866.509 553.5,860.5C553.833,801.496 553.5,742.496 552.5,683.5C513.182,656.03 477.015,624.697 444,589.5C414.304,540.787 386.637,490.787 361,439.5C346.141,405.996 348.807,373.996 369,343.5C379.97,327.528 393.803,314.695 410.5,305C402.183,303.838 394.517,301.005 387.5,296.5C364.785,299.91 342.118,303.577 319.5,307.5ZM396.5,385.5C401.547,372.605 409.214,361.438 419.5,352C435.857,340.491 452.524,329.491 469.5,319C475.969,313.532 482.136,307.699 488,301.5C492.721,294.724 496.388,287.391 499,279.5C507.765,238.683 491.932,213.35 451.5,203.5C436.167,201.133 421.833,203.967 408.5,212C396.101,218.399 386.267,227.565 379,239.5C377.449,258.973 385.616,272.806 403.5,281C416.573,284.008 429.74,284.174 443,281.5C445.327,281.178 446.494,279.844 446.5,277.5C447.228,275.265 448.561,273.432 450.5,272C458.575,267.405 464.575,269.238 468.5,277.5C468.395,281.319 467.562,284.986 466,288.5C458.6,296.953 450.1,304.12 440.5,310C418.461,320.045 399.961,334.545 385,353.5C372.31,371.26 367.643,390.927 371,412.5C375.274,426.719 380.941,440.385 388,453.5C410.64,496.116 434.306,538.116 459,579.5C461.833,583 464.667,586.5 467.5,590C494.726,614.931 523.06,638.431 552.5,660.5C553.666,647.179 553.833,633.846 553,620.5C528.151,601.657 505.151,580.657 484,557.5C458.031,527.865 443.864,493.198 441.5,453.5C437.951,453.561 434.618,452.727 431.5,451C401.327,439.158 389.66,417.325 396.5,385.5ZM428.5,232.5C444.258,232.347 449.425,239.68 444,254.5C432.862,267.728 419.362,270.894 403.5,264C399.859,261.155 399.692,257.988 403,254.5C406.543,250.426 411.043,248.259 416.5,248C418.135,244.11 419.968,240.276 422,236.5C424.013,234.752 426.18,233.418 428.5,232.5ZM331.5,265.5C324.493,265.834 317.493,266.334 310.5,267C307.833,269 305.167,271 302.5,273C288.36,281.403 273.693,288.737 258.5,295C266.764,294.04 275.097,293.207 283.5,292.5C312.714,288.512 342.048,284.346 371.5,280C366.903,275.475 363.569,270.142 361.5,264C351.415,263.224 341.415,263.724 331.5,265.5Z"/>
    </g>
</svg>
