<?xml version="1.0" encoding="UTF-8" standalone="no"?>
<!DOCTYPE svg PUBLIC "-//W3C//DTD SVG 1.1//EN" "http://www.w3.org/Graphics/SVG/1.1/DTD/svg11.dtd">
<svg width="100%" height="100%" viewBox="0 0 1024 1024" version="1.1" xmlns="http://www.w3.org/2000/svg" xmlns:xlink="http://www.w3.org/1999/xlink" xml:space="preserve" xmlns:serif="http://www.serif.com/" style="fill-rule:evenodd;clip-rule:evenodd;stroke-linejoin:round;stroke-miterlimit:2;">
    <g transform="matrix(1.32826,0,0,1.32826,-197.384,-248.492)">
        <path d="M395.5,595.5C427.062,631.408 439.562,673.075 433,720.5C458.18,703.652 478.18,681.985 493,655.5C501.348,639.469 509.682,623.469 518,607.5C525.783,597.714 532.783,587.38 539,576.5C555.375,560.127 571.041,543.127 586,525.5C608.063,497.704 629.396,469.371 650,440.5C664.787,421.377 679.954,402.544 695.5,384C712.81,378.337 730.144,372.671 747.5,367C758.084,364.283 768.751,361.95 779.5,360C805.152,357.493 830.819,355.16 856.5,353C867.509,350.829 877.176,345.995 885.5,338.5C847.016,329.017 823.349,305.017 814.5,266.5C794.311,269.388 776.644,277.555 761.5,291C740.896,311.266 721.396,332.433 703,354.5C676.707,381.464 646.54,402.964 612.5,419C559.728,441.591 505.395,459.591 449.5,473C406.459,485.688 366.792,505.022 330.5,531C324.263,532.713 319.096,531.213 315,526.5C313.113,522.201 312.279,517.701 312.5,513C316.323,461.487 337.323,418.487 375.5,384C382.5,378.333 389.5,372.667 396.5,367C430.833,347.333 465.167,327.667 499.5,308C515.681,296.494 530.681,283.494 544.5,269C547.702,267.517 551.036,267.183 554.5,268C566.554,273.129 578.887,277.462 591.5,281C595.548,283.083 597.881,286.417 598.5,291C593.66,305.515 590.16,320.348 588,335.5C586.157,357.644 592.824,376.644 608,392.5C626.17,383.326 643.004,372.16 658.5,359C682.408,336.428 704.908,312.594 726,287.5C755.058,255.585 791.225,239.085 834.5,238C836.081,238.707 837.581,239.54 839,240.5C838.834,258.161 843.5,274.495 853,289.5C860.428,297.93 869.261,304.43 879.5,309C891,313.625 902.667,317.792 914.5,321.5C920.669,327.272 921.169,333.605 916,340.5C901.912,364.892 880.745,378.392 852.5,381C803.563,379.655 756.563,388.321 711.5,407C680.85,444.646 651.35,483.146 623,522.5C623.217,565.201 615.883,606.534 601,646.5C586.532,680.304 564.365,707.804 534.5,729C505.099,747.018 473.099,755.351 438.5,754C429.167,759.333 419.833,764.667 410.5,770C396.008,775.275 381.675,780.942 367.5,787C365.866,787.494 364.199,787.66 362.5,787.5C362.333,802.17 362.5,816.837 363,831.5C363.388,832.428 364.055,833.095 365,833.5C367.026,832.48 368.359,830.813 369,828.5C369.469,822.81 370.136,817.143 371,811.5C374.676,800.918 381.843,797.751 392.5,802C396.087,806.502 397.753,811.668 397.5,817.5C398.386,831.349 394.053,843.183 384.5,853C364.931,865.289 349.431,861.455 338,841.5C337.338,839.187 336.838,836.854 336.5,834.5L336.5,793.5C334.901,793.232 333.568,793.566 332.5,794.5C329.794,794.575 327.127,794.908 324.5,795.5C322.657,794.717 320.657,794.05 318.5,793.5C317.808,794.025 317.308,794.692 317,795.5C316.5,830.165 316.333,864.832 316.5,899.5C316.249,901.17 315.582,902.67 314.5,904C304.419,909.877 297.252,907.377 293,896.5C292.5,863.835 292.333,831.168 292.5,798.5C257.47,799.921 222.803,797.088 188.5,790C178.603,780.299 174.269,768.632 175.5,755C168.77,754.83 162.103,754.163 155.5,753C151.99,750.831 149.823,747.664 149,743.5C146.538,702.354 155.538,664.02 176,628.5C190.278,603.82 208.444,582.32 230.5,564C245.966,551.935 263.3,543.601 282.5,539C289.548,538.27 296.548,538.603 303.5,540C315.616,543.426 327.282,547.926 338.5,553.5C360.336,563.672 379.336,577.672 395.5,595.5ZM320.5,572.5C300.083,562.504 280.083,563.338 260.5,575C213.223,608.017 185.056,653.184 176,710.5C175.17,716.196 175.337,721.863 176.5,727.5C209.118,727.475 241.785,727.641 274.5,728C285.534,731.599 288.701,738.766 284,749.5C282.117,752.024 279.617,753.358 276.5,753.5C251.764,752.829 226.931,752.162 202,751.5C201.536,752.094 201.369,752.761 201.5,753.5L201.5,766.5C246.048,774.774 290.714,775.441 335.5,768.5C335.333,753.83 335.5,739.163 336,724.5C345.434,711.366 350.601,696.699 351.5,680.5C351.217,673.019 350.05,665.686 348,658.5C344.606,650.712 340.939,643.045 337,635.5C335.198,622.636 340.698,617.136 353.5,619C356.266,620.467 358.766,622.3 361,624.5C379.914,652.572 383.581,682.572 372,714.5C369.499,719.506 366.499,724.173 363,728.5C362.168,739.515 362.334,750.515 363.5,761.5C371.46,758.235 379.46,755.069 387.5,752C400.864,738.755 407.864,722.589 408.5,703.5C410.328,670.178 400.495,640.845 379,615.5C362.152,597.349 342.652,583.016 320.5,572.5ZM594.5,553.5C592.612,557.56 590.112,561.226 587,564.5C577.369,575.799 567.369,586.799 557,597.5C551.727,606.437 546.06,615.103 540,623.5C529.588,643.326 518.921,662.993 508,682.5C503.754,687.991 499.754,693.658 496,699.5C488.13,709.037 479.297,717.537 469.5,725C484.239,723.813 498.239,719.813 511.5,713C536.459,698.374 555.625,678.207 569,652.5C584.296,620.974 592.796,587.974 594.5,553.5ZM553.5,298.5C539.925,310.567 525.592,321.734 510.5,332C481.986,349.093 452.986,365.427 423.5,381C403.856,393.307 386.689,408.474 372,426.5C356.913,445.766 347.246,467.432 343,491.5C361.863,480.485 381.363,470.652 401.5,462C445.293,448.051 489.293,434.717 533.5,422C549.941,416.91 565.941,410.743 581.5,403.5C577.151,397.467 573.318,391.133 570,384.5C559.552,356.812 558.719,328.812 567.5,300.5C562.938,299.204 558.271,298.538 553.5,298.5ZM279.5,600.5C301.861,598.992 319.361,607.325 332,625.5C339.568,645.092 337.235,663.426 325,680.5C304.349,701.013 281.516,703.847 256.5,689C235.188,669.282 231.688,646.782 246,621.5C254.607,610.287 265.773,603.287 279.5,600.5ZM283.5,625.5C277.294,627.535 272.127,631.202 268,636.5C260.754,651.148 264.254,662.315 278.5,670C293.928,673.043 304.095,667.21 309,652.5C309.008,635.671 300.508,626.671 283.5,625.5ZM220.5,294.5C260.673,296.501 280.173,317.501 279,357.5C273.842,382.658 258.676,397.824 233.5,403C199.491,405.255 178.991,389.755 172,356.5C170.794,322.209 186.961,301.543 220.5,294.5ZM221.5,321.5C204.051,327.143 196.551,339.143 199,357.5C202.238,366.517 208.405,372.35 217.5,375C234.799,378.44 246.299,371.94 252,355.5C253.583,333.681 243.416,322.347 221.5,321.5ZM221.5,449.5C245.281,448.449 260.114,459.449 266,482.5C265.969,504.858 255.136,518.691 233.5,524C210.944,525.976 196.444,516.143 190,494.5C187.896,478.202 193.396,465.035 206.5,455C211.366,452.477 216.366,450.644 221.5,449.5ZM225.5,476.5C216.725,480.652 215.392,486.485 221.5,494C229.35,498.112 234.35,495.945 236.5,487.5C237.016,479.482 233.35,475.815 225.5,476.5ZM761.5,514.5C800.867,512.872 823.2,531.539 828.5,570.5C825.068,605.931 805.735,625.931 770.5,630.5C735.303,626.803 715.969,607.303 712.5,572C714.742,540.605 731.076,521.439 761.5,514.5ZM761.5,541.5C744.354,549.456 737.521,562.79 741,581.5C748.305,598.736 761.138,605.236 779.5,601C797.278,592.734 803.778,578.901 799,559.5C791.092,544.451 778.592,538.451 761.5,541.5ZM533.5,480.5C545.404,478.113 551.738,482.946 552.5,495C547.795,517.077 537.129,535.743 520.5,551C504.13,564.937 485.63,575.104 465,581.5C452.856,579.353 448.522,572.353 452,560.5C456.08,555.909 461.247,553.409 467.5,553C492.675,543.491 511.175,526.658 523,502.5C524.802,497.625 526.135,492.625 527,487.5C528.694,484.642 530.861,482.309 533.5,480.5ZM641.5,708.5C671.901,705.857 693.234,718.357 705.5,746C710.474,765.132 706.974,782.632 695,798.5C672.421,820.558 647.587,823.725 620.5,808C597.572,787.082 592.739,762.582 606,734.5C614.262,720.801 626.095,712.135 641.5,708.5ZM648.5,734.5C630.534,740.329 623.034,752.662 626,771.5C631.793,785.618 642.293,791.785 657.5,790C670.045,787.489 677.545,779.989 680,767.5C680.664,745.995 670.164,734.995 648.5,734.5Z"/>
    </g>
</svg>
