<?xml version="1.0" encoding="UTF-8" standalone="no"?>
<!DOCTYPE svg PUBLIC "-//W3C//DTD SVG 1.1//EN" "http://www.w3.org/Graphics/SVG/1.1/DTD/svg11.dtd">
<svg width="100%" height="100%" viewBox="0 0 1024 1024" version="1.1" xmlns="http://www.w3.org/2000/svg" xmlns:xlink="http://www.w3.org/1999/xlink" xml:space="preserve" xmlns:serif="http://www.serif.com/" style="fill-rule:evenodd;clip-rule:evenodd;stroke-linejoin:round;stroke-miterlimit:2;">
    <g transform="matrix(1.59793,0,0,1.59793,-269.03,-336.801)">
        <path d="M271.5,646.5C247.637,637.111 238.137,619.777 243,594.5C244.473,590.221 246.473,586.221 249,582.5C249.903,581.299 251.069,580.465 252.5,580C241.207,566.206 238.374,550.706 244,533.5C245.039,531.254 246.206,529.087 247.5,527C244.527,524.552 243.027,521.386 243,517.5C242.5,467.168 242.333,416.834 242.5,366.5C218.196,362.697 205.196,348.53 203.5,324C204.741,311.018 210.741,300.851 221.5,293.5C215.926,283.022 210.926,272.355 206.5,261.5C205.323,259.321 204.323,256.987 203.5,254.5L203.5,253.5C200.83,246.693 199.163,239.526 198.5,232C198.75,222.412 203.416,219.078 212.5,222C222.282,229.597 232.948,235.763 244.5,240.5C245.333,241.5 246.167,242.5 247,243.5C252.458,234.766 260.458,230.433 271,230.5C275.068,230.594 278.901,231.26 282.5,232.5L283.5,232.5C296.746,210.911 315.08,205.411 338.5,216C344.79,219.956 350.124,224.956 354.5,231C370.208,228.754 383.542,233.254 394.5,244.5C401.314,241.593 407.98,238.426 414.5,235C420.733,230.585 427.067,226.418 433.5,222.5C443.78,220.963 447.947,225.629 446,236.5C442.287,254.636 435.62,271.636 426,287.5C424.5,290.333 422.333,292.5 419.5,294C426.956,300.419 432.289,308.252 435.5,317.5C436.038,319.117 436.371,320.784 436.5,322.5C435.977,342.54 426.644,356.874 408.5,365.5C407.334,384.158 407.167,402.824 408,421.5C409.588,425.672 411.421,429.672 413.5,433.5C413.167,459.842 413.5,486.175 414.5,512.5C415.107,512.376 415.44,512.043 415.5,511.5L423.5,511.5C425.483,493.355 435.15,481.522 452.5,476C458.891,475.242 465.224,475.576 471.5,477C478.223,480.111 484.723,483.611 491,487.5C498.156,483.005 505.656,479.172 513.5,476C521.483,474.241 529.483,474.074 537.5,475.5C544.847,478.256 551.681,481.923 558,486.5C565.948,479.778 575.114,475.611 585.5,474C593.192,473.271 600.525,474.605 607.5,478C612.667,481.167 617.833,484.333 623,487.5C643.224,469.843 663.058,470.177 682.5,488.5C683.518,487.807 684.518,487.141 685.5,486.5C700.306,475.19 716.973,471.69 735.5,476C765.536,487.034 780.036,508.534 779,540.5C776.091,558.192 766.924,571.359 751.5,580C748.833,580.667 746.167,581.333 743.5,582C756.636,593.746 761.136,608.246 757,625.5C754.82,631.361 751.987,636.861 748.5,642C758.991,657.681 759.158,673.515 749,689.5C745.418,694.272 740.918,697.606 735.5,699.5C735.667,739.835 735.5,780.168 735,820.5C735.024,825.783 733.357,830.45 730,834.5C725.331,838.337 720.831,842.337 716.5,846.5C714.88,848.984 712.547,850.484 709.5,851C690.17,851.5 670.836,851.667 651.5,851.5C648.657,850.828 646.157,849.495 644,847.5C644.155,830.47 643.322,813.803 641.5,797.5C641.667,814.17 641.5,830.837 641,847.5C640.617,848.056 640.117,848.389 639.5,848.5C638.942,849.79 637.942,850.623 636.5,851C620.503,851.5 604.503,851.667 588.5,851.5C584.537,851.911 580.87,851.078 577.5,849L562,833.5C560.725,831.283 559.725,828.949 559,826.5C558.667,798.5 558.333,770.5 558,742.5C557.617,743.056 557.117,743.389 556.5,743.5C551.804,747.521 546.804,751.188 541.5,754.5C520.229,764.705 501.395,761.372 485,744.5C484.601,744.728 484.435,745.062 484.5,745.5L484.5,818.5C485.319,824.8 483.985,830.467 480.5,835.5C477.126,839.876 473.126,843.542 468.5,846.5C466.567,848.596 464.233,850.096 461.5,851C444.503,851.5 427.503,851.667 410.5,851.5C406.98,850.817 404.48,848.817 403,845.5C402.5,830.17 402.333,814.837 402.5,799.5C402.44,798.957 402.107,798.624 401.5,798.5C400.501,814.152 400.167,829.819 400.5,845.5C400.489,847.017 399.823,848.184 398.5,849C396.146,849.847 393.812,850.68 391.5,851.5C373.497,851.667 355.497,851.5 337.5,851C329.245,845.722 322.412,838.889 317,830.5C315.677,788.251 315.011,745.917 315,703.5C301.247,704.125 290.247,698.792 282,687.5C279.603,683.376 277.769,679.043 276.5,674.5C274.945,670.797 274.278,666.797 274.5,662.5C274.375,657.512 275.042,652.679 276.5,648C274.618,647.802 272.952,647.302 271.5,646.5ZM276.5,250.5C271.044,250.209 266.044,251.542 261.5,254.5C254.539,258.74 249.705,264.74 247,272.5C245.588,284.104 245.088,295.771 245.5,307.5C242.482,307.335 239.482,307.502 236.5,308C219.441,317.417 218.108,328.751 232.5,342C243.552,348.054 252.885,346.22 260.5,336.5C263.026,331.282 265.693,326.115 268.5,321C269.833,320.333 271.167,320.333 272.5,321C277.486,325.161 282.819,328.827 288.5,332C293.833,334 299.167,334 304.5,332C307.934,327.81 311.6,323.81 315.5,320C318.998,318.033 322.332,318.367 325.5,321C338.329,337.258 351.662,337.592 365.5,322C366.833,321.333 368.167,321.333 369.5,322C373.332,329.335 377.665,336.335 382.5,343C390.407,347.448 398.407,347.615 406.5,343.5C408.735,342.772 410.568,341.439 412,339.5C417.401,331.322 417.734,322.988 413,314.5C405.817,306.828 396.984,303.828 386.5,305.5C384.983,303.538 384.316,301.205 384.5,298.5C386.605,289.269 387.438,279.935 387,270.5C380.25,253.04 368.084,247.374 350.5,253.5C349.152,254.601 347.652,255.601 346,256.5C342.941,245.525 336.441,237.359 326.5,232C315.617,228.355 306.783,231.188 300,240.5C296.829,246.176 293.663,251.842 290.5,257.5C286.01,254.588 281.343,252.255 276.5,250.5ZM465.5,790.5C464.817,794.019 462.817,796.519 459.5,798C452.38,802.207 444.713,804.707 436.5,805.5C431.84,805.372 427.507,804.372 423.5,802.5C422.506,812.319 422.173,822.319 422.5,832.5C436.839,832.353 451.172,832.02 465.5,831.5C465.171,818.989 465.505,806.655 466.5,794.5C466.768,792.901 466.434,791.568 465.5,790.5ZM376.5,804.5C357.148,806.907 342.648,799.574 333,782.5C332.333,797.833 332.333,813.167 333,828.5C334.174,830.671 336.007,831.671 338.5,831.5L383.5,831.5C382.774,821.859 382.274,812.192 382,802.5C380.275,803.464 378.441,804.131 376.5,804.5ZM594.5,799.5C593.391,799.443 592.391,799.11 591.5,798.5C585.694,793.364 581.027,787.364 577.5,780.5C576.504,795.324 576.171,810.324 576.5,825.5C576.393,827.903 577.393,829.736 579.5,831C594.163,831.5 608.83,831.667 623.5,831.5C623.832,822.475 623.498,813.475 622.5,804.5C614.715,806.059 607.049,805.559 599.5,803C597.416,802.303 595.749,801.136 594.5,799.5ZM716.5,492.5C709.643,493.452 703.31,495.785 697.5,499.5C695.519,501.303 693.352,502.97 691,504.5C690.505,506.473 690.338,508.473 690.5,510.5C707.481,509.407 720.981,515.74 731,529.5C737.541,540.895 739.207,552.895 736,565.5C756.999,556.997 764.332,541.664 758,519.5C750.08,501.414 736.247,492.414 716.5,492.5ZM422.5,251.5C416.019,254.574 410.019,258.408 404.5,263C405.986,266.135 407.32,269.302 408.5,272.5C408.337,274.857 408.503,277.19 409,279.5C414.315,270.537 418.815,261.204 422.5,251.5ZM681.5,530.5C680.542,530.047 679.708,529.381 679,528.5C676.636,519.734 673.303,511.401 669,503.5C664.248,496.707 657.748,493.541 649.5,494C641.653,498.088 634.319,502.921 627.5,508.5C622.332,506.001 617.165,506.001 612,508.5C596.417,488.56 580.75,488.56 565,508.5C559.519,505.854 554.186,506.188 549,509.5C543.683,501.6 536.517,496.267 527.5,493.5C515.557,494.055 506.39,499.388 500,509.5C495.204,505.554 490.37,505.554 485.5,509.5C476.731,499.104 465.731,494.937 452.5,497C449,499.167 446.167,502 444,505.5C440.296,513.828 437.129,522.328 434.5,531C427.862,532.044 421.196,533.044 414.5,534C410.989,536.847 407.489,539.68 404,542.5C400.257,542.417 397.59,540.751 396,537.5C395.171,532.863 394.671,528.196 394.5,523.5C394.833,491.826 394.5,460.16 393.5,428.5C392.893,428.624 392.56,428.957 392.5,429.5C390.529,434.105 388.029,438.438 385,442.5C371.773,455.139 355.94,461.972 337.5,463C316.606,466.773 296.606,464.106 277.5,455C270.052,451.218 264.218,445.718 260,438.5C260.305,463.446 260.638,488.446 261,513.5C262.907,517.41 265.573,520.744 269,523.5C269.875,524.873 270.375,526.373 270.5,528C267.709,531.466 264.875,534.966 262,538.5C259.736,544.662 259.07,550.996 260,557.5C264.58,566.328 269.413,574.995 274.5,583.5C269.639,587.561 265.473,592.227 262,597.5C258.537,604.374 258.704,611.04 262.5,617.5C268.869,625.351 277.202,629.518 287.5,630C290.281,630.522 292.615,631.689 294.5,633.5C296.714,634.392 297.714,636.058 297.5,638.5C295.674,644.156 293.84,649.823 292,655.5C291.333,659.167 291.333,662.833 292,666.5C298.905,681.707 310.738,688.207 327.5,686C328.579,686.956 329.745,687.789 331,688.5C332.058,698.125 333.058,707.792 334,717.5C338.503,726.505 343.003,735.505 347.5,744.5C346.54,749.088 344.54,753.088 341.5,756.5C343.169,762.839 345.669,768.839 349,774.5C354.542,782.855 362.375,786.855 372.5,786.5C383.699,783.738 392.699,777.738 399.5,768.5C400.462,764.854 402.795,763.687 406.5,765C411.5,770.667 416.5,776.333 421.5,782C436.462,789.305 448.796,786.139 458.5,772.5C459.024,770.694 459.691,769.028 460.5,767.5C461.527,763.554 461.694,759.554 461,755.5C458.497,752.498 456.497,749.165 455,745.5C454.259,740.481 456.092,736.647 460.5,734C467.885,731.004 473.552,726.17 477.5,719.5C477.334,715.154 477.501,710.821 478,706.5C483.516,703.092 487.516,704.425 490,710.5C491.786,724.282 498.953,734.115 511.5,740C534.302,743.495 546.802,733.662 549,710.5C551.963,704.439 556.797,702.272 563.5,704C564.904,709.194 566.737,714.361 569,719.5C576.373,727.204 583.373,735.204 590,743.5C590.667,746.167 590.667,748.833 590,751.5C588.455,753.209 587.622,755.209 587.5,757.5C588.669,767.672 593.336,775.839 601.5,782C618.14,790.514 631.807,787.014 642.5,771.5C643.748,767.395 646.415,765.562 650.5,766C655.812,771.644 661.479,776.977 667.5,782C676.154,786.664 684.821,786.664 693.5,782C706.922,770.253 710.589,756.086 704.5,739.5C708.287,730.261 711.787,720.928 715,711.5C716.146,703.885 716.812,696.218 717,688.5C722.09,686.914 726.923,684.747 731.5,682C734.844,678.479 737.011,674.312 738,669.5C737.958,659.074 734.291,650.074 727,642.5C724.594,635.547 726.76,631.047 733.5,629C742.313,618.323 742.813,607.156 735,595.5C728.935,589.761 722.601,584.428 716,579.5C716.824,571.207 717.657,562.874 718.5,554.5C719.095,545.776 716.095,538.609 709.5,533C700.592,527.876 691.259,527.043 681.5,530.5ZM231.5,255.5C227.899,254.366 224.565,252.699 221.5,250.5C225.077,256.396 227.577,262.729 229,269.5C231.26,264.948 232.093,260.281 231.5,255.5ZM715.5,782.5C714.223,784.95 712.723,787.283 711,789.5C697.107,805.858 680.94,808.858 662.5,798.5C661.501,809.48 661.168,820.48 661.5,831.5C678.509,832.928 695.509,832.761 712.5,831C713.931,830.535 715.097,829.701 716,828.5C716.497,825.854 716.664,823.187 716.5,820.5C716.829,807.656 716.495,794.989 715.5,782.5ZM335.5,443.5C340.215,443.494 344.882,442.994 349.5,442C366.119,438.138 376.286,427.971 380,411.5C381.176,397.532 381.842,383.532 382,369.5L383.5,366.5C374.878,361.447 367.378,355.114 361,347.5C357.505,349.778 353.672,351.278 349.5,352C338.029,352.594 328.362,348.76 320.5,340.5C306.915,353.02 291.749,355.353 275,347.5C272.439,353.395 268.439,358.061 263,361.5C262.333,377.167 262.333,392.833 263,408.5C271.642,433.295 289.142,445.295 315.5,444.5C315.422,437.485 315.089,430.485 314.5,423.5C301.412,420.923 291.912,413.59 286,401.5C284.237,396.445 284.237,391.445 286,386.5C289.196,382.813 292.696,382.647 296.5,386C300.522,391.02 304.856,395.686 309.5,400C320.008,404.14 329.841,402.973 339,396.5C341.112,392.722 343.612,389.222 346.5,386C354.088,382.6 358.754,384.933 360.5,393C357.119,410.216 346.786,420.049 329.5,422.5L329.5,423.5C330.491,429.979 330.824,436.646 330.5,443.5L335.5,443.5Z"/>
    </g>
</svg>
