<?xml version="1.0" encoding="UTF-8" standalone="no"?>
<!DOCTYPE svg PUBLIC "-//W3C//DTD SVG 1.1//EN" "http://www.w3.org/Graphics/SVG/1.1/DTD/svg11.dtd">
<svg width="100%" height="100%" viewBox="0 0 1024 1024" version="1.1" xmlns="http://www.w3.org/2000/svg" xmlns:xlink="http://www.w3.org/1999/xlink" xml:space="preserve" xmlns:serif="http://www.serif.com/" style="fill-rule:evenodd;clip-rule:evenodd;stroke-linejoin:round;stroke-miterlimit:2;">
    <g transform="matrix(1.58067,0,0,1.58067,-233.43,-297.662)">
        <path d="M150.5,369.5C146.159,361.669 146.826,354.169 152.5,347C157.777,343.838 163.443,342.838 169.5,344C195.276,349.594 221.276,350.927 247.5,348C256.633,346.3 265.633,344.133 274.5,341.5L276.5,341.5C281.854,309.96 295.854,282.794 318.5,260C348.489,233.234 383.489,223.234 423.5,230C473.241,239.75 507.075,268.25 525,315.5C528.044,325.487 530.544,335.487 532.5,345.5C534.368,371.258 530.868,396.258 522,420.5C512.06,444.59 496.227,463.59 474.5,477.5C459.053,484.937 443.387,492.103 427.5,499C406.931,510.972 398.264,528.806 401.5,552.5C415.278,545.91 429.278,539.91 443.5,534.5C453.406,530.604 463.74,527.77 474.5,526C509.167,525.333 543.833,525.333 578.5,526C581.793,526.826 585.126,527.326 588.5,527.5C597.626,529.486 606.626,531.986 615.5,535C629.045,540.604 642.712,545.938 656.5,551C660.493,551.17 664.493,551.004 668.5,550.5C682.991,548.039 696.991,543.706 710.5,537.5C717.793,534.187 724.793,530.354 731.5,526C743.138,516.183 755.138,506.85 767.5,498C777.233,492.024 785.067,493.857 791,503.5C793.301,511.484 794.801,519.484 795.5,527.5C795.877,609.724 765.544,678.057 704.5,732.5C681.336,752.424 655.336,767.757 626.5,778.5C596.98,788.421 566.647,794.254 535.5,796C505.167,796.667 474.833,796.667 444.5,796C402.262,794.108 362.262,783.774 324.5,765C313.284,758.448 302.617,751.114 292.5,743C284.996,736.662 277.996,729.829 271.5,722.5C241.621,690.851 224.287,653.184 219.5,609.5C216.224,567.74 225.39,528.74 247,492.5C248.946,489.58 251.113,486.913 253.5,484.5C257.812,476.855 263.812,470.855 271.5,466.5C281.89,463.254 287.056,466.921 287,477.5C266.277,499.947 252.11,525.947 244.5,555.5C243.159,563.202 241.825,570.869 240.5,578.5C238.112,611.394 244.612,642.394 260,671.5C289.95,723.41 334.45,755.077 393.5,766.5C401.396,768.304 409.396,769.804 417.5,771C443.942,773.374 470.442,774.541 497,774.5C530.95,775.338 564.45,772.005 597.5,764.5C623.23,756.972 647.563,746.139 670.5,732C741.743,679.675 775.576,609.175 772,520.5C757.144,536.513 739.644,548.846 719.5,557.5C712.384,560.6 705.05,563.433 697.5,566C701.887,568.051 705.887,570.551 709.5,573.5C710.458,573.953 711.292,574.619 712,575.5C716.274,584.362 717.608,593.695 716,603.5C712.896,615.374 707.896,626.374 701,636.5C680.472,661.35 654.638,678.017 623.5,686.5C618.458,688.598 613.124,690.098 607.5,691C549.555,699.845 496.889,687.345 449.5,653.5C444.398,650.245 439.398,646.745 434.5,643L404,612.5C398.177,605.521 392.844,598.188 388,590.5C383.219,582.493 380.219,573.826 379,564.5C374.038,536.998 380.871,512.998 399.5,492.5C414.745,480.209 431.745,471.042 450.5,465C486.546,447.134 506.379,417.968 510,377.5C514.001,342.807 505.001,312.14 483,285.5C464.269,263.687 440.435,252.187 411.5,251C354.291,249.41 317.624,275.91 301.5,330.5C301.335,333.518 301.502,336.518 302,339.5C310.78,347.744 318.114,357.078 324,367.5C334.632,382.696 337.965,399.363 334,417.5C328.822,437.347 315.989,448.18 295.5,450C260.835,450.5 226.168,450.667 191.5,450.5L185.5,450.5C176.523,448.906 173.356,443.573 176,434.5C178.061,430.019 181.561,428.352 186.5,429.5C188.924,429.808 191.257,429.474 193.5,428.5C191.079,424.66 188.912,420.66 187,416.5C176.044,402.542 164.71,388.875 153,375.5C151.878,373.593 151.045,371.593 150.5,369.5ZM276.5,363.5C259.439,369.286 241.772,371.953 223.5,371.5C206.195,371.837 189.195,369.837 172.5,365.5C174.05,369.22 176.217,372.553 179,375.5C189.036,385.868 198.703,396.534 208,407.5C211.241,414.131 212.741,421.131 212.5,428.5C240.502,428.667 268.502,428.5 296.5,428C306.888,425.778 312.555,419.278 313.5,408.5C312.473,402.863 311.639,397.197 311,391.5C305.683,399.749 298.183,404.916 288.5,407C277.591,409.171 266.591,409.837 255.5,409C242.415,407.827 229.415,406.161 216.5,404C210.509,399.858 208.676,394.358 211,387.5C212.214,385.951 213.714,384.785 215.5,384C226.88,384.148 238.213,385.148 249.5,387C269.301,390.579 287.634,387.079 304.5,376.5C300.354,370.52 295.354,365.354 289.5,361C285.2,361.655 280.866,362.488 276.5,363.5ZM665.5,577.5C659.515,575.733 653.848,573.4 648.5,570.5C632.497,563.72 616.164,557.72 599.5,552.5C591.934,550.585 584.267,549.085 576.5,548C543.5,547.333 510.5,547.333 477.5,548C471.82,549.168 466.153,550.335 460.5,551.5C441.433,558.361 422.767,566.361 404.5,575.5C408.003,583.18 412.503,590.18 418,596.5C431.104,611.587 445.604,625.087 461.5,637C468.694,641.762 476.027,646.262 483.5,650.5C496.532,657.125 510.199,662.292 524.5,666C567.971,677.215 609.638,672.715 649.5,652.5C664.712,643.455 677.546,631.788 688,617.5C693.172,608.794 695.006,599.461 693.5,589.5C684.384,584.909 675.05,580.909 665.5,577.5ZM388.5,312.5C398.541,310.985 406.375,314.318 412,322.5C414.91,337.614 408.577,345.947 393,347.5C376.934,344.033 371.934,334.699 378,319.5C380.998,316.262 384.498,313.929 388.5,312.5ZM356.5,667.5C359.688,667.618 362.688,668.451 365.5,670L400,704.5C403.35,709.64 402.85,714.473 398.5,719C388.515,723.101 381.015,720.268 376,710.5C365.963,702.131 356.963,692.797 349,682.5C346.793,674.912 349.293,669.912 356.5,667.5Z"/>
    </g>
</svg>
