<?xml version="1.0" encoding="UTF-8" standalone="no"?>
<!DOCTYPE svg PUBLIC "-//W3C//DTD SVG 1.1//EN" "http://www.w3.org/Graphics/SVG/1.1/DTD/svg11.dtd">
<svg width="100%" height="100%" viewBox="0 0 1024 1024" version="1.1" xmlns="http://www.w3.org/2000/svg" xmlns:xlink="http://www.w3.org/1999/xlink" xml:space="preserve" xmlns:serif="http://www.serif.com/" style="fill-rule:evenodd;clip-rule:evenodd;stroke-linejoin:round;stroke-miterlimit:2;">
    <g transform="matrix(1.51158,0,0,1.51158,-260.467,-270.684)">
        <path d="M505.5,179.5C521.043,177.348 531.876,183.348 538,197.5C539.404,218.754 529.571,229.921 508.5,231C493.208,226.036 486.374,215.536 488,199.5C490.497,189.841 496.33,183.174 505.5,179.5ZM508.5,195.5C501.678,201.95 502.011,208.117 509.5,214C515.431,215.925 519.598,214.092 522,208.5C522.992,198.66 518.492,194.327 508.5,195.5ZM492.5,250.5C494.376,241.169 499.209,239.169 507,244.5C505.758,262.13 505.092,279.797 505,297.5C506.017,308.269 507.684,318.935 510,329.5C514.572,343.882 518.738,358.382 522.5,373C522.499,378.54 519.832,381.707 514.5,382.5C512.303,382.152 510.47,381.152 509,379.5C503.255,360.935 497.922,342.268 493,323.5C490.018,308.311 488.851,292.978 489.5,277.5C489.572,268.251 490.572,259.251 492.5,250.5ZM446.5,404.5C447.712,412.955 444.046,416.955 435.5,416.5C432.793,414.277 431.293,411.277 431,407.5C424.664,373.164 418.497,338.831 412.5,304.5C388.381,300.866 376.047,286.699 375.5,262C376.591,239.238 388.258,225.238 410.5,220C434.662,218.152 450.495,228.652 458,251.5C461.013,269.325 455.846,284.158 442.5,296C437.951,299.237 432.951,301.404 427.5,302.5C434.348,336.408 440.682,370.408 446.5,404.5ZM410.5,235.5C404.107,238.477 398.607,242.81 394,248.5C388.649,262.108 391.149,273.942 401.5,284C419.921,293.416 433.088,288.582 441,269.5C443.699,246.697 433.533,235.363 410.5,235.5ZM597.5,219.5C622.602,218.103 638.768,229.436 646,253.5C648.056,274.055 640.556,289.888 623.5,301C619.294,302.777 614.961,303.944 610.5,304.5C606.072,338.992 600.572,373.325 594,407.5C592.603,415.615 588.103,418.115 580.5,415C578.876,413.883 577.876,412.383 577.5,410.5C585.006,375.129 590.673,339.463 594.5,303.5C574.505,297.82 564.172,284.487 563.5,263.5C564.034,240.318 575.367,225.651 597.5,219.5ZM597.5,235.5C583.914,241.33 578.08,251.663 580,266.5C583.818,281.994 593.651,289.494 609.5,289C620.448,286.386 626.948,279.552 629,268.5C631.001,245.666 620.501,234.666 597.5,235.5ZM365.5,346.5C372.409,361.724 378.243,377.391 383,393.5C387.06,403.293 392.394,412.293 399,420.5C405,425.833 411,431.167 417,436.5C417.34,439.657 416.173,442.157 413.5,444C410.167,444.667 406.833,444.667 403.5,444C388.393,433.881 377.226,420.381 370,403.5C365.599,388.632 360.599,373.965 355,359.5C346,342.834 332.833,330.667 315.5,323C300.176,325.928 287.343,321.761 277,310.5C270.639,298.408 271.139,286.741 278.5,275.5C290.785,263.531 304.118,262.365 318.5,272C325.453,278.739 328.286,286.906 327,296.5C326.139,301.276 324.973,305.943 323.5,310.5C335.974,314.775 346.474,322.109 355,332.5C358.764,337.056 362.264,341.723 365.5,346.5ZM295.5,282.5C292.8,284.046 290.967,286.379 290,289.5C287.925,296.511 290.092,301.677 296.5,305C303.126,306.769 307.96,304.603 311,298.5C313.102,286.102 307.935,280.768 295.5,282.5ZM328.5,453.5C321.06,450.982 313.394,449.649 305.5,449.5C288.87,452.376 272.203,455.043 255.5,457.5C243.977,458.452 233.31,455.952 223.5,450C212.487,438.542 210.654,425.708 218,411.5C230.743,398.01 244.41,397.01 259,408.5C267.486,418.355 268.652,429.022 262.5,440.5C263,440.833 263.5,441.167 264,441.5C271.166,440.111 278.333,438.778 285.5,437.5C292.003,435.169 298.836,434.169 306,434.5C313.931,434.122 321.431,435.455 328.5,438.5C330.965,438.767 333.299,439.434 335.5,440.5C338.153,441.676 340.819,442.509 343.5,443C340.369,438.867 336.869,435.034 333,431.5C327.457,421.327 323.123,410.661 320,399.5C316.545,393.711 312.045,388.878 306.5,385C291.714,377.775 277.381,369.775 263.5,361C254.585,352.95 247.252,343.783 241.5,333.5C238.41,324.392 236.077,315.058 234.5,305.5C235.987,298.614 239.987,296.781 246.5,300C248.041,301.579 249.208,303.413 250,305.5C252.779,326.257 262.945,342.09 280.5,353C293.198,360.014 305.865,367.014 318.5,374L329,384.5C335.046,396.63 340.713,408.963 346,421.5C349.989,427.155 354.656,432.155 360,436.5C361.248,440.686 360.081,444.02 356.5,446.5C368.206,454.186 380.539,460.519 393.5,465.5C398.36,468.262 399.527,472.262 397,477.5C392.278,481.206 387.444,481.206 382.5,477.5C364.698,468.93 346.698,460.93 328.5,453.5ZM235.5,417.5C232.8,419.046 230.967,421.379 230,424.5C230.088,436.597 235.921,441.097 247.5,438C252.127,432.928 252.627,427.428 249,421.5C245.265,417.904 240.765,416.571 235.5,417.5ZM445.5,317.5C449.138,317.738 451.971,319.404 454,322.5C463.175,338.181 471.842,354.181 480,370.5C483.754,379.843 485.754,389.51 486,399.5C481.625,404.381 476.958,404.715 472,400.5C470.049,389.075 466.716,378.075 462,367.5C455.699,356.52 449.366,345.52 443,334.5C441.551,331.268 440.384,327.935 439.5,324.5C440.552,321.318 442.552,318.985 445.5,317.5ZM750.5,289.5C748.919,314.08 735.919,324.747 711.5,321.5C690.177,328.322 675.011,341.989 666,362.5C660.939,375.683 656.272,389.016 652,402.5C646.172,417.99 637.005,431.156 624.5,442C619.352,445.699 614.019,446.199 608.5,443.5C606.059,441.037 605.893,438.371 608,435.5C619.146,428.022 627.813,418.356 634,406.5C639.944,391.398 645.277,376.065 650,360.5C659.5,336.333 676.333,319.5 700.5,310C696.367,305.15 694.701,299.483 695.5,293C695.74,278.895 702.74,269.895 716.5,266C734.875,263.901 746.208,271.735 750.5,289.5ZM716.5,282.5C714.5,284.671 712.666,287.004 711,289.5C709.504,296.71 712.004,301.877 718.5,305C724.89,306.942 729.723,305.109 733,299.5C735.435,286.102 729.935,280.435 716.5,282.5ZM572.5,318.5C580.58,316.585 584.08,319.585 583,327.5C579.248,339.003 573.915,349.67 567,359.5C561.064,372.642 556.731,386.308 554,400.5C549.392,404.569 545.059,404.236 541,399.5C540.604,391.666 541.604,384 544,376.5C546.273,369.014 548.94,361.68 552,354.5C558.661,342.354 565.494,330.354 572.5,318.5ZM614.504,503.532C620.488,546.709 605.486,580.532 569.5,605C555.761,612.747 541.094,617.58 525.5,619.5C491.362,623.676 462.028,613.676 437.5,589.5C414.948,565.405 405.781,536.739 410,503.5C412.677,486.159 419.177,470.492 429.5,456.5C437.466,447.023 446.466,438.689 456.5,431.5C461.743,428.047 467.409,425.38 473.5,423.5C509.992,409.595 543.992,414.262 575.5,437.5C597.623,453.99 610.623,475.99 614.5,503.5C614.501,503.511 614.503,503.521 614.504,503.532ZM428.5,490.5C423.338,508.096 423.171,525.762 428,543.5C439.883,576.675 463.05,596.675 497.5,603.5C509.14,606.101 520.807,605.934 532.5,603C579.11,590.276 601.776,559.776 600.5,511.5C596.123,478.628 579.123,454.795 549.5,440C519.166,426.689 490.166,428.856 462.5,446.5C452.154,454.347 443.321,463.68 436,474.5C433.196,479.773 430.696,485.107 428.5,490.5ZM503.5,591.5C467.695,583.528 446.195,561.528 439,525.5C437.215,482.259 457.381,455.426 499.5,445C537.166,441.41 564.666,456.244 582,489.5C590.962,517.692 586.629,543.692 569,567.5C558.21,579.144 545.044,586.477 529.5,589.5C526.512,591.14 523.179,591.974 519.5,592C514.115,592.733 508.782,592.567 503.5,591.5ZM503.5,459.5C469.39,467.703 453.223,489.369 455,524.5C460.759,552.592 477.592,569.759 505.5,576C537.375,578.993 558.542,565.493 569,535.5C573.642,519.427 571.975,504.093 564,489.5C549.435,468.468 529.268,458.468 503.5,459.5ZM293.5,479.5C302.188,478.084 310.854,478.251 319.5,480C334.219,484.795 348.886,489.795 363.5,495C373.365,497.644 383.365,499.644 393.5,501C399.745,504.681 400.079,509.015 394.5,514C386.792,514.706 379.125,514.372 371.5,513C353.188,508.341 335.188,502.674 317.5,496C313.409,494.769 309.242,493.935 305,493.5C291.225,496.039 277.392,498.206 263.5,500C255.488,500.499 247.488,500.333 239.5,499.5C214.445,495.562 194.279,483.562 179,463.5C175.845,458.362 173.679,452.862 172.5,447C172.396,444.855 173.063,443.021 174.5,441.5C177.844,440.243 181.177,440.243 184.5,441.5C188.166,446.162 191.333,451.162 194,456.5C203.569,469.042 216.069,477.209 231.5,481C239.489,483.415 247.656,484.582 256,484.5C268.681,483.902 281.181,482.236 293.5,479.5ZM218.5,550.5C208.519,555.098 200.019,561.765 193,570.5C189.871,575.926 186.371,581.093 182.5,586C174.344,586.5 171.178,582.667 173,574.5C186.128,550.559 205.961,534.892 232.5,527.5C236.468,526.606 240.468,525.773 244.5,525C267.167,524.962 289.834,524.962 312.5,525C321.326,522.233 330.326,520.9 339.5,521C344.54,523.196 345.707,526.696 343,531.5C330.501,537.249 317.334,540.416 303.5,541C284.845,540.334 266.178,540.001 247.5,540C237.123,541.845 227.456,545.345 218.5,550.5ZM314.5,582.5C296.91,585.542 279.41,584.542 262,579.5C268.487,593.644 265.987,606.144 254.5,617C240.84,624.517 228.674,622.684 218,611.5C209.636,597.02 211.47,584.02 223.5,572.5C231.341,566.721 240.174,564.054 250,564.5C267.823,566.041 285.656,567.374 303.5,568.5C310.921,567.979 318.254,566.813 325.5,565C345.373,555.488 365.706,547.155 386.5,540C389.5,539.333 392.5,539.333 395.5,540C396.71,541.039 397.71,542.206 398.5,543.5C399.542,548.133 397.875,551.299 393.5,553C375.047,559.559 357.047,567.225 339.5,576C331.423,579.247 323.09,581.414 314.5,582.5ZM239.5,582.5C236.231,583.225 233.398,584.892 231,587.5C228.1,594.479 229.6,600.312 235.5,605C248.001,606.491 252.834,600.991 250,588.5C247.882,584.175 244.382,582.175 239.5,582.5ZM688.5,577.5C668.828,569.106 649.162,560.606 629.5,552C625.885,548.341 625.552,544.341 628.5,540C632.167,539.333 635.833,539.333 639.5,540C642.852,541.17 646.186,542.336 649.5,543.5C662.741,548.787 675.741,554.62 688.5,561C694.931,563.232 701.264,565.399 707.5,567.5C711.823,567.88 716.156,568.214 720.5,568.5C734.806,566.838 749.139,565.504 763.5,564.5C768.215,564.557 772.882,564.89 777.5,565.5C799.561,574.025 805.394,589.025 795,610.5C783.735,622.844 770.902,624.678 756.5,616C752.449,612.279 749.616,607.779 748,602.5C747.245,594.693 747.578,587.026 749,579.5C728.523,586.75 708.357,586.083 688.5,577.5ZM768.5,582.5C763.674,585.456 761.841,589.79 763,595.5C766.732,606.168 773.065,608.168 782,601.5C787.822,587.823 783.322,581.489 768.5,582.5ZM378.5,625.5C385.821,615.179 394.488,606.179 404.5,598.5C407.91,598.457 411.243,598.957 414.5,600C417.207,601.864 418.041,604.364 417,607.5C411.605,613.064 406.105,618.397 400.5,623.5C391.895,631.976 385.395,641.976 381,653.5C375.762,672.22 368.762,690.22 360,707.5C350.864,720.633 339.197,730.966 325,738.5C328.538,750.724 326.372,761.891 318.5,772C305.731,781.76 292.897,781.927 280,772.5C271.192,760.865 270.192,748.531 277,735.5C279.828,731.825 283.328,729.158 287.5,727.5C290.851,725.107 294.684,724.107 299,724.5C304.489,725.066 309.989,725.399 315.5,725.5C333.293,717.651 345.96,704.651 353.5,686.5C355.353,680.737 357.353,675.071 359.5,669.5C362.743,653.42 369.076,638.753 378.5,625.5ZM295.5,740.5C290.075,744.022 287.908,749.022 289,755.5C294.8,764.9 301.8,765.9 310,758.5C313.532,745.93 308.699,739.93 295.5,740.5ZM348.5,623.5C345.443,627.258 342.61,631.258 340,635.5C334.957,649.528 327.123,661.694 316.5,672C304.106,678.53 291.44,684.53 278.5,690C271.763,693.402 266.263,698.235 262,704.5C257.373,712.043 253.706,720.043 251,728.5C247.269,732.05 243.269,732.383 239,729.5C237.517,726.298 237.183,722.964 238,719.5C242.847,702.326 252.68,688.826 267.5,679C279.711,672.728 292.044,666.728 304.5,661C307.427,658.618 310.261,656.118 313,653.5C319.857,641.257 326.523,628.924 333,616.5C339.138,609.517 345.971,603.517 353.5,598.5C355.807,597.347 358.14,596.18 360.5,595C372.238,593.397 375.238,597.731 369.5,608C361.043,611.225 354.043,616.392 348.5,623.5ZM844.5,585.5C842.143,585.663 839.81,585.497 837.5,585C826.612,565.28 810.612,551.447 789.5,543.5C784.323,541.706 778.99,540.54 773.5,540C751.832,539.905 730.165,539.905 708.5,540C700.46,538.875 692.793,536.542 685.5,533C679.204,529.508 678.871,525.508 684.5,521C694.89,521.563 705.223,522.897 715.5,525C728.846,525.136 742.179,524.636 755.5,523.5C776.962,522.557 796.962,527.39 815.5,538C828.751,547.916 839.917,559.749 849,573.5C850.53,578.717 849.03,582.717 844.5,585.5ZM627.5,477.5C626.355,475.047 626.688,472.713 628.5,470.5C629.203,468.284 630.536,466.451 632.5,465C642.274,461.282 651.274,456.282 659.5,450C661.345,448.872 663.345,448.372 665.5,448.5C665.392,446.217 664.559,444.217 663,442.5C662.333,440.833 662.333,439.167 663,437.5C667.69,433.473 671.69,428.806 675,423.5C679.128,414.448 682.462,405.115 685,395.5C689.297,385.867 695.797,378.034 704.5,372C719.996,363.845 735.329,355.512 750.5,347C752.818,344.403 755.318,341.903 758,339.5C765.117,327.729 770.117,315.063 773,301.5C774.863,299.051 777.363,298.051 780.5,298.5C787.067,298.599 789.567,301.932 788,308.5C783.968,323.277 777.634,336.944 769,349.5C764.468,354.367 759.634,358.867 754.5,363C743.303,369.766 731.637,375.766 719.5,381C714.714,384.118 710.214,387.618 706,391.5C700.001,404.821 694.001,418.155 688,431.5C685.955,434.423 683.788,437.257 681.5,440C704.213,430.963 726.88,431.463 749.5,441.5L750.5,440.5C743.653,422.531 748.986,409.698 766.5,402C782.011,399.336 792.844,405.17 799,419.5C801.46,445.539 789.627,458.206 763.5,457.5C757.453,457.498 751.453,456.998 745.5,456C736.908,453.685 728.241,451.685 719.5,450C705.791,448.343 692.791,450.677 680.5,457C665.552,466.308 649.885,474.308 633.5,481C630.128,482.122 628.128,480.955 627.5,477.5ZM769.5,417.5C763.85,421.327 762.016,426.66 764,433.5C769.532,441.874 775.866,442.54 783,435.5C786.488,423.468 781.988,417.468 769.5,417.5ZM837.5,439.5C843.111,438.631 846.778,440.797 848.5,446C840.55,469.95 824.55,485.95 800.5,494C787.881,498.351 774.881,500.517 761.5,500.5C745.316,499.464 729.316,497.13 713.5,493.5C709.437,494.016 705.437,494.849 701.5,496C684.74,503.378 667.407,509.045 649.5,513C644.187,513.999 638.854,514.332 633.5,514C626.833,509.667 626.833,505.333 633.5,501L648.5,498C667.809,491.452 687.142,485.119 706.5,479C721.701,478.545 736.701,480.212 751.5,484C773.872,486.572 794.539,481.905 813.5,470C817.299,467.203 820.799,464.036 824,460.5C828.524,453.435 833.024,446.435 837.5,439.5ZM657.5,594.5C661.747,594.178 665.747,595.011 669.5,597C677.418,604.914 684.585,613.414 691,622.5C695.289,632.044 699.956,641.377 705,650.5C706.793,653.295 708.96,655.795 711.5,658C726.167,666 740.833,674 755.5,682C767.57,692.47 775.57,705.47 779.5,721C778.896,729.623 774.563,732.623 766.5,730L764,727.5C761.214,710.405 752.38,697.571 737.5,689C726.206,684.237 715.206,678.904 704.5,673C696.478,667.414 690.478,660.247 686.5,651.5C680.921,632.089 669.754,616.756 653,605.5C651.391,600.391 652.891,596.725 657.5,594.5ZM543.5,630.5C549.192,629.26 553.026,631.26 555,636.5C555.826,660.632 560.493,683.965 569,706.5C572.75,713.002 576.75,719.335 581,725.5C582.553,733.28 579.386,736.447 571.5,735C562.668,725.828 555.835,715.328 551,703.5C544.095,680.648 540.428,657.315 540,633.5C541.145,632.364 542.312,631.364 543.5,630.5ZM427.5,738.5C427.034,740.201 427.034,741.701 427.5,743C447.594,751.017 457.927,765.85 458.5,787.5C454.397,814.751 438.397,828.251 410.5,828C380.897,819.969 369.397,800.803 376,770.5C382.347,753.975 394.181,744.308 411.5,741.5C414.397,721.35 418.064,701.35 422.5,681.5C423.051,678.193 423.384,674.86 423.5,671.5C426.221,655.866 429.388,640.199 433,624.5C434.255,623.789 435.421,622.956 436.5,622C442.194,620.256 445.861,622.09 447.5,627.5C441.133,664.716 434.466,701.716 427.5,738.5ZM409.5,757.5C393.884,764.06 387.718,775.727 391,792.5C400.307,812.062 414.474,816.562 433.5,806C440.689,797.42 443.189,787.586 441,776.5C434.601,763.383 424.101,757.05 409.5,757.5ZM480.5,663.5C475.74,683.101 468.407,701.768 458.5,719.5C455.931,724.363 453.264,729.196 450.5,734C440.316,735.469 436.816,731.303 440,721.5C455.49,694.365 465.823,665.365 471,634.5C471.833,632.333 473.333,630.833 475.5,630C478.916,629.107 482.083,629.607 485,631.5C484.812,642.333 483.312,653 480.5,663.5ZM493.5,714.5C495.011,711.456 495.678,708.122 495.5,704.5C500.786,690.373 505.619,676.039 510,661.5L511.5,660C518.04,657.784 522.04,659.951 523.5,666.5C520.11,681.06 515.943,695.393 511,709.5C505.796,734.594 504.129,759.927 506,785.5C501.701,791.496 497.034,791.829 492,786.5C488.258,762.415 488.758,738.415 493.5,714.5ZM693.5,719.5C697.313,721.908 701.313,724.075 705.5,726C710.649,725.737 715.816,725.237 721,724.5C734.231,725.391 743.231,732.058 748,744.5C750.996,761.85 744.163,773.35 727.5,779C711.627,780.988 701.127,774.488 696,759.5C694.394,752.855 694.061,746.189 695,739.5C674.75,728.585 660.083,712.585 651,691.5C647.299,679.346 643.299,667.346 639,655.5C636.916,649.661 634.083,644.327 630.5,639.5C629.347,637.193 628.18,634.86 627,632.5C620.569,624.646 613.903,616.98 607,609.5C606.219,608.271 605.719,606.938 605.5,605.5C607.531,598.503 611.864,596.67 618.5,600C631.283,612.05 641.783,625.883 650,641.5C654.736,654.374 659.069,667.374 663,680.5C668.928,696.915 679.095,709.915 693.5,719.5ZM717.5,740.5C711.524,743.331 709.357,747.998 711,754.5C716.108,764.211 722.775,765.545 731,758.5C734.7,746.365 730.2,740.365 717.5,740.5ZM532.5,846.5C531.797,848.716 530.464,850.549 528.5,852C515.159,859.49 503.326,857.657 493,846.5C486.958,837.188 486.124,827.521 490.5,817.5L491.5,817.5C491.351,816.448 491.517,815.448 492,814.5C500.908,804.454 511.741,801.788 524.5,806.5C535.431,813.035 539.931,822.701 538,835.5C537.195,839.776 535.362,843.443 532.5,846.5ZM518.5,840.5C521.433,838.309 523.1,835.309 523.5,831.5C522.201,822.837 517.201,819.67 508.5,822C501.561,828.681 502.228,834.681 510.5,840C513.146,840.497 515.813,840.664 518.5,840.5ZM598.5,661.5C600.855,688.339 604.522,715.006 609.5,741.5C636.296,748.772 648.13,766.105 645,793.5C635.563,822.803 616.063,832.97 586.5,824C578.363,819.696 572.029,813.53 567.5,805.5C557.011,776.144 566.011,755.144 594.5,742.5C592.261,732.927 590.427,723.26 589,713.5C585.042,684.331 581.208,655.165 577.5,626C578.101,624.395 579.101,623.062 580.5,622C585.117,620.703 588.95,621.87 592,625.5C594.366,637.58 596.532,649.58 598.5,661.5ZM599.5,757.5C592.508,760.596 586.675,765.263 582,771.5C576.184,786.045 579.35,798.211 591.5,808C608.14,815.425 620.306,810.925 628,794.5C632.418,771.307 622.918,758.974 599.5,757.5Z"/>
    </g>
</svg>
