<?xml version="1.0" encoding="UTF-8" standalone="no"?>
<!DOCTYPE svg PUBLIC "-//W3C//DTD SVG 1.1//EN" "http://www.w3.org/Graphics/SVG/1.1/DTD/svg11.dtd">
<svg width="100%" height="100%" viewBox="0 0 1024 1024" version="1.1" xmlns="http://www.w3.org/2000/svg" xmlns:xlink="http://www.w3.org/1999/xlink" xml:space="preserve" xmlns:serif="http://www.serif.com/" style="fill-rule:evenodd;clip-rule:evenodd;stroke-linejoin:round;stroke-miterlimit:2;">
    <g transform="matrix(1.68945,0,0,1.68945,-380.511,-362.177)">
        <path d="M525.5,512.5C479.096,491.57 434.096,494.07 390.5,520C374.931,531.903 361.764,546.07 351,562.5C341.264,582.206 331.597,601.873 322,621.5C312.919,634.918 301.086,645.084 286.5,652C275.592,657.243 264.592,657.577 253.5,653C251.309,651.081 248.976,649.747 246.5,649C263.648,682.161 289.315,690.828 323.5,675C341.315,666.191 356.481,654.024 369,638.5C380.403,624.027 391.07,609.027 401,593.5C408.89,576.045 418.556,559.711 430,544.5C451.489,520.236 475.656,517.07 502.5,535C505.369,538.204 508.535,541.037 512,543.5C524.733,559.3 536.733,575.634 548,592.5C571.25,628.664 594.25,664.998 617,701.5C628.89,716.798 644.39,722.631 663.5,719C678.749,715.459 692.249,708.626 704,698.5C715.427,686.66 724.094,672.994 730,657.5C732.487,649.703 735.154,642.036 738,634.5C747.854,630.35 753.021,633.684 753.5,644.5C746.925,664.365 737.758,683.032 726,700.5C702.116,726.459 672.616,738.292 637.5,736C624.139,731.307 612.972,723.473 604,712.5C586.062,682.901 567.729,653.567 549,624.5C535.16,603.485 520.827,582.818 506,562.5C478.594,531.295 454.261,533.628 433,569.5C424.276,589.007 413.776,607.341 401.5,624.5C406.709,618.604 412.043,612.771 417.5,607C425.212,600.286 433.212,593.953 441.5,588C461.126,577.658 478.626,580.492 494,596.5C506.333,617.833 518.667,639.167 531,660.5C546.591,682.776 564.425,703.276 584.5,722C603.148,737.991 624.482,748.657 648.5,754C658.793,755.471 669.127,755.804 679.5,755C699.932,751.702 718.266,743.868 734.5,731.5C757.433,714.661 770.933,691.994 775,663.5C776.248,647.681 775.248,632.014 772,616.5C767.171,598.183 762.504,579.85 758,561.5C757.301,549.344 762.301,546.344 773,552.5C773.667,553.833 774.333,555.167 775,556.5C779.528,576.947 784.528,597.28 790,617.5C792.803,630.016 793.97,642.682 793.5,655.5C790.807,689.217 777.14,717.55 752.5,740.5C692.542,784.322 633.542,783.155 575.5,737C552.729,716.238 532.896,693.072 516,667.5C503.909,648.323 492.575,628.657 482,608.5C474.243,599.186 464.743,596.686 453.5,601C448.902,603.27 444.569,605.937 440.5,609C429.194,618.973 418.527,629.64 408.5,641C379.244,669.108 344.911,688.442 305.5,699C280.585,702.795 260.085,694.962 244,675.5C234.996,662.656 229.162,648.489 226.5,633C227.003,624.5 231.336,621.5 239.5,624C260.079,643.533 280.245,643.033 300,622.5C303,618.167 306,613.833 309,609.5C318.139,589.888 327.806,570.555 338,551.5C342.281,544.885 346.947,538.552 352,532.5C365.367,518.801 378.367,504.801 391,490.5C401.747,476.512 405.413,460.845 402,443.5C393.937,426.778 380.604,418.111 362,417.5C325.233,426.9 290.067,422.734 256.5,405C225.937,384.301 217.771,356.801 232,322.5C235.787,317.044 239.954,311.877 244.5,307L286.5,277C306.396,263.954 328.062,259.621 351.5,264C392.872,273.267 426.372,294.767 452,328.5C462.118,341.956 471.451,355.956 480,370.5C494.774,398.156 502.608,427.656 503.5,459C503.142,467.373 502.475,475.706 501.5,484C502.444,485.477 503.777,486.477 505.5,487C516.044,490.381 526.378,494.215 536.5,498.5C566.396,513.559 591.896,534.225 613,560.5C626.333,579.833 639.667,599.167 653,618.5C659.582,625.524 667.082,631.191 675.5,635.5C686.553,638.987 696.887,637.487 706.5,631C721.502,618.059 729.668,601.559 731,581.5C731.85,562.626 736.183,544.626 744,527.5C745.049,525.382 746.549,523.716 748.5,522.5C751.549,516.613 755.882,511.779 761.5,508C781.368,493.115 803.702,486.782 828.5,489C834.431,499.963 831.098,505.797 818.5,506.5C809.878,505.233 801.545,506.4 793.5,510C779.733,514.788 768.567,522.955 760,534.5C757.136,539.929 754.969,545.595 753.5,551.5C750.596,566.381 748.096,581.381 746,596.5C741.563,623.435 726.73,641.768 701.5,651.5C690.564,655.631 679.564,655.464 668.5,651C656.938,645.449 647.105,637.615 639,627.5C627.172,611.18 615.839,594.513 605,577.5C584.029,549.025 557.529,527.359 525.5,512.5ZM324.5,279.5C319.179,280.997 313.846,282.83 308.5,285C287.668,296.163 268.502,309.663 251,325.5C236.35,350.397 240.517,371.564 263.5,389C277.393,397.187 292.393,402.187 308.5,404C322.984,406.387 337.318,405.72 351.5,402C369.373,395.716 386.373,387.716 402.5,378C414.948,376.622 417.614,381.122 410.5,391.5C402.422,396.538 394.089,401.038 385.5,405C420.646,424.274 429.646,452.107 412.5,488.5C423.385,485.663 434.718,483.663 446.5,482.5C447.839,476.144 449.339,469.811 451,463.5C453.603,448.502 452.27,433.835 447,419.5C443.917,412.068 440.75,404.735 437.5,397.5C437.754,392.745 440.254,390.078 445,389.5C449.152,390.65 452.486,392.984 455,396.5C464.116,413.012 468.616,430.678 468.5,449.5C468.411,460.542 467.744,471.542 466.5,482.5C473.196,482.391 479.863,482.724 486.5,483.5C486.851,468.797 486.351,454.13 485,439.5C475.143,389.61 451.643,347.443 414.5,313C388.682,290.891 358.682,279.724 324.5,279.5ZM337.5,320.5C353.304,319.15 364.137,325.816 370,340.5C371.509,349.647 369.509,357.98 364,365.5C352.146,377.269 339.312,378.435 325.5,369C315.862,358.377 314.029,346.544 320,333.5C322.128,330.37 324.628,327.537 327.5,325C331.042,323.725 334.375,322.225 337.5,320.5ZM342.5,336.5C339.155,337.605 336.322,339.605 334,342.5C332.817,356.324 338.483,360.324 351,354.5C355.944,344.723 353.11,338.723 342.5,336.5Z"/>
    </g>
</svg>
