<?xml version="1.0" encoding="UTF-8" standalone="no"?>
<!DOCTYPE svg PUBLIC "-//W3C//DTD SVG 1.1//EN" "http://www.w3.org/Graphics/SVG/1.1/DTD/svg11.dtd">
<svg width="100%" height="100%" viewBox="0 0 1024 1024" version="1.1" xmlns="http://www.w3.org/2000/svg" xmlns:xlink="http://www.w3.org/1999/xlink" xml:space="preserve" xmlns:serif="http://www.serif.com/" style="fill-rule:evenodd;clip-rule:evenodd;stroke-linejoin:round;stroke-miterlimit:2;">
    <g transform="matrix(1.38042,0,0,1.38042,-208.412,-200.994)">
        <path d="M444.5,337.5C437.396,366.71 423.73,392.376 403.5,414.5C402.427,415.251 402.26,416.251 403,417.5C411.281,427.123 417.948,437.79 423,449.5C427.354,464.605 430.688,479.939 433,495.5C434.879,504.348 437.379,513.014 440.5,521.5C479.289,540.109 520.289,548.442 563.5,546.5C609.488,544.057 655.488,541.723 701.5,539.5C709.199,528.294 718.199,518.127 728.5,509C745.401,499.196 759.234,502.362 770,518.5C771.616,522.347 772.616,526.347 773,530.5C773.333,547.833 773.667,565.167 774,582.5C777.27,588.764 780.936,594.764 785,600.5C793.241,614.465 798.575,629.465 801,645.5C802.466,656.509 803.799,667.509 805,678.5C809.751,686.337 814.751,694.004 820,701.5C843.333,731.5 866.667,761.5 890,791.5C896.734,808.535 891.234,819.701 873.5,825C866.833,827 860.167,827 853.5,825C843.788,820.48 835.121,814.48 827.5,807C806.417,785.586 786.417,763.253 767.5,740C745.843,731.337 723.843,723.67 701.5,717C690.19,715.272 678.857,715.272 667.5,717C691.175,762.991 723.175,801.991 763.5,834C744.908,813.075 729.074,790.242 716,765.5C711.959,753.557 716.125,748.057 728.5,749C730.587,749.792 732.421,750.959 734,752.5C743.608,767.772 753.608,782.772 764,797.5C774.762,809.592 784.762,822.258 794,835.5C800.525,855.127 793.525,865.794 773,867.5C768.352,866.952 763.852,865.785 759.5,864C754.322,860.578 749.322,856.911 744.5,853C712.87,823.727 685.37,791.227 662,755.5C656.815,745.623 651.815,735.623 647,725.5C646.023,723.26 645.523,720.927 645.5,718.5C590.332,722.604 535.332,728.271 480.5,735.5C465.712,738.547 459.545,732.547 462,717.5C463.251,714.619 465.417,712.786 468.5,712C540.037,703.681 611.704,696.681 683.5,691C675.476,681.977 667.142,673.31 658.5,665C642.434,654.086 624.767,647.086 605.5,644C576.92,641.219 548.586,636.886 520.5,631C483.384,620.518 454.217,599.351 433,567.5C426.158,553.642 420.491,539.309 416,524.5C411.037,505.313 406.703,485.98 403,466.5C401.597,460.846 399.597,455.512 397,450.5C390.275,471.448 380.775,490.948 368.5,509C378.465,551.073 393.299,591.239 413,629.5C417.206,636.712 422.539,643.045 429,648.5C432.187,655.248 431.853,661.915 428,668.5C409.884,685.946 392.55,703.946 376,722.5C368.862,732.59 368.862,742.59 376,752.5C390.632,766.138 406.132,778.638 422.5,790C424.633,791.402 426.3,793.235 427.5,795.5C432.535,793.094 437.869,791.927 443.5,792C429.572,787.143 416.239,781.143 403.5,774C396.997,767.152 394.497,758.985 396,749.5C396.5,747.667 397.667,746.5 399.5,746C402.167,745.333 404.833,745.333 407.5,746C412.118,748.95 416.452,752.284 420.5,756C426.931,759.198 433.598,761.698 440.5,763.5C462.347,770.965 484.347,778.132 506.5,785C511.728,790.672 512.895,797.172 510,804.5C508.878,806.624 507.378,808.457 505.5,810C466.762,816.364 427.762,819.364 388.5,819C373.282,814.617 358.282,809.784 343.5,804.5C329.019,798.598 314.686,792.098 300.5,785C284.269,773.655 277.769,758.155 281,738.5C286.34,724.479 294.84,712.645 306.5,703C325.884,687.948 345.551,673.282 365.5,659C372.479,654.898 378.313,656.065 383,662.5C384.143,667.837 383.476,672.837 381,677.5C360.767,693.033 340.267,708.199 319.5,723C315.333,726.5 311.5,730.333 308,734.5C300.927,745.947 302.427,756.113 312.5,765C335.487,775.666 359.153,784.333 383.5,791C375.037,784.206 366.87,777.039 359,769.5C342.989,746.645 343.822,724.312 361.5,702.5C375.81,687.671 390.143,672.838 404.5,658C400.215,651.937 396.049,645.77 392,639.5C372.309,601.257 357.476,561.257 347.5,519.5C322.957,526.34 297.957,530.673 272.5,532.5C265.32,532.538 258.654,530.705 252.5,527C241.66,515.808 238.16,502.642 242,487.5C248.654,468.531 256.654,450.198 266,432.5C272.571,419.592 281.071,408.092 291.5,398C298.657,391.42 306.99,386.92 316.5,384.5C308.214,360.379 292.214,343.546 268.5,334C253.554,328.463 238.554,323.129 223.5,318L201.5,307C186.875,298.211 175.542,286.377 167.5,271.5C156.074,248.211 150.574,223.544 151,197.5C153.133,189.005 158.633,184.671 167.5,184.5C175.117,184.629 179.951,188.296 182,195.5C182.063,187.397 182.73,179.397 184,171.5C190.621,164.247 197.955,163.581 206,169.5C211.211,179.37 217.211,188.704 224,197.5C232.389,206.947 242.555,213.78 254.5,218C276.389,224.741 298.056,232.074 319.5,240C344.936,252.368 362.436,271.868 372,298.5C373.479,304.083 374.479,309.749 375,315.5C375.256,329.607 376.423,343.607 378.5,357.5C395.412,347.102 410.412,334.268 423.5,319C430.553,315.314 437.053,316.147 443,321.5C444.397,326.708 444.897,332.041 444.5,337.5ZM746.5,526.5C738.915,532.415 731.915,539.082 725.5,546.5C725.977,547.478 726.643,548.311 727.5,549C734.621,552.644 741.787,556.144 749,559.5C749.667,550.833 749.667,542.167 749,533.5C749.03,530.639 748.197,528.305 746.5,526.5ZM202.5,206.5C204.602,231.174 217.268,248.007 240.5,257C257.845,262.841 274.845,269.508 291.5,277C329.189,298.541 346.189,331.041 342.5,374.5C347.132,373.617 351.798,372.95 356.5,372.5C355.83,368.149 354.996,363.816 354,359.5C353.595,341.375 351.928,323.375 349,305.5C343.505,286.678 332.005,272.845 314.5,264C294.544,255.927 274.21,248.927 253.5,243C239.161,238.333 226.161,231.333 214.5,222C209.871,217.219 205.871,212.052 202.5,206.5ZM302.5,421.5C297.479,427.033 292.979,433.033 289,439.5C279.822,456.515 272.322,474.182 266.5,492.5C265.404,496.413 265.238,500.413 266,504.5L269.5,508C296.825,506.667 323.492,501.667 349.5,493C364.304,471.392 375.637,448.058 383.5,423C380.085,423.723 377.252,422.556 375,419.5C373.543,415.259 373.209,410.926 374,406.5C385.895,394.937 396.729,382.437 406.5,369C403.394,370.065 400.727,372.065 398.5,375C376.048,388.376 352.048,398.043 326.5,404C317.191,408.143 309.191,413.977 302.5,421.5ZM314.5,444.5C325.547,442.605 333.38,446.605 338,456.5C338.643,464.541 335.477,470.708 328.5,475C321.319,477.318 314.319,476.985 307.5,474C298.005,461.325 300.338,451.492 314.5,444.5ZM179.5,229.5C183.429,260.564 199.762,282.064 228.5,294C241.811,298.66 255.145,303.326 268.5,308C275.621,311.061 282.621,314.394 289.5,318C300.196,323.367 309.029,330.867 316,340.5C314.761,336.134 313.094,331.8 311,327.5C303.449,314.282 292.949,304.115 279.5,297C265.858,291.008 251.858,286.008 237.5,282C210.279,272.934 190.946,255.434 179.5,229.5ZM451.5,552.5C453.728,556.612 456.228,560.612 459,564.5C481.19,590.519 509.357,606.019 543.5,611C570.265,614.346 596.931,618.346 623.5,623C649.956,629.975 672.456,643.475 691,663.5C698.451,673.952 706.284,684.119 714.5,694C732.887,703.192 752.22,709.525 772.5,713C774.725,713.561 776.725,714.561 778.5,716C782.457,721.413 786.29,726.913 790,732.5C807.134,751.302 824.634,769.802 842.5,788C849.392,794.6 857.392,798.933 866.5,801C841.767,766.932 816.267,733.432 790,700.5C786.784,694.736 784.117,688.736 782,682.5C779.979,666.061 777.312,649.728 774,633.5C757.892,585.749 724.559,562.749 674,564.5C644.819,566.391 615.652,568.557 586.5,571C540.148,574.035 495.148,567.868 451.5,552.5Z"/>
    </g>
</svg>
