<?xml version="1.0" encoding="UTF-8" standalone="no"?>
<!DOCTYPE svg PUBLIC "-//W3C//DTD SVG 1.1//EN" "http://www.w3.org/Graphics/SVG/1.1/DTD/svg11.dtd">
<svg width="100%" height="100%" viewBox="0 0 1024 1024" version="1.1" xmlns="http://www.w3.org/2000/svg" xmlns:xlink="http://www.w3.org/1999/xlink" xml:space="preserve" xmlns:serif="http://www.serif.com/" style="fill-rule:evenodd;clip-rule:evenodd;stroke-linejoin:round;stroke-miterlimit:2;">
    <g transform="matrix(1.48744,0,0,1.48744,-242.572,-253.742)">
        <path d="M642.5,626.5C643.555,635.482 643.222,644.482 641.5,653.5C634.753,691.994 618.586,725.994 593,755.5C582.636,768.363 571.136,780.03 558.5,790.5C530.167,809.322 500.5,811.489 469.5,797C423.685,763.598 394.185,719.098 381,663.5C378.565,652.293 377.399,640.959 377.5,629.5C361.651,636.923 345.651,644.09 329.5,651C315.83,655.367 301.83,657.867 287.5,658.5C267.634,657.83 250.467,650.83 236,637.5C223.941,621.694 222.608,605.027 232,587.5C236.833,581.333 242.333,575.833 248.5,571C264.836,561.501 280.836,551.501 296.5,541C281.928,538.366 268.262,533.366 255.5,526C223.075,506.575 196.908,480.742 177,448.5C163.47,424.981 159.803,399.981 166,373.5C176.642,344.204 197.475,327.37 228.5,323C268.278,322.756 306.611,330.089 343.5,345C381.626,360.388 416.96,380.388 449.5,405C450.167,405.667 450.833,405.667 451.5,405C442.691,389.326 439.525,372.493 442,354.5C443.136,350.757 444.47,347.09 446,343.5C449.804,337.385 453.971,331.552 458.5,326C453.298,301.708 443.465,279.541 429,259.5C419.186,248.673 407.019,244.173 392.5,246C387.308,248.009 381.974,249.509 376.5,250.5C374.074,250.596 371.907,249.93 370,248.5C365.383,235.058 370.216,226.891 384.5,224C412.799,220.067 434.966,229.901 451,253.5C454.667,259.5 458.333,265.5 462,271.5C468.753,285.663 474.92,299.997 480.5,314.5C488.208,311.575 496.208,310.242 504.5,310.5C514.675,310.62 524.675,311.954 534.5,314.5C543.629,291.241 555.129,269.241 569,248.5C588.44,224.601 612.607,217.767 641.5,228C646.671,230.343 649.005,234.343 648.5,240C649.069,246.6 646.069,250.434 639.5,251.5C634.056,249.942 628.723,248.109 623.5,246C609.927,244.366 598.427,248.533 589,258.5C574.336,278.51 563.169,300.344 555.5,324C567.516,335.032 574.183,348.699 575.5,365C575.075,378.807 571.742,391.807 565.5,404C584.65,392.744 603.983,381.41 623.5,370C651.774,354.47 681.107,341.47 711.5,331C736.693,323.309 762.36,320.975 788.5,324C823.591,329.953 844.091,350.453 850,385.5C851.095,390.78 851.595,396.113 851.5,401.5C848.856,423.258 841.356,443.258 829,461.5C816.044,478.955 801.211,494.622 784.5,508.5L783.5,508.5C765.208,524.147 744.208,534.814 720.5,540.5C740.748,551.54 759.915,564.207 778,578.5C797.232,601.956 795.732,624.123 773.5,645C750.799,658.522 726.799,661.189 701.5,653C680.866,646.098 661.366,636.931 643,625.5C642.601,625.728 642.435,626.062 642.5,626.5ZM769.5,493.5C779.729,485.778 789.229,477.111 798,467.5C814.742,449.347 825.075,428.014 829,403.5C830.959,368.804 814.792,349.304 780.5,345C760.837,343.708 741.503,345.708 722.5,351C693.094,359.372 665.094,371.039 638.5,386C616.824,398.837 595.157,411.671 573.5,424.5C580.786,436.411 583.952,449.411 583,463.5C604.233,474.531 625.066,486.198 645.5,498.5C655.523,505.67 666.19,511.837 677.5,517C711.83,523.251 742.497,515.418 769.5,493.5ZM559.5,499.5C557.402,503.434 554.402,506.6 550.5,509C528.281,522.527 504.948,524.861 480.5,516C471.609,513.093 464.443,507.926 459,500.5C442.253,515.255 428.419,532.421 417.5,552C427.411,554.13 437.411,555.797 447.5,557C477.82,558.261 508.153,558.761 538.5,558.5C559.797,557.642 581.131,555.642 602.5,552.5C600.893,547.952 598.726,543.619 596,539.5C585.988,523.998 573.822,510.664 559.5,499.5ZM418.5,706.5C431.895,732.396 449.895,754.563 472.5,773C498.509,788.809 524.176,788.142 549.5,771C569.939,751.609 586.772,729.776 600,705.5C558.456,712.336 516.623,714.669 474.5,712.5C456.107,711.882 437.941,709.549 420,705.5C419.235,705.57 418.735,705.903 418.5,706.5ZM439.5,577.5C429,576.857 418.666,575.19 408.5,572.5C404.068,585.228 400.735,598.228 398.5,611.5C423.015,618.419 448.015,622.419 473.5,623.5C508.942,625.617 544.276,624.45 579.5,620C592.911,617.473 606.244,614.639 619.5,611.5C617.275,598.481 614.941,585.481 612.5,572.5C592.373,576.497 572.04,578.663 551.5,579C519.5,579.667 487.5,579.667 455.5,579C449.984,578.827 444.651,578.327 439.5,577.5ZM497.5,413.5C487.456,416.022 477.789,419.856 468.5,425C455.883,432.734 450.716,443.901 453,458.5C459.29,475.79 470.79,488.29 487.5,496C514.797,504.585 537.297,497.751 555,475.5C565.937,456.329 563.104,439.496 546.5,425C531.539,415.744 515.206,411.911 497.5,413.5ZM607.5,500.5C596.331,495.498 585.498,489.831 575,483.5C574.833,483.833 574.667,484.167 574.5,484.5C581.79,490.619 588.956,496.952 596,503.5C606.001,514.847 614.501,527.181 621.5,540.5C631.305,559.931 637.305,580.597 639.5,602.5C641.199,602.34 642.866,602.506 644.5,603C661.069,612.118 678.069,620.451 695.5,628C702.444,630.153 709.444,632.153 716.5,634C732.228,637.76 746.894,635.427 760.5,627C773.523,612.497 772.189,599.497 756.5,588C735.167,574.667 713.833,561.333 692.5,548C663.044,533.927 634.711,518.094 607.5,500.5ZM495.5,332.5C485.262,335.375 476.428,340.708 469,348.5C459.087,366.289 460.753,382.956 474,398.5C484.7,394.827 495.7,392.827 507,392.5C519.015,393.108 530.849,394.608 542.5,397C554.358,383.182 556.525,368.015 549,351.5C534.661,335.994 516.828,329.66 495.5,332.5ZM400.5,633.5C399.223,634.694 398.556,636.36 398.5,638.5C400.677,653.217 403.677,667.717 407.5,682C426.039,685.484 444.706,687.984 463.5,689.5C495.526,691.037 527.526,690.704 559.5,688.5C577.61,686.986 595.61,684.653 613.5,681.5C616.47,669.934 618.803,658.267 620.5,646.5C620.739,642.158 621.073,637.824 621.5,633.5C607.632,636.868 593.632,639.701 579.5,642C522.527,649.522 465.86,647.855 409.5,637C406.338,635.973 403.338,634.806 400.5,633.5ZM442.5,485.5C404.895,505.972 367.229,526.472 329.5,547C305.568,561.27 281.902,575.937 258.5,591C247.888,599.278 245.388,609.444 251,621.5C259.343,629.959 269.51,634.792 281.5,636C304.549,635.21 326.549,629.877 347.5,620C357.687,614.34 368.02,609.173 378.5,604.5C382.677,583.469 389.177,563.135 398,543.5C409.369,520.892 424.869,501.725 444.5,486C443.906,485.536 443.239,485.369 442.5,485.5ZM231.5,344.5C212.417,346.453 198.25,355.786 189,372.5C182.499,392.488 183.499,412.154 192,431.5C212.025,469.107 241.525,496.607 280.5,514C307.117,523.628 333.117,522.294 358.5,510C365.643,503.927 373.31,498.594 381.5,494C396.833,486 412.167,478 427.5,470C429.74,469.023 432.073,468.523 434.5,468.5C432.573,459.632 432.073,450.632 433,441.5C434.499,435.206 436.499,429.206 439,423.5C401.612,395.049 360.445,373.216 315.5,358C288.148,349.275 260.148,344.775 231.5,344.5ZM790.5,232.5C811.888,232.705 818.722,242.705 811,262.5C804.053,269.528 795.887,271.361 786.5,268C776.909,260.035 775.076,250.535 781,239.5C783.79,236.535 786.957,234.202 790.5,232.5ZM316.5,250.5C332.99,250.155 340.823,258.155 340,274.5C333.777,287.575 323.944,291.408 310.5,286C299.612,274.656 299.946,263.656 311.5,253C313.315,252.243 314.981,251.41 316.5,250.5Z"/>
    </g>
</svg>
