<?xml version="1.0" encoding="UTF-8" standalone="no"?>
<!DOCTYPE svg PUBLIC "-//W3C//DTD SVG 1.1//EN" "http://www.w3.org/Graphics/SVG/1.1/DTD/svg11.dtd">
<svg width="100%" height="100%" viewBox="0 0 1024 1024" version="1.1" xmlns="http://www.w3.org/2000/svg" xmlns:xlink="http://www.w3.org/1999/xlink" xml:space="preserve" xmlns:serif="http://www.serif.com/" style="fill-rule:evenodd;clip-rule:evenodd;stroke-linejoin:round;stroke-miterlimit:2;">
    <g transform="matrix(1.22635,0,0,1.22635,-150.227,-209.212)">
        <path d="M763.5,335.5C739.794,351.024 716.461,367.19 693.5,384L680,397.5C678.704,422.784 678.037,448.117 678,473.5C672.488,497.009 659.321,514.842 638.5,527C633.983,529.759 629.317,532.259 624.5,534.5C625.747,536.323 626.414,538.323 626.5,540.5C627.338,540.842 627.672,541.508 627.5,542.5C636.171,573.151 629.504,599.818 607.5,622.5C602.229,627.269 597.062,632.269 592,637.5C590.441,641.266 588.941,644.932 587.5,648.5C583.571,665.082 574.571,678.082 560.5,687.5C548.424,698.261 536.424,698.094 524.5,687C518.312,681.81 512.479,676.31 507,670.5C502.237,659.786 498.237,648.786 495,637.5C488.924,632.546 482.757,627.713 476.5,623C452.729,597.303 447.395,568.136 460.5,535.5C444.828,530.506 431.495,521.84 420.5,509.5C412.179,501.203 406.679,491.203 404,479.5C403.427,475.152 402.76,470.819 402,466.5C401.667,443.5 401.333,420.5 401,397.5C392.258,390.214 383.425,383.047 374.5,376C353.619,361.612 332.619,347.445 311.5,333.5C275.862,309.677 240.195,285.844 204.5,262C189.833,253 175.167,244 160.5,235C158.975,233.991 157.308,233.491 155.5,233.5L155.5,315.5C159.323,330.478 166.323,343.812 176.5,355.5C183.437,364.269 191.77,371.436 201.5,377C209.6,380.144 217.934,382.478 226.5,384C240.187,384.933 253.854,385.933 267.5,387C273.994,391.495 276.494,397.662 275,405.5C274.066,412.436 270.233,416.936 263.5,419C241.449,419.823 220.116,416.656 199.5,409.5C196.285,409.095 193.285,408.095 190.5,406.5C190.44,405.957 190.107,405.624 189.5,405.5C188.177,415.993 188.177,426.326 189.5,436.5C190.29,437.794 191.29,438.961 192.5,440C226.752,457.312 263.086,465.312 301.5,464C306.373,465.877 309.54,469.377 311,474.5C313.214,483.203 310.714,490.037 303.5,495C281.84,497.167 260.507,495.334 239.5,489.5C242.47,504.427 249.47,517.427 260.5,528.5C280.236,549.363 304.569,560.53 333.5,562C348.221,562.067 362.888,562.734 377.5,564C385.592,570.564 387.592,578.731 383.5,588.5C381.064,592.604 377.397,594.771 372.5,595C342.149,596.874 312.815,592.374 284.5,581.5L283.5,582.5C290.626,598.467 301.293,611.634 315.5,622C337.549,638.351 362.216,648.685 389.5,653C408.881,653.821 428.215,654.821 447.5,656C454.05,662.921 455.217,670.755 451,679.5C448.519,683.314 445.019,685.481 440.5,686C369.723,692.168 311.223,668.668 265,615.5C253.851,597.059 246.851,577.059 244,555.5C238.032,548.531 231.699,541.864 225,535.5C213.867,521.235 206.534,505.235 203,487.5C202.259,484.438 202.425,481.438 203.5,478.5C193.309,474.824 183.309,470.658 173.5,466C164.25,461.339 159.083,453.839 158,443.5C157.667,422.833 157.333,402.167 157,381.5C149.165,368 140.165,355.333 130,343.5C126.468,336.905 124.135,329.905 123,322.5C122.333,289.5 122.333,256.5 123,223.5C126.631,213.369 133.464,206.369 143.5,202.5C154.795,199.152 165.462,200.652 175.5,207C211.573,229.693 247.239,252.859 282.5,276.5C284.795,277.475 286.795,278.808 288.5,280.5C329.337,306.42 369.337,333.586 408.5,362L426,379.5C429.393,383.619 431.726,388.286 433,393.5C433.333,418.167 433.667,442.833 434,467.5C434.689,474.069 436.856,480.069 440.5,485.5C443.167,487.5 445.5,489.833 447.5,492.5C459.184,503.786 473.184,509.286 489.5,509C505.393,497.758 523.06,491.591 542.5,490.5C562.359,491.674 580.359,498.008 596.5,509.5C601.551,508.321 606.551,506.987 611.5,505.5L612.5,505.5C625.705,499.131 635.871,489.464 643,476.5C643.667,473.833 644.333,471.167 645,468.5C645.333,444.5 645.667,420.5 646,396.5C648.093,386.417 652.76,377.75 660,370.5C682.784,349.871 707.618,332.204 734.5,317.5C742.148,311.673 750.148,306.34 758.5,301.5C809.469,269.012 860.469,236.512 911.5,204C928.582,197.311 942.748,201.144 954,215.5C955.562,217.957 956.562,220.624 957,223.5C957.667,257.167 957.667,290.833 957,324.5C954.924,333.986 950.757,342.319 944.5,349.5C940.297,356.55 935.464,363.216 930,369.5C928.254,373.327 926.254,376.993 924,380.5C923.667,402.833 923.333,425.167 923,447.5C920.128,454.757 915.295,460.257 908.5,464C898.571,469.302 888.238,473.469 877.5,476.5C874.658,500.88 865.158,522.214 849,540.5C844.325,544.009 840.159,548.009 836.5,552.5C833.459,580.557 823.292,605.557 806,627.5C760.284,673.4 705.117,692.567 640.5,685C632.645,677.994 630.479,669.494 634,659.5C635.543,657.622 637.376,656.122 639.5,655C663.765,655.795 687.765,653.795 711.5,649C741.847,640.752 767.014,624.585 787,600.5C790.354,594.775 793.52,588.942 796.5,583C777.49,587.801 758.157,591.468 738.5,594C727.844,595 717.177,595.333 706.5,595C702.333,593.5 699.5,590.667 698,586.5C697.333,581.5 697.333,576.5 698,571.5C700.429,566.734 704.263,563.9 709.5,563C736.105,564.8 761.772,560.8 786.5,551C793.324,548.091 799.658,544.424 805.5,540C814.402,531.768 822.569,522.934 830,513.5C834.77,505.638 838.603,497.638 841.5,489.5C827.537,491.804 813.537,493.971 799.5,496C791.5,496.667 783.5,496.667 775.5,496C770.564,493.303 767.73,489.136 767,483.5C764.892,473.879 768.392,467.379 777.5,464C818.1,464.849 856.1,455.682 891.5,436.5C892.823,426.326 892.823,415.993 891.5,405.5C890.893,405.624 890.56,405.957 890.5,406.5L888.5,406.5C870.207,413.293 851.207,417.293 831.5,418.5C825.013,419.654 818.346,419.821 811.5,419C809.308,418.074 807.308,416.907 805.5,415.5C801.634,411.586 799.967,406.753 800.5,401C800.191,393.984 803.191,388.984 809.5,386C829.568,386.967 849.234,384.8 868.5,379.5C874.411,377.545 880.077,375.045 885.5,372C893.976,363.856 902.142,355.356 910,346.5C917.278,336.613 921.778,325.613 923.5,313.5C924.829,286.997 924.829,260.33 923.5,233.5C922.893,233.624 922.56,233.957 922.5,234.5C921.395,235.6 920.062,236.267 918.5,236.5C900.417,248.588 882.083,260.255 863.5,271.5C830.457,293.194 797.124,314.527 763.5,335.5ZM541.5,620.5C535.442,623.717 531.442,628.55 529.5,635C530.872,642.191 532.372,649.358 534,656.5C534.785,658.286 535.951,659.786 537.5,661C542.419,661.802 547.252,661.635 552,660.5C555.246,651.44 556.746,642.107 556.5,632.5C553.659,625.9 548.659,621.9 541.5,620.5ZM598.5,559.5C595.489,550.81 590.489,543.477 583.5,537.5C577.302,533.233 570.636,529.733 563.5,527C547.994,520.679 532.66,521.012 517.5,528C493.304,538.899 483.137,557.399 487,583.5C492.703,597.255 502.87,603.755 517.5,603C519.667,599.667 522.334,596.834 525.5,594.5C528.138,591.379 531.472,589.212 535.5,588C543.445,586.417 550.778,587.75 557.5,592C561.533,596.368 565.866,600.368 570.5,604C574.285,604.343 577.952,603.843 581.5,602.5C596.253,591.964 601.92,577.631 598.5,559.5ZM367.5,872.5C345.689,858.542 335.855,838.542 338,812.5C339.115,808.271 340.781,804.271 343,800.5L361,776.5C382.415,753.09 403.081,729.09 423,704.5C426.222,701.612 429.722,699.112 433.5,697C448.479,694.322 455.646,700.488 455,715.5C454.275,717.949 453.275,720.283 452,722.5C447.183,729.142 441.683,735.142 435.5,740.5C423.813,754.183 411.813,767.517 399.5,780.5C394.577,787.76 388.91,794.426 382.5,800.5C378.44,805.598 374.607,810.932 371,816.5C368.632,829.59 373.132,839.424 384.5,846C391.911,846.108 399.245,846.775 406.5,848C411.789,851.62 416.789,855.62 421.5,860C424.375,861.302 427.375,862.135 430.5,862.5C431.825,863.953 432.658,863.619 433,861.5C437.171,848.472 442.005,835.805 447.5,823.5C448.836,817.828 451.003,812.495 454,807.5C462.516,800.804 470.849,801.138 479,808.5C480.658,811.309 481.825,814.309 482.5,817.5C480.632,824.602 478.466,831.602 476,838.5C466.167,863.144 456.667,887.811 447.5,912.5C447.246,919.752 450.246,925.252 456.5,929C465.761,933.232 475.428,936.065 485.5,937.5C488.67,906.805 492.17,876.138 496,845.5C498.326,831.829 506.16,826.996 519.5,831C525.526,835.224 528.193,841.057 527.5,848.5C524.722,880.396 520.388,912.062 514.5,943.5C531.487,944.499 548.487,944.833 565.5,944.5C563.329,929.138 560.829,913.804 558,898.5C555.007,878.932 553.674,859.266 554,839.5C559.359,829.603 567.192,827.103 577.5,832C579.378,833.543 580.878,835.376 582,837.5C585.323,856.721 587.99,876.055 590,895.5C592.72,908.767 595.053,922.1 597,935.5C597.519,936.516 598.353,937.182 599.5,937.5C609.292,936.11 618.625,933.277 627.5,929C633.275,924.6 635.109,918.767 633,911.5C622.21,881.468 611.21,851.468 600,821.5C599.061,810.092 604.394,803.759 616,802.5C623.515,802.756 628.515,806.422 631,813.5C637.333,830.167 643.667,846.833 650,863.5C654.419,862.03 658.919,860.696 663.5,859.5C667.352,854.815 671.685,850.648 676.5,847C684.5,846.667 692.5,846.333 700.5,846C706.963,841.213 711.463,835.046 714,827.5C714.658,823.428 714.325,819.428 713,815.5C691.296,783.811 666.963,754.144 640,726.5C633.771,718.574 633.104,710.241 638,701.5C645.009,695.355 652.509,694.855 660.5,700C681.492,722.545 701.159,746.045 719.5,770.5C726.515,778.021 733.015,786.021 739,794.5C744.847,802.028 748.347,810.528 749.5,820C746.566,840.873 736.899,857.873 720.5,871C710.485,879.17 699.152,882.004 686.5,879.5C683.749,883.257 680.415,886.257 676.5,888.5C672.37,891.737 668.037,894.737 663.5,897.5C670.982,932.196 657.649,954.529 623.5,964.5C566.831,979.558 510.165,979.058 453.5,963C422.688,950.545 411.021,928.045 418.5,895.5C409.657,892.57 402.324,887.403 396.5,880C385.509,882.275 375.842,879.775 367.5,872.5Z"/>
    </g>
</svg>
