<?xml version="1.0" encoding="UTF-8" standalone="no"?>
<!DOCTYPE svg PUBLIC "-//W3C//DTD SVG 1.1//EN" "http://www.w3.org/Graphics/SVG/1.1/DTD/svg11.dtd">
<svg width="100%" height="100%" viewBox="0 0 1024 1024" version="1.1" xmlns="http://www.w3.org/2000/svg" xmlns:xlink="http://www.w3.org/1999/xlink" xml:space="preserve" xmlns:serif="http://www.serif.com/" style="fill-rule:evenodd;clip-rule:evenodd;stroke-linejoin:round;stroke-miterlimit:2;">
    <g transform="matrix(1.34239,0,0,1.34239,-206.224,-245.255)">
        <path d="M648.5,261.5C646.012,265.806 643.512,270.139 641,274.5C628.41,306.271 617.41,338.604 608,371.5C599.1,397.039 588.933,422.039 577.5,446.5C575.339,452.841 570.839,455.841 564,455.5C561.409,455.435 558.909,454.935 556.5,454C544.895,444.399 534.729,433.566 526,421.5C518.884,431.618 511.384,441.451 503.5,451C497.264,455.748 490.597,456.581 483.5,453.5L482.5,453.5C480.832,451.66 479.332,449.66 478,447.5C469.897,429.975 462.397,412.308 455.5,394.5C454.098,388.196 452.098,382.196 449.5,376.5C440.829,347.491 431.996,318.491 423,289.5C399.958,232.212 357.458,206.712 295.5,213C291,211.167 287.833,208 286,203.5C284.426,186.915 291.926,180.248 308.5,183.5C374.039,182.908 420.539,212.241 448,271.5C461.065,308.363 472.732,345.696 483,383.5C486.813,395.44 491.313,407.106 496.5,418.5C502.408,407.016 508.575,395.682 515,384.5C519.529,380.011 525.029,378.345 531.5,379.5C533.151,380.97 534.985,382.303 537,383.5C543.919,395.675 551.085,407.675 558.5,419.5C570.054,390.077 580.721,360.41 590.5,330.5C597.578,304.342 606.912,279.009 618.5,254.5C634.561,225.781 657.894,205.114 688.5,192.5C716.006,183.387 744.006,181.22 772.5,186C781.269,195.846 780.269,204.513 769.5,212C754.212,213.251 738.879,213.918 723.5,214C708.257,214.8 694.591,219.634 682.5,228.5C678.268,230.4 674.601,233.067 671.5,236.5C662.048,243.281 654.382,251.615 648.5,261.5ZM315.5,687.5C276.524,671.006 254.357,641.673 249,599.5C248.088,589.843 247.254,580.176 246.5,570.5C221.752,559.417 202.752,542.083 189.5,518.5C169.848,479.066 169.515,439.399 188.5,399.5C201.808,373.859 221.142,354.192 246.5,340.5C252.319,338.344 257.985,336.01 263.5,333.5C267.955,332.596 272.455,331.929 277,331.5C289.274,331.129 297.94,336.462 303,347.5C304.298,374.451 304.965,401.451 305,428.5C311.167,421.667 317.333,414.833 323.5,408C327.846,404.95 332.513,402.783 337.5,401.5C350.703,402.044 358.703,408.71 361.5,421.5C362.775,436.647 362.775,451.647 361.5,466.5C359.731,494.746 352.731,521.58 340.5,547C354.839,556.169 370.172,563.169 386.5,568C393.826,568.5 401.159,568.666 408.5,568.5C415.138,543.024 430.804,525.524 455.5,516C445.552,513.051 438.385,506.884 434,497.5C429.137,483.076 433.304,472.243 446.5,465C463.123,459.313 476.457,463.479 486.5,477.5C486.557,478.609 486.89,479.609 487.5,480.5C489.634,494.399 484.634,504.899 472.5,512C473.931,512.465 475.097,513.299 476,514.5C481.837,525.297 480.003,534.463 470.5,542C463.058,544.887 456.058,548.554 449.5,553C440.68,558.827 435.514,566.993 434,577.5C432.928,593.959 433.928,610.292 437,626.5C441.935,661.554 458.102,690.054 485.5,712C515.209,731.783 544.542,731.117 573.5,710C585.148,700.021 594.981,688.521 603,675.5C620.136,643.156 626.469,608.823 622,572.5C620.148,565.966 616.648,560.466 611.5,556C601.998,550.081 592.331,544.414 582.5,539C577.973,533.607 576.473,527.44 578,520.5C579.023,516.242 581.523,513.409 585.5,512C574.425,505.682 569.259,496.182 570,483.5C577.948,464.614 591.781,458.447 611.5,465C625.301,470.769 630.468,480.935 627,495.5C622.172,506.185 614.005,513.018 602.5,516C605.993,516.942 609.326,518.275 612.5,520C622.67,527.01 631.67,535.176 639.5,544.5C644.491,551.814 647.824,559.814 649.5,568.5C656.175,568.666 662.842,568.5 669.5,568C688.712,564.222 706.712,557.389 723.5,547.5C719.178,538.368 715.345,529.035 712,519.5C709.205,505.19 706.538,490.857 704,476.5C701.243,458.193 700.91,439.86 703,421.5C708.193,403.533 719.693,397.7 737.5,404C746.963,411.129 755.463,419.296 763,428.5C763.333,401.833 763.667,375.167 764,348.5C765.637,340.862 770.137,335.695 777.5,333C789.931,330.265 801.931,331.598 813.5,337C862.469,357.799 889.802,394.632 895.5,447.5C895.666,455.507 895.5,463.507 895,471.5C887.785,518.865 861.952,551.198 817.5,568.5C818.538,576.806 818.705,585.139 818,593.5C813.001,638.11 790.168,669.276 749.5,687C709.432,701.912 671.599,697.746 636,674.5C632.179,682.808 627.346,690.475 621.5,697.5C624.704,702.599 628.371,707.266 632.5,711.5C635.954,716.126 639.621,720.626 643.5,725C675.016,729.598 702.516,742.431 726,763.5C726.667,764.833 727.333,766.167 728,767.5C729.007,781.492 722.507,787.659 708.5,786C703.796,783.654 699.463,780.82 695.5,777.5C681.3,764.907 664.633,757.407 645.5,755C636.42,753.385 629.253,748.885 624,741.5C624.93,754.738 620.43,765.571 610.5,774C612.734,776.063 614.734,778.229 616.5,780.5C617.659,784.156 618.826,787.822 620,791.5C620.277,797.26 620.444,802.927 620.5,808.5C627.126,812.468 633.459,816.801 639.5,821.5C647.284,828.069 651.617,836.402 652.5,846.5C652.395,851.92 650.895,856.92 648,861.5L631,878.5C623.908,890.444 617.574,902.777 612,915.5C609.795,918.04 607.295,920.207 604.5,922C591.54,925.823 578.54,929.49 565.5,933C558.653,937.837 551.32,941.837 543.5,945C537.228,946.527 532.228,944.694 528.5,939.5C521.947,944.722 514.614,945.888 506.5,943C498.152,937.657 489.152,933.657 479.5,931C467.418,928.528 455.752,924.861 444.5,920C442.45,918.035 440.783,915.868 439.5,913.5C434.875,902.25 429.708,891.25 424,880.5C418.627,873.626 412.46,867.626 405.5,862.5C400.959,855.794 399.626,848.461 401.5,840.5C403.475,834.546 406.475,829.213 410.5,824.5C418.82,818.518 427.154,812.518 435.5,806.5C432.98,794.248 435.646,783.248 443.5,773.5C435.884,764.619 432.05,754.286 432,742.5C429.872,745.63 427.372,748.463 424.5,751C410.687,754.162 397.02,757.829 383.5,762C371.79,767.852 361.124,775.185 351.5,784C343.457,788.179 336.29,787.013 330,780.5C326.09,773.354 326.923,766.854 332.5,761C340.106,754.889 348.106,749.389 356.5,744.5C372.26,735.079 389.26,728.912 407.5,726C410.548,725.394 413.048,723.894 415,721.5C421.356,713.978 427.523,706.311 433.5,698.5C430.757,695.346 428.257,692.012 426,688.5C424.694,684.554 422.861,680.888 420.5,677.5C411.37,683.049 401.704,687.549 391.5,691C365.569,699.249 340.236,698.083 315.5,687.5ZM208.5,428.5C200.847,452.425 202.18,475.758 212.5,498.5C221.014,516.35 234.014,530.016 251.5,539.5C258.725,524.356 270.725,515.19 287.5,512C300.908,510.287 311.742,514.787 320,525.5C321.888,521.004 323.055,516.337 323.5,511.5C324.345,510.329 325.011,508.995 325.5,507.5C328.969,493.017 331.469,478.35 333,463.5C333.832,455.479 333.665,447.479 332.5,439.5C321.019,449.48 310.019,459.98 299.5,471C287.025,474.677 279.192,470.177 276,457.5C275.833,425.162 275.333,392.828 274.5,360.5C246.878,370.891 226.378,389.224 213,415.5C211.486,419.854 209.986,424.188 208.5,428.5ZM462.5,732.5C461.555,743.834 464.889,753.667 472.5,762C488.159,774.577 505.993,782.077 526,784.5C546.032,782.601 564.199,775.767 580.5,764C589.979,755.891 593.979,745.725 592.5,733.5C586.167,737 579.833,740.5 573.5,744C534.226,761.889 497.226,758.055 462.5,732.5ZM463.5,792.5C465.004,800.837 467.837,808.837 472,816.5C502.448,851.32 536.282,854.82 573.5,827C584.436,817.972 589.436,806.472 588.5,792.5C562.529,810.246 534.196,816.08 503.5,810C495.422,807.197 487.422,804.197 479.5,801C474.221,797.204 468.888,794.371 463.5,792.5ZM730.5,574.5C716.269,582.611 701.269,589.111 685.5,594C674.705,596.999 663.705,598.165 652.5,597.5C651.731,615.283 649.064,632.783 644.5,650C655.277,654.542 666.277,658.876 677.5,663C695.602,667.909 713.602,667.575 731.5,662C763.163,653.172 782.163,632.672 788.5,600.5C771.402,601.11 756.068,596.276 742.5,586C738.558,581.886 734.558,578.053 730.5,574.5ZM445.5,832.5C444.375,834.129 443.041,835.629 441.5,837C437.167,840 432.833,843 428.5,846C436.333,853.167 444.167,860.333 452,867.5C455.806,876.583 459.806,885.583 464,894.5C474.492,899.11 485.325,902.943 496.5,906C507.32,910.91 517.986,916.077 528.5,921.5C535.622,917.06 542.956,912.894 550.5,909C564.178,903.997 577.844,898.997 591.5,894C595.442,884.056 599.609,874.223 604,864.5C610.068,858.264 616.235,852.264 622.5,846.5C617.504,841.25 612.004,836.584 606,832.5C605.667,833.5 605.333,834.5 605,835.5L589.5,851C536.787,888.196 489.454,882.196 447.5,833C446.906,832.536 446.239,832.369 445.5,832.5ZM383.5,596.5C374.577,594.936 365.911,592.436 357.5,589C348.5,584.167 339.5,579.333 330.5,574.5C326.728,579.61 322.061,583.61 316.5,586.5C304.879,595.745 291.545,599.745 276.5,598.5C277.078,603.165 278.411,607.499 280.5,611.5C286.436,631.267 298.436,646.1 316.5,656C337.875,667.196 360.208,669.529 383.5,663C393.818,659.508 403.818,655.341 413.5,650.5C412.972,648.664 412.306,646.997 411.5,645.5C407.539,629.769 405.539,613.769 405.5,597.5C398.11,597.764 390.777,597.43 383.5,596.5ZM732.5,458.5C733.354,480.576 737.687,501.909 745.5,522.5C748.616,519.768 751.949,517.268 755.5,515C774.69,508.797 791.357,512.964 805.5,527.5C809.15,531.134 811.483,535.467 812.5,540.5C813.552,540.649 814.552,540.483 815.5,540C856.387,516.034 872.221,480.534 863,433.5C852.288,396.953 828.788,372.619 792.5,360.5C791.673,364.459 791.173,368.459 791,372.5C790.667,401.833 790.333,431.167 790,460.5C784.992,471.252 776.825,474.752 765.5,471C755.046,460.38 744.379,449.88 733.5,439.5C732.51,445.645 732.177,451.978 732.5,458.5ZM288.5,540.5C284.005,542.189 280.505,545.189 278,549.5C276.027,556.699 274.86,564.032 274.5,571.5C277.85,571.665 281.183,571.498 284.5,571C297.299,569.805 304.632,562.972 306.5,550.5C302.673,543.58 296.673,540.246 288.5,540.5ZM767.5,540.5C756.599,544.376 754.432,551.376 761,561.5C768.656,569.777 778.156,573.444 789.5,572.5C789.299,565.996 788.133,559.663 786,553.5C782.91,544.55 776.744,540.217 767.5,540.5Z"/>
    </g>
</svg>
