<?xml version="1.0" encoding="UTF-8" standalone="no"?>
<!DOCTYPE svg PUBLIC "-//W3C//DTD SVG 1.1//EN" "http://www.w3.org/Graphics/SVG/1.1/DTD/svg11.dtd">
<svg width="100%" height="100%" viewBox="0 0 1024 1024" version="1.1" xmlns="http://www.w3.org/2000/svg" xmlns:xlink="http://www.w3.org/1999/xlink" xml:space="preserve" xmlns:serif="http://www.serif.com/" style="fill-rule:evenodd;clip-rule:evenodd;stroke-linejoin:round;stroke-miterlimit:2;">
    <g transform="matrix(1.69136,0,0,1.69136,-347.634,-359.868)">
        <path d="M251.5,597.5C241.041,585.701 231.707,573.034 223.5,559.5C217.413,552.557 212.247,544.89 208,536.5C205.09,529.971 204.756,523.304 207,516.5C211.264,508.972 216.264,501.972 222,495.5C236.362,479.141 250.696,462.808 265,446.5C289.723,421.217 318.556,402.05 351.5,389C360.583,385.986 369.917,384.152 379.5,383.5C385.611,360.894 397.611,342.061 415.5,327C444.787,303.897 478.121,290.563 515.5,287C539.171,283.958 562.504,285.625 585.5,292C617.894,303.303 631.394,325.803 626,359.5C620.66,377.353 611.826,393.187 599.5,407C605.684,409.848 611.351,413.515 616.5,418C624.197,426.031 632.197,433.698 640.5,441C649.794,447.648 660.127,451.481 671.5,452.5C680.224,451.088 688.891,449.422 697.5,447.5C704.02,446.063 710.686,444.729 717.5,443.5C725.508,440.657 733.508,437.491 741.5,434C747.833,433.333 754.167,433.333 760.5,434C763.785,434.759 766.785,436.092 769.5,438C783.003,452.168 794.17,468.001 803,485.5C805.349,493.244 807.516,500.911 809.5,508.5C815.28,554.057 803.947,594.723 775.5,630.5C767.728,639.816 757.728,643.316 745.5,641C729.461,633.213 713.127,626.213 696.5,620C685.559,618.427 674.559,618.094 663.5,619C660.624,619.438 657.957,620.438 655.5,622C637.796,634.353 618.796,644.353 598.5,652C616.32,665.806 624.82,683.973 624,706.5C619.68,728.817 606.18,741.65 583.5,745C529.839,748.48 484.173,731.314 446.5,693.5C445.167,691.5 443.833,689.5 442.5,687.5C438.503,682.823 434.837,677.823 431.5,672.5C374.593,669.586 322.593,652.419 275.5,621C266.332,614.332 258.332,606.498 251.5,597.5ZM351.5,637.5C352.807,638.153 354.14,638.82 355.5,639.5C362.065,630.691 367.231,621.025 371,610.5C377.215,590.433 381.715,570.099 384.5,549.5C388.706,513.452 384.54,478.452 372,444.5C365.736,432.3 359.236,420.3 352.5,408.5C337.011,416.075 322.011,424.408 307.5,433.5C330.078,456.056 339.912,483.389 337,515.5C336.654,517.848 335.487,519.681 333.5,521C327.615,523.966 323.448,522.466 321,516.5C320.689,510.126 320.023,503.793 319,497.5C319.072,502.76 318.072,507.76 316,512.5C304.962,523.874 295.296,522.874 287,509.5C284.122,499.202 286.956,491.035 295.5,485C304.799,481.4 311.966,483.9 317,492.5C316.433,477.624 311.266,464.624 301.5,453.5C299.636,450.45 297.303,447.783 294.5,445.5C281.816,456.018 270.316,467.684 260,480.5C247.953,494.879 236.286,509.545 225,524.5C224.333,525.5 224.333,526.5 225,527.5C228.911,535.551 233.744,542.885 239.5,549.5C244.759,557.024 249.759,564.691 254.5,572.5C260.793,580.703 267.793,588.37 275.5,595.5C283.152,588.348 290.652,581.015 298,573.5C308.487,561.194 315.821,547.194 320,531.5C321.319,529.513 323.152,528.346 325.5,528C330.921,527.161 336.254,527.494 341.5,529L344,531.5C347.7,541.274 344.534,547.274 334.5,549.5C328.924,561.664 322.09,572.997 314,583.5C306.31,592.861 297.144,600.361 286.5,606C306.79,619.144 328.457,629.644 351.5,637.5ZM516.5,622.5C525.84,597.815 542.84,580.648 567.5,571C582.057,564.925 597.057,560.259 612.5,557C618.612,556.091 624.612,556.424 630.5,558C633.318,561.338 634.151,565.171 633,569.5C627.916,578.003 622.583,586.336 617,594.5C610.562,607.209 603.729,619.709 596.5,632C601.921,630.288 607.254,627.955 612.5,625C625.338,617.413 638.338,610.08 651.5,603C653.134,602.506 654.801,602.34 656.5,602.5C643.866,571.298 640.032,538.965 645,505.5C647.057,492.686 650.557,480.353 655.5,468.5C647.356,466.426 639.69,463.26 632.5,459C626.279,454.112 620.779,448.612 616,442.5C617.661,466.152 622.661,489.152 631,511.5C632.667,514.167 634.333,516.833 636,519.5C636.667,522.5 636.667,525.5 636,528.5C632.771,530.35 629.271,531.35 625.5,531.5C616.567,529.933 607.901,527.433 599.5,524C578.06,513.205 557.56,501.039 538,487.5C531.596,470.953 525.596,454.286 520,437.5L503,403.5C501.855,400.568 501.022,397.568 500.5,394.5C474.589,389.892 448.589,389.392 422.5,393C441.176,414.171 457.009,437.338 470,462.5C473.403,469.211 475.903,476.211 477.5,483.5C503.265,485.545 520.932,498.545 530.5,522.5C533.378,529.594 534.712,537.094 534.5,545C534.568,557.118 532.235,568.618 527.5,579.5C521.446,601.379 508.113,616.879 487.5,626C484.374,626.759 481.207,627.259 478,627.5C471.705,626.621 465.872,624.788 460.5,622C452.591,633.247 443.924,643.913 434.5,654C438.486,654.499 442.486,654.666 446.5,654.5C464.813,655.599 483.146,655.766 501.5,655C505.648,643.701 510.648,632.867 516.5,622.5ZM519.5,395.5C532.574,421.321 543.74,447.987 553,475.5C571.167,486.333 589.333,497.167 607.5,508C608.759,508.982 610.092,509.315 611.5,509C602.745,482.216 597.412,454.716 595.5,426.5C574.494,416.331 552.827,407.831 530.5,401C526.776,399.138 523.109,397.304 519.5,395.5ZM453.5,674.5C484.156,707.488 522.156,724.821 567.5,726.5C575.339,726.395 583.006,725.229 590.5,723C604.267,715.626 608.767,704.459 604,689.5C601.668,683.494 598.334,678.16 594,673.5C589.258,669.546 584.424,665.713 579.5,662C567.009,665.065 554.342,667.565 541.5,669.5C512.758,674.692 483.758,675.692 454.5,672.5C453.702,672.957 453.369,673.624 453.5,674.5ZM713.5,464.5C735.801,503.318 741.968,544.652 732,588.5C730.088,595.314 728.255,602.147 726.5,609C732.302,614.745 739.302,618.745 747.5,621C751.594,621.767 755.594,621.434 759.5,620C786.429,587.121 796.596,549.621 790,507.5C784.339,486.49 773.839,468.49 758.5,453.5C754.587,452.404 750.587,452.238 746.5,453C735.412,456.892 724.412,460.725 713.5,464.5ZM695.5,468.5C688.296,470.454 680.963,471.788 673.5,472.5C664.767,491.498 660.767,511.498 661.5,532.5C660.839,555.193 665.172,576.86 674.5,597.5C686.391,597.969 698.058,599.469 709.5,602C724.431,556.141 720.431,511.974 697.5,469.5C697.158,468.662 696.492,468.328 695.5,468.5ZM605.5,577.5C595.981,581.065 586.314,584.565 576.5,588C568.392,591.22 560.726,595.22 553.5,600C548.494,604.526 544.327,609.693 541,615.5C533.779,627.276 527.612,639.609 522.5,652.5L523.5,653.5C539.34,650.957 555.007,647.623 570.5,643.5C577.808,628.216 585.642,613.216 594,598.5C597.879,591.238 602.379,584.405 607.5,578C606.906,577.536 606.239,577.369 605.5,577.5ZM392.5,600.5C388.479,616.038 382.146,630.538 373.5,644C387.946,647.574 402.613,649.741 417.5,650.5C417.351,649.448 417.517,648.448 418,647.5C429.437,635.73 438.937,622.563 446.5,608C443.561,605.306 440.728,602.473 438,599.5C431.602,587.039 424.936,574.705 418,562.5C414.128,556.346 412.461,549.679 413,542.5C424.373,526.788 436.873,511.954 450.5,498C452.976,495.429 455.976,493.929 459.5,493.5C457.552,479.159 452.719,465.826 445,453.5C431.5,434.667 418,415.833 404.5,397C392.482,397.92 380.815,400.587 369.5,405C387.594,430.269 398.428,458.436 402,489.5C405.348,526.661 402.514,563.327 393.5,599.5C393.5,600.167 393.167,600.5 392.5,600.5ZM527.5,304.5C502.513,306.916 478.513,313.416 455.5,324C431.337,334.997 413.67,352.497 402.5,376.5C464.324,365.444 523.99,372.944 581.5,399C582.944,399.781 584.277,399.614 585.5,398.5C588.499,392.498 591.999,386.832 596,381.5C600.214,373.739 603.881,365.739 607,357.5C609.469,346.935 608.802,336.601 605,326.5C598.125,318.636 589.625,313.136 579.5,310C562.429,305.655 545.095,303.821 527.5,304.5ZM479.5,503.5C474.045,504.894 469.045,507.394 464.5,511C457.627,518.703 450.627,526.203 443.5,533.5C449.913,534.08 456.247,534.913 462.5,536C467.108,542.297 466.108,547.297 459.5,551C451.208,552.405 442.875,552.738 434.5,552L433,550.5C439.993,565.47 448.327,579.803 458,593.5C465.859,604.674 476.359,608.508 489.5,605C506.296,588.638 514.963,568.638 515.5,545C515.419,520.604 503.419,506.77 479.5,503.5Z"/>
    </g>
</svg>
