<?xml version="1.0" encoding="UTF-8" standalone="no"?>
<!DOCTYPE svg PUBLIC "-//W3C//DTD SVG 1.1//EN" "http://www.w3.org/Graphics/SVG/1.1/DTD/svg11.dtd">
<svg width="100%" height="100%" viewBox="0 0 1024 1024" version="1.1" xmlns="http://www.w3.org/2000/svg" xmlns:xlink="http://www.w3.org/1999/xlink" xml:space="preserve" xmlns:serif="http://www.serif.com/" style="fill-rule:evenodd;clip-rule:evenodd;stroke-linejoin:round;stroke-miterlimit:2;">
    <g transform="matrix(1.4515,0,0,1.4515,-241.67,-257.084)">
        <path d="M240.5,310.5C236.767,337.805 224.767,360.639 204.5,379C195.978,385.51 186.478,390.01 176,392.5C169.454,390.772 166.287,386.439 166.5,379.5C166.442,376.953 167.109,374.62 168.5,372.5C195.156,360.529 211.323,340.195 217,311.5C218.775,299.05 220.275,286.717 221.5,274.5C221.529,255.052 225.362,236.385 233,218.5C235.029,214.42 237.529,210.754 240.5,207.5C243.653,201.181 248.319,196.348 254.5,193C267.626,192.458 271.793,198.291 267,210.5C254.047,225.658 246.713,243.325 245,263.5C243.417,278.837 241.917,294.17 240.5,309.5L240.5,310.5ZM759.5,295.5C767.879,329.566 764.212,362.233 748.5,393.5C756.69,419.026 754.523,443.692 742,467.5C734.506,482.34 724.672,495.506 712.5,507C685.465,524.348 657.465,539.848 628.5,553.5C628.76,559.172 629.093,564.839 629.5,570.5C638.714,567.764 648.047,565.43 657.5,563.5C673.001,559.206 688.668,555.039 704.5,551C710.117,549.948 715.784,549.282 721.5,549C734.867,535.301 747.867,521.301 760.5,507C765.163,504.524 770.163,503.857 775.5,505C782.905,509.236 784.405,515.07 780,522.5C765.835,537.665 751.335,552.498 736.5,567C734.079,569.094 731.412,570.76 728.5,572C717.394,573.255 706.394,575.088 695.5,577.5C673.609,582.391 651.943,588.391 630.5,595.5L630.5,617.5C658.971,612.361 687.471,607.361 716,602.5C718.5,602.667 721,602.833 723.5,603C728.002,606.336 732.002,610.169 735.5,614.5C739.203,618.202 742.537,622.202 745.5,626.5C757.792,640.629 770.292,654.629 783,668.5C784.833,681.333 779.333,686.833 766.5,685C763.607,682.916 761.274,680.416 759.5,677.5C747.825,665.157 736.491,652.49 725.5,639.5C722.204,635.124 718.537,630.958 714.5,627C713.5,626.833 712.5,626.667 711.5,626.5C688.737,630.405 666.07,634.738 643.5,639.5C638.127,641.452 632.46,642.452 626.5,642.5C626.318,652.212 623.985,661.379 619.5,670C621.425,669.865 623.425,669.698 625.5,669.5C640.533,665.581 655.866,662.581 671.5,660.5C679.371,658.571 687.371,656.737 695.5,655C700.257,654.19 704.924,654.524 709.5,656C723.081,670.243 735.914,685.076 748,700.5C759,712.167 770,723.833 781,735.5C784.978,748.729 780.144,754.562 766.5,753C764.004,751.669 762.004,749.836 760.5,747.5C757.129,744.129 754.129,740.463 751.5,736.5C746.195,730.86 740.861,725.193 735.5,719.5C723.698,706.192 712.032,692.692 700.5,679C679.463,682.396 658.463,686.229 637.5,690.5C627.68,693.136 617.68,694.47 607.5,694.5C607.33,695.822 607.663,696.989 608.5,698C624.308,701.789 639.975,705.623 655.5,709.5C665.329,710.874 674.996,713.04 684.5,716C689.099,717.598 691.932,720.765 693,725.5C693.667,759.833 693.667,794.167 693,828.5C689.296,836.123 683.796,838.123 676.5,834.5C674.983,834.489 673.816,833.823 673,832.5C671.725,830.283 670.725,827.949 670,825.5C669.5,816.84 669.334,808.173 669.5,799.5C669.833,778.489 669.5,757.489 668.5,736.5C651.465,732.861 634.632,728.528 618,723.5C620.948,741.095 617.614,757.428 608,772.5C604.333,777.5 600,781.833 595,785.5C594.506,787.134 594.34,788.801 594.5,790.5C595.767,798.83 595.767,807.164 594.5,815.5C587.906,846.257 568.906,863.09 537.5,866C522.519,867.333 507.519,867.666 492.5,867C462.901,862.068 445.068,844.901 439,815.5C438.223,806.452 438.389,797.452 439.5,788.5C433.353,783.894 428.353,778.228 424.5,771.5C416.388,757.27 413.388,741.936 415.5,725.5C398.598,727.68 381.932,731.014 365.5,735.5C365.667,765.169 365.5,794.835 365,824.5C363.056,832.787 357.889,836.953 349.5,837C347.004,835.669 345.004,833.836 343.5,831.5C342.662,831.158 342.328,830.492 342.5,829.5C341.347,794.208 341.18,758.875 342,723.5C342.541,720.385 344.041,718.052 346.5,716.5C350.14,714.338 354.14,712.838 358.5,712C372.813,708.948 387.147,706.115 401.5,703.5C408.688,701.908 416.022,700.408 423.5,699C424.833,698 424.833,697 423.5,696C421.753,695.648 420.086,695.148 418.5,694.5C416.784,694.371 415.117,694.038 413.5,693.5C390.082,689.618 366.749,685.118 343.5,680C340.5,679.333 337.5,679.333 334.5,680C324.034,691.145 313.701,702.312 303.5,713.5C303.5,714.167 303.167,714.5 302.5,714.5C292.013,726.821 281.346,738.987 270.5,751C266.782,753.298 262.782,753.965 258.5,753C255.944,751.945 254.277,750.112 253.5,747.5C252.167,743.5 252.167,739.5 253.5,735.5C257.078,729.253 261.744,723.92 267.5,719.5C270.71,715.079 274.377,711.079 278.5,707.5C288.791,694.874 299.791,682.874 311.5,671.5C315.622,666.206 319.956,661.04 324.5,656C326.534,654.994 328.7,654.494 331,654.5C358.511,659.619 386.011,664.452 413.5,669C412.733,667.53 412.067,666.03 411.5,664.5C410.766,663.292 410.433,661.959 410.5,660.5C407.997,655.227 406.997,649.561 407.5,643.5C383.255,639.101 359.255,634.101 335.5,628.5C331.168,627.903 326.835,627.737 322.5,628C316.3,635.03 309.967,641.863 303.5,648.5C303.5,649.167 303.167,649.5 302.5,649.5C291.825,660.349 281.492,671.516 271.5,683C258.299,689.396 251.965,685.229 252.5,670.5C253.026,668.77 254.026,667.436 255.5,666.5C271.554,648.751 287.387,630.751 303,612.5C306.201,608.964 309.701,605.797 313.5,603C316.167,602.333 318.833,602.333 321.5,603C348.866,607.728 376.199,612.561 403.5,617.5L403.5,595.5C386.355,590.213 369.021,585.547 351.5,581.5C336.918,578.013 322.252,574.847 307.5,572C302.623,568.624 298.623,564.457 295.5,559.5C283.468,548.468 272.134,536.802 261.5,524.5C257.774,520.616 256.607,515.949 258,510.5C260.732,504.911 265.232,502.745 271.5,504C273.246,504.471 274.913,505.138 276.5,506C290.016,520.016 303.35,534.182 316.5,548.5C342.506,554.835 368.506,561.168 394.5,567.5C397.422,568.649 400.422,569.649 403.5,570.5C405.022,565.975 406.022,561.308 406.5,556.5C398.977,551.906 391.311,547.572 383.5,543.5C364.505,533.338 345.838,522.671 327.5,511.5C317.833,505.167 309.833,497.167 303.5,487.5C285.77,464.601 277.937,438.601 280,409.5C280.773,404.242 281.94,399.075 283.5,394C279.438,386.839 275.938,379.339 273,371.5C265.091,337.443 267.424,304.11 280,271.5C282.568,265.776 285.735,260.443 289.5,255.5C306.03,229.905 329.696,217.405 360.5,218C372.469,219.322 383.802,222.489 394.5,227.5C396.553,227.402 398.22,228.069 399.5,229.5C412.021,232.679 418.021,240.679 417.5,253.5C416.778,283.173 411.111,311.84 400.5,339.5C399.677,342.48 398.343,345.147 396.5,347.5C388.823,368.172 376.49,385.506 359.5,399.5C355.629,403.272 350.962,405.772 345.5,407C349.26,416.778 352.927,426.611 356.5,436.5C361.333,437.343 366,438.343 370.5,439.5C375.151,439.627 379.485,440.627 383.5,442.5C388.193,442.898 392.526,444.398 396.5,447C406.017,456.018 415.684,464.851 425.5,473.5C428.667,467.167 431.833,460.833 435,454.5C434.501,447.821 433.667,441.154 432.5,434.5C432.921,418.971 439.921,407.638 453.5,400.5C461.547,395.763 470.213,394.43 479.5,396.5C484.297,374.582 491.63,353.582 501.5,333.5C500.35,329.866 498.683,326.533 496.5,323.5C485.196,306.91 472.029,291.91 457,278.5C451.898,273.018 451.232,267.018 455,260.5C460.229,257.194 465.729,256.694 471.5,259C476.002,262.336 480.002,266.169 483.5,270.5C495.914,282.914 507.247,296.247 517.5,310.5C530.492,292.663 544.825,275.83 560.5,260C569.328,254.499 576.162,256.333 581,265.5C581.652,268.594 581.318,271.594 580,274.5C570.291,283.707 561.125,293.374 552.5,303.5C544.928,312.909 537.928,322.742 531.5,333C535.923,341.677 539.923,350.51 543.5,359.5C548.068,371.205 552.068,383.205 555.5,395.5C558.713,395.19 561.713,395.523 564.5,396.5C570.219,397.257 575.552,398.924 580.5,401.5C596.115,410.753 601.948,424.419 598,442.5C597.731,445.352 596.897,448.018 595.5,450.5C599.876,457.919 603.709,465.586 607,473.5C614.364,466.967 621.53,460.3 628.5,453.5L629.5,453.5C632.259,449.912 635.592,446.746 639.5,444C651.123,439.642 663.123,437.142 675.5,436.5C676.411,431.165 678.078,426.165 680.5,421.5C681.802,416.782 682.968,412.115 684,407.5C663.58,394.916 648.746,377.582 639.5,355.5C631.26,341.96 625.427,327.293 622,311.5C619.411,299.889 617.078,288.222 615,276.5C613.638,265.863 613.304,255.196 614,244.5C614.119,240.094 615.953,236.594 619.5,234C628.53,229.602 637.864,226.102 647.5,223.5L648.5,223.5C686.449,211.87 717.616,221.87 742,253.5C748.799,264.38 753.966,276.047 757.5,288.5C758.167,290.833 758.833,293.167 759.5,295.5ZM292.5,351.5C293.945,354.937 294.945,358.603 295.5,362.5C308.044,390.624 326.544,395.291 351,376.5C361.368,364.311 369.868,350.977 376.5,336.5L376.5,335.5C387.212,309.236 393.212,281.903 394.5,253.5C392.095,253.134 389.762,252.467 387.5,251.5C386.416,251.685 385.416,252.018 384.5,252.5C378.56,262.716 373.393,273.383 369,284.5C364.689,299.079 360.689,313.746 357,328.5C351.949,336.741 345.115,338.575 336.5,334C335.663,332.989 335.33,331.822 335.5,330.5C334.357,327.024 334.19,323.358 335,319.5C336.277,312.979 337.777,306.645 339.5,300.5C339.629,298.784 339.962,297.117 340.5,295.5C341.219,290.407 342.386,285.407 344,280.5C346.026,274.242 348.526,268.242 351.5,262.5C354.386,255.731 358.052,249.398 362.5,243.5C339.028,240.986 320.861,249.652 308,269.5C293.257,294.948 288.09,322.281 292.5,351.5ZM644.5,303.5C651.03,327.895 661.864,350.228 677,370.5C684.376,379.934 693.876,385.934 705.5,388.5C722.621,386.045 732.954,376.378 736.5,359.5C737.257,353.768 738.257,348.101 739.5,342.5C739.738,325.597 737.905,308.931 734,292.5C729.924,277.315 722.09,264.649 710.5,254.5C700.397,246.132 688.731,242.132 675.5,242.5L667.5,242.5C686.299,269.068 695.799,298.735 696,331.5C689.375,338.157 682.708,338.157 676,331.5C671.591,314.01 666.591,296.677 661,279.5C657.063,271.289 652.896,263.289 648.5,255.5C646.661,254.492 645.328,252.992 644.5,251C643.423,250.53 642.423,250.697 641.5,251.5C640.081,252.451 638.415,252.784 636.5,252.5C637.076,258.485 637.576,264.485 638,270.5C640.33,281.483 642.497,292.483 644.5,303.5ZM555.5,418.5C554.312,419.364 553.145,420.364 552,421.5C551.5,431.828 551.334,442.161 551.5,452.5C561.021,454.056 568.187,450.722 573,442.5C576.965,427.304 571.132,419.304 555.5,418.5ZM452.5,471.5C450.771,475.845 448.938,480.178 447,484.5C438.247,512.45 431.747,540.783 427.5,569.5C426.631,585.816 426.297,602.15 426.5,618.5C427.755,634.198 431.255,649.531 437,664.5C463.682,714.006 503.182,728.339 555.5,707.5C556.391,706.89 557.391,706.557 558.5,706.5C571.473,698.194 582.139,687.527 590.5,674.5C590.833,673.5 591.5,672.833 592.5,672.5C598.979,657.881 603.146,642.547 605,626.5C606.345,598.712 605.178,571.046 601.5,543.5C597.71,518.427 590.21,494.427 579,471.5C577.887,472.305 576.721,472.972 575.5,473.5C574.035,474.737 572.368,475.737 570.5,476.5C538.561,476.562 506.561,476.562 474.5,476.5C466.562,477.632 459.562,475.299 453.5,469.5C452.702,469.957 452.369,470.624 452.5,471.5ZM467.5,419.5C463.862,419.738 461.029,421.404 459,424.5C454.513,440.481 460.347,449.814 476.5,452.5C477.828,447.712 478.495,442.546 478.5,437C478.167,431.833 477.833,426.667 477.5,421.5C474.465,419.699 471.131,419.032 467.5,419.5ZM513.5,367.5C509.104,378.858 505.604,390.525 503,402.5C504.263,419.061 504.763,435.727 504.5,452.5C512.146,453.207 519.813,453.54 527.5,453.5C527.333,441.495 527.5,429.495 528,417.5C529.367,414.397 530.534,411.23 531.5,408C529.493,394.138 526.159,380.638 521.5,367.5C519.732,364.394 518.232,361.061 517,357.5C515.923,360.899 514.756,364.233 513.5,367.5ZM303.5,412.5C302.636,423.5 303.97,434.167 307.5,444.5C314.563,461.063 323.896,476.23 335.5,490C355.149,499.821 374.149,510.654 392.5,522.5C398.633,525.065 404.299,528.399 409.5,532.5C412.535,520.95 414.702,509.284 416,497.5C409.938,491.27 403.771,485.27 397.5,479.5C391.725,474.9 386.059,470.066 380.5,465C368.776,462.656 357.109,459.989 345.5,457C340.986,454.984 337.653,451.817 335.5,447.5C330.108,437.366 325.775,426.7 322.5,415.5C316.73,413.449 311.063,411.116 305.5,408.5C304.828,409.949 304.161,411.282 303.5,412.5ZM489.5,737.5C472.024,733.846 456.857,725.846 444,713.5C439.433,724.426 437.767,735.76 439,747.5C441.832,759.664 448.998,768.164 460.5,773C467.14,776.161 473.807,778.994 480.5,781.5C497.382,784.63 514.382,785.296 531.5,783.5C545.772,780.691 559.772,776.525 573.5,771C589.769,761.961 596.602,748.128 594,729.5C593.238,723.442 591.405,717.776 588.5,712.5C575.921,724.957 560.921,732.957 543.5,736.5C525.568,741.311 507.568,741.644 489.5,737.5ZM568.5,820.5C570.274,813.218 570.607,805.884 569.5,798.5C558.991,801.627 548.324,804.127 537.5,806C512.477,811.048 488.144,808.881 464.5,799.5C462.351,812.575 465.351,824.241 473.5,834.5C479.314,839.166 485.981,841.999 493.5,843C504.833,843.667 516.167,843.667 527.5,843C538.316,841.894 548.649,839.061 558.5,834.5C563.314,830.864 566.648,826.197 568.5,820.5ZM648.5,468.5C638.54,477.157 628.54,485.823 618.5,494.5C618.082,495.222 617.416,495.722 616.5,496C619.663,506.982 621.996,518.149 623.5,529.5C635.768,524.033 647.768,518.033 659.5,511.5C668.601,505.441 677.934,499.608 687.5,494C691.167,492.333 694.833,490.667 698.5,489C712.008,474.159 721.508,456.992 727,437.5C728.918,427.508 728.918,417.508 727,407.5C721.22,411.74 714.72,414.073 707.5,414.5C703.816,427.215 698.982,439.548 693,451.5C688.629,456.434 683.129,458.767 676.5,458.5C670.332,460.171 663.999,461.671 657.5,463C654.138,464.343 651.138,466.176 648.5,468.5ZM774.5,192.5C779.324,191.971 783.657,193.138 787.5,196C802.04,210.913 810.873,228.747 814,249.5C816.245,270.511 818.578,291.511 821,312.5C825.171,331.312 834.337,347.145 848.5,360C856.083,364.374 863.583,368.874 871,373.5C874.332,386.836 869.165,392.669 855.5,391C839.013,383.842 825.513,373.009 815,358.5C808.039,346.246 803.039,333.246 800,319.5C797.153,299.181 794.486,278.847 792,258.5C790.502,247.823 787.169,237.823 782,228.5C777.635,221.48 773.302,214.48 769,207.5C767.087,200.97 768.92,195.97 774.5,192.5Z"/>
    </g>
</svg>
