<?xml version="1.0" encoding="UTF-8" standalone="no"?>
<!DOCTYPE svg PUBLIC "-//W3C//DTD SVG 1.1//EN" "http://www.w3.org/Graphics/SVG/1.1/DTD/svg11.dtd">
<svg width="100%" height="100%" viewBox="0 0 1024 1024" version="1.1" xmlns="http://www.w3.org/2000/svg" xmlns:xlink="http://www.w3.org/1999/xlink" xml:space="preserve" xmlns:serif="http://www.serif.com/" style="fill-rule:evenodd;clip-rule:evenodd;stroke-linejoin:round;stroke-miterlimit:2;">
    <g transform="matrix(1.34375,0,0,1.34375,-129.583,-265.663)">
        <path d="M372.5,773.5C327.724,805.734 283.057,838.234 238.5,871C232.622,875.273 226.288,878.439 219.5,880.5C206.36,879.519 200.027,872.353 200.5,859C200.968,850.898 203.801,843.732 209,837.5L244.5,802C233.044,802.614 222.044,805.28 211.5,810C202.106,811.605 198.606,807.771 201,798.5C204.972,791.383 209.472,784.716 214.5,778.5C244.826,735.871 275.659,693.538 307,651.5C327.333,622.5 347.667,593.5 368,564.5C381.792,523.458 395.792,482.458 410,441.5C418.942,416.405 434.442,396.572 456.5,382C468.25,375.063 480.916,372.229 494.5,373.5C495.463,334.204 503.129,296.37 517.5,260C512.058,256.684 509.891,251.851 511,245.5C513.575,241.093 517.408,239.093 522.5,239.5C522.656,236.159 523.989,233.326 526.5,231C537.01,223.909 548.01,217.575 559.5,212C564.64,209.731 569.973,208.065 575.5,207C583.858,206.624 592.191,205.957 600.5,205C629.244,194.356 657.577,195.356 685.5,208C706.616,219.458 719.783,236.958 725,260.5C730.365,266.199 736.031,271.533 742,276.5C752.332,287.48 756.332,300.48 754,315.5C752.48,324.807 751.147,334.14 750,343.5C749.435,349.661 746.268,353.661 740.5,355.5C735.8,354.299 732.966,351.299 732,346.5C731.077,342.21 730.577,337.877 730.5,333.5C724.003,332.876 717.503,332.209 711,331.5C686.902,334.981 675.568,348.981 677,373.5C686.043,383.541 694.71,393.874 703,404.5C713.161,413.319 721.827,423.319 729,434.5C730.197,437.089 731.197,439.756 732,442.5C740.943,512.35 733.276,580.35 709,646.5C703.786,651.775 698.452,651.775 693,646.5C692.296,644.722 691.796,642.888 691.5,641C711.2,583.434 719.033,524.267 715,463.5C714.869,454.844 713.202,446.511 710,438.5C704.258,432.937 699.091,427.604 694.5,422.5C706.735,462.183 709.569,502.517 703,543.5C692.607,587.307 670.274,623.641 636,652.5C626.292,678.364 619.625,705.031 616,732.5C615.167,766.172 615.333,799.838 616.5,833.5C632.515,848.263 634.015,864.263 621,881.5C620.667,905.5 620.333,929.5 620,953.5C615.803,959.471 610.303,960.971 603.5,958C602.54,956.581 601.707,955.081 601,953.5C600.5,933.169 600.333,912.836 600.5,892.5C588.884,892.858 578.884,889.024 570.5,881C552.833,880.667 535.167,880.333 517.5,880C510.935,874.035 510.935,868.035 517.5,862C538.5,861.333 559.5,861.333 580.5,862C582.795,865.297 585.462,868.297 588.5,871C605.212,875.285 611.712,869.118 608,852.5C597.837,843.965 588.337,844.798 579.5,855C555.836,855.5 532.169,855.667 508.5,855.5C508.667,888.168 508.5,920.835 508,953.5C504.723,959.109 499.89,960.942 493.5,959C491.622,957.457 490.122,955.624 489,953.5C488.667,904.5 488.333,855.5 488,806.5C477.126,821.125 462.959,825.958 445.5,821C441.084,818.588 437.251,815.422 434,811.5C428.896,802.292 424.063,792.959 419.5,783.5C356.364,827.905 292.364,871.072 227.5,913C219.659,916.332 213.825,914.165 210,906.5C209.487,902.385 210.32,898.551 212.5,895C221.446,893.026 229.446,889.193 236.5,883.5C294.644,844.591 352.644,805.424 410.5,766C411.554,764.612 411.72,763.112 411,761.5C409.194,757.082 407.194,752.749 405,748.5C394.576,757.432 383.742,765.765 372.5,773.5ZM712.5,280.5C698.83,293.642 700.83,303.808 718.5,311C724.127,312.238 729.627,313.738 735,315.5C736.931,297.625 729.431,285.958 712.5,280.5ZM489.5,391.5C472.518,394.411 458.351,402.411 447,415.5C440.897,424.037 435.564,433.037 431,442.5C424.896,458.816 419.23,475.149 414,491.5C427.153,467.188 441.82,443.855 458,421.5C467.509,409.842 478.676,400.176 491.5,392.5C491.043,391.702 490.376,391.369 489.5,391.5ZM605.5,676.5C589.896,686.644 573.896,696.31 557.5,705.5C557.167,706.5 556.833,707.5 556.5,708.5C555.368,728.816 555.202,749.149 556,769.5C556.857,778.936 559.857,787.603 565,795.5C567.653,798.194 570.82,799.027 574.5,798C580.872,794.279 585.039,788.779 587,781.5C594.263,746.435 600.429,711.435 605.5,676.5ZM504.5,584.5C462.335,585.333 420.002,585.833 377.5,586C359.887,609.614 343.054,633.781 327,658.5C324.48,662.016 321.647,665.183 318.5,668C359.504,668.833 400.504,668.667 441.5,667.5C462.964,638.899 483.964,611.232 504.5,584.5ZM519.5,402.5C502.874,406.412 489.04,415.079 478,428.5L389.5,563.5C433.067,564.83 476.567,564.83 520,563.5C536.067,543.032 551.4,522.032 566,500.5C579.296,477.816 581.629,454.15 573,429.5C560.478,410.322 542.645,401.322 519.5,402.5ZM534.5,724.5C527.099,728.284 519.599,731.95 512,735.5C508.946,768.759 507.779,802.093 508.5,835.5C530.169,835.667 551.836,835.5 573.5,835C579.789,831.623 586.456,829.79 593.5,829.5C593.666,821.826 593.5,814.159 593,806.5C591.167,809 589,811.167 586.5,813C570.948,821.305 557.781,818.471 547,804.5C539.093,789.53 535.593,773.53 536.5,756.5C535.833,745.833 535.167,735.167 534.5,724.5ZM237.5,782.5C248.259,779.226 259.259,776.393 270.5,774L284.5,760C289.51,756.493 294.843,753.493 300.5,751C310.216,732.955 322.549,716.955 337.5,703C342.625,700.754 347.958,700.087 353.5,701C358.038,702.713 359.538,705.88 358,710.5C346.08,722.089 334.413,734.089 323,746.5C293.085,782.416 261.085,816.416 227,848.5C223.82,852.536 221.487,856.869 220,861.5C262.907,828.636 306.407,796.636 350.5,765.5C366.675,753.498 383.009,741.665 399.5,730C396.485,724.642 393.651,719.142 391,713.5C390.333,710.833 390.333,708.167 391,705.5C391.5,703.667 392.667,702.5 394.5,702C398.572,701.342 402.572,701.675 406.5,703C409,704.167 410.833,706 412,708.5C422.746,737.072 434.079,765.406 446,793.5C451.76,804.485 459.593,806.318 469.5,799C472.123,795.588 474.623,792.088 477,788.5C484.662,772.195 490.328,755.195 494,737.5C497.998,726.845 501.998,716.178 506,705.5C511.64,695.187 518.806,686.021 527.5,678C545.833,664.333 564.167,650.667 582.5,637C587.391,631.772 592.558,626.939 598,622.5C628.253,592.472 645.92,556.139 651,513.5C652.167,511 654,509.167 656.5,508C669.35,505.527 673.85,510.694 670,523.5C661.498,571.348 639.332,611.514 603.5,644C586.601,657.744 569.601,671.244 552.5,684.5C591.686,665.159 625.52,638.826 654,605.5C669.395,585.351 679.395,562.684 684,537.5C688.294,506.586 686.961,475.92 680,445.5C672.71,423.627 665.044,401.96 657,380.5C654.637,362.273 658.97,345.94 670,331.5C676.484,323.353 684.65,317.853 694.5,315C690.854,311.36 688.021,307.193 686,302.5C684.129,290.447 687.629,280.28 696.5,272C699.648,270.395 702.981,269.395 706.5,269C703.332,262.168 701.165,255.001 700,247.5C697.709,241.206 693.875,236.039 688.5,232C659.892,215.071 630.225,213.071 599.5,226C590.5,226.333 581.5,226.667 572.5,227C561.975,232.427 551.641,238.094 541.5,244C555.577,248.019 569.911,249.352 584.5,248C622.004,230.166 655.837,235.333 686,263.5C688.37,265.87 689.87,268.704 690.5,272C688.968,279.883 684.301,283.55 676.5,283C673.547,279.592 670.713,276.092 668,272.5C668.406,280.743 665.573,287.576 659.5,293C650.888,298.086 642.721,297.586 635,291.5C629.976,284.855 629.476,278.022 633.5,271C642.45,273.741 649.45,271.241 654.5,263.5C642.028,257.992 629.028,256.159 615.5,258C606.401,261.049 597.401,264.382 588.5,268C570.63,269.404 552.964,267.904 535.5,263.5C522.347,302.079 514.681,341.746 512.5,382.5C521.213,382.248 529.88,382.748 538.5,384C571.448,391.281 591.281,411.448 598,444.5C599.943,462.507 597.443,479.84 590.5,496.5C583.99,508.523 576.823,520.19 569,531.5C538.334,572.327 507.501,612.994 476.5,653.5C465.399,667.507 454.399,681.674 443.5,696C434.812,700.726 430.146,698.226 429.5,688.5C388.499,688.667 347.499,688.5 306.5,688L305,686.5C281.755,717.99 258.755,749.656 236,781.5C235.395,783.635 235.895,783.969 237.5,782.5Z"/>
    </g>
</svg>
