<?xml version="1.0" encoding="UTF-8" standalone="no"?>
<!DOCTYPE svg PUBLIC "-//W3C//DTD SVG 1.1//EN" "http://www.w3.org/Graphics/SVG/1.1/DTD/svg11.dtd">
<svg width="100%" height="100%" viewBox="0 0 1024 1024" version="1.1" xmlns="http://www.w3.org/2000/svg" xmlns:xlink="http://www.w3.org/1999/xlink" xml:space="preserve" xmlns:serif="http://www.serif.com/" style="fill-rule:evenodd;clip-rule:evenodd;stroke-linejoin:round;stroke-miterlimit:2;">
    <g transform="matrix(1.68551,0,0,1.68551,-347.42,-362.332)">
        <path d="M709.5,701.5C707.778,707.376 703.778,710.376 697.5,710.5C694.972,710.237 692.639,709.404 690.5,708C673.964,690.466 657.797,672.632 642,654.5C635.891,645.271 630.058,635.937 624.5,626.5C620.759,617.539 618.259,608.205 617,598.5C613.979,608.56 609.979,618.226 605,627.5C599.251,637.334 593.251,647.001 587,656.5C583.915,672.098 577.915,686.431 569,699.5C566.359,706.728 564.026,714.061 562,721.5C561.308,726.891 561.641,732.225 563,737.5C565.593,738.746 568.093,740.079 570.5,741.5C580.838,746.669 591.171,751.836 601.5,757C607.308,762.095 608.808,768.262 606,775.5C602.155,780.003 597.322,781.503 591.5,780C578.422,768.541 563.588,760.041 547,754.5C541.137,758.71 535.637,763.21 530.5,768C529.394,778.143 529.227,788.31 530,798.5C536.532,792.302 542.699,785.802 548.5,779C552.5,777 556.5,777 560.5,779C565.867,784.032 570.867,789.365 575.5,795C579.819,795.76 584.152,796.427 588.5,797C590.848,797.346 592.681,798.513 594,800.5C597.846,811.307 594.346,818.474 583.5,822C577.891,822.372 572.891,820.706 568.5,817C562.367,812.699 556.7,807.866 551.5,802.5C546.677,807.492 542.01,812.658 537.5,818C526.822,825.226 517.989,823.393 511,812.5C509.601,809.637 508.601,806.637 508,803.5C507.081,787.787 507.414,772.121 509,756.5C510.4,753.098 512.567,750.264 515.5,748C519.447,746.206 522.781,743.706 525.5,740.5C521.419,723.349 518.419,706.016 516.5,688.5C509.869,690.071 503.369,689.738 497,687.5C493.508,701.8 490.175,716.133 487,730.5C486.333,734.167 486.333,737.833 487,741.5C494.308,745.143 499.975,750.476 504,757.5C504.667,772.167 504.667,786.833 504,801.5C504.174,813.141 498.674,820.141 487.5,822.5C485.091,821.936 482.758,821.103 480.5,820C475,813.833 469.5,807.667 464,801.5C455.077,809.378 445.243,815.878 434.5,821C424.845,823.178 419.511,819.345 418.5,809.5C418.389,803.883 420.722,799.716 425.5,797C430.596,796.155 435.596,794.988 440.5,793.5C444.943,787.768 449.943,782.602 455.5,778C459.858,776.925 463.858,777.592 467.5,780C473.019,785.551 478.186,791.385 483,797.5C483.899,787.107 483.566,776.773 482,766.5C477.147,762.645 472.647,758.478 468.5,754C466.833,753.333 465.167,753.333 463.5,754C453.078,759.142 442.745,764.475 432.5,770C429.593,773.151 426.926,776.484 424.5,780C414.363,782.033 409.03,777.866 408.5,767.5C408.466,764.567 409.299,761.9 411,759.5L430.5,746C434.635,743.597 438.968,741.763 443.5,740.5C440.419,711.931 435.919,683.597 430,655.5C425.392,647.93 420.558,640.597 415.5,633.5C409.751,622.009 404.584,610.342 400,598.5C399.713,613.743 395.38,627.743 387,640.5C370.783,663.545 352.95,685.212 333.5,705.5C328.014,709.684 322.014,710.517 315.5,708C313.951,706.786 312.785,705.286 312,703.5C310.69,664.213 310.024,624.88 310,585.5C307.294,593.245 303.794,600.578 299.5,607.5C282.773,636.233 261.773,661.566 236.5,683.5C228.298,685.808 223.131,682.808 221,674.5C220.355,650.488 220.688,626.488 222,602.5C230.266,495.233 243.266,388.566 261,282.5C261.803,279.756 262.803,277.089 264,274.5C271.71,270.728 279.21,266.561 286.5,262C300.411,252.093 313.744,241.427 326.5,230C350.304,211.426 374.971,210.093 400.5,226C411.897,235.622 419.064,247.788 422,262.5C422.333,302.833 422.667,343.167 423,383.5C425.539,405.866 437.705,419.532 459.5,424.5C469.168,424.932 475.335,420.599 478,411.5C478.667,397.5 478.667,383.5 478,369.5C452.15,346.064 447.817,319.064 465,288.5C481.163,268.166 501.996,260.332 527.5,265C540.655,270.941 554.322,275.274 568.5,278C578.09,281.923 584.59,288.756 588,298.5C589.584,313.787 589.918,329.121 589,344.5C587.061,352.891 581.895,355.724 573.5,353C571.481,352.55 569.648,351.717 568,350.5C561.14,360.869 552.306,368.869 541.5,374.5C541.333,387.504 541.5,400.504 542,413.5C548.121,423.766 556.955,426.932 568.5,423C587.946,415.546 598.113,401.379 599,380.5C599.035,340.134 599.702,299.801 601,259.5C609.142,229.024 628.975,214.191 660.5,215C672.144,217.49 682.811,222.157 692.5,229C709.937,243.104 727.937,256.438 746.5,269C753.565,270.933 758.732,275.099 762,281.5C773.74,359.943 783.74,438.609 792,517.5C797.274,570.377 799.608,623.377 799,676.5C794.304,683.913 788.137,685.413 780.5,681C758.738,659.25 739.238,635.75 722,610.5C717.534,602.901 713.367,595.234 709.5,587.5C710.816,625.549 710.816,663.549 709.5,701.5ZM333.5,670.5C333.435,670.938 333.601,671.272 334,671.5C350.724,653.699 364.724,634.033 376,612.5C376.333,586.833 376.667,561.167 377,535.5C378.829,530.502 382.329,527.502 387.5,526.5C386.22,517.289 388.22,508.956 393.5,501.5C402.181,497.957 408.681,500.29 413,508.5C413.261,525.547 414.261,542.547 416,559.5C418.928,594.325 431.928,624.658 455,650.5C462.965,659.645 472.798,665.645 484.5,668.5C492.851,666.263 501.351,665.263 510,665.5C519.84,666.271 529.673,666.771 539.5,667C546.34,663.75 552.673,659.75 558.5,655C574.103,639.314 585.27,620.814 592,599.5C600.686,568.723 605.02,537.39 605,505.5C606.543,503.622 608.376,502.122 610.5,501C618.494,499.103 623.994,501.936 627,509.5C628.304,515.423 628.804,521.423 628.5,527.5C635.48,528.316 639.313,532.316 640,539.5C640.333,562.167 640.667,584.833 641,607.5L644,616.5C656.643,636.102 670.977,654.435 687,671.5C686.36,602.854 686.36,534.187 687,465.5C687.45,463.481 688.283,461.648 689.5,460C696.78,454.797 703.28,455.63 709,462.5C710.464,482.433 710.964,502.433 710.5,522.5C712.124,522.36 713.29,523.027 714,524.5C717.926,548.145 725.592,570.479 737,591.5C748.53,610.56 761.53,628.56 776,645.5C776.667,634.167 776.667,622.833 776,611.5C768.682,504.444 756.849,397.944 740.5,292C728.893,284.725 717.56,277.058 706.5,269C696.12,260.285 685.453,251.952 674.5,244C669.134,241.151 663.468,239.151 657.5,238C638.793,237.955 627.293,247.122 623,265.5C622.667,305.833 622.333,346.167 622,386.5C617.272,417.886 599.772,438.053 569.5,447C544.37,451.19 527.537,441.357 519,417.5C517.685,405.205 517.185,392.872 517.5,380.5C512.57,380.803 507.737,380.469 503,379.5C502.667,390.5 502.333,401.5 502,412.5C501.408,416.276 500.408,419.943 499,423.5C488.931,442.887 473.097,450.721 451.5,447C422.186,438.213 405.02,418.713 400,388.5C399.973,345.462 399.306,302.462 398,259.5C391.98,245.384 381.147,238.051 365.5,237.5C355.732,238.885 347.066,242.718 339.5,249C327.869,259.476 315.869,269.476 303.5,279C296.884,283.556 290.051,287.723 283,291.5C275.64,334.685 269.307,378.018 264,421.5C253.334,495.49 247.001,569.823 245,644.5C253.242,634.347 261.242,624.014 269,613.5C286.144,587.866 297.811,559.866 304,529.5C305.262,526.243 307.262,523.577 310,521.5C310.333,502.167 310.667,482.833 311,463.5C311.774,461.061 313.274,459.227 315.5,458C323.563,454.741 329.563,456.908 333.5,464.5L333.5,670.5ZM547.5,686.5C544.753,689.207 541.42,690.873 537.5,691.5C538.538,704.189 541.038,716.523 545,728.5C548.044,714.46 548.878,700.46 547.5,686.5ZM462.5,684.5C462.333,699.837 462.5,715.17 463,730.5C465.213,729.198 467.546,728.198 470,727.5C471.448,715.983 472.948,704.483 474.5,693C470.383,690.391 466.383,687.558 462.5,684.5ZM508.5,286.5C503.7,288.166 499.034,290.333 494.5,293C471.368,311.961 470.702,331.627 492.5,352C510.63,362.403 527.13,360.236 542,345.5C545.902,339.541 550.402,334.041 555.5,329C551.548,329.434 547.548,329.434 543.5,329C533.901,326.617 530.401,320.784 533,311.5C536.844,307.662 541.511,305.996 547,306.5C554.163,306.714 561.163,307.714 568,309.5C568.495,307.527 568.662,305.527 568.5,303.5C564.378,303.303 560.378,302.47 556.5,301C546.952,296.392 537.285,292.059 527.5,288C521.204,286.988 514.871,286.488 508.5,286.5ZM508.5,298.5C516.493,297.097 521.993,300.097 525,307.5C525.851,313.253 525.517,318.92 524,324.5C514.785,331.016 507.452,329.349 502,319.5C498.336,310.434 500.502,303.434 508.5,298.5Z"/>
    </g>
</svg>
