<?xml version="1.0" encoding="UTF-8" standalone="no"?>
<!DOCTYPE svg PUBLIC "-//W3C//DTD SVG 1.1//EN" "http://www.w3.org/Graphics/SVG/1.1/DTD/svg11.dtd">
<svg width="100%" height="100%" viewBox="0 0 1024 1024" version="1.1" xmlns="http://www.w3.org/2000/svg" xmlns:xlink="http://www.w3.org/1999/xlink" xml:space="preserve" xmlns:serif="http://www.serif.com/" style="fill-rule:evenodd;clip-rule:evenodd;stroke-linejoin:round;stroke-miterlimit:2;">
    <g transform="matrix(1.54605,0,0,1.54605,-292.267,-284.924)">
        <path d="M321.5,564.5C323,558.511 324.167,552.511 325,546.5C298.115,523.261 276.782,495.594 261,463.5C251.681,441.602 248.681,418.935 252,395.5C224.113,378.002 214.779,353.336 224,321.5C241.953,283.774 271.12,270.274 311.5,281C325.635,287.469 336.135,297.636 343,311.5C353.769,285.952 367.102,261.952 383,239.5C405.522,212.028 434.355,194.861 469.5,188C520.298,179.019 568.632,186.352 614.5,210C640.047,225.881 660.547,246.714 676,272.5C683.088,285.007 689.921,297.674 696.5,310.5C698.419,305.918 701.419,302.251 705.5,299.5C714.35,287.228 726.35,279.728 741.5,277C780.813,274.732 806.646,292.232 819,329.5C823.175,359.151 812.009,380.818 785.5,394.5C788.333,421.823 783.5,447.823 771,472.5C762.903,487.034 753.569,500.701 743,513.5C732.172,524.995 721.339,536.495 710.5,548C724.699,591.902 720.199,633.735 697,673.5C695.542,675.96 693.709,678.127 691.5,680C702.017,676.508 706.517,680.341 705,691.5C703.961,693.746 702.794,695.913 701.5,698C676.375,715.458 654.875,736.625 637,761.5C623.802,786.47 616.802,813.136 616,841.5C609.678,848.509 604.012,847.843 599,839.5C597.336,835.844 596.503,832.01 596.5,828C597.065,821.716 597.898,815.55 599,809.5C595.487,815.191 591.487,820.524 587,825.5C583.121,832.762 578.621,839.595 573.5,846C567.531,847.71 563.697,845.543 562,839.5C559.84,824.519 555.007,810.519 547.5,797.5C537.591,810.647 529.758,824.98 524,840.5C520.655,846.075 516.655,846.742 512,842.5C504.352,826.532 495.186,811.532 484.5,797.5C478.119,810.808 474.286,824.808 473,839.5C470.489,845.657 465.989,847.824 459.5,846C451.442,832.048 442.276,818.881 432,806.5C435.288,817.062 435.288,827.728 432,838.5C428.578,845.296 423.411,847.129 416.5,844C415.582,821.152 411.082,798.985 403,777.5C397.528,764.548 390.528,752.548 382,741.5C370.068,728.563 357.234,716.729 343.5,706C338.966,701.801 334.799,697.301 331,692.5C329.326,679.749 334.493,675.749 346.5,680.5C346.053,676.766 344.219,673.433 341,670.5C320.517,637.595 314.017,602.262 321.5,564.5ZM709.5,324.5C707.667,326.496 707.167,328.829 708,331.5C717.883,352.599 727.217,373.933 736,395.5C739.339,410.508 737.339,424.841 730,438.5C710.545,467.401 688.712,494.401 664.5,519.5C658.701,525.641 653.035,531.808 647.5,538C662.963,561.957 666.796,587.791 659,615.5C645.781,659.054 616.948,685.554 572.5,695C537.5,696.789 502.5,696.956 467.5,695.5C448.718,693.209 432.051,686.042 417.5,674C390.598,651.196 375.931,622.196 373.5,587C373.782,568.34 379.782,551.84 391.5,537.5C363.062,507.899 335.895,477.232 310,445.5C301.027,432.202 297.36,417.536 299,401.5C308.872,376.588 319.705,352.088 331.5,328C316.101,296.867 292.768,288.867 261.5,304C241.107,320.171 235.607,340.338 245,364.5C248.655,369.664 253.322,373.664 259,376.5C265.65,361.864 272.317,347.197 279,332.5C287.221,327.522 292.721,329.689 295.5,339C289.37,355.764 282.537,372.264 275,388.5C267.241,410.391 267.908,432.058 277,453.5C293.666,487.174 316.666,515.841 346,539.5C346.78,541.387 346.613,543.054 345.5,544.5C342.221,558.062 339.387,571.729 337,585.5C335.16,613.657 342.16,639.323 358,662.5C362.692,668.359 367.192,674.359 371.5,680.5C368.696,686.738 364.029,690.905 357.5,693C384.354,712.851 405.854,737.351 422,766.5C430.63,776.798 439.63,786.798 449,796.5C452.726,801.228 456.059,806.228 459,811.5C463.765,795.639 470.431,780.639 479,766.5C481.333,763.833 483.667,763.833 486,766.5C497.924,780.421 508.258,795.421 517,811.5C525.543,794.632 536.043,779.132 548.5,765C549.167,764.333 549.833,764.333 550.5,765C553.614,768.06 556.114,771.56 558,775.5C563.888,787.274 569.221,799.274 574,811.5C584.151,796.871 595.485,783.205 608,770.5C620.737,747.414 636.904,726.914 656.5,709C663.5,703.333 670.5,697.667 677.5,692C670.226,690.283 667.393,685.783 669,678.5C699.46,640.341 706.793,598.008 691,551.5C690.172,547.129 690.339,542.795 691.5,538.5C710.984,520.521 728.484,500.854 744,479.5C753.968,465.225 760.968,449.558 765,432.5C767.14,418.775 766.807,405.109 764,391.5C758.07,375.718 751.737,360.052 745,344.5C741.134,335.894 743.801,330.894 753,329.5C755.996,329.914 758.496,331.248 760.5,333.5C767.277,347.495 773.277,361.829 778.5,376.5C789.852,371.813 797.019,363.48 800,351.5C802.813,333.298 797.313,318.131 783.5,306C752.532,287.789 727.866,293.955 709.5,324.5ZM647.5,510.5C668.483,486.34 688.983,461.673 709,436.5C716.582,425.18 719.248,412.847 717,399.5C700.765,362.038 683.265,325.371 664.5,289.5C638.161,297.504 611.828,305.671 585.5,314C566.494,321.004 548.494,329.837 531.5,340.5C526.483,345.517 521.149,350.183 515.5,354.5C510.375,349.876 505.375,345.043 500.5,340C480.294,327.703 458.961,317.703 436.5,310C416.423,303.694 396.423,297.527 376.5,291.5C374.914,290.587 373.414,290.587 372,291.5C353.942,326.284 336.942,361.617 321,397.5C316.342,408.273 316.676,418.939 322,429.5C325,433.833 328,438.167 331,442.5C355.267,470.439 379.934,498.105 405,525.5C414.114,508.102 424.614,491.602 436.5,476C412.207,462.853 388.207,449.187 364.5,435C348.697,420.901 343.864,403.734 350,383.5C358.707,362.56 370.54,343.727 385.5,327C392.298,321.811 399.965,320.144 408.5,322C421.137,326.187 434.137,328.521 447.5,329C464.384,332.901 476.884,342.401 485,357.5C485.943,368.567 481.443,371.733 471.5,367C465.266,359.092 457.599,353.092 448.5,349C439.56,347.785 430.56,347.118 421.5,347C416.744,345.978 412.077,344.644 407.5,343C401.622,341.347 396.788,342.847 393,347.5C387,356.833 381,366.167 375,375.5C369.047,384.317 366.38,393.984 367,404.5C368.077,409.823 370.577,414.323 374.5,418C378.659,421.247 382.992,424.247 387.5,427C407.096,437.714 426.596,448.547 446,459.5C455.337,443.498 464.67,427.498 474,411.5C478.546,407.251 483.713,406.418 489.5,409C491.922,411.003 492.755,413.503 492,416.5C473.175,454.61 451.175,490.61 426,524.5C422.873,529.419 420.873,534.752 420,540.5C419.333,548.5 419.333,556.5 420,564.5C422.925,577.091 430.759,584.591 443.5,587C492.855,587.815 542.189,587.648 591.5,586.5C599.623,585.186 606.123,581.186 611,574.5C618.933,556.166 618.266,538.166 609,520.5C594.945,501.444 581.278,482.111 568,462.5C557.852,447.203 549.019,431.203 541.5,414.5C542.221,412.226 543.554,410.393 545.5,409C554.682,407.343 561.182,410.843 565,419.5C572.252,432.341 579.752,445.008 587.5,457.5C595.378,453.729 603.044,449.729 610.5,445.5C625.899,437.632 641.232,429.465 656.5,421C668.014,411.437 671.181,399.604 666,385.5C659.855,373.21 653.188,361.21 646,349.5C642.654,344.495 637.988,341.828 632,341.5C625.821,343.254 619.655,345.087 613.5,347C605.151,347.351 596.817,347.351 588.5,347C583.698,348.901 579.364,351.568 575.5,355L563.5,367C553.551,371.077 549.385,367.577 551,356.5C563.345,334.41 582.178,324.576 607.5,327C614.838,324.998 622.171,322.998 629.5,321C641.845,319.897 651.678,324.397 659,334.5C668.275,347.378 676.275,361.044 683,375.5C691.261,393.247 689.928,410.247 679,426.5C668.315,437.435 655.815,445.768 641.5,451.5C627.178,458.814 612.845,466.147 598.5,473.5C611.238,489.974 623.238,506.974 634.5,524.5C638.149,519.185 642.482,514.519 647.5,510.5ZM583.5,357.5C601.03,355.186 614.863,361.186 625,375.5C631.613,395.777 626.113,411.943 608.5,424C584.149,432.574 567.982,424.407 560,399.5C557.237,379.343 565.07,365.343 583.5,357.5ZM588.5,377.5C584.666,380.143 581.499,383.476 579,387.5C577.001,395.851 579.501,402.351 586.5,407C596.074,410.919 603.241,408.419 608,399.5C610.417,384.09 603.917,376.756 588.5,377.5ZM436.5,356.5C456.376,355.553 469.21,364.553 475,383.5C478.026,405.791 468.859,420.291 447.5,427C432.801,429.235 420.968,424.402 412,412.5C401.053,393.235 404.22,376.735 421.5,363C426.381,360.218 431.381,358.051 436.5,356.5ZM434.5,377.5C426.664,381.798 423.498,388.465 425,397.5C432.72,410.97 442.387,412.637 454,402.5C459.764,384.754 453.264,376.421 434.5,377.5ZM490.5,480.5C495.872,484.383 500.039,489.383 503,495.5C508,501.167 513,506.833 518,512.5C525.081,503.919 531.581,494.919 537.5,485.5C542.008,481.278 546.174,481.611 550,486.5C554,493.833 558,501.167 562,508.5C562.92,511.308 562.087,513.475 559.5,515C552.793,519.113 547.293,517.946 543,511.5C536.924,516.905 531.591,522.905 527,529.5C526.667,539.5 526.333,549.5 526,559.5C525.167,561.667 523.667,563.167 521.5,564C517.289,564.921 513.289,564.421 509.5,562.5C508.691,552.547 508.191,542.547 508,532.5C502.784,524.608 496.784,517.275 490,510.5C487.268,516.089 482.768,518.255 476.5,517C472.787,515.309 471.621,512.475 473,508.5C477.319,500.532 481.652,492.532 486,484.5C487.397,482.93 488.897,481.596 490.5,480.5ZM462.5,651.5C452.187,649.764 444.353,644.43 439,635.5C434.905,625.936 433.405,615.936 434.5,605.5C418.769,600.266 408.602,589.599 404,573.5C402.861,567.564 402.195,561.564 402,555.5C391.89,572.573 389.89,590.573 396,609.5C404.496,633.652 419.329,652.818 440.5,667C452.961,672.92 465.961,676.087 479.5,676.5C507.835,676.667 536.169,676.5 564.5,676C579.889,674.76 593.889,669.76 606.5,661C632.775,639.288 644.941,611.455 643,577.5C641.165,569.319 638.165,561.653 634,554.5C633.957,570.249 628.624,583.916 618,595.5C613.598,599.413 609.098,603.08 604.5,606.5C609.783,633.425 598.783,648.592 571.5,652C535.144,652.808 498.811,652.641 462.5,651.5ZM586.5,619.5L586.5,611.5C585.566,610.432 585.232,609.099 585.5,607.5L454.5,607.5C451.76,616.496 453.76,624.162 460.5,630.5C462.637,631.787 464.97,632.621 467.5,633C501.167,633.667 534.833,633.667 568.5,633C578.431,633.551 584.431,629.051 586.5,619.5ZM497.5,242.5C486.116,245.016 474.783,248.183 463.5,252C443.024,260.043 423.024,269.043 403.5,279C424.664,284.61 445.33,291.61 465.5,300C483.161,307.58 500.327,316.08 517,325.5C530.755,317.371 544.922,309.871 559.5,303C581.286,294.738 603.286,287.071 625.5,280C601.776,267.137 577.109,256.471 551.5,248C533.833,243.043 515.833,241.21 497.5,242.5ZM489.5,204.5C476.416,206.801 463.416,209.968 450.5,214C432.213,220.393 416.713,230.893 404,245.5C399.089,251.655 394.423,257.989 390,264.5C408.624,255.126 428.457,245.626 449.5,236C489.931,218.817 530.598,218.151 571.5,234C598.622,244.895 624.955,257.395 650.5,271.5L651.5,270.5C634.55,246.013 612.216,228.179 584.5,217C553.688,206.532 522.022,202.366 489.5,204.5Z"/>
    </g>
</svg>
