<?xml version="1.0" encoding="UTF-8" standalone="no"?>
<!DOCTYPE svg PUBLIC "-//W3C//DTD SVG 1.1//EN" "http://www.w3.org/Graphics/SVG/1.1/DTD/svg11.dtd">
<svg width="100%" height="100%" viewBox="0 0 1024 1024" version="1.1" xmlns="http://www.w3.org/2000/svg" xmlns:xlink="http://www.w3.org/1999/xlink" xml:space="preserve" xmlns:serif="http://www.serif.com/" style="fill-rule:evenodd;clip-rule:evenodd;stroke-linejoin:round;stroke-miterlimit:2;">
    <g transform="matrix(1.72354,0,0,1.72354,-395.551,-433.441)">
        <path d="M295.5,459.5C278.975,453.009 265.475,457.009 255,471.5C252.49,475.199 250.657,479.199 249.5,483.5C248.511,545.137 248.178,606.804 248.5,668.5C249.346,674.203 249.679,679.87 249.5,685.5C258.262,666.904 271.928,653.071 290.5,644C317.346,633.988 342.346,637.321 365.5,654C371.436,659.781 377.77,664.948 384.5,669.5C389.133,672.077 394.133,673.577 399.5,674C414.711,676.447 429.044,674.113 442.5,667C446.092,664.079 448.925,660.579 451,656.5C453.435,643.537 455.768,630.537 458,617.5C468.043,579.786 491.21,553.619 527.5,539C552.263,529.703 577.596,527.536 603.5,532.5C647.609,540.448 678.776,564.782 697,605.5C702.271,621.919 706.605,638.585 710,655.5C715.6,671.44 726.767,680.273 743.5,682C763.916,688.342 773.916,702.175 773.5,723.5C772.749,738.719 765.415,749.053 751.5,754.5C744.552,757.454 737.386,758.121 730,756.5C724.876,759.979 719.376,762.812 713.5,765C725.508,771.008 738.174,773.674 751.5,773C753.382,772.802 755.048,772.302 756.5,771.5C771.469,768.18 783.135,760.18 791.5,747.5C800.388,736.169 804.722,723.169 804.5,708.5C803.22,696.328 799.553,684.995 793.5,674.5C786.5,664.167 777.833,655.5 767.5,648.5C755.618,642.392 743.618,636.559 731.5,631C725.725,626.673 724.225,621.173 727,614.5C728.574,613.152 730.407,612.486 732.5,612.5C744.722,616.013 756.388,620.68 767.5,626.5C776.077,630.614 783.744,635.947 790.5,642.5C822.463,670.347 831.296,704.347 817,744.5C798.096,782.702 767.596,798.202 725.5,791C709.326,786.249 695.326,777.916 683.5,766C651.957,764.151 629.123,748.984 615,720.5C613.194,714.944 611.861,709.278 611,703.5C610.667,694.5 610.333,685.5 610,676.5C607.201,661.203 598.034,652.536 582.5,650.5C566.932,653.567 556.432,662.567 551,677.5C551.249,702.094 543.582,723.761 528,742.5C501.056,772.891 467.556,791.725 427.5,799C408.179,801.301 389.846,798.135 372.5,789.5C330.111,812.869 292.611,806.535 260,770.5C251.25,759.003 244.583,746.336 240,732.5C238.146,722.937 235.479,713.604 232,704.5C231.625,699.79 230.958,695.123 230,690.5C229.333,622.167 229.333,553.833 230,485.5C231.807,470.22 238.141,457.22 249,446.5C255.234,429.364 262.567,412.697 271,396.5C273.277,392.92 275.777,389.586 278.5,386.5C284.95,375.267 292.617,364.933 301.5,355.5C302.5,353.833 303.833,352.5 305.5,351.5C320.575,335.462 338.241,323.129 358.5,314.5C395.748,298.176 434.748,291.51 475.5,294.5C487.195,295.636 498.862,296.969 510.5,298.5C510.374,307.509 510.041,316.509 509.5,325.5C506.035,345.246 500.701,364.579 493.5,383.5C491.738,387.362 489.738,391.028 487.5,394.5C480.776,408.88 472.443,422.213 462.5,434.5C459.86,437.806 456.86,440.806 453.5,443.5C451.167,446.5 448.5,449.167 445.5,451.5C413.343,479.466 376.676,487.799 335.5,476.5C332.053,476.186 328.72,475.352 325.5,474C315.287,469.392 305.287,464.559 295.5,459.5ZM469.5,387.5C471.214,381.737 473.214,376.07 475.5,370.5C478.464,365.618 480.464,360.285 481.5,354.5C482.167,353.5 482.833,352.5 483.5,351.5C484.5,346.167 485.5,340.833 486.5,335.5C478.35,339.641 471.017,344.974 464.5,351.5C458.177,356.491 452.177,361.824 446.5,367.5L444.5,367.5L444.5,368.5C443.5,369.167 442.5,369.833 441.5,370.5C428.54,381.319 414.54,390.652 399.5,398.5L399.5,399.5C394.592,402.452 389.592,405.119 384.5,407.5C390.853,415.193 396.853,423.193 402.5,431.5C406.794,437.129 411.461,442.463 416.5,447.5C418.685,447.296 420.685,446.63 422.5,445.5C425.631,446.092 427.964,445.092 429.5,442.5C430.434,439.364 432.601,437.698 436,437.5C438.528,432.298 441.864,427.634 446,423.5C448.062,421.438 450.394,419.77 453,418.5C453.36,416.392 454.027,414.392 455,412.5C461.655,405.264 466.488,396.931 469.5,387.5ZM279.5,424.5C277.396,428.579 276.063,432.912 275.5,437.5L302.5,437.5C302.005,422.049 301.993,406.762 302.464,391.641C302.433,391.267 302.445,390.887 302.5,390.5C302.649,389.448 302.483,388.448 302,387.5L301,388.5C293.066,400.035 285.899,412.035 279.5,424.5ZM434.5,691.5C417.217,695.93 402.884,705.097 391.5,719C383.113,719.947 379.28,716.114 380,707.5C383.933,701.566 389.1,697.066 395.5,694C387.431,693.972 379.431,694.805 371.5,696.5C356.498,702.2 348.831,713.2 348.5,729.5C348.333,735.508 349.333,741.175 351.5,746.5C355.201,755.703 361.534,762.537 370.5,767C403.827,784.455 436.494,783.455 468.5,764C462.333,757.167 456.167,750.333 450,743.5C445.39,734.213 448.223,729.713 458.5,730C464.109,734.606 469.442,739.606 474.5,745C478.088,747.377 481.588,749.877 485,752.5C494.283,746.758 502.783,739.925 510.5,732C503.04,730.424 495.707,728.424 488.5,726C483.051,722.338 481.717,717.671 484.5,712C492.259,710.484 499.926,711.151 507.5,714C511.282,715.954 514.615,718.454 517.5,721.5C522.515,715.799 525.682,709.133 527,701.5C524.529,675.784 533.863,655.784 555,641.5C554.988,635.191 554.822,628.857 554.5,622.5C554.386,617.391 554.886,612.391 556,607.5C561.333,602.167 566.667,602.167 572,607.5C573.432,615.054 573.932,622.721 573.5,630.5L584.5,630.5C584.068,622.721 584.568,615.054 586,607.5C591.609,603.284 596.942,603.617 602,608.5C602.601,610.137 603.101,611.803 603.5,613.5C602.234,620.826 602.234,628.159 603.5,635.5C626.315,652.406 635.149,675.073 630,703.5C634.788,722.957 646.621,736.124 665.5,743C670.375,744.636 675.375,745.469 680.5,745.5C679.436,736.602 683.102,730.936 691.5,728.5C695.636,728.646 698.303,730.646 699.5,734.5C697.96,738.213 695.793,741.547 693,744.5C692.312,745.332 692.479,745.998 693.5,746.5C700.174,745.108 706.841,743.608 713.5,742C726.098,730.788 730.265,716.954 726,700.5C723.833,697 721,694.167 717.5,692C711.336,688.752 705.336,685.252 699.5,681.5C691.812,683.038 684.145,684.704 676.5,686.5C671.024,686.023 668.358,683.023 668.5,677.5C668.404,675.074 669.07,672.907 670.5,671C678.051,669.098 685.718,667.931 693.5,667.5C688.891,653.731 685.225,639.731 682.5,625.5C669.512,627.161 657.179,630.828 645.5,636.5C642.426,636.55 640.259,635.217 639,632.5C637.506,627.474 638.673,623.308 642.5,620C653.712,615.114 665.378,611.947 677.5,610.5C665.636,583.816 645.636,565.983 617.5,557C606.934,553.633 596.268,551.466 585.5,550.5C545.517,548.529 513.35,563.196 489,594.5C485.811,600.043 483.311,605.877 481.5,612C481.645,612.772 481.978,613.439 482.5,614C491.37,616.176 495.537,621.676 495,630.5C491.223,636.235 486.39,637.068 480.5,633C479.019,632.02 477.685,630.853 476.5,629.5C474.916,640.672 472.583,651.672 469.5,662.5C474.818,664.331 480.151,666.164 485.5,668C491.588,674.935 490.255,680.101 481.5,683.5C475.877,681.844 470.21,680.344 464.5,679C463.069,678.535 461.903,677.701 461,676.5C453.546,683.976 444.712,688.976 434.5,691.5ZM389.5,735.5C393.516,734.9 397.016,735.9 400,738.5C401.847,748.192 405.847,756.859 412,764.5C413.596,774.394 409.763,777.227 400.5,773C388.299,762.654 384.632,750.154 389.5,735.5ZM631.5,589.5C639.498,589 643.331,592.667 643,600.5C638.31,605.572 633.81,610.739 629.5,616C624.859,618.535 621.025,617.701 618,613.5C617.333,611.5 617.333,609.5 618,607.5C620.819,600.175 625.319,594.175 631.5,589.5ZM515.5,590.5C522.705,592.017 528.538,595.684 533,601.5C538.059,611.767 534.892,616.934 523.5,617L510,603.5C506.67,596.719 508.503,592.386 515.5,590.5ZM421.5,351.5C421.825,343.648 421.492,335.982 420.5,328.5C420.666,324.486 420.499,320.486 420,316.5C402.083,319.861 384.916,325.528 368.5,333.5C367.505,339.128 367.171,344.794 367.5,350.5L367.5,392.5C385.558,383.609 403.225,373.276 420.5,361.5C421.487,358.232 421.82,354.898 421.5,351.5ZM321.5,420.5C321.56,421.043 321.893,421.376 322.5,421.5C324.887,419.311 327.553,417.644 330.5,416.5C331.167,415.167 332.167,414.167 333.5,413.5C338.62,410.22 343.62,406.72 348.5,403C347.348,386.563 347.348,370.063 348.5,353.5C347.748,350.253 347.248,346.919 347,343.5C343.267,346.745 339.434,349.745 335.5,352.5C331.176,356.324 327.009,360.324 323,364.5C321.298,369.159 321.131,373.825 322.5,378.5C322.5,379.167 322.167,379.5 321.5,379.5L321.5,420.5ZM457.5,329.5C458.167,329.167 458.833,328.833 459.5,328.5C464.627,324.545 469.627,320.378 474.5,316C462.838,315.5 451.171,315.333 439.5,315.5L439.5,326.5C439.338,332.555 439.838,338.555 441,344.5C446.695,339.634 452.195,334.634 457.5,329.5ZM331.5,451.5C331.577,452.75 332.244,453.583 333.5,454C354.58,461.449 375.913,462.282 397.5,456.5C396.388,454.581 395.054,452.914 393.5,451.5C392.974,449.77 391.974,448.436 390.5,447.5C386.729,442.278 382.729,437.278 378.5,432.5L378.5,431.5C374.092,426.425 369.425,421.758 364.5,417.5C358.024,422.908 351.024,427.575 343.5,431.5C339.48,432.676 335.646,434.342 332,436.5C331.501,441.489 331.334,446.489 331.5,451.5ZM309.5,658.5C296.228,662.896 284.728,670.229 275,680.5C267.356,689.457 262.689,699.79 261,711.5C260.036,739.404 271.536,760.57 295.5,775C312.562,784.86 330.229,786.026 348.5,778.5C339.396,769.294 332.563,758.627 328,746.5C320.936,713.602 332.77,690.769 363.5,678C357.345,673.089 351.011,668.423 344.5,664C333.31,659.156 321.643,657.322 309.5,658.5ZM748.5,707.5C748.262,717.188 745.928,726.355 741.5,735C745.225,735.003 748.391,733.503 751,730.5C756.196,722.059 755.363,714.393 748.5,707.5Z"/>
    </g>
</svg>
