<?xml version="1.0" encoding="UTF-8" standalone="no"?>
<!DOCTYPE svg PUBLIC "-//W3C//DTD SVG 1.1//EN" "http://www.w3.org/Graphics/SVG/1.1/DTD/svg11.dtd">
<svg width="100%" height="100%" viewBox="0 0 1024 1024" version="1.1" xmlns="http://www.w3.org/2000/svg" xmlns:xlink="http://www.w3.org/1999/xlink" xml:space="preserve" xmlns:serif="http://www.serif.com/" style="fill-rule:evenodd;clip-rule:evenodd;stroke-linejoin:round;stroke-miterlimit:2;">
    <g transform="matrix(1.7037,0,0,1.7037,-387.417,-392.702)">
        <path d="M317.5,230.5C387.522,233.759 447.022,260.092 496,309.5C502.333,317.167 508.667,324.833 515,332.5C520.397,340.388 525.564,348.388 530.5,356.5C565.106,296.764 615.772,257.264 682.5,238C693.757,235.282 705.091,232.949 716.5,231C722.833,230.333 729.167,230.333 735.5,231C740.558,234.827 741.725,239.66 739,245.5C737.457,247.378 735.624,248.878 733.5,250C664.269,256.522 608.102,286.689 565,340.5C560.439,346.732 556.272,353.232 552.5,360C582.183,370.182 602.517,390.016 613.5,419.5C639.595,409.302 666.261,400.802 693.5,394C697.491,391.011 700.324,387.178 702,382.5C706.294,378.399 710.294,378.732 714,383.5C717.581,394.758 714.414,403.591 704.5,410C675.571,419.817 646.571,429.484 617.5,439C618.305,443.749 618.805,448.582 619,453.5C628.146,457.979 634.48,464.979 638,474.5C646.864,465.97 655.364,457.137 663.5,448C666.988,444.692 670.155,444.859 673,448.5C675.39,455.619 679.057,461.953 684,467.5C694.046,478.043 703.879,488.709 713.5,499.5C734.807,488.775 756.14,477.942 777.5,467C780.669,466.022 783.503,466.522 786,468.5C786.94,477.126 784.106,484.293 777.5,490L723.5,517C717.811,519.923 711.811,520.923 705.5,520C703.833,519 702.167,518 700.5,517C688.729,503.559 676.563,490.392 664,477.5C657.698,484.803 651.032,491.803 644,498.5C643.5,526.165 643.333,553.831 643.5,581.5C656.153,578.337 668.819,575.17 681.5,572C688.478,571.07 693.978,573.57 698,579.5C707.594,592.93 717.761,605.93 728.5,618.5C749.317,623.038 769.984,628.204 790.5,634C795.364,639.263 795.697,644.763 791.5,650.5C789.225,651.107 786.891,651.441 784.5,651.5C762.448,646.987 740.448,642.154 718.5,637C717.069,636.535 715.903,635.701 715,634.5C704.063,620.278 692.896,606.278 681.5,592.5C671.366,595.785 661.032,598.619 650.5,601C647.854,601.497 645.187,601.664 642.5,601.5C642.666,607.509 642.499,613.509 642,619.5C639.834,634.821 638.167,650.155 637,665.5C647.892,678.054 658.392,690.887 668.5,704C663.555,723.616 658.221,743.116 652.5,762.5C667.101,781.271 682.267,799.604 698,817.5C701.087,826.315 697.92,830.981 688.5,831.5C684.331,831.849 681.164,830.182 679,826.5C663.667,807.833 648.333,789.167 633,770.5C632.333,766.833 632.333,763.167 633,759.5C637.094,742.292 641.261,725.125 645.5,708C645.138,706.775 644.638,705.609 644,704.5C639.965,700.8 636.298,696.8 633,692.5C627.225,721.383 614.559,746.716 595,768.5C558.489,802.879 519.323,806.379 477.5,779C461.095,764.914 448.929,747.747 441,727.5C437.16,715.63 433.827,703.63 431,691.5C426.323,697.343 421.157,702.676 415.5,707.5C415.167,708.5 414.833,709.5 414.5,710.5C419.491,729.949 422.991,749.616 425,769.5C407.24,790.597 388.74,811.097 369.5,831C355.187,832.882 351.354,827.382 358,814.5C372.653,797.181 387.987,780.514 404,764.5C400.929,744.414 397.095,724.414 392.5,704.5C393.43,702.394 394.596,700.394 396,698.5C406.863,687.971 417.363,677.137 427.5,666C423.487,645.055 421.153,623.889 420.5,602.5C405.445,599.991 390.445,597.491 375.5,595C363.863,609.604 351.529,623.604 338.5,637C315.24,641.773 292.073,646.94 269,652.5C263.855,651.23 261.355,647.897 261.5,642.5C260.963,637.072 263.296,633.572 268.5,632C288.436,627.18 308.436,622.68 328.5,618.5C338.521,606.98 348.355,595.313 358,583.5C361.534,579.631 365.367,576.131 369.5,573C373.167,572.333 376.833,572.333 380.5,573C393.743,576.082 407.076,578.582 420.5,580.5C419.769,555.51 419.269,530.51 419,505.5L394,480.5C382.732,493.19 370.899,505.357 358.5,517C352.488,520.71 346.155,521.376 339.5,519C322.264,509.549 304.597,500.882 286.5,493C277.386,487.272 273.22,479.105 274,468.5C275.808,466.604 277.975,466.104 280.5,467C302.589,478.378 324.922,489.211 347.5,499.5C359.676,485.825 372.342,472.658 385.5,460C387.5,458.667 389.5,457.333 391.5,456C393.913,455.516 396.246,455.85 398.5,457C402.422,460.251 405.588,464.084 408,468.5C412.386,473.389 417.22,477.722 422.5,481.5C423.998,476.845 425.498,472.178 427,467.5C431.504,460.009 438.004,455.676 446.5,454.5L446.5,439.5C421.887,432.241 397.221,425.075 372.5,418C365.618,415.893 358.951,413.226 352.5,410C343.664,402.484 341.164,393.317 345,382.5C349.996,379.526 354.496,380.193 358.5,384.5C359.764,387.125 360.931,389.792 362,392.5C362.903,393.701 364.069,394.535 365.5,395C393.974,402.702 422.307,410.868 450.5,419.5C461.051,390.782 480.718,371.282 509.5,361C473.438,304.252 422.104,269.252 355.5,256C343.869,254.088 332.203,252.421 320.5,251C314.177,248.189 311.677,243.355 313,236.5C313.804,233.854 315.304,231.854 317.5,230.5ZM525.5,378.5C516.848,380.479 508.515,383.645 500.5,388C478.103,403.987 467.436,425.821 468.5,453.5L596.5,453.5C595.935,448.851 595.435,444.184 595,439.5C588.095,400.418 564.929,380.085 525.5,378.5ZM457.5,473.5C447.341,478.109 441.841,486.109 441,497.5C440.333,535.167 440.333,572.833 441,610.5C442.538,637.468 446.204,664.134 452,690.5C456.765,712.825 465.765,733.159 479,751.5C500.171,775.168 525.671,781.668 555.5,771C575.652,760.233 590.485,744.399 600,723.5C613.46,687.085 620.793,649.419 622,610.5C622.667,574.167 622.667,537.833 622,501.5C621.158,497.131 620.158,492.797 619,488.5C617.275,480.277 612.441,475.277 604.5,473.5C604.667,498.836 604.5,524.169 604,549.5C603.215,551.286 602.049,552.786 600.5,554C591.624,558.018 585.791,555.518 583,546.5C582.177,522.457 582.344,498.457 583.5,474.5C541.505,473.5 499.505,473.167 457.5,473.5ZM525.5,488.5C528.91,488.457 532.243,488.957 535.5,490C537.049,491.214 538.215,492.714 539,494.5C539.667,564.833 539.667,635.167 539,705.5C534.4,710.518 528.9,711.685 522.5,709C520.513,707.681 519.346,705.848 519,703.5C518.333,633.833 518.333,564.167 519,494.5C520.113,491.219 522.28,489.219 525.5,488.5Z"/>
    </g>
</svg>
