<?xml version="1.0" encoding="UTF-8" standalone="no"?>
<!DOCTYPE svg PUBLIC "-//W3C//DTD SVG 1.1//EN" "http://www.w3.org/Graphics/SVG/1.1/DTD/svg11.dtd">
<svg xmlns:serif="http://www.serif.com/" xmlns:xlink="http://www.w3.org/1999/xlink" style="fill-rule:evenodd;clip-rule:evenodd;stroke-linejoin:round;stroke-miterlimit:2;" height="100%" version="1.1" viewBox="0 0 1024 1024" width="100%" xmlns="http://www.w3.org/2000/svg" xml:space="preserve">
    <g transform="matrix(1.32623,0,0,1.32623,-168.947,-144.567)">
        <path d="M286.5,500.5C282.835,493.828 279.668,486.828 277,479.5C271.876,461.675 267.71,443.675 264.5,425.5C231.454,423.623 201.121,413.79 173.5,396C158.007,384.183 145.84,369.683 137,352.5C129.903,336.091 126.737,318.924 127.5,301C127.555,291.568 128.221,282.234 129.5,273C139.002,272.617 148.502,272.784 158,273.5C174.797,271.79 191.63,271.29 208.5,272C229.903,275.537 248.903,284.204 265.5,298C271.364,304.199 277.531,310.032 284,315.5C301.143,294.681 322.643,280.515 348.5,273C354.112,271.974 359.779,271.474 365.5,271.5C389.857,273.295 414.19,273.962 438.5,273.5C450.209,348.289 419.876,396.122 347.5,417C336.957,419.369 326.29,420.535 315.5,420.5C326.952,451.795 347.286,475.628 376.5,492C390.497,498.432 405.164,502.266 420.5,503.5C441.373,501.562 459.373,493.395 474.5,479C480,472.833 485.5,466.667 491,460.5C504.57,440.371 517.903,420.038 531,399.5C576.073,342.207 635.239,311.04 708.5,306C746.195,302.447 781.861,309.114 815.5,326C861.387,353.559 887.887,394.059 895,447.5C895.604,454.68 895.437,461.846 894.5,469C896.992,485.417 898.658,501.917 899.5,518.5C899.094,533.558 898.094,548.558 896.5,563.5C896.768,565.099 896.434,566.432 895.5,567.5C893.254,589.992 886.421,610.992 875,630.5C839.565,687.991 787.731,716.991 719.5,717.5C695.006,718.498 670.339,718.831 645.5,718.5C638.836,717.85 636.002,714.184 637,707.5C637.833,705.333 639.333,703.833 641.5,703C668.5,702.667 695.5,702.333 722.5,702C731.174,701.166 739.84,700.332 748.5,699.5C793.816,692.181 829.483,669.681 855.5,632C848.842,631.5 842.175,631.334 835.5,631.5C831.486,631.334 827.486,631.501 823.5,632C811.608,650.625 795.608,664.625 775.5,674C757.682,682.121 739.016,687.121 719.5,689C691.169,689.5 662.835,689.667 634.5,689.5C625.106,688.328 623.106,683.828 628.5,676C629.448,675.517 630.448,675.351 631.5,675.5C656.33,674.668 681.33,674.168 706.5,674C737.835,673.424 766.168,664.091 791.5,646C795.737,641.52 799.737,636.853 803.5,632C792.5,631.333 781.5,631.333 770.5,632C739.218,658.204 703.052,670.037 662,667.5C653.735,667.637 645.568,667.137 637.5,666C633.074,660.559 633.741,655.892 639.5,652C655.5,651.667 671.5,651.333 687.5,651C701.194,649.497 714.527,646.497 727.5,642C733.168,639.821 738.168,636.654 742.5,632.5C709.167,631.167 675.833,631.167 642.5,632.5C617.164,665.343 585.164,689.176 546.5,704C522.712,710.027 500.379,706.693 479.5,694C477.266,692.362 475.933,690.195 475.5,687.5C475.253,684.495 476.253,681.995 478.5,680C483.916,677.861 489.249,675.528 494.5,673C505.926,664.245 516.759,654.745 527,644.5C533.543,636.75 538.543,628.083 542,618.5C543.419,617.54 544.919,616.707 546.5,616C555.236,615.068 558.736,618.902 557,627.5C548.165,644.014 536.665,658.514 522.5,671C515.443,677.527 507.443,682.527 498.5,686C507.429,689.024 516.595,690.857 526,691.5C537.671,690.166 548.837,686.999 559.5,682C588.22,666.952 612.387,646.452 632,620.5C633.777,618.21 635.944,616.543 638.5,615.5C715.002,615.833 791.335,615.499 867.5,614.5C868.448,609.156 870.281,604.156 873,599.5C882.456,563.746 885.622,527.413 882.5,490.5C863.659,490.83 844.993,490.497 826.5,489.5C815.828,489.667 805.161,489.5 794.5,489C787.926,487.629 782.093,484.796 777,480.5C770.568,471.269 772.735,467.102 783.5,468C785.047,470.787 787.047,473.12 789.5,475C819.832,475.5 850.165,475.667 880.5,475.5C881.858,407.986 852.191,360.153 791.5,332C742.192,317.214 693.192,318.214 644.5,335C618.308,343.416 595.308,356.916 575.5,375.5C564.524,384.31 554.691,394.31 546,405.5C532.17,425.156 518.837,445.156 506,465.5C501.622,470.373 497.455,475.373 493.5,480.5C490.065,484.438 486.398,488.271 482.5,492C452.561,519.52 418.561,525.853 380.5,511C357.495,500.005 337.995,484.505 322,464.5C310.332,449.518 302.499,432.685 298.5,414C298.439,411.739 299.106,409.739 300.5,408C322.492,406.89 343.825,402.557 364.5,395C410.519,374.809 430.519,339.642 424.5,289.5C414.494,289.666 404.494,289.5 394.5,289C370.609,283.321 347.943,286.321 326.5,298C312.923,307.242 300.923,318.242 290.5,331C285.833,331.667 281.167,331.667 276.5,331C263.817,315.311 248.484,302.978 230.5,294C209.997,286.489 188.997,284.656 167.5,288.5C159.684,289.492 151.684,289.826 143.5,289.5L143.5,316.5C147.27,348.426 162.937,372.593 190.5,389C217.581,402.604 246.247,409.271 276.5,409C278.01,410.351 279.01,412.018 279.5,414C278.795,421.249 279.462,428.416 281.5,435.5C297.851,521.014 347.184,577.848 429.5,606C459.866,614.561 490.866,618.227 522.5,617C527.251,619.792 529.085,623.959 528,629.5C526.352,630.717 524.519,631.55 522.5,632C462.411,636.481 407.744,621.648 358.5,587.5C326.408,565.085 302.408,536.085 286.5,500.5ZM612.5,436.5C632.44,435.044 645.607,443.711 652,462.5C651.023,489.138 637.19,501.305 610.5,499C593.541,492.337 586.041,479.837 588,461.5C591.704,448.63 599.871,440.297 612.5,436.5ZM615.5,451.5C612.155,452.605 609.322,454.605 607,457.5C602.352,466.836 604.185,474.67 612.5,481C621.684,485.664 628.851,483.497 634,474.5C637.845,458.876 631.678,451.209 615.5,451.5ZM505.5,660.5C504.942,661.79 503.942,662.623 502.5,663C480.836,663.5 459.169,663.667 437.5,663.5C431.474,661.792 429.307,657.792 431,651.5C431.903,650.299 433.069,649.465 434.5,649C440.491,648.501 446.491,648.334 452.5,648.5C466.99,649.496 481.657,649.829 496.5,649.5C502.769,647.717 506.769,650.05 508.5,656.5C507.479,657.901 506.479,659.235 505.5,660.5ZM591.5,701.5C603.505,701.333 615.505,701.5 627.5,702C633.858,704.592 635.025,708.758 631,714.5C629.352,715.717 627.519,716.55 625.5,717C615.167,717.667 604.833,717.667 594.5,717C586.341,713.215 585.341,708.048 591.5,701.5Z"/>
    </g>
</svg>
