<?xml version="1.0" encoding="UTF-8" standalone="no"?>
<!DOCTYPE svg PUBLIC "-//W3C//DTD SVG 1.1//EN" "http://www.w3.org/Graphics/SVG/1.1/DTD/svg11.dtd">
<svg width="100%" height="100%" viewBox="0 0 1024 1024" version="1.1" xmlns="http://www.w3.org/2000/svg" xmlns:xlink="http://www.w3.org/1999/xlink" xml:space="preserve" xmlns:serif="http://www.serif.com/" style="fill-rule:evenodd;clip-rule:evenodd;stroke-linejoin:round;stroke-miterlimit:2;">
    <g transform="matrix(1.70394,0,0,1.70394,-467.703,-312.707)">
        <path d="M275.5,535.5C274.34,522.34 274.173,509.006 275,495.5C276.917,485.579 280.084,476.246 284.5,467.5L284.5,466.5C285.263,464.632 286.263,462.965 287.5,461.5C293.797,450.36 301.464,440.194 310.5,431C317.167,425.667 323.833,420.333 330.5,415C338.53,410.46 346.863,406.627 355.5,403.5C360.306,402.281 364.972,400.947 369.5,399.5C379.445,398.087 389.445,397.42 399.5,397.5C405.025,397.938 410.359,397.938 415.5,397.5C414.834,387.672 414.5,377.672 414.5,367.5C414.355,356.74 414.855,346.073 416,335.5L419.5,332C427.283,329.912 432.783,332.412 436,339.5C436.333,345.167 436.667,350.833 437,356.5C439.4,354.585 441.9,352.919 444.5,351.5C448.269,348.066 451.269,344.066 453.5,339.5C460.24,320.883 457.907,303.55 446.5,287.5C440.574,281.196 433.574,276.363 425.5,273C421.054,269.654 419.388,265.488 420.5,260.5C422.766,255.204 426.766,253.37 432.5,255C450.613,264.113 464.447,277.613 474,295.5C476.252,300.591 477.418,305.925 477.5,311.5C481.588,338.324 471.588,357.991 447.5,370.5C444.133,373.506 440.133,374.84 435.5,374.5L435.5,401.5C437.099,401.232 438.432,401.566 439.5,402.5C471.168,408.996 498.501,423.33 521.5,445.5C525.12,447.453 528.12,450.119 530.5,453.5C537.668,459.832 545.001,465.998 552.5,472C567.779,480.568 584.112,483.568 601.5,481C610.288,478.738 618.954,476.071 627.5,473C636.412,470.298 643.912,465.464 650,458.5C652.174,454.454 653.007,450.121 652.5,445.5C649.915,436.998 646.249,428.998 641.5,421.5C637.308,409.036 634.974,396.202 634.5,383C633.909,373.766 635.909,365.266 640.5,357.5C643.968,349.697 648.968,343.03 655.5,337.5C655.973,336.094 656.973,335.427 658.5,335.5C662.526,331.148 667.526,328.315 673.5,327C692.635,324.435 709.635,329.269 724.5,341.5C741.427,353.094 754.427,368.094 763.5,386.5C777.21,382.674 791.21,381.507 805.5,383C813.596,384.103 821.263,386.27 828.5,389.5C832.867,390.517 836.867,392.35 840.5,395C854.972,404.802 865.805,417.635 873,433.5C876.261,442.159 876.261,450.826 873,459.5C863.179,479.817 848.679,495.817 829.5,507.5L827.5,507.5C825.65,509.572 823.317,510.905 820.5,511.5C802.615,519.403 783.949,522.07 764.5,519.5C763.287,519.747 762.62,520.414 762.5,521.5C762.5,522.167 762.167,522.5 761.5,522.5C758.56,531.654 755.227,540.654 751.5,549.5C736.323,586.535 714.656,619.201 686.5,647.5C676.997,655.499 667.331,663.333 657.5,671C655.423,672.705 653.09,673.872 650.5,674.5C647.246,677.471 643.58,679.971 639.5,682C613.95,694.572 587.283,703.406 559.5,708.5C538.93,711.37 518.263,713.037 497.5,713.5C480.6,713.97 463.934,712.304 447.5,708.5C437.713,706.303 428.047,703.636 418.5,700.5C415.843,700.065 413.509,699.065 411.5,697.5C402.556,695.297 393.89,692.297 385.5,688.5C350.892,671.892 323.559,647.225 303.5,614.5C301.147,612.14 299.147,609.473 297.5,606.5C284.136,584.74 276.803,561.073 275.5,535.5ZM300.5,479.5C297.534,489.365 295.2,499.365 293.5,509.5C297.763,512.308 302.097,515.141 306.5,518C309.088,520.416 311.422,522.916 313.5,525.5C314.167,525.833 314.833,526.167 315.5,526.5C341.022,547.75 366.689,568.75 392.5,589.5C399.885,594.039 406.885,599.205 413.5,605C418.763,605.085 423.263,606.918 427,610.5C430.415,623.245 434.915,635.579 440.5,647.5C444.258,655.351 448.258,663.018 452.5,670.5C458.512,678.001 464.179,685.834 469.5,694C498.714,695.836 527.714,694.17 556.5,689C578.458,685.764 599.458,679.598 619.5,670.5C620.833,669.833 622.167,669.167 623.5,668.5C629.975,665.284 636.309,661.784 642.5,658C665.656,641.01 685.99,621.176 703.5,598.5C721.891,570.04 735.724,539.373 745,506.5C745.377,505.058 746.21,504.058 747.5,503.5C749.44,500.448 752.273,499.115 756,499.5C772.371,503.858 788.538,503.191 804.5,497.5C821.087,492.287 834.92,482.953 846,469.5C854.196,458.522 856.196,446.522 852,433.5C841.895,418.213 828.062,408.213 810.5,403.5C800.617,401.505 790.617,401.005 780.5,402C775.232,402.867 770.232,404.534 765.5,407C754.238,408.578 747.572,403.745 745.5,392.5C742.597,388.37 739.93,384.037 737.5,379.5C725.444,362.121 709.111,350.621 688.5,345C680.863,343.768 674.196,345.768 668.5,351C656.162,363.017 651.662,377.517 655,394.5C656.66,400.806 658.16,407.14 659.5,413.5C659.995,415.482 660.495,417.482 661,419.5C664.841,425.178 668.174,431.178 671,437.5C675.325,454.525 670.492,468.358 656.5,479C629.008,497.232 599.008,503.565 566.5,498C558.188,496.299 550.855,492.799 544.5,487.5C530.56,478.744 517.893,468.244 506.5,456C489.191,441.01 469.524,430.176 447.5,423.5C424.561,417.14 401.228,415.14 377.5,417.5C373.569,418.311 369.569,419.311 365.5,420.5C356.026,422.906 347.359,426.906 339.5,432.5C334.51,435.333 329.844,438.666 325.5,442.5C313.902,452.717 305.568,465.051 300.5,479.5ZM312.5,547.5C306.197,542.532 300.197,537.198 294.5,531.5C293.893,531.624 293.56,531.957 293.5,532.5C294.838,549.2 298.838,565.2 305.5,580.5C318.93,609.254 337.93,633.587 362.5,653.5C368.665,657.75 374.998,661.75 381.5,665.5C382.721,666.028 383.887,666.695 385,667.5C385.667,666.833 385.667,666.167 385,665.5C377.489,657.503 370.989,648.837 365.5,639.5C358.582,628 352.415,616 347,603.5C343.379,595.899 341.213,587.899 340.5,579.5C339.681,576.695 339.181,573.695 339,570.5C338.31,568.65 337.144,567.316 335.5,566.5C326.935,561.269 319.268,554.936 312.5,547.5ZM409.5,622.5C402.89,619.192 396.556,615.358 390.5,611C382.091,604.047 373.591,597.213 365,590.5C374.478,623.623 391.312,652.456 415.5,677C420.467,680.317 425.801,682.817 431.5,684.5C435.381,686.023 439.214,687.69 443,689.5C434.32,676.509 426.32,662.843 419,648.5C415.704,640.448 413.537,632.115 412.5,623.5C411.209,623.737 410.209,623.404 409.5,622.5ZM431.5,551.5C425.616,550.119 421.783,546.453 420,540.5C417.927,534.645 418.093,528.978 420.5,523.5C423.601,515.429 429.601,511.096 438.5,510.5C454.59,512.34 461.923,521.34 460.5,537.5C459.463,538.93 458.796,540.597 458.5,542.5C451.699,552.545 442.699,555.545 431.5,551.5Z"/>
    </g>
</svg>
