<?xml version="1.0" encoding="UTF-8" standalone="no"?>
<!DOCTYPE svg PUBLIC "-//W3C//DTD SVG 1.1//EN" "http://www.w3.org/Graphics/SVG/1.1/DTD/svg11.dtd">
<svg width="100%" height="100%" viewBox="0 0 1024 1024" version="1.1" xmlns="http://www.w3.org/2000/svg" xmlns:xlink="http://www.w3.org/1999/xlink" xml:space="preserve" xmlns:serif="http://www.serif.com/" style="fill-rule:evenodd;clip-rule:evenodd;stroke-linejoin:round;stroke-miterlimit:2;">
    <g transform="matrix(1.38255,0,0,1.38255,-197.74,-237.021)">
        <path d="M442.5,171.5C487.835,171.333 533.168,171.5 578.5,172C638.281,173.239 689.281,194.739 731.5,236.5C767.303,217.285 802.97,197.785 838.5,178C852.003,172.748 859.67,177.248 861.5,191.5C852.964,233.272 843.297,274.772 832.5,316C841.633,339.144 849.799,362.644 857,386.5C863.649,410.394 867.482,434.727 868.5,459.5C868.332,468.851 867.832,478.184 867,487.5C863.654,500.864 860.32,514.198 857,527.5C854.536,579.07 849.536,630.403 842,681.5C836.63,714.954 824.963,745.954 807,774.5C789.988,796.851 768.821,814.017 743.5,826C729.695,829.198 723.861,823.698 726,809.5C727.167,807.667 728.667,806.167 730.5,805C769.29,790.209 795.123,763.042 808,723.5C817.879,692.561 824.213,660.895 827,628.5C828.699,610.49 830.032,592.49 831,574.5C802.58,611.48 765.413,634.98 719.5,645C659.389,657.515 608.223,641.682 566,597.5C563.577,594.751 561.577,591.751 560,588.5C549.577,609.502 536.077,628.336 519.5,645C511.725,649.23 505.225,647.73 500,640.5C495,634.167 490,627.833 485,621.5C478.082,610.666 471.415,599.666 465,588.5C440.3,622.782 406.8,642.615 364.5,648C307.92,653.036 258.586,636.703 216.5,599C208.25,590.754 200.75,581.921 194,572.5C194.532,609.073 197.865,645.407 204,681.5C209.102,709.15 219.102,734.817 234,758.5C241.463,768.297 249.963,777.13 259.5,785C270.237,792.064 281.237,798.731 292.5,805C297.952,811.215 297.619,817.215 291.5,823C288.634,824.457 285.634,824.79 282.5,824C245.191,807.359 217.691,780.526 200,743.5C185.352,706.238 177.019,667.571 175,627.5C172.238,590.833 169.571,554.166 167,517.5C159.383,494.774 156.716,471.441 159,447.5C161.902,421.326 167.235,395.659 175,370.5C180.894,352.384 187.061,334.384 193.5,316.5C184.489,278.123 175.322,239.789 166,201.5C163.702,194.64 164.035,187.973 167,181.5C171.916,176.28 177.75,175.113 184.5,178C220.376,198.437 256.376,218.603 292.5,238.5C305.974,228.253 319.307,217.753 332.5,207C366.139,185.594 402.806,173.761 442.5,171.5ZM834.5,205.5C833.71,206.794 832.71,207.961 831.5,209C792.932,229.899 754.598,251.233 716.5,273C710.463,276.123 704.13,278.457 697.5,280C662.833,280.333 628.167,280.667 593.5,281C565.333,299.833 541.833,323.333 523,351.5C517.843,358.026 511.843,359.026 505,354.5C485.779,324.612 461.279,300.112 431.5,281C394.8,280.961 358.133,280.295 321.5,279C315.333,276.722 309.333,274.055 303.5,271C265.684,249.346 227.851,227.846 190,206.5C198.701,244.79 207.534,283.124 216.5,321.5C216.333,323.5 216.167,325.5 216,327.5C201.012,360.112 190.345,394.112 184,429.5C172.515,494.466 191.682,548.3 241.5,591C280.847,620.663 324.847,631.329 373.5,623C408.508,615.779 435.008,596.945 453,566.5C452.465,560.219 452.465,553.885 453,547.5C454.119,543.929 455.785,540.596 458,537.5C475.5,524 491,508.5 504.5,491C501.198,488.683 499.031,485.517 498,481.5C493.511,461.697 486.844,442.697 478,424.5C458.606,389.536 429.772,366.036 391.5,354C343.077,341.371 301.91,353.205 268,389.5C239.315,426.262 231.982,466.928 246,511.5C253.462,531.774 264.462,549.774 279,565.5C278.093,577.876 271.927,581.376 260.5,576C248.405,564.305 238.905,550.805 232,535.5C205.5,475.248 213.167,419.914 255,369.5C292.177,332.184 336.677,319.018 388.5,330C454.574,348.74 496.407,391.24 514,457.5C524.428,418.773 544.928,386.607 575.5,361C625.094,322.135 678.427,316.135 735.5,343C779.55,369.208 804.384,408.041 810,459.5C812.815,504.402 798.648,542.902 767.5,575C763.36,578.242 758.694,579.242 753.5,578C746.357,574.564 744.857,569.397 749,562.5L760,551.5C786.116,516.919 793.783,478.585 783,436.5C761.409,375.093 717.909,346.26 652.5,350C611.062,358.78 578.896,380.947 556,416.5C544.773,436.368 536.106,457.368 530,479.5C528.204,484.96 524.704,488.793 519.5,491C534.613,507.446 550.446,523.279 567,538.5C568.935,541.371 570.601,544.371 572,547.5C572.424,553.862 572.424,560.195 572,566.5C575.276,572.108 578.943,577.442 583,582.5C599.523,601.016 619.689,613.849 643.5,621C698.023,632.452 747.023,620.786 790.5,586C836.254,541.069 853.754,486.902 843,423.5C835.992,389.459 824.992,356.792 810,325.5C809.833,323.833 809.667,322.167 809.5,320.5C817.447,282.616 826.113,244.782 835.5,207C835.43,206.235 835.097,205.735 834.5,205.5ZM652.5,383.5C687.405,382.265 714.905,395.598 735,423.5C754.312,458.262 752.645,491.929 730,524.5C693.963,562.34 654.463,566.507 611.5,537C583.632,513.402 573.132,483.569 580,447.5C590.993,410.995 615.159,389.662 652.5,383.5ZM651.5,406.5C637.082,409.463 624.915,416.463 615,427.5C594.831,454.194 594.497,481.194 614,508.5C638.9,535.01 667.4,539.51 699.5,522C723.546,502.316 731.046,477.482 722,447.5C707.921,418.032 684.421,404.365 651.5,406.5ZM655.5,427.5C678.907,425.784 694.074,436.117 701,458.5C703.603,476.774 697.77,491.608 683.5,503C662.551,514.595 644.718,511.095 630,492.5C617.553,470.947 620.387,451.781 638.5,435C643.782,431.353 649.448,428.853 655.5,427.5ZM657.5,449.5C652.992,451.493 649.158,454.493 646,458.5C641.202,469.435 643.702,478.268 653.5,485C664.849,488.739 673.015,485.239 678,474.5C680.474,458.478 673.64,450.144 657.5,449.5ZM351.5,383.5C388.865,381.203 417.698,395.536 438,426.5C457.434,467.402 450.934,503.569 418.5,535C376.802,565.842 337.302,563.342 300,527.5C271.119,490.957 270.119,453.624 297,415.5C311.428,398.212 329.595,387.545 351.5,383.5ZM351.5,406.5C343.945,408.969 336.612,412.136 329.5,416C308.165,431.838 298.665,453.005 301,479.5C307.188,508.354 324.688,525.854 353.5,532C382.34,534.83 404.173,523.996 419,499.5C433.147,466.928 426.647,439.428 399.5,417C384.618,408.463 368.618,404.963 351.5,406.5ZM357.5,427.5C377.53,426.435 392.03,434.768 401,452.5C407.52,472.919 402.353,489.753 385.5,503C365.393,514.176 347.56,511.343 332,494.5C316.765,471.279 319.932,451.113 341.5,434C346.624,430.925 351.957,428.759 357.5,427.5ZM358.5,449.5C355.235,451.584 352.068,453.917 349,456.5C343.555,466.221 344.722,475.054 352.5,483C363.726,489.068 372.893,486.901 380,476.5C384.144,458.478 376.977,449.478 358.5,449.5ZM511.5,517.5C501.977,530.855 490.311,542.022 476.5,551C475.196,551.804 474.529,552.971 474.5,554.5C483.436,578.74 496.102,600.74 512.5,620.5C521.399,609.706 529.565,598.373 537,586.5C542.107,575.952 546.941,565.286 551.5,554.5C538.12,542.117 524.787,529.783 511.5,517.5ZM436.5,194.5C390.055,198.973 350.055,217.306 316.5,249.5C321.17,253.334 326.503,255.834 332.5,257C368.167,257.333 403.833,257.667 439.5,258C468.272,276.775 492.772,299.942 513,327.5C516.754,321.658 520.754,315.991 525,310.5C542.276,291.224 561.443,274.058 582.5,259C618.773,257.686 655.107,257.019 691.5,257C698.855,256.162 705.522,253.662 711.5,249.5C707.315,244.482 702.649,239.982 697.5,236C662.68,209.95 623.346,196.284 579.5,195C531.834,194.5 484.168,194.333 436.5,194.5ZM286.5,665.5C292.898,664.053 297.731,666.053 301,671.5C301.276,687.646 302.942,703.646 306,719.5C310.187,739.579 314.687,759.579 319.5,779.5C319.22,789.278 314.22,793.444 304.5,792C301.824,790.16 299.991,787.66 299,784.5C296.136,772.045 292.803,759.712 289,747.5C287.036,735.751 284.703,724.085 282,712.5C280.007,699.226 279.34,685.893 280,672.5C281.694,669.642 283.861,667.309 286.5,665.5ZM726.5,665.5C733.948,663.64 739.448,665.973 743,672.5C742.111,712.832 734.445,751.832 720,789.5C712.701,794.281 706.701,792.948 702,785.5C701.833,784.167 701.667,782.833 701.5,781.5C706.004,763.485 710.504,745.485 715,727.5C718.126,709.618 720.126,691.618 721,673.5C722.273,670.403 724.107,667.736 726.5,665.5ZM402.5,816.5C434.281,816.95 451.614,832.95 454.5,864.5C453.359,885.448 443.359,900.281 424.5,909C402.352,916.009 384.852,909.842 372,890.5C359.46,910.349 341.96,916.515 319.5,909C292.534,892.147 285.367,868.98 298,839.5C313.57,817.537 333.737,812.037 358.5,823C361.167,825 363.833,827 366.5,829C369.135,830.961 370.969,833.461 372,836.5C379.262,825.449 389.429,818.783 402.5,816.5ZM402.5,840.5C396.681,843.18 391.848,847.18 388,852.5C383.084,865.335 385.917,876.168 396.5,885C412.775,892.686 424.275,888.186 431,871.5C433.145,850.478 423.645,840.145 402.5,840.5ZM332.5,839.5C323.92,842.73 318.087,848.73 315,857.5C312.073,875.056 319.24,885.723 336.5,889.5C351.321,886.846 359.321,878.012 360.5,863C357.495,847.841 348.162,840.008 332.5,839.5ZM684.5,816.5C715.224,817.891 731.89,833.891 734.5,864.5C731.742,895.762 714.742,911.595 683.5,912C670.574,909.466 660.741,902.633 654,891.5C638.521,911.557 619.355,916.391 596.5,906C573.018,888.262 567.518,866.096 580,839.5C596.148,816.338 616.648,811.505 641.5,825C646.713,828.546 650.88,833.046 654,838.5C660.423,825.881 670.589,818.547 684.5,816.5ZM613.5,840.5C596.819,848.376 592.319,860.71 600,877.5C608.469,889.455 618.969,891.622 631.5,884C639.182,876.784 642.016,867.951 640,857.5C635.258,845.612 626.425,839.945 613.5,840.5ZM683.5,840.5C677.231,843.935 672.064,848.602 668,854.5C663.801,866.699 666.634,876.866 676.5,885C692.775,892.686 704.275,888.186 711,871.5C713.441,851.099 704.274,840.765 683.5,840.5Z"/>
    </g>
</svg>
