<?xml version="1.0" encoding="UTF-8" standalone="no"?>
<!DOCTYPE svg PUBLIC "-//W3C//DTD SVG 1.1//EN" "http://www.w3.org/Graphics/SVG/1.1/DTD/svg11.dtd">
<svg width="100%" height="100%" viewBox="0 0 1024 1024" version="1.1" xmlns="http://www.w3.org/2000/svg" xmlns:xlink="http://www.w3.org/1999/xlink" xml:space="preserve" xmlns:serif="http://www.serif.com/" style="fill-rule:evenodd;clip-rule:evenodd;stroke-linejoin:round;stroke-miterlimit:2;">
    <g transform="matrix(1.10837,0,0,1.10837,-12.8822,-18.3427)">
        <path d="M44.5,510.5C36.069,506.784 28.069,502.284 20.5,497C7.454,483.167 8.787,471 24.5,460.5C28.5,458.167 32.5,455.833 36.5,453.5C60.876,439.645 85.876,426.811 111.5,415C175.333,385.123 242.333,366.29 312.5,358.5C312.517,356.435 312.85,354.435 313.5,352.5C314.323,350.013 315.323,347.679 316.5,345.5C319.128,338.91 322.295,332.577 326,326.5C339.549,307.61 356.715,293.11 377.5,283C380.833,282.333 384.167,282.333 387.5,283C389.552,283.93 391.052,285.43 392,287.5C392.822,309.21 392.655,330.876 391.5,352.5C421.957,351.807 452.29,353.807 482.5,358.5C484.167,358.333 485.833,358.167 487.5,358C516.545,325.638 551.879,302.971 593.5,290C597.167,289.333 600.833,289.333 604.5,290C605.71,291.039 606.71,292.206 607.5,293.5C608.222,293.918 608.722,294.584 609,295.5C609.171,324.739 609.671,353.905 610.5,383C632.156,389.996 653.822,396.996 675.5,404C697.518,412.76 719.351,421.927 741,431.5C750.411,423.526 759.578,415.193 768.5,406.5C802.496,371.001 838.829,338.167 877.5,308C891.005,299.168 905.005,291.168 919.5,284C924.663,281.333 928.996,282.166 932.5,286.5C933.167,286.833 933.833,287.167 934.5,287.5C934.192,323.858 934.526,360.191 935.5,396.5C933.217,399.956 930.717,403.29 928,406.5C900.753,433.078 874.92,460.911 850.5,490C854.043,493.049 857.709,495.882 861.5,498.5C882.943,517.773 902.443,538.773 920,561.5C924.511,568.528 929.011,575.528 933.5,582.5C932.903,582.735 932.57,583.235 932.5,584C933.154,610.64 933.821,637.14 934.5,663.5C936.549,670.039 934.049,673.705 927,674.5C924.044,674.432 921.544,673.432 919.5,671.5C895.918,661.044 874.251,647.544 854.5,631C812.569,594.406 771.236,557.073 730.5,519C729.5,518.333 728.5,518.333 727.5,519C689.423,538.194 649.756,553.361 608.5,564.5L608.5,639.5C607.772,641.735 606.439,643.568 604.5,645C599.589,646.492 594.589,646.826 589.5,646C550.015,638.615 519.348,618.282 497.5,585C464.916,587.636 432.249,589.136 399.5,589.5C397.052,588.527 394.385,588.194 391.5,588.5C391.17,604.675 391.504,620.675 392.5,636.5C392.81,639.713 392.477,642.713 391.5,645.5C390.924,651.568 387.591,654.068 381.5,653C360.625,646.645 343.125,635.145 329,618.5C321.253,609.098 316.086,598.431 313.5,586.5C271.325,583.249 229.658,576.749 188.5,567C138.744,552.365 90.744,533.531 44.5,510.5ZM196.5,436.5C194.78,433.269 192.447,430.436 189.5,428C177.457,424.526 168.79,428.36 163.5,439.5C158.568,447.694 159.901,454.861 167.5,461C179.327,465.836 188.827,463.003 196,452.5C198.967,447.082 199.133,441.749 196.5,436.5ZM587.5,314.5C587.167,313.167 586.833,313.167 586.5,314.5C584.801,314.34 583.134,314.506 581.5,315C556.103,327.053 533.436,343.053 513.5,363C517.062,364.261 520.729,365.094 524.5,365.5C544.855,367.924 564.855,371.924 584.5,377.5L587.5,377.5L587.5,314.5ZM351.5,587.5C345.702,587.338 340.036,587.338 334.5,587.5C340.379,603.213 350.712,615.046 365.5,623C367.359,624.558 368.859,626.391 370,628.5C370.494,626.866 370.66,625.199 370.5,623.5L370.5,588.5C363.978,588.823 357.645,588.49 351.5,587.5ZM760.5,441.5C760.389,442.117 760.056,442.617 759.5,443C767.316,448.818 774.483,455.318 781,462.5C786.852,473.17 785.019,482.336 775.5,490C767.645,495.757 759.645,501.257 751.5,506.5C750.909,507.151 750.243,507.818 749.5,508.5C778.084,533.247 805.917,558.913 833,585.5C832.305,583.256 831.471,580.922 830.5,578.5C823.528,568.888 819.028,558.221 817,546.5C816.333,509.833 816.333,473.167 817,436.5C823.119,406.93 836.119,380.93 856,358.5C866.934,346.561 878.767,335.727 891.5,326C899.093,322.13 903.093,324.464 903.5,333C903.333,334.833 903.167,336.667 903,338.5C885.053,354.099 869.72,371.765 857,391.5C848.704,405.558 842.87,420.558 839.5,436.5C838.513,441.305 838.179,446.305 838.5,451.5C838.824,458.354 838.491,465.021 837.5,471.5C837.328,472.492 837.662,473.158 838.5,473.5C843.6,466.29 848.933,459.29 854.5,452.5C864.839,442.161 874.839,431.494 884.5,420.5C894.413,411.419 903.913,401.752 913,391.5C913.833,364.161 913.667,336.827 912.5,309.5C895.86,319.308 880.193,330.475 865.5,343C830.384,375.859 795.384,408.692 760.5,441.5ZM369.5,354.5C370.824,350.893 371.491,346.893 371.5,342.5C371.499,338.319 371.166,334.319 370.5,330.5C370.824,323.646 370.491,316.979 369.5,310.5C359.094,319.405 349.927,329.405 342,340.5C339.626,343.914 337.793,347.581 336.5,351.5C334.998,353.175 333.665,355.008 332.5,357C344.84,356.567 357.174,355.733 369.5,354.5ZM61.5,461.5C53.855,463.921 54.522,465.088 63.5,465C78.178,465.833 92.845,465.666 107.5,464.5C109.744,461.284 112.41,458.617 115.5,456.5C121.336,457.81 124.67,461.476 125.5,467.5C124.303,475.069 120.303,480.569 113.5,484C90.833,484.333 68.167,484.667 45.5,485C53.528,491.186 62.195,496.352 71.5,500.5C88.022,508.26 104.689,515.76 121.5,523C157.866,538.342 195.533,549.175 234.5,555.5C243.928,557.452 253.595,558.452 263.5,558.5C267.227,554.767 271.227,551.434 275.5,548.5C275.833,547.833 276.167,547.167 276.5,546.5C313.832,515.841 323.999,477.841 307,432.5C298.054,414.887 284.554,402.054 266.5,394C257.647,391.621 248.647,390.955 239.5,392C222.924,395.215 206.591,399.382 190.5,404.5C197.051,406.774 203.384,409.607 209.5,413C215.684,417.203 219.518,423.036 221,430.5C223.608,448.121 217.774,462.288 203.5,473C181.687,487.435 161.854,485.268 144,466.5C139.718,456.606 138.384,446.273 140,435.5C140.928,429.813 143.761,425.313 148.5,422C143.746,422.692 139.079,424.025 134.5,426C116.745,434.546 99.079,443.046 81.5,451.5C74.555,454.306 67.888,457.639 61.5,461.5ZM248.5,418.5C254.798,417.732 259.631,420.065 263,425.5C279.206,452.156 279.539,479.156 264,506.5C247.731,530.308 225.064,542.975 196,544.5C185.799,544.069 177.799,539.736 172,531.5C171.044,527.428 171.544,523.595 173.5,520C181.242,521.388 189.075,522.555 197,523.5C217.135,522.769 233.135,514.435 245,498.5C257.558,477.081 257.558,455.748 245,434.5C244.333,430.833 244.333,427.167 245,423.5C245.697,421.416 246.864,419.749 248.5,418.5ZM529.5,581.5C527.302,582.165 524.969,582.832 522.5,583.5C539.231,604.207 560.564,617.874 586.5,624.5C587.5,606.512 587.833,588.512 587.5,570.5C578.014,572.135 568.68,574.301 559.5,577C549.55,578.921 539.55,580.421 529.5,581.5ZM386.5,372.5C355.255,374.665 323.922,377.499 292.5,381C291.376,381.249 290.376,381.749 289.5,382.5C321.94,406.712 337.773,439.046 337,479.5C334.594,495.052 329.594,509.719 322,523.5C316.737,531.703 311.237,539.703 305.5,547.5C300.697,553.135 295.363,558.302 289.5,563C302.982,565.846 316.648,567.346 330.5,567.5C341.808,568.498 353.142,569.165 364.5,569.5C403.07,570.355 441.403,569.022 479.5,565.5C500.285,565.26 520.952,563.593 541.5,560.5C609.427,547.345 674.093,524.678 735.5,492.5C744.596,486.587 753.596,480.42 762.5,474C766.231,471.823 766.231,469.99 762.5,468.5C731.365,448.934 698.365,433.1 663.5,421C644.151,414.994 624.818,408.994 605.5,403C585.429,397.814 565.429,392.981 545.5,388.5C519.525,384.226 493.525,380.06 467.5,376C453.709,374.468 440.042,373.301 426.5,372.5L386.5,372.5ZM340.5,475.5C339.359,472.36 339.192,469.027 340,465.5C340.5,464.333 341.333,463.5 342.5,463C358.457,461.596 374.457,461.096 390.5,461.5C390.334,451.161 390.5,440.828 391,430.5C396.114,422.839 401.781,422.506 408,429.5C408.5,440.161 408.667,450.828 408.5,461.5L451.5,461.5C451.334,451.494 451.5,441.494 452,431.5C452.346,429.152 453.513,427.319 455.5,426C459.167,425.333 462.833,425.333 466.5,426L469,428.5C470.416,434.715 470.916,441.048 470.5,447.5L470.5,461.5L492.694,461.5C492.955,460.119 493.192,458.73 493.403,457.334C493.276,448.588 493.642,439.977 494.5,431.5C494.872,427.957 496.872,425.79 500.5,425C504.982,423.989 508.816,425.156 512,428.5C513.431,439.422 513.931,450.422 513.5,461.5L548.5,461.5C548.334,451.161 548.5,440.828 549,430.5C550.8,426.765 553.8,425.098 558,425.5C561.545,425.039 564.212,426.372 566,429.5C566.5,440.161 566.667,450.828 566.5,461.5C585.836,461.333 605.17,461.5 624.5,462C631.474,465.118 633.641,470.285 631,477.5C629.039,480.135 626.539,481.969 623.5,483C604.593,483.825 585.76,483.659 567,482.5C566.892,489.911 566.225,497.245 565,504.5C558.597,509.157 553.263,508.157 549,501.5C548.501,495.509 548.334,489.509 548.5,483.5L513.5,483.5C513.851,489.262 513.351,494.928 512,500.5C508.634,505.609 504.134,506.776 498.5,504C493.933,497.968 492.266,491.134 493.5,483.5C485.913,483.814 478.413,483.481 471,482.5C470.886,489.579 470.219,496.579 469,503.5C463.787,509.938 458.454,509.938 453,503.5C451.726,496.897 451.226,490.23 451.5,483.5L411.5,483.5C410.5,482.167 409.5,482.167 408.5,483.5L408.5,500.5C408.256,503.263 406.923,505.429 404.5,507C400.705,507.837 397.039,507.504 393.5,506C392.283,504.352 391.45,502.519 391,500.5C390.501,494.843 390.334,489.176 390.5,483.5C375.83,483.667 361.163,483.5 346.5,483C343.614,481.615 341.614,479.449 340.5,476.5L340.5,475.5ZM854.5,574.5C871.798,599.304 891.132,622.471 912.5,644C913.167,644.667 913.833,644.667 914.5,644C913.673,625.24 913.173,606.407 913,587.5C905.155,575.811 896.822,564.478 888,553.5C882.329,546.663 876.162,540.329 869.5,534.5C860.893,527.23 852.559,519.563 844.5,511.5C842.861,509.194 840.861,507.194 838.5,505.5L838.5,518.5C838.333,530.171 838.5,541.838 839,553.5C844.133,559.453 848.633,565.786 852.5,572.5C853.5,572.833 854.167,573.5 854.5,574.5Z"/>
    </g>
</svg>
