<?xml version="1.0" encoding="UTF-8" standalone="no"?>
<!DOCTYPE svg PUBLIC "-//W3C//DTD SVG 1.1//EN" "http://www.w3.org/Graphics/SVG/1.1/DTD/svg11.dtd">
<svg width="100%" height="100%" viewBox="0 0 1024 1024" version="1.1" xmlns="http://www.w3.org/2000/svg" xmlns:xlink="http://www.w3.org/1999/xlink" xml:space="preserve" xmlns:serif="http://www.serif.com/" style="fill-rule:evenodd;clip-rule:evenodd;stroke-linejoin:round;stroke-miterlimit:2;">
    <g transform="matrix(1.30574,0,0,1.30574,-183.125,-212.898)">
        <path d="M360.5,705.5C355.153,663.967 358.987,623.301 372,583.5C386.778,540.281 406.111,499.281 430,460.5C457.768,416.073 487.101,372.74 518,330.5C523.4,320.833 525.733,310.499 525,299.5C520.892,286.015 511.726,280.515 497.5,283C475.202,287.387 457.702,298.887 445,317.5C443.231,321.307 442.398,325.307 442.5,329.5C449.653,357.697 442.986,382.03 422.5,402.5C411.802,410.463 399.802,415.629 386.5,418C379.831,421.003 373.998,425.169 369,430.5C341.85,462.984 317.85,497.65 297,534.5C295.417,535.971 293.583,536.971 291.5,537.5C284.173,536.685 279.34,532.685 277,525.5C269.149,500.65 261.815,475.65 255,450.5C253.999,443.503 256.166,437.67 261.5,433C280.118,419.383 298.451,405.383 316.5,391C274.787,390.978 233.121,390.311 191.5,389C185.86,367.584 189.36,347.751 202,329.5C212.333,317.833 223.333,306.833 235,296.5C238.172,292.159 240.839,287.492 243,282.5C247.53,261.572 255.196,241.905 266,223.5C277.848,205.486 291.348,188.82 306.5,173.5C314.273,168.836 321.106,170.17 327,177.5C330.623,182.206 332.123,187.539 331.5,193.5C330.2,204.846 329.033,215.846 328,226.5C339.174,213.66 351.34,201.826 364.5,191C376.167,182.667 387.833,174.333 399.5,166C409.669,160.329 417.169,162.829 422,173.5C422.578,180.62 422.245,187.62 421,194.5C431.036,189.899 440.869,184.899 450.5,179.5C452.471,181.275 453.804,183.442 454.5,186C452.826,191.907 452.159,197.74 452.5,203.5C501.685,190.833 547.019,198.999 588.5,228C629.884,264.214 641.384,308.38 623,360.5C620.016,366.469 617.016,372.469 614,378.5C600.25,399.401 586.75,420.401 573.5,441.5C564.749,455.338 555.749,469.005 546.5,482.5C531.912,508.673 518.079,535.34 505,562.5C501.833,570.667 498.667,578.833 495.5,587C468.793,656.37 477.293,720.87 521,780.5C560.009,829.409 610.842,851.076 673.5,845.5C725.88,835.895 769.38,810.895 804,770.5C811.292,761.249 816.459,750.916 819.5,739.5C822.518,739.335 825.518,739.502 828.5,740C832.211,745.256 836.045,750.422 840,755.5C841.301,757.365 841.635,759.365 841,761.5C839.08,764.339 837.413,767.339 836,770.5C809.715,806.06 776.548,833.227 736.5,852C713.474,863.305 689.141,869.472 663.5,870.5C660.183,871.165 656.683,871.499 653,871.5C609.557,870.909 570.723,857.409 536.5,831C464.246,767.538 440.746,689.038 466,595.5C480.459,552.254 499.959,511.588 524.5,473.5C544.813,438.208 566.647,403.874 590,370.5C609.878,336.795 610.545,302.795 592,268.5C580.139,250.628 563.973,238.128 543.5,231C515.679,220.561 487.679,219.894 459.5,229C453.663,232.418 447.996,236.084 442.5,240C436.602,243.881 430.602,244.214 424.5,241C423.101,239.938 422.101,238.605 421.5,237C422.504,235.202 423.004,233.368 423,231.5C418.622,235.935 413.788,239.768 408.5,243C393.465,247.298 385.798,241.632 385.5,226C385.345,216.792 388.512,208.959 395,202.5C395.688,201.668 395.521,201.002 394.5,200.5C373.383,215.915 354.05,233.415 336.5,253C319.057,264.023 308.224,259.523 304,239.5C303.429,231.114 303.429,222.78 304,214.5C286.834,233.827 275.167,256.161 269,281.5C268.251,287.991 268.584,294.324 270,300.5C266.249,302.291 262.749,304.457 259.5,307C245.578,319.253 232.745,332.42 221,346.5C217.372,352.417 214.872,358.75 213.5,365.5C255.501,365.667 297.501,365.5 339.5,365C354.54,363.771 367.707,358.271 379,348.5C388.762,355.455 390.929,364.289 385.5,375C375.669,380.414 366.002,386.081 356.5,392L280,450.5C283.847,464.868 288.181,479.202 293,493.5C311.408,462.089 333.242,433.256 358.5,407C364.662,401.414 371.662,397.081 379.5,394C387.447,392.098 395.114,389.431 402.5,386C410.854,379.138 416.021,370.304 418,359.5C418.467,348.633 417.967,337.8 416.5,327C417.286,317.307 420.453,308.474 426,300.5C441.029,281.549 460.196,268.382 483.5,261C505.612,253.488 524.779,257.988 541,274.5C552.038,292.026 553.371,310.36 545,329.5C541.934,337.302 538.1,344.635 533.5,351.5C499.504,397.701 468.004,445.701 439,495.5C421.469,524.896 407.469,555.896 397,588.5C395.358,593.402 394.191,598.402 393.5,603.5C385.607,628.765 382.274,654.765 383.5,681.5C384.54,704.742 388.707,727.408 396,749.5C417.892,807.887 455.058,853.887 507.5,887.5C588.829,934.588 669.829,934.088 750.5,886C795.461,855.947 826.294,815.113 843,763.5C854.472,721.497 852.472,680.164 837,639.5C828.581,621.17 817.081,605.003 802.5,591C782.793,574.318 759.959,566.151 734,566.5C711.439,568.342 688.939,570.842 666.5,574C646.283,576.824 633.117,568.657 627,549.5C625.707,534.01 629.707,520.01 639,507.5C654.712,488.577 671.879,471.077 690.5,455C712.178,434.958 731.678,413.125 749,389.5C752.861,382.438 756.695,375.438 760.5,368.5C761.028,367.279 761.695,366.113 762.5,365C762.167,364.833 761.833,364.667 761.5,364.5C757.355,369.813 753.021,374.98 748.5,380C717.775,403.025 687.442,426.525 657.5,450.5C641.379,464.452 627.212,480.119 615,497.5C599.432,522.476 595.432,549.143 603,577.5C616.716,613.827 643.216,632.327 682.5,633C698.822,632.575 715.156,632.575 731.5,633C765.354,637.189 785.187,656.023 791,689.5C792.395,720.703 781.229,746.369 757.5,766.5C728.955,791.644 695.622,806.477 657.5,811C605.615,814.301 564.448,795.135 534,753.5C529.074,745.156 527.24,736.156 528.5,726.5C530.783,726.608 532.783,727.441 534.5,729C546.127,738.292 557.461,747.959 568.5,758C594.038,780.14 623.705,789.473 657.5,786C695.243,780.468 726.91,763.968 752.5,736.5C756.483,730.543 759.983,724.209 763,717.5C765.128,710.992 766.294,704.325 766.5,697.5C764.954,673.119 751.954,659.619 727.5,657C706.836,657.152 686.169,657.152 665.5,657C639.795,653.28 618.295,641.78 601,622.5C572.114,586.766 566.114,547.432 583,504.5C596.593,476.637 615.427,452.97 639.5,433.5C647.641,426.198 655.975,419.032 664.5,412C688.041,395.06 711.041,377.393 733.5,359C740.969,352.542 746.303,344.709 749.5,335.5C753.743,315.473 749.91,297.139 738,280.5C730.532,271.731 721.032,267.731 709.5,268.5L709.5,277.5C709.953,288.27 709.453,298.937 708,309.5L706.5,311C699.5,311.667 692.5,311.667 685.5,311C684.874,310.25 684.374,309.416 684,308.5C683.333,293.5 683.333,278.5 684,263.5C689.905,248.125 701.071,241.959 717.5,245C733.447,246.558 746.947,253.058 758,264.5C764.164,272.825 769.831,281.492 775,290.5C784.618,299.739 789.951,311.073 791,324.5C793.466,345.169 790.132,364.836 781,383.5C769.773,406.627 755.106,427.293 737,445.5C713.333,468.5 689.667,491.5 666,514.5C659.377,521.805 654.377,530.138 651,539.5C650.772,547.844 654.939,551.178 663.5,549.5C687.464,546.505 711.464,543.838 735.5,541.5C774.744,542.707 807.244,558.04 833,587.5C865.545,628.292 879.545,674.959 875,727.5C862.829,816.719 816.662,881.553 736.5,922C656.141,958.763 577.475,955.429 500.5,912C495.744,909.301 491.411,906.134 487.5,902.5C458.755,884.595 434.255,861.928 414,834.5C404.392,820.942 395.559,806.942 387.5,792.5C373.415,765.181 364.415,736.181 360.5,705.5ZM299.5,288.5C314.411,285.612 324.911,290.945 331,304.5C333.871,326.816 324.038,339.482 301.5,342.5C286.716,340.716 278.716,332.382 277.5,317.5C278.844,303.171 286.177,293.504 299.5,288.5ZM301.5,309.5C299.984,311.186 298.65,313.019 297.5,315C298.608,320.023 301.608,321.69 306.5,320C311.547,318.195 312.547,315.195 309.5,311C306.986,309.748 304.32,309.248 301.5,309.5Z"/>
    </g>
</svg>
