<?xml version="1.0" encoding="UTF-8" standalone="no"?>
<!DOCTYPE svg PUBLIC "-//W3C//DTD SVG 1.1//EN" "http://www.w3.org/Graphics/SVG/1.1/DTD/svg11.dtd">
<svg width="100%" height="100%" viewBox="0 0 1024 1024" version="1.1" xmlns="http://www.w3.org/2000/svg" xmlns:xlink="http://www.w3.org/1999/xlink" xml:space="preserve" xmlns:serif="http://www.serif.com/" style="fill-rule:evenodd;clip-rule:evenodd;stroke-linejoin:round;stroke-miterlimit:2;">
    <g transform="matrix(1.29756,0,0,1.29756,-155.659,-197.735)">
        <path d="M293.5,815.5C283.529,761.266 300.529,717.433 344.5,684C354.528,678.321 364.528,672.654 374.5,667C357.669,625.455 358.502,584.289 377,543.5C388.564,519.372 400.397,495.372 412.5,471.5C398.657,460.16 387.157,446.826 378,431.5C367.464,410.359 363.131,388.025 365,364.5C338.455,347.269 321.122,323.269 313,292.5C303.447,251.212 304.447,210.212 316,169.5C320.467,156.013 329.634,150.513 343.5,153C394.587,164.786 434.753,192.286 464,235.5C489.895,222.95 517.061,219.117 545.5,224C557.312,226.493 568.812,229.993 580,234.5C591.674,220.038 604.174,206.205 617.5,193C643.655,171.091 673.655,157.591 707.5,152.5C713.427,151.881 718.26,153.881 722,158.5C731.243,178.47 736.576,199.47 738,221.5C739.922,256.466 734.255,290.133 721,322.5C714.413,334.498 706.247,345.331 696.5,355C691.644,358.37 686.978,361.87 682.5,365.5C685.047,404.89 671.714,437.723 642.5,464C638.341,467.247 634.008,470.247 629.5,473C645.299,503.762 658.466,535.596 669,568.5C678.389,604.388 674.389,638.721 657,671.5C652.229,678.936 646.729,685.769 640.5,692C633.579,696.958 626.246,701.125 618.5,704.5C646.149,722.113 660.649,747.446 662,780.5C663.605,838.129 640.771,882.962 593.5,915C565.637,930.802 535.637,939.468 503.5,941C476.171,942.708 449.171,940.541 422.5,934.5C390.663,927.072 362.33,912.905 337.5,892C318.269,874.373 304.435,853.207 296,828.5C294.686,824.246 293.853,819.913 293.5,815.5ZM676.5,185.5C639.967,200.86 612.467,226.193 594,261.5C592.023,262.905 589.857,263.905 587.5,264.5C576.06,258.28 564.06,253.447 551.5,250C519.679,241.635 490.012,246.302 462.5,264C460.246,265.15 457.913,265.484 455.5,265C452,262.833 449.167,260 447,256.5C429.663,224.493 404.163,201.66 370.5,188C369.216,187.316 368.049,187.483 367,188.5C361.418,218.108 361.085,247.774 366,277.5C369.564,298.978 379.564,316.644 396,330.5C397.112,332.39 397.946,334.39 398.5,336.5C395.359,347.755 392.526,359.089 390,370.5C388.706,383.442 390.039,396.108 394,408.5C404.2,431.702 420.366,449.535 442.5,462C446.216,465.542 446.382,469.375 443,473.5C424.017,500.542 408.35,529.542 396,560.5C384.587,586.776 382.587,613.776 390,641.5C392.52,647.865 395.02,654.198 397.5,660.5C410.195,658.715 422.861,657.881 435.5,658C432.476,652.095 429.976,645.929 428,639.5C415.522,595.979 419.855,554.312 441,514.5C447.337,504.983 454.337,504.317 462,512.5C464.06,518.587 463.726,524.587 461,530.5C446.564,557.154 441.897,585.488 447,615.5C448.627,632.229 454.461,647.229 464.5,660.5C489.966,665.918 512.966,676.418 533.5,692C534.833,692.667 536.167,692.667 537.5,692C544.989,688.759 551.989,684.759 558.5,680C578.742,660.985 589.575,637.485 591,609.5C594.344,580.541 589.344,553.207 576,527.5C575.333,523.833 575.333,520.167 576,516.5C581.72,509.63 588.22,508.797 595.5,514C610.598,538.792 617.598,565.792 616.5,595C616.58,631.975 604.747,664.475 581,692.5C571.222,701.643 560.056,708.643 547.5,713.5C556.38,726.931 562.213,741.597 565,757.5C569.124,797.732 554.957,829.566 522.5,853C492.293,868.943 461.293,870.61 429.5,858C408.208,851.197 392.208,838.031 381.5,818.5C375.51,806.044 374.01,793.044 377,779.5C386.737,755.697 404.57,743.364 430.5,742.5C448.425,744.651 465.092,750.484 480.5,760C485.408,765.909 485.575,772.075 481,778.5C477.989,780.615 474.655,781.949 471,782.5C464.162,779.664 457.662,776.164 451.5,772C446.228,770.131 440.894,768.465 435.5,767C430.761,766.274 426.095,766.607 421.5,768C410.629,770.675 403.129,777.175 399,787.5C397.425,801.109 401.925,812.275 412.5,821C432.813,836.769 455.813,843.436 481.5,841C502.917,839.216 519.417,829.382 531,811.5C545.21,783.663 544.877,755.996 530,728.5C512.535,703.088 488.368,688.255 457.5,684C420.278,676.976 386.278,684.309 355.5,706C320.418,734.575 307.585,771.075 317,815.5C329.908,855.413 355.741,883.579 394.5,900C441.391,917.565 489.391,921.232 538.5,911C567.96,904.533 592.46,890.033 612,867.5C632.689,837.744 641.023,804.744 637,768.5C632,746.504 619.5,730.337 599.5,720C593.124,715.045 589.457,708.545 588.5,700.5C588.58,695.916 590.58,692.416 594.5,690C601.083,686.806 607.75,683.806 614.5,681C624.35,674.15 632.516,665.65 639,655.5C647.917,635.083 651.251,613.75 649,591.5C646.359,574.248 641.693,557.581 635,541.5C623.925,516.355 612.092,491.688 599.5,467.5C599.406,465.088 600.406,463.255 602.5,462C652.96,434.874 668.793,394.041 650,339.5C649.333,337.167 649.333,334.833 650,332.5C653.966,327.533 658.299,322.866 663,318.5C666.732,313.094 670.065,307.427 673,301.5C683.759,269.894 686.426,237.561 681,204.5C680.688,197.748 679.188,191.414 676.5,185.5ZM591.5,335.5C618.478,334.903 635.644,347.569 643,373.5C645.399,403.233 632.233,421.733 603.5,429C584.02,430.677 569.187,423.177 559,406.5C547.01,381.104 551.844,359.604 573.5,342C579.435,339.303 585.435,337.136 591.5,335.5ZM593.5,360.5C590.766,361.705 588.099,363.205 585.5,365C574.02,376.451 573.687,388.117 584.5,400C600.883,408.093 612.383,403.593 619,386.5C619.162,369.494 610.662,360.827 593.5,360.5ZM441.5,335.5C471.018,334.521 488.518,348.521 494,377.5C495.15,404.054 482.984,420.888 457.5,428C430.752,429.613 413.585,417.446 406,391.5C402.124,370.786 408.624,354.286 425.5,342C430.744,339.315 436.077,337.148 441.5,335.5ZM445.5,360.5C441.315,362.494 437.482,365.161 434,368.5C426.776,381.83 429.276,392.997 441.5,402C458.336,406.226 467.669,399.559 469.5,382C467.867,367.689 459.867,360.522 445.5,360.5ZM506.5,432.5C514.507,432.334 522.507,432.5 530.5,433C538.349,433.018 542.349,436.851 542.5,444.5C542.72,450.008 541.053,454.842 537.5,459C543.196,459.83 548.863,459.663 554.5,458.5C555.295,454.539 557.629,452.039 561.5,451C567.737,449.287 572.904,450.787 577,455.5C579.38,470.268 573.547,479.768 559.5,484C533.771,484.972 508.104,484.639 482.5,483C471.063,476.631 466.896,467.131 470,454.5C470.5,452.667 471.667,451.5 473.5,451C478.857,450.043 484.024,450.543 489,452.5C490.366,454.37 491.533,456.37 492.5,458.5C497.653,459.294 502.82,459.96 508,460.5C508.833,460.167 509.667,459.833 510.5,459.5C503.594,452.731 501.094,444.731 503,435.5C504.145,434.364 505.312,433.364 506.5,432.5ZM397.5,265.5C400.941,265.301 404.274,265.801 407.5,267C413.356,273.222 418.856,279.722 424,286.5C429.541,294.101 428.375,300.267 420.5,305C416.218,305.965 412.218,305.298 408.5,303C401.92,296.989 396.42,290.156 392,282.5C391.121,277.713 391.455,273.047 393,268.5C394.652,267.601 396.152,266.601 397.5,265.5ZM640.5,265.5C654.414,264.612 659.247,270.946 655,284.5C650.112,293.721 642.945,300.555 633.5,305C621.219,305.326 617.053,299.493 621,287.5C627.766,280.244 634.266,272.911 640.5,265.5ZM703.5,177.5C701.26,178.264 698.927,179.098 696.5,180C699.263,183.361 701.097,187.195 702,191.5C703.766,199.428 705.099,207.428 706,215.5C706.888,234.198 706.555,252.864 705,271.5C702.259,296.418 692.925,318.418 677,337.5C676.333,338.167 676.333,338.833 677,339.5C696.159,322.525 707.492,301.192 711,275.5C715.226,242.625 714.06,209.958 707.5,177.5L703.5,177.5ZM338.5,177.5C329.732,210.156 328.232,243.156 334,276.5C338.5,303.18 351,325.18 371.5,342.5C372.583,341.635 372.749,340.635 372,339.5C356.776,323.387 347.11,304.387 343,282.5C338.087,251.107 338.42,219.774 344,188.5C345.373,185.588 346.873,182.754 348.5,180C345.176,179.057 341.843,178.224 338.5,177.5Z"/>
    </g>
</svg>
