<?xml version="1.0" encoding="UTF-8" standalone="no"?>
<!DOCTYPE svg PUBLIC "-//W3C//DTD SVG 1.1//EN" "http://www.w3.org/Graphics/SVG/1.1/DTD/svg11.dtd">
<svg width="100%" height="100%" viewBox="0 0 1024 1024" version="1.1" xmlns="http://www.w3.org/2000/svg" xmlns:xlink="http://www.w3.org/1999/xlink" xml:space="preserve" xmlns:serif="http://www.serif.com/" style="fill-rule:evenodd;clip-rule:evenodd;stroke-linejoin:round;stroke-miterlimit:2;">
    <g transform="matrix(1.64712,0,0,1.64712,-280.791,-365.789)">
        <path d="M691.5,633.5C700.25,652.472 701.75,672.139 696,692.5C684.411,731.09 659.911,757.924 622.5,773C605.523,778.329 588.19,781.995 570.5,784C541.199,786.159 511.866,786.826 482.5,786C460.3,785.434 440.3,778.6 422.5,765.5C420.53,804.505 400.53,829.339 362.5,840C313.297,850.931 271.464,838.097 237,801.5C211.572,769.604 205.572,734.271 219,695.5C230.798,666.702 250.965,646.202 279.5,634C293.821,628.715 308.487,627.382 323.5,630C334.445,631.981 345.112,634.981 355.5,639C384.177,651.168 411.177,666.168 436.5,684C450.301,692.823 465.301,698.489 481.5,701C512.257,701.69 542.924,700.356 573.5,697C580.13,695.457 586.463,693.123 592.5,690C604.744,678.239 605.578,665.739 595,652.5C545.125,610.29 494.959,568.457 444.5,527C431.23,514.735 419.063,501.568 408,487.5C397.126,471.419 390.459,453.752 388,434.5C377.786,372.496 393.786,318.496 436,272.5C486.613,223.241 545.446,210.075 612.5,233C622.324,237.745 631.99,242.745 641.5,248C672.947,268.115 703.28,289.781 732.5,313C752.388,330.293 755.888,350.46 743,373.5C735.521,383.292 725.688,389.459 713.5,392C702.902,394.044 692.236,395.544 681.5,396.5L681.487,396.502C667.902,398.879 654.072,400.212 640,400.5C592.172,399.575 544.339,399.242 496.5,399.5C485.193,399.298 477.526,404.298 473.5,414.5C473.179,422.521 475.679,429.521 481,435.5C492.466,445.298 503.633,455.464 514.5,466C561.127,504.958 607.46,544.291 653.5,584C667.216,596.705 679.049,610.872 689,626.5C690.136,628.743 690.97,631.076 691.5,633.5ZM456.5,403.5C461.692,390.814 471.025,382.98 484.5,380C542.5,379.667 600.5,379.333 658.5,379C677.564,376.742 696.564,374.075 715.5,371C720.91,369.257 724.744,365.757 727,360.5C732.054,348.427 729.887,337.927 720.5,329C688.885,304.524 656.218,281.524 622.5,260C615.616,256.725 608.616,253.725 601.5,251C566.121,237.815 531.121,238.815 496.5,254C434.356,287.43 404.022,339.597 405.5,410.5C406.315,415.681 406.982,421.014 407.5,426.5C409.455,444.532 415.288,461.198 425,476.5C435.427,490.262 447.26,502.762 460.5,514C492.132,540.811 524.132,567.144 556.5,593C575.804,609.247 594.638,626.08 613,643.5C617.883,648.596 621.217,654.596 623,661.5C624.465,690.046 611.298,707.88 583.5,715C546.382,721.322 509.049,722.989 471.5,720C457.34,717.255 444.007,712.255 431.5,705C406.95,688.22 381.284,673.22 354.5,660C343.132,655.655 331.465,652.322 319.5,650C310.77,649.124 302.104,649.458 293.5,651C268.686,660.146 250.519,676.646 239,700.5C225.75,738.998 233.916,772.165 263.5,800C287.422,818.192 314.422,825.859 344.5,823C368.415,821.481 385.915,810.315 397,789.5C403.066,774.583 401.066,760.916 391,748.5C385.35,743.685 379.85,738.685 374.5,733.5C377.288,748.643 373.288,761.809 362.5,773C344.515,785.76 325.848,786.76 306.5,776C283.446,761.727 275.612,741.561 283,715.5C295.206,693.865 313.373,686.699 337.5,694C350.823,698.161 363.823,703.161 376.5,709C396.28,720.781 414.947,734.115 432.5,749C449.274,759.479 467.607,765.145 487.5,766C507.164,766.035 526.831,765.702 546.5,765C562.283,764.379 577.949,762.713 593.5,760C625.543,754.612 650.043,738.112 667,710.5C672.666,699.838 676.166,688.504 677.5,676.5C678.963,660.984 676.13,646.318 669,632.5C660.655,620.147 650.822,608.98 639.5,599C613.793,577.472 588.459,555.472 563.5,533C527.828,505.002 493.661,475.168 461,443.5C451.956,430.844 450.456,417.511 456.5,403.5ZM617.5,296.5C635.824,295.658 644.658,304.325 644,322.5C639.387,334.725 630.554,340.225 617.5,339C604.475,334.011 599.308,324.511 602,310.5C604.877,303.114 610.044,298.448 617.5,296.5ZM313.5,712.5C302.704,717.764 298.537,726.43 301,738.5C305.942,751.899 315.442,760.065 329.5,763C340.055,765.256 347.888,761.756 353,752.5C357.798,736.586 352.965,724.419 338.5,716C330.464,712.892 322.131,711.725 313.5,712.5Z"/>
    </g>
</svg>
