<?xml version="1.0" encoding="UTF-8" standalone="no"?>
<!DOCTYPE svg PUBLIC "-//W3C//DTD SVG 1.1//EN" "http://www.w3.org/Graphics/SVG/1.1/DTD/svg11.dtd">
<svg width="100%" height="100%" viewBox="0 0 1024 1024" version="1.1" xmlns="http://www.w3.org/2000/svg" xmlns:xlink="http://www.w3.org/1999/xlink" xml:space="preserve" xmlns:serif="http://www.serif.com/" style="fill-rule:evenodd;clip-rule:evenodd;stroke-linejoin:round;stroke-miterlimit:2;">
    <g transform="matrix(1.3487,0,0,1.3487,-197.248,-188.708)">
        <path d="M207.5,447.5C185.468,435.967 168.968,418.967 158,396.5C145.551,362.768 149.885,331.435 171,302.5C178.128,293.703 185.628,285.203 193.5,277C199.661,272.833 205.994,272.499 212.5,276C216.128,279.831 217.295,284.331 216,289.5C208.984,308.089 207.651,327.089 212,346.5C214.498,352.99 217.832,358.99 222,364.5C238.589,340.58 261.089,325.413 289.5,319C294.121,318.086 298.788,317.586 303.5,317.5C319.013,318.883 334.346,321.05 349.5,324C355.051,318.544 361.051,313.544 367.5,309C379.375,302.563 391.375,296.396 403.5,290.5C404.386,289.675 404.719,288.675 404.5,287.5C395.613,271.4 386.447,255.4 377,239.5C372.034,222.453 378.534,215.286 396.5,218C431.218,226.386 458.551,245.386 478.5,275C481.507,275.301 484.507,275.135 487.5,274.5C527.243,265.848 567.243,265.348 607.5,273C677.495,289.582 747.161,307.582 816.5,327C822.559,328.844 828.226,331.344 833.5,334.5C846.84,340.992 858.673,349.659 869,360.5C878.907,372.982 886.741,386.648 892.5,401.5C894.445,406.282 895.612,411.282 896,416.5C896.083,466.84 895.75,517.173 895,567.5C897.178,580.865 900.678,593.865 905.5,606.5C903,619.083 896,622.583 884.5,617C881.469,614.441 879.302,611.274 878,607.5C874.516,594.914 871.349,582.247 868.5,569.5C867.192,618.165 866.025,666.832 865,715.5C861.717,734.914 858.051,754.247 854,773.5C853.1,781.183 852.267,788.85 851.5,796.5C858.476,797.331 865.476,797.831 872.5,798C882.337,804.04 883.004,811.04 874.5,819C871.956,820.092 869.289,820.759 866.5,821C834.833,821.667 803.167,821.667 771.5,821C763.022,818.217 759.522,812.384 761,803.5C762.167,801 764,799.167 766.5,798C773.103,796.726 779.77,796.226 786.5,796.5C783.399,776.028 779.566,755.694 775,735.5C774.816,722.448 773.825,709.509 772.026,696.685C771.979,696.701 771.931,696.718 771.884,696.735C755.326,730.343 737.864,763.431 719.5,796C725.5,796.333 731.5,796.667 737.5,797C743.107,798.776 745.774,802.609 745.5,808.5C743.479,816.699 738.145,820.866 729.5,821C698.833,821.667 668.167,821.667 637.5,821C625.923,814.664 623.59,805.831 630.5,794.5C649.451,758.264 667.618,721.597 685,684.5C686.543,682.622 688.376,681.122 690.5,680C705.72,677.665 711.387,683.831 707.5,698.5C696.263,721.309 685.263,744.309 674.5,767.5C669.275,777.144 664.608,787.144 660.5,797.5C670.416,797.819 680.25,797.486 690,796.5C707.162,764.502 723.995,732.502 740.5,700.5C745.048,689.735 750.882,679.735 758,670.5C758.436,662.783 758.77,655.116 759,647.5C754.468,642.633 749.634,638.133 744.5,634C722.5,624.667 700.5,615.333 678.5,606L674,601.5C668.598,586.566 673.764,580.399 689.5,583C706.321,591.07 723.654,598.07 741.5,604C772.808,616.81 790.808,639.976 795.5,673.5C795.524,673.638 795.539,673.774 795.542,673.907C798.146,698.983 800.966,724.181 804,749.5C807.061,765.535 810.228,781.535 813.5,797.5L825.5,797.5C828.098,771.582 832.098,745.915 837.5,720.5C839.03,629.482 841.53,538.482 845,447.5C846.308,430.56 852.474,415.726 863.5,403C855.319,382.327 841.652,366.494 822.5,355.5C812.491,351.108 802.158,347.608 791.5,345C744.083,333.049 696.75,320.716 649.5,308C625.075,302.048 600.408,297.382 575.5,294C556.833,293.333 538.167,293.333 519.5,294C512.07,294.85 504.737,296.016 497.5,297.5C495.883,298.038 494.216,298.371 492.5,298.5C491.503,298.47 490.836,298.97 490.5,300C500.611,330.503 495.778,358.336 476,383.5C459.97,400.769 440.47,412.269 417.5,418C424.641,422.974 431.641,428.14 438.5,433.5C443.193,438.051 446.193,443.551 447.5,450C445.497,461.677 441.33,472.511 435,482.5C426.16,497.333 413.327,506.833 396.5,511C388.845,512.63 381.845,511.296 375.5,507C367.655,498.852 367.655,490.852 375.5,483C382.184,480.853 388.684,481.353 395,484.5C401.678,481.827 407.011,477.494 411,471.5C414.363,465.069 417.529,458.569 420.5,452C408.092,441.941 394.425,433.941 379.5,428C341.905,420.949 305.238,424.282 269.5,438C262.195,440.984 255.695,445.15 250,450.5C249.423,454.888 249.756,459.221 251,463.5C258.378,490.92 268.545,517.254 281.5,542.5C290.324,558.804 300.657,574.137 312.5,588.5C315.447,589.321 318.447,589.821 321.5,590C324.057,590.685 325.891,592.185 327,594.5C327.667,597.833 327.667,601.167 327,604.5C324.606,610.287 321.94,615.954 319,621.5C318.333,625.167 318.333,628.833 319,632.5C320.64,636.392 321.973,640.392 323,644.5C336.175,668.197 350.341,691.197 365.5,713.5C367.748,718.02 370.914,721.686 375,724.5C383.623,721.636 392.457,719.636 401.5,718.5C411.038,691.718 420.872,665.051 431,638.5C431.333,632.5 431.667,626.5 432,620.5C438.11,604.384 448.61,591.884 463.5,583C471.664,578.932 479.164,579.765 486,585.5C489.356,592.616 488.19,598.949 482.5,604.5C490.722,614.27 496.888,625.27 501,637.5C516.674,690.378 530.508,743.711 542.5,797.5L557.5,797.5C561.309,743.295 565.642,689.128 570.5,635C568.213,628.191 568.046,621.357 570,614.5C577.291,606.51 584.624,606.51 592,614.5C597.663,631.346 608.163,644.179 623.5,653C643.167,665.667 662.833,665.667 682.5,653C690.541,646.297 699.541,641.297 709.5,638C715.486,637.197 721.152,638.197 726.5,641C730.811,647.831 730.144,654.164 724.5,660C717.542,661.876 710.875,664.543 704.5,668C692.84,678.631 679.174,685.297 663.5,688C637.16,689.554 614.327,681.387 595,663.5C591.103,704.469 587.603,745.469 584.5,786.5C583.24,796.774 582.074,807.107 581,817.5C579.421,819.041 577.587,820.208 575.5,821C552.167,821.667 528.833,821.667 505.5,821C496.091,817.455 493.258,810.955 497,801.5C498.8,799.683 500.966,798.516 503.5,798C507.541,797.827 511.541,797.327 515.5,796.5C509.351,768.901 502.518,741.567 495,714.5C491.808,747.439 489.474,780.439 488,813.5C486.971,817.946 484.138,820.446 479.5,821C415.501,821.5 351.501,821.667 287.5,821.5C282.156,821.666 276.823,821.499 271.5,821C264.097,817.485 261.263,811.652 263,803.5C264.251,800.619 266.417,798.786 269.5,798C302.498,797.5 335.498,797.333 368.5,797.5L461.5,797.5C466.747,748.043 471.747,698.543 476.5,649C475.543,645.128 474.377,641.294 473,637.5C472.623,636.058 471.79,635.058 470.5,634.5C468.608,629.721 465.941,625.388 462.5,621.5C461.445,625.278 459.612,628.611 457,631.5C456.667,635.833 456.333,640.167 456,644.5C447.2,668.399 438.7,692.399 430.5,716.5C428.491,722.858 426.325,729.192 424,735.5C421.592,737.956 418.759,739.789 415.5,741C402.086,743.27 389.086,746.936 376.5,752C374.527,752.495 372.527,752.662 370.5,752.5C363.928,751.464 358.428,748.464 354,743.5C335.5,715.17 317.5,686.504 300,657.5C290.502,641.021 289.002,623.854 295.5,606C281.5,590.181 269.334,573.014 259,554.5C256.258,549.023 254.092,543.356 252.5,537.5C220.539,536.774 199.039,521.441 188,491.5C185.702,484.551 186.368,477.885 190,471.5C196.051,463.622 201.885,455.622 207.5,447.5ZM431.5,285.5C437.144,297.486 440.477,310.153 441.5,323.5C441.895,337.117 437.228,348.617 427.5,358C415.558,365.567 402.558,368.233 388.5,366C373.89,362.196 359.557,357.529 345.5,352C336.239,349.351 326.905,347.018 317.5,345C300.749,342.102 285.082,345.102 270.5,354C246.052,370.109 230.718,392.442 224.5,421C225.871,425.446 227.038,429.946 228,434.5C232.546,430.286 237.379,426.453 242.5,423C266.911,408.978 293.244,401.311 321.5,400C345.167,399 368.833,398 392.5,397C399.573,396.052 406.573,394.719 413.5,393C454.077,381.645 472.077,355.145 467.5,313.5C463.679,299.863 457.179,287.53 448,276.5C436.314,266.484 424.314,256.818 412,247.5C419.408,259.489 425.908,272.156 431.5,285.5ZM232.5,507.5C234.782,508.39 237.115,508.556 239.5,508C232.949,496.658 228.449,484.491 226,471.5C221.867,475.785 218.367,480.452 215.5,485.5C215.408,489.059 216.241,492.392 218,495.5C221.811,500.811 226.644,504.811 232.5,507.5ZM411.5,313.5C398.902,320.135 386.569,327.302 374.5,335C385.998,340.53 397.998,341.863 410.5,339C411.701,338.097 412.535,336.931 413,335.5C413.608,332.183 414.108,328.849 414.5,325.5C414.468,321.007 413.468,317.007 411.5,313.5ZM183.5,331.5C181.481,338.751 179.648,346.084 178,353.5C177.253,360.882 177.586,368.215 179,375.5C182.999,390.15 190.332,402.816 201,413.5C201.202,403.018 204.036,393.351 209.5,384.5C195.199,369.566 186.533,351.899 183.5,331.5ZM149.5,816.5C148.034,815.653 147.2,814.32 147,812.5C145.058,806.11 146.891,801.277 152.5,798C173.677,797.77 194.844,797.27 216,796.5C229.744,796.541 234.41,802.875 230,815.5C228.269,817.617 226.102,819.117 223.5,820C204.875,821.419 186.208,821.919 167.5,821.5C161.928,822.01 156.595,821.177 151.5,819C150.619,818.292 149.953,817.458 149.5,816.5ZM383.5,553.5C401.33,552.808 407.497,560.808 402,577.5C391.755,587.395 382.422,586.729 374,575.5C373.333,571.167 373.333,566.833 374,562.5C376.406,558.592 379.572,555.592 383.5,553.5ZM614.5,798.5C620.563,804.88 620.897,811.547 615.5,818.5C601.047,824.055 594.047,819.055 594.5,803.5C599.716,796.546 606.383,794.88 614.5,798.5Z"/>
    </g>
</svg>
