<?xml version="1.0" encoding="UTF-8" standalone="no"?>
<!DOCTYPE svg PUBLIC "-//W3C//DTD SVG 1.1//EN" "http://www.w3.org/Graphics/SVG/1.1/DTD/svg11.dtd">
<svg width="100%" height="100%" viewBox="0 0 1024 1024" version="1.1" xmlns="http://www.w3.org/2000/svg" xmlns:xlink="http://www.w3.org/1999/xlink" xml:space="preserve" xmlns:serif="http://www.serif.com/" style="fill-rule:evenodd;clip-rule:evenodd;stroke-linejoin:round;stroke-miterlimit:2;">
    <g transform="matrix(1.3418,0,0,1.3418,-177.071,-172.534)">
        <path d="M400.5,835.5C390.519,830.902 382.019,824.235 375,815.5C356.969,785.747 344.636,753.747 338,719.5C333.175,696.041 327.842,672.708 322,649.5C313.461,611.307 305.628,572.974 298.5,534.5C275.994,536.901 253.66,540.401 231.5,545C228.167,545.667 224.833,545.667 221.5,545C193.961,537.717 168.295,526.384 144.5,511C135.706,503.956 131.539,494.789 132,483.5C132.725,481.051 133.725,478.717 135,476.5C154.542,455.151 177.375,438.318 203.5,426C214.046,421.374 225.046,418.374 236.5,417C208.264,393.101 187.431,363.934 174,329.5C162.993,292.276 165.993,256.276 183,221.5C188.844,212.479 195.178,203.812 202,195.5L232.5,165C241.311,156.191 250.978,155.191 261.5,162C266.593,166.017 268.426,171.184 267,177.5C261.031,193.405 256.698,209.738 254,226.5C248.26,287.38 274.094,327.88 331.5,348C333.167,348.667 334.833,348.667 336.5,348C398.07,285.476 472.403,260.476 559.5,273C611.333,284.573 655.333,309.573 691.5,348C728.63,339.675 755.13,318.175 771,283.5C780.705,251.033 779.372,219.033 767,187.5C764.448,180.559 764.115,173.559 766,166.5C772.994,157.273 781.827,155.106 792.5,160C805.333,173.5 818.167,187 831,200.5C864.089,239.446 872.923,283.446 857.5,332.5C849.037,356.946 836.037,378.613 818.5,397.5C811.632,404.535 804.299,411.035 796.5,417C835.503,429.689 868.336,451.523 895,482.5C895.899,494.465 891.733,504.299 882.5,512C860.046,526.225 836.046,537.225 810.5,545C806.833,545.667 803.167,545.667 799.5,545C780.87,542.172 762.203,539.672 743.5,537.5C738.36,536.886 733.194,535.886 728,534.5C715.514,590.412 703.347,646.412 691.5,702.5C688.698,713.377 686.365,724.377 684.5,735.5C675.942,766.283 662.276,794.616 643.5,820.5C632.706,829.741 620.706,837.241 607.5,843C559.309,862.799 509.643,867.799 458.5,858C447.013,854.808 435.68,851.308 424.5,847.5C415.701,844.808 407.701,840.808 400.5,835.5ZM439.5,822.5C487.216,837.233 534.883,837.066 582.5,822L583.5,821C582.552,820.517 581.552,820.351 580.5,820.5C540.004,820.628 499.337,820.795 458.5,821C451.987,821.172 445.653,821.672 439.5,822.5ZM604.5,793.5C617.453,792.39 626.286,785.724 631,773.5C632.309,769.746 633.475,766.079 634.5,762.5C636.173,740.997 628.173,724.164 610.5,712C603.162,707.332 595.162,704.665 586.5,704C538.501,703.5 490.501,703.333 442.5,703.5C418.092,704.794 401.259,716.794 392,739.5C386.393,758.573 390.56,775.073 404.5,789C407.382,790.608 410.382,791.941 413.5,793C466.507,792.465 519.507,792.632 572.5,793.5L604.5,793.5ZM429.5,726.5C440.627,725.98 449.794,729.98 457,738.5C465.942,757.444 460.775,770.944 441.5,779C419.797,779.964 409.297,769.464 410,747.5C412.923,737.08 419.423,730.08 429.5,726.5ZM582.5,727.5C600.786,725.967 611.786,734.133 615.5,752C611.877,774.462 599.21,782.795 577.5,777C563.611,767.394 560.111,754.894 567,739.5C571.184,734.14 576.351,730.14 582.5,727.5ZM654.5,718.5C655.966,719.347 656.8,720.68 657,722.5C671.649,656.251 685.649,589.918 699,523.5C702.108,505.183 705.108,486.85 708,468.5C710.534,443.5 705.534,420.166 693,398.5C647.578,328.202 582.745,295.036 498.5,299C446.341,303.921 401.674,324.588 364.5,361C359.933,366.059 355.599,371.226 351.5,376.5C338.11,388.908 328.777,403.908 323.5,421.5C317.648,436.618 315.481,452.285 317,468.5C320.607,498.083 325.607,527.416 332,556.5C344.473,611.393 356.473,666.393 368,721.5C377.167,703 391,689.167 409.5,680C415.671,677.707 422.005,676.207 428.5,675.5C430.969,674.683 433.635,674.183 436.5,674C461,673.833 485.5,673.667 510,673.5C537.193,673.37 564.36,673.87 591.5,675C599.962,676.866 608.295,679.199 616.5,682C633.623,689.625 646.29,701.792 654.5,718.5ZM353.5,434.5C409.901,438.413 449.734,466.08 473,517.5C476.952,527.973 480.285,538.64 483,549.5C484.757,559.81 481.257,567.643 472.5,573C465.363,575.004 459.53,573.171 455,567.5C451.622,552.654 447.622,537.987 443,523.5C425.219,487.179 396.052,467.679 355.5,465C349.318,461.817 346.318,456.651 346.5,449.5C346.752,443.358 349.085,438.358 353.5,434.5ZM377.5,507.5C389.83,506.084 399.997,510.084 408,519.5C416.147,535.4 413.314,548.9 399.5,560C383.618,568.69 370.118,565.857 359,551.5C352.527,537.117 354.693,524.284 365.5,513C369.284,510.471 373.284,508.638 377.5,507.5ZM617.5,480.5C595.947,495.58 581.78,515.914 575,541.5C573.178,548.444 571.678,555.444 570.5,562.5C565.533,573.755 557.533,576.588 546.5,571C540.553,564.045 539.053,556.211 542,547.5C549.872,509.683 569.038,479.183 599.5,456C619.057,445.258 639.891,438.092 662,434.5C670.981,435.317 675.815,440.317 676.5,449.5C676.388,457.234 672.721,462.401 665.5,465C648.093,466.081 632.093,471.247 617.5,480.5ZM631.5,507.5C648.383,506.574 659.883,513.907 666,529.5C666.843,554.655 654.677,566.155 629.5,564C609.371,554.263 604.204,539.429 614,519.5C618.429,513.375 624.262,509.375 631.5,507.5ZM767.5,442.5C758.368,445.733 749.701,450.066 741.5,455.5C738.371,472.07 735.704,488.736 733.5,505.5C756.095,509.196 778.762,512.53 801.5,515.5C823.054,510.094 843.387,501.761 862.5,490.5C854.973,482.806 846.973,475.639 838.5,469C817.38,453.568 793.713,444.735 767.5,442.5ZM224.5,214.5C193.171,254.306 189.004,296.973 212,342.5C226.172,367.346 244.672,388.512 267.5,406C274.647,411.658 282.481,416.158 291,419.5C297.481,403.538 305.315,388.205 314.5,373.5C245.159,343.041 215.826,290.207 226.5,215C225.906,214.536 225.239,214.369 224.5,214.5ZM805.5,215.5C815.09,292.845 783.757,345.679 711.5,374C721.126,388.42 728.793,403.92 734.5,420.5C745.436,416.033 755.77,410.533 765.5,404C784.692,389.473 801.192,372.307 815,352.5C833.479,321.381 837.813,288.381 828,253.5C822.264,239.68 814.764,227.013 805.5,215.5ZM245.5,443.5C214.029,450.123 187.196,465.123 165,488.5C164.333,489.167 164.333,489.833 165,490.5C185.141,502.77 206.808,511.103 230,515.5C250.816,511.693 271.649,508.027 292.5,504.5C290.714,500.693 289.548,496.693 289,492.5C287.594,480.843 286.26,469.176 285,457.5C277.738,452.115 269.904,447.615 261.5,444C256.177,443.501 250.844,443.334 245.5,443.5Z"/>
    </g>
</svg>
