<?xml version="1.0" encoding="UTF-8" standalone="no"?>
<!DOCTYPE svg PUBLIC "-//W3C//DTD SVG 1.1//EN" "http://www.w3.org/Graphics/SVG/1.1/DTD/svg11.dtd">
<svg width="100%" height="100%" viewBox="0 0 1024 1024" version="1.1" xmlns="http://www.w3.org/2000/svg" xmlns:xlink="http://www.w3.org/1999/xlink" xml:space="preserve" xmlns:serif="http://www.serif.com/" style="fill-rule:evenodd;clip-rule:evenodd;stroke-linejoin:round;stroke-miterlimit:2;">
    <g transform="matrix(1.45613,0,0,1.45613,-277.008,-242.361)">
        <path d="M367.5,814.5C347.64,781.091 334.806,745.091 329,706.5C328.333,665.5 328.333,624.5 329,583.5C331.713,572.651 335.046,561.985 339,551.5C341.143,522.146 340.809,492.813 338,463.5C298.726,462.961 266.059,447.961 240,418.5C208.463,383.443 202.797,344.443 223,301.5C234.791,276.382 249.791,253.382 268,232.5C280.866,218.788 295.032,206.788 310.5,196.5C323.143,186.836 336.809,178.669 351.5,172C357.288,169.569 363.288,168.069 369.5,167.5C382.291,168.452 387.124,175.119 384,187.5C382.052,191.613 379.219,194.946 375.5,197.5C371.385,199.775 367.385,202.275 363.5,205C347.158,221.018 334.325,239.518 325,260.5C320.277,271.052 318.611,282.052 320,293.5C320.833,300.836 323.999,306.836 329.5,311.5C342.651,323.245 357.984,329.745 375.5,331C421.935,286.226 477.602,262.726 542.5,260.5C570.052,261.61 596.719,266.944 622.5,276.5C650.93,287.878 676.263,304.044 698.5,325C701.557,327.723 704.89,330.056 708.5,332C713.898,331.821 719.231,330.987 724.5,329.5C737.094,325.782 747.927,319.115 757,309.5C759.65,305.22 761.316,300.553 762,295.5C764.004,281.245 762.004,267.578 756,254.5C752.014,247.198 748.014,239.865 744,232.5C734.12,216.953 721.287,204.453 705.5,195C698.146,188.315 696.646,180.482 701,171.5C707.48,165.73 714.647,164.896 722.5,169C787.224,198.057 834.391,244.891 864,309.5C883.055,361.762 870.222,404.596 825.5,438C812.695,447.235 798.695,454.069 783.5,458.5C770.958,463.216 757.958,464.716 744.5,463C745.081,463.893 745.415,464.893 745.5,466C744.239,472.108 743.406,478.275 743,484.5C742.333,505.833 742.333,527.167 743,548.5C746.022,561.585 749.188,574.585 752.5,587.5L752.5,597.5C752.667,635.501 752.5,673.501 752,711.5C746.345,747.803 734.345,781.803 716,813.5C705.248,830.006 694.248,846.339 683,862.5C680.865,866.15 677.699,868.15 673.5,868.5L673.5,869.5L511.5,869.5C475.772,869.98 440.105,869.48 404.5,868L399,862.5C388.277,846.618 377.777,830.618 367.5,814.5ZM307.5,251.5C302.263,257.25 296.429,263.25 290,269.5C262.182,304.944 264.349,338.444 296.5,370C302.816,374.991 309.816,378.658 317.5,381C321.152,381.499 324.818,381.665 328.5,381.5C332.886,380.634 336.386,378.301 339,374.5C344.513,366.13 350.013,357.797 355.5,349.5C342.4,345.283 330.067,339.45 318.5,332C308.43,324.709 302.263,314.876 300,302.5C299.333,293.167 299.333,283.833 300,274.5C300.618,266.148 303.118,258.482 307.5,251.5ZM717.5,380.5C713.409,382.083 709.076,383.25 704.5,384C706.251,388.994 707.418,394.161 708,399.5C712.541,416.113 722.041,428.946 736.5,438C762.273,443.809 785.94,438.976 807.5,423.5C828.437,410.036 842.937,391.37 851,367.5C854.208,349.746 851.875,332.746 844,316.5C839.76,309.022 835.76,301.356 832,293.5C837.73,320.786 833.397,346.453 819,370.5C807.752,387.378 792.252,398.211 772.5,403C753.597,406.812 738.097,401.312 726,386.5C719.243,376.658 713.243,366.325 708,355.5C710.724,362.959 714.057,370.292 718,377.5C718.74,378.749 718.573,379.749 717.5,380.5ZM775.5,249.5C782.851,266.769 785.351,284.769 783,303.5C781.854,310.273 779.52,316.606 776,322.5C763.081,335.882 747.581,345.048 729.5,350C733.368,358.241 737.868,366.075 743,373.5C750.202,381.157 759.035,383.657 769.5,381C794.293,371.54 808.793,353.707 813,327.5C814.224,306.505 808.224,287.838 795,271.5C788.248,264.282 781.748,256.949 775.5,249.5ZM316.5,403.5C299.879,400.274 286.045,392.274 275,379.5C253.61,354.187 245.943,325.187 252,292.5C243.362,309.083 236.695,326.416 232,344.5C230.436,355.678 232.102,366.344 237,376.5C245.401,393.066 256.901,407.066 271.5,418.5C290.66,434.276 312.66,441.776 337.5,441C348.38,439.11 356.88,433.61 363,424.5C371.37,412.557 375.87,399.223 376.5,384.5C372.437,383.368 368.437,382.035 364.5,380.5C363.406,377.513 364.406,375.346 367.5,374C366.748,373.329 366.414,372.496 366.5,371.5C362.441,377.266 358.608,383.266 355,389.5C344.651,401.005 331.817,405.672 316.5,403.5ZM359.5,457.5C358.722,458.156 358.056,458.989 357.5,460C359.484,468.071 360.984,476.238 362,484.5C362.645,508.512 362.312,532.512 361,556.5C356.532,567.239 352.865,578.239 350,589.5C349.333,628.167 349.333,666.833 350,705.5C355.613,741.677 367.946,775.344 387,806.5C394.663,818.321 402.496,829.987 410.5,841.5C412.262,842.262 413.262,843.596 413.5,845.5C498.099,846.83 582.765,846.83 667.5,845.5C697.741,809.018 718.408,767.684 729.5,721.5C730.614,676.177 730.78,630.843 730,585.5C722.794,563.24 719.96,540.407 721.5,517C720.485,497.566 722.152,478.399 726.5,459.5C699.349,438.205 684.515,410.205 682,375.5C681.333,370.833 681.333,366.167 682,361.5C682.465,360.069 683.299,358.903 684.5,358C688.123,356.071 691.79,354.237 695.5,352.5C665.529,318.206 628.196,296.539 583.5,287.5C505.633,274.567 439.633,296.567 385.5,353.5C391.714,353.033 396.547,355.7 400,361.5C401.982,395.895 391.482,425.728 368.5,451C365.621,453.385 362.621,455.552 359.5,457.5ZM420.5,465.5C445.918,463.79 465.085,473.79 478,495.5C479.953,506.862 475.453,511.362 464.5,509C454.982,492.477 440.649,485.477 421.5,488C397.484,497.86 387.317,515.693 391,541.5C392.389,545.944 394.056,550.277 396,554.5C405.274,569.438 414.94,584.104 425,598.5C435.375,586.791 448.208,579.291 463.5,576C514.5,575.333 565.5,575.333 616.5,576C632.165,579.671 645.332,587.505 656,599.5C669.697,582.805 681.364,564.805 691,545.5C696.436,526.815 692.269,510.648 678.5,497C663.469,485.553 647.802,484.553 631.5,494C626.466,498.699 621.8,503.699 617.5,509C613.286,511.269 609.453,510.769 606,507.5C604.48,503.625 604.146,499.625 605,495.5C618.101,471.369 638.268,461.869 665.5,467C692.52,475.361 708.687,493.527 714,521.5C715.517,533.191 714.184,544.524 710,555.5C697.905,579.25 683.071,601.083 665.5,621C673.52,651.758 665.02,676.924 640,696.5C637.306,720.512 626.806,740.345 608.5,756C562.901,790.514 517.901,789.848 473.5,754C456.751,738.004 446.751,718.504 443.5,695.5C416.002,677.344 406.669,652.344 415.5,620.5C401.504,600.51 388.004,580.177 375,559.5C368.851,542.509 367.851,525.176 372,507.5C380.702,484.616 396.868,470.616 420.5,465.5ZM467.5,708.5C470.637,716.106 474.803,723.106 480,729.5C507.296,758.227 539.463,765.394 576.5,751C595.156,742.025 607.656,727.858 614,708.5C606.764,711.216 599.264,713.049 591.5,714C558.167,714.667 524.833,714.667 491.5,714C483.127,713.333 475.127,711.5 467.5,708.5ZM467.5,597.5C456.786,600.013 447.953,605.68 441,614.5C430.408,633.142 431.408,651.142 444,668.5C457.42,681.792 473.587,689.626 492.5,692C521.147,693.548 549.814,693.881 578.5,693C590.286,692.22 601.619,689.553 612.5,685C637.869,675.098 649.036,656.598 646,629.5C641.87,613.705 632.037,603.538 616.5,599C566.872,597.523 517.205,597.023 467.5,597.5ZM493.5,618.5C498.222,618.861 502.556,620.361 506.5,623C517.985,633.651 529.318,644.484 540.5,655.5C553.35,643.482 566.35,631.649 579.5,620C588.458,616.857 593.791,619.857 595.5,629C595.385,631.732 594.552,634.232 593,636.5C579.801,649.368 566.301,661.868 552.5,674C544.5,678.667 536.5,678.667 528.5,674C515.667,661.833 502.833,649.667 490,637.5C486.156,632.262 485.656,626.762 488.5,621C490.315,620.243 491.981,619.41 493.5,618.5ZM422.5,520.5C434.96,518.806 441.46,524.139 442,536.5C438.259,545.789 431.759,548.622 422.5,545C416.885,540.032 415.052,533.865 417,526.5C418.36,523.977 420.193,521.977 422.5,520.5ZM649.5,519.5C664.043,518.868 669.543,525.534 666,539.5C661.45,546.435 655.283,548.268 647.5,545C640.492,538.253 639.658,530.753 645,522.5C646.652,521.601 648.152,520.601 649.5,519.5Z"/>
    </g>
</svg>
