<?xml version="1.0" encoding="UTF-8" standalone="no"?>
<!DOCTYPE svg PUBLIC "-//W3C//DTD SVG 1.1//EN" "http://www.w3.org/Graphics/SVG/1.1/DTD/svg11.dtd">
<svg width="100%" height="100%" viewBox="0 0 1024 1024" version="1.1" xmlns="http://www.w3.org/2000/svg" xmlns:xlink="http://www.w3.org/1999/xlink" xml:space="preserve" xmlns:serif="http://www.serif.com/" style="fill-rule:evenodd;clip-rule:evenodd;stroke-linejoin:round;stroke-miterlimit:2;">
    <g transform="matrix(1.28581,0,0,1.28581,-151.909,-163.889)">
        <path d="M185.5,648.5C186.022,645.432 186.855,642.432 188,639.5C195.248,626.864 204.082,615.364 214.5,605C246.837,578.338 283.837,561.671 325.5,555C345.815,553.151 365.815,554.817 385.5,560C395.509,563.613 405.509,567.113 415.5,570.5C417.306,562.605 418.473,554.605 419,546.5C419.333,518.167 419.667,489.833 420,461.5C420.444,454.443 421.278,447.443 422.5,440.5C382.259,432.094 358.426,407.76 351,367.5C342.052,294.895 361.385,231.229 409,176.5C464.419,120.679 526.252,112.513 594.5,152C634.184,180.514 660.684,218.347 674,265.5C675.525,273.045 677.358,280.379 679.5,287.5C680.712,298.152 681.878,308.818 683,319.5C683.899,334.874 683.566,350.207 682,365.5C679.092,387.65 669.592,406.317 653.5,421.5C640.257,430.949 625.59,437.449 609.5,441C610.383,444.45 611.216,447.95 612,451.5C612.333,485.5 612.667,519.5 613,553.5C613.861,559.278 615.194,564.944 617,570.5C617.414,570.957 617.914,571.291 618.5,571.5C644.076,557.441 671.409,551.941 700.5,555C751.961,561.314 795.461,583.147 831,620.5C841.257,632.348 847.757,646.014 850.5,661.5C849.185,672.158 848.352,682.824 848,693.5C848.591,700.182 851.424,705.682 856.5,710C861.618,712.975 866.785,715.808 872,718.5C872.167,717.833 872.333,717.167 872.5,716.5C869.091,704.444 865.591,692.444 862,680.5C860.442,669.724 865.109,664.057 876,663.5C881.818,663.693 886.818,665.693 891,669.5C900.803,694.242 905.136,719.909 904,746.5C897.673,795.825 869.673,822.159 820,825.5C782.814,823.92 754.814,807.253 736,775.5C733.437,767.687 731.771,759.687 731,751.5C731.375,728.506 731.375,705.506 731,682.5C727.754,657.284 715.087,638.618 693,626.5C686.374,614.626 689.207,606.126 701.5,601C704.167,600.333 706.833,600.333 709.5,601C740.218,616.925 757.718,642.092 762,676.5C762.794,698.861 762.294,721.195 760.5,743.5C760.722,761.453 768.722,774.62 784.5,783C808.126,797.237 831.46,796.904 854.5,782C863.37,773.763 868.703,763.596 870.5,751.5C870.182,750.353 869.516,749.519 868.5,749C841.641,743.807 824.808,727.974 818,701.5C817.409,691.491 817.576,681.491 818.5,671.5C818.842,661.189 816.009,651.856 810,643.5C785.606,616.368 755.439,598.535 719.5,590C695.947,584.695 672.614,585.362 649.5,592C642.197,595.317 634.864,598.65 627.5,602C606.891,606.862 592.891,599.362 585.5,579.5C583.112,573.782 581.946,567.782 582,561.5C581.667,528.167 581.333,494.833 581,461.5C578.452,439.897 567.952,423.397 549.5,412C525.998,400.377 502.664,400.711 479.5,413C456.078,431.203 446.078,455.203 449.5,485C450.432,512.497 450.598,539.997 450,567.5C448.978,572.256 447.644,576.923 446,581.5C438.506,598.165 425.673,605.331 407.5,603C398.833,599.333 390.167,595.667 381.5,592C356.579,585.122 331.579,584.788 306.5,591C276.838,598.908 251.005,613.408 229,634.5C224.812,638.881 221.646,643.881 219.5,649.5C218.326,650.514 217.66,651.847 217.5,653.5C215.668,658.829 214.668,664.329 214.5,670C220.76,703.469 209.094,728.135 179.5,744C173.719,746.428 167.719,747.928 161.5,748.5C163.363,770.719 175.03,784.886 196.5,791C204.424,793.294 212.424,793.794 220.5,792.5C237.886,790.211 252.386,782.544 264,769.5C268.479,763.613 271.145,756.946 272,749.5C272.5,725.836 272.667,702.169 272.5,678.5C274.484,647.02 288.484,622.52 314.5,605C321.161,600.093 328.161,599.427 335.5,603C342.157,609.748 343.157,617.248 338.5,625.5C318.076,636.783 306.576,654.117 304,677.5C303.956,704.874 303.29,732.207 302,759.5C297.03,777.457 287.53,792.457 273.5,804.5C251.953,819.722 227.953,826.555 201.5,825C193.7,823.633 186.033,821.8 178.5,819.5C144.807,803.388 128.141,776.388 128.5,738.5C129.234,722.167 131.9,706.167 136.5,690.5C138.467,685 140.3,679.333 142,673.5C148.322,663.589 156.822,661.089 167.5,666C171.42,668.416 173.42,671.916 173.5,676.5C169.753,689.406 166.419,702.406 163.5,715.5C177.81,711.962 185.143,702.462 185.5,687C184.305,679.524 183.305,672.024 182.5,664.5C182.442,658.834 183.442,653.5 185.5,648.5ZM409.5,402.5C417.814,406.415 426.48,409.415 435.5,411.5C441.597,405.514 447.597,399.348 453.5,393C459.566,388.605 465.9,384.605 472.5,381C521.255,362.688 562.588,373.188 596.5,412.5C605.527,409.435 614.527,406.269 623.5,403C636.277,396.888 644.777,387.055 649,373.5C654.952,340.118 653.286,307.118 644,274.5C631.873,232.353 607.706,199.187 571.5,175C526.354,150.997 484.02,154.831 444.5,186.5C436.505,193.662 429.005,201.329 422,209.5C390.158,252.512 376.492,300.846 381,354.5C381.06,376.31 390.56,392.31 409.5,402.5ZM535.5,524.5C529.277,526.305 522.944,527.639 516.5,528.5C509.591,528.182 502.924,526.848 496.5,524.5C477.187,515.828 466.854,500.828 465.5,479.5C466.418,462.532 474.751,457.532 490.5,464.5C495.243,469.885 497.743,476.219 498,483.5C500.641,491.141 505.974,495.474 514,496.5C522.312,496.695 528.646,493.362 533,486.5C534.561,480.124 536.228,473.79 538,467.5C548.73,457.267 557.73,458.6 565,471.5C568.18,496.478 558.347,514.145 535.5,524.5ZM572.5,735.5C584.635,711.777 584.468,688.111 572,664.5C567.039,659.423 561.539,654.923 555.5,651C531.649,628.881 523.483,601.714 531,569.5C535.032,562.236 541.199,559.403 549.5,561C555.94,563.773 559.774,568.606 561,575.5C555.978,600.482 563.811,619.982 584.5,634C602.919,646.354 623.252,651.354 645.5,649C654.849,651.765 662.683,656.932 669,664.5C687.422,690.512 695.088,719.512 692,751.5C690.311,762.568 686.645,772.901 681,782.5C674.07,790.69 668.404,799.69 664,809.5C661.09,819.404 660.756,829.404 663,839.5C670.938,856.231 683.438,861.397 700.5,855C704.381,852.072 706.881,848.239 708,843.5C709.045,836.875 709.711,830.208 710,823.5C714.966,814.37 722.466,811.537 732.5,815C736.58,817.312 739.08,820.812 740,825.5C742.713,841.491 740.046,856.491 732,870.5C713.174,892.868 690.341,898.034 663.5,886C641.229,872.647 629.896,852.814 629.5,826.5C630.557,806.244 637.391,788.244 650,772.5C661.361,752.241 663.694,730.908 657,708.5C650.281,684.294 634.447,674.294 609.5,678.5C611.947,685.947 612.947,693.614 612.5,701.5C612.641,708.93 611.974,716.263 610.5,723.5C597.779,752.946 583.945,781.946 569,810.5C565.043,820.029 561.876,829.696 559.5,839.5C558.83,845.14 560.164,850.14 563.5,854.5C564.723,857.274 566.223,859.941 568,862.5C577.428,873.098 587.928,882.431 599.5,890.5C611.434,896.135 614.267,904.802 608,916.5C602.996,923.023 596.496,925.19 588.5,923C567.351,909.35 549.684,892.184 535.5,871.5C531.018,862.378 529.018,852.711 529.5,842.5C532.377,820.538 539.044,799.871 549.5,780.5C556.613,765.12 564.28,750.12 572.5,735.5ZM501.5,620.5C495.945,634.941 486.612,646.275 473.5,654.5C458.788,663.563 450.955,676.896 450,694.5C448.702,703.457 449.702,712.123 453,720.5C470.981,752.13 485.981,785.13 498,819.5C505.675,840.075 503.342,859.408 491,877.5C482.336,888.33 472.836,898.33 462.5,907.5C455.6,913.225 448.267,918.392 440.5,923C431.074,925.536 424.574,922.369 421,913.5C419.62,907.007 420.62,901.007 424,895.5C439.843,885.991 453.51,873.991 465,859.5C471.105,849.351 472.105,838.685 468,827.5C462.484,811.474 456.151,795.807 449,780.5C438.335,761.501 429.001,741.834 421,721.5C417.793,707.134 417.96,692.801 421.5,678.5C400.802,674.098 386.302,681.431 378,700.5C371.602,717.721 369.935,735.387 373,753.5C374.449,758.399 376.449,763.065 379,767.5C385.06,775.897 390.727,784.563 396,793.5C405.028,816.074 404.361,838.407 394,860.5C377.823,885.561 354.989,895.728 325.5,891C305.115,883.608 293.615,869.108 291,847.5C290.333,840.167 290.333,832.833 291,825.5C291.472,821.89 292.972,818.89 295.5,816.5C298.2,814.653 301.2,813.653 304.5,813.5C313.058,813.234 318.225,817.234 320,825.5C320.35,832.267 321.35,838.933 323,845.5C324.524,847.898 326.024,850.231 327.5,852.5C336.453,859.552 346.119,860.386 356.5,855C364.407,850.028 368.907,842.862 370,833.5C371.594,814.359 365.594,798.026 352,784.5C341.491,765.118 337.824,744.451 341,722.5C343.363,700.401 351.03,680.401 364,662.5C368.692,656.469 374.525,651.969 381.5,649C391.784,647.796 402.118,647.13 412.5,647C418.914,646.05 425.248,644.717 431.5,643C433.066,642.392 434.4,641.558 435.5,640.5C466.604,628.987 479.104,606.654 473,573.5C474.5,566.667 478.667,562.5 485.5,561C493.884,559.607 499.717,562.773 503,570.5C504.065,577.615 504.565,584.781 504.5,592C504.921,601.691 503.921,611.191 501.5,620.5ZM510.5,695.5C520.368,694.598 527.201,698.598 531,707.5C531.667,722.5 531.667,737.5 531,752.5C528.14,766.847 519.973,771.014 506.5,765C502.913,761.995 500.746,758.162 500,753.5C499.333,737.5 499.333,721.5 500,705.5C502.106,700.557 505.606,697.224 510.5,695.5Z"/>
    </g>
</svg>
