<?xml version="1.0" encoding="UTF-8" standalone="no"?>
<!DOCTYPE svg PUBLIC "-//W3C//DTD SVG 1.1//EN" "http://www.w3.org/Graphics/SVG/1.1/DTD/svg11.dtd">
<svg width="100%" height="100%" viewBox="0 0 1024 1024" version="1.1" xmlns="http://www.w3.org/2000/svg" xmlns:xlink="http://www.w3.org/1999/xlink" xml:space="preserve" xmlns:serif="http://www.serif.com/" style="fill-rule:evenodd;clip-rule:evenodd;stroke-linejoin:round;stroke-miterlimit:2;">
    <g transform="matrix(1.24831,0,0,1.24831,-136.612,-129.302)">
        <path d="M109.5,469.5C109.192,464.629 110.025,459.963 112,455.5C126.86,418.437 145.86,383.77 169,351.5L177,335.5C183.214,302.851 194.547,272.184 211,243.5L212.5,242C216.167,241.333 219.833,241.333 223.5,242C248.771,250.535 274.104,258.868 299.5,267C301.167,267.667 302.833,267.667 304.5,267C306.063,265.053 308.063,263.886 310.5,263.5C378.984,218.726 453.984,191.892 535.5,183C616.667,179.677 683.833,208.51 737,269.5C757.725,292.592 774.725,318.258 788,346.5C789.727,349.618 790.561,352.951 790.5,356.5C857.303,367.815 901.47,405.482 923,469.5C936.286,520.492 929.953,568.826 904,614.5C878.823,651.478 843.989,673.144 799.5,679.5C795.381,680.738 791.047,681.571 786.5,682C768.513,683.99 751.013,682.156 734,676.5C734.032,678.598 734.699,680.598 736,682.5C752.253,704.787 773.253,720.787 799,730.5C799.813,738.08 799.647,745.58 798.5,753C784.042,758.792 769.042,761.292 753.5,760.5C735.277,759.039 717.943,754.206 701.5,746C681.344,734.852 663.177,721.019 647,704.5C640.95,697.572 634.784,690.739 628.5,684C621.508,683.5 614.508,683.334 607.5,683.5C581.411,683.982 555.411,683.482 529.5,682C527.765,679.808 526.598,677.308 526,674.5C525.828,650.594 525.328,626.761 524.5,603C495.928,602.829 467.428,602.329 439,601.5C438.308,602.437 438.475,603.103 439.5,603.5C484.266,645.349 498.099,696.015 481,755.5C460.776,807.385 422.942,836.885 367.5,844C315.985,848.649 273.818,831.149 241,791.5C205.469,737.28 207.135,684.28 246,632.5C256.24,620.411 268.074,610.411 281.5,602.5C279.939,601.606 277.606,601.606 274.5,602.5C258.497,602.333 242.497,602.5 226.5,603C225.473,603.513 224.473,604.013 223.5,604.5C213.232,611.31 202.899,618.143 192.5,625C187.232,628.919 183.566,633.919 181.5,640C185.736,655.619 181.736,668.619 169.5,679C144.313,691.06 126.646,684.227 116.5,658.5C111.272,638.145 115.105,619.479 128,602.5C146.871,579.992 170.038,563.159 197.5,552C208.936,546.521 220.936,542.855 233.5,541C277.167,540.333 320.833,540.333 364.5,541C367,541.375 369.333,542.208 371.5,543.5C378.574,535.763 386.574,529.096 395.5,523.5C389.181,516.343 383.014,509.01 377,501.5C347.552,517.993 315.885,525.993 282,525.5C238.655,525.035 196.821,517.035 156.5,501.5C153.758,499.067 152.925,496.067 154,492.5C155.273,489.403 157.107,486.736 159.5,484.5C160.817,484.179 162.151,483.846 163.5,483.5C188.388,491.711 213.721,498.211 239.5,503C270.732,508.401 301.732,507.401 332.5,500C367.17,492.651 390.67,472.484 403,439.5C408.057,416.849 405.39,395.183 395,374.5C373.029,335.42 341.529,306.753 300.5,288.5C288.294,283.709 275.961,279.209 263.5,275C249.677,271.673 236.177,267.506 223,262.5C216.193,273.415 211.026,285.081 207.5,297.5C203.606,310.696 199.773,324.03 196,337.5C193.333,343.5 190.667,349.5 188,355.5C177.751,373.671 166.751,391.337 155,408.5C150.02,416.792 145.854,425.459 142.5,434.5C138.374,441.759 135.041,449.425 132.5,457.5C162.888,457.976 193.221,456.976 223.5,454.5C250.876,451.988 278.209,448.155 305.5,443C330.542,436.963 342.209,420.963 340.5,395C339.889,375.29 333.056,358.123 320,343.5C321.268,364.129 312.768,379.296 294.5,389C263.825,399.744 242.992,389.911 232,359.5C227.264,338.712 232.764,321.212 248.5,307C263.188,298.04 278.521,297.04 294.5,304C316.259,313.755 333.759,328.589 347,348.5C359.559,370.856 362.892,394.523 357,419.5C350.965,438.2 338.799,451.033 320.5,458C307.569,462.899 294.236,466.233 280.5,468C226.428,475.587 172.095,478.42 117.5,476.5C113.571,475.569 110.905,473.236 109.5,469.5ZM531.5,202.5C512.481,205.117 493.481,208.617 474.5,213C424.422,225.709 377.088,245.042 332.5,271C348.953,278.14 365.786,284.307 383,289.5C384.967,289.458 386.801,288.958 388.5,288C401.403,279.38 415.069,272.047 429.5,266C514.152,239.731 590.485,254.731 658.5,311C675.032,327.366 690.699,344.533 705.5,362.5C726.508,357.429 747.842,355.096 769.5,355.5C767.383,350.935 765.55,346.269 764,341.5C750.607,316.714 734.274,294.048 715,273.5C665.203,221.495 604.036,197.828 531.5,202.5ZM634.5,577.5C612.834,533.617 607.667,487.617 619,439.5C622.542,427.079 627.209,415.079 633,403.5C635.312,400.354 637.812,397.354 640.5,394.5C619.238,357.741 587.904,334.574 546.5,325C517.506,320.588 491.006,326.755 467,343.5C466.333,344.5 466.333,345.5 467,346.5C490.435,387.184 525.601,411.684 572.5,420C580.885,420.764 589.218,421.764 597.5,423C602.383,428.058 602.716,433.391 598.5,439C589.646,441.968 580.646,442.301 571.5,440C512.964,429.11 470.13,397.277 443,344.5C442.479,339.37 444.312,335.203 448.5,332C509.553,291.42 567.886,295.087 623.5,343C636.236,355.999 647.903,369.832 658.5,384.5C667.176,379.602 676.176,375.268 685.5,371.5C635.18,298.41 565.513,265.91 476.5,274C445.754,278.711 417.754,290.045 392.5,308C389.702,309.734 386.702,310.901 383.5,311.5C378.956,310.23 374.623,308.397 370.5,306C363.863,301.577 357.196,298.077 350.5,295.5C365.749,306.581 379.249,319.581 391,334.5C418.269,366.987 428.936,404.32 423,446.5C442.241,458.208 462.074,469.041 482.5,479C496.639,485.413 505.472,496.246 509,511.5C511.727,520.981 513.227,530.647 513.5,540.5C537.836,540.333 562.169,540.5 586.5,541C588.667,541.833 590.167,543.333 591,545.5C591.667,548.833 591.667,552.167 591,555.5C589.786,557.049 588.286,558.215 586.5,559C580.474,558.605 574.474,558.772 568.5,559.5C549.497,559.333 530.497,559.5 511.5,560C498.89,568.135 485.89,575.469 472.5,582C526.49,583.818 580.49,583.985 634.5,582.5C635.239,582.631 635.906,582.464 636.5,582C635.418,580.67 634.751,579.17 634.5,577.5ZM364.5,583.5L364.5,558.5C320.862,559.318 277.196,559.818 233.5,560C203.437,568.279 176.604,582.446 153,602.5C141.908,614.018 135.074,627.685 132.5,643.5C132.753,645.858 133.086,648.192 133.5,650.5C136.466,661.967 143.8,666.801 155.5,665C160.949,664.059 163.615,660.893 163.5,655.5C160.648,643.288 162.482,631.954 169,621.5C185.2,605.646 203.7,593.146 224.5,584C271.165,583.5 317.832,583.333 364.5,583.5ZM703.5,664.5C705.604,664.799 707.604,664.466 709.5,663.5C709.376,662.893 709.043,662.56 708.5,662.5C704.385,660.225 700.385,657.725 696.5,655C677.047,640.879 661.047,623.546 648.5,603C629.995,602.171 611.662,602.338 593.5,603.5C604.119,618.974 608.286,635.974 606,654.5C604.878,656.624 603.378,658.457 601.5,660C595.26,661.463 590.76,659.297 588,653.5C588.062,634.654 582.229,617.987 570.5,603.5L570.5,602.5L543.5,602.5L543.5,664.5L703.5,664.5ZM725.5,734.5C740.742,739.715 756.409,741.882 772.5,741C748.303,727.303 729.303,708.47 715.5,684.5C700.848,683.501 686.182,683.167 671.5,683.5C665.794,683.171 660.128,683.505 654.5,684.5C674.325,706.664 697.991,723.33 725.5,734.5ZM306.5,610.5C256.372,634.051 232.872,673.717 236,729.5C243.181,770.686 266.014,799.519 304.5,816C342.98,829.517 380.314,826.85 416.5,808C444.147,790.244 460.98,765.077 467,732.5C473.067,691.382 462.234,655.549 434.5,625C426.308,618.302 418.308,611.469 410.5,604.5C408.973,604.573 407.973,603.906 407.5,602.5L399.5,602.5C375.425,602.177 351.425,602.51 327.5,603.5L327.5,604.5C325.572,606.474 323.239,607.974 320.5,609C315.816,609.435 311.149,609.935 306.5,610.5ZM398.5,618.5C404.661,617.331 409.494,619.331 413,624.5C437.024,651.572 448.024,683.238 446,719.5C439.972,760.422 417.138,786.589 377.5,798C334.117,807.554 298.95,794.721 272,759.5C258.564,736.74 256.897,713.074 267,688.5C282.053,656.557 306.553,635.723 340.5,626C344.5,625.333 348.5,625.333 352.5,626C358.779,631.334 359.113,637.001 353.5,643C315.229,651.273 290.396,674.106 279,711.5C277.176,723.366 279.509,734.366 286,744.5C313.726,781.891 348.893,791.057 391.5,772C420.053,753.037 431.553,726.537 426,692.5C421.391,669.236 410.724,649.236 394,632.5C393.333,629.5 393.333,626.5 394,623.5C395.707,621.963 397.207,620.296 398.5,618.5ZM357.5,673.5C388.081,671.581 402.581,685.914 401,716.5C396.417,737.047 383.583,746.88 362.5,746C336.197,738.554 326.697,721.721 334,695.5C339.463,685.534 347.296,678.201 357.5,673.5ZM363.5,691.5C359.939,693.55 356.772,696.217 354,699.5C347.388,711.129 349.888,719.963 361.5,726C378.427,728.067 385.26,720.567 382,703.5C379.124,694.634 372.957,690.634 363.5,691.5ZM266.5,318.5C259.855,321.647 255.021,326.647 252,333.5C246.974,346.485 249.14,357.985 258.5,368C271.016,375.689 283.183,375.189 295,366.5C302.366,355.738 303.366,344.405 298,332.5C290.311,321.761 279.811,317.095 266.5,318.5ZM270.5,329.5C285.263,329.734 290.429,336.734 286,350.5C280.942,358.074 274.109,360.241 265.5,357C259.833,351.681 257.999,345.181 260,337.5C262.539,333.49 266.039,330.824 270.5,329.5ZM495.5,543.5C494.168,531.065 491.668,518.732 488,506.5C487.215,504.714 486.049,503.214 484.5,502C460.546,489.69 436.879,476.856 413.5,463.5C406.865,472.476 400.198,481.476 393.5,490.5C398.727,498.565 404.893,505.899 412,512.5C412.483,513.448 412.649,514.448 412.5,515.5C415.016,515.245 417.35,514.411 419.5,513C432.78,511.598 436.78,516.931 431.5,529C415.151,533.26 400.651,541.094 388,552.5C383.652,560.621 382.319,569.288 384,578.5C385.836,581.17 388.336,582.837 391.5,583.5C406.837,583.667 422.17,583.5 437.5,583C456.333,571.082 475.333,559.416 494.5,548C495.38,546.644 495.714,545.144 495.5,543.5ZM715.5,644.5C743.97,662.307 774.637,667.141 807.5,659C851.06,649.106 881.56,623.606 899,582.5C912.429,546.406 914.096,509.739 904,472.5C883.155,413.293 841.322,380.793 778.5,375C746.976,373.116 716.643,378.116 687.5,390C677.147,395.035 666.814,400.035 656.5,405C652.388,409.391 648.888,414.224 646,419.5C625.866,472.294 628.366,523.961 653.5,574.5C667.511,603.838 688.178,627.171 715.5,644.5ZM771.5,401.5C830.385,402.344 867.885,431.011 884,487.5C891.482,524.763 884.148,558.763 862,589.5C835.687,618.486 803.52,627.652 765.5,617C719.345,596.821 692.845,561.654 686,511.5C683.32,468.691 699.82,435.858 735.5,413C747.139,407.599 759.139,403.766 771.5,401.5ZM767.5,421.5C739.851,428.31 720.684,444.977 710,471.5C699.022,508.917 706.356,542.25 732,571.5C744.352,585.43 759.519,594.93 777.5,600C803.744,605.655 826.244,599.155 845,580.5C864.574,554.196 871.241,524.862 865,492.5C851.206,443.212 818.706,419.546 767.5,421.5ZM787.5,478.5C812.233,475.843 826.566,486.677 830.5,511C829.349,523.111 825.516,534.278 819,544.5C807.705,556.782 793.872,561.282 777.5,558C761.95,551.279 753.617,539.445 752.5,522.5C754.591,500.089 766.258,485.422 787.5,478.5ZM792.5,496.5C782.851,499.983 776.351,506.65 773,516.5C771.167,533.333 778.667,540.833 795.5,539C803.536,534.918 808.369,528.418 810,519.5C813.351,504.697 807.517,497.03 792.5,496.5Z"/>
    </g>
</svg>
