<?xml version="1.0" encoding="UTF-8" standalone="no"?>
<!DOCTYPE svg PUBLIC "-//W3C//DTD SVG 1.1//EN" "http://www.w3.org/Graphics/SVG/1.1/DTD/svg11.dtd">
<svg width="100%" height="100%" viewBox="0 0 1024 1024" version="1.1" xmlns="http://www.w3.org/2000/svg" xmlns:xlink="http://www.w3.org/1999/xlink" xml:space="preserve" xmlns:serif="http://www.serif.com/" style="fill-rule:evenodd;clip-rule:evenodd;stroke-linejoin:round;stroke-miterlimit:2;">
    <g transform="matrix(1.55669,0,0,1.55669,-234.281,-335.424)">
        <path d="M364.5,823.5L351.5,823.5C342.657,816.065 342.324,808.231 350.5,800C362.758,798.561 375.091,798.061 387.5,798.5C387.667,747.166 387.5,695.832 387,644.5C379.103,617.867 381.436,592.2 394,567.5C396.5,564.333 399,561.167 401.5,558C417.363,551.863 423.196,557.03 419,573.5C408.282,592.717 405.616,613.05 411,634.5C411.5,689.166 411.667,743.832 411.5,798.5L441.5,798.5C441.334,789.827 441.5,781.16 442,772.5C444.213,768.311 447.713,766.644 452.5,767.5C457.427,766.884 461.26,768.551 464,772.5C465.414,781.418 465.914,790.418 465.5,799.5L472.5,799.5C472.333,736.499 472.5,673.499 473,610.5C478.972,602.74 486.138,601.574 494.5,607C498.548,610.716 502.882,614.05 507.5,617C519.438,618.415 531.438,618.915 543.5,618.5C562.17,618.667 580.836,618.5 599.5,618C616.326,617.345 630.659,611.178 642.5,599.5C636.195,591.931 635.028,583.598 639,574.5C645.311,569.107 652.144,568.274 659.5,572C661.81,573.637 663.31,575.804 664,578.5C676.527,624.939 689.527,671.272 703,717.5C704.6,724.435 705.767,731.435 706.5,738.5C706.665,741.518 706.498,744.518 706,747.5C701.13,754.906 697.63,762.906 695.5,771.5C693.519,778.089 691.853,784.756 690.5,791.5C689.434,793.701 688.767,796.035 688.5,798.5L739.5,798.5C739.333,786.829 739.5,775.162 740,763.5C741.577,752.282 743.411,741.115 745.5,730C744.095,721.168 742.595,712.335 741,703.5C736.952,688.258 733.285,672.924 730,657.5C729.798,626.154 730.464,594.821 732,563.5C738.851,554.605 746.185,554.271 754,562.5C754.977,564.74 755.477,567.073 755.5,569.5C755.667,582.171 755.5,594.838 755,607.5C753.665,620.837 752.665,634.171 752,647.5C759.995,674.308 766.162,701.475 770.5,729C768.74,742.548 766.573,756.048 764,769.5C763.667,786.5 763.333,803.5 763,820.5C762.626,821.416 762.126,822.25 761.5,823C629.167,823.5 496.834,823.667 364.5,823.5ZM627.5,681.5C623.032,667.284 620.032,652.618 618.5,637.5C613.755,639.866 608.755,641.699 603.5,643C572.167,643.667 540.833,643.667 509.5,643C505.423,641.213 501.59,639.046 498,636.5C497.601,636.728 497.435,637.062 497.5,637.5L497.5,797.5C538.997,798.499 580.663,798.832 622.5,798.5C626.405,780.543 631.071,762.876 636.5,745.5C638.254,740.296 638.754,734.962 638,729.5C633.865,713.627 630.365,697.627 627.5,681.5ZM660.5,752.5C655.623,767.508 651.29,782.675 647.5,798C653.157,798.499 658.824,798.666 664.5,798.5C665.574,786.792 667.908,775.458 671.5,764.5C674.125,753.79 677.459,743.29 681.5,733C672.009,697.026 662.009,661.193 651.5,625.5C648.853,628.157 645.853,630.323 642.5,632C649.455,663.774 656.289,695.608 663,727.5C663.529,735.967 662.695,744.301 660.5,752.5ZM659.5,370.5C655.316,367.345 650.65,365.011 645.5,363.5C642.906,364.592 640.739,366.259 639,368.5C636.941,372.677 635.274,377.01 634,381.5C632.751,400.852 626.751,418.518 616,434.5C612.298,438.37 608.464,442.037 604.5,445.5C579.135,462.447 555.969,459.78 535,437.5C527.541,428.919 521.874,419.253 518,408.5C515.468,394.828 511.801,381.495 507,368.5C504.838,364.632 501.672,363.132 497.5,364C489.452,367.687 481.785,371.853 474.5,376.5C461.496,382.01 453.329,391.677 450,405.5C448.274,419.417 443.941,432.417 437,444.5C432.977,450.014 428.81,455.347 424.5,460.5C416.865,466.603 408.531,471.77 399.5,476C385.608,481.549 372.274,480.549 359.5,473C341.748,458.558 330.581,440.058 326,417.5C325.408,384.15 325.408,350.817 326,317.5C324.213,313.423 322.046,309.59 319.5,306C308.258,306.59 302.925,301.423 303.5,290.5C290.163,290.333 276.829,290.5 263.5,291C259.686,293.647 256.353,296.813 253.5,300.5C257.868,302.234 262.202,304.068 266.5,306C275.04,314.649 274.374,322.316 264.5,329C257.751,330.331 251.418,329.331 245.5,326C241.682,322.027 238.349,317.694 235.5,313C217.089,312.877 198.756,313.544 180.5,315C177.527,317.448 176.027,320.614 176,324.5C175.5,336.495 175.333,348.495 175.5,360.5C189.374,360.679 203.207,360.012 217,358.5C220.888,358.594 224.721,359.094 228.5,360C237.264,368.216 247.597,373.55 259.5,376C262.783,377.561 265.617,379.727 268,382.5C268.955,425.247 273.955,467.58 283,509.5C291.289,544.295 310.456,571.128 340.5,590C349.292,594.532 358.626,597.198 368.5,598C370.667,598.833 372.167,600.333 373,602.5C376.349,618.14 370.182,625.307 354.5,624C300.472,601.293 267.639,561.126 256,503.5C248.876,468.511 245.376,433.178 245.5,397.5C241.219,396.864 237.219,395.364 233.5,393C229.644,389.643 225.644,386.476 221.5,383.5L215.5,385C206,385.167 196.5,385.333 187,385.5C176.739,385.644 166.572,385.144 156.5,384C153.412,381.924 151.579,379.091 151,375.5C150.333,357.5 150.333,339.5 151,321.5C152.536,310.261 157.369,300.761 165.5,293C168.618,291.107 171.951,289.774 175.5,289C192.5,288.667 209.5,288.333 226.5,288C236.282,277.926 247.949,270.593 261.5,266C276.212,265.184 290.878,265.35 305.5,266.5C320.968,262.276 329.301,268.276 330.5,284.5C341.113,290.049 347.613,298.715 350,310.5C350.333,344.833 350.667,379.167 351,413.5C353.183,428.037 359.683,440.203 370.5,450C382.758,455.219 394.092,453.552 404.5,445C413.243,437.681 419.076,428.514 422,417.5C424.594,399.337 431.261,383.004 442,368.5C457.298,355.885 474.131,345.719 492.5,338C510.789,335.27 523.622,342.437 531,359.5C534.177,373.208 537.51,386.875 541,400.5C543.826,412.005 549.992,421.172 559.5,428C570.363,433.018 580.697,432.018 590.5,425C597.239,418.357 602.073,410.524 605,401.5C607.774,389.191 610.44,376.857 613,364.5C619.502,341.837 634.002,333.671 656.5,340C673.082,348.594 688.582,358.761 703,370.5C707.773,377.044 711.773,384.044 715,391.5C718.294,402.008 720.96,412.674 723,423.5C726.007,434.519 731.34,444.185 739,452.5C752.472,464.302 764.139,477.635 774,492.5C782.211,507.802 785.877,524.135 785,541.5C788.007,552.519 793.34,562.185 801,570.5C806.87,580.432 809.204,591.099 808,602.5C802.854,609.709 796.854,610.376 790,604.5C787.584,599.754 785.917,594.754 785,589.5C783.414,587.33 782.08,584.996 781,582.5C776.581,578.15 772.248,573.816 768,569.5C761.312,555.646 758.312,540.979 759,525.5C756.462,511.98 750.795,499.98 742,489.5C732.333,479.167 722.667,468.833 713,458.5C707.144,450.283 702.811,441.283 700,431.5C697.256,421.265 694.922,410.932 693,400.5C688.982,392.146 683.148,385.313 675.5,380C670.28,376.607 664.947,373.44 659.5,370.5ZM449.5,678.5C457.277,677.342 462.444,680.342 465,687.5C465.667,708.833 465.667,730.167 465,751.5C462.698,760.74 456.865,763.907 447.5,761C445.083,759.337 443.25,757.171 442,754.5C441.333,731.167 441.333,707.833 442,684.5C443.707,681.41 446.207,679.41 449.5,678.5Z"/>
    </g>
</svg>
