<?xml version="1.0" encoding="UTF-8" standalone="no"?>
<!DOCTYPE svg PUBLIC "-//W3C//DTD SVG 1.1//EN" "http://www.w3.org/Graphics/SVG/1.1/DTD/svg11.dtd">
<svg width="100%" height="100%" viewBox="0 0 1024 1024" version="1.1" xmlns="http://www.w3.org/2000/svg" xmlns:xlink="http://www.w3.org/1999/xlink" xml:space="preserve" xmlns:serif="http://www.serif.com/" style="fill-rule:evenodd;clip-rule:evenodd;stroke-linejoin:round;stroke-miterlimit:2;">
    <g transform="matrix(1.28567,0,0,1.28567,-109.923,-240.159)">
        <path d="M595.5,940.5C560.494,909.658 525.994,878.324 492,846.5C481.604,831.6 480.938,816.266 490,800.5C495.864,794.301 502.031,788.468 508.5,783C526.682,769.074 544.682,754.908 562.5,740.5C552.74,733.577 543.406,726.077 534.5,718C530.84,718.151 527.506,719.485 524.5,722C495.566,745.466 465.566,767.466 434.5,788C416.754,797.853 397.754,802.187 377.5,801C293.504,791.444 229.338,750.944 185,679.5C158.939,635.525 149.939,588.191 158,537.5C163.321,513.531 172.987,491.531 187,471.5C208.465,443.024 231.798,416.024 257,390.5C266.503,379.327 274.836,367.327 282,354.5C291.228,334.162 291.895,313.495 284,292.5C278.254,281.34 272.254,270.34 266,259.5C263.261,248.249 267.595,241.916 279,240.5C281.732,240.615 284.232,241.448 286.5,243C299.538,259.574 309.038,278.074 315,298.5C321.3,327.662 316.3,354.662 300,379.5C284.206,401.638 266.54,422.304 247,441.5C230.134,460.361 214.801,480.361 201,501.5C180.306,539.797 176.306,579.797 189,621.5C208.887,681.426 247.054,725.593 303.5,754C331.413,766.979 360.746,773.312 391.5,773C404.821,771.449 417.155,767.115 428.5,760C458.859,737.819 488.859,715.153 518.5,692C526.805,687.395 535.139,687.395 543.5,692C562.272,706.107 580.439,720.94 598,736.5C600.084,742.759 598.584,748.092 593.5,752.5C569.309,771.192 544.975,789.692 520.5,808C517.281,811.552 514.448,815.385 512,819.5C510.97,824.28 511.97,828.613 515,832.5C528.696,844.699 542.196,857.033 555.5,869.5C577.37,889.537 599.703,909.037 622.5,928C627.626,933.679 631.46,940.179 634,947.5C642.477,957.273 651.477,957.939 661,949.5C666.583,936.764 665.25,924.764 657,913.5C654.049,910.428 651.216,907.261 648.5,904C632.202,890.037 616.202,875.704 600.5,861C587.833,850.333 575.167,839.667 562.5,829C558.584,825.421 555.917,821.088 554.5,816C555.125,812.416 556.792,809.416 559.5,807C564.833,803.667 570.167,800.333 575.5,797L623.5,761C630.596,755.908 637.096,750.074 643,743.5C648.25,734.562 649.584,725.229 647,715.5C645.254,711.673 643.254,708.007 641,704.5C625.946,684.446 611.279,664.113 597,643.5C590.026,629.669 586.026,615.003 585,599.5C576.067,559.615 551.567,543.782 511.5,552C497.414,557.716 485.414,566.383 475.5,578C467.247,583.305 459.747,582.472 453,575.5C449.438,566.349 451.605,558.849 459.5,553C468.322,546.089 477.322,539.423 486.5,533C514.639,518.073 542.972,517.74 571.5,532C581.224,538.936 589.724,547.102 597,556.5C595.709,547.245 595.376,537.911 596,528.5C598.541,516.312 604.708,506.479 614.5,499C621.748,494.989 628.248,495.822 634,501.5C635.917,506.278 635.583,510.945 633,515.5C627.404,523.193 623.571,531.693 621.5,541C623.639,547.136 627.306,552.136 632.5,556C651.443,568.61 670.109,581.61 688.5,595C693.634,599.133 698.468,603.633 703,608.5C708.408,617.389 709.741,626.722 707,636.5C709.592,633.238 712.759,630.738 716.5,629C730.233,614.361 729.233,600.694 713.5,588C696.167,576.667 678.833,565.333 661.5,554C648.873,543.15 647.373,530.984 657,517.5C662.377,511.792 667.377,505.792 672,499.5C676.881,490.76 678.548,481.426 677,471.5C673.134,462.235 669.468,452.901 666,443.5C665.216,435.901 668.05,430.067 674.5,426C679.303,424.065 684.303,423.232 689.5,423.5C706.619,425.529 723.619,428.362 740.5,432C749.167,432.667 757.833,432.667 766.5,432C772.92,429.08 777.92,424.58 781.5,418.5C771.227,402.289 761.727,385.623 753,368.5C727.447,335.648 693.947,321.982 652.5,327.5C648.191,337.169 640.858,343.335 630.5,346C619.231,354.876 613.897,366.543 614.5,381C620.506,406.513 616.672,430.346 603,452.5C596.398,460.878 587.898,463.711 577.5,461C554.914,454.416 531.914,449.749 508.5,447C451.851,446.067 406.351,467.9 372,512.5C345.21,550.911 339.877,592.244 356,636.5C364.068,652.307 373.402,667.307 384,681.5C390.62,693.116 388.12,701.949 376.5,708C329.617,710.035 290.117,693.868 258,659.5C228.407,625.035 217.74,585.368 226,540.5C228.625,529.002 232.625,518.002 238,507.5C244.667,496.833 251.333,486.167 258,475.5C277.333,448.833 296.667,422.167 316,395.5C328.448,376.489 336.781,355.823 341,333.5C343.241,315.521 340.908,298.188 334,281.5C329.095,270.685 323.428,260.352 317,250.5C313.25,243.356 314.083,236.856 319.5,231C328.357,226.512 335.523,228.345 341,236.5C353.795,254.759 362.795,274.759 368,296.5C373.279,329.775 367.612,361.108 351,390.5C329.835,423.329 307.502,455.329 284,486.5C276.75,497.331 269.75,508.331 263,519.5C242.663,565.117 248.497,606.951 280.5,645C300.01,663.589 323.01,675.589 349.5,681C300.73,600.52 310.73,528.187 379.5,464C425.488,426.681 477.821,413.014 536.5,423C551.007,426.503 565.507,430.003 580,433.5C582.477,433.244 584.144,431.911 585,429.5C587.461,422.735 588.627,415.735 588.5,408.5C582.992,383.495 586.326,359.828 598.5,337.5C554.129,305.256 536.629,261.923 546,207.5C548.769,196.896 555.602,191.229 566.5,190.5C579.744,192.525 592.077,197.025 603.5,204C611.265,209.761 618.431,216.261 625,223.5C632.079,183.284 651.246,176.117 682.5,202C713.361,231.244 726.861,267.077 723,309.5C737.249,316.289 749.915,325.289 761,336.5C766.333,343.167 771.667,349.833 777,356.5C784.3,369.813 791.634,383.147 799,396.5C802.298,400.8 805.965,404.8 810,408.5C813.668,416.5 813.001,424.167 808,431.5C791.795,454.468 769.629,464.301 741.5,461C727.394,458.848 713.561,455.681 700,451.5C708.625,473.198 706.959,494.198 695,514.5C691.419,519.328 688.085,524.328 685,529.5C683.59,530.787 682.09,531.954 680.5,533C701.839,546.672 722.339,561.505 742,577.5C755.746,596.994 757.079,617.328 746,638.5L734.5,650C721.555,658.612 708.889,667.612 696.5,677C679.796,680.483 670.463,673.65 668.5,656.5C668.607,653.433 669.107,650.433 670,647.5C673.779,642.277 676.779,636.61 679,630.5C679.996,626.793 679.33,623.459 677,620.5C668.167,613.667 659.333,606.833 650.5,600C638.893,592.725 627.56,585.058 616.5,577C611.667,573.5 607.5,569.333 604,564.5C606.298,573.413 608.631,582.413 611,591.5C612.182,614.054 619.848,634.054 634,651.5C646.487,667.142 658.487,683.142 670,699.5C681.965,726.144 677.465,749.644 656.5,770C635.115,786.386 613.448,802.386 591.5,818C612.536,837.371 633.869,856.371 655.5,875C664.236,882.614 672.403,890.781 680,899.5C695.469,921.207 696.469,943.54 683,966.5C659.394,989.51 636.394,988.843 614,964.5C609.5,955.173 603.334,947.173 595.5,940.5ZM656.5,215.5C654.285,220.932 651.785,226.265 649,231.5C647.367,235.697 646.2,240.031 645.5,244.5C650.162,254.833 653.996,265.5 657,276.5C658.288,283.437 658.788,290.437 658.5,297.5C671.254,297.473 683.92,298.473 696.5,300.5C696.491,291.097 695.658,281.764 694,272.5C687.452,249.356 674.952,230.356 656.5,215.5ZM572.5,219.5C571.516,228.814 571.349,238.148 572,247.5C573.483,269.628 582.316,288.128 598.5,303C606.341,308.087 614.008,313.42 621.5,319C624.093,318.454 626.26,316.954 628,314.5C631.406,302.118 631.073,289.785 627,277.5C618.575,248.911 600.408,229.578 572.5,219.5ZM702.5,350.5C715.062,348.591 722.395,353.758 724.5,366C721.285,378.911 713.285,383.911 700.5,381C690.856,374.231 689.022,365.731 695,355.5C697.426,353.548 699.926,351.881 702.5,350.5Z"/>
    </g>
</svg>
