<?xml version="1.0" encoding="UTF-8" standalone="no"?>
<!DOCTYPE svg PUBLIC "-//W3C//DTD SVG 1.1//EN" "http://www.w3.org/Graphics/SVG/1.1/DTD/svg11.dtd">
<svg width="100%" height="100%" viewBox="0 0 1024 1024" version="1.1" xmlns="http://www.w3.org/2000/svg" xmlns:xlink="http://www.w3.org/1999/xlink" xml:space="preserve" xmlns:serif="http://www.serif.com/" style="fill-rule:evenodd;clip-rule:evenodd;stroke-linejoin:round;stroke-miterlimit:2;">
    <g transform="matrix(1.69226,0,0,1.69226,-396.856,-358.615)">
        <path d="M247.5,658.5C247.98,655.995 248.98,653.662 250.5,651.5C243.488,641.475 238.655,630.475 236,618.5C232.313,600.286 235.479,583.452 245.5,568C240.558,542.602 244.724,518.768 258,496.5C266.898,483.104 277.065,470.77 288.5,459.5C312.084,432.212 342.084,418.046 378.5,417C391.5,416.333 404.5,416.333 417.5,417C430.392,419.056 443.059,422.056 455.5,426C474.181,426.629 492.848,426.296 511.5,425C529.041,398.466 553.374,381.799 584.5,375C591.771,373.7 599.104,373.2 606.5,373.5C605.748,364.2 605.248,354.866 605,345.5C601.497,311.988 582.997,297.488 549.5,302C526.791,306.185 504.458,311.685 482.5,318.5C446.121,328.664 410.121,327.497 374.5,315C364.421,310.883 355.255,305.383 347,298.5C342.854,283.99 348.02,278.157 362.5,281C368.808,285.821 375.475,289.988 382.5,293.5C411.992,303.776 441.992,305.276 472.5,298C494.935,291.391 517.602,285.724 540.5,281C557.894,278.03 574.894,279.363 591.5,285C609.536,293.717 621.036,307.884 626,327.5C627.934,334.707 628.767,342.04 628.5,349.5L628.5,370.5C633.363,370.819 638.03,370.486 642.5,369.5C687.519,368.542 732.519,367.042 777.5,365C794.868,363.217 811.868,359.717 828.5,354.5C838.743,356.238 841.91,361.905 838,371.5C834.16,376.004 829.327,378.838 823.5,380C791.842,386.666 759.842,390.333 727.5,391C710.886,402.614 694.552,414.614 678.5,427C671.426,433.399 665.926,440.899 662,449.5C656.152,455.124 649.652,455.957 642.5,452C639.709,447.899 638.875,443.399 640,438.5C651.075,420.091 665.575,404.925 683.5,393C655.47,392.273 627.47,392.94 599.5,395C565.984,399.667 541.818,417.167 527,447.5C525.153,453.553 523.653,459.553 522.5,465.5C520.199,497.755 529.199,526.255 549.5,551C557.325,558.245 566.325,563.412 576.5,566.5C592.477,569.675 605.644,565.008 616,552.5C624.362,540.031 628.862,526.364 629.5,511.5C629.334,504.159 629.5,496.826 630,489.5C631.068,484.765 633.901,481.598 638.5,480C699.489,473.569 758.156,482.236 814.5,506C823.046,511.83 823.713,518.497 816.5,526C812.259,527.457 807.926,527.791 803.5,527C756.419,505.915 707.086,497.415 655.5,501.5C653.821,501.285 652.821,501.952 652.5,503.5C654.534,532.426 645.201,556.76 624.5,576.5C617.08,582.631 608.913,587.631 600,591.5C602.202,605.072 608.036,616.905 617.5,627L623.5,630C632.624,630.873 641.624,632.373 650.5,634.5C658.524,636.786 666.191,639.953 673.5,644C678.327,648.158 681.494,653.325 683,659.5C683.552,683.84 683.885,708.173 684,732.5C677.333,739.167 670.667,739.167 664,732.5C662.25,729.754 661.25,726.754 661,723.5C659.965,705.181 659.299,686.848 659,668.5C657.257,663.09 653.757,659.256 648.5,657C637.496,655.375 626.496,653.708 615.5,652C604.323,648.489 595.823,641.656 590,631.5C585.317,623.468 581.151,615.134 577.5,606.5C576.264,607.246 574.93,607.579 573.5,607.5C566.721,608.983 559.721,609.65 552.5,609.5C552.027,618.311 552.861,626.978 555,635.5C566.299,645.131 577.299,655.131 588,665.5C589.658,668.309 590.825,671.309 591.5,674.5C590.311,679.922 588.811,685.256 587,690.5C586.354,707.399 584.02,724.065 580,740.5C574.375,747.217 567.875,748.217 560.5,743.5C559.194,742.088 558.36,740.421 558,738.5C558.336,725.806 559.336,713.14 561,700.5C562.514,692.134 563.847,683.8 565,675.5C554,665.833 543,656.167 532,646.5C531.138,644.913 530.471,643.246 530,641.5C529.5,632.84 529.334,624.173 529.5,615.5L529.5,611.5C520.983,611.174 512.65,611.507 504.5,612.5C504.333,624.838 504.5,637.171 505,649.5C508.902,656.072 513.569,662.072 519,667.5C521.929,672.455 523.763,677.788 524.5,683.5C522.895,689.98 520.895,696.314 518.5,702.5C513.358,710.769 508.192,719.103 503,727.5C501.698,730.375 500.865,733.375 500.5,736.5C498.528,741.613 494.694,744.279 489,744.5C477.883,742.608 474.216,736.275 478,725.5C485.966,711.901 493.133,697.901 499.5,683.5C498.863,680.893 497.696,678.56 496,676.5C490.569,671.072 485.902,665.072 482,658.5C480.604,643.544 480.104,628.544 480.5,613.5C472.35,612.507 464.017,612.174 455.5,612.5L455.5,689.5C455.635,696.898 452.801,702.898 447,707.5C441.081,717.002 435.414,726.669 430,736.5C425.485,740.796 420.319,741.63 414.5,739C409.688,734.899 407.855,729.732 409,723.5C417.251,710.667 425.251,697.667 433,684.5C432.709,680.226 432.543,675.893 432.5,671.5C431.503,653.007 431.17,634.341 431.5,615.5C419.912,615.028 408.912,612.194 398.5,607C391.55,602.385 384.884,597.385 378.5,592C376.934,591.7 375.601,592.2 374.5,593.5C369.607,600.297 362.941,604.63 354.5,606.5C352.745,623.842 345.745,638.676 333.5,651C334.71,652.039 335.71,653.206 336.5,654.5C341.425,660.93 346.925,666.93 353,672.5C371.859,697.718 369.025,720.218 344.5,740C324.287,752.958 304.287,752.625 284.5,739C269.066,727.234 256.9,712.734 248,695.5C243.981,686.908 242.647,677.908 244,668.5C244.302,664.755 245.469,661.422 247.5,658.5ZM299.5,483.5C286.896,494.631 277.062,507.964 270,523.5C266.15,534.425 265.65,545.425 268.5,556.5L272,563.5C281.717,573.052 292.884,580.385 305.5,585.5C318.266,591.402 331.266,591.902 344.5,587C348.949,584.716 352.616,581.549 355.5,577.5C352.379,575.552 349.379,573.385 346.5,571C321.756,546.677 306.089,517.511 299.5,483.5ZM263.5,586.5C261.144,589.715 259.644,593.381 259,597.5C255.778,625.382 268.111,641.049 296,644.5C312.81,642.195 323.644,632.862 328.5,616.5C323.456,614.663 318.456,612.997 313.5,611.5C294.558,607.52 277.891,599.187 263.5,586.5ZM285.543,665.505C285.529,665.503 285.514,665.502 285.5,665.5C280.689,665.173 276.189,663.84 272,661.5C269.804,666.551 267.638,671.551 265.5,676.5C266.049,681.592 267.716,686.259 270.5,690.5C277.904,701.74 286.904,711.573 297.5,720C313.855,730.561 327.688,728.061 339,712.5C342.598,702.275 340.931,692.942 334,684.5C327.717,677.211 320.551,671.044 312.5,666C303.366,666.658 294.38,666.493 285.543,665.505ZM511.5,533.5C504.261,519.149 500.094,503.816 499,487.5C497.632,474.903 498.799,462.569 502.5,450.5C492.84,449.466 483.174,449.466 473.5,450.5C469.741,460.868 466.907,471.535 465,482.5C462.255,519.032 468.255,554.032 483,587.5C508.458,588.812 533.958,588.812 559.5,587.5C560.552,587.649 561.552,587.483 562.5,587C538.5,575.833 521.5,558 511.5,533.5ZM450.5,567.5C441.467,538.151 438.967,508.151 443,477.5C444.642,467.899 447.142,458.566 450.5,449.5C438.363,444.346 425.696,441.013 412.5,439.5C410.833,439.833 409.167,440.167 407.5,440.5C395.264,459.821 389.931,480.988 391.5,504C391.937,515.174 392.104,526.341 392,537.5C390.878,539.624 389.378,541.457 387.5,543C375.656,544.834 369.489,539.667 369,527.5C365.19,500.58 367.524,474.247 376,448.5C377.167,446.167 378.333,443.833 379.5,441.5C358.041,440.746 338.541,446.746 321,459.5C320.722,477.275 324.222,494.275 331.5,510.5C336.981,522.132 343.481,533.132 351,543.5C355.865,548.7 361.032,553.533 366.5,558C370.381,559.19 374.381,559.857 378.5,560C381.785,560.759 384.785,562.092 387.5,564C396.266,581.064 410.266,590.731 429.5,593C438.867,592.762 448.2,591.929 457.5,590.5C455.772,582.649 453.438,574.982 450.5,567.5ZM583.5,439.5C608.572,440.987 616.405,453.321 607,476.5C598.146,486.672 587.646,488.839 575.5,483C566.653,474.11 564.153,463.61 568,451.5C571.659,445.435 576.826,441.435 583.5,439.5Z"/>
    </g>
</svg>
