<?xml version="1.0" encoding="UTF-8" standalone="no"?>
<!DOCTYPE svg PUBLIC "-//W3C//DTD SVG 1.1//EN" "http://www.w3.org/Graphics/SVG/1.1/DTD/svg11.dtd">
<svg width="100%" height="100%" viewBox="0 0 1024 1024" version="1.1" xmlns="http://www.w3.org/2000/svg" xmlns:xlink="http://www.w3.org/1999/xlink" xml:space="preserve" xmlns:serif="http://www.serif.com/" style="fill-rule:evenodd;clip-rule:evenodd;stroke-linejoin:round;stroke-miterlimit:2;">
    <g transform="matrix(1.53153,0,0,1.53153,-263.866,-292.089)">
        <path d="M638.5,580.5C646.293,570.522 653.126,559.855 659,548.5C665.863,531.579 672.529,514.579 679,497.5C684.85,477.547 688.183,457.213 689,436.5C677.43,443.696 665.096,449.363 652,453.5C634.981,445.499 620.648,434.166 609,419.5C596.348,456.814 570.848,480.314 532.5,490C498.249,496.997 463.916,497.331 429.5,491C404.681,486.136 379.681,482.636 354.5,480.5C330.643,480.275 309.977,488.108 292.5,504C280.697,515.439 273.531,529.273 271,545.5C270.706,557.523 270.039,569.523 269,581.5C267.64,584.023 265.807,586.023 263.5,587.5C256.642,588.286 251.809,585.619 249,579.5C242.709,534.626 258.209,499.793 295.5,475C319.621,462.257 345.288,457.59 372.5,461C400.812,465.495 429.145,469.828 457.5,474C485.38,476.687 512.714,474.02 539.5,466C567.096,455.741 583.929,436.241 590,407.5C590.5,395.171 590.667,382.838 590.5,370.5L590.5,367.5C557.694,358.862 536.528,338.195 527,305.5C525.511,298.881 524.345,292.215 523.5,285.5C522.718,276.722 526.718,272.389 535.5,272.5C561.46,279.066 585.293,290.066 607,305.5C612.149,311.156 616.316,317.49 619.5,324.5C621.283,320.566 623.616,317.066 626.5,314C623.939,303.316 620.772,292.816 617,282.5C616.544,276.796 616.544,271.13 617,265.5C609.705,256.536 602.038,247.87 594,239.5C589.931,233.358 586.931,226.692 585,219.5C584.112,214.382 584.445,209.382 586,204.5C590.582,199.965 595.748,199.299 601.5,202.5C604.546,207.345 606.046,212.678 606,218.5C612.785,230.296 621.452,240.629 632,249.5C634.667,254.167 637.333,258.833 640,263.5C640.658,269.423 640.158,275.256 638.5,281C639.559,285.956 641.059,290.79 643,295.5C643.497,297.81 643.663,300.143 643.5,302.5C648.43,302.803 653.263,302.469 658,301.5C660.805,294.086 663.805,286.753 667,279.5C668.821,269.563 670.154,259.563 671,249.5C676.081,240.335 681.415,231.335 687,222.5C688.525,212.957 690.859,203.624 694,194.5C700.245,189.142 706.245,189.475 712,195.5C712.607,199.537 712.44,203.537 711.5,207.5C709.788,224.923 703.621,240.59 693,254.5C690.947,258.586 690.113,262.92 690.5,267.5C689.162,274.519 687.662,281.519 686,288.5C683.509,295.12 680.842,301.454 678,307.5L683.5,302C704.706,289.038 727.373,279.371 751.5,273C759.126,271.213 763.792,274.046 765.5,281.5C765.725,286.248 765.225,290.915 764,295.5C758.307,311.899 749.807,326.565 738.5,339.5C732.98,344.745 727.314,349.745 721.5,354.5C719.32,355.757 717.32,357.257 715.5,359C716.871,363.561 717.538,368.228 717.5,373C714.848,395.117 712.681,417.284 711,439.5C708.714,458.01 705.547,476.343 701.5,494.5C693.108,521.507 682.275,547.507 669,572.5C664.209,580.438 658.709,587.772 652.5,594.5C648.809,601.193 644.142,607.193 638.5,612.5C636.287,613.773 633.954,614.773 631.5,615.5C626.58,616.119 622.747,614.453 620,610.5C613.279,653.318 607.946,696.318 604,739.5C600.887,775.521 597.554,811.521 594,847.5C590.448,856.016 584.615,858.182 576.5,854C575.299,853.097 574.465,851.931 574,850.5C573.333,844.167 573.333,837.833 574,831.5C575.618,818.202 576.785,804.868 577.5,791.5C582.166,747.3 587,702.966 592,658.5C594.171,644.458 596.337,630.458 598.5,616.5C599.083,608.165 599.75,599.831 600.5,591.5C600.187,579.335 595.187,569.502 585.5,562C574.313,554.904 562.646,548.571 550.5,543C545.618,539.786 541.785,535.619 539,530.5C535.035,521.859 537.535,516.526 546.5,514.5C552.533,515.523 556.866,518.856 559.5,524.5C565.833,527.333 572.167,530.167 578.5,533C603.833,545.66 619.333,565.826 625,593.5C630.029,589.636 634.529,585.303 638.5,580.5ZM576.5,340.5C581.899,343.778 587.733,346.112 594,347.5C596.41,346.698 597.91,345.031 598.5,342.5C600.078,338.288 600.578,333.955 600,329.5C585.168,313.169 567.001,302.669 545.5,298C550.05,311.199 557.05,322.866 566.5,333C570.08,335.277 573.414,337.777 576.5,340.5ZM740.5,297.5C739.942,298.79 738.942,299.623 737.5,300C720.403,304.211 705.736,312.544 693.5,325C696.636,330.301 699.97,335.468 703.5,340.5C710.101,336.068 716.268,331.068 722,325.5C728.333,316.833 734.667,308.167 741,299.5C741.692,298.563 741.525,297.897 740.5,297.5ZM617.5,356.5C612.152,362.963 611.152,369.963 614.5,377.5C618.941,397.426 628.941,413.926 644.5,427C650.777,430.197 657.111,430.197 663.5,427C684.092,414.65 695.092,396.483 696.5,372.5C688.934,355.56 678.934,340.06 666.5,326C661.182,322.965 655.515,321.965 649.5,323C647.934,323.608 646.6,324.442 645.5,325.5C643.629,325.859 642.129,326.859 641,328.5C634.43,338.902 626.597,348.235 617.5,356.5ZM556.5,777.5C560.506,796.524 564.672,815.524 569,834.5C569.667,839.167 569.667,843.833 569,848.5C565.23,855.414 559.73,857.247 552.5,854C550.951,852.786 549.785,851.286 549,849.5C548.003,843.539 547.337,837.539 547,831.5C542.684,813.568 538.684,795.568 535,777.5C530.92,763.332 526.253,749.332 521,735.5C519.291,717.82 517.458,700.153 515.5,682.5C489.543,690.208 463.543,690.375 437.5,683C424.158,678.34 412.491,671.173 402.5,661.5C399.896,665.054 397.562,668.721 395.5,672.5C384.214,685.955 372.381,698.955 360,711.5C360.22,713.963 361.054,716.296 362.5,718.5C382.885,762.271 403.552,805.938 424.5,849.5C422.92,857.251 418.253,860.417 410.5,859C407.333,857.167 404.833,854.667 403,851.5C383.328,810.156 363.661,768.823 344,727.5C338.277,732.745 332.777,738.078 327.5,743.5C327.167,744.833 326.833,746.167 326.5,747.5C326.007,782.215 325.174,816.881 324,851.5C315.84,857.482 307.506,857.815 299,852.5C298,850.833 297,849.167 296,847.5C285.69,818.253 275.69,788.919 266,759.5C262.973,750.562 261.14,741.395 260.5,732C260.858,722.105 263.691,712.938 269,704.5C279.217,689.946 291.217,676.946 305,665.5C310.564,657.072 310.897,648.405 306,639.5C298.58,628.325 290.913,617.325 283,606.5C278.959,599.752 275.459,592.752 272.5,585.5C271.914,582.05 271.58,578.55 271.5,575C269.982,563.186 274.982,558.853 286.5,562C288.286,562.785 289.786,563.951 291,565.5C292.232,570.721 292.899,576.054 293,581.5C294.139,584.583 295.472,587.583 297,590.5C304.279,601.446 311.946,612.112 320,622.5C322.921,627.341 325.588,632.341 328,637.5C331.581,648.694 331.081,659.694 326.5,670.5C325.024,672.769 323.524,675.102 322,677.5C310.296,688.536 299.296,700.203 289,712.5C286.295,716.577 284.128,720.91 282.5,725.5C279.687,727.47 278.52,730.137 279,733.5L303,805.5C304.946,785.564 305.946,765.564 306,745.5C307.167,739.326 309.501,733.66 313,728.5C343.855,702.049 370.521,672.049 393,638.5C397.182,619.422 401.682,600.422 406.5,581.5C403.394,561.907 392.727,548.407 374.5,541C367.544,536.133 365.378,529.633 368,521.5C371.338,518.682 375.171,517.849 379.5,519C385.61,521.221 391.277,524.221 396.5,528C405.058,535.559 412.558,544.059 419,553.5C424.532,562.758 427.199,572.758 427,583.5C423.281,603.374 418.781,623.041 413.5,642.5C414.711,644.422 416.044,646.255 417.5,648C441.02,666.126 467.353,671.793 496.5,665C505.29,662.432 513.957,659.599 522.5,656.5C526.708,656.733 530.208,658.4 533,661.5C535.56,666.978 536.06,672.645 534.5,678.5C538.538,695.933 540.371,713.6 540,731.5C542.978,738.126 545.978,744.793 549,751.5C551.525,760.284 554.025,768.951 556.5,777.5Z"/>
    </g>
</svg>
