<?xml version="1.0" encoding="UTF-8" standalone="no"?>
<!DOCTYPE svg PUBLIC "-//W3C//DTD SVG 1.1//EN" "http://www.w3.org/Graphics/SVG/1.1/DTD/svg11.dtd">
<svg width="100%" height="100%" viewBox="0 0 1024 1024" version="1.1" xmlns="http://www.w3.org/2000/svg" xmlns:xlink="http://www.w3.org/1999/xlink" xml:space="preserve" xmlns:serif="http://www.serif.com/" style="fill-rule:evenodd;clip-rule:evenodd;stroke-linejoin:round;stroke-miterlimit:2;">
    <g transform="matrix(1.16879,0,0,1.16879,-71.3877,-147.84)">
        <path d="M169.5,260.5C168.833,256.833 168.167,253.167 167.5,249.5C166.085,228.857 165.085,208.191 164.5,187.5C163.371,169.647 166.538,152.647 174,136.5C182.821,126.837 193.321,124.17 205.5,128.5C211.36,129.766 216.693,132.1 221.5,135.5C228.11,138.808 234.444,142.642 240.5,147C250.5,154.667 260.5,162.333 270.5,170C297.386,193.394 324.052,216.894 350.5,240.5C379.5,267.5 407.5,295.5 434.5,324.5C436.963,326.461 439.297,328.628 441.5,331C442.5,331.167 443.5,331.333 444.5,331.5C455.989,327.504 467.656,324.004 479.5,321C493.755,318.031 508.089,317.698 522.5,320C535.036,322.675 547.203,326.509 559,331.5C560.643,330.685 562.143,329.685 563.5,328.5C569.826,320.842 576.492,313.508 583.5,306.5C623.834,262.502 666.834,221.168 712.5,182.5C729.099,168.069 746.432,154.569 764.5,142C776.087,133.694 788.92,128.528 803,126.5C815.68,126.744 824.18,132.744 828.5,144.5C829.167,144.5 829.5,144.833 829.5,145.5C831.701,151.279 833.201,157.279 834,163.5C834.087,238.708 827.92,313.374 815.5,387.5C813.977,397.26 811.977,406.927 809.5,416.5C809.672,417.492 809.338,418.158 808.5,418.5C804.387,439.053 797.721,458.72 788.5,477.5C787.404,480.032 786.071,482.365 784.5,484.5C777.435,498.292 769.102,511.292 759.5,523.5C759.167,525.5 758.833,527.5 758.5,529.5C762.492,559.985 761.492,590.318 755.5,620.5C755.198,623.373 754.531,626.039 753.5,628.5C749.998,663.867 738.831,696.533 720,726.5C717.666,730 714.832,733 711.5,735.5C707.857,740.148 704.19,744.815 700.5,749.5C710.902,764.637 718.902,780.97 724.5,798.5C726.738,803.215 728.405,808.215 729.5,813.5C731.708,823.041 733.208,832.708 734,842.5C734.82,893.195 734.653,943.862 733.5,994.5C733.5,995.167 733.167,995.5 732.5,995.5C729.489,1000.83 725.156,1003.17 719.5,1002.5C572.5,1002.67 425.5,1002.5 278.5,1002C273.735,999.944 270.735,996.444 269.5,991.5C268.335,939.335 268.168,887.002 269,834.5C271.763,803.036 281.929,774.369 299.5,748.5C301.1,746.429 301.6,744.095 301,741.5C278.93,720.412 263.93,695.079 256,665.5C252.514,651.55 249.348,637.55 246.5,623.5L246.5,620.5C239.942,588.644 238.942,556.644 243.5,524.5C232.66,510.151 222.826,495.151 214,479.5C207.221,465.994 201.721,451.994 197.5,437.5C194.516,430.533 192.516,423.199 191.5,415.5C188.076,403.121 185.243,390.455 183,377.5C177.515,341.624 173.015,305.624 169.5,269.5L169.5,260.5ZM585.5,857.5C569.076,872.757 554.243,889.423 541,907.5C536.745,915.009 532.745,922.676 529,930.5C525.382,940.693 521.382,950.693 517,960.5C508.624,966.683 501.624,965.349 496,956.5C487.072,931.959 474.072,909.959 457,890.5C434.935,867.755 411.102,847.255 385.5,829C365.939,810.431 344.939,793.764 322.5,779C318.802,776.081 317.136,772.247 317.5,767.5C311.116,776.269 306.282,785.935 303,796.5C299.662,808.182 296.828,819.849 294.5,831.5C293.56,880.157 293.226,928.824 293.5,977.5L294.5,977.5C296.415,977.216 298.081,977.549 299.5,978.5L703.5,978.5C705.735,978.795 707.735,978.461 709.5,977.5L709.5,966.5C709.667,924.832 709.5,883.165 709,841.5C706.714,816.681 699.047,793.681 686,772.5C684.078,778.43 680.578,783.263 675.5,787C663.675,795.331 652.008,803.831 640.5,812.5C622.482,827.848 604.149,842.848 585.5,857.5ZM240.5,176.5C238.973,176.573 237.973,175.906 237.5,174.5C235.967,172.645 234.3,170.812 232.5,169C231.833,168.333 231.167,168.333 230.5,169C234.667,173.833 238.833,178.667 243,183.5C259.511,207.188 276.511,230.521 294,253.5C328.593,293.43 363.926,332.763 400,371.5C403.224,376.362 404.224,381.696 403,387.5C395.098,398.137 387.098,398.137 379,387.5C372.667,379.833 366.333,372.167 360,364.5C316.33,318.848 275.664,270.848 238,220.5C223.46,198.062 207.96,176.395 191.5,155.5C189.394,164.199 188.394,173.032 188.5,182C189.546,202.169 190.546,222.335 191.5,242.5C191.717,248.36 192.383,254.027 193.5,259.5C197.135,312.365 204.468,364.699 215.5,416.5C216.167,416.5 216.5,416.833 216.5,417.5C224.993,451.824 240.826,482.157 264,508.5C266.194,511.554 267.861,514.888 269,518.5C267.303,532.586 266.137,546.753 265.5,561C265.836,572.523 266.502,584.023 267.5,595.5C268.451,596.919 268.784,598.585 268.5,600.5C270.159,615.296 272.659,629.963 276,644.5C280.212,666.582 288.546,686.916 301,705.5C314.629,721.465 328.629,737.131 343,752.5C345.26,756.54 346.427,760.873 346.5,765.5C348.308,765.491 349.975,765.991 351.5,767C369.5,782.667 387.5,798.333 405.5,814C431.38,832.195 455.213,853.028 477,876.5C489.392,890.234 499.392,905.568 507,922.5C507.744,920.1 508.577,917.767 509.5,915.5C510.13,913.25 511.13,911.25 512.5,909.5C518.77,893.94 527.77,880.274 539.5,868.5C545.26,861.236 551.593,854.403 558.5,848C581.837,826.819 606.17,806.985 631.5,788.5C641.145,780.364 650.978,772.364 661,764.5C660.28,756.947 662.28,750.28 667,744.5C682.102,731.9 695.268,717.567 706.5,701.5C710.393,695.047 713.727,688.38 716.5,681.5C717.042,678.327 718.042,675.327 719.5,672.5C725.832,648.514 730.666,624.181 734,599.5C736.052,575.484 735.886,551.484 733.5,527.5C733.001,522.047 734.001,517.047 736.5,512.5C748.258,497.991 758.258,482.325 766.5,465.5C774.492,449.546 780.659,432.88 785,415.5C802.255,330.016 810.422,243.683 809.5,156.5C787.917,186.598 766.083,216.598 744,246.5C722.723,273.94 700.556,300.607 677.5,326.5C658.709,348.462 639.709,370.295 620.5,392C618.232,393.552 615.732,394.385 613,394.5C603.242,392.38 599.576,386.38 602,376.5C605.611,370.556 609.611,364.889 614,359.5C647.817,322.528 680.651,284.861 712.5,246.5C731.726,221.071 750.726,195.404 769.5,169.5C769.333,169.167 769.167,168.833 769,168.5C758.539,178.475 747.706,187.809 736.5,196.5C692.03,233.629 649.696,273.296 609.5,315.5C597.692,328.813 586.025,342.313 574.5,356C571.448,358.029 568.114,359.196 564.5,359.5C557.79,357.969 551.457,355.636 545.5,352.5C537.011,349.711 528.344,347.544 519.5,346C501.748,342.345 484.415,343.845 467.5,350.5C459.82,352.893 452.153,355.393 444.5,358C439.232,359.068 434.232,358.401 429.5,356C399.075,323.119 367.741,291.119 335.5,260C303.702,232.141 272.036,204.308 240.5,176.5ZM278.5,395.5C288.334,394.501 295.834,398.167 301,406.5C304.365,417.607 300.532,424.773 289.5,428C288.213,429.41 287.046,430.91 286,432.5C281.667,441.833 277.333,451.167 273,460.5C264.9,468.013 258.567,466.68 254,456.5C253.376,451.777 253.71,447.11 255,442.5C258.985,430.544 262.985,418.544 267,406.5C270.07,401.927 273.904,398.261 278.5,395.5ZM420.5,649.5C421.072,647.745 421.906,646.078 423,644.5C423.686,636.43 423.186,628.43 421.5,620.5C419.466,621.559 417.466,622.559 415.5,623.5C401.485,634.496 385.485,640.496 367.5,641.5C361.895,641.229 356.561,640.229 351.5,638.5C334.286,632.782 321.119,622.115 312,606.5C300.486,582.776 293.819,557.776 292,531.5C295.614,525.937 300.781,522.77 307.5,522C374.305,511.144 419.472,537.311 443,600.5C450.3,618.526 451.3,636.859 446,655.5C439.392,667.063 432.559,678.396 425.5,689.5C419.856,703.62 418.023,718.286 420,733.5C427.958,766.562 447.125,775.395 477.5,760C485.865,752.755 490.531,743.588 491.5,732.5C491.833,731.167 492.167,729.833 492.5,728.5C487.834,726.687 483.5,724.187 479.5,721C463.728,705.684 457.561,687.184 461,665.5C465.506,657.323 472.339,652.156 481.5,650C494.526,649.244 507.526,649.41 520.5,650.5C542.806,654.812 551.139,667.812 545.5,689.5C541.512,706.637 532.012,719.637 517,728.5C513.429,748.867 521.596,761.701 541.5,767C564.105,769.296 577.939,759.463 583,737.5C584.37,721.984 583.37,706.651 580,691.5C573.433,678.296 566.1,665.629 558,653.5C554.698,639.851 554.698,626.185 558,612.5C566.04,579.831 583.54,553.664 610.5,534C642.82,515.647 676.153,513.647 710.5,528C713.29,532.064 714.123,536.564 713,541.5C709.22,561.287 703.887,580.621 697,599.5C685.195,626.003 664.695,640.003 635.5,641.5C615.111,640.316 597.277,632.983 582,619.5C580.258,627.765 579.591,636.099 580,644.5C604.643,674.429 613.31,708.429 606,746.5C596.006,782.422 572.506,797.588 535.5,792C521.67,788.49 510.17,781.323 501,770.5C496.737,776.765 491.237,781.598 484.5,785C443.223,803.104 414.39,791.27 398,749.5C389.443,712.406 396.943,679.073 420.5,649.5ZM510.5,703.5C516.153,697.361 519.819,690.195 521.5,682C521.741,677.074 519.407,674.574 514.5,674.5C506.833,675.833 499.167,675.833 491.5,674.5C488.889,674.556 486.722,675.556 485,677.5C485.15,688.132 489.317,696.799 497.5,703.5C499.473,704.487 501.473,705.487 503.5,706.5C505.739,705.212 508.072,704.212 510.5,703.5ZM399.5,591.5C402.05,576.763 397.05,565.263 384.5,557C363.486,546.209 341.152,542.042 317.5,544.5C320.159,561.642 325.325,577.975 333,593.5C338.096,601.765 344.929,608.098 353.5,612.5C358.176,614.92 363.176,616.253 368.5,616.5C385.115,615.879 395.448,607.546 399.5,591.5ZM652.5,544.5C644.071,547.147 635.737,550.314 627.5,554C616.461,560.038 609.627,569.205 607,581.5C604.368,593.269 607.534,603.102 616.5,611C643.299,621.618 662.799,613.785 675,587.5C679.634,573.961 683.801,560.295 687.5,546.5C675.891,544.897 664.225,544.23 652.5,544.5ZM709.5,394.5C715.114,394.649 720.114,396.482 724.5,400C728.959,405.747 732.793,411.914 736,418.5C740.532,430.263 744.365,442.263 747.5,454.5C746.698,461.635 742.698,465.302 735.5,465.5C728.635,463.805 724.135,459.471 722,452.5C719.517,444.551 716.35,436.884 712.5,429.5C704.195,427.604 698.028,422.937 694,415.5C692.09,403.247 697.256,396.247 709.5,394.5Z"/>
    </g>
</svg>
