<?xml version="1.0" encoding="UTF-8" standalone="no"?>
<!DOCTYPE svg PUBLIC "-//W3C//DTD SVG 1.1//EN" "http://www.w3.org/Graphics/SVG/1.1/DTD/svg11.dtd">
<svg width="100%" height="100%" viewBox="0 0 1024 1024" version="1.1" xmlns="http://www.w3.org/2000/svg" xmlns:xlink="http://www.w3.org/1999/xlink" xml:space="preserve" xmlns:serif="http://www.serif.com/" style="fill-rule:evenodd;clip-rule:evenodd;stroke-linejoin:round;stroke-miterlimit:2;">
    <g transform="matrix(1.29284,0,0,1.29284,-136.394,-222.861)">
        <path d="M893.5,368.5C891.23,375.044 888.397,381.377 885,387.5C869.422,408.323 854.089,429.323 839,450.5C829.253,468.329 819.253,485.996 809,503.5C805.547,509.859 802.881,516.526 801,523.5C800.188,527.689 800.355,531.689 801.5,535.5C803.334,544.834 806.834,553.501 812,561.5C824.304,574.804 836.97,587.804 850,600.5C873.789,625.738 889.455,655.405 897,689.5C898.43,700.24 897.097,710.573 893,720.5C886.422,730.458 877.088,735.458 865,735.5C832.954,731.152 803.121,720.652 775.5,704C731.47,678.636 695.97,644.469 669,601.5C645.458,630.54 617.958,655.207 586.5,675.5C601.69,693.679 620.857,705.346 644,710.5C654.196,708.57 662.529,703.57 669,695.5C668.94,690.327 670.107,685.494 672.5,681C677.826,677.551 682.826,678.051 687.5,682.5C690.582,699.52 684.915,713.02 670.5,723C659.171,730.249 646.838,733.249 633.5,732C617.693,726.53 603.027,718.863 589.5,709C580.965,701.463 572.798,693.63 565,685.5C537.586,699.065 508.753,708.398 478.5,713.5C501.042,734.872 515.709,760.706 522.5,791C522.474,801.364 517.474,808.031 507.5,811C473.563,821.859 439.563,822.192 405.5,812C386.72,803.551 371.22,791.051 359,774.5C350.117,758.52 342.784,741.854 337,724.5C336.502,721.518 336.335,718.518 336.5,715.5C282.375,705.927 230.209,689.927 180,667.5C179.5,667.833 179,668.167 178.5,668.5C180.1,680.9 179.6,693.234 177,705.5C173.305,714.926 166.472,719.093 156.5,718C152.16,715.647 150.493,711.98 151.5,707C150.45,701.26 152.617,697.427 158,695.5C159.389,682.17 159.556,668.836 158.5,655.5C144.472,648.638 133.972,638.305 127,624.5C125.888,633.943 125.388,643.443 125.5,653C125.483,664.908 125.983,676.742 127,688.5C126.226,690.939 124.726,692.773 122.5,694C112.401,696.704 106.901,692.87 106,682.5C105.333,660.167 105.333,637.833 106,615.5C108.719,603.228 114.219,592.395 122.5,583C126.161,581.195 129.995,580.028 134,579.5C160.49,541.663 190.656,506.83 224.5,475C251.319,453.743 280.319,435.743 311.5,421C320.09,416.771 329.09,413.938 338.5,412.5C338.491,410.692 338.991,409.025 340,407.5C342.706,405.129 345.039,402.463 347,399.5C353.776,393.727 360.276,387.56 366.5,381C385.56,369.47 403.56,356.47 420.5,342C444.919,333.645 469.919,327.312 495.5,323C533.629,316.795 549.129,332.628 542,370.5C537.24,376.228 531.907,376.895 526,372.5C525.333,371.167 524.667,369.833 524,368.5C523.667,362.167 523.333,355.833 523,349.5C521.745,348.789 520.579,347.956 519.5,347C511.27,345.396 502.937,345.063 494.5,346C474.274,349.723 454.274,354.39 434.5,360C415.833,373 397.167,386 378.5,399C402.311,395.19 426.311,392.19 450.5,390C513.319,386.26 574.319,394.927 633.5,416C643.792,420.597 654.125,425.097 664.5,429.5C716.783,370.675 781.783,333.508 859.5,318C868.486,316.645 877.153,317.645 885.5,321C893.167,326.665 897.167,334.332 897.5,344C897.022,352.328 895.689,360.494 893.5,368.5ZM858.5,339.5C853.68,352.479 848.847,365.479 844,378.5C839.989,386.527 834.989,393.86 829,400.5C818.667,411.5 808.333,422.5 798,433.5C795,437.833 792,442.167 789,446.5C779.269,467.387 768.603,487.72 757,507.5C755.756,510.564 754.923,513.731 754.5,517C760.739,539.717 768.573,561.884 778,583.5C793.333,602.833 808.667,622.167 824,641.5C828.75,647.327 832.75,653.66 836,660.5C842.181,675.361 841.681,690.028 834.5,704.5C846.456,710.437 859.122,712.604 872.5,711C873.416,710.626 874.25,710.126 875,709.5C876.484,703.235 876.818,696.902 876,690.5C868.572,663.641 855.906,639.641 838,618.5C821.165,603.008 805.832,586.341 792,568.5C780.743,550.117 777.743,530.45 783,509.5C795.873,486.42 808.206,463.087 820,439.5C836,418.167 852,396.833 868,375.5C874.137,364.257 876.637,352.257 875.5,339.5L858.5,339.5ZM396.5,418.5C379.636,421.836 362.97,426.336 346.5,432C361.484,450.522 364.651,471.022 356,493.5C352.237,498.701 348.737,504.034 345.5,509.5C349.549,517.598 353.049,525.932 356,534.5C362.258,564.846 359.425,594.346 347.5,623C348.535,624.274 349.702,625.44 351,626.5C363.286,649.233 362.119,671.233 347.5,692.5C363.601,696.198 379.934,697.865 396.5,697.5C398.233,676.579 388.9,663.912 368.5,659.5C368.496,652.788 368.329,646.121 368,639.5C375.104,635.393 381.938,630.893 388.5,626C398.16,616.498 401.994,604.998 400,591.5C393.687,577.251 382.854,568.585 367.5,565.5C367.788,559.771 367.454,554.104 366.5,548.5C377.745,544.298 387.579,537.965 396,529.5C406.825,501.82 397.658,484.82 368.5,478.5C368.172,473.125 368.505,467.792 369.5,462.5C376.821,459.175 383.821,455.341 390.5,451C398.848,441.84 402.181,431.007 400.5,418.5L396.5,418.5ZM449.5,411.5C447.369,412.314 445.036,412.814 442.5,413C473.849,429.7 485.015,455.533 476,490.5C472.843,500.492 467.01,508.492 458.5,514.5C466.861,521.033 472.694,529.367 476,539.5C477.517,550.456 477.85,561.456 477,572.5C474.101,585.473 466.934,595.306 455.5,602C456.5,602.333 457.5,602.667 458.5,603C466.438,610.28 471.938,619.114 475,629.5C477.541,644.718 475.207,659.051 468,672.5C461.716,682.954 452.883,690.288 441.5,694.5C454.889,694.848 468.222,693.681 481.5,691C492.546,688.261 503.546,685.428 514.5,682.5C509.622,666.954 499.289,657.287 483.5,653.5C483.912,647.478 484.579,641.478 485.5,635.5C490.287,633.607 494.953,631.44 499.5,629C512.323,620.23 517.156,608.063 514,592.5C508.086,579.943 498.252,572.276 484.5,569.5L484.5,551.5C491.802,549.683 498.468,546.516 504.5,542C513.246,534.78 517.58,525.447 517.5,514C515.728,493.728 504.728,482.562 484.5,480.5L484.5,463.5C490.142,462.182 495.475,460.015 500.5,457C512.449,449.404 517.282,438.571 515,424.5C514.131,419.247 511.631,415.08 507.5,412C488.17,411.5 468.836,411.333 449.5,411.5ZM419.5,415.5C420.409,421.478 420.575,427.478 420,433.5C418.285,448.785 411.118,460.618 398.5,469C400.246,469.471 401.913,470.138 403.5,471C417.556,484.168 423.056,500.335 420,519.5C418.385,534.757 411.218,546.424 398.5,554.5C410.444,562.701 417.61,574.034 420,588.5C422.237,613.019 413.403,632.352 393.5,646.5C395.113,647.427 396.779,648.261 398.5,649C412.913,661.578 418.58,677.245 415.5,696C417.134,696.494 418.801,696.66 420.5,696.5C419.556,692.183 419.056,687.849 419,683.5C425.27,679.949 431.77,676.782 438.5,674C445.516,669.323 450.683,663.156 454,655.5C458.782,631.572 449.282,616.738 425.5,611C426.309,605.583 426.809,600.083 427,594.5C450.491,587.359 460.491,571.692 457,547.5C451.365,535.041 441.865,527.041 428.5,523.5C427.504,517.537 427.171,511.537 427.5,505.5C442.293,502.875 452.126,494.541 457,480.5C461.62,463.263 456.787,449.429 442.5,439C436.614,436.156 430.781,433.323 425,430.5C423.173,425.555 423.006,420.555 424.5,415.5L419.5,415.5ZM335.5,642.5C335.174,645.311 334.341,647.978 333,650.5C323.66,663.673 312.493,675.007 299.5,684.5C306.988,686.915 314.655,688.582 322.5,689.5C324.912,689.594 326.745,688.594 328,686.5C332.189,680.123 335.855,673.456 339,666.5C340.218,661.545 340.551,656.545 340,651.5C339.493,647.818 337.993,644.818 335.5,642.5ZM270.5,467.5C247.459,483.353 226.292,501.687 207,522.5C184.657,549.672 162.157,576.672 139.5,603.5C146.466,619.636 157.799,631.803 173.5,640C205.764,655.646 239.264,668.146 274,677.5C318.256,648.662 339.589,607.662 338,554.5C330.586,513.609 308.086,484.609 270.5,467.5ZM207.5,549.5C229.397,549.228 239.897,559.895 239,581.5C234.216,597.809 223.383,604.975 206.5,603C191.615,596.737 185.449,585.57 188,569.5C191.351,559.65 197.851,552.983 207.5,549.5ZM211.5,568.5C210.542,569.962 209.376,571.295 208,572.5C207.333,574.5 207.333,576.5 208,578.5C211.355,583.31 215.021,583.644 219,579.5C220.882,572.553 218.382,568.887 211.5,568.5ZM322.5,439.5C312.942,443.948 303.609,448.948 294.5,454.5C309.943,463.925 322.776,475.925 333,490.5C339.034,482.073 341.034,472.74 339,462.5C335.725,454.234 331.225,446.734 325.5,440C324.552,439.517 323.552,439.351 322.5,439.5ZM358.5,717.5C361.684,731.546 366.851,744.88 374,757.5C385.551,776.361 402.051,788.527 423.5,794C449.123,799.379 474.456,798.212 499.5,790.5C497.331,777.166 492.498,764.833 485,753.5C475.297,740.459 464.13,728.625 451.5,718C436.959,719.869 422.292,720.869 407.5,721C408.065,727.193 408.898,733.36 410,739.5C411.458,741.96 413.291,744.127 415.5,746C420.541,748.255 424.375,751.755 427,756.5C429.424,763.992 426.924,768.659 419.5,770.5C415.28,769.724 411.614,767.89 408.5,765L395,751.5C388.799,742.272 386.966,732.272 389.5,721.5C379.141,720.247 368.807,718.913 358.5,717.5ZM423.5,728.5C429.602,727.733 435.269,728.899 440.5,732C451.94,739.108 460.107,748.941 465,761.5C466.696,773.733 461.863,777.233 450.5,772C446.277,766.776 442.444,761.276 439,755.5C433.846,751.257 428.512,747.257 423,743.5C420.854,738.329 421.02,733.329 423.5,728.5ZM834.5,346.5C802.695,355.901 772.695,369.401 744.5,387C718.82,405.209 695.487,426.209 674.5,450C669.599,453.779 664.266,454.446 658.5,452C643.2,444.463 627.534,438.13 611.5,433C614.562,434.061 617.062,435.894 619,438.5C622.083,442.4 624.416,446.734 626,451.5C628.793,464.845 627.793,477.845 623,490.5C620.101,497.732 614.934,502.565 607.5,505C600.406,505.223 597.573,501.723 599,494.5C601.572,491.597 603.739,488.431 605.5,485C608.721,475.627 609.221,466.127 607,456.5C603.73,450.891 600.897,445.058 598.5,439C599.712,435.028 602.379,432.361 606.5,431C596.451,427.091 586.118,424.258 575.5,422.5C575.667,433.505 575.5,444.505 575,455.5C574.31,458.196 572.81,460.363 570.5,462C564.864,463.658 561.031,461.825 559,456.5C558.5,444.171 558.333,431.838 558.5,419.5C549.986,416.712 541.32,414.879 532.5,414C534.682,419.761 535.682,425.761 535.5,432C535.707,448.588 529.04,461.588 515.5,471C521.265,474.429 526.098,478.929 530,484.5C539.562,503.692 539.896,523.025 531,542.5C526.698,550.138 520.531,555.638 512.5,559C514.167,559.333 515.833,559.667 517.5,560C523.695,566.217 528.529,573.383 532,581.5C540.142,607.405 533.309,628.238 511.5,644C513.833,645.667 516.167,647.333 518.5,649C525.491,657.142 530.825,666.309 534.5,676.5C543.232,672.052 551.899,667.719 560.5,663.5C556.592,656.503 558.258,651.67 565.5,649C571.134,647.759 575.301,649.592 578,654.5C599.721,641.12 619.388,625.12 637,606.5C643.726,599.772 649.726,592.439 655,584.5C655.52,582.711 655.187,581.044 654,579.5C648.858,572.186 642.358,566.52 634.5,562.5C633.336,556.528 633.17,550.528 634,544.5C644.776,540.39 653.109,533.39 659,523.5C666.879,498.603 658.046,482.936 632.5,476.5C632.191,471.733 632.691,467.066 634,462.5C636.402,460.307 639.236,458.974 642.5,458.5C663.232,465.065 676.732,478.732 683,499.5C684.402,522.203 675.235,539.036 655.5,550C659.967,553.465 664.133,557.298 668,561.5C675.751,574.004 683.751,586.337 692,598.5C703.961,616.138 717.794,632.305 733.5,647C758.671,668.809 786.504,686.642 817,700.5C817.833,693.332 818.667,686.166 819.5,679C819.675,675.254 818.842,671.754 817,668.5C796.949,642.784 777.283,616.784 758,590.5C749.425,569.114 741.425,547.447 734,525.5C733.264,520.134 733.431,514.8 734.5,509.5C737.728,499.044 742.562,489.377 749,480.5C756.912,462.746 765.579,445.413 775,428.5C788.98,413.515 802.647,398.182 816,382.5C822.834,372.325 828.834,361.659 834,350.5L837.5,347C836.552,346.517 835.552,346.351 834.5,346.5ZM565.5,569.5C570.133,568.458 573.299,570.125 575,574.5C575.667,591.833 575.667,609.167 575,626.5C568.826,632.331 563.493,631.664 559,624.5C558.333,608.167 558.333,591.833 559,575.5C559.309,574.234 559.809,573.067 560.5,572C562.315,571.243 563.981,570.41 565.5,569.5ZM599.5,511.5C602.91,511.457 606.243,511.957 609.5,513C628.471,531.603 632.971,553.437 623,578.5C620.888,582.278 618.388,585.778 615.5,589C602.555,597.6 597.055,594.433 599,579.5C609.008,566.771 611.008,552.771 605,537.5C602.301,532.813 599.634,528.147 597,523.5C596.333,521.167 596.333,518.833 597,516.5C598.094,514.922 598.928,513.255 599.5,511.5ZM563.5,486.5C566.187,486.336 568.854,486.503 571.5,487C573.333,487.5 574.5,488.667 575,490.5C575.667,503.833 575.667,517.167 575,530.5C572.042,537.403 567.209,539.403 560.5,536.5L559,533.5C558.333,520.167 558.333,506.833 559,493.5C559.545,490.473 561.045,488.14 563.5,486.5Z"/>
    </g>
</svg>
