<?xml version="1.0" encoding="UTF-8" standalone="no"?>
<!DOCTYPE svg PUBLIC "-//W3C//DTD SVG 1.1//EN" "http://www.w3.org/Graphics/SVG/1.1/DTD/svg11.dtd">
<svg width="100%" height="100%" viewBox="0 0 1024 1024" version="1.1" xmlns="http://www.w3.org/2000/svg" xmlns:xlink="http://www.w3.org/1999/xlink" xml:space="preserve" xmlns:serif="http://www.serif.com/" style="fill-rule:evenodd;clip-rule:evenodd;stroke-linejoin:round;stroke-miterlimit:2;">
    <g transform="matrix(1.24856,0,0,1.24856,-98.1495,-210.312)">
        <path d="M880.5,695.5C882.118,648.193 868.951,605.526 841,567.5C819.753,538.919 794.586,514.419 765.5,494C723.67,465.256 678.003,444.922 628.5,433C611.786,429.458 595.119,425.791 578.5,422C572.911,419.549 571.078,415.383 573,409.5C574.56,405.278 577.56,403.611 582,404.5C647.852,413.445 708.685,435.612 764.5,471C815.397,503.888 854.231,547.388 881,601.5C883.272,607.485 885.439,613.485 887.5,619.5C906.352,673.858 901.519,725.858 873,775.5C845.71,817.156 807.043,839.49 757,842.5C744.589,844.755 739.589,839.755 742,827.5C805.984,824.52 849.651,793.187 873,733.5C876.654,721.045 879.154,708.378 880.5,695.5ZM388.5,535.5C384.309,545.237 378.643,553.904 371.5,561.5C390.661,565.363 409.328,563.53 427.5,556C442.252,549.793 455.919,541.793 468.5,532C480.069,531.244 483.236,536.077 478,546.5C443.346,577.464 403.512,587.464 358.5,576.5C329.167,601.5 296.501,607.167 260.5,593.5C261.176,616.225 265.51,638.225 273.5,659.5C278.008,656.746 282.674,654.246 287.5,652C305.862,638.483 323.862,624.483 341.5,610C349.333,605.584 357,600.918 364.5,596C367.366,594.543 370.366,594.21 373.5,595C377.286,596.393 380.952,598.059 384.5,600C393.129,607.752 400.963,616.252 408,625.5C411.534,631.089 411.201,636.422 407,641.5C397.375,651.136 386.208,658.303 373.5,663C367.167,663.333 360.833,663.667 354.5,664C341.846,673.328 328.846,682.161 315.5,690.5C325.248,695.806 335.581,699.639 346.5,702C376.324,708.289 406.324,709.622 436.5,706C462.51,701.419 483.344,688.585 499,667.5C508.92,650.663 518.586,633.663 528,616.5C533.153,610.805 538.82,610.138 545,614.5C546.913,618.471 546.913,622.471 545,626.5C535.882,640.406 527.549,654.74 520,669.5C506.864,689.972 489.364,705.472 467.5,716C460.898,718.534 454.231,720.867 447.5,723C425.262,726.552 402.929,727.385 380.5,725.5C375.731,724.111 370.731,723.444 365.5,723.5C360.87,722.771 356.203,722.437 351.5,722.5C351.232,726.736 349.232,729.903 345.5,732C336.126,737.569 326.126,741.569 315.5,744C327.946,757.73 342.946,767.73 360.5,774C367.913,775.749 375.246,777.749 382.5,780C388.385,789.73 385.718,795.563 374.5,797.5C342.801,791.07 316.301,775.736 295,751.5C283.83,763.829 270.664,773.329 255.5,780C237.241,785.783 219.574,784.449 202.5,776C180.008,760.177 173.841,739.344 184,713.5C195.735,688.436 214.902,671.936 241.5,664C245.486,663.501 249.486,663.334 253.5,663.5C246.902,636.908 242.568,609.908 240.5,582.5C227.444,574.272 215.444,564.772 204.5,554C196.236,554.018 188.569,552.018 181.5,548C165.347,525.048 159.18,499.548 163,471.5C164.788,446.758 174.955,426.258 193.5,410C195.818,408.007 198.484,406.841 201.5,406.5C208.737,366.603 229.737,336.27 264.5,315.5C266.562,293.438 278.562,280.771 300.5,277.5C310.507,278.002 319.673,281.002 328,286.5C368.241,267.026 408.741,266.526 449.5,285C457.164,284.837 464.831,284.337 472.5,283.5C491.916,283.777 506.083,292.444 515,309.5C515.817,313.899 516.817,318.232 518,322.5C534.04,337.905 544.373,356.571 549,378.5C551.982,392.359 553.982,406.359 555,420.5C557.663,426.174 561.497,431.007 566.5,435C571.328,438.581 576.328,441.915 581.5,445C602.045,453.074 622.378,461.74 642.5,471C689.584,498.61 717.584,539.444 726.5,593.5C730.456,610.47 732.789,627.803 733.5,645.5C733.764,666.853 733.431,688.186 732.5,709.5C728.864,737.26 718.698,762.26 702,784.5C695.782,792.863 687.615,796.697 677.5,796C673.387,792.491 672.554,788.324 675,783.5C691.252,770.021 702.252,753.021 708,732.5C715.111,705.614 717.444,678.281 715,650.5C714.783,629.937 712.616,609.604 708.5,589.5C697.483,538.99 668.483,502.823 621.5,481C605.098,474.532 588.764,467.865 572.5,461C563.629,456.148 555.795,449.982 549,442.5C545.873,458.548 540.373,473.715 532.5,488C523.449,492.808 518.115,490.141 516.5,480C519.943,472.488 523.276,464.988 526.5,457.5C528.525,450.71 530.525,444.043 532.5,437.5C538.701,406.49 534.201,377.156 519,349.5L518,348.5C517.608,352.528 517.108,356.528 516.5,360.5C511.115,379.385 499.115,391.885 480.5,398C469.427,399.596 465.594,395.096 469,384.5L472.5,381C486.813,376.684 495.646,367.184 499,352.5C501.682,333.848 493.848,326.015 475.5,329C473.61,330.078 472.61,331.745 472.5,334C475.187,343.595 472.853,351.595 465.5,358C456.109,361.593 451.275,358.427 451,348.5C451.996,346.34 453.496,344.673 455.5,343.5C457.446,338.604 458.113,333.271 457.5,327.5C459.447,318.714 464.78,312.88 473.5,310C482.518,308.264 490.352,310.43 497,316.5C494.035,308.56 488.202,303.726 479.5,302C474.5,301.333 469.5,301.333 464.5,302C459.044,305.787 453.877,309.954 449,314.5C447.796,318.716 447.13,323.049 447,327.5C444.013,332.152 439.846,333.652 434.5,332C432.333,331.167 430.833,329.667 430,327.5C428.733,316.854 431.9,307.687 439.5,300C425.449,294.894 411.116,291.394 396.5,289.5C387.459,289.283 378.459,289.783 369.5,291C358.344,292.917 347.344,295.417 336.5,298.5C338.547,303.729 337.547,308.229 333.5,312C313.318,315.213 293.985,321.213 275.5,330C248.576,346.247 230.743,369.413 222,399.5L223.5,398C237.933,396.864 251.599,399.364 264.5,405.5C289.183,415.691 305.35,433.691 313,459.5C315.179,470.489 317.179,481.489 319,492.5C326.099,502.303 335.599,508.47 347.5,511C370.006,515.043 391.672,512.376 412.5,503C422.868,501.257 426.701,505.423 424,515.5C422.5,517.667 420.667,519.5 418.5,521C409.133,524.957 399.466,527.79 389.5,529.5C389.167,531.5 388.833,533.5 388.5,535.5ZM248.5,678.5C240.401,682.719 232.401,687.219 224.5,692C217.43,696.614 211.597,702.447 207,709.5C202.557,716.381 201.557,723.714 204,731.5C218.23,770.077 240.73,775.744 271.5,748.5C266.639,744.439 262.473,739.773 259,734.5C253.893,727.288 249.56,719.621 246,711.5C244.485,704.233 244.152,696.899 245,689.5C246.181,685.637 248.014,682.137 250.5,679C249.906,678.536 249.239,678.369 248.5,678.5ZM340.5,632.5C324.431,648.222 306.765,662.055 287.5,674C281.683,675.547 276.016,677.547 270.5,680C265.67,683.653 263.337,688.487 263.5,694.5C265.631,708.812 271.964,720.979 282.5,731C285.424,732.881 288.591,734.048 292,734.5C306.45,730.359 320.283,724.692 333.5,717.5C322.808,714.771 312.641,710.771 303,705.5C293.229,709.021 287.729,705.521 286.5,695C289.644,688.84 293.978,683.507 299.5,679C315.362,667.639 331.362,656.472 347.5,645.5C344.965,641.187 342.632,636.854 340.5,632.5ZM209.5,526.5C206.905,528.816 204.239,531.149 201.5,533.5C204.203,533.26 206.87,533.76 209.5,535C227.067,552.778 247.067,567.112 269.5,578C301.351,588.604 328.851,581.771 352,557.5C358.745,550.34 364.245,542.34 368.5,533.5C369.043,533.44 369.376,533.107 369.5,532.5C366.914,531.52 364.247,531.187 361.5,531.5C355.129,531.938 349.129,530.938 343.5,528.5C335.453,526.815 327.787,523.982 320.5,520C316.667,517.5 313.5,514.333 311,510.5C309.162,520.041 304.329,527.874 296.5,534C282.639,541.456 268.306,542.456 253.5,537C241.472,529.804 230.805,520.971 221.5,510.5C220.53,513.774 219.03,516.774 217,519.5C213.975,521.361 211.475,523.694 209.5,526.5ZM297.5,295.5C292.176,297.176 287.843,300.343 284.5,305C293.384,301.545 302.717,299.545 312.5,299C307.984,295.992 302.984,294.826 297.5,295.5ZM369.5,614.5C365.356,617.568 360.689,619.568 355.5,620.5C358.858,629.861 363.525,638.528 369.5,646.5C371.833,645.333 374.167,644.167 376.5,643C381.051,639.563 385.384,635.896 389.5,632C385.559,626.388 381.226,621.055 376.5,616C374.323,614.798 371.989,614.298 369.5,614.5ZM253.5,420.5C220.092,409.455 197.592,420.455 186,453.5C184.198,458.375 182.865,463.375 182,468.5C181.333,481.5 181.333,494.5 182,507.5C183.144,512.767 184.978,517.767 187.5,522.5C194.604,516.734 200.604,510.067 205.5,502.5C206.819,497.555 207.986,492.555 209,487.5C209.192,479.262 210.025,471.095 211.5,463C207.993,459.151 204.826,454.984 202,450.5C200.246,440.765 204.08,436.932 213.5,439C216.042,440.77 218.709,442.27 221.5,443.5C225.351,441.171 229.351,439.005 233.5,437C245.546,435.708 249.046,440.541 244,451.5C239.766,456.197 234.599,459.197 228.5,460.5C226.125,491.257 239.458,511.757 268.5,522C281.086,524.292 289.586,519.459 294,507.5C301.13,484.351 298.13,462.685 285,442.5C276.538,432.198 266.038,424.865 253.5,420.5ZM347.5,842.5C342.665,841.646 340.332,838.646 340.5,833.5C340.281,828.92 342.281,825.92 346.5,824.5C462.167,824.333 577.834,824.5 693.5,825C700.554,829.931 701.22,835.597 695.5,842C579.5,842.5 463.5,842.667 347.5,842.5ZM865.5,884.5C636.334,885.666 407,885.833 177.5,885C173.52,883.522 171.854,880.688 172.5,876.5C171.769,872.248 173.435,869.581 177.5,868.5C407.509,868.647 637.509,868.48 867.5,868C868.416,868.278 869.082,868.778 869.5,869.5C872.332,871.407 873.166,874.073 872,877.5C871.181,881.171 869.015,883.505 865.5,884.5ZM750.5,640.5C755.596,640.4 759.763,642.4 763,646.5C790.328,700.543 784.328,750.543 745,796.5C733.629,807.534 720.462,815.7 705.5,821C693.899,822.243 689.899,817.41 693.5,806.5C726.677,793.488 748.177,769.821 758,735.5C762.875,716.08 762.542,696.746 757,677.5C753.384,669.269 750.05,660.936 747,652.5C745.593,647.556 746.759,643.556 750.5,640.5ZM144.5,764.5C149.855,763.345 154.022,765.012 157,769.5C157.756,771.809 157.256,773.809 155.5,775.5C166.248,776.045 176.915,776.878 187.5,778C191.714,782.2 192.548,787.034 190,792.5C189.097,793.701 187.931,794.535 186.5,795C171.294,795.93 156.294,795.596 141.5,794L116.5,819C114.404,820.766 112.071,822.099 109.5,823C131.48,824.169 153.48,824.836 175.5,825C180.881,828.789 181.881,833.622 178.5,839.5C177.088,840.806 175.421,841.64 173.5,842C142.747,842.984 112.081,842.651 81.5,841C77.821,836.264 77.655,831.43 81,826.5C102.366,805.966 123.533,785.299 144.5,764.5ZM377.5,385.5C393.038,387.205 400.538,395.872 400,411.5C394.994,424.591 385.494,429.758 371.5,427C361.408,421.093 357.241,412.26 359,400.5C362.425,391.889 368.592,386.889 377.5,385.5ZM376.5,401.5C374.612,404.931 374.112,408.598 375,412.5C377.527,417.384 380.527,417.717 384,413.5C385.011,409.018 383.844,405.184 380.5,402C379.207,401.51 377.873,401.343 376.5,401.5Z"/>
    </g>
</svg>
