<?xml version="1.0" encoding="UTF-8" standalone="no"?>
<!DOCTYPE svg PUBLIC "-//W3C//DTD SVG 1.1//EN" "http://www.w3.org/Graphics/SVG/1.1/DTD/svg11.dtd">
<svg width="100%" height="100%" viewBox="0 0 1024 1024" version="1.1" xmlns="http://www.w3.org/2000/svg" xmlns:xlink="http://www.w3.org/1999/xlink" xml:space="preserve" xmlns:serif="http://www.serif.com/" style="fill-rule:evenodd;clip-rule:evenodd;stroke-linejoin:round;stroke-miterlimit:2;">
    <g transform="matrix(1.53527,0,0,1.53527,-269.444,-247.916)">
        <path d="M371.5,758.5C372.252,754.16 374.586,750.993 378.5,749C389.529,746.493 400.529,743.826 411.5,741C423.648,738.187 432.148,731.021 437,719.5C440.282,711.691 442.616,703.691 444,695.5C375.975,710.939 307.808,725.939 239.5,740.5C226.208,739.289 219.208,731.955 218.5,718.5C218.59,708.385 222.59,700.219 230.5,694C266.084,676.043 301.417,657.876 336.5,639.5C304.795,629.098 273.128,618.598 241.5,608C234.24,605.399 228.073,601.232 223,595.5C220.505,591.515 219.338,587.182 219.5,582.5C205.868,581.743 193.202,577.91 181.5,571C173.673,562.04 173.507,552.874 181,543.5C193.126,532.683 207.293,528.516 223.5,531C232.097,533.316 240.764,535.316 249.5,537C363.833,537.5 478.166,537.667 592.5,537.5L592.5,533.5C593.687,526.754 595.187,520.088 597,513.5C598.255,510.084 599.255,506.751 600,503.5C599.617,504.056 599.117,504.389 598.5,504.5C596.72,504.559 594.942,504.576 593.165,504.551C491.439,505.51 389.551,505.827 287.5,505.5C274.829,505.667 262.162,505.5 249.5,505C248.299,504.097 247.465,502.931 247,501.5C246.022,497.1 246.522,492.933 248.5,489C250.715,487.956 253.048,487.29 255.5,487C370.873,486.169 486.207,486.335 601.5,487.5C602.703,481.899 606.036,478.399 611.5,477C625.507,476.5 639.507,476.667 653.5,477.5C660.877,457.934 675.211,447.267 696.5,445.5C704.239,446.293 711.739,447.959 719,450.5C718.426,435.423 716.926,420.423 714.5,405.5C704.918,338.581 682.751,276.248 648,218.5C647.173,209.338 651.339,205.838 660.5,208C668.124,218.3 674.957,229.133 681,240.5C708.606,294.992 725.939,352.659 733,413.5C734.828,427.443 735.662,441.443 735.5,455.5C735.414,456.496 735.748,457.329 736.5,458C754.093,465.259 765.26,478.092 770,496.5C779.597,478.302 787.264,459.302 793,439.5C810.021,375.644 817.688,310.644 816,244.5C820.189,239.301 825.022,238.301 830.5,241.5C831.458,241.953 832.292,242.619 833,243.5C833.5,263.497 833.667,283.497 833.5,303.5C832.38,316.156 831.38,328.823 830.5,341.5C826.379,390.985 814.879,438.651 796,484.5C790.852,495.462 784.352,505.462 776.5,514.5C774.564,518.715 773.897,523.381 774.5,528.5C770.692,559.156 756.026,582.823 730.5,599.5C723.099,603.65 715.099,605.65 706.5,605.5C705.991,610.872 705.158,616.205 704,621.5C703.333,625.167 703.333,628.833 704,632.5C712.809,642.98 722.475,652.313 733,660.5C736.342,686.541 739.675,712.541 743,738.5C744.5,741.333 746.667,743.5 749.5,745C756.5,745.333 763.5,745.667 770.5,746C780.706,748.564 784.706,755.064 782.5,765.5C801.503,765.333 820.503,765.5 839.5,766C842.894,770.105 843.394,774.605 841,779.5C840.097,780.701 838.931,781.535 837.5,782C621.834,782.5 406.167,782.667 190.5,782.5C184.687,778.11 184.021,772.943 188.5,767C190.025,765.991 191.692,765.491 193.5,765.5L194.5,765.5C252.998,764.501 311.664,764.168 370.5,764.5C370.205,762.265 370.539,760.265 371.5,758.5ZM519.5,607.5C519.406,611.136 518.739,614.636 517.5,618C521.312,616.694 525.312,616.361 529.5,617C533.12,617.284 535.62,619.117 537,622.5C540.38,618.897 544.213,615.897 548.5,613.5C538.648,612.23 528.981,610.23 519.5,607.5ZM516.5,636.5C515.74,647.856 514.74,659.189 513.5,670.5C531.298,669.812 548.631,666.645 565.5,661L529.5,637C525.179,636.501 520.846,636.334 516.5,636.5ZM209.5,547.5C203.876,549.143 198.542,551.643 193.5,555C190.833,556.333 190.833,557.667 193.5,559C260.918,576.644 327.418,597.144 393,620.5C407.388,613.39 421.555,605.89 435.5,598L444.5,595C368.338,581.585 292.671,565.919 217.5,548C214.854,547.503 212.187,547.336 209.5,547.5ZM497.5,636.5C488.363,638.862 479.03,640.862 469.5,642.5C469.3,652.098 467.634,661.432 464.5,670.5C474.753,672.37 485.087,673.203 495.5,673C496.581,662.355 497.914,651.688 499.5,641C499.431,639.014 498.765,637.514 497.5,636.5ZM363.5,645.5C322.263,666.88 280.929,688.38 239.5,710C238.421,710.956 237.255,711.789 236,712.5C234.26,722.061 238.094,725.228 247.5,722C309.337,707.056 371.337,692.723 433.5,679C438.167,678.667 442.833,678.333 447.5,678C448.747,676.506 448.747,675.006 447.5,673.5C445.459,672.764 443.459,671.931 441.5,671C415.754,661.622 389.754,653.122 363.5,645.5ZM341.5,555.5C381.779,564.723 422.446,572.889 463.5,580C483.34,586.584 503.673,590.251 524.5,591C537.619,593.696 550.619,596.863 563.5,600.5C567.903,594.038 572.07,587.371 576,580.5C579.403,572.791 582.903,565.125 586.5,557.5C510.668,556.833 435.001,556.167 359.5,555.5L341.5,555.5ZM710.5,764.5C689.608,761.436 676.441,749.769 671,729.5C667.157,707.215 666.657,684.882 669.5,662.5C665.833,658.167 661.833,654.167 657.5,650.5C655.501,648.507 654.001,646.173 653,643.5C652.421,637.089 652.421,630.756 653,624.5C613.61,663.606 566.11,685.606 510.5,690.5C509.594,703.892 508.094,717.226 506,730.5C505.163,743.364 498.996,752.531 487.5,758C478.005,760.729 468.339,762.562 458.5,763.5C464.7,764.243 471.034,764.91 477.5,765.5L709.5,765.5C710.167,765.5 710.5,765.167 710.5,764.5ZM412.5,765.5C422.681,765.827 432.681,765.494 442.5,764.5C441.785,759.1 443.452,754.6 447.5,751C451.833,748.416 456.5,746.749 461.5,746C468.644,745.913 475.644,744.913 482.5,743C484.894,741.048 486.394,738.548 487,735.5C489.391,721.824 491.557,708.158 493.5,694.5C491.5,694.167 489.5,693.833 487.5,693.5C479.235,694.971 470.902,695.638 462.5,695.5C460.584,709.674 456.084,723.008 449,735.5C441.999,743.246 433.832,749.413 424.5,754C414.409,758.087 404.076,761.254 393.5,763.5C392.325,763.281 391.325,763.614 390.5,764.5C397.134,765.497 403.8,765.83 410.5,765.5L412.5,765.5ZM618.5,494.5C617.148,504.243 615.315,513.91 613,523.5C608.46,551.794 598.793,578.127 584,602.5C578.568,609.615 572.401,615.949 565.5,621.5C562.775,622.713 560.441,624.546 558.5,627C555.382,628.893 552.049,630.226 548.5,631C560.558,636.358 571.224,643.691 580.5,653C581.5,653.667 582.5,653.667 583.5,653C596.167,646.671 608.167,639.337 619.5,631C636.431,615.736 651.598,598.903 665,580.5C658.947,565.999 653.947,550.999 650,535.5C647.516,521.883 647.016,508.216 648.5,494.5L618.5,494.5ZM749.5,492.5C746.281,486.609 741.948,481.609 736.5,477.5C735.402,486.756 733.235,495.756 730,504.5C727.496,511.808 723.329,517.808 717.5,522.5C713.683,524.121 709.683,525.121 705.5,525.5C688.616,521.948 678.949,511.615 676.5,494.5C675.725,485.532 679.392,479.365 687.5,476C696.454,473.788 700.788,477.288 700.5,486.5C701.183,491.126 699.683,494.793 696,497.5C695.333,498.5 695.333,499.5 696,500.5C701.61,512.303 707.277,512.303 713,500.5C716.668,489.832 718.502,478.832 718.5,467.5C714.156,466.442 709.823,465.276 705.5,464C685.054,461.098 671.887,469.598 666,489.5C663.749,506.667 664.749,523.667 669,540.5C672.474,556.62 679.974,570.454 691.5,582C698.882,588.261 707.216,589.928 716.5,587C734.098,577.989 746.264,564.156 753,545.5C759.979,527.207 758.812,509.541 749.5,492.5ZM467.5,600.5C444.516,614.492 420.516,626.659 395.5,637C413.955,643.735 432.455,650.235 451,656.5C452.621,649.96 453.955,643.294 455,636.5C457.773,630.06 462.606,626.226 469.5,625C480.488,622.802 491.322,620.636 502,618.5C502.246,615.11 502.746,611.777 503.5,608.5C491.895,604.178 479.895,601.512 467.5,600.5ZM242.5,590.5C283.433,604.475 324.767,616.975 366.5,628C325.875,615.07 285.208,602.236 244.5,589.5C243.584,589.543 242.917,589.876 242.5,590.5ZM685.5,682.5C685.982,697.868 686.816,713.201 688,728.5C690.598,735.706 695.098,741.373 701.5,745.5C701.833,745 702.167,744.5 702.5,744C698.4,726.707 695.4,709.207 693.5,691.5C690.782,688.455 688.116,685.455 685.5,682.5ZM676.5,591.5C674.873,593.63 673.04,595.63 671,597.5C670.833,598.5 670.667,599.5 670.5,600.5C671.374,614.491 671.54,628.491 671,642.5C674.333,645.167 677.667,647.833 681,650.5L702,677.5C704.333,679.167 706.667,680.833 709,682.5C711.458,700.245 714.458,717.912 718,735.5C719.967,740.021 721.634,744.687 723,749.5C724.816,750.329 726.649,751.163 728.5,752C731.167,756.333 731.167,760.667 728.5,765C740.833,765.667 753.167,765.667 765.5,765C758,764.48 750.667,763.147 743.5,761C733.437,758.381 727.937,751.881 727,741.5C724.859,716.991 721.526,692.657 717,668.5C705.992,659.158 695.992,648.825 687,637.5C685.953,634.961 685.453,632.295 685.5,629.5C686.571,619.66 687.571,609.827 688.5,600C685.788,597.122 682.788,594.456 679.5,592C678.552,591.517 677.552,591.351 676.5,591.5Z"/>
    </g>
</svg>
