<?xml version="1.0" encoding="UTF-8" standalone="no"?>
<!DOCTYPE svg PUBLIC "-//W3C//DTD SVG 1.1//EN" "http://www.w3.org/Graphics/SVG/1.1/DTD/svg11.dtd">
<svg width="100%" height="100%" viewBox="0 0 1024 1024" version="1.1" xmlns="http://www.w3.org/2000/svg" xmlns:xlink="http://www.w3.org/1999/xlink" xml:space="preserve" xmlns:serif="http://www.serif.com/" style="fill-rule:evenodd;clip-rule:evenodd;stroke-linejoin:round;stroke-miterlimit:2;">
    <g transform="matrix(1.57638,0,0,1.57638,-286.112,-277.974)">
        <path d="M198.5,671.5C188.732,664.852 183.232,655.519 182,643.5C181.333,612.833 181.333,582.167 182,551.5C183.473,547.221 185.473,543.221 188,539.5C188.993,536.526 189.826,533.526 190.5,530.5C194.492,513.672 203.158,499.838 216.5,489C231.493,478.451 247.493,476.784 264.5,484C269.923,487.419 274.756,491.585 279,496.5C280.868,499.605 282.035,502.938 282.5,506.5C288.869,506.575 295.202,506.742 301.5,507C317.429,490.962 336.763,482.796 359.5,482.5L485.5,482.5L485.5,447.5C485.333,421.498 485.5,395.498 486,369.5C489.575,343.358 499.908,320.358 517,300.5C537.713,276.876 563.213,260.376 593.5,251C606.311,247.94 619.311,246.44 632.5,246.5C649.533,247.626 666.533,248.793 683.5,250C695.921,243.585 707.255,235.585 717.5,226C724.337,222.057 730.17,223.223 735,229.5C743.927,250.73 754.927,270.73 768,289.5C779.599,299.289 784.766,311.789 783.5,327C786.397,340.615 781.064,347.282 767.5,347C785.963,374.76 804.796,402.26 824,429.5C835.956,452.929 832.79,474.096 814.5,493C785.639,513.286 759.139,510.453 735,484.5C724.25,470.412 712.75,456.912 700.5,444C691.098,440.643 681.765,436.976 672.5,433C667.873,427.928 667.373,422.428 671,416.5C675.101,413.709 679.601,412.875 684.5,414C691.266,416.399 697.933,418.733 704.5,421C718.529,404.957 734.862,391.957 753.5,382C757.344,380.414 761.344,379.414 765.5,379C757.833,368.667 750.167,358.333 742.5,348C704.874,355.372 681.208,340.706 671.5,304C673.859,294.492 679.526,291.992 688.5,296.5C691.372,303.247 694.539,309.914 698,316.5C705.176,325.421 714.509,329.754 726,329.5C731.821,328.895 737.654,328.562 743.5,328.5L763.5,328.5C763.815,324.629 763.482,320.962 762.5,317.5C762.799,315.396 762.466,313.396 761.5,311.5C744.498,292.849 730.998,271.849 721,248.5C704.882,266.873 684.715,274.373 660.5,271C652.44,280.403 649.607,291.237 652,303.5C656.476,313.12 661.476,322.453 667,331.5C668.785,345.388 663.118,350.055 650,345.5C641.812,332.455 635.812,318.455 632,303.5C630.474,292.44 631.808,281.774 636,271.5L639.5,268C609.464,264.849 582.464,272.349 558.5,290.5C543.875,300.624 531.375,312.958 521,327.5C513.444,340.944 508.444,355.277 506,370.5C505.5,393.498 505.333,416.498 505.5,439.5L505.5,481.5L522.5,481.5C522.733,428.972 538.233,381.639 569,339.5C577.244,329.254 586.744,320.42 597.5,313C600.833,309 604.167,305 607.5,301C612.557,298.649 617.057,299.482 621,303.5C623.198,309.317 622.865,314.983 620,320.5C615.934,324.077 611.768,327.411 607.5,330.5C585.736,348.271 569.736,370.271 559.5,396.5C553.284,411.986 548.784,427.986 546,444.5C543.427,458.73 541.76,473.063 541,487.5C540.44,491.627 538.607,494.96 535.5,497.5C525.07,500.451 514.404,502.118 503.5,502.5C452.499,502.333 401.499,502.5 350.5,503C338.263,505.617 327.596,511.117 318.5,519.5C306.54,529.412 299.206,542.079 296.5,557.5C292.754,578.524 294.254,599.19 301,619.5C307.073,630.24 315.239,639.074 325.5,646C328.454,648.441 330.787,651.275 332.5,654.5C332.833,655.833 333.167,657.167 333.5,658.5L333.5,661.5C334.498,693.662 334.832,725.996 334.5,758.5L382.5,758.5C382.333,732.831 382.5,707.165 383,681.5C386.826,658.338 400.326,645.504 423.5,643C451.833,642.333 480.167,642.333 508.5,643C526.891,645.102 540.391,654.269 549,670.5C549.813,672.436 550.313,674.436 550.5,676.5C551.474,703.801 551.808,731.135 551.5,758.5L574.5,758.5C574.333,729.498 574.5,700.498 575,671.5C575.644,665.69 578.811,662.357 584.5,661.5C589.421,661.043 592.921,663.043 595,667.5C595.5,697.832 595.667,728.165 595.5,758.5L617.5,758.5C617.333,724.832 617.5,691.165 618,657.5C621.352,648.147 627.519,641.314 636.5,637C643.619,629.736 649.286,621.569 653.5,612.5C655.596,607.022 656.929,601.355 657.5,595.5C658.301,544.513 658.801,493.513 659,442.5C659.608,440.846 660.108,439.179 660.5,437.5C667.395,433.929 673.228,435.262 678,441.5C679.009,443.025 679.509,444.692 679.5,446.5C679.667,555.167 679.5,663.834 679,772.5C678.215,774.286 677.049,775.786 675.5,777C629.501,777.5 583.501,777.667 537.5,777.5C534.548,776.641 532.715,774.641 532,771.5C531.501,767.514 531.334,763.514 531.5,759.5L531.5,687.5C530.374,680.214 527.374,673.714 522.5,668C520.975,666.991 519.308,666.491 517.5,666.5C517.389,665.883 517.056,665.383 516.5,665C482.833,664.333 449.167,664.333 415.5,665C408.973,668.541 405.14,674.041 404,681.5C403.667,710.5 403.333,739.5 403,768.5C402.272,772.142 400.438,774.975 397.5,777C358.213,778.643 318.88,778.976 279.5,778C276.272,776.437 274.105,773.937 273,770.5C272.333,737.167 272.333,703.833 273,670.5C276.438,661.598 282.105,659.598 290,664.5C290.667,665.833 291.333,667.167 292,668.5C292.825,698.209 292.658,727.875 291.5,757.5C298.803,758.497 306.137,758.831 313.5,758.5C313.667,726.832 313.5,695.165 313,663.5C304.806,655.728 296.806,647.728 289,639.5C280.465,625.693 275.799,610.693 275,594.5C272.284,570.458 275.617,547.458 285,525.5C280.015,527.241 275.181,529.408 270.5,532C267.894,533.938 266.061,536.438 265,539.5C263.55,554.095 263.05,568.761 263.5,583.5C263.667,602.836 263.5,622.17 263,641.5C257.756,669.698 240.923,682.198 212.5,679C207.326,677.249 202.659,674.749 198.5,671.5ZM254.5,518.5C257.715,515.738 261.049,513.238 264.5,511C259.778,501.471 252.111,497.471 241.5,499C236.557,500.138 232.224,502.305 228.5,505.5C223.37,509.127 219.537,513.794 217,519.5C214.316,527.722 211.15,535.722 207.5,543.5C205.19,546.102 203.357,549.102 202,552.5C201.333,582.5 201.333,612.5 202,642.5C203.446,649.419 207.279,654.419 213.5,657.5C228.236,662.215 238.07,657.215 243,642.5C243.333,608.833 243.667,575.167 244,541.5C245.135,534.095 247.468,527.095 251,520.5C251.816,519.177 252.983,518.511 254.5,518.5ZM636.5,757.5C643.648,758.492 650.981,758.825 658.5,758.5C658.832,720.33 658.499,682.33 657.5,644.5C655.451,647.55 652.784,649.883 649.5,651.5C644.833,654.833 640.833,658.833 637.5,663.5C636.522,694.802 636.189,726.135 636.5,757.5ZM773.5,395.5C752.207,403.771 734.207,416.771 719.5,434.5C731.312,448.813 743.312,462.98 755.5,477C767.961,487.496 781.295,488.829 795.5,481C810.298,470.7 814.132,457.2 807,440.5C797.028,425.696 786.862,411.029 776.5,396.5C775.675,395.614 774.675,395.281 773.5,395.5ZM777.5,448.5C785.498,447.213 791.665,449.88 796,456.5C797.017,468.483 791.517,474.316 779.5,474C768.789,470.084 765.622,462.917 770,452.5C772.514,450.996 775.014,449.662 777.5,448.5Z"/>
    </g>
</svg>
