<?xml version="1.0" encoding="UTF-8" standalone="no"?>
<!DOCTYPE svg PUBLIC "-//W3C//DTD SVG 1.1//EN" "http://www.w3.org/Graphics/SVG/1.1/DTD/svg11.dtd">
<svg width="100%" height="100%" viewBox="0 0 1024 1024" version="1.1" xmlns="http://www.w3.org/2000/svg" xmlns:xlink="http://www.w3.org/1999/xlink" xml:space="preserve" xmlns:serif="http://www.serif.com/" style="fill-rule:evenodd;clip-rule:evenodd;stroke-linejoin:round;stroke-miterlimit:2;">
    <g transform="matrix(1.46306,0,0,1.46306,-250.742,-225.899)">
        <path d="M380.5,842.5C378.692,842.509 377.025,842.009 375.5,841C361.698,831.361 349.365,820.194 338.5,807.5C325.201,787.987 318.867,766.32 319.5,742.5C319.426,712.886 328.593,686.553 347,663.5C364.018,644.933 382.851,628.6 403.5,614.5C398.004,612.177 393.17,608.844 389,604.5C387.451,601.688 386.618,598.688 386.5,595.5C387.217,593.047 388.384,590.713 390,588.5C391.313,587.427 392.813,586.76 394.5,586.5C403.462,591.985 412.462,597.485 421.5,603C423.289,603.52 424.956,603.187 426.5,602C461.665,573.12 475.832,535.953 469,490.5C467.117,463.985 462.451,437.985 455,412.5C448.457,392.204 441.124,372.204 433,352.5C430.664,341.839 434.831,337.339 445.5,339C447.552,339.93 449.052,341.43 450,343.5C461.847,372.887 471.847,402.887 480,433.5C486.572,463.496 489.572,493.829 489,524.5C485.561,560.216 470.394,589.716 443.5,613L392.5,646C368.298,663.861 351.464,687.027 342,715.5C329.907,763.124 344.74,799.624 386.5,825C390.342,827.002 394.342,828.502 398.5,829.5C420.686,837.138 442.352,835.804 463.5,825.5C476.913,817.584 487.079,806.584 494,792.5C506.321,760.649 498.154,735.815 469.5,718C450.23,710.493 431.897,712.16 414.5,723C403.833,729.678 397,739.178 394,751.5C393.11,768.433 400.943,778.433 417.5,781.5C428.609,781.375 435.609,776.041 438.5,765.5C433.086,766.221 428.253,764.888 424,761.5C418.825,746.327 424.325,739.827 440.5,742C452.473,744.802 458.806,752.302 459.5,764.5C458.304,775.725 453.304,784.891 444.5,792C417.666,807.332 395.833,802.165 379,776.5C371.461,758.017 373.461,740.683 385,724.5C411.668,693.127 443.835,685.96 481.5,703C508.118,719.736 520.285,743.903 518,775.5C514.427,802.671 501.261,823.671 478.5,838.5C446.528,858.144 413.861,859.477 380.5,842.5ZM534.5,161.5C540.597,165.097 545.93,169.597 550.5,175C564.34,170.71 577.674,172.043 590.5,179C595.833,182.667 601.167,186.333 606.5,190C616.716,196.646 619.716,205.646 615.5,217C624.226,220.395 631.892,225.395 638.5,232C644.28,240.78 650.446,249.28 657,257.5C659.572,260.713 661.072,264.38 661.5,268.5C657.582,287.085 646.249,297.752 627.5,300.5C628.356,304.57 629.523,308.57 631,312.5C647.881,341.209 672.715,359.043 705.5,366C712.878,364.747 718.378,367.247 722,373.5C726.528,394.957 718.361,408.79 697.5,415C689.139,415.705 680.806,415.538 672.5,414.5C641.388,408.944 614.388,395.444 591.5,374C586.746,374.692 582.079,376.025 577.5,378C573.514,378.499 569.514,378.666 565.5,378.5C563.849,377.03 562.015,375.697 560,374.5C558.541,372.568 557.375,370.568 556.5,368.5C556.166,357.337 561.499,352.837 572.5,355C575.458,355.229 577.958,356.396 580,358.5C585.584,352.858 592.084,351.358 599.5,354C611.646,367.798 626.313,378.131 643.5,385C656.03,390.287 669.03,393.954 682.5,396C689.169,397.034 695.502,396.034 701.5,393C703.93,390.695 704.93,387.862 704.5,384.5C666.786,378.898 637.953,359.898 618,327.5C613.968,319.242 611.468,310.575 610.5,301.5C605.049,300.404 600.049,298.237 595.5,295C586.004,285.495 577.838,274.995 571,263.5C564.815,256.651 557.982,250.484 550.5,245C542.647,241.578 535.314,237.412 528.5,232.5C526.578,228.701 526.078,224.701 527,220.5C528.684,214.092 530.518,207.758 532.5,201.5C535.841,186.355 529.841,177.521 514.5,175C508.167,174.333 501.833,174.333 495.5,175C493.959,176.579 492.792,178.413 492,180.5C491.333,187.5 491.333,194.5 492,201.5C493.194,209.575 494.694,217.575 496.5,225.5C496.52,230.628 494.52,234.794 490.5,238C465.186,248.387 443.352,263.553 425,283.5C404.765,309.002 398.431,337.668 406,369.5C411.05,386.597 416.384,403.597 422,420.5C428.363,442.408 430.697,464.742 429,487.5C423.062,525.573 403.228,553.74 369.5,572C357.828,577.14 346.494,576.64 335.5,570.5C324.291,561.699 322.125,551.032 329,538.5C334.585,532.322 340.752,526.988 347.5,522.5C351.061,520.952 354.394,518.952 357.5,516.5C356.335,512.506 355.168,508.506 354,504.5C347.688,502.43 341.522,499.93 335.5,497C331.542,493.579 328.708,489.412 327,484.5C325.001,471.498 327.001,459.165 333,447.5C336.223,441.277 341.057,436.777 347.5,434C358.184,433.06 368.85,432.06 379.5,431C384.392,429.106 389.059,426.772 393.5,424C396.392,422.27 398.725,420.103 400.5,417.5C394.774,401.06 389.941,384.394 386,367.5C383.503,354.228 383.003,340.895 384.5,327.5C379.742,324.28 374.742,321.28 369.5,318.5C359.977,312.818 351.143,306.152 343,298.5C338.351,290.663 337.351,282.33 340,273.5C343.873,259.915 350.707,248.082 360.5,238C362.746,236.961 364.913,235.794 367,234.5C366.372,196.126 384.872,180.626 422.5,188C432.503,190.67 439.336,196.837 443,206.5C446.779,216.617 449.779,226.951 452,237.5C459.363,231.734 467.53,227.401 476.5,224.5C471.269,207.352 470.436,190.019 474,172.5C480.556,159.547 491.223,153.547 506,154.5C515.931,155.191 525.431,157.524 534.5,161.5ZM561.5,191.5C558.662,192.635 555.662,193.635 552.5,194.5C552.026,203.561 550.36,212.394 547.5,221C553.641,224.907 559.975,228.574 566.5,232C572.378,236.21 577.211,241.377 581,247.5C584.694,237.111 589.694,227.444 596,218.5C598.537,210.198 596.037,204.032 588.5,200C580.292,194.429 571.292,191.596 561.5,191.5ZM399.5,204.5C395.498,205.929 391.998,208.262 389,211.5C386.077,217.189 385.077,223.189 386,229.5C396.548,240.936 405.881,253.27 414,266.5C420.678,258.656 427.844,251.323 435.5,244.5C431.713,233.971 428.213,223.305 425,212.5C417.953,205.541 409.453,202.875 399.5,204.5ZM608.5,233.5C605.947,238.938 603.113,244.271 600,249.5C593.693,261.225 595.86,271.059 606.5,279C620.358,285.078 632.191,282.245 642,270.5C642.315,269.092 641.982,267.759 641,266.5C635.947,260.448 631.281,254.115 627,247.5C622.041,241.016 615.875,236.35 608.5,233.5ZM376.5,249.5C363.694,258.781 357.527,271.448 358,287.5C367.91,294.54 378.077,301.206 388.5,307.5C392.302,298.563 396.635,289.897 401.5,281.5C400.653,280.155 399.487,279.155 398,278.5C393.838,270.172 389.171,262.172 384,254.5C382.143,251.8 379.643,250.134 376.5,249.5ZM404.5,437.5C402.599,439.796 400.266,441.629 397.5,443C383.485,450.715 368.485,453.715 352.5,452C346.88,460.478 343.88,469.812 343.5,480C353.765,481.3 362.265,485.8 369,493.5C376.323,505.362 377.323,517.695 372,530.5C365.564,534.259 359.064,537.925 352.5,541.5C348.101,544.871 345.435,549.205 344.5,554.5C350.565,554.739 356.565,554.239 362.5,553C403.853,527.753 419.02,491.253 408,443.5C407.647,440.848 406.48,438.848 404.5,437.5ZM542.5,314.5C540.762,308.798 541.429,303.465 544.5,298.5C554.391,291.922 562.558,293.588 569,303.5C570.855,314.464 566.355,320.797 555.5,322.5C549.737,322.12 545.404,319.453 542.5,314.5ZM567.5,511.5C572.64,512.488 577.974,512.821 583.5,512.5C583.784,510.585 583.451,508.919 582.5,507.5C581.967,499.767 580.967,492.101 579.5,484.5C554.488,484.625 529.488,484.125 504.5,483C503.069,482.535 501.903,481.701 501,480.5C498.417,475.945 498.083,471.278 500,466.5C500.75,465.874 501.584,465.374 502.5,465C525.167,464.667 547.833,464.333 570.5,464C566.547,456.734 561.88,450.067 556.5,444C537.167,443.667 517.833,443.333 498.5,443C493.787,438.904 492.287,433.737 494,427.5C494.465,426.069 495.299,424.903 496.5,424C512.153,424.462 527.82,424.462 543.5,424C540.202,419.7 536.535,415.7 532.5,412C519.833,403 507.167,394 494.5,385C464.101,360.662 457.601,331.162 475,296.5C487.866,280.988 504.366,273.822 524.5,275C530.092,277.402 531.925,281.569 530,287.5C529.208,289.587 528.041,291.421 526.5,293C517.006,295.118 507.672,297.784 498.5,301C484.549,312.095 480.382,326.262 486,343.5C490.413,354.829 497.58,363.996 507.5,371C539.048,390.215 564.215,415.715 583,447.5C606.779,489.564 607.445,531.897 585,574.5C563.908,602.8 535.741,618.8 500.5,622.5C487.455,623.254 481.955,617.254 484,604.5L486.5,602C513.007,604.411 536.007,596.577 555.5,578.5C537.874,575.344 520.874,570.178 504.5,563C499.211,557.739 498.211,551.739 501.5,545C504.03,543.578 506.697,543.245 509.5,544C526.733,550.784 544.4,556.117 562.5,560C565.167,560.667 567.833,560.667 570.5,560C576.261,551.31 579.928,541.81 581.5,531.5C557.003,532.14 533.003,528.973 509.5,522C499.399,518.647 497.066,512.48 502.5,503.5C504.311,502.261 506.311,501.594 508.5,501.5C519.463,504.157 530.463,506.657 541.5,509C550.064,510.921 558.73,511.755 567.5,511.5ZM482.5,644.5C490.962,644.797 494.462,649.13 493,657.5C492.208,659.587 491.041,661.421 489.5,663C461.449,675.36 432.783,686.027 403.5,695C394.965,698.779 389.965,696.112 388.5,687C388.565,684.474 389.232,682.141 390.5,680C421.766,669.526 452.433,657.693 482.5,644.5Z"/>
    </g>
</svg>
