<?xml version="1.0" encoding="UTF-8" standalone="no"?>
<!DOCTYPE svg PUBLIC "-//W3C//DTD SVG 1.1//EN" "http://www.w3.org/Graphics/SVG/1.1/DTD/svg11.dtd">
<svg width="100%" height="100%" viewBox="0 0 1024 1024" version="1.1" xmlns="http://www.w3.org/2000/svg" xmlns:xlink="http://www.w3.org/1999/xlink" xml:space="preserve" xmlns:serif="http://www.serif.com/" style="fill-rule:evenodd;clip-rule:evenodd;stroke-linejoin:round;stroke-miterlimit:2;">
    <g transform="matrix(1.46099,0,0,1.46099,-202.504,-158.614)">
        <path d="M233.5,454.5C208.398,468.811 184.898,485.477 163,504.5C162.266,514.238 157.099,518.405 147.5,517C136.352,509.397 135.685,500.731 145.5,491C161.117,479.717 176.451,468.05 191.5,456C202.167,449 212.833,442 223.5,435C225.025,433.991 226.692,433.491 228.5,433.5L228.5,309.5C227.549,308.081 227.216,306.415 227.5,304.5C200.504,299.004 186.171,282.504 184.5,255C186.647,229.507 200.314,213.84 225.5,208C253.042,206.84 270.875,219.34 279,245.5C282.153,270.029 272.986,288.195 251.5,300C248.28,301.352 244.947,302.186 241.5,302.5C240.954,344.566 240.287,386.566 239.5,428.5C247.929,424.786 256.262,420.786 264.5,416.5C269.632,414.1 274.632,411.434 279.5,408.5C275.508,405.341 272.008,401.674 269,397.5C268.333,382.833 268.333,368.167 269,353.5C269.606,350.452 271.106,347.952 273.5,346C277.577,343.295 281.91,341.128 286.5,339.5C308.053,328.309 330.72,319.643 354.5,313.5C371.918,307.539 389.918,304.039 408.5,303C416.271,306.46 418.604,312.294 415.5,320.5C418.614,327.727 421.447,335.061 424,342.5C424.174,337.316 424.674,332.316 425.5,327.5L425.5,263.5C403.014,262.181 388.181,250.847 381,229.5C375.153,204.699 382.986,185.532 404.5,172C430.071,160.768 450.904,166.602 467,189.5C473.536,200.053 475.536,211.387 473,223.5C469.29,243.371 457.79,256.037 438.5,261.5L438.5,349.5C439.204,353.803 437.87,357.303 434.5,360C424.477,366.811 415.643,365.644 408,356.5C403.443,346.83 399.277,336.997 395.5,327C395.164,325.97 394.497,325.47 393.5,325.5C362.293,331.014 332.293,340.347 303.5,353.5C298.816,356.344 293.816,358.344 288.5,359.5C288.334,369.172 288.5,378.839 289,388.5C294.625,394.567 301.458,397.733 309.5,398C312.154,397.059 314.821,396.226 317.5,395.5C326.706,391.274 336.373,388.107 346.5,386C426.515,367.693 505.182,372.36 582.5,400C600.064,406.782 617.398,414.115 634.5,422C635.833,422.667 637.167,422.667 638.5,422C637.242,420.259 636.242,418.426 635.5,416.5C629.85,407.219 623.684,398.219 617,389.5C616.803,394.086 616.303,398.586 615.5,403C601.486,402.957 596.653,396.124 601,382.5C602.509,381.91 604.009,381.244 605.5,380.5C594.801,359.969 578.801,345.135 557.5,336C547.429,332.367 537.429,328.867 527.5,325.5C514.16,323.443 500.827,321.277 487.5,319C480.872,317.948 474.206,317.448 467.5,317.5C467.188,324.422 467.521,331.256 468.5,338C477.792,339.231 487.126,339.731 496.5,339.5C496.812,346.422 496.479,353.256 495.5,360C486.201,359.231 476.867,358.231 467.5,357C458.131,357.409 451.964,353.243 449,344.5C448.333,332.167 448.333,319.833 449,307.5C452.19,299.311 458.19,295.978 467,297.5C498.894,298.248 529.727,303.914 559.5,314.5C577.106,321.278 592.772,331.111 606.5,344C611.3,349.802 616.467,355.302 622,360.5C634.835,376.337 646.501,393.004 657,410.5C659.489,414.311 660.989,418.478 661.5,423C661.475,424.876 660.809,426.376 659.5,427.5C659.586,428.496 659.252,429.329 658.5,430C656.668,430.748 655.001,431.748 653.5,433C666.005,441.751 679.671,448.084 694.5,452C697.928,452.701 701.262,452.368 704.5,451C721.758,431.74 741.424,415.407 763.5,402C778.566,393.479 794.566,387.646 811.5,384.5C828.849,382.677 838.182,390.51 839.5,408C839.136,410.921 838.469,413.754 837.5,416.5C826.226,435.614 814.726,454.614 803,473.5C797.142,484.245 792.975,495.579 790.5,507.5C790.756,511.811 791.756,515.811 793.5,519.5C794.964,526.059 797.131,532.393 800,538.5C807.745,553.659 815.745,568.659 824,583.5C828.547,591.927 832.547,600.594 836,609.5C837.28,623.745 830.78,631.912 816.5,634C812.833,634.667 809.167,634.667 805.5,634C772.013,625.845 742.846,610.011 718,586.5C714.44,580.551 710.274,575.051 705.5,570C697.182,564.88 688.515,564.214 679.5,568L649.5,583C661.355,586.694 665.355,594.527 661.5,606.5C654.816,625.548 644.816,642.548 631.5,657.5C618.311,668.821 603.644,677.988 587.5,685C575.431,686.394 571.264,681.227 575,669.5L578.5,666C586.986,662.257 595.319,658.257 603.5,654C619.381,640.293 632.048,624.127 641.5,605.5C641.42,603.67 640.587,602.337 639,601.5C634.812,604.51 630.312,606.843 625.5,608.5C580.987,639.739 531.654,659.406 477.5,667.5C449.087,671.651 420.42,672.484 391.5,670C387.55,669.538 383.716,668.704 380,667.5C390.042,686.585 402.209,704.418 416.5,721C426.415,727.722 437.415,731.055 449.5,731C456.392,733.851 458.225,738.684 455,745.5C450.684,749.976 445.35,751.976 439,751.5C423.557,750.111 410.224,744.111 399,733.5C382.591,713.09 367.758,691.59 354.5,669C355.148,667.56 355.481,666.06 355.5,664.5C322.433,659.756 290.766,650.256 260.5,636C255.434,632.478 250.434,628.978 245.5,625.5C243.695,624.763 242.029,623.763 240.5,622.5C239.893,622.624 239.56,622.957 239.5,623.5C240.167,631.676 240.833,640.01 241.5,648.5C266.314,648.346 283.148,660.013 292,683.5C296.197,704.242 290.364,721.742 274.5,736C250.822,751.457 228.655,749.624 208,730.5C195.964,715.298 192.631,698.298 198,679.5C204.05,665.411 214.216,655.744 228.5,650.5L228.5,614.5C217.686,605.864 206.686,597.364 195.5,589C181.425,575.94 169.259,561.44 159,545.5C156.397,537.03 159.23,531.696 167.5,529.5C170.028,529.763 172.361,530.596 174.5,532C179.898,540.734 186.065,548.9 193,556.5C214.377,578.932 238.877,597.099 266.5,611C267.928,611.579 269.262,611.412 270.5,610.5C271.965,609.263 273.632,608.263 275.5,607.5C291.45,599.608 305.95,589.608 319,577.5C329.281,564.601 335.447,549.934 337.5,533.5C341.814,487.289 323.481,453.455 282.5,432C280.833,431.333 279.167,431.333 277.5,432C262.932,439.784 248.265,447.284 233.5,454.5ZM322.5,414.5C317.074,416.361 311.74,418.527 306.5,421C314.265,426.761 321.431,433.261 328,440.5C345.452,459.074 355.618,481.074 358.5,506.5C359.029,511.822 359.529,517.156 360,522.5C360.601,519.363 361.601,516.363 363,513.5C373.333,499.833 383.667,486.167 394,472.5C405.14,459.164 419.307,454.331 436.5,458C446.98,459.073 455.647,463.573 462.5,471.5C472.14,484.974 481.974,498.307 492,511.5C499.404,523.979 499.07,536.312 491,548.5C480.95,560.882 471.283,573.549 462,586.5C445.8,602.211 427.634,605.045 407.5,595C398.227,588.061 390.727,579.561 385,569.5C371.859,558.688 363.193,545.022 359,528.5C358.814,539.266 356.647,549.599 352.5,559.5C347.146,574.229 338.813,586.896 327.5,597.5C315.954,608.106 302.954,616.439 288.5,622.5C291.028,624.78 294.028,626.614 297.5,628C305.291,631.562 313.291,634.562 321.5,637C367.426,649.454 414.093,653.62 461.5,649.5C471.89,648.41 482.223,646.91 492.5,645C532.59,636.037 569.59,620.204 603.5,597.5C601.63,592.739 600.963,587.739 601.5,582.5C609.028,583.472 616.028,582.139 622.5,578.5C638.106,567.687 654.439,557.853 671.5,549C698.633,538.505 718.8,546.005 732,571.5C739.302,579.141 747.469,585.641 756.5,591C774.589,601.877 793.922,609.71 814.5,614.5C813.254,609.33 811.42,604.33 809,599.5C798.141,579.782 787.808,559.782 778,539.5C771.741,523.17 770.408,506.503 774,489.5C777.895,477.707 782.895,466.373 789,455.5C797.603,440.569 806.603,425.902 816,411.5C816.977,409.26 817.477,406.927 817.5,404.5C811.427,405.518 805.427,406.852 799.5,408.5C789.684,412.405 780.017,416.905 770.5,422C750.12,434.698 731.787,450.031 715.5,468C701.098,474.04 686.764,473.707 672.5,467C652.915,457.069 633.582,446.736 614.5,436C577.593,419.522 539.26,407.522 499.5,400C439.153,389.765 380.153,394.598 322.5,414.5ZM480.5,604.5L498.5,604.5L498.5,632.5L480.5,632.5L480.5,604.5ZM430.5,609.5L450.5,609.5L450.5,636.5C443.91,636.811 437.41,636.478 431,635.5C430.5,626.84 430.334,618.173 430.5,609.5ZM380.5,443.5C378.529,434.895 377.862,425.895 378.5,416.5C384.561,416.79 390.561,416.457 396.5,415.5C397.498,424.81 397.832,434.143 397.5,443.5L380.5,443.5ZM527.5,485.5L508.5,485.5C508.737,484.209 508.404,483.209 507.5,482.5L507.5,458.5L527.5,458.5L527.5,485.5ZM430.5,415.5C437.154,416.791 443.82,416.791 450.5,415.5C450.731,423.209 450.398,430.876 449.5,438.5L430.5,438.5L430.5,415.5ZM534.5,588.5L552.5,588.5C552.666,598.506 552.5,608.506 552,618.5C546.259,617.525 540.425,617.192 534.5,617.5L534.5,588.5ZM507.5,505.5C511.064,506.423 514.731,506.756 518.5,506.5L518.5,525.5L507.5,525.5L507.5,505.5ZM480.5,414.5C486.441,415.413 492.441,415.746 498.5,415.5L498.5,443.5L480.5,443.5L480.5,414.5ZM552.5,500.5L571.5,500.5L571.5,524.5L553.5,524.5C553.269,516.495 552.935,508.495 552.5,500.5ZM534.5,415.5C540.456,416.494 546.456,417.161 552.5,417.5L552.5,439.5L534.5,439.5L534.5,415.5ZM603.5,561.5C601.888,552.247 600.888,542.914 600.5,533.5C606.074,531.547 612.074,530.88 618.5,531.5L618.5,561.5L603.5,561.5ZM377.5,607.5L397.5,607.5L397.5,636.5L378.5,636.5C378.725,626.801 378.392,617.134 377.5,607.5ZM571.5,544.5L571.5,572.5L553.5,572.5L553.5,544.5L571.5,544.5ZM694.5,494.5C699.64,495.488 704.974,495.821 710.5,495.5L710.5,523.5L692.5,523.5C691.86,513.442 692.527,503.775 694.5,494.5ZM600.5,458.5L619.5,458.5L619.5,487.5L601.5,487.5C601.725,477.801 601.392,468.134 600.5,458.5ZM651.5,519.5C651.174,511.316 651.508,503.316 652.5,495.5C657.862,495.528 663.195,495.194 668.5,494.5L668.5,524.5L651.5,524.5L651.5,519.5ZM507.5,544.5L527.5,544.5L527.5,572.5L507.5,572.5L507.5,544.5ZM553.5,457.5L571.5,457.5L571.5,484.5L553.5,484.5L553.5,457.5ZM421.5,477.5C419.243,477.962 417.243,478.962 415.5,480.5C413.517,482.984 411.35,485.317 409,487.5C401.788,498.591 393.622,508.924 384.5,518.5C382.539,520.963 380.372,523.297 378,525.5C377.333,526.5 377.333,527.5 378,528.5C391.167,545 404.333,561.5 417.5,578C427.481,583.385 436.648,582.218 445,574.5C454.604,560.295 464.938,546.629 476,533.5C477.112,531.61 477.946,529.61 478.5,527.5C467.451,511.923 455.784,496.757 443.5,482C436.744,476.972 429.411,475.472 421.5,477.5ZM421.5,187.5C411.579,191.586 404.413,198.586 400,208.5C397.333,228.5 405.999,239.833 426,242.5C440.083,241.472 448.75,234.138 452,220.5C453.446,198.779 443.28,187.779 421.5,187.5ZM228.5,228.5C221.714,230.486 215.88,234.152 211,239.5C201.094,259.113 206.261,273.28 226.5,282C243.142,283.61 253.642,276.443 258,260.5C259.088,239.755 249.255,229.089 228.5,228.5ZM239.5,668.5C228.892,671.941 221.725,678.941 218,689.5C215.64,712.805 226.14,724.305 249.5,724C265.715,719.741 273.215,709.241 272,692.5C267.305,676.385 256.472,668.385 239.5,668.5ZM517.5,340.5L534.5,340.5L534.5,368.5L517.5,368.5L517.5,340.5ZM377.5,345.5C383.537,345.171 389.537,345.504 395.5,346.5C396.472,355.446 396.806,364.446 396.5,373.5C390.178,374.014 383.845,374.347 377.5,374.5L377.5,345.5ZM557.5,353.5L575.5,353.5L575.5,384.5C569.575,384.808 563.741,384.475 558,383.5C557.5,373.506 557.334,363.506 557.5,353.5ZM237.5,468.5C254.961,467.151 268.795,473.484 279,487.5C284.402,496.267 285.736,505.6 283,515.5C275.533,537.962 260.033,547.796 236.5,545C230.609,543.388 225.275,540.721 220.5,537C201.007,515.286 202.007,494.619 223.5,475C228.034,472.333 232.7,470.166 237.5,468.5ZM239.5,490.5C235.572,492.592 232.406,495.592 230,499.5C227,507.355 228.5,514.189 234.5,520C245.936,527.634 254.769,525.467 261,513.5C263.823,496.816 256.657,489.15 239.5,490.5ZM542.5,662.5L561.5,662.5C561.666,671.506 561.5,680.506 561,689.5C554.924,690.476 548.758,690.81 542.5,690.5L542.5,662.5Z"/>
    </g>
</svg>
