<?xml version="1.0" encoding="UTF-8" standalone="no"?>
<!DOCTYPE svg PUBLIC "-//W3C//DTD SVG 1.1//EN" "http://www.w3.org/Graphics/SVG/1.1/DTD/svg11.dtd">
<svg width="100%" height="100%" viewBox="0 0 1024 1024" version="1.1" xmlns="http://www.w3.org/2000/svg" xmlns:xlink="http://www.w3.org/1999/xlink" xml:space="preserve" xmlns:serif="http://www.serif.com/" style="fill-rule:evenodd;clip-rule:evenodd;stroke-linejoin:round;stroke-miterlimit:2;">
    <g transform="matrix(1.50746,0,0,1.50746,-239.521,-244.962)">
        <path d="M638.5,448.5C630.832,463.832 618.832,474.166 602.5,479.5C599.146,481.258 595.479,482.258 591.5,482.5C586.501,484.602 581.168,485.769 575.5,486C557.109,486.924 539.109,484.591 521.5,479C503.298,471.62 484.631,466.453 465.5,463.5L463.5,463.5C447.39,463.589 431.723,466.256 416.5,471.5L415.5,471.5C398.625,473.845 381.625,476.345 364.5,479C356.835,480.673 349.502,483.173 342.5,486.5C324.351,495.314 311.351,508.981 303.5,527.5C299.185,541.56 298.351,555.893 301,570.5C306.522,586.536 312.855,602.203 320,617.5C322.074,624.382 321.907,631.048 319.5,637.5C319.285,643.029 318.118,648.362 316,653.5C307.61,670.704 297.444,686.704 285.5,701.5C286.145,702.646 286.978,703.646 288,704.5C293.007,721.856 299.007,738.856 306,755.5C311.206,769.952 315.706,784.619 319.5,799.5C323.009,806.364 325.342,813.698 326.5,821.5C327.832,831.477 323.832,838.144 314.5,841.5C302.086,843.138 295.086,837.804 293.5,825.5C288.446,805.974 282.446,786.641 275.5,767.5C268.798,748.905 261.965,730.238 255,711.5L253.5,699.5C253.678,696.263 254.345,693.263 255.5,690.5C255.755,687.984 256.589,685.65 258,683.5C272.201,670.832 282.034,655.499 287.5,637.5C287.328,636.508 287.662,635.842 288.5,635.5C289.221,632.183 289.388,628.849 289,625.5C283.65,614.472 279.15,603.138 275.5,591.5C274.833,591.5 274.5,591.167 274.5,590.5C270.776,580.498 268.443,570.165 267.5,559.5C267.264,551.458 267.597,543.458 268.5,535.5C266.745,534.928 265.078,534.094 263.5,533C252.868,522.89 244.868,511.057 239.5,497.5C233.629,484.705 231.296,471.372 232.5,457.5C234.223,446.631 240.556,442.131 251.5,444C253.949,444.725 256.283,445.725 258.5,447C272.309,457.451 287.309,465.951 303.5,472.5C304.117,472.611 304.617,472.944 305,473.5C309.282,469.283 314.116,465.95 319.5,463.5C327.686,457.981 336.686,453.981 346.5,451.5C351.655,449.545 356.989,448.211 362.5,447.5C378.306,445.011 394.306,442.844 410.5,441C433.318,432.897 456.651,430.73 480.5,434.5C497.903,437.8 514.903,442.633 531.5,449C552.87,456.241 574.203,456.241 595.5,449C602.333,446.167 607.167,441.333 610,434.5C611.58,425.576 611.913,416.576 611,407.5C592.643,409.869 575.81,405.869 560.5,395.5C556.091,392.633 552.091,389.299 548.5,385.5C542.998,380.495 538.998,374.495 536.5,367.5C535.013,364.454 534.013,361.121 533.5,357.5C521.48,353.168 510.814,346.835 501.5,338.5C477.907,320.347 462.574,296.68 455.5,267.5C448.889,264.707 443.222,260.707 438.5,255.5C427.77,247.041 421.437,236.041 419.5,222.5C420.51,210.143 427.176,205.31 439.5,208C446.013,211.68 451.013,216.847 454.5,223.5C455.117,223.611 455.617,223.944 456,224.5C455.845,207.998 456.012,191.665 456.5,175.5C458.234,166.942 463.567,162.609 472.5,162.5C479.141,162.978 483.641,166.311 486,172.5C486.5,201.831 486.667,231.165 486.5,260.5C492.38,284.697 505.38,304.03 525.5,318.5C528.032,319.596 530.365,320.929 532.5,322.5C552.494,331.019 573.161,332.852 594.5,328C592.627,326.296 590.96,324.463 589.5,322.5C584.069,316.734 579.402,310.401 575.5,303.5C567.168,290.351 561.668,276.018 559,260.5C557.501,242.191 557.167,223.858 558,205.5C559,200.833 560,196.167 561,191.5C561.374,189.509 562.207,187.842 563.5,186.5L563.5,185.5C565.335,177.827 570.168,174.161 578,174.5C592.021,175.193 598.021,182.527 596,196.5C594.535,201.894 592.869,207.228 591,212.5C589.753,218.143 589.086,223.81 589,229.5L610,244.5C614.74,251.592 614.574,258.592 609.5,265.5C605.207,269.06 600.54,270.06 595.5,268.5L593.5,268.5C593.062,268.435 592.728,268.601 592.5,269C595.169,276.171 598.503,283.005 602.5,289.5C612.087,301.247 623.42,311.081 636.5,319C647.862,323.21 659.529,326.543 671.5,329C676.377,330.942 681.044,333.108 685.5,335.5C688.099,335.549 690.266,336.549 692,338.5C693.086,331.69 695.253,325.357 698.5,319.5C706.678,297.992 722.011,284.659 744.5,279.5C755.996,281.797 760.496,288.797 758,300.5C756.969,303.539 755.135,306.039 752.5,308C746.419,310.932 740.752,314.432 735.5,318.5C735.5,319.167 735.167,319.5 734.5,319.5C732.22,323.618 729.72,327.618 727,331.5C724.16,339.843 721.327,348.176 718.5,356.5C728.859,367.504 740.192,377.337 752.5,386C764.73,396.854 767.897,410.021 762,425.5C756.297,439.729 747.13,451.229 734.5,460C723.833,465 713.167,470 702.5,475C691.687,482.755 683.854,492.922 679,505.5C676.29,515.91 673.79,526.244 671.5,536.5C671.281,540.8 670.281,544.8 668.5,548.5C664.353,562.804 656.687,574.804 645.5,584.5C644.71,585.401 643.71,586.068 642.5,586.5C630.234,596.581 617.234,605.748 603.5,614C594.205,621.621 587.705,631.121 584,642.5C583.667,704.833 583.333,767.167 583,829.5C578.334,839.914 570.501,843.414 559.5,840C553.977,836.793 551.144,831.959 551,825.5C550.5,766.834 550.333,708.168 550.5,649.5C551.073,649.266 551.411,648.88 551.512,648.342L551.5,647.5C551.194,644.615 551.527,641.948 552.5,639.5C552.731,634.302 553.897,629.302 556,624.5C566.272,602.729 582.105,586.395 603.5,575.5L604.5,575.5C609.237,572.957 613.903,570.123 618.5,567C628.014,559.665 635.014,550.498 639.5,539.5L639.5,537.5C642.001,526.086 644.335,514.752 646.5,503.5L646.5,502.5C652.198,478.053 665.865,459.72 687.5,447.5C697.124,440.276 707.958,435.942 720,434.5C724.2,426.98 728.366,419.48 732.5,412C729.961,409.63 727.628,407.13 725.5,404.5C715.039,395.877 704.706,387.043 694.5,378C688.1,373.478 681.767,368.978 675.5,364.5C661.985,358.551 647.818,355.217 633,354.5C619.066,356.02 605.233,358.187 591.5,361C583.835,361.595 576.168,362.095 568.5,362.5C568.833,363.167 569.167,363.833 569.5,364.5C575.915,369.041 582.915,372.541 590.5,375C602.443,376.249 614.443,376.915 626.5,377C636.955,379.795 642.789,386.628 644,397.5C644.667,409.167 644.667,420.833 644,432.5C643.405,437.577 641.905,442.244 639.5,446.5C639.672,447.492 639.338,448.158 638.5,448.5ZM271.5,489.5C269.83,489.249 268.33,488.582 267,487.5C269.274,494.814 272.941,501.481 278,507.5C279.266,503.356 281.099,499.523 283.5,496C281.359,495.427 279.359,494.594 277.5,493.5C275.463,492.154 273.463,490.82 271.5,489.5ZM683.5,394.5C699.522,394.026 706.022,401.692 703,417.5C701.64,420.735 699.473,423.235 696.5,425C677.786,429.574 669.952,422.408 673,403.5C675.489,399.168 678.989,396.168 683.5,394.5ZM447.5,636.5C445.946,629.665 447.946,623.831 453.5,619C464.758,616.043 473.924,619.209 481,628.5C487.039,620.96 493.873,614.293 501.5,608.5C501.5,607.833 501.833,607.5 502.5,607.5C507.38,604.229 512.714,601.729 518.5,600C523.039,599.268 527.372,599.934 531.5,602C538.194,608.473 539.194,615.64 534.5,623.5C533.375,625.129 532.041,626.629 530.5,628C519.502,633.495 510.502,641.329 503.5,651.5C504.763,653.029 505.763,654.695 506.5,656.5C508.64,660.103 510.807,663.77 513,667.5C517.851,678.87 521.851,690.536 525,702.5C526.302,721.476 526.802,740.476 526.5,759.5C526.667,781.169 526.5,802.836 526,824.5C525.79,826.058 525.29,827.391 524.5,828.5C521.101,838.538 514.101,842.372 503.5,840C497.749,836.899 494.249,832.066 493,825.5C492.5,787.501 492.333,749.501 492.5,711.5C492.678,707.878 492.011,704.544 490.5,701.5C485.664,686.474 478.831,672.474 470,659.5C465.159,653.669 459.326,649.169 452.5,646C450.536,644.549 449.203,642.716 448.5,640.5C447.566,639.432 447.232,638.099 447.5,636.5ZM319.5,751.5C317.386,743.7 315.553,735.7 314,727.5C312.506,716.809 314.506,706.809 320,697.5C324.992,690.678 330.492,684.345 336.5,678.5C343.137,670.528 350.137,662.861 357.5,655.5C362.825,648.843 368.491,642.51 374.5,636.5C379.977,630.869 384.977,624.869 389.5,618.5C395.909,607.816 398.909,596.15 398.5,583.5C397.609,574.489 396.609,565.489 395.5,556.5C395.574,553.626 395.907,550.792 396.5,548C396.978,546.358 397.978,545.191 399.5,544.5C399.5,543.833 399.833,543.5 400.5,543.5C401.894,541.292 403.894,539.792 406.5,539C413.449,537.428 419.282,539.261 424,544.5C428.384,557.974 430.551,571.807 430.5,586C431.135,596.356 429.469,606.19 425.5,615.5C424.629,618.112 423.963,620.779 423.5,623.5C422.662,623.842 422.328,624.508 422.5,625.5C419.238,631.693 415.238,637.36 410.5,642.5C406.302,648.217 401.636,653.55 396.5,658.5C379.897,677.609 363.064,696.609 346,715.5C345.741,720.77 346.574,725.77 348.5,730.5C348.691,734.262 349.358,737.929 350.5,741.5C351.15,743.435 351.483,745.435 351.5,747.5C356.943,770.03 362.276,792.696 367.5,815.5C368.935,818.55 369.602,821.883 369.5,825.5C369.713,828.527 369.047,831.193 367.5,833.5L367.5,834.5C360.649,842.424 352.649,843.591 343.5,838C339.619,835.072 337.119,831.239 336,826.5C332.64,807.519 328.474,788.853 323.5,770.5C322.009,764.201 320.675,757.868 319.5,751.5Z"/>
    </g>
</svg>
