<?xml version="1.0" encoding="UTF-8" standalone="no"?>
<!DOCTYPE svg PUBLIC "-//W3C//DTD SVG 1.1//EN" "http://www.w3.org/Graphics/SVG/1.1/DTD/svg11.dtd">
<svg width="100%" height="100%" viewBox="0 0 1024 1024" version="1.1" xmlns="http://www.w3.org/2000/svg" xmlns:xlink="http://www.w3.org/1999/xlink" xml:space="preserve" xmlns:serif="http://www.serif.com/" style="fill-rule:evenodd;clip-rule:evenodd;stroke-linejoin:round;stroke-miterlimit:2;">
    <g transform="matrix(1.46167,0,0,1.46167,-230.361,-242.421)">
        <path d="M499.5,752.5C468.879,780.612 435.545,805.112 399.5,826C368.353,845.276 334.686,858.276 298.5,865C285.836,866.71 273.169,866.877 260.5,865.5C247.631,862.736 235.631,857.736 224.5,850.5C220.53,847.361 217.03,843.695 214,839.5C208.393,826.998 211.726,817.331 224,810.5C251.432,776.404 278.099,741.737 304,706.5L305.5,702C304.371,694.544 303.538,687.044 303,679.5C299.458,632.074 303.624,585.408 315.5,539.5C313,466.767 340.667,408.6 398.5,365C422.563,349.401 448.897,342.734 477.5,345C489.433,324.733 506.1,309.733 527.5,300C531.632,298.1 535.966,297.267 540.5,297.5C541.356,293.43 542.523,289.43 544,285.5C563.87,242.971 597.37,223.138 644.5,226C664.152,227.997 683.152,232.664 701.5,240C720.764,246.712 737.931,256.879 753,270.5C750.583,258.856 746.916,247.523 742,236.5C725.281,211.148 701.781,196.315 671.5,192C621.205,182.522 578.039,195.689 542,231.5C535.527,240.274 528.693,248.774 521.5,257C516.624,259.736 511.624,260.07 506.5,258C490.442,246.277 474.109,234.943 457.5,224C452.305,220.111 449.971,214.944 450.5,208.5C451.009,205.808 452.009,203.308 453.5,201C457.711,199.466 462.044,199.133 466.5,200C480.482,210.658 494.815,220.825 509.5,230.5C552.108,179.545 606.441,158.712 672.5,168C708.186,173.327 736.852,190.16 758.5,218.5C775.122,243.618 781.122,270.951 776.5,300.5C784.195,307.028 791.028,314.362 797,322.5C807.201,342.297 806.868,361.964 796,381.5C784.736,397.706 773.236,413.706 761.5,429.5C757.232,430.373 752.898,430.706 748.5,430.5C746.028,428.5 743.862,426.167 742,423.5C737.591,413.017 732.924,402.684 728,392.5C722.644,384.31 715.811,377.644 707.5,372.5C695.414,384.016 692.914,397.349 700,412.5C708.584,423.324 715.917,434.991 722,447.5C728.577,469.644 729.243,491.977 724,514.5C708.981,574.251 678.481,624.251 632.5,664.5C620.666,676.762 606.999,686.596 591.5,694C588.943,695.119 586.443,695.285 584,694.5C586.362,700.931 588.362,707.598 590,714.5C592.165,731.674 586.999,746.174 574.5,758C557.801,769.22 540.134,771.386 521.5,764.5C513.526,761.516 506.193,757.516 499.5,752.5ZM559.5,740.5C565.788,733.625 567.788,725.625 565.5,716.5C548.65,716.072 532.983,711.572 518.5,703C481.807,682.138 452.14,653.971 429.5,618.5C424.908,611.816 421.241,604.65 418.5,597C420.109,586.697 425.776,583.364 435.5,587C437.609,588.141 439.442,589.641 441,591.5C460.965,628.799 489.132,658.299 525.5,680C535.25,685.526 545.584,689.36 556.5,691.5C544.777,662.387 532.777,633.387 520.5,604.5C503.857,598.922 490.023,589.256 479,575.5C469.742,563.985 461.742,551.652 455,538.5C452.787,523.704 458.62,518.871 472.5,524C474.709,525.873 476.542,528.04 478,530.5C486.533,546.374 497.367,560.541 510.5,573C518.447,579.072 527.447,581.572 537.5,580.5C541.94,551.21 533.106,526.877 511,507.5C503.751,498.661 497.251,489.328 491.5,479.5C486.707,472.247 482.707,464.581 479.5,456.5C470.961,440.018 466.294,422.351 465.5,403.5C464.679,391.563 466.012,379.896 469.5,368.5C448.915,367.654 429.915,372.82 412.5,384C367.69,417.43 343.023,462.264 338.5,518.5C340.147,556.273 351.314,590.94 372,622.5C398.965,664.631 433.132,699.631 474.5,727.5C474.938,727.565 475.272,727.399 475.5,727C470.308,721.093 468.142,714.26 469,706.5C474.458,700.842 480.625,700.008 487.5,704C496.658,716.657 507.324,727.823 519.5,737.5C532.316,745.382 545.649,746.382 559.5,740.5ZM688.5,358.5C697.018,350.488 706.018,342.988 715.5,336C728.29,324.908 737.456,311.408 743,295.5C743.781,294.056 743.614,292.723 742.5,291.5C713.385,267.729 680.051,253.563 642.5,249C606.063,247.631 580.23,263.464 565,296.5C563.979,304.377 560.479,310.877 554.5,316C540.675,318.6 528.341,324.267 517.5,333C491.312,358.911 483.145,389.744 493,425.5C498.754,444.674 507.421,462.34 519,478.5C528.621,491.123 538.621,503.456 549,515.5C553.252,523.922 556.918,532.588 560,541.5C565.607,558.647 564.607,575.313 557,591.5C554.909,595.423 551.742,598.089 547.5,599.5C546.859,604.636 547.692,609.636 550,614.5C558.983,635.136 567.983,655.803 577,676.5C587.934,669.951 598.434,662.785 608.5,655C637.177,631.487 660.177,603.321 677.5,570.5C685.969,554.219 692.802,537.219 698,519.5C702.215,503.087 703.548,486.421 702,469.5C701.216,461.818 699.216,454.485 696,447.5C690.333,439.833 684.667,432.167 679,424.5C676.094,419.36 673.76,414.027 672,408.5C668.948,388.831 674.448,372.165 688.5,358.5ZM660.5,277.5C682.137,276.65 695.637,286.65 701,307.5C702.173,328.671 692.34,341.504 671.5,346C644.032,345.195 631.199,331.028 633,303.5C636.62,288.803 645.787,280.136 660.5,277.5ZM662.5,300.5C657.879,303.589 656.379,307.923 658,313.5C661.665,320.944 667.165,322.777 674.5,319C679.188,307.211 675.188,301.044 662.5,300.5ZM758.5,317.5C751.839,334.013 741.173,347.513 726.5,358C729.833,360 733.167,362 736.5,364C744.735,373.247 750.902,383.747 755,395.5L776,368.5C781.532,357.654 781.865,346.654 777,335.5C771.559,328.707 765.392,322.707 758.5,317.5ZM330.5,589.5C324.815,622.005 323.982,654.672 328,687.5C330.771,693.577 331.771,699.911 331,706.5C328.779,712.61 325.779,718.277 322,723.5C303.283,747.215 284.95,771.215 267,795.5C257.483,807.345 247.649,818.845 237.5,830C255.132,841.573 274.465,845.906 295.5,843C298.63,840.872 301.463,838.372 304,835.5C326.285,809.938 342.618,780.938 353,748.5C354.409,743.766 357.243,740.266 361.5,738C373.858,735.024 379.358,739.858 378,752.5C368.075,780.351 355.075,806.351 339,830.5C385.209,809.993 427.376,783.326 465.5,750.5C417.943,718.445 379.109,678.112 349,629.5C341.168,616.791 335.001,603.458 330.5,589.5Z"/>
    </g>
</svg>
