<?xml version="1.0" encoding="UTF-8" standalone="no"?>
<!DOCTYPE svg PUBLIC "-//W3C//DTD SVG 1.1//EN" "http://www.w3.org/Graphics/SVG/1.1/DTD/svg11.dtd">
<svg width="100%" height="100%" viewBox="0 0 1024 1024" version="1.1" xmlns="http://www.w3.org/2000/svg" xmlns:xlink="http://www.w3.org/1999/xlink" xml:space="preserve" xmlns:serif="http://www.serif.com/" style="fill-rule:evenodd;clip-rule:evenodd;stroke-linejoin:round;stroke-miterlimit:2;">
    <g transform="matrix(1.30081,0,0,1.30081,-211.003,-169.9)">
        <path d="M730.5,849.5C722.86,854.169 714.527,857.169 705.5,858.5C697.546,859.828 689.546,860.995 681.5,862C657.5,862.667 633.5,862.667 609.5,862C516.879,858.065 424.213,856.399 331.5,857C263.165,852.267 214.998,818.767 187,756.5C159.569,693.259 154.902,628.259 173,561.5C193.769,496.776 228.602,440.942 277.5,394C335.949,340.623 404.949,315.956 484.5,320C538.659,324.833 584.492,346.667 622,385.5C627.132,392.262 631.632,399.429 635.5,407C624.546,429.206 618.046,452.706 616,477.5C615.167,491.488 614.667,505.488 614.5,519.5C615.834,548.174 617.001,576.84 618,605.5C614.606,606.456 611.106,606.789 607.5,606.5C607.653,617.521 607.32,628.521 606.5,639.5C602.819,681.504 587.152,718.171 559.5,749.5C545.936,764.901 529.936,777.068 511.5,786C554.596,791.415 591.096,778.582 621,747.5C646.156,719.067 659.823,685.734 662,647.5C662.896,606.043 664.376,564.764 666.441,523.663C666.444,523.277 666.463,522.889 666.5,522.5C665.914,489.938 669.747,457.938 678,426.5C684.876,403.4 696.376,383.067 712.5,365.5C699.365,328.762 686.032,292.096 672.5,255.5C651.202,258.589 638.035,249.589 633,228.5C632.572,218.88 635.238,210.214 641,202.5C647.492,194.995 655.326,189.495 664.5,186C680.088,185.304 694.421,189.304 707.5,198C724.4,215.231 724.733,232.898 708.5,251C703.496,253.584 698.163,254.918 692.5,255C704.995,287.817 717.495,320.65 730,353.5C730.725,354.059 731.558,354.392 732.5,354.5C741.186,351.078 750.186,349.078 759.5,348.5C769.238,349.525 778.905,350.692 788.5,352C821.422,320.241 854.422,288.741 887.5,257.5C901.416,240.848 917.749,238.015 936.5,249C952.258,264.189 953.591,280.522 940.5,298C928.075,306.23 915.409,306.563 902.5,299C896.595,294.012 892.595,287.845 890.5,280.5C875.755,294.744 861.089,309.244 846.5,324C833.896,334.602 821.896,345.935 810.5,358C808.5,359.333 806.5,360.667 804.5,362C827.007,379.579 839.84,402.745 843,431.5C844.122,445.61 843.455,459.61 841,473.5C835.914,490.909 824.247,499.575 806,499.5C800.787,499.454 795.62,498.954 790.5,498C789.069,497.535 787.903,496.701 787,495.5C771.558,527.717 765.224,561.717 768,597.5C770.845,630.261 774.512,662.928 779,695.5C780.878,714.121 781.711,732.788 781.5,751.5C781.081,776.842 774.581,800.509 762,822.5C754.063,834.612 743.563,843.612 730.5,849.5ZM397.5,512.5C369.485,517.293 349.985,532.959 339,559.5C327.722,581.588 329.388,602.588 344,622.5C370.391,651.477 401.224,657.644 436.5,641C455.441,627.283 463.607,608.783 461,585.5C456.89,573.925 448.557,568.258 436,568.5C423.904,568.536 415.904,574.202 412,585.5C407.357,590.453 402.357,590.787 397,586.5C394.735,580.218 395.402,574.218 399,568.5C411.643,550.73 428.476,544.896 449.5,551C465,555.833 475.167,566 480,581.5C483.952,613.651 472.785,639.151 446.5,658C417.573,674.042 388.573,674.375 359.5,659C353.815,655.014 348.148,651.347 342.5,648L359.5,665C372.728,675.445 387.728,681.778 404.5,684C447.332,687.676 475.498,669.176 489,628.5C494.803,602.995 491.803,578.662 480,555.5C460.543,526.019 433.043,511.686 397.5,512.5ZM367.5,562.5C372.099,562.2 376.599,562.533 381,563.5C381.667,565.5 381.667,567.5 381,569.5C379.883,570.949 379.216,572.616 379,574.5C378.333,580.167 378.333,585.833 379,591.5C384.387,596.6 385.721,602.6 383,609.5C378.445,614.644 372.945,615.81 366.5,613C362.803,608.102 360.303,602.602 359,596.5C357.465,586.069 358.798,576.069 363,566.5C364.397,564.93 365.897,563.596 367.5,562.5ZM684.5,559.5C684.363,593.563 682.863,627.563 680,661.5C675.098,697.611 661.264,729.611 638.5,757.5C632.035,763.464 625.702,769.631 619.5,776C605.01,787.746 588.677,796.079 570.5,801C536.12,807.796 501.62,808.296 467,802.5C447.007,808.915 426.507,812.249 405.5,812.5L405.5,819.5C398.825,819.666 392.158,819.5 385.5,819C374.076,815.977 362.742,812.644 351.5,809C348.339,807.587 345.339,805.92 342.5,804C323.312,804.715 306.312,799.048 291.5,787C278.447,774.957 267.28,761.457 258,746.5C254.213,739.138 251.213,731.471 249,723.5C242.824,713.15 237.157,702.484 232,691.5C205.973,630.423 201.306,567.756 218,503.5C210.587,516.994 204.253,530.994 199,545.5C174.524,613.069 175.858,680.069 203,746.5C228.696,805.486 273.863,835.986 338.5,838C396.5,838.333 454.5,838.667 512.5,839C568.804,841.777 625.137,842.777 681.5,842C691.321,841.288 700.988,839.788 710.5,837.5C732.751,830.416 747.584,815.749 755,793.5C760.589,775.776 763.089,757.609 762.5,739C760.165,698.985 755.998,659.151 750,619.5C748.014,595.832 748.014,572.165 750,548.5C754.79,523.463 762.79,499.463 774,476.5C775.787,474.042 778.121,472.376 781,471.5C786.663,475.167 792.83,477.667 799.5,479C813.676,482.955 821.843,477.788 824,463.5C826.861,438.668 822.194,415.335 810,393.5C800.043,379.556 786.543,371.389 769.5,369C752.273,366.72 737.273,371.387 724.5,383C709.29,398.917 699.456,417.75 695,439.5C687.404,477.772 683.904,516.438 684.5,555.5L684.5,559.5ZM751.5,399.5C763.87,398.7 769.036,404.367 767,416.5C762.874,422.97 757.041,425.137 749.5,423C742.565,418.45 740.732,412.283 744,404.5C746.17,402.177 748.67,400.51 751.5,399.5ZM909.5,268.5C908.781,270.764 908.448,273.097 908.5,275.5C911.317,285.397 917.651,288.563 927.5,285C932.975,274.92 930.309,268.087 919.5,264.5C915.728,264.866 912.394,266.199 909.5,268.5ZM300.5,404.5C271.659,433.813 250.659,468.147 237.5,507.5C217.779,583.174 229.612,653.507 273,718.5C328.483,789.586 398.65,809.086 483.5,777C541.614,753.874 575.78,711.374 586,649.5C589.079,620.596 587.746,591.929 582,563.5C569.682,508.878 538.515,469.378 488.5,445C455.953,430.065 423.953,431.065 392.5,448C353.74,471.995 330.24,506.495 322,551.5C324.648,542.537 328.648,534.204 334,526.5C364.337,494.542 400.503,485.708 442.5,500C490.761,521.673 513.594,559.173 511,612.5C508.771,645.479 494.271,671.313 467.5,690C427.074,711.241 388.074,708.907 350.5,683C312.049,650.906 294.882,609.74 299,559.5C305.323,522.147 320.656,489.147 345,460.5C390.978,412.64 444.145,402.806 504.5,431C547.073,454.578 577.239,489.078 595,534.5C592.251,490.15 598.418,447.15 613.5,405.5C604.315,394.148 593.982,383.982 582.5,375C530.234,341.106 473.568,330.773 412.5,344C369.146,353.502 331.813,373.669 300.5,404.5ZM665.5,204.5C661.603,206.886 658.103,209.886 655,213.5C650.278,223.227 652.445,231.06 661.5,237C672.087,238.95 681.754,236.95 690.5,231C700.152,219.902 698.152,211.902 684.5,207C678.322,204.999 671.988,204.166 665.5,204.5Z"/>
    </g>
</svg>
