<?xml version="1.0" encoding="UTF-8" standalone="no"?>
<!DOCTYPE svg PUBLIC "-//W3C//DTD SVG 1.1//EN" "http://www.w3.org/Graphics/SVG/1.1/DTD/svg11.dtd">
<svg width="100%" height="100%" viewBox="0 0 1024 1024" version="1.1" xmlns="http://www.w3.org/2000/svg" xmlns:xlink="http://www.w3.org/1999/xlink" xml:space="preserve" xmlns:serif="http://www.serif.com/" style="fill-rule:evenodd;clip-rule:evenodd;stroke-linejoin:round;stroke-miterlimit:2;">
    <g transform="matrix(1.43394,0,0,1.43394,-208.458,-204.17)">
        <path d="M313.5,500.5C309.012,512.797 303.846,524.797 298,536.5C296.016,539.746 293.182,541.912 289.5,543C274.932,547.309 260.266,551.309 245.5,555C237.486,556.815 233.486,553.648 233.5,545.5C232.809,541.193 234.143,537.693 237.5,535C252.944,532.473 268.278,529.306 283.5,525.5C287.181,512.456 291.848,499.789 297.5,487.5C301.596,477.533 305.263,467.533 308.5,457.5C311.467,436.093 314.967,414.76 319,393.5C319.948,387.23 321.448,381.23 323.5,375.5C324.514,372.311 326.18,369.478 328.5,367C332.577,364.295 336.91,362.128 341.5,360.5C353.488,352.922 365.988,346.255 379,340.5C386.408,314.768 400.575,293.601 421.5,277C415.652,273.485 412.152,268.319 411,261.5C410.276,256.479 409.442,251.479 408.5,246.5C388.249,234.748 369.249,221.248 351.5,206C345.54,207.425 339.54,209.092 333.5,211C299.726,205.581 273.559,188.415 255,159.5C248.482,145.686 252.649,140.519 267.5,144C282.357,168.607 303.69,184.774 331.5,192.5C336.438,191.354 341.105,189.521 345.5,187C350.572,186.249 355.572,186.582 360.5,188C371.167,196.667 381.833,205.333 392.5,214C398.131,218.131 404.131,221.631 410.5,224.5C417.011,219.227 424.345,216.893 432.5,217.5C436.492,207.825 443.492,201.325 453.5,198C469.585,191.646 486.251,187.812 503.5,186.5C526.155,187.837 547.155,194.337 566.5,206C569.786,209.407 572.453,213.24 574.5,217.5C577.502,216.489 580.502,216.656 583.5,218C588.16,219.995 592.494,222.495 596.5,225.5C598.36,224.74 600.027,223.74 601.5,222.5C616.957,210.882 632.291,199.049 647.5,187C650.167,186.333 652.833,186.333 655.5,187C661.586,188.543 667.586,190.376 673.5,192.5C690.028,189.235 704.694,182.235 717.5,171.5C725.688,162.146 733.688,152.646 741.5,143C747.076,141.528 751.909,142.695 756,146.5C756.743,149.783 756.076,152.783 754,155.5C737.015,183.802 712.515,202.302 680.5,211C670.499,212.612 661.166,210.779 652.5,205.5C645.018,211.814 637.685,218.314 630.5,225C623.819,230.337 616.819,235.17 609.5,239.5C606.709,241.735 603.709,243.735 600.5,245.5C598.712,245.215 597.045,245.548 595.5,246.5C596.426,250.094 596.759,253.76 596.5,257.5C595.645,266.063 591.645,272.563 584.5,277C597.639,286.81 608.805,298.643 618,312.5C622.72,321.939 626.887,331.606 630.5,341.5C646.656,349.411 662.656,357.578 678.5,366C681.433,368.264 683.6,371.098 685,374.5C690.696,402.316 695.363,430.316 699,458.5C708.519,480.04 717.352,501.874 725.5,524C725.905,524.945 726.572,525.612 727.5,526C740.406,529.477 753.406,532.477 766.5,535C771.719,539.873 772.885,545.707 770,552.5C767.776,554.195 765.276,555.195 762.5,555.5C746.843,551.921 731.509,547.421 716.5,542L712,537.5C704.322,520.146 696.655,502.813 689,485.5C694.043,500.279 699.71,514.945 706,529.5C734.76,600.546 751.26,674.379 755.5,751C755.751,776.157 751.917,800.657 744,824.5C737.484,842.679 724.651,853.179 705.5,856C700.833,856.667 696.167,856.667 691.5,856C673.653,851.579 657.986,843.246 644.5,831C625.166,812.774 608.332,792.607 594,770.5C588.787,760.741 584.12,750.741 580,740.5C578.304,746.886 575.804,752.886 572.5,758.5C559.642,778.527 544.642,796.86 527.5,813.5C523.325,816.835 518.992,820.002 514.5,823C510.33,825.788 505.997,826.121 501.5,824C470.166,801.015 446.666,771.848 431,736.5C427.223,749.155 421.889,761.155 415,772.5C398.379,800.455 376.879,823.955 350.5,843C335.155,852.67 318.488,856.67 300.5,855C282.877,851.719 271.043,841.552 265,824.5C262.238,817.72 260.405,810.72 259.5,803.5C254.803,781.21 253.303,758.543 255,735.5C257.408,708.81 261.241,682.477 266.5,656.5C267.106,650.58 268.44,644.913 270.5,639.5C280.023,600.486 292.357,562.486 307.5,525.5C313.352,509.118 319.519,492.785 326,476.5C338.969,446.203 351.469,415.87 363.5,385.5C365.591,378.728 367.758,372.061 370,365.5C364.489,368.838 358.656,371.505 352.5,373.5C348.405,375.631 344.238,377.631 340,379.5C335.905,409.262 331.238,438.929 326,468.5C322.617,479.58 318.45,490.247 313.5,500.5ZM637.5,366.5C652.482,400.94 666.982,435.606 681,470.5C677.27,440.125 672.77,409.791 667.5,379.5C657.215,375.687 647.215,371.354 637.5,366.5ZM464.5,505.5L464.5,541.5L547.5,541.5L547.5,505.5L464.5,505.5ZM471.5,633.5C498.328,634.498 525.328,634.831 552.5,634.5C552.737,633.209 552.404,632.209 551.5,631.5C550.834,623.517 550.501,615.517 550.5,607.5L461.5,607.5C460.613,616.146 459.946,624.813 459.5,633.5L471.5,633.5ZM275.5,729.5C274.508,739.148 274.342,748.814 275,758.5C277.296,754.04 279.796,749.707 282.5,745.5C306.93,709.986 327.764,672.319 345,632.5C351.188,628.044 356.688,628.711 361.5,634.5C361.649,637.607 361.149,640.607 360,643.5C338.328,690.531 312.328,734.864 282,776.5C279.8,777.836 277.967,779.502 276.5,781.5C277.721,795.055 280.055,808.388 283.5,821.5C303.687,795.986 322.687,769.653 340.5,742.5C357.903,717.037 372.736,690.037 385,661.5C389.507,655.351 395.34,653.851 402.5,657C404.478,659.497 404.978,662.331 404,665.5C401.962,668.243 400.462,671.243 399.5,674.5C375.549,721.439 347.549,765.772 315.5,807.5C311.687,812.431 307.854,817.431 304,822.5C300.019,825.313 296.519,828.647 293.5,832.5C304.826,836.504 316.16,836.337 327.5,832C346.331,822.838 362.165,810.005 375,793.5C405.542,754.072 425.542,709.738 435,660.5C439.206,632.316 441.872,603.982 443,575.5C443.947,534.476 443.614,493.476 442,452.5C440.566,446.301 438.566,440.301 436,434.5C419.422,419.342 407.922,401.008 401.5,379.5C399.027,372.898 396.86,366.231 395,359.5C386.822,378.945 378.656,398.278 370.5,417.5C351.182,465.788 332.182,514.121 313.5,562.5C312.567,566.965 311.234,571.298 309.5,575.5C291.152,625.237 279.818,676.57 275.5,729.5ZM403.5,484.5C409.223,483.45 413.89,485.117 417.5,489.5C401.632,527.237 383.132,563.571 362,598.5C358.117,603.009 353.284,604.509 347.5,603C343.778,598.397 343.611,593.564 347,588.5C366.884,557.067 383.884,524.067 398,489.5C399.406,487.256 401.239,485.59 403.5,484.5ZM465.5,559.5C464.506,568.986 464.173,578.652 464.5,588.5L547.5,588.5L547.5,560.5C519.995,560.831 492.662,560.498 465.5,559.5ZM547.5,453.5C533.521,460.374 518.688,464.707 503,466.5C489.276,464.758 476.109,461.091 463.5,455.5L462.5,456.5C464.284,466.06 464.95,475.726 464.5,485.5L546.5,485.5C546.334,477.16 546.5,468.827 547,460.5C547.311,458.444 547.811,456.444 548.5,454.5C548.376,453.893 548.043,453.56 547.5,453.5ZM493.5,269.5C463.474,274.832 437.808,288.499 416.5,310.5C431.197,334.03 450.864,352.197 475.5,365C495.503,374.94 515.503,374.94 535.5,365C556.695,353.813 574.195,338.313 588,318.5C589.436,315.526 590.436,312.526 591,309.5C564.476,281.82 531.976,268.487 493.5,269.5ZM405.5,327.5C410.435,350.734 418.268,373.067 429,394.5C445.444,424.723 470.777,441.723 505,445.5C540.413,441.727 565.413,423.727 580,391.5C588.585,371.999 595.752,351.999 601.5,331.5C583.359,361.945 556.025,381.778 519.5,391C497.102,393.764 476.102,389.431 456.5,378C447.833,371.667 439.167,365.333 430.5,359C420.321,350.323 412.654,339.823 407.5,327.5C406.743,326.227 406.077,326.227 405.5,327.5ZM615.5,367.5C614.7,365.104 613.7,362.771 612.5,360.5C606.133,382.785 596.966,403.785 585,423.5C580.288,428.543 575.955,433.877 572,439.5C569.532,448.008 568.032,456.674 567.5,465.5C561.931,540.078 566.765,614.078 582,687.5C589.459,718.913 602.126,747.913 620,774.5C634.167,795.333 651.667,812.833 672.5,827C685.441,835.259 699.441,837.759 714.5,834.5C669.91,783.391 632.743,727.058 603,665.5C602.333,663.167 602.333,660.833 603,658.5C608.188,653.604 613.521,653.604 619,658.5C646.277,717.616 681.444,771.616 724.5,820.5C725.107,820.376 725.44,820.043 725.5,819.5C728.873,807.505 731.54,795.338 733.5,783C733.333,782.167 733.167,781.333 733,780.5C725.647,774.102 719.48,766.768 714.5,758.5C687.543,720.633 664.876,680.133 646.5,637C646.439,634.739 647.106,632.739 648.5,631C653.395,628.606 657.895,629.106 662,632.5C682.099,676.72 706.265,718.387 734.5,757.5C735.626,750.914 735.792,744.247 735,737.5C731.793,701.839 726.459,666.506 719,631.5C709.324,595.14 697.657,559.473 684,524.5C660.857,472.216 638.024,419.883 615.5,367.5ZM555.5,681.5C557.199,681.66 558.866,681.494 560.5,681C558.511,671.586 556.845,662.086 555.5,652.5L456.5,652.5C455.006,661.476 453.673,670.476 452.5,679.5C451.596,680.209 451.263,681.209 451.5,682.5C486.337,682.832 521.004,682.498 555.5,681.5ZM491.5,205.5C482.763,207.916 474.43,211.416 466.5,216C467.794,218.087 468.961,220.254 470,222.5C472.021,235.797 466.354,243.131 453,244.5C443.884,244.287 437.217,240.287 433,232.5C427.781,238.593 425.114,245.593 425,253.5C429.439,249.658 434.605,248.491 440.5,250C445.243,252.565 448.243,256.398 449.5,261.5C451.199,261.66 452.866,261.494 454.5,261C488.523,245.602 522.523,245.769 556.5,261.5C560.629,249.265 568.295,246.265 579.5,252.5C579.833,251.167 580.167,249.833 580.5,248.5C580.12,241.025 576.787,235.692 570.5,232.5C570.451,235.099 569.451,237.266 567.5,239C564.583,240.528 561.583,241.861 558.5,243C551.262,245.619 544.762,244.452 539,239.5C535.644,233.243 534.644,226.576 536,219.5C536.465,218.069 537.299,216.903 538.5,216C524.027,207.338 508.36,203.838 491.5,205.5ZM446.5,701.5C445.242,705.762 444.742,710.096 445,714.5C457.531,749.915 478.197,779.582 507,803.5C535.9,779.249 556.067,749.083 567.5,713C566.654,709.47 565.654,705.97 564.5,702.5C525.172,701.5 485.839,701.167 446.5,701.5Z"/>
    </g>
</svg>
