<?xml version="1.0" encoding="UTF-8" standalone="no"?>
<!DOCTYPE svg PUBLIC "-//W3C//DTD SVG 1.1//EN" "http://www.w3.org/Graphics/SVG/1.1/DTD/svg11.dtd">
<svg width="100%" height="100%" viewBox="0 0 1024 1024" version="1.1" xmlns="http://www.w3.org/2000/svg" xmlns:xlink="http://www.w3.org/1999/xlink" xml:space="preserve" xmlns:serif="http://www.serif.com/" style="fill-rule:evenodd;clip-rule:evenodd;stroke-linejoin:round;stroke-miterlimit:2;">
    <g transform="matrix(1.55619,0,0,1.55619,-251.472,-308.409)">
        <path d="M199.5,638.5C183.287,602.558 176.121,564.891 178,525.5C183.896,519.605 190.396,518.938 197.5,523.5C211.056,547.226 228.723,567.392 250.5,584C260.85,590.508 270.85,597.508 280.5,605C281.332,605.688 281.998,605.521 282.5,604.5C268.335,579.82 261.168,553.153 261,524.5C257.962,521.797 255.295,518.797 253,515.5C242.655,499.81 234.155,483.144 227.5,465.5C225.732,462.394 224.232,459.061 223,455.5C217.298,436.321 213.131,416.821 210.5,397C212.579,389.458 217.245,387.458 224.5,391C226.604,393.042 227.771,395.542 228,398.5C228.336,403.532 228.836,408.532 229.5,413.5C230.786,419.192 232.953,424.526 236,429.5C248.236,442.062 262.403,451.895 278.5,459C304.645,469.771 331.645,477.604 359.5,482.5C359.415,461.766 360.582,441.099 363,420.5C366.8,416.207 371.3,415.374 376.5,418C380.737,422.48 384.737,427.147 388.5,432C409.173,450.002 431.506,465.668 455.5,479C480.032,490.266 504.032,502.6 527.5,516C538.924,524.089 549.091,533.589 558,544.5C581.381,573.546 604.381,602.88 627,632.5C639.19,647.694 654.023,659.528 671.5,668C684.749,673.377 698.083,673.71 711.5,669C719.864,664.288 724.697,657.122 726,647.5C728.098,612.198 714.598,584.698 685.5,565C654.667,544.411 623.001,525.078 590.5,507C565.589,492.279 543.422,474.113 524,452.5C515.802,442.479 508.636,431.813 502.5,420.5C478.537,379.346 473.037,335.679 486,289.5C509.076,225.031 554.909,194.697 623.5,198.5C657.472,199.881 689.138,209.048 718.5,226C727.957,233.122 737.124,240.622 746,248.5C753.842,256.184 758.509,265.517 760,276.5C759.739,285.762 761.072,294.762 764,303.5C769.561,314.881 775.728,325.881 782.5,336.5C787.639,345.817 794.139,354.15 802,361.5C803.022,363.702 803.522,366.035 803.5,368.5C799.369,393.619 794.703,418.619 789.5,443.5C787.905,447.469 784.905,449.135 780.5,448.5C776.662,448.746 773.328,447.58 770.5,445C765.69,438.556 760.524,432.389 755,426.5C740.943,412.778 727.277,398.778 714,384.5C699.968,370.799 685.634,357.466 671,344.5C662.96,332.787 653.793,321.953 643.5,312C630.346,302.104 615.679,298.438 599.5,301C579.198,308.993 568.532,323.993 567.5,346C568.874,371.472 578.041,393.639 595,412.5C604.231,422.401 614.064,431.567 624.5,440C652.895,459.393 681.562,478.393 710.5,497C739.849,517.014 763.682,542.18 782,572.5C784.454,577.073 786.621,581.739 788.5,586.5C791.095,592.285 793.095,598.285 794.5,604.5C806.708,650.322 803.208,694.988 784,738.5C771.781,760.616 755.615,779.283 735.5,794.5C731.801,797.35 727.801,799.683 723.5,801.5C694.069,819.873 662.402,833.373 628.5,842C617.125,844.395 605.792,846.895 594.5,849.5C552.234,856.797 509.93,858.134 467.589,853.51C467.559,853.507 467.53,853.503 467.5,853.5C405.61,849.27 350.276,828.437 301.5,791C291.958,781.959 282.958,772.459 274.5,762.5C266.426,753.58 259.259,743.913 253,733.5C243.488,715.81 234.488,697.81 226,679.5C215.661,666.826 206.828,653.159 199.5,638.5ZM523.5,423.5C534.126,439.969 547.126,454.469 562.5,467C593.823,489.337 626.49,509.67 660.5,528C680.855,540.1 699.689,554.266 717,570.5C737.178,592.186 745.845,617.852 743,647.5C741.573,660.19 736.073,670.69 726.5,679C702.576,692.96 678.576,692.96 654.5,679C639.468,668.971 625.968,657.138 614,643.5C588.667,611.5 563.333,579.5 538,547.5C528.31,536.761 517.143,528.094 504.5,521.5C513.865,530.697 522.698,540.364 531,550.5C563.445,596.357 592.112,644.691 617,695.5C620.346,703.206 622.68,711.206 624,719.5C626.977,750.596 613.477,769.929 583.5,777.5C565.886,782.282 547.886,783.949 529.5,782.5C478.311,776.064 432.311,757.231 391.5,726C372.885,727.323 354.218,727.656 335.5,727C310.842,724.246 287.508,717.413 265.5,706.5C262.065,705.232 259.065,703.232 256.5,700.5L255.5,701.5C259.67,710.512 264.337,719.179 269.5,727.5C274.161,735.483 279.328,743.15 285,750.5C307.371,776.602 334.204,796.769 365.5,811C394.032,822.456 423.366,830.623 453.5,835.5C494.163,840.77 534.83,840.77 575.5,835.5C619.548,828.927 661.548,815.927 701.5,796.5C712.781,789.517 723.781,782.017 734.5,774C750.827,759.354 763.66,742.188 773,722.5C788.059,682.875 789.226,642.875 776.5,602.5C773.486,593.472 769.652,584.805 765,576.5C749.629,552.794 730.462,532.627 707.5,516C681.437,498.274 655.104,480.94 628.5,464C608.425,449.26 590.258,432.426 574,413.5C561.982,396.439 554.649,377.439 552,356.5C550.42,342.313 552.42,328.646 558,315.5C576.251,285.648 602.084,276.481 635.5,288C654.845,297.678 670.012,311.845 681,330.5C689.416,339.253 698.083,347.586 707,355.5C714.752,345.58 721.918,335.247 728.5,324.5C721.541,318.042 714.708,311.375 708,304.5C703.559,299.236 700.726,293.236 699.5,286.5C700.176,278.542 704.176,276.375 711.5,280C716.122,286.078 720.622,292.245 725,298.5C730.91,302.367 736.077,307.034 740.5,312.5C747.077,296.225 746.243,280.225 738,264.5C718.962,244.241 696.129,230.575 669.5,223.5C641.935,215.863 613.935,213.697 585.5,217C579.201,218.235 573.201,220.069 567.5,222.5C535.198,235.305 513.698,258.305 503,291.5C499.102,303.887 496.602,316.553 495.5,329.5C494.968,363.893 504.301,395.226 523.5,423.5ZM770.5,347.5C764.69,339.232 759.357,330.565 754.5,321.5C743.405,336.764 731.739,351.597 719.5,366C731.632,379.801 744.132,393.301 757,406.5C757.464,405.906 757.631,405.239 757.5,404.5C753.504,399.211 750.837,393.211 749.5,386.5C749.404,384.074 750.07,381.907 751.5,380C756.646,377.496 761.146,378.329 765,382.5C770.189,392.905 774.689,403.572 778.5,414.5C778.56,415.043 778.893,415.376 779.5,415.5C780.48,412.914 780.813,410.247 780.5,407.5C782.882,394.881 784.715,382.215 786,369.5C780.578,362.313 775.411,354.979 770.5,347.5ZM196.5,553.5C196.256,563.589 197.089,573.589 199,583.5C204.803,618.275 219.97,648.108 244.5,673C280.789,700.331 321.789,712.664 367.5,710C359.722,702.286 351.389,695.286 342.5,689C323.934,671.109 307.601,651.442 293.5,630C285.5,625.667 277.5,621.333 269.5,617C241.248,600.242 216.915,579.075 196.5,553.5ZM367.5,617.5C362.527,615.013 357.527,612.513 352.5,610C324.813,594.991 300.646,575.491 280,551.5C283.169,563.674 287.169,575.674 292,587.5C307.746,626.474 331.912,659.308 364.5,686C377.833,696 391.167,706 404.5,716C430.838,733.668 459.171,747.335 489.5,757C518.748,767.034 548.415,768.701 578.5,762C604.542,754.541 613.376,737.708 605,711.5C598.529,696.56 591.529,681.893 584,667.5C571.081,645.998 558.414,624.331 546,602.5C524.801,567.952 499.134,536.952 469,509.5C465.643,505.644 462.476,501.644 459.5,497.5C428.812,485.324 401.979,467.324 379,443.5C379.167,448.838 379.834,454.171 381,459.5C391.224,485.955 404.557,510.621 421,533.5C437.451,554.185 455.618,573.351 475.5,591C495.46,607.291 515.127,623.958 534.5,641C547.074,653.57 558.907,666.737 570,680.5C570.667,683.167 570.667,685.833 570,688.5C565.385,693.612 560.218,694.445 554.5,691C550.964,686.763 547.798,682.263 545,677.5C517.386,648.882 488.219,622.049 457.5,597C421.973,566.168 394.139,529.668 374,487.5C375.307,520.009 381.14,551.676 391.5,582.5C394.606,593.717 399.106,604.384 405,614.5C420.162,638.346 438.328,659.846 459.5,679C472.714,689.882 486.214,700.382 500,710.5C502.738,721.423 498.571,725.257 487.5,722C451.833,698.333 422.167,668.667 398.5,633L367.5,617.5ZM380.5,599.5C378.732,596.394 377.232,593.061 376,589.5C366.386,560.597 360.553,530.93 358.5,500.5C336.391,496.389 314.725,490.556 293.5,483C275.519,477.092 258.685,468.925 243,458.5C268.607,526.614 314.773,575.614 381.5,605.5C381.938,605.565 382.272,605.399 382.5,605C381.139,603.416 380.472,601.582 380.5,599.5Z"/>
    </g>
</svg>
