<?xml version="1.0" encoding="UTF-8" standalone="no"?>
<!DOCTYPE svg PUBLIC "-//W3C//DTD SVG 1.1//EN" "http://www.w3.org/Graphics/SVG/1.1/DTD/svg11.dtd">
<svg width="100%" height="100%" viewBox="0 0 1024 1024" version="1.1" xmlns="http://www.w3.org/2000/svg" xmlns:xlink="http://www.w3.org/1999/xlink" xml:space="preserve" xmlns:serif="http://www.serif.com/" style="fill-rule:evenodd;clip-rule:evenodd;stroke-linejoin:round;stroke-miterlimit:2;">
    <g transform="matrix(1.65938,0,0,1.65938,-447.195,-433.108)">
        <path d="M810.5,836.5C807.196,838.417 803.529,839.584 799.5,840C646.466,840.993 493.466,840.659 340.5,839C334.939,836.438 331.106,832.272 329,826.5C328.5,777.834 328.333,729.168 328.5,680.5C300.097,681.225 281.264,668.225 272,641.5C269.035,629.26 268.702,616.927 271,604.5C272.035,599.892 273.535,595.559 275.5,591.5C278.676,580.493 284.51,571.16 293,563.5C293.333,562.5 293.667,561.5 294,560.5C294.333,536.167 294.667,511.833 295,487.5C296.478,472.388 299.312,457.555 303.5,443C302.541,400.643 302.208,358.31 302.5,316C302.336,313.456 303.003,311.29 304.5,309.5C306.843,306.41 310.01,304.744 314,304.5C317.593,304.94 321.093,305.773 324.5,307C358.956,323.394 393.289,340.061 427.5,357C456.9,355.489 486.067,357.656 515,363.5C557.877,341.979 601.044,320.812 644.5,300C649.746,298.494 655.079,298.161 660.5,299C666.268,301.263 669.601,305.43 670.5,311.5L670.5,408.5C759.834,425.833 813.834,479.166 832.5,568.5C839.878,566.393 846.045,562.393 851,556.5C853.986,550.368 856.819,544.201 859.5,538C869.378,533.509 876.878,536.009 882,545.5C886.553,559.871 887.719,574.538 885.5,589.5C881.026,611.791 870.359,630.457 853.5,645.5C846.114,651.892 837.781,656.559 828.5,659.5C825.126,698.473 821.96,737.473 819,776.5C817.945,793.483 817.278,810.483 817,827.5C816.751,830.177 815.751,832.51 814,834.5C813.184,835.823 812.017,836.489 810.5,836.5ZM735.5,815.5L792.5,815.5C792.232,813.901 792.566,812.568 793.5,811.5C796.756,746.727 801.256,682.061 807,617.5C814.421,548.994 789.921,495.494 733.5,457C713.986,445.439 692.986,438.606 670.5,436.5C670.667,473.168 670.5,509.835 670,546.5C666.824,555.675 660.657,558.509 651.5,555C648.366,552.612 646.533,549.446 646,545.5C645.833,472.498 645.333,399.498 644.5,326.5C611.492,343.505 578.159,359.671 544.5,375C577.326,388.159 606.159,407.326 631,432.5C634.849,440.602 633.016,447.102 625.5,452C621.218,452.965 617.218,452.298 613.5,450C574.487,410.498 527.154,388.165 471.5,383C446.467,380.907 421.8,382.907 397.5,389C387.076,393.046 377.076,397.879 367.5,403.5C365.5,405.167 363.5,406.833 361.5,408.5C341.091,422.645 328.758,441.978 324.5,466.5C321.051,476.77 319.384,487.436 319.5,498.5C319.333,514.17 319.5,529.837 320,545.5C324.242,543.085 328.742,541.251 333.5,540C366.466,532.988 396.132,539.988 422.5,561C449.574,582.496 459.24,609.996 451.5,643.5C446.063,663.771 433.063,675.938 412.5,680C392.593,680.826 372.76,680.659 353,679.5C352.5,724.832 352.333,770.165 352.5,815.5L415.5,815.5C415.333,798.83 415.5,782.163 416,765.5C417.61,761.557 420.277,758.557 424,756.5C423.562,751.203 423.562,745.87 424,740.5C424.785,738.714 425.951,737.214 427.5,736C450.743,734.52 474.076,734.02 497.5,734.5C497.334,728.824 497.501,723.157 498,717.5C501.608,710.926 507.108,708.759 514.5,711C517.583,711.786 519.749,713.619 521,716.5C521.5,749.498 521.667,782.498 521.5,815.5L582.5,815.5C582.777,782.735 584.61,750.068 588,717.5C588.86,713.973 591.027,711.807 594.5,711C601.735,709.073 607.235,711.24 611,717.5C611.499,723.157 611.666,728.824 611.5,734.5C645.168,734.667 678.835,734.5 712.5,734C713.878,732.287 715.545,730.953 717.5,730C727.148,727.512 733.148,731.012 735.5,740.5L735.5,815.5ZM492.5,472.5C500.689,471.265 506.522,474.265 510,481.5C510.856,489.232 510.523,496.898 509,504.5C504.063,513.73 496.897,516.23 487.5,512C485.116,509.621 483.616,506.787 483,503.5C482.333,496.167 482.333,488.833 483,481.5C484.75,476.915 487.916,473.915 492.5,472.5ZM355.5,472.5C364.086,470.877 370.253,473.877 374,481.5C374.667,489.5 374.667,497.5 374,505.5C369.436,514.68 362.603,516.847 353.5,512C351.383,510.269 349.883,508.102 349,505.5C347.503,497.221 347.169,488.888 348,480.5C349.353,476.65 351.853,473.983 355.5,472.5ZM327.5,335.5C327.169,357.007 327.503,378.34 328.5,399.5C328.238,400.978 328.571,402.311 329.5,403.5C334.783,397.541 340.783,392.541 347.5,388.5C359.905,378.317 373.905,370.817 389.5,366C369.351,356.425 349.351,346.592 329.5,336.5C329.158,335.662 328.492,335.328 327.5,335.5ZM298.5,602.5C293.962,613.299 293.462,624.299 297,635.5C299.404,644.237 304.904,650.071 313.5,653C346.167,653.667 378.833,653.667 411.5,653C414.978,651.76 418.311,650.26 421.5,648.5C429.094,637.708 431.594,625.708 429,612.5C424.044,596.867 414.544,584.7 400.5,576C380.666,563.709 359.333,560.043 336.5,565C326.762,568.525 318.429,574.025 311.5,581.5C305.128,587.212 300.794,594.212 298.5,602.5ZM348.5,567.5C379.138,568.969 393.304,584.969 391,615.5C390.193,625.288 385.693,632.788 377.5,638C362.03,647.827 346.697,647.827 331.5,638C316.71,621.861 314.543,604.027 325,584.5L335.5,574C339.925,571.787 344.259,569.621 348.5,567.5ZM352.5,592.5C345.688,597.745 342.855,604.745 344,613.5C348.067,622.877 354.4,624.877 363,619.5C365.424,614.43 366.091,609.097 365,603.5C363.725,596.384 359.559,592.718 352.5,592.5ZM496.5,759.5C478.007,760.497 459.341,760.83 440.5,760.5L440.5,815.5L497.5,815.5C497.83,796.659 497.497,777.993 496.5,759.5ZM609.5,759.5C608.497,777.869 607.164,796.202 605.5,814.5C617.482,815.499 629.482,815.832 641.5,815.5L641.5,760.5C630.752,760.809 620.085,760.476 609.5,759.5ZM833.5,628.5C836.806,627.18 839.806,625.347 842.5,623C852.818,611.863 858.318,598.696 859,583.5C855.764,586.871 851.931,589.371 847.5,591C841.96,593.757 837.127,592.924 833,588.5C832.5,594.825 832.334,601.158 832.5,607.5C832.175,614.687 832.509,621.687 833.5,628.5ZM711.5,759.5C696.676,760.496 681.676,760.829 666.5,760.5L666.5,815.5L712.5,815.5C712.83,796.659 712.497,777.993 711.5,759.5Z"/>
    </g>
</svg>
