<?xml version="1.0" encoding="UTF-8" standalone="no"?>
<!DOCTYPE svg PUBLIC "-//W3C//DTD SVG 1.1//EN" "http://www.w3.org/Graphics/SVG/1.1/DTD/svg11.dtd">
<svg width="100%" height="100%" viewBox="0 0 1024 1024" version="1.1" xmlns="http://www.w3.org/2000/svg" xmlns:xlink="http://www.w3.org/1999/xlink" xml:space="preserve" xmlns:serif="http://www.serif.com/" style="fill-rule:evenodd;clip-rule:evenodd;stroke-linejoin:round;stroke-miterlimit:2;">
    <g transform="matrix(1.49537,0,0,1.49537,-250.067,-268.876)">
        <path d="M280.5,328.5C288.084,309.999 297.75,292.665 309.5,276.5L272,201.5C270.5,185.667 277.667,178.5 293.5,180C323.339,196.754 353.339,213.254 383.5,229.5C439.486,186.872 501.486,175.372 569.5,195C592.832,202.701 613.999,214.201 633,229.5C664.088,213.374 694.921,196.874 725.5,180C735.144,179.153 742.144,182.986 746.5,191.5C746.664,194.187 746.497,196.854 746,199.5C733.725,225.383 720.892,251.05 707.5,276.5C707.855,277.522 708.522,278.189 709.5,278.5C731.75,307.022 745.25,339.355 750,375.5C752.907,406.059 748.24,435.392 736,463.5C731.09,474.32 725.923,484.986 720.5,495.5C738.381,505.547 752.881,519.213 764,536.5C769.459,546.543 773.125,557.209 775,568.5C777.252,599.207 779.919,629.873 783,660.5C785.925,679.955 789.425,699.288 793.5,718.5C791.797,741.363 779.464,751.863 756.5,750C748.974,747.902 741.974,744.735 735.5,740.5C726.777,747.697 716.777,751.197 705.5,751C694.216,747.359 684.55,741.192 676.5,732.5C674.862,735.304 673.029,737.971 671,740.5C671.306,742.823 671.972,745.156 673,747.5C681.734,765.978 691.734,783.645 703,800.5C712.761,810.041 723.427,818.374 735,825.5C736.727,837.447 731.894,841.947 720.5,839C688.097,819.748 667.764,791.581 659.5,754.5C649.074,773.093 634.74,787.927 616.5,799C626.667,803.833 634.167,811.333 639,821.5C643.499,844.005 634.666,858.172 612.5,864C605.623,864.798 598.956,863.965 592.5,861.5C569.51,869.42 553.676,862.086 545,839.5C543.334,821.994 550.834,810.494 567.5,805C552.842,806.666 538.176,808.666 523.5,811C498.532,813.041 474.032,810.541 450,803.5C449.5,803.667 449,803.833 448.5,804C474.058,812.606 480.558,828.772 468,852.5C456.153,864.419 442.32,867.419 426.5,861.5C403.766,869.047 388.266,861.714 380,839.5C376.745,818.987 384.912,805.654 404.5,799.5C388.497,786.329 373.664,771.996 360,756.5C352.283,795.19 330.783,823.024 295.5,840C290.062,840.933 286.228,838.766 284,833.5C283.257,830.217 283.924,827.217 286,824.5C309.999,811.504 327.333,792.504 338,767.5C346.213,762.254 351.047,754.754 352.5,745C349.357,741.187 346.191,737.353 343,733.5C334.216,742.311 323.716,748.144 311.5,751C301.104,750.718 291.937,747.218 284,740.5C273.494,747.335 261.994,750.501 249.5,750C231.977,745.827 224.144,734.66 226,716.5C236.396,671.095 242.396,625.095 244,578.5C245.412,550.844 256.579,528.01 277.5,510C284.508,505.308 291.175,500.308 297.5,495C292.802,485.77 287.968,476.603 283,467.5C278.729,457.413 275.229,447.08 272.5,436.5C263.59,399.593 266.257,363.593 280.5,328.5ZM289.5,422.5C293.875,446.13 303.375,467.463 318,486.5C318.333,507.167 318.667,527.833 319,548.5C320.813,586.192 326.813,623.192 337,659.5C346.805,699.121 365.472,733.788 393,763.5C405.311,773.644 416.811,784.644 427.5,796.5C432.84,785.489 437.34,774.155 441,762.5L444.5,759C450.15,757.417 454.65,758.917 458,763.5C458.291,770.309 457.624,776.976 456,783.5C458.999,785.044 462.166,786.211 465.5,787C498.03,794.591 530.364,793.757 562.5,784.5C561.982,780.453 561.148,776.453 560,772.5C559.333,769.5 559.333,766.5 560,763.5C560.833,761.333 562.333,759.833 564.5,759C571.075,757.038 575.575,759.205 578,765.5C581.874,776.291 586.041,786.957 590.5,797.5C601.752,786.871 613.419,776.705 625.5,767C650.959,739.596 668.792,707.763 679,671.5C685.307,646.276 690.974,620.943 696,595.5C699.894,558.614 701.561,521.614 701,484.5C729.014,444.771 737.348,401.104 726,353.5C717.851,327.866 705.518,304.532 689,283.5C686.755,280.119 686.088,276.452 687,272.5C699.505,249.821 711.172,226.821 722,203.5C719.766,205.7 717.266,207.533 714.5,209C669.865,232.318 625.198,255.652 580.5,279C574.422,282.361 568.755,286.195 563.5,290.5C561.381,291.986 559.881,293.986 559,296.5C548.11,323.166 536.444,349.5 524,375.5C523.251,376.635 523.417,377.635 524.5,378.5C527.155,379.497 529.155,381.164 530.5,383.5C532.36,393.812 528.027,399.312 517.5,400C526.255,411.426 535.755,422.259 546,432.5C549.729,437.274 551.062,442.607 550,448.5C545.356,452.814 541.022,457.48 537,462.5C530.418,473.999 523.585,485.333 516.5,496.5C510.468,500.892 504.968,500.225 500,494.5C493.712,480.075 485.546,466.908 475.5,455C471.858,454.272 469.025,452.438 467,449.5C465.662,443.224 466.996,437.557 471,432.5C476.032,427.133 481.365,422.133 487,417.5C491.621,411.757 496.121,405.924 500.5,400C497.377,399.794 494.377,399.127 491.5,398C484.938,391.673 484.938,385.507 491.5,379.5C492.641,377.579 492.808,375.579 492,373.5C479.823,346.469 468.156,319.136 457,291.5C450.092,286.295 442.926,281.462 435.5,277C395.354,256.093 355.021,235.427 314.5,215C308.249,211.292 302.083,207.459 296,203.5C307.842,227.515 320.008,251.515 332.5,275.5C331.825,278.691 330.658,281.691 329,284.5C323.248,293.672 317.248,302.672 311,311.5C301.66,327.847 294.826,345.18 290.5,363.5C285.538,383.08 285.205,402.747 289.5,422.5ZM372.5,556.5C378.097,556.38 382.264,558.713 385,563.5C385.912,580.872 385.579,598.206 384,615.5C379.532,623.461 373.865,624.461 367,618.5C366.08,615.899 365.413,613.232 365,610.5C364.333,595.167 364.333,579.833 365,564.5C366.353,560.65 368.853,557.983 372.5,556.5ZM379.5,648.5C383.254,648.557 386.421,649.89 389,652.5C392.438,661.249 395.105,670.249 397,679.5C402.541,697.261 412.541,711.927 427,723.5C429.585,731.985 426.418,736.651 417.5,737.5C414.249,737.109 411.249,735.942 408.5,734C385.824,711.981 373.991,685.148 373,653.5C374.563,650.977 376.73,649.31 379.5,648.5ZM622.5,298.5C661.059,305.21 687.559,326.876 702,363.5C712.216,406.191 705.216,445.858 681,482.5C654.31,516.764 619.143,535.098 575.5,537.5C564.596,537.586 554.263,535.253 544.5,530.5C538.775,524.979 538.109,518.979 542.5,512.5C544.059,511.553 545.726,510.887 547.5,510.5C595.112,523.606 633.945,510.606 664,471.5C685.029,441.411 691.695,408.411 684,372.5C674.497,344.331 655.33,326.498 626.5,319C616.113,313.897 614.779,307.064 622.5,298.5ZM632.5,649.5C638.166,648.278 642.666,649.945 646,654.5C645.348,674.434 640.014,693.1 630,710.5L618,728.5C612.726,735.395 605.893,738.228 597.5,737C592.777,733.746 591.277,729.246 593,723.5C612.856,705.668 624.189,683.335 627,656.5C627.967,653.379 629.8,651.046 632.5,649.5ZM401.5,330.5C433.193,329.737 455.36,343.737 468,372.5C474.778,398.219 468.945,420.719 450.5,440C431.718,456.022 410.385,460.689 386.5,454C360.256,442.042 346.589,421.542 345.5,392.5C347.813,368.708 359.146,350.541 379.5,338C386.666,334.681 393.999,332.181 401.5,330.5ZM400.5,350.5C375.577,358.328 364.077,375.328 366,401.5C372.406,427.45 388.906,439.283 415.5,437C440.287,428.968 451.787,411.801 450,385.5C442.726,360.935 426.226,349.268 400.5,350.5ZM405.5,371.5C420.64,371.122 428.973,378.456 430.5,393.5C426.775,412.865 415.442,419.698 396.5,414C384.48,404.797 382.313,393.63 390,380.5C394.274,375.785 399.441,372.785 405.5,371.5ZM391.5,298.5C399.829,297.664 402.995,301.33 401,309.5C399.5,313.667 396.667,316.5 392.5,318C352.04,329.978 330.707,357.145 328.5,399.5C331.214,444.135 351.214,478.302 388.5,502C406.98,513.287 426.98,517.954 448.5,516C454.044,515.485 459.377,514.152 464.5,512C469.428,510.357 472.928,511.857 475,516.5C476.179,526.621 471.679,532.454 461.5,534C449.014,537.791 436.347,538.458 423.5,536C365.371,521.87 328.204,486.037 312,428.5C301.994,382.844 314.827,345.344 350.5,316C363.036,307.328 376.702,301.494 391.5,298.5ZM596.5,331.5C637.426,328.857 661.926,347.523 670,387.5C671.372,412.918 661.872,433.085 641.5,448C605.482,465.466 576.315,457.632 554,424.5C539.704,395.651 543.871,369.818 566.5,347C575.538,339.753 585.538,334.586 596.5,331.5ZM599.5,350.5C574.239,358.668 563.406,376.002 567,402.5C571.427,419.926 582.26,431.093 599.5,436C617.452,439.133 631.952,433.633 643,419.5C649.915,407.593 651.915,394.926 649,381.5C640.329,358.904 623.829,348.57 599.5,350.5ZM603.5,371.5C616.672,370.001 625.839,375.335 631,387.5C631.675,409.493 621.175,418.66 599.5,415C586.591,406.663 583.425,395.497 590,381.5C593.579,376.731 598.079,373.397 603.5,371.5ZM630.5,568.5C636.497,568.109 640.997,570.442 644,575.5C644.906,589.214 644.573,602.881 643,616.5C636.007,625.934 629.341,625.601 623,615.5C622.333,602.167 622.333,588.833 623,575.5C623.309,574.234 623.809,573.067 624.5,572C626.432,570.541 628.432,569.375 630.5,568.5ZM297.5,517.5C291.895,522.603 286.395,527.936 281,533.5C271.009,546.798 265.342,561.798 264,578.5C262.684,627.317 256.518,675.483 245.5,723C245.575,726.417 247.241,728.75 250.5,730C261.2,732.06 269.367,728.56 275,719.5C286.861,680.437 292.527,640.437 292,599.5C295.425,572.92 297.592,546.253 298.5,519.5C298.457,518.584 298.124,517.917 297.5,517.5ZM310.5,629.5C308.987,661.064 303.987,692.064 295.5,722.5C300.69,730.915 308.023,733.415 317.5,730C324.358,725.975 329.692,720.475 333.5,713.5C323.289,686.071 315.623,658.071 310.5,629.5ZM707.5,628.5C703.61,657.393 696.277,685.393 685.5,712.5C687.138,715.304 688.971,717.971 691,720.5C695.25,724.742 700.084,728.242 705.5,731C714,733.402 720.333,730.902 724.5,723.5C716.103,692.193 710.436,660.526 707.5,628.5ZM719.5,516.5C725.033,564.314 728.866,612.314 731,660.5C733.434,677.67 736.767,694.67 741,711.5C742.685,717.041 745.518,721.874 749.5,726C758.046,732.695 766.546,732.861 775,726.5C773.953,714.966 771.619,703.633 768,692.5C762.022,655.387 758.022,618.054 756,580.5C754.977,564.377 749.977,549.71 741,536.5C734.291,529.289 727.124,522.622 719.5,516.5ZM495.5,204.5C479.229,206.063 463.229,209.563 447.5,215C432.193,221.652 417.526,229.318 403.5,238C424.424,248.797 445.091,260.13 465.5,272L474,280.5C485.923,307.936 497.256,335.603 508,363.5C520.368,335.439 532.701,307.439 545,279.5C548.867,275.154 553.367,271.654 558.5,269L612.5,239C608.186,235.176 603.519,231.843 598.5,229C566.374,211.872 532.041,203.706 495.5,204.5ZM409.5,818.5C407.261,819.542 405.095,820.875 403,822.5C397.293,831.231 398.793,838.398 407.5,844C415.298,845.974 421.965,844.141 427.5,838.5C433.709,845.691 441.043,847.191 449.5,843C455.551,834.404 454.551,826.737 446.5,820C439.482,817.818 432.648,818.318 426,821.5C420.811,818.962 415.311,817.962 409.5,818.5ZM577.5,818.5C574.505,820.098 571.671,822.098 569,824.5C564.52,833.395 566.687,840.228 575.5,845C582.806,845.731 589.14,843.564 594.5,838.5C596.993,840.58 599.659,842.414 602.5,844C615.377,846.122 621.211,840.622 620,827.5C616.462,819.981 610.628,817.148 602.5,819C599.915,820.128 597.248,820.961 594.5,821.5C589.094,819.12 583.427,818.12 577.5,818.5ZM507.5,421.5C507.291,422.922 506.791,424.255 506,425.5C501.292,430.376 496.459,435.043 491.5,439.5C497.067,449.632 502.901,459.632 509,469.5C512.916,464.004 516.582,458.337 520,452.5C522.86,448.142 524.527,443.476 525,438.5C518.589,433.253 512.755,427.586 507.5,421.5Z"/>
    </g>
</svg>
