<?xml version="1.0" encoding="UTF-8" standalone="no"?>
<!DOCTYPE svg PUBLIC "-//W3C//DTD SVG 1.1//EN" "http://www.w3.org/Graphics/SVG/1.1/DTD/svg11.dtd">
<svg width="100%" height="100%" viewBox="0 0 1024 1024" version="1.1" xmlns="http://www.w3.org/2000/svg" xmlns:xlink="http://www.w3.org/1999/xlink" xml:space="preserve" xmlns:serif="http://www.serif.com/" style="fill-rule:evenodd;clip-rule:evenodd;stroke-linejoin:round;stroke-miterlimit:2;">
    <g transform="matrix(1.74519,0,0,1.74519,-317.503,-366.11)">
        <path d="M560.5,692.5C561.544,699.561 559.21,705.061 553.5,709C460.137,709.015 366.803,709.681 273.5,711C244.955,719.378 226.622,737.878 218.5,766.5C213.743,770.716 208.409,771.549 202.5,769C197.98,764.338 196.48,758.838 198,752.5C205.292,725.711 221.459,706.377 246.5,694.5C257.652,688.54 269.652,685.04 282.5,684C372.502,683.488 462.502,683.155 552.5,683C557.133,684.469 559.8,687.636 560.5,692.5ZM384.5,285.5C378.461,290.372 373.295,296.039 369,302.5C362.653,311.862 356.819,321.529 351.5,331.5C316.338,382.817 302.505,439.484 310,501.5C316.576,533.662 331.243,561.328 354,584.5C355.448,594.714 351.115,600.714 341,602.5C337.871,602.671 335.037,601.838 332.5,600C287.563,548.094 272.063,488.261 286,420.5C298.393,369.721 320.393,323.721 352,282.5C379.69,248.204 415.19,226.037 458.5,216C520.082,202.717 578.748,210.717 634.5,240C666.132,257.646 696.132,277.646 724.5,300C727.372,302.537 729.872,305.37 732,308.5C731.425,321.87 730.092,335.203 728,348.5C727.239,356.924 722.739,361.758 714.5,363C703.109,363.418 691.776,362.918 680.5,361.5C680.88,372.73 686.214,380.897 696.5,386C710.471,391.572 723.804,390.239 736.5,382C748.815,379.983 754.315,385.15 753,397.5C749.723,405.438 743.89,410.604 735.5,413C728.327,414.911 720.993,416.077 713.5,416.5C715.34,431.132 712.507,444.798 705,457.5C695.353,467.734 683.52,471.901 669.5,470C662.132,467.815 655.132,464.815 648.5,461C614.162,431.326 581.162,400.326 549.5,368C541.112,367.169 532.779,367.503 524.5,369C506.926,378.558 503.759,391.724 515,408.5C541.208,431.043 567.708,453.21 594.5,475C619.798,497.966 643.964,521.799 667,546.5C688.307,571.161 704.641,598.828 716,629.5C732.271,680.925 725.938,729.258 697,774.5C687.773,783.514 680.44,782.18 675,770.5C674.333,767.5 674.333,764.5 675,761.5C699.566,723.964 705.233,683.631 692,640.5C689.119,630.522 685.452,620.855 681,611.5C669.88,591.607 656.546,573.274 641,556.5C597.578,512.399 551.745,471.232 503.5,433C484.045,414.351 479.211,392.517 489,367.5C499.122,352.35 513.289,343.683 531.5,341.5C530.586,339.336 529.419,337.336 528,335.5C526.331,328.327 524.164,321.327 521.5,314.5C475.084,298.018 434.917,307.685 401,343.5C381.705,372.199 380.371,401.866 397,432.5C411.656,454.826 429.489,474.326 450.5,491C483.217,516.052 516.217,540.718 549.5,565C574.625,582.458 596.125,603.625 614,628.5C631.82,654.778 639.487,683.778 637,715.5C629.104,757.054 604.938,783.554 564.5,795C544.247,800.08 536.747,792.58 542,772.5C543.419,771.54 544.919,770.707 546.5,770C582.984,768.521 604.151,749.688 610,713.5C611.991,687.132 605.991,662.799 592,640.5C583.275,628.77 573.442,617.936 562.5,608C520.45,575.616 478.117,543.616 435.5,512C417.667,496.833 401.167,480.333 386,462.5C359.859,428.51 353.526,391.177 367,350.5C381.543,321.958 403.709,301.791 433.5,290C461.707,278.931 490.373,277.598 519.5,286C528.045,288.852 535.545,293.352 542,299.5C544.641,306.728 546.974,314.061 549,321.5C552.205,328.691 556.205,335.358 561,341.5L641.5,422C647.208,427.377 653.208,432.377 659.5,437C667.108,442.037 675.441,444.537 684.5,444.5C687.247,433.327 688.08,421.993 687,410.5C676.61,406.783 668.61,400.117 663,390.5C657.312,381.275 654.812,371.275 655.5,360.5C650.184,359.534 644.851,359.034 639.5,359C649.799,375.099 657.799,392.265 663.5,410.5C662.51,418.234 658.177,421.068 650.5,419C645.481,416.985 641.315,413.818 638,409.5C626.885,389.603 616.551,369.27 607,348.5C604.234,343.289 603.901,337.956 606,332.5C608.077,331.042 610.41,330.376 613,330.5C642.768,333.683 672.602,336.017 702.5,337.5C702.819,330.108 702.819,322.775 702.5,315.5C695.69,310.525 689.024,305.358 682.5,300C673.824,294.997 665.49,289.497 657.5,283.5C658.006,291.339 655.006,297.839 648.5,303C642.095,305.638 636.262,304.805 631,300.5C618.105,307.219 609.771,303.553 606,289.5C605.109,275.055 611.942,267.555 626.5,267C620.003,261.915 613.003,257.582 605.5,254C551.567,232.951 496.9,230.951 441.5,248C419.418,256.026 400.418,268.526 384.5,285.5ZM630.5,279.5C626.061,288.04 628.394,291.04 637.5,288.5C638.614,287.277 638.781,285.944 638,284.5C636.114,281.758 633.614,280.091 630.5,279.5ZM314.5,742.5C370.834,742.333 427.168,742.5 483.5,743C486.22,743.723 488.387,745.223 490,747.5C492.263,754.005 491.929,760.338 489,766.5C488.097,767.701 486.931,768.535 485.5,769C428.167,769.667 370.833,769.667 313.5,769C312.069,768.535 310.903,767.701 310,766.5C306.806,759.456 306.806,752.456 310,745.5C311.409,744.219 312.909,743.219 314.5,742.5Z"/>
    </g>
</svg>
