<?xml version="1.0" encoding="UTF-8" standalone="no"?>
<!DOCTYPE svg PUBLIC "-//W3C//DTD SVG 1.1//EN" "http://www.w3.org/Graphics/SVG/1.1/DTD/svg11.dtd">
<svg width="100%" height="100%" viewBox="0 0 1024 1024" version="1.1" xmlns="http://www.w3.org/2000/svg" xmlns:xlink="http://www.w3.org/1999/xlink" xml:space="preserve" xmlns:serif="http://www.serif.com/" style="fill-rule:evenodd;clip-rule:evenodd;stroke-linejoin:round;stroke-miterlimit:2;">
    <g transform="matrix(1.82173,0,0,1.82173,-421.376,-425.373)">
        <path d="M281.5,697.5C275.562,699.033 269.562,700.366 263.5,701.5C260.376,701.6 257.71,700.6 255.5,698.5C254.164,696.99 252.997,695.323 252,693.5C248.728,685.558 250.895,679.725 258.5,676C267.343,674.274 276.01,671.94 284.5,669C287.722,659.998 290.555,650.831 293,641.5C294.393,637.714 296.059,634.048 298,630.5C305.122,623.605 313.122,617.938 322,613.5C322.333,590.833 322.667,568.167 323,545.5C324.881,519.25 331.381,494.25 342.5,470.5C336.076,463.205 327.909,459.205 318,458.5C304.831,461.111 291.997,464.944 279.5,470C276.232,471.213 272.899,471.546 269.5,471C260.483,464.637 258.483,456.637 263.5,447C278.366,442.268 293.366,437.934 308.5,434C318.699,431.633 328.699,432.3 338.5,436C345.671,439.416 352.338,443.582 358.5,448.5C367.806,434.614 378.972,422.28 392,411.5C391.977,376.9 404.477,347.9 429.5,324.5C417.858,309.024 406.025,293.691 394,278.5C387.947,267.883 389.781,259.05 399.5,252C416.107,243.866 433.441,237.7 451.5,233.5C453.942,234.036 456.275,234.869 458.5,236C466.406,242.716 467.239,250.216 461,258.5C459.829,259.893 458.329,260.727 456.5,261C451.81,261.503 447.143,262.17 442.5,263C435.32,266.06 427.986,268.727 420.5,271C430.874,283.932 442.041,296.099 454,307.5C476.16,294.337 499.994,289.837 525.5,294C539.252,297.915 552.585,302.582 565.5,308C575.217,295.95 584.551,283.617 593.5,271C585.332,268.92 577.332,266.253 569.5,263C564.334,262.731 559.334,261.731 554.5,260C552.383,258.269 550.883,256.102 550,253.5C546.509,238.655 552.342,232.489 567.5,235C581.557,238.13 595.223,242.463 608.5,248C615.118,250.389 620.285,254.556 624,260.5C625.94,270.344 623.606,279.011 617,286.5C606.564,298.546 596.731,311.046 587.5,324C594.393,331.524 600.893,339.357 607,347.5C618.882,367.15 625.549,388.483 627,411.5C640.352,422.019 652.186,434.019 662.5,447.5C675.505,435.577 690.838,430.744 708.5,433C721.366,437.133 734.366,440.8 747.5,444C756.832,445.308 760.665,450.474 759,459.5C758.004,465.159 754.838,468.993 749.5,471C738.802,471.216 728.802,468.549 719.5,463C713.33,460.776 706.996,459.276 700.5,458.5C697.433,458.607 694.433,459.107 691.5,460C685.785,462.405 680.618,465.572 676,469.5C675.333,470.5 675.333,471.5 676,472.5C678.738,476.922 681.071,481.588 683,486.5C692.843,512.061 697.676,538.561 697.5,566C696.767,581.166 696.1,596.333 695.5,611.5C705.601,615.137 714.767,620.47 723,627.5C724.92,630.339 726.587,633.339 728,636.5C730.966,647.54 734.466,658.373 738.5,669C747.917,672.293 757.584,674.626 767.5,676C769.754,677.377 771.92,678.877 774,680.5C775.523,696.971 768.023,703.805 751.5,701C741.44,697.979 731.774,693.979 722.5,689C719.422,686.677 716.922,683.843 715,680.5C709.921,669.088 705.588,657.421 702,645.5C698.633,641.797 694.966,638.464 691,635.5C684.992,671.898 670.325,704.231 647,732.5C593.436,790.104 528.603,808.271 452.5,787C383.909,759.403 342.742,709.236 329,636.5C325.667,640.5 322.333,644.5 319,648.5C316.822,656.213 314.488,663.88 312,671.5C309.829,680.001 304.996,686.501 297.5,691C291.946,692.9 286.613,695.066 281.5,697.5ZM578.5,398.5L597.5,398.5C594.18,374.695 583.18,355.195 564.5,340C536.95,318.588 506.95,314.255 474.5,327C443.813,340.88 425.479,364.38 419.5,397.5C472.331,398.499 525.331,398.832 578.5,398.5ZM594.5,425.5L523.5,425.5L523.5,767.5C524.274,768.147 525.274,768.48 526.5,768.5C571.868,762.412 608.035,741.079 635,704.5C656.231,672.806 667.898,637.806 670,599.5C672.717,564.842 669.383,530.842 660,497.5C647.146,469.297 628.646,445.464 604.5,426C601.183,425.502 597.85,425.335 594.5,425.5ZM593.5,590.5C613.312,590.844 627.479,599.844 636,617.5C640.889,635.444 636.389,650.611 622.5,663C602.827,675.978 584.994,673.812 569,656.5C555.795,639.651 555.128,622.318 567,604.5C574.31,596.764 583.143,592.097 593.5,590.5ZM594.5,616.5C585.264,621.585 583.097,628.918 588,638.5C597.347,647.454 605.014,646.121 611,634.5C611.916,622.583 606.416,616.583 594.5,616.5ZM599.5,478.5C627.749,478.916 641.582,493.249 641,521.5C635.854,544.826 621.354,555.659 597.5,554C581.442,549.277 571.609,538.777 568,522.5C566.11,507.11 571.277,494.61 583.5,485C588.607,481.935 593.94,479.769 599.5,478.5ZM601.5,504.5C592.067,510.701 591.067,518.201 598.5,527C605.259,529.972 610.759,528.472 615,522.5C617.929,510.929 613.429,504.929 601.5,504.5ZM417.5,425.5C397.772,441.402 380.939,460.069 367,481.5C350.234,519.778 344.234,559.778 349,601.5C351.426,634.777 361.093,665.777 378,694.5C405.778,738.639 445.612,763.306 497.5,768.5L497.5,425.5L417.5,425.5ZM407.5,478.5C421.88,477.568 433.713,482.568 443,493.5C449.931,502.89 451.931,513.223 449,524.5C442.613,546.21 428.113,556.044 405.5,554C389.585,548.754 380.085,537.921 377,521.5C375.774,498.917 385.94,484.584 407.5,478.5ZM410.5,504.5C400.305,510.356 398.972,517.856 406.5,527C415.053,530.491 420.887,527.991 424,519.5C424.579,509.913 420.079,504.913 410.5,504.5ZM414.5,591.5C438.914,588.446 455.08,598.446 463,621.5C465.067,648.44 452.9,664.94 426.5,671C415.997,672.375 406.664,669.708 398.5,663C381.987,646.966 379.153,628.799 390,608.5C396.221,599.977 404.388,594.31 414.5,591.5ZM420.5,616.5C408.562,623.982 407.562,632.815 417.5,643C426.759,646.622 433.259,643.789 437,634.5C439.341,621.34 433.841,615.34 420.5,616.5Z"/>
    </g>
</svg>
