<?xml version="1.0" encoding="UTF-8" standalone="no"?>
<!DOCTYPE svg PUBLIC "-//W3C//DTD SVG 1.1//EN" "http://www.w3.org/Graphics/SVG/1.1/DTD/svg11.dtd">
<svg width="100%" height="100%" viewBox="0 0 1024 1024" version="1.1" xmlns="http://www.w3.org/2000/svg" xmlns:xlink="http://www.w3.org/1999/xlink" xml:space="preserve" xmlns:serif="http://www.serif.com/" style="fill-rule:evenodd;clip-rule:evenodd;stroke-linejoin:round;stroke-miterlimit:2;">
    <g transform="matrix(1.1874,0,0,1.1874,-82.636,-100.675)">
        <path d="M115.5,575.5C92.938,557.396 78.771,534.062 73,505.5C66.309,473.797 69.476,443.13 82.5,413.5C83.167,413.5 83.5,413.167 83.5,412.5C92.133,392.418 104.8,375.252 121.5,361C135.963,349.771 152.296,342.937 170.5,340.5C194.521,339.729 212.354,349.729 224,370.5C229.111,380.93 228.444,390.93 222,400.5C216.33,405.004 211.163,410.004 206.5,415.5C196.245,426.991 188.245,439.991 182.5,454.5C177.167,467.554 178.833,479.554 187.5,490.5C190.127,483.405 194.127,477.239 199.5,472C212.044,465.985 224.377,466.485 236.5,473.5C238.372,468.386 240.539,463.386 243,458.5C250.095,447.528 260.261,441.528 273.5,440.5C281.573,440.345 289.24,442.012 296.5,445.5C296.775,434.933 300.441,425.6 307.5,417.5L307.5,416.5C308.167,415.5 308.833,414.5 309.5,413.5C327.217,397.21 345.384,396.543 364,411.5C364.368,404.433 366.701,398.1 371,392.5C389.097,371.772 409.597,369.106 432.5,384.5C436.278,379.22 440.611,374.386 445.5,370C469.46,356.823 489.46,361.323 505.5,383.5C506.117,383.611 506.617,383.944 507,384.5C508.061,381.438 509.894,378.938 512.5,377C536.894,361.71 558.561,364.877 577.5,386.5C585.573,372.093 596.906,361.093 611.5,353.5C615.936,351.389 620.602,349.889 625.5,349C654.202,348.05 682.868,348.384 711.5,350C720.993,352.747 729.66,357.08 737.5,363C747.178,372.012 756.178,381.679 764.5,392C766.898,393.524 769.231,395.024 771.5,396.5C793.334,397.15 815.167,397.817 837,398.5C847.108,388.591 859.275,384.424 873.5,386C889.496,389.33 903.162,396.83 914.5,408.5C917.811,412.656 920.977,416.99 924,421.5C927.317,427.117 929.65,433.117 931,439.5C933.79,454.994 930.624,468.994 921.5,481.5C912.207,493.649 899.873,500.316 884.5,501.5C881.375,502.479 878.042,502.813 874.5,502.5C869.964,532.968 852.964,552.302 823.5,560.5C773.18,561.463 722.846,561.796 672.5,561.5C653.48,557.653 642.48,565.153 639.5,584C640.094,584.464 640.761,584.631 641.5,584.5C648.799,585.35 656.132,585.683 663.5,585.5C750.501,585.333 837.501,585.5 924.5,586C925.579,586.956 926.745,587.789 928,588.5C932.801,595.108 932.635,601.441 927.5,607.5C926.657,609.173 925.324,610.34 923.5,611C642.167,611.5 360.834,611.667 79.5,611.5C361.666,612.333 644,612.833 926.5,613C927.38,614.356 927.714,615.856 927.5,617.5C916.844,618.165 906.177,618.831 895.5,619.5C887.471,619.165 879.471,618.498 871.5,617.5C867.442,617.84 863.442,618.507 859.5,619.5C720.887,618.84 582.22,618.506 443.5,618.5C428.743,618.55 414.076,619.55 399.5,621.5L399.5,617.5C391.452,617.506 383.452,618.172 375.5,619.5C276.837,618.917 178.17,618.583 79.5,618.5C79.773,616.549 79.107,615.049 77.5,614C77.833,613.667 78.167,613.333 78.5,613C77.584,612.722 76.918,612.222 76.5,611.5C72.11,608.038 70.11,603.371 70.5,597.5C70.147,592.04 72.481,588.207 77.5,586C87.161,585.5 96.828,585.334 106.5,585.5C113.175,585.666 119.842,585.5 126.5,585C125.956,584.283 125.289,583.783 124.5,583.5C120.88,581.547 117.88,578.881 115.5,575.5ZM555.5,409.5C557.455,410.323 559.455,410.49 561.5,410C560.001,407.672 558.334,405.505 556.5,403.5C550.966,397.897 544.3,395.397 536.5,396C533.308,398.692 529.975,401.192 526.5,403.5C536.058,406.012 545.724,408.012 555.5,409.5ZM468.5,388.5C463.452,391.367 458.785,394.867 454.5,399C464.886,399.407 475.219,399.74 485.5,400C481.868,397.37 478.535,394.37 475.5,391C473.559,389.097 471.226,388.264 468.5,388.5ZM334.5,427.5C328.18,434.806 324.013,443.14 322,452.5C330.961,445.546 340.461,439.379 350.5,434C345.233,431.528 339.899,429.362 334.5,427.5ZM401.5,401.5C395.666,404.841 391.333,409.675 388.5,416C397.432,412.429 406.766,409.762 416.5,408C412.682,403.091 407.682,400.924 401.5,401.5ZM223.5,494.5C222.207,492.704 220.707,491.037 219,489.5C217.27,491.402 215.437,493.069 213.5,494.5C216.584,494.729 219.918,494.729 223.5,494.5ZM100.5,446.5C97.984,455.791 96.65,465.291 96.5,475C97.22,512.613 112.553,542.446 142.5,564.5C163.092,577.82 185.758,584.653 210.5,585C236.165,585.5 261.831,585.667 287.5,585.5C296.525,585.832 305.525,585.498 314.5,584.5C314.376,583.893 314.043,583.56 313.5,583.5C311.149,573.831 309.816,563.998 309.5,554C311.159,530.681 322.992,515.181 345,507.5C348.584,508.125 351.584,509.792 354,512.5C357.367,518.601 359.534,525.101 360.5,532C360.815,534.704 359.815,536.704 357.5,538C353.049,538.13 348.716,538.796 344.5,540C341.954,543.59 339.787,547.423 338,551.5C336.034,559.028 336.701,566.361 340,573.5C340.498,576.817 340.665,580.15 340.5,583.5C342.292,584.309 344.292,584.809 346.5,585C375.165,585.5 403.831,585.667 432.5,585.5C432.453,582.031 431.787,578.698 430.5,575.5C428.32,568.624 424.32,563.124 418.5,559C412.031,557.375 405.698,555.375 399.5,553C396.628,550.463 394.128,547.63 392,544.5C391.333,541.5 391.333,538.5 392,535.5C396.032,527.963 402.198,525.463 410.5,528C417.61,530.389 424.61,533.056 431.5,536C440.172,541.164 446.672,548.331 451,557.5C454.212,565.3 456.712,573.3 458.5,581.5L458.5,585.5L544.5,585.5C544.334,578.492 544.5,571.492 545,564.5C545.535,560.962 546.368,557.628 547.5,554.5C549.279,544.653 553.445,535.987 560,528.5C565.733,522.553 572.566,518.553 580.5,516.5C585.682,517.129 590.682,517.129 595.5,516.5C599.308,516.163 602.974,516.663 606.5,518C612.01,524.288 611.677,530.288 605.5,536C598.981,539.061 592.315,541.728 585.5,544C579.508,548.816 575.674,554.983 574,562.5C573.5,569.826 573.334,577.159 573.5,584.5L604.5,584.5C604.485,580.44 604.985,576.44 606,572.5C615.259,551.45 631.093,538.284 653.5,533C682.658,533.08 711.824,533.247 741,533.5C767.522,533.619 794.022,533.119 820.5,532C827.436,530.623 832.936,527.123 837,521.5C841.172,514.655 844.672,507.489 847.5,500C846.552,499.517 845.552,499.351 844.5,499.5L701.5,499.5C688.688,498.623 677.522,493.956 668,485.5C661.815,478.636 660.981,471.303 665.5,463.5C666.683,462.496 668.016,461.662 669.5,461C673.833,460.333 678.167,460.333 682.5,461C686.833,464 691.167,467 695.5,470C699.084,471.073 702.75,471.74 706.5,472C759.5,472.333 812.5,472.667 865.5,473C870.822,473.684 876.156,474.184 881.5,474.5C883.302,473.542 885.302,472.875 887.5,472.5C899.7,467.102 904.867,457.768 903,444.5C896.076,423.217 881.576,413.717 859.5,416C853.115,419.063 847.282,422.896 842,427.5C835.959,425.791 829.792,425.125 823.5,425.5C803.831,425.667 784.164,425.5 764.5,425C759.471,423.771 754.804,421.771 750.5,419C740.518,405.686 729.185,393.686 716.5,383C711.449,380.092 706.116,377.758 700.5,376C677.502,375.5 654.502,375.333 631.5,375.5C611.454,383.715 597.621,398.048 590,418.5C587.855,425.099 586.022,431.765 584.5,438.5C565.708,438.867 547.375,436.534 529.5,431.5C500.934,427.369 472.268,426.536 443.5,429C422.336,432.205 402.003,438.038 382.5,446.5C375.702,449.732 369.036,453.232 362.5,457C347.005,467.582 331.338,477.915 315.5,488C278.014,508.205 238.014,519.371 195.5,521.5C166.348,516.667 151.348,499.333 150.5,469.5C155.678,434.643 171.678,405.809 198.5,383C191.183,369.018 179.85,364.351 164.5,369C154.653,371.588 145.986,376.255 138.5,383C118.561,399.781 105.894,420.948 100.5,446.5ZM680.5,390.5C696.906,389.074 704.406,396.407 703,412.5C701.088,420.077 696.254,424.577 688.5,426C677.849,426.697 671.016,421.863 668,411.5C667.1,401.275 671.267,394.275 680.5,390.5ZM271.5,466.5C270.811,469.353 268.978,471.019 266,471.5C264.884,475.288 263.884,478.954 263,482.5C271.382,478.15 280.216,474.983 289.5,473C284.214,468.857 278.214,466.69 271.5,466.5ZM97.5,674.5C95.833,673.167 94.167,671.833 92.5,670.5C91.496,669.317 90.662,667.984 90,666.5C88.069,658.591 90.569,652.758 97.5,649C106.576,648.087 115.576,648.42 124.5,650C132.413,657.633 132.413,665.3 124.5,673C115.608,674.443 106.608,674.943 97.5,674.5ZM868.5,686.5C864.361,683.928 860.027,681.595 855.5,679.5C847.786,674.551 840.286,669.218 833,663.5C824.94,669.783 816.774,675.95 808.5,682C800.335,686.584 791.669,689.751 782.5,691.5C767.55,686.376 754.217,678.543 742.5,668C739.888,666.111 737.055,664.611 734,663.5C724.844,669.985 715.677,676.485 706.5,683C699.49,687.224 691.99,690.057 684,691.5C667.018,687.258 652.518,678.758 640.5,666C637.758,663.23 634.758,662.896 631.5,665C619.425,676.955 605.259,685.455 589,690.5C586.365,690.261 583.865,689.594 581.5,688.5C577.258,686.91 573.258,684.91 569.5,682.5C560.074,675.609 550.407,668.942 540.5,662.5C533.731,667.099 527.398,672.266 521.5,678C512.577,684.088 502.91,688.588 492.5,691.5L480.5,688.5C476.054,685.774 471.387,683.274 466.5,681C457.833,674.667 449.167,668.333 440.5,662C438.167,661.333 435.833,661.333 433.5,662C427.057,665.947 421.057,670.447 415.5,675.5C407.1,681.368 398.1,686.201 388.5,690C385.833,690.667 383.167,690.667 380.5,690C374.21,687.188 368.21,683.855 362.5,680C355.591,673.923 348.258,668.423 340.5,663.5C332.026,669.474 323.693,675.641 315.5,682C305.752,688.474 295.085,691.474 283.5,691C269.154,685.164 256.487,676.831 245.5,666C242.42,663.184 239.087,662.851 235.5,665C222.766,675.388 208.766,683.721 193.5,690C177.472,689.458 172.305,681.624 178,666.5C179.214,664.951 180.714,663.785 182.5,663C189.393,660.621 196.393,658.621 203.5,657C211.778,651.722 219.778,646.055 227.5,640C235.978,634.428 244.644,634.094 253.5,639C261.545,646.047 269.878,652.713 278.5,659C290.447,663.505 301.447,661.838 311.5,654C317.977,647.186 325.31,641.519 333.5,637C341.018,635.652 348.018,636.986 354.5,641C361.833,647 369.167,653 376.5,659C379.932,661.072 383.598,661.738 387.5,661C394.047,659.06 400.047,656.06 405.5,652C420.524,633.408 438.524,629.742 459.5,641C465.648,646.571 471.981,651.904 478.5,657C486.109,662.161 494.109,662.827 502.5,659C510.719,653.383 518.386,647.049 525.5,640C534.945,634.352 544.612,634.018 554.5,639C561.167,644.333 567.833,649.667 574.5,655C579.158,658.332 584.325,660.499 590,661.5C594.922,660.639 599.422,658.805 603.5,656C609.238,649.592 615.571,643.925 622.5,639C631.972,634.192 641.305,634.526 650.5,640C657.277,644.94 663.61,650.44 669.5,656.5C680.75,663.445 691.75,662.945 702.5,655C709.996,647.838 718.329,641.838 727.5,637C732.904,636.228 738.238,636.561 743.5,638C753.689,643.926 763.355,650.593 772.5,658C781.64,662.789 790.64,662.455 799.5,657C807.167,650.667 814.833,644.333 822.5,638C829.473,634.728 836.473,634.728 843.5,638C850.167,643.333 856.833,648.667 863.5,654C872.382,658.555 881.716,661.889 891.5,664C897.79,670.609 898.124,677.609 892.5,685C888.563,687.703 884.229,689.537 879.5,690.5C875.709,689.435 872.042,688.101 868.5,686.5Z"/>
    </g>
</svg>
