<?xml version="1.0" encoding="UTF-8" standalone="no"?>
<!DOCTYPE svg PUBLIC "-//W3C//DTD SVG 1.1//EN" "http://www.w3.org/Graphics/SVG/1.1/DTD/svg11.dtd">
<svg width="100%" height="100%" viewBox="0 0 1024 1024" version="1.1" xmlns="http://www.w3.org/2000/svg" xmlns:xlink="http://www.w3.org/1999/xlink" xml:space="preserve" xmlns:serif="http://www.serif.com/" style="fill-rule:evenodd;clip-rule:evenodd;stroke-linejoin:round;stroke-miterlimit:2;">
    <g transform="matrix(1.23843,0,0,1.23843,-36.0354,-123.261)">
        <path d="M775.5,343.5C771.222,360.185 766.389,376.851 761,393.5C755.441,408.969 747.108,422.635 736,434.5C734.914,454.267 728.414,471.934 716.5,487.5C706.327,498.854 693.827,506.854 679,511.5C681.206,537.898 672.706,560.065 653.5,578C640.45,586.966 626.116,591.132 610.5,590.5C618.974,606.141 630.974,618.308 646.5,627C663.271,635.59 680.937,641.59 699.5,645C728.873,649.118 758.207,653.451 787.5,658C819.156,666.812 830.323,686.978 821,718.5C817.372,725.59 813.872,732.757 810.5,740C818.257,743.378 825.924,747.045 833.5,751C851.542,763.108 858.709,779.941 855,801.5C849.135,820.695 836.301,832.195 816.5,836C802.711,838.125 789.044,837.459 775.5,834C768.468,832.127 761.468,830.127 754.5,828C720.379,811.852 686.379,795.519 652.5,779C623.627,766.486 594.293,755.153 564.5,745C562.156,744.163 560.156,742.829 558.5,741C549.835,741.811 541.169,741.478 532.5,740C488.392,731.611 447.058,715.944 408.5,693C375.421,672.256 349.587,644.756 331,610.5C319.749,587.658 307.749,565.324 295,543.5C273.967,510.133 247.134,482.299 214.5,460C152.973,459.212 96.307,475.212 44.5,508C31.746,511.246 26.913,506.413 30,493.5C79.347,460.44 133.847,442.44 193.5,439.5C194.174,428.304 197.007,417.638 202,407.5C240.352,339.254 298.185,313.088 375.5,329C410.511,337.022 439.011,355.189 461,383.5C499.048,317.655 545.215,257.822 599.5,204C613.412,192.363 629.412,187.363 647.5,189C662.748,191.576 673.248,200.076 679,214.5C682.72,224.151 684.72,234.151 685,244.5C685.654,262.624 684.988,280.624 683,298.5C699.197,287.099 717.197,280.433 737,278.5C764.358,280.531 777.858,295.364 777.5,323C777.288,329.887 776.622,336.721 775.5,343.5ZM558.5,280.5C550.907,289.935 543.074,299.269 535,308.5C520.171,329.488 505.838,350.822 492,372.5C461.217,420.733 435.717,471.733 415.5,525.5C414.49,528.33 412.823,530.83 410.5,533C399.074,537.224 393.907,533.39 395,521.5C400.596,506.054 406.596,490.72 413,475.5C424.232,450.537 436.398,426.037 449.5,402C447.463,398.763 445.296,395.597 443,392.5C414.308,360.082 378.142,344.415 334.5,345.5C312.534,345.79 291.867,350.956 272.5,361C244.846,379.458 225.179,404.292 213.5,435.5C214.01,437.088 215.01,438.255 216.5,439C225.501,443.832 234.168,449.165 242.5,455C271.683,478.572 295.85,506.406 315,538.5C329,563.833 343,589.167 357,614.5C372.833,638.333 392.667,658.167 416.5,674C459.939,699.543 506.606,716.376 556.5,724.5C555.816,707.012 563.816,700.845 580.5,706C621.666,730.415 662.666,755.082 703.5,780C722.705,791.269 742.705,800.936 763.5,809C777.621,814.779 792.287,817.112 807.5,816C820.293,815.365 829.126,809.198 834,797.5C836.883,786.212 834.049,776.712 825.5,769C812.302,763.282 798.635,758.949 784.5,756C779.427,747.999 780.927,741.499 789,736.5C794.489,726.523 799.156,716.189 803,705.5C805.873,689.704 799.373,680.538 783.5,678C750.393,673.717 717.393,668.717 684.5,663C674.311,660.239 664.311,656.906 654.5,653C631.841,643.771 613.008,629.605 598,610.5C595.298,606.591 593.965,602.258 594,597.5C591.795,600.04 589.295,602.207 586.5,604C554.168,622.142 520.001,626.642 484,617.5C480.013,616.18 477.346,613.513 476,609.5C474.52,598.98 479.02,594.48 489.5,596C498.43,599.766 507.764,601.266 517.5,600.5C548.151,601.793 573.818,591.293 594.5,569C597.075,568.042 599.741,567.542 602.5,567.5C635.733,573.43 653.733,559.597 656.5,526C655.019,516.789 655.186,507.623 657,498.5C658.543,496.622 660.376,495.122 662.5,494C668.121,492.178 673.788,490.511 679.5,489C695.677,482.159 706.177,470.325 711,453.5C713.107,442.524 715.107,431.524 717,420.5C718.122,418.376 719.622,416.543 721.5,415C729.449,410.707 734.949,404.207 738,395.5C743.269,380.693 747.935,365.693 752,350.5C755.092,338.334 756.092,326.001 755,313.5C753.941,310.382 752.608,307.382 751,304.5C744.932,299.967 738.098,298.467 730.5,300C724.363,301.601 718.363,303.601 712.5,306C700.144,311.838 688.477,318.671 677.5,326.5C673.935,343.365 668.102,359.365 660,374.5C663.918,402.725 656.918,427.725 639,449.5C638.787,457.876 638.121,466.21 637,474.5C632.46,495.359 620.794,510.692 602,520.5C598.735,535.871 591.235,548.704 579.5,559C563.592,569.082 546.258,575.415 527.5,578C521.903,579.091 516.57,578.424 511.5,576C506.243,570.031 506.243,564.031 511.5,558C519.463,556.868 527.463,555.868 535.5,555C550.722,552.475 563.555,545.641 574,534.5C578.54,525.676 581.54,516.343 583,506.5L586.5,503C602.727,497.441 612.561,486.274 616,469.5C616.47,458.117 616.137,446.784 615,435.5C615.583,433.998 616.416,432.665 617.5,431.5C635.767,420.544 642.267,404.544 637,383.5C634.855,376.599 633.521,369.599 633,362.5C634.008,360.741 635.508,359.574 637.5,359C640.272,358.474 642.938,357.641 645.5,356.5C662.232,315.641 667.732,273.308 662,229.5C657.412,211.73 646.245,205.563 628.5,211C621.865,213.65 615.865,217.316 610.5,222C592.216,240.776 574.883,260.276 558.5,280.5ZM289.5,407.5C302.649,406.567 310.316,412.567 312.5,425.5C308.857,440.321 299.857,445.155 285.5,440C275.861,430.883 275.194,421.216 283.5,411C285.727,410.059 287.727,408.892 289.5,407.5Z"/>
    </g>
</svg>
