<?xml version="1.0" encoding="UTF-8" standalone="no"?>
<!DOCTYPE svg PUBLIC "-//W3C//DTD SVG 1.1//EN" "http://www.w3.org/Graphics/SVG/1.1/DTD/svg11.dtd">
<svg width="100%" height="100%" viewBox="0 0 1024 1024" version="1.1" xmlns="http://www.w3.org/2000/svg" xmlns:xlink="http://www.w3.org/1999/xlink" xml:space="preserve" xmlns:serif="http://www.serif.com/" style="fill-rule:evenodd;clip-rule:evenodd;stroke-linejoin:round;stroke-miterlimit:2;">
    <g transform="matrix(1.64081,0,0,1.64081,-292.818,-253.476)">
        <path d="M390.5,673.5C342.761,646.238 310.595,606.238 294,553.5C291.159,543.465 288.326,533.465 285.5,523.5C284.321,517.109 282.821,510.776 281,504.5C269.596,503.601 258.429,505.101 247.5,509C232.97,515.43 218.97,522.597 205.5,530.5C202.348,531.041 199.848,530.041 198,527.5C197.333,511.5 197.333,495.5 198,479.5C207.307,470.861 216.641,462.195 226,453.5C226.909,427.181 237.742,406.015 258.5,390C264.158,386.671 270.158,384.171 276.5,382.5C297.762,376.271 318.095,378.937 337.5,390.5C362.036,358.082 377.87,321.748 385,281.5C387.273,268.259 388.606,254.925 389,241.5C389.333,214.167 389.667,186.833 390,159.5C393.735,153.161 398.069,152.828 403,158.5C405.06,163.62 407.393,168.62 410,173.5C438.356,211.206 464.356,250.539 488,291.5C500.463,313.67 508.796,337.337 513,362.5C514.616,376.685 513.116,390.518 508.5,404C507.899,405.605 506.899,406.938 505.5,408C539.209,391.806 572.209,373.973 604.5,354.5C657.5,322.187 704.167,282.187 744.5,234.5C747.99,229.529 751.49,224.529 755,219.5C760.116,208.153 764.45,196.487 768,184.5C773.041,179.184 778.041,179.184 783,184.5C783.667,224.833 783.667,265.167 783,305.5C782.163,310.18 781.329,314.846 780.5,319.5C766.137,362.57 743.804,400.904 713.5,434.5C703.511,446.323 692.677,457.323 681,467.5C675.117,499.838 657.951,523.838 629.5,539.5C620.569,543.42 611.235,546.253 601.5,548C597.644,550.561 595.478,554.061 595,558.5C619.156,585.967 648.322,606.467 682.5,620C697.251,625.936 712.251,631.103 727.5,635.5C738.83,638.887 750.164,642.387 761.5,646C763.667,646.833 765.167,648.333 766,650.5C766.546,653.899 766.213,657.232 765,660.5C759.983,675.579 754.816,690.579 749.5,705.5C739.763,728.307 728.43,750.307 715.5,771.5C712.619,775.044 708.952,777.377 704.5,778.5C701.68,778.752 699.014,778.252 696.5,777C691.963,772.631 687.63,768.131 683.5,763.5C664.748,744.751 646.414,725.751 628.5,706.5C625.333,703.502 622,700.669 618.5,698C611.604,697.89 605.104,696.39 599,693.5C541.007,705.375 483.507,703.542 426.5,688C414.135,683.981 402.135,679.148 390.5,673.5ZM281.5,399.5C276.98,401.093 272.647,403.26 268.5,406C266.808,407.307 265.475,408.807 264.5,410.5C262.563,411.59 260.73,412.924 259,414.5C254.91,419.673 251.577,425.34 249,431.5C246.71,440.785 244.71,450.118 243,459.5C241.667,461.5 240.333,463.5 239,465.5C231.938,472.73 224.771,479.73 217.5,486.5C217.217,487.289 216.717,487.956 216,488.5C215.333,493.833 215.333,499.167 216,504.5C227.807,497.452 240.307,491.952 253.5,488C265.785,486.439 278.118,486.106 290.5,487C293.913,488.269 296.079,490.769 297,494.5C298.815,499.763 300.315,505.096 301.5,510.5C304.638,521.385 307.305,532.385 309.5,543.5C322.489,586.661 347.156,621.494 383.5,648C399.736,658.285 417.069,666.118 435.5,671.5C440.354,673.297 445.354,674.631 450.5,675.5C478.455,681.973 506.789,684.473 535.5,683C574.086,680.321 612.086,674.155 649.5,664.5C656.322,662.169 663.322,661.336 670.5,662C675.157,668.403 674.157,673.737 667.5,678C656.412,681.313 645.412,684.479 634.5,687.5C653.689,707.531 672.855,727.864 692,748.5C695.098,752.107 698.598,755.107 702.5,757.5C720.277,727.267 734.277,695.267 744.5,661.5C744.023,660.522 743.357,659.689 742.5,659C708.334,650.669 675.667,638.503 644.5,622.5C620.883,609.394 600.383,592.394 583,571.5C574.833,579.183 565.999,585.85 556.5,591.5C550.227,593.758 543.894,595.924 537.5,598C484.185,606.082 442.018,588.249 411,544.5C402.171,529.883 400.505,514.55 406,498.5C409.414,492.003 413.081,485.67 417,479.5C421.333,473.833 425.667,468.167 430,462.5C449.39,441.115 468.724,419.782 488,398.5C491.388,394.391 493.721,389.725 495,384.5C496.179,371.24 494.845,358.24 491,345.5C486.052,329.272 479.719,313.605 472,298.5C453.744,265.259 432.744,233.926 409,204.5C408.616,232.32 406.449,259.987 402.5,287.5C395.737,322.118 383.07,354.451 364.5,384.5C360.641,389.688 356.641,394.855 352.5,400C358.111,406.278 362.944,413.112 367,420.5C370.453,429.406 374.453,438.073 379,446.5C388.117,451.973 397.284,457.307 406.5,462.5L408,465.5C409.671,471.492 407.671,475.492 402,477.5C391.669,473.419 381.502,468.919 371.5,464C368.37,461.872 365.537,459.372 363,456.5C358.921,445.266 354.254,434.266 349,423.5C331.654,401.327 309.154,393.327 281.5,399.5ZM621.5,364.5C610.203,372.823 598.203,380.156 585.5,386.5C558.132,401.516 530.798,416.516 503.5,431.5C495.64,435.044 488.307,439.378 481.5,444.5C456.418,459.417 436.918,479.75 423,505.5C421.691,510.066 421.191,514.733 421.5,519.5C422.784,528.738 426.284,537.072 432,544.5C459.34,573.835 492.84,585.669 532.5,580C546.097,577.62 557.597,571.453 567,561.5C573.536,552.929 579.703,544.095 585.5,535C596.912,531.646 608.245,527.979 619.5,524C637.203,515.298 649.703,501.798 657,483.5C659.067,474.3 661.734,465.3 665,456.5C709.068,419.391 741.068,373.724 761,319.5C762.868,312.628 764.201,305.628 765,298.5C765.667,278.5 765.667,258.5 765,238.5C763.483,240.24 761.983,241.906 760.5,243.5C746.474,261.033 731.141,277.533 714.5,293C685.964,320.242 654.964,344.075 621.5,364.5ZM299.5,431.5C305.917,436.518 306.917,442.518 302.5,449.5C296.036,453.971 290.203,453.305 285,447.5C280.437,433.891 285.27,428.558 299.5,431.5Z"/>
    </g>
</svg>
