<?xml version="1.0" encoding="UTF-8" standalone="no"?>
<!DOCTYPE svg PUBLIC "-//W3C//DTD SVG 1.1//EN" "http://www.w3.org/Graphics/SVG/1.1/DTD/svg11.dtd">
<svg width="100%" height="100%" viewBox="0 0 1024 1024" version="1.1" xmlns="http://www.w3.org/2000/svg" xmlns:xlink="http://www.w3.org/1999/xlink" xml:space="preserve" xmlns:serif="http://www.serif.com/" style="fill-rule:evenodd;clip-rule:evenodd;stroke-linejoin:round;stroke-miterlimit:2;">
    <g transform="matrix(1.50661,0,0,1.50661,-267.803,-264.475)">
        <path d="M512.5,740.5C488.63,743.748 464.63,745.581 440.5,746C419.393,778.771 397.893,811.271 376,843.5C374.421,845.041 372.587,846.208 370.5,847C335.207,847.941 301.54,840.941 269.5,826C262.221,824.223 257.888,819.723 256.5,812.5C256.577,810.701 257.077,809.034 258,807.5C284.61,766.227 312.777,726.06 342.5,687C302.97,682.786 265.637,671.453 230.5,653C208.433,640.933 190.933,624.1 178,602.5C176.972,596.049 179.139,590.882 184.5,587C208.354,568.488 231.021,548.488 252.5,527C326.892,467.44 407.559,417.44 494.5,377C519.755,353.72 545.755,331.387 572.5,310C586.147,296.832 598.98,282.999 611,268.5C620.944,253.556 631.278,238.89 642,224.5C659.914,203.455 682.414,189.955 709.5,184C732.661,182.498 754.994,186.165 776.5,195C797.731,204.902 811.898,221.069 819,243.5C820.586,253.104 821.586,262.771 822,272.5C826.241,280.076 831.908,286.41 839,291.5C844.667,302.833 850.333,314.167 856,325.5C859.04,331.475 857.207,334.975 850.5,336C841.532,337.332 832.532,337.665 823.5,337C820.554,336.194 817.888,334.861 815.5,333L794,311.5C783.722,318.778 774.389,327.111 766,336.5C759.741,346.018 755.408,356.352 753,367.5C750.151,399.582 746.485,431.582 742,463.5C733.784,519.571 711.784,569.238 676,612.5C642.717,645.736 603.217,668.57 557.5,681C495.054,697.046 431.887,700.546 368,691.5C365.245,691.525 362.578,691.859 360,692.5C331.848,730.802 304.681,769.802 278.5,809.5C286.527,813.344 294.86,816.511 303.5,819C318.703,822.968 334.036,826.301 349.5,829C354.533,829.829 359.533,829.662 364.5,828.5C382.441,800.562 400.774,772.895 419.5,745.5C402.704,744.52 385.704,743.687 368.5,743C362.737,737.897 362.07,732.23 366.5,726C369.743,724.982 373.076,724.482 376.5,724.5C410.817,726.698 445.15,727.031 479.5,725.5C533.221,720.762 583.887,705.595 631.5,680C650.337,667.834 666.67,652.834 680.5,635C687.725,629.477 693.392,630.644 697.5,638.5C694.873,646.421 690.706,653.421 685,659.5C664.402,681.713 640.235,698.88 612.5,711C601.705,714.875 591.039,719.042 580.5,723.5C581.993,727.812 583.327,732.145 584.5,736.5C589.893,750.344 594.893,764.344 599.5,778.5C632.168,778.333 664.835,778.5 697.5,779C705.416,783.496 706.416,789.163 700.5,796C660.416,797.161 620.249,797.661 580,797.5C540.5,797.333 501,797.167 461.5,797C457.614,795.063 455.947,791.897 456.5,787.5C455.739,783.183 457.406,780.35 461.5,779C500.832,778.5 540.165,778.333 579.5,778.5C575.127,764.084 570.46,749.75 565.5,735.5C564.66,733.208 563.66,730.875 562.5,728.5C545.952,733.13 529.285,737.13 512.5,740.5ZM541.5,382.5C533.755,384.854 525.755,386.688 517.5,388C509.675,390.608 502.009,393.608 494.5,397C455.788,416.102 417.955,436.602 381,458.5C378.864,527.226 406.697,579.726 464.5,616C478.54,623.68 493.54,628.346 509.5,630C534.121,632.344 556.121,626.01 575.5,611C565.32,605.413 555.654,599.079 546.5,592C527.935,576.045 514.435,556.545 506,533.5C486.79,474.848 499.623,424.682 544.5,383C543.552,382.517 542.552,382.351 541.5,382.5ZM585.5,378.5C580.814,380.339 576.147,382.506 571.5,385C536.78,408.41 518.114,441.077 515.5,483C516.109,538.067 541.776,575.9 592.5,596.5C593.7,595.469 595.034,594.635 596.5,594C609.975,580.518 622.142,566.018 633,550.5C659.293,510.076 665.626,466.743 652,420.5C639.784,390.965 617.617,376.965 585.5,378.5ZM276.5,579.5C269.173,569.177 263.673,557.844 260,545.5C240.264,564.573 219.93,582.907 199,600.5C199.044,602.279 199.711,603.945 201,605.5C220.958,626.9 244.791,642.4 272.5,652C305.031,662.706 338.364,669.706 372.5,673C427.188,680.385 481.522,678.385 535.5,667C586.686,656.831 630.186,632.997 666,595.5C695.054,559.065 713.72,517.732 722,471.5C727.113,435.583 731.447,399.583 735,363.5C738.695,344.438 747.362,328.105 761,314.5C767.636,308.866 773.969,302.866 780,296.5C783.149,289.509 788.316,287.342 795.5,290C806.408,296.24 815.408,304.573 822.5,315C825.625,318.066 829.292,319.733 833.5,320C830.207,314.582 827.04,309.082 824,303.5C816.972,295.807 809.972,288.141 803,280.5C803.405,272.187 803.405,263.853 803,255.5C799.701,235.718 789.201,221.218 771.5,212C755.556,206.566 739.223,203.066 722.5,201.5C696.23,204.266 674.397,215.6 657,235.5C644.51,251.814 632.51,268.48 621,285.5C595.329,314.841 566.829,341.008 535.5,364C541.8,363.34 548.134,362.34 554.5,361C615.089,349.355 654.922,372.522 674,430.5C682.105,471.648 676.105,510.648 656,547.5C641.548,571.966 624.048,594.133 603.5,614C559.215,653.286 510.548,659.619 457.5,633C396.096,595.733 364.43,540.899 362.5,468.5C360.312,471.522 357.645,474.022 354.5,476C326.946,494.222 299.946,513.222 273.5,533C278.159,549.336 285.659,564.169 296,577.5C310.909,593.586 328.409,605.919 348.5,614.5C369.317,621.632 390.65,626.798 412.5,630C414.333,630.5 415.5,631.667 416,633.5C416.738,637.261 416.405,640.928 415,644.5C410.29,647.443 405.123,648.276 399.5,647C386.121,644.207 372.788,641.207 359.5,638C325.229,627.516 297.562,608.016 276.5,579.5ZM764.5,239.5C779.535,239.554 784.035,246.554 778,260.5C772.137,266.004 765.637,266.837 758.5,263C750.589,252.574 752.589,244.741 764.5,239.5Z"/>
    </g>
</svg>
