<?xml version="1.0" encoding="UTF-8" standalone="no"?>
<!DOCTYPE svg PUBLIC "-//W3C//DTD SVG 1.1//EN" "http://www.w3.org/Graphics/SVG/1.1/DTD/svg11.dtd">
<svg width="100%" height="100%" viewBox="0 0 1024 1024" version="1.1" xmlns="http://www.w3.org/2000/svg" xmlns:xlink="http://www.w3.org/1999/xlink" xml:space="preserve" xmlns:serif="http://www.serif.com/" style="fill-rule:evenodd;clip-rule:evenodd;stroke-linejoin:round;stroke-miterlimit:2;">
    <g transform="matrix(1.45662,0,0,1.45662,-190.452,-233.623)">
        <path d="M347.5,431.5C346.352,445.759 346.185,460.092 347,474.5C385.975,458.856 417.975,434.189 443,400.5C451.058,389.44 458.725,378.107 466,366.5C472.569,359.261 479.735,352.761 487.5,347C499.807,343.97 505.307,348.803 504,361.5C502.92,363.996 501.586,366.33 500,368.5C494.633,373.532 489.633,378.865 485,384.5C461.639,422.193 431.806,453.693 395.5,479C380.237,487.965 364.237,495.299 347.5,501C334.421,505.542 325.588,501.375 321,488.5C320.203,468.469 320.369,448.469 321.5,428.5C321.953,424.973 323.453,421.973 326,419.5C331.035,414.297 336.202,409.297 341.5,404.5C361.128,383.036 380.961,361.703 401,340.5C418.804,322.864 436.304,305.197 453.5,287.5C483.161,255.172 513.161,223.172 543.5,191.5C548.958,184.872 554.624,178.372 560.5,172C565.807,168.336 571.474,167.67 577.5,170C582.868,175.435 583.868,181.601 580.5,188.5C553.885,215.785 527.551,243.451 501.5,271.5C476.479,298.853 450.812,325.52 424.5,351.5C398.778,378.22 373.112,404.886 347.5,431.5ZM660.5,180.5C664.098,175.726 667.931,171.06 672,166.5C674.713,164.28 677.546,162.28 680.5,160.5C696.442,159.422 701.276,166.089 695,180.5C643.971,233.03 594.138,286.696 545.5,341.5C542.727,343.091 539.727,344.091 536.5,344.5C525.968,340.756 523.135,333.756 528,323.5C547.4,302.937 566.567,282.271 585.5,261.5C609.429,233.901 634.096,206.901 659.5,180.5L660.5,180.5ZM162.5,701.5C140.73,678.843 133.564,652.176 141,621.5C151.64,595.025 170.473,577.358 197.5,568.5C197.23,560.014 199.064,552.014 203,544.5C211.796,531.358 223.296,521.358 237.5,514.5C245,510.785 253,508.285 261.5,507C273.843,505.833 286.177,504.666 298.5,503.5C303.129,502.519 307.796,502.352 312.5,503C319.06,504.893 322.727,509.226 323.5,516C322.368,522.886 320.368,529.386 317.5,535.5C320.814,545.75 323.981,556.083 327,566.5C330.003,581.124 330.17,595.791 327.5,610.5C343.514,608.284 359.514,608.784 375.5,612C430.709,626.048 473.375,656.882 503.5,704.5C505.695,709.085 507.695,713.751 509.5,718.5C516.565,738.479 514.232,757.312 502.5,775C501.552,775.483 500.552,775.649 499.5,775.5C498.265,780.444 495.265,783.944 490.5,786C485.465,786.418 480.465,786.418 475.5,786C469.612,792.273 465.112,799.44 462,807.5C461.333,810.167 461.333,812.833 462,815.5C466.179,818.257 470.179,821.257 474,824.5C477.336,828.312 479.503,832.645 480.5,837.5C486.55,837.728 490.716,835.061 493,829.5C493.458,825.951 492.792,822.618 491,819.5C489.284,809.543 490.951,800.21 496,791.5C506.368,781.464 517.034,771.797 528,762.5C538.134,747.771 544.134,731.438 546,713.5C546.333,700.167 546.667,686.833 547,673.5C549.072,667.704 553.239,664.704 559.5,664.5C579.813,672.988 600.146,681.488 620.5,690C635.359,696.215 650.692,700.882 666.5,704C698.5,704.667 730.5,704.667 762.5,704C765.751,702.423 768.751,700.423 771.5,698C785.657,695.323 791.99,701.156 790.5,715.5C788.01,720.658 784.01,723.991 778.5,725.5C778.799,727.604 778.466,729.604 777.5,731.5C762.199,738.86 746.033,742.194 729,741.5C700.476,739.496 672.643,733.996 645.5,725C621.565,716.966 598.231,707.466 575.5,696.5C573.798,717.813 568.131,737.98 558.5,757C570.329,756.416 581.662,758.416 592.5,763C604.178,770.514 610.012,781.347 610,795.5C621.187,802.883 625.521,813.216 623,826.5C617.974,845.526 605.807,857.026 586.5,861C567.344,863.59 553.344,856.423 544.5,839.5C539.848,827.407 540.682,815.74 547,804.5C552.356,798.452 558.856,796.952 566.5,800C570.873,804.768 571.539,809.934 568.5,815.5C565.29,823.823 567.29,830.656 574.5,836C583.044,838.144 589.877,835.644 595,828.5C596.039,826.254 597.206,824.087 598.5,822C587.794,825.668 582.127,821.668 581.5,810C581.843,805.454 582.509,800.954 583.5,796.5C582.439,785.778 576.439,780.945 565.5,782C558.428,781.446 551.428,781.946 544.5,783.5C535.257,790.063 526.257,797.063 517.5,804.5C523.348,827.134 516.681,844.967 497.5,858C493.797,860.354 489.797,861.854 485.5,862.5C471.934,865.554 461.934,860.72 455.5,848C427.617,846.786 414.45,832.286 416,804.5C423.215,779.772 439.715,765.605 465.5,762C474.951,763.359 481.784,759.859 486,751.5C489.873,736.928 487.707,723.262 479.5,710.5C454.064,674.402 420.064,650.402 377.5,638.5C364.978,635.69 352.312,634.524 339.5,635C332.112,637.901 324.446,639.068 316.5,638.5C299.195,637.118 281.862,636.452 264.5,636.5C262.223,642.624 258.223,647.457 252.5,651C241.319,656.38 229.652,660.38 217.5,663C201.967,673.225 194.134,687.725 194,706.5C190.597,712.618 185.43,715.118 178.5,714C171.834,711.496 166.501,707.33 162.5,701.5ZM284.5,530.5C256.91,528.87 236.41,539.87 223,563.5C222.054,569.671 223.388,575.338 227,580.5C230.332,585.327 233.832,589.993 237.5,594.5C244.181,601.256 251.681,606.923 260,611.5C268.811,607.947 277.978,605.947 287.5,605.5C299.887,602.775 305.221,595.108 303.5,582.5C303.498,577.444 302.998,572.444 302,567.5C300.231,560.63 297.898,553.964 295,547.5C294.333,542.833 294.333,538.167 295,533.5L296.5,532C292.312,531.824 288.312,531.324 284.5,530.5ZM233.5,624.5C222.247,616.081 212.914,605.914 205.5,594C183.261,599.236 169.094,613.069 163,635.5C160.966,651.369 165.133,665.369 175.5,677.5C178.301,665.224 184.635,655.224 194.5,647.5C195.574,646.115 196.907,644.949 198.5,644C207.621,639.302 217.288,636.302 227.5,635C231.779,633.527 235.779,631.527 239.5,629C237.34,627.668 235.34,626.168 233.5,624.5ZM255.5,560.5C272.351,558.522 278.851,565.855 275,582.5C273.169,589.341 268.669,592.674 261.5,592.5C247.172,591.181 241.672,583.514 245,569.5C247.052,564.736 250.552,561.736 255.5,560.5ZM483.5,543.5C474.2,536.202 465.2,528.535 456.5,520.5C452.346,512.353 452.513,504.353 457,496.5C482.61,469.973 507.777,442.973 532.5,415.5C563.867,381.634 594.7,347.301 625,312.5C626.944,310.779 629.11,309.446 631.5,308.5C636.212,306.861 640.712,307.527 645,310.5C645.862,312.087 646.529,313.754 647,315.5C647.058,344.864 647.724,374.197 649,403.5C691.171,357.963 733.671,312.797 776.5,268C783.173,264.401 789.507,264.901 795.5,269.5C798.322,275.281 798.155,280.948 795,286.5C745.935,337.395 697.102,388.395 648.5,439.5C647.507,476.761 647.173,514.094 647.5,551.5L647.5,591.5C648.29,592.609 648.79,593.942 649,595.5C659.333,583.833 669.667,572.167 680,560.5C690.063,550.605 699.896,540.605 709.5,530.5C714.797,523.536 720.797,517.202 727.5,511.5C732.935,502.898 739.935,495.731 748.5,490C756.328,488.581 761.994,491.414 765.5,498.5C771.001,495.353 774.001,490.686 774.5,484.5C768.799,478.421 767.299,471.421 770,463.5C770.948,461.43 772.448,459.93 774.5,459C783.26,457.299 790.093,460.133 795,467.5C797.066,470.961 798.566,474.627 799.5,478.5C801.414,499.178 792.747,513.344 773.5,521C765.847,522.625 758.181,522.958 750.5,522C742.266,531.003 733.933,539.836 725.5,548.5C725.167,549.5 724.5,550.167 723.5,550.5C705.539,570.297 687.372,589.963 669,609.5C668.308,610.437 668.475,611.103 669.5,611.5C717.213,611.019 764.88,611.519 812.5,613C826.891,622.528 830.058,635.028 822,650.5C817.93,657.24 813.096,663.407 807.5,669C804.941,670.777 802.274,672.277 799.5,673.5C797.5,674.833 795.5,676.167 793.5,677.5C791.146,677.838 788.813,678.338 786.5,679C757.169,679.5 727.835,679.667 698.5,679.5L695.5,679.5C692.357,678.866 689.857,677.2 688,674.5C687.112,669.382 687.445,664.382 689,659.5C690.961,656.865 693.461,655.031 696.5,654C704.159,653.5 711.826,653.334 719.5,653.5C741.575,653.822 763.575,653.489 785.5,652.5C791.124,648.876 795.791,644.209 799.5,638.5C732.502,637.667 665.502,637.167 598.5,637C595.213,635.533 592.546,633.366 590.5,630.5C582.753,624.629 575.42,618.296 568.5,611.5C540.161,588.827 511.828,566.16 483.5,543.5ZM499.5,486.5C495.54,491.795 491.207,496.795 486.5,501.5C484.5,503.833 482.5,506.167 480.5,508.5C511.508,533.516 542.174,558.849 572.5,584.5C584.167,593.01 595.501,602.01 606.5,611.5L621.5,611.5C621.342,525.779 621.508,440.112 622,354.5C582.035,399.298 541.202,443.298 499.5,486.5ZM773.5,205.5C741.666,238.501 710.333,272.001 679.5,306C666.442,309.892 660.275,305.059 661,291.5L664,285.5C687.667,260.5 711.333,235.5 735,210.5C742.667,201.5 750.333,192.5 758,183.5C760.086,180.906 762.586,178.906 765.5,177.5C779.312,175.487 784.812,181.487 782,195.5C779.331,199 776.498,202.333 773.5,205.5ZM805.5,303.5C818.334,302.837 823.501,308.837 821,321.5C819.667,323.5 818.333,325.5 817,327.5C806.192,337.976 795.692,348.809 785.5,360C777.724,363.513 772.224,361.346 769,353.5C768.023,348.266 768.69,343.266 771,338.5C778,330.833 785,323.167 792,315.5C796.099,310.892 800.599,306.892 805.5,303.5ZM764.5,390.5C777.45,389.065 782.616,394.731 780,407.5C779,409.167 778,410.833 777,412.5C748.167,442.667 719.333,472.833 690.5,503C677.839,506.016 672.339,500.85 674,487.5C675.08,485.004 676.414,482.67 678,480.5C702.7,454.801 727.033,428.801 751,402.5C755.099,397.892 759.599,393.892 764.5,390.5Z"/>
    </g>
</svg>
