<?xml version="1.0" encoding="UTF-8" standalone="no"?>
<!DOCTYPE svg PUBLIC "-//W3C//DTD SVG 1.1//EN" "http://www.w3.org/Graphics/SVG/1.1/DTD/svg11.dtd">
<svg width="100%" height="100%" viewBox="0 0 1024 1024" version="1.1" xmlns="http://www.w3.org/2000/svg" xmlns:xlink="http://www.w3.org/1999/xlink" xml:space="preserve" xmlns:serif="http://www.serif.com/" style="fill-rule:evenodd;clip-rule:evenodd;stroke-linejoin:round;stroke-miterlimit:2;">
    <g transform="matrix(1.42514,0,0,1.42514,-215.87,-177.78)">
        <path d="M297.5,499.5C293.604,478.292 293.604,456.958 297.5,435.5C292.52,429.387 286.02,426.053 278,425.5C265.531,430.656 252.698,434.823 239.5,438C229.285,439.144 219.285,438.144 209.5,435C200.005,430.422 191.005,425.089 182.5,419C174.722,411.286 166.389,404.286 157.5,398C148.845,387.897 149.512,378.564 159.5,370C183.884,354.28 207.718,337.78 231,320.5C235.66,289.347 250.827,264.68 276.5,246.5C277.332,220.003 277.832,193.336 278,166.5C279.104,160.434 282.771,157.101 289,156.5C293.099,156.816 296.933,157.983 300.5,160C312.676,171.51 324.176,183.676 335,196.5C338.788,184.757 344.288,173.924 351.5,164C358.311,160.636 364.978,160.97 371.5,165C375.612,169.391 379.112,174.224 382,179.5C419.666,246.648 457.499,313.648 495.5,380.5C499.754,382.756 504.088,384.923 508.5,387C545.093,399.085 580.427,414.085 614.5,432C644.931,451.265 670.264,475.765 690.5,505.5C708.23,530.812 720.063,558.812 726,589.5C728.685,605.221 730.185,621.054 730.5,637C729.492,661.744 727.492,686.411 724.5,711C724.833,712.5 725.167,714 725.5,715.5C759.059,705.775 779.226,683.775 786,649.5C788.617,628.224 792.617,607.224 798,586.5C805.279,567.561 816.779,551.728 832.5,539C837.265,535.071 842.598,532.071 848.5,530C855.848,527.143 862.348,528.31 868,533.5C869.368,536.738 869.701,540.072 869,543.5C863.862,556.915 859.528,570.582 856,584.5C854.775,598.995 855.775,613.328 859,627.5C863.608,642.598 867.274,657.932 870,673.5C868.6,721.457 850.1,761.29 814.5,793C808.296,797.603 801.629,801.437 794.5,804.5C787.532,807.742 780.199,809.742 772.5,810.5L540.5,810.5C537.029,809.522 535.195,807.188 535,803.5C534.269,799.016 534.769,794.682 536.5,790.5C537.473,790.013 538.473,789.513 539.5,789C591.843,789.163 643.843,788.33 695.5,786.5C699.488,740.186 703.321,693.853 707,647.5C707.72,634.118 707.22,620.785 705.5,607.5C694.483,535.264 657.15,481.431 593.5,446C561.92,431.031 529.587,418.031 496.5,407C489.24,404.399 483.073,400.232 478,394.5C438.8,326.638 400.466,258.305 363,189.5C362.548,192.877 361.882,196.211 361,199.5C354.735,215.295 349.068,231.295 344,247.5C342.062,250.106 339.562,251.939 336.5,253C326.223,255.242 315.89,257.075 305.5,258.5C302.361,259.887 299.028,261.054 295.5,262C270.186,276.441 256.353,298.275 254,327.5C252.037,333.799 248.203,338.632 242.5,342C221.327,356.086 200.327,370.419 179.5,385C187.248,392.752 195.581,399.752 204.5,406C214.829,414.499 226.495,417.165 239.5,414C248.72,411.26 257.72,407.927 266.5,404C276.385,401.587 286.051,402.254 295.5,406C301.764,409.27 307.764,412.936 313.5,417C318.114,420.776 320.781,425.609 321.5,431.5C317.517,450.005 316.517,468.672 318.5,487.5C320.126,499.59 322.293,511.59 325,523.5C332.422,546.009 342.755,567.009 356,586.5C366.667,600.5 377.333,614.5 388,628.5C384.143,666.265 380.643,704.098 377.5,742C377.833,742.5 378.167,743 378.5,743.5C379.496,738.866 380.329,734.2 381,729.5C384.128,691.12 387.628,652.787 391.5,614.5C384.892,605.383 378.058,596.383 371,587.5C367.811,582.942 366.478,577.942 367,572.5C370.545,565.425 376.045,563.592 383.5,567C390.386,575.552 396.886,584.386 403,593.5C408.137,597.632 412.137,602.632 415,608.5C410.24,660.508 405.074,712.508 399.5,764.5C379.799,763.948 363.133,770.615 349.5,784.5C349.461,785.583 349.127,786.583 348.5,787.5C372.824,788.5 397.158,788.833 421.5,788.5L421.5,785.5C428.127,748.917 446.46,719.917 476.5,698.5C477.553,680.841 481.386,663.841 488,647.5C494.735,636.105 502.235,625.272 510.5,615C494.175,597.213 480.675,577.38 470,555.5C468.524,550.924 468.19,546.257 469,541.5C469.465,540.069 470.299,538.903 471.5,538C478.12,535.373 483.953,536.54 489,541.5C495.892,555.62 503.559,569.287 512,582.5C517.146,589.818 523.646,595.485 531.5,599.5C564.954,589.387 595.954,594.22 624.5,614C635.036,624.867 645.202,636.034 655,647.5C655.269,661.132 648.769,665.632 635.5,661C630.301,654.768 625.468,648.268 621,641.5C611.076,630.586 598.909,623.419 584.5,620C559.844,614.288 538.677,620.455 521,638.5C505.202,658.009 498.869,680.342 502,705.5C506.784,727.075 516.784,745.741 532,761.5C533.941,765.048 535.607,768.714 537,772.5C537.222,776.182 536.889,779.848 536,783.5C534.553,787.785 531.719,790.452 527.5,791.5C513.851,792.338 500.184,792.671 486.5,792.5L486.5,795.5C486.166,801.01 483.832,805.51 479.5,809C478.552,809.483 477.552,809.649 476.5,809.5C474.883,810.972 472.883,811.639 470.5,811.5C410.512,810.682 350.512,810.182 290.5,810C283.935,803.299 283.935,796.632 290.5,790C300.061,788.552 309.727,788.052 319.5,788.5C322.622,782.933 325.789,777.266 329,771.5C331.955,766.379 335.789,762.045 340.5,758.5C344.22,754.456 348.553,751.123 353.5,748.5C353.833,746.833 354.167,745.167 354.5,743.5C357.667,711.832 360.833,680.165 364,648.5C364.667,643.833 364.667,639.167 364,634.5C338.128,604.438 318.128,570.771 304,533.5C301.191,522.268 299.024,510.935 297.5,499.5ZM450.5,763.5C447.682,771.624 445.682,779.957 444.5,788.5L465.5,788.5C466.33,781.999 469.33,776.832 474.5,773C486.439,770.342 498.439,769.842 510.5,771.5C500.922,760.03 493.088,747.363 487,733.5C485.527,729.583 484.361,725.583 483.5,721.5C469.425,733.224 458.425,747.224 450.5,763.5ZM299.5,189.5C299.167,205.514 299.501,221.514 300.5,237.5C309,233.459 318,231.459 327.5,231.5C327.578,228.748 327.745,226.082 328,223.5C320.667,215.5 313.333,207.5 306,199.5C303.548,196.239 301.381,192.906 299.5,189.5ZM785.5,783.5C800.924,775.584 813.424,764.251 823,749.5C839.047,725.982 846.713,699.982 846,671.5C842.542,655.459 838.876,639.459 835,623.5C831.735,604.751 831.735,586.084 835,567.5C830.231,575.267 825.898,583.267 822,591.5C819.691,598.734 817.691,606.068 816,613.5C813.7,634.273 809.366,654.606 803,674.5C788.069,710.214 761.569,731.547 723.5,738.5C721.505,753.467 719.839,768.467 718.5,783.5C717.549,784.919 717.216,786.585 717.5,788.5L727.5,788.5C739.345,788.828 751.012,788.495 762.5,787.5C770.462,787.707 778.129,786.374 785.5,783.5ZM276.5,319.5C286.839,319.334 297.172,319.5 307.5,320C314.422,323.695 316.255,329.195 313,336.5C311.337,338.917 309.171,340.75 306.5,342C296.833,342.667 287.167,342.667 277.5,342C271.823,337.559 269.989,331.725 272,324.5C273.059,322.341 274.559,320.674 276.5,319.5Z"/>
    </g>
</svg>
