<?xml version="1.0" encoding="UTF-8" standalone="no"?>
<!DOCTYPE svg PUBLIC "-//W3C//DTD SVG 1.1//EN" "http://www.w3.org/Graphics/SVG/1.1/DTD/svg11.dtd">
<svg width="100%" height="100%" viewBox="0 0 1024 1024" version="1.1" xmlns="http://www.w3.org/2000/svg" xmlns:xlink="http://www.w3.org/1999/xlink" xml:space="preserve" xmlns:serif="http://www.serif.com/" style="fill-rule:evenodd;clip-rule:evenodd;stroke-linejoin:round;stroke-miterlimit:2;">
    <g transform="matrix(1.29297,0,0,1.29297,-164.305,-237.29)">
        <path d="M418.5,807.5L418.5,662.5C331.037,641.87 276.537,587.87 255,500.5C253.667,491.836 252.334,483.169 251,474.5C250.833,412.164 250.333,349.831 249.5,287.5C232.382,272.551 215.715,257.051 199.5,241C193.183,235.841 186.516,231.174 179.5,227C176.639,222.807 175.973,218.307 177.5,213.5C178.912,212.194 180.579,211.36 182.5,211C219.696,210.176 256.863,210.343 294,211.5C345.434,175.051 397.6,174.218 450.5,209C482.036,230.912 499.869,261.078 504,299.5C504.333,325.167 504.667,350.833 505,376.5C557.408,415.563 608.075,456.896 657,500.5C701.497,453.67 746.33,407.17 791.5,361C803.261,351.726 816.594,348.393 831.5,351C841.532,352.062 850.532,355.562 858.5,361.5L860,364.5C860.333,368.833 860.667,373.167 861,377.5C869.631,391.645 871.631,406.645 867,422.5C863.768,434.237 857.935,444.404 849.5,453C803.181,485.494 756.514,517.494 709.5,549C738.89,576.05 768.057,603.55 797,631.5C800.849,638.566 799.683,644.733 793.5,650C787.833,650.333 782.167,650.667 776.5,651C763.775,654.464 751.108,658.131 738.5,662C751.764,668.796 765.431,674.796 779.5,680C784.314,687.893 782.48,693.727 774,697.5C770.879,698.536 767.713,698.703 764.5,698C747.121,691.475 730.121,684.142 713.5,676C710.167,675.333 706.833,675.333 703.5,676C676.418,682.616 651.418,678.116 628.5,662.5C618.255,656.925 608.255,650.925 598.5,644.5C596.085,646.374 593.419,647.707 590.5,648.5C589.504,715.762 589.17,783.096 589.5,850.5C589.666,854.846 589.499,859.179 589,863.5C587.437,866.728 584.937,868.895 581.5,870C576.167,870.333 570.833,870.667 565.5,871C566.656,884.758 566.823,898.592 566,912.5C562.908,933.519 553.408,951.019 537.5,965C534.46,967.22 531.127,968.72 527.5,969.5C518.243,974.656 508.243,976.489 497.5,975C475.911,970.73 460.078,958.897 450,939.5C445.468,930.568 442.134,921.235 440,911.5C439.173,897.994 439.34,884.66 440.5,871.5C434.955,870.795 429.288,869.961 423.5,869C421.714,868.215 420.214,867.049 419,865.5C418.5,846.17 418.333,826.836 418.5,807.5ZM540.5,614.5C531.17,609.168 521.503,604.335 511.5,600C477.158,590.55 444.158,577.55 412.5,561C375.204,536.844 361.038,502.678 370,458.5C377.471,419.41 396.804,387.744 428,363.5C428.688,362.668 428.521,362.002 427.5,361.5C371.127,336.011 329.793,351.178 303.5,407C292.671,410.84 287.504,407.007 288,395.5C302.854,352.49 333.021,329.156 378.5,325.5C400.163,327.22 420.83,332.72 440.5,342C454.752,348.958 468.752,356.125 482.5,363.5C482.667,342.831 482.5,322.164 482,301.5C477.771,266.523 460.604,240.023 430.5,222C378.444,194.738 332.277,202.238 292,244.5C280.938,258.629 274.271,274.629 272,292.5C270.919,349.497 270.586,406.497 271,463.5C278.949,550.632 324.116,608.465 406.5,637C446.342,647.167 486.675,649.834 527.5,645C538.417,643.451 549.084,640.951 559.5,637.5C564.053,635.728 568.719,634.228 573.5,633C562.643,626.55 551.643,620.384 540.5,614.5ZM358.5,234.5C380.508,232.906 394.675,242.573 401,263.5C401.329,293.502 386.496,307.336 356.5,305C344.498,300.331 336.664,291.831 333,279.5C328.672,257.04 337.172,242.04 358.5,234.5ZM363.5,255.5C361.981,256.41 360.315,257.243 358.5,258C350.257,266.422 350.591,274.422 359.5,282C368.348,285.49 374.848,282.99 379,274.5C380.569,262.575 375.402,256.242 363.5,255.5ZM292.5,425.5C298.777,424.554 303.277,426.888 306,432.5C303.947,476.988 315.614,517.321 341,553.5C341.966,567.084 336.133,571.584 323.5,567C298.067,532.028 285.4,492.695 285.5,449C285.667,443.167 285.833,437.333 286,431.5C287.436,428.558 289.603,426.558 292.5,425.5ZM566.5,695.5L566.5,659.5C524.975,671.726 482.975,673.726 440.5,665.5C439.501,675.478 439.168,685.478 439.5,695.5L566.5,695.5ZM445.5,718.5C443.265,718.205 441.265,718.539 439.5,719.5L439.5,789.5L566.5,789.5L566.5,718.5L445.5,718.5ZM521.5,948.5C527.527,944.473 532.527,939.473 536.5,933.5C536.804,932.85 537.137,932.183 537.5,931.5C514.841,930.334 492.174,930.167 469.5,931C479.615,947.725 494.281,954.725 513.5,952C516.31,951.094 518.976,949.927 521.5,948.5ZM460.5,871.5L460.5,907.5C460.811,908.478 461.478,909.145 462.5,909.5C490.122,908.509 517.789,908.175 545.5,908.5C545.832,895.483 545.499,882.483 544.5,869.5C543.893,869.624 543.56,869.957 543.5,870.5L530.5,870.5C506.994,870.169 483.661,870.502 460.5,871.5ZM610.5,626.5L617.5,623C651.85,614.646 684.183,601.646 714.5,584C705.167,575.333 695.833,566.667 686.5,558C673.519,565 660.519,572.334 647.5,580C621.422,591.888 595.089,600.055 568.5,604.5C573.712,606.104 578.712,608.271 583.5,611C592.563,616.194 601.563,621.36 610.5,626.5ZM814.5,372.5C809.403,375.748 804.403,379.248 799.5,383C757.611,426.767 715.945,470.767 674.5,515C680,521.833 686.167,528 693,533.5C738.833,502.333 784.667,471.167 830.5,440C840.518,433.142 846.351,423.642 848,411.5C847.719,400.138 846.885,388.805 845.5,377.5C840.103,376.317 834.77,374.817 829.5,373C824.511,372.501 819.511,372.334 814.5,372.5ZM452.5,373.5C446.636,378.853 440.303,383.687 433.5,388C404.738,414.581 390.071,447.581 389.5,487C388.78,497.954 391.28,508.121 397,517.5C402.857,524.355 409.024,530.855 415.5,537C450.914,557.81 488.914,572.143 529.5,580C561.052,582.577 591.552,578.077 621,566.5C638.259,560.624 653.759,551.791 667.5,540C656.947,529.611 645.947,519.777 634.5,510.5C633.545,514.907 631.212,518.407 627.5,521C603.116,536.268 576.449,544.435 547.5,545.5C496.541,544.013 453.874,524.68 419.5,487.5C415.928,481.957 414.095,475.957 414,469.5C414.374,468.584 414.874,467.75 415.5,467C420.833,463.667 426.167,463.667 431.5,467C436.792,473.96 442.458,480.627 448.5,487C462.42,497.462 477.42,506.129 493.5,513C520.229,523.202 547.563,525.202 575.5,519C592.066,516.05 606.4,508.884 618.5,497.5C603.007,483.51 587.341,469.676 571.5,456C545.604,435.47 519.437,415.304 493,395.5C482.898,403.599 473.398,412.432 464.5,422C449.835,425.673 445.001,420.507 450,406.5C456.277,398.387 463.11,390.72 470.5,383.5C464.763,379.633 458.763,376.3 452.5,373.5ZM730.5,601.5C700.881,618.637 669.548,631.97 636.5,641.5C648.007,650.075 661.007,655.075 675.5,656.5C684.965,655.402 694.298,653.569 703.5,651C723.72,644.06 744.053,637.394 764.5,631C754.167,621.333 743.833,611.667 733.5,602C732.552,601.517 731.552,601.351 730.5,601.5ZM439.5,811.5L439.5,847.5L566.5,847.5L566.5,812.5C524.147,812.806 481.814,812.473 439.5,811.5ZM224.5,234.5C235.709,243.531 246.542,253.197 257,263.5C260.884,253.394 266.051,244.06 272.5,235.5C256.8,234.819 241.133,234.152 225.5,233.5C224.893,233.624 224.56,233.957 224.5,234.5ZM558.5,256.5C562.182,256.335 565.848,256.501 569.5,257C571.81,258.637 573.31,260.804 574,263.5C574.667,301.5 574.667,339.5 574,377.5C572.691,382.917 569.191,385.583 563.5,385.5C558.818,385.241 555.652,382.907 554,378.5C553.333,339.5 553.333,300.5 554,261.5C555.707,259.963 557.207,258.296 558.5,256.5ZM700.5,285.5C710.099,285.589 713.932,290.255 712,299.5C710.92,301.996 709.586,304.33 708,306.5C678.039,341.463 647.706,376.129 617,410.5C614.131,413.704 610.965,416.537 607.5,419C600.036,419.881 595.703,416.548 594.5,409C595.382,404.404 597.215,400.238 600,396.5C632.177,360.655 664.01,324.489 695.5,288C697.315,287.243 698.981,286.41 700.5,285.5Z"/>
    </g>
</svg>
