<?xml version="1.0" encoding="UTF-8" standalone="no"?>
<!DOCTYPE svg PUBLIC "-//W3C//DTD SVG 1.1//EN" "http://www.w3.org/Graphics/SVG/1.1/DTD/svg11.dtd">
<svg width="100%" height="100%" viewBox="0 0 1024 1024" version="1.1" xmlns="http://www.w3.org/2000/svg" xmlns:xlink="http://www.w3.org/1999/xlink" xml:space="preserve" xmlns:serif="http://www.serif.com/" style="fill-rule:evenodd;clip-rule:evenodd;stroke-linejoin:round;stroke-miterlimit:2;">
    <g transform="matrix(1.52848,0,0,1.52848,-290.414,-231.01)">
        <path d="M335.5,518.5C314.806,523.022 301.639,535.689 296,556.5C295.667,573.833 295.333,591.167 295,608.5C290.987,619.281 284.321,621.281 275,614.5C274.138,612.913 273.471,611.246 273,609.5C272.107,590.136 272.441,570.803 274,551.5C278.423,532.819 288.257,517.652 303.5,506C314.19,499.382 325.857,495.882 338.5,495.5C393.824,496.646 449.157,496.813 504.5,496C516.994,495.96 528.661,492.96 539.5,487C546.447,480.61 550.947,472.777 553,463.5C553.94,454.071 556.273,445.071 560,436.5C561.214,434.951 562.714,433.785 564.5,433C568.905,432.304 573.239,432.637 577.5,434C579.378,435.543 580.878,437.376 582,439.5C587.262,459.665 590.095,480.165 590.5,501C591.053,517.345 586.053,531.678 575.5,544C566.474,551.343 556.141,555.677 544.5,557C509.502,557.5 474.502,557.667 439.5,557.5L363.5,557.5C359.189,559.647 356.022,562.98 354,567.5C353.667,586.833 353.333,606.167 353,625.5C351.311,634.208 347.978,642.208 343,649.5C329.284,663.351 313.951,675.017 297,684.5C296.5,717.498 296.333,750.498 296.5,783.5C296.666,793.172 296.5,802.839 296,812.5C295.722,813.416 295.222,814.082 294.5,814.5C288.743,821.129 282.743,821.129 276.5,814.5C275.391,812.615 274.557,810.615 274,808.5C273.333,766.167 273.333,723.833 274,681.5C275.31,674.871 278.477,669.371 283.5,665C292.167,660 300.833,655 309.5,650C314.968,645.533 320.135,640.7 325,635.5C327.837,630.828 329.837,625.828 331,620.5C331.333,600.167 331.667,579.833 332,559.5C334.071,552.266 338.238,546.6 344.5,542.5C349.74,538.359 355.74,535.859 362.5,535C421.499,534.5 480.499,534.333 539.5,534.5C554.836,534.339 564.002,526.672 567,511.5C567.667,504.5 567.667,497.5 567,490.5C559.377,502.115 548.877,509.948 535.5,514C529.6,515.705 523.6,516.872 517.5,517.5C456.852,518.481 396.185,518.814 335.5,518.5ZM575.5,650.5C575.232,647.881 575.565,645.381 576.5,643C589.781,638.032 601.781,631.032 612.5,622C626.676,608.15 638.176,592.317 647,574.5C649.203,570.429 650.536,566.096 651,561.5C651.032,539.436 651.699,517.436 653,495.5C659,490.167 665,490.167 671,495.5C671.862,497.087 672.529,498.754 673,500.5C673.667,523.167 673.667,545.833 673,568.5C659.15,607.202 634.65,637.202 599.5,658.5C598.833,709.665 598.167,760.665 597.5,811.5L597.5,812.5C595.784,817.225 592.451,819.558 587.5,819.5C580.859,819.861 576.859,816.861 575.5,810.5L575.5,650.5ZM540.5,817.5C538.983,817.489 537.816,816.823 537,815.5C536.529,813.754 535.862,812.087 535,810.5C534.168,762.998 534.335,715.665 535.5,668.5C536.764,664.025 539.764,661.692 544.5,661.5C550.382,661.388 554.382,664.054 556.5,669.5C556.832,717.336 556.499,765.003 555.5,812.5C555.16,815.675 553.493,817.841 550.5,819C547.5,819.667 544.5,819.667 541.5,819C540.944,818.617 540.611,818.117 540.5,817.5ZM437.5,684.5C431.996,703.489 422.496,720.156 409,734.5C410.898,758.291 414.065,781.958 418.5,805.5C418.716,813.091 415.383,818.258 408.5,821C400.845,821.688 396.345,818.188 395,810.5C391.646,785.691 388.48,760.858 385.5,736C385.464,733.37 385.964,730.87 387,728.5C395.33,717.848 402.663,706.514 409,694.5C411.404,684.588 413.404,674.588 415,664.5C416.214,662.951 417.714,661.785 419.5,661C447.498,660.5 475.498,660.333 503.5,660.5C503.334,651.494 503.5,642.494 504,633.5C506.755,623.752 512.922,620.586 522.5,624C524.041,625.579 525.208,627.413 526,629.5C526.667,690.5 526.667,751.5 526,812.5C520.871,820.632 514.538,821.632 507,815.5C506,813.167 505,810.833 504,808.5C503.173,766.792 503.339,725.125 504.5,683.5C502.369,682.831 500.369,682.165 498.5,681.5L437.5,681.5L437.5,684.5ZM476.5,151.5C483.128,150.231 487.961,152.564 491,158.5C491.333,175.833 491.667,193.167 492,210.5C493.952,238.754 507.452,259.254 532.5,272C537.887,274.694 542.887,277.194 547.5,279.5C538.954,268.742 532.788,256.742 529,243.5C527.468,227.532 527.134,211.532 528,195.5C531.04,189.397 535.874,187.231 542.5,189C544.939,189.774 546.773,191.274 548,193.5C549.286,208.766 549.953,224.099 550,239.5C552.698,247.229 556.198,254.562 560.5,261.5C562.388,256.722 564.555,252.055 567,247.5C569.242,239.447 571.575,231.447 574,223.5C580.071,218.235 586.071,218.235 592,223.5C594.069,234.515 592.736,245.182 588,255.5C583.442,266.288 577.609,276.288 570.5,285.5C578.817,296.148 587.817,306.148 597.5,315.5C615.565,310.236 633.565,310.569 651.5,316.5C658.543,305.595 666.21,295.095 674.5,285C663.316,270.465 655.483,254.299 651,236.5C648.611,222.55 654.111,217.383 667.5,221L672,225.5C673.66,237.812 677.327,249.478 683,260.5C688.229,251.486 691.896,241.819 694,231.5C694.333,220.167 694.667,208.833 695,197.5C698.635,186.968 705.135,184.801 714.5,191C722.897,221.857 717.897,250.357 699.5,276.5C721.646,270.11 738.146,256.443 749,235.5C751.958,227.088 753.624,218.422 754,209.5C754.333,193.833 754.667,178.167 755,162.5C756.479,152.838 761.979,149.338 771.5,152C774.135,153.961 775.969,156.461 777,159.5C777.983,180.888 777.316,202.222 775,223.5C769.524,255.632 752.024,278.466 722.5,292C710.923,296.624 699.256,300.957 687.5,305C678.672,318.503 668.339,330.837 656.5,342C650.56,341.579 644.894,339.912 639.5,337C630.001,333.5 620.335,332.833 610.5,335C604.603,337.448 598.603,339.615 592.5,341.5C585.855,334.696 578.689,328.362 571,322.5C568.25,316.848 564.417,312.014 559.5,308C551.064,303.782 542.398,300.115 533.5,297C517.743,290.233 503.91,280.733 492,268.5C479.579,254.595 472.579,238.262 471,219.5C470.333,198.5 470.333,177.5 471,156.5C472.73,154.598 474.563,152.931 476.5,151.5ZM485.5,320.5C500.812,320.895 516.146,321.062 531.5,321C554.803,324.058 571.97,335.892 583,356.5C584.352,359.72 585.186,363.053 585.5,366.5C595.91,366.769 605.91,368.936 615.5,373C625.36,378.58 628.526,386.746 625,397.5C620.825,400.715 616.325,401.215 611.5,399C604.138,392.482 595.471,388.982 585.5,388.5C583.347,402.152 575.347,409.985 561.5,412C538.444,415.314 519.278,408.147 504,390.5C494.531,376.314 489.198,360.647 488,343.5C486.529,339.419 484.862,335.419 483,331.5C481.812,327.259 482.645,323.592 485.5,320.5ZM510.5,343.5C512.332,351.154 514.165,358.821 516,366.5C517.413,369.661 519.08,372.661 521,375.5C532.038,388.575 545.538,392.575 561.5,387.5C563.522,381.68 564.022,375.68 563,369.5C557.596,356.024 547.762,347.524 533.5,344C525.795,344.118 518.129,343.951 510.5,343.5ZM749.5,319.5C754.951,318.779 759.785,320.112 764,323.5C764.167,324.333 764.333,325.167 764.5,326C762.696,332.111 760.196,337.945 757,343.5C754.926,361.065 748.926,377.065 739,391.5C728.322,403.923 714.822,410.589 698.5,411.5C698.575,431.127 691.908,447.961 678.5,462C653.218,481.565 629.718,479.732 608,456.5C603.642,450.618 602.642,444.285 605,437.5C611.796,431.13 618.463,431.13 625,437.5C630.234,449.867 639.4,454.367 652.5,451C661.702,447.466 667.869,440.966 671,431.5C675.778,417.265 675.111,403.265 669,389.5C665.009,380.991 660.175,373.157 654.5,366C656.442,358.948 659.609,352.448 664,346.5C683.667,324.989 708,316.655 737,321.5C740.167,321.333 743.333,321.167 746.5,321C747.737,320.768 748.737,320.268 749.5,319.5ZM708.5,343.5C697.247,347.983 687.914,355.149 680.5,365C686.253,373.254 690.919,382.088 694.5,391.5C702.229,388.802 709.562,385.302 716.5,381C719.704,378.131 722.537,374.965 725,371.5C729.44,362.61 732.106,353.276 733,343.5C724.902,344.391 716.735,344.391 708.5,343.5ZM637.5,409.5C643.732,408.939 649.732,409.772 655.5,412C663.14,420.218 663.14,428.551 655.5,437C646.253,442.403 637.753,441.569 630,434.5C625.049,423.775 627.549,415.441 637.5,409.5ZM627.5,509.5C632.825,509.107 636.991,511.107 640,515.5C640.667,531.833 640.667,548.167 640,564.5C635.218,570.77 629.385,571.937 622.5,568C620.683,566.2 619.516,564.034 619,561.5C618.333,547.167 618.333,532.833 619,518.5C620.049,513.682 622.882,510.682 627.5,509.5ZM439.5,575.5C449.421,576.237 452.254,581.237 448,590.5C443.706,594.483 439.373,594.483 435,590.5C431.923,583.986 433.423,578.986 439.5,575.5ZM388.5,577.5C398.912,577.074 409.246,577.574 419.5,579C425.639,585.759 425.972,592.759 420.5,600C419.167,600.333 417.833,600.667 416.5,601C408.147,601.168 399.813,601.668 391.5,602.5C394.536,611.147 391.536,616.481 382.5,618.5C372.905,612.853 369.738,604.519 373,593.5C375.289,585.166 380.456,579.833 388.5,577.5ZM475.5,576.5C492.848,575.352 498.682,583.019 493,599.5C481.976,609.939 472.976,608.272 466,594.5C464.751,585.991 467.918,579.991 475.5,576.5ZM436.5,605.5C450.599,604.099 456.765,610.432 455,624.5C448.316,634.374 440.649,635.04 432,626.5C427.608,618.105 429.108,611.105 436.5,605.5ZM382.5,621.5C388.624,620.7 393.458,622.7 397,627.5C398.948,638.478 398.948,649.478 397,660.5C389.611,681.386 376.777,698.052 358.5,710.5C366.819,741.441 374.986,772.441 383,803.5C384.832,815.036 379.999,820.203 368.5,819C366.714,818.215 365.214,817.049 364,815.5C355.337,785.178 346.837,754.845 338.5,724.5C336.478,727.356 333.978,729.689 331,731.5C330.534,757.508 330.534,783.508 331,809.5C329.253,817.992 324.086,821.159 315.5,819C312.572,817.74 310.739,815.573 310,812.5C309.333,779.833 309.333,747.167 310,714.5C319.012,709.74 327.845,704.574 336.5,699C346.919,691.583 356.419,683.083 365,673.5C374.735,660.498 378.402,645.831 376,629.5C377.305,626.039 379.471,623.372 382.5,621.5Z"/>
    </g>
</svg>
