<?xml version="1.0" encoding="UTF-8" standalone="no"?>
<!DOCTYPE svg PUBLIC "-//W3C//DTD SVG 1.1//EN" "http://www.w3.org/Graphics/SVG/1.1/DTD/svg11.dtd">
<svg width="100%" height="100%" viewBox="0 0 1024 1024" version="1.1" xmlns="http://www.w3.org/2000/svg" xmlns:xlink="http://www.w3.org/1999/xlink" xml:space="preserve" xmlns:serif="http://www.serif.com/" style="fill-rule:evenodd;clip-rule:evenodd;stroke-linejoin:round;stroke-miterlimit:2;">
    <g transform="matrix(1.64281,0,0,1.64281,-283.123,-348.669)">
        <path d="M181.5,335.5C181.333,321.163 181.5,306.829 182,292.5C182.606,289.452 184.106,286.952 186.5,285C211.079,283.685 235.746,283.019 260.5,283C269.411,282.141 277.744,279.474 285.5,275C297.132,261.7 309.132,248.7 321.5,236C356.366,209.5 394.033,205.167 434.5,223C487.883,249.907 512.05,293.407 507,353.5C505.108,360.849 505.108,368.183 507,375.5C509.864,381.561 511.864,387.894 513,394.5C513.5,406.162 513.667,417.829 513.5,429.5C514.933,459.099 530.266,476.265 559.5,481C586.167,481.333 612.833,481.667 639.5,482C662.337,483.768 682.67,491.601 700.5,505.5C708.768,511.1 716.102,517.767 722.5,525.5C733.756,511.989 741.59,496.655 746,479.5C747.3,468.862 748.3,458.196 749,447.5C749.73,443.104 752.23,440.27 756.5,439C763.045,438.042 769.045,439.375 774.5,443C777.888,447.386 779.221,452.386 778.5,458C777.988,466.234 776.988,474.401 775.5,482.5C769.598,506.305 758.431,527.305 742,545.5C742.548,549.696 743.715,553.696 745.5,557.5C748.035,566.673 749.868,576.007 751,585.5C751.5,659.833 751.667,734.166 751.5,808.5C760.839,808.334 770.173,808.5 779.5,809C784.671,811.343 787.005,815.343 786.5,821C786.446,830.222 781.779,835.055 772.5,835.5C684.499,835.667 596.499,835.5 508.5,835C500.051,829.655 497.551,822.155 501,812.5C502.371,810.959 503.871,809.625 505.5,808.5L506.5,808.5C519.85,808.833 533.183,808.499 546.5,807.5C546.376,806.893 546.043,806.56 545.5,806.5C534.315,777.471 523.149,748.471 512,719.5C509.715,713.362 508.548,707.028 508.5,700.5C509.419,697.673 511.086,695.34 513.5,693.5C524.89,690.445 532.723,694.445 537,705.5C538.741,710.054 540.074,714.721 541,719.5C547.829,706.89 557.662,703.724 570.5,710C571.71,711.039 572.71,712.206 573.5,713.5C580.16,725.005 578.16,734.838 567.5,743C561.994,743.374 556.661,743.541 551.5,743.5C557.723,759.613 564.223,775.613 571,791.5C573.017,796.713 574.517,802.046 575.5,807.5L603.5,807.5C605.899,764.858 607.899,722.191 609.5,679.5C609.755,676.984 610.589,674.65 612,672.5C619.091,668.176 625.757,668.843 632,674.5C650.121,718.697 666.954,763.364 682.5,808.5C696.464,807.552 710.464,807.219 724.5,807.5C724.667,758.832 724.5,710.166 724,661.5C712.475,669.34 702.808,667.34 695,655.5C691.055,645.384 693.555,637.55 702.5,632C710.29,630.292 717.29,631.792 723.5,636.5C723.833,629.5 724.167,622.5 724.5,615.5C725.405,600.141 723.571,585.141 719,570.5C702.675,533.244 674.175,513.078 633.5,510C605.5,509.667 577.5,509.333 549.5,509C535.957,506.061 523.957,500.227 513.5,491.5C501.306,481.13 493.14,468.13 489,452.5C486.58,443.645 484.913,434.645 484,425.5C467.035,445.103 445.702,457.103 420,461.5C405.55,460.612 394.217,454.278 386,442.5C383.934,439.039 382.434,435.373 381.5,431.5C378.489,426.688 376.656,421.354 376,415.5C375.333,375.167 375.333,334.833 376,294.5C379.493,286.173 385.66,283.34 394.5,286C400.875,288.215 403.875,292.715 403.5,299.5C403.333,338.168 403.5,376.835 404,415.5C404.782,423.263 408.616,428.763 415.5,432C429.066,432.811 440.733,428.478 450.5,419C471.334,397.899 481.001,372.399 479.5,342.5C480.182,328.279 477.849,314.613 472.5,301.5C462.725,277.726 446.391,260.06 423.5,248.5C391.11,234.084 361.777,238.584 335.5,262C326.478,271.888 317.811,282.054 309.5,292.5C299.308,301.853 287.308,307.687 273.5,310C262.2,311.221 250.866,311.721 239.5,311.5L212.5,311.5C212.768,313.099 212.434,314.432 211.5,315.5C206.019,345.918 215.686,370.085 240.5,388C244.048,389.941 247.714,391.607 251.5,393C265.121,394.385 278.788,394.885 292.5,394.5C296.064,395.423 299.731,395.756 303.5,395.5C320.8,398.814 335.467,406.814 347.5,419.5C349.167,421.5 350.833,423.5 352.5,425.5C357.873,431.574 361.707,438.574 364,446.5C365.272,460.804 366.272,475.138 367,489.5C368.731,487.383 370.898,485.883 373.5,485C381.293,483.489 388.127,485.322 394,490.5C400.916,501.763 398.749,510.929 387.5,518C377.311,521.98 369.811,519.147 365,509.5C363.551,551.669 363.217,594.002 364,636.5C367.606,632.47 372.106,630.97 377.5,632C382.245,633.566 384.912,636.733 385.5,641.5L385.5,808.5L447.5,808.5L447.5,682.5C446.84,677.653 448.507,673.819 452.5,671C462.061,666.407 468.894,668.907 473,678.5C473.667,725.833 473.667,773.167 473,820.5C471.774,827.394 467.94,832.227 461.5,835C451.506,835.5 441.506,835.666 431.5,835.5L343.5,835.5C334.458,834.116 330.125,828.782 330.5,819.5C329.655,813.684 331.988,809.851 337.5,808C344.826,807.5 352.159,807.334 359.5,807.5C358.685,769.196 358.185,730.862 358,692.5C344.071,677.633 336.404,659.967 335,639.5C334.333,608.167 334.333,576.833 335,545.5C335.667,543.5 337,542.167 339,541.5C339.494,539.866 339.66,538.199 339.5,536.5C339.667,510.831 339.5,485.165 339,459.5C336.988,451.141 333.155,443.807 327.5,437.5C321.47,431.485 314.47,426.985 306.5,424C287.53,422.776 268.53,422.109 249.5,422C231.934,417.783 217.434,408.617 206,394.5C192.09,377.282 183.923,357.616 181.5,335.5ZM631.5,747.5C630.834,767.493 630.5,787.493 630.5,807.5C638.174,807.666 645.841,807.5 653.5,807C645.084,787.586 637.75,767.753 631.5,747.5ZM618.5,624.5C607.33,615.147 602.497,603.147 604,588.5C608.792,569.675 620.959,560.342 640.5,560.5C645.92,560.061 650.92,561.061 655.5,563.5C671.483,571.128 678.316,583.794 676,601.5C672.38,618.787 661.88,628.954 644.5,632C634.547,633.516 625.88,631.016 618.5,624.5ZM638.5,588.5C635.622,590.22 633.622,592.72 632.5,596C634.714,602.697 638.881,604.53 645,601.5C649.247,593.994 647.08,589.661 638.5,588.5ZM495.5,676.5C487.528,676.367 482.695,672.367 481,664.5C479.712,656.572 482.879,651.406 490.5,649C519.833,648.333 549.167,648.333 578.5,649C586.512,649.516 591.179,653.683 592.5,661.5C592.909,667.012 590.909,671.345 586.5,674.5C584.436,674.687 582.436,675.187 580.5,676C559.503,676.5 538.503,676.667 517.5,676.5L495.5,676.5ZM301.5,393.5L292.5,393.5C287.88,392.308 285.047,389.308 284,384.5C280.888,370.011 286.554,362.011 301,360.5C308.445,360.551 313.779,363.885 317,370.5C320.301,383.903 315.134,391.57 301.5,393.5ZM337.5,307.5C356.647,307.471 363.147,316.471 357,334.5C350.792,342.345 342.959,344.511 333.5,341C325.881,335.834 323.381,328.667 326,319.5C328.691,314.311 332.524,310.311 337.5,307.5ZM453.5,525.5C479.442,524.876 496.275,536.876 504,561.5C507.425,589.056 495.925,606.89 469.5,615C441.519,617.409 424.019,604.909 417,577.5C415.08,549.966 427.247,532.633 453.5,525.5ZM456.5,553.5C451.854,555.583 448.354,558.916 446,563.5C443.476,576.141 448.31,584.141 460.5,587.5C472.775,585.727 477.942,578.727 476,566.5C472.911,557.04 466.411,552.706 456.5,553.5ZM423.5,680.5C442.888,682.127 448.388,691.794 440,709.5C430.521,718.713 421.187,718.713 412,709.5C405.934,695.659 409.768,685.992 423.5,680.5Z"/>
    </g>
</svg>
