<?xml version="1.0" encoding="UTF-8" standalone="no"?>
<!DOCTYPE svg PUBLIC "-//W3C//DTD SVG 1.1//EN" "http://www.w3.org/Graphics/SVG/1.1/DTD/svg11.dtd">
<svg width="100%" height="100%" viewBox="0 0 1024 1024" version="1.1" xmlns="http://www.w3.org/2000/svg" xmlns:xlink="http://www.w3.org/1999/xlink" xml:space="preserve" xmlns:serif="http://www.serif.com/" style="fill-rule:evenodd;clip-rule:evenodd;stroke-linejoin:round;stroke-miterlimit:2;">
    <g transform="matrix(1.36572,0,0,1.36572,-197.339,-155.845)">
        <path d="M527.5,307.5C525.095,308.768 522.428,309.435 519.5,309.5C510.773,311.965 502.106,314.631 493.5,317.5C491.035,317.767 488.701,318.434 486.5,319.5C469.209,324.708 452.209,330.708 435.5,337.5C434.167,338.5 432.833,339.5 431.5,340.5C429.5,341.167 427.5,341.833 425.5,342.5C411.205,350.315 397.205,358.648 383.5,367.5C366.257,380.408 350.257,394.742 335.5,410.5C334.527,412.149 333.527,413.816 332.5,415.5C326.463,421.535 320.796,427.869 315.5,434.5C305.604,448.606 296.438,463.273 288,478.5C284.54,485.749 281.373,493.082 278.5,500.5C277.167,503.167 275.833,505.833 274.5,508.5C274.737,509.791 274.404,510.791 273.5,511.5C272.545,513.746 271.878,516.079 271.5,518.5C269.811,522.903 268.645,527.569 268,532.5C266.485,538.516 262.652,541.849 256.5,542.5C254.444,541.952 252.777,540.786 251.5,539C248.183,538.502 244.85,538.335 241.5,538.5C224.766,540.631 209.432,546.297 195.5,555.5C194.473,557.194 193.139,558.527 191.5,559.5C180.792,570.379 171.792,582.545 164.5,596C168.163,595.837 171.829,595.337 175.5,594.5L177.5,594.5C191.782,591.734 206.115,592.234 220.5,596C225.581,597.05 230.248,598.884 234.5,601.5C237.873,602.066 240.873,603.399 243.5,605.5C251.188,609.855 257.188,615.855 261.5,623.5C268.265,628.676 270.765,635.342 269,643.5C263.104,646.987 258.604,645.654 255.5,639.5C250.473,633.806 245.14,628.473 239.5,623.5L238.5,623.5C219.974,612.444 199.974,608.944 178.5,613C170.976,614.73 163.643,617.063 156.5,620C154.19,620.497 151.857,620.663 149.5,620.5L147.5,620.5C146.4,619.395 145.733,618.062 145.5,616.5C144.355,612.689 144.188,608.689 145,604.5C149.329,585.837 157.829,569.504 170.5,555.5C180.865,543.801 193.199,534.801 207.5,528.5C207.842,527.662 208.508,527.328 209.5,527.5C217.323,523.791 225.656,521.458 234.5,520.5C240.194,519.265 245.861,519.265 251.5,520.5C253.417,513.126 256.083,506.126 259.5,499.5L259.5,497.5C263.56,486.621 268.56,476.288 274.5,466.5C274.557,465.391 274.89,464.391 275.5,463.5C296.404,426.414 323.071,393.914 355.5,366C362.491,359.51 370.157,354.01 378.5,349.5C378.5,348.833 378.833,348.5 379.5,348.5C390.504,341.329 401.838,334.662 413.5,328.5C414.167,328.167 414.833,327.833 415.5,327.5C424.608,322.946 433.941,318.946 443.5,315.5C449.197,311.82 455.53,309.82 462.5,309.5C465.279,290.212 461.945,272.212 452.5,255.5C450.322,253.142 448.655,250.475 447.5,247.5C441.342,240.842 435.009,234.342 428.5,228C421.313,227.976 416.98,224.476 415.5,217.5C417.58,210.629 421.914,208.296 428.5,210.5C451.193,209.921 473.527,212.421 495.5,218C500.255,219.185 504.588,221.018 508.5,223.5C522.78,229.139 535.78,236.805 547.5,246.5C560.521,255.854 571.521,267.188 580.5,280.5C593.327,281.167 605.994,281.833 618.5,282.5C641.9,283.933 664.9,287.767 687.5,294C695.925,296.39 703.925,299.557 711.5,303.5C712.959,303.433 714.292,303.766 715.5,304.5C717.153,304.66 718.486,305.326 719.5,306.5C725.117,308.642 730.45,311.308 735.5,314.5C738.203,316.181 740.869,317.847 743.5,319.5C752.6,324.391 760.6,330.724 767.5,338.5C785.399,354.268 798.899,373.268 808,395.5C812.597,409.006 817.43,422.34 822.5,435.5L822.5,436.5C831.59,443.417 840.257,450.917 848.5,459C853.566,462.522 858.566,466.022 863.5,469.5C876.422,475.589 886.255,484.922 893,497.5C897.132,513.595 891.298,523.595 875.5,527.5L873.5,527.5C871.19,528.164 868.69,528.497 866,528.5C854.48,527.65 842.98,526.65 831.5,525.5L831.5,524.5C783.497,518.936 735.83,511.603 688.5,502.5L686.5,502.5C686.371,504.216 686.038,505.883 685.5,507.5C675.437,528.731 659.77,544.564 638.5,555C633.474,557.181 628.474,559.348 623.5,561.5C618.304,563.565 612.97,565.232 607.5,566.5C602.429,568.435 597.095,569.768 591.5,570.5C579.597,573.063 567.43,574.73 555,575.5C549.529,576.601 545.862,574.601 544,569.5C544.488,549.055 547.821,529.055 554,509.5C555.73,507.598 557.563,505.931 559.5,504.5C568.228,504.056 571.728,508.056 570,516.5C568.519,521.774 567.352,527.107 566.5,532.5C566.5,533.167 566.167,533.5 565.5,533.5C564.687,540.861 563.687,548.194 562.5,555.5C568.762,555.895 574.762,555.228 580.5,553.5C587.552,552.423 594.552,551.09 601.5,549.5C614.357,544.765 627.024,539.432 639.5,533.5C649.349,527.492 657.849,519.826 665,510.5C667.308,505.553 669.141,500.553 670.5,495.5C671.253,482.676 666.42,472.676 656,465.5C653.452,460.034 654.286,455.2 658.5,451C665.471,449.985 670.805,452.485 674.5,458.5C682.149,465.293 686.816,473.793 688.5,484C709.658,487.715 730.658,491.549 751.5,495.5C754.385,495.194 757.052,495.527 759.5,496.5C779.125,499.329 798.792,501.496 818.5,503C815.761,501.974 813.428,500.474 811.5,498.5C792.262,488.202 772.262,479.869 751.5,473.5C742.819,471.441 734.153,469.274 725.5,467C723.121,466.284 721.121,465.117 719.5,463.5C717.983,463.489 716.816,462.823 716,461.5C715.333,458.167 715.333,454.833 716,451.5C717.804,448.183 720.637,446.85 724.5,447.5C746.502,452.392 767.836,459.059 788.5,467.5C796.494,469.778 804.161,472.945 811.5,477C826.11,486.61 840.443,496.61 854.5,507C859.964,509.283 865.631,510.783 871.5,511.5C874.502,509.98 876.169,507.48 876.5,504C875.633,501.104 874.633,498.271 873.5,495.5C871.704,494.207 870.037,492.707 868.5,491C862.768,488.817 857.102,486.484 851.5,484C849.382,482.951 847.716,481.451 846.5,479.5C845.508,479.672 844.842,479.338 844.5,478.5C838.913,475.21 833.913,471.21 829.5,466.5C828.833,466.5 828.5,466.167 828.5,465.5C818.79,458.309 809.457,450.642 800.5,442.5L799.5,442.5C791.142,436.329 782.142,431.163 772.5,427C767.847,423.212 766.347,418.378 768,412.5C770.945,408.242 774.779,407.409 779.5,410C783.181,410.872 786.181,412.706 788.5,415.5C789.492,415.328 790.158,415.662 790.5,416.5C792.517,417.529 794.517,418.529 796.5,419.5L796.5,418.5C791.331,404.684 784.998,391.351 777.5,378.5C777.167,377.833 776.833,377.167 776.5,376.5C768.908,366.571 760.575,357.238 751.5,348.5C745.197,343.676 738.863,338.842 732.5,334C725.406,330.124 718.406,326.291 711.5,322.5C708.515,321.674 705.849,320.341 703.5,318.5C700.211,317.626 696.877,316.959 693.5,316.5C683.723,311.915 673.389,308.915 662.5,307.5C654.325,305.427 645.992,304.093 637.5,303.5C636.432,302.566 635.099,302.232 633.5,302.5C613.232,300.614 592.899,300.114 572.5,301C566.954,301.369 561.62,302.203 556.5,303.5L551.5,303.5C543.682,305.149 535.682,306.483 527.5,307.5ZM473.5,255.5C480.584,269.946 483.584,285.28 482.5,301.5C483.736,300.754 485.07,300.421 486.5,300.5C510.148,292.573 534.481,287.407 559.5,285C558.117,283.729 557.117,282.229 556.5,280.5C540.542,262.68 521.542,249.013 499.5,239.5C491.324,236.722 482.991,234.222 474.5,232C467.859,230.881 461.192,230.547 454.5,231C462.656,237.841 468.989,246.008 473.5,255.5ZM707.5,399.5C719.226,405.449 720.559,413.282 711.5,423C702.964,426.106 695.464,424.606 689,418.5C685.411,404.892 690.35,398.542 703.819,399.449C704.045,399.457 704.272,399.474 704.5,399.5L707.5,399.5ZM614.5,447.5C615.167,447.833 615.833,448.167 616.5,448.5C620.381,453.362 620.381,458.195 616.5,463C605.682,466.026 594.682,468.192 583.5,469.5C567.475,472.705 551.475,476.038 535.5,479.5L527.5,479.5C498.79,485.676 470.123,492.51 441.5,500C429.027,504.212 416.694,508.712 404.5,513.5C404.158,514.338 403.492,514.672 402.5,514.5C381.401,524.213 361.734,536.213 343.5,550.5C338.466,554.533 334.133,559.2 330.5,564.5L329.5,564.5C325.707,568.453 321.707,572.119 317.5,575.5L317.5,591.5C317.328,615.695 309.661,637.028 294.5,655.5C290.321,661.749 285.654,662.082 280.5,656.5C278.394,650.568 279.228,644.901 283,639.5C295.068,623.412 300.568,605.245 299.5,585C299.617,576.42 298.95,567.92 297.5,559.5C294.103,553.035 290.936,546.369 288,539.5C287.46,532.671 290.627,529.837 297.5,531C299.587,531.792 301.421,532.959 303,534.5C307.605,540.709 311.439,547.376 314.5,554.5C315.522,552.145 317.188,550.478 319.5,549.5C321.239,546.757 323.573,544.757 326.5,543.5C349.214,521.339 375.548,504.506 405.5,493C419.302,487.788 433.302,483.288 447.5,479.5L448.5,479.5C480.358,470.789 512.691,463.789 545.5,458.5C555.209,455.656 565.209,453.656 575.5,452.5L577.5,452.5C586.656,450.447 595.989,448.614 605.5,447C608.696,446.195 611.696,446.362 614.5,447.5ZM265.5,692.5C247.774,696.872 229.774,698.539 211.5,697.5C206.134,692.628 205.301,686.961 209,680.5C211.587,678.986 214.42,678.32 217.5,678.5C219.696,678.505 221.696,678.838 223.5,679.5C239.621,678.314 255.621,676.147 271.5,673C285.848,672.32 300.181,672.486 314.5,673.5C315.492,673.328 316.158,673.662 316.5,674.5C335.496,677.918 354.163,682.251 372.5,687.5C380.174,687.666 387.841,687.5 395.5,687C404.91,685.48 414.244,683.647 423.5,681.5C429.445,678.762 435.778,677.096 442.5,676.5C449.855,673.96 457.522,672.294 465.5,671.5C470.966,670.276 476.633,669.443 482.5,669C497.532,668.215 512.532,668.382 527.5,669.5C533.067,669.899 538.401,670.899 543.5,672.5C556.943,675.861 570.276,679.194 583.5,682.5C605.273,684.266 626.607,681.933 647.5,675.5C656.804,673.179 666.137,670.846 675.5,668.5C679.043,669.213 682.377,670.213 685.5,671.5C693.217,673.043 700.883,674.71 708.5,676.5C713.803,677.439 719.137,678.273 724.5,679C726.32,679.2 727.653,680.034 728.5,681.5C730.274,682.37 731.607,683.703 732.5,685.5C733.393,696.775 728.393,700.941 717.5,698C702.796,694.115 687.963,690.948 673,688.5C667.13,688.743 661.63,690.077 656.5,692.5C653.659,692.56 650.993,693.226 648.5,694.5C645.402,694.756 642.402,695.422 639.5,696.5C630.721,699.241 621.721,700.574 612.5,700.5C601.304,701.804 589.971,701.637 578.5,700C561.265,696.274 544.265,692.107 527.5,687.5L519.5,687.5C507.51,684.999 495.51,684.999 483.5,687.5L476.5,687.5C467.696,689.628 458.696,691.461 449.5,693C443.185,694.239 437.185,696.072 431.5,698.5C423.495,700.169 415.495,701.835 407.5,703.5C391.648,706.088 375.648,706.088 359.5,703.5C344.742,699.227 329.742,695.393 314.5,692C298.122,689.836 281.789,690.002 265.5,692.5ZM243.5,756.5C235.444,759.774 227.11,762.608 218.5,765C215.739,765.722 213.073,765.555 210.5,764.5C208.028,762.096 207.028,759.096 207.5,755.5C207.005,752.052 208.005,749.219 210.5,747C230.379,741.718 250.045,735.885 269.5,729.5C284.1,723.32 299.433,720.987 315.5,722.5C333.427,721.491 350.761,723.824 367.5,729.5C374.817,731.822 382.151,734.155 389.5,736.5C406.377,744.072 424.044,748.238 442.5,749C449.487,747.669 456.487,746.502 463.5,745.5C483.353,738.269 503.353,731.102 523.5,724C526.827,723.39 530.161,722.89 533.5,722.5C571.501,722.333 609.501,722.5 647.5,723C655.91,724.088 663.91,726.254 671.5,729.5C673.153,729.66 674.486,730.326 675.5,731.5C692.172,736.223 708.838,741.056 725.5,746C727.996,747.331 729.996,749.164 731.5,751.5L731.5,753.5C732.742,756.74 732.576,760.074 731,763.5C729.53,765.152 727.697,766.152 725.5,766.5C712.73,762.133 700.063,757.8 687.5,753.5C684.211,752.626 680.877,751.959 677.5,751.5C673.818,751.665 670.152,751.499 666.5,751C665.167,750.333 665.167,749.667 666.5,749C663.475,748.867 660.808,747.867 658.5,746C652.417,744.991 646.417,743.657 640.5,742C605.5,741.333 570.5,741.333 535.5,742C525.118,746.019 514.451,749.185 503.5,751.5C484.995,757.447 466.329,762.78 447.5,767.5C438.41,768.962 429.41,768.462 420.5,766C406.375,761.804 392.375,757.304 378.5,752.5C377.833,752.5 377.5,752.167 377.5,751.5C374.167,750.833 370.833,750.167 367.5,749.5C362.1,747.7 356.767,745.7 351.5,743.5C347.575,743.57 343.909,742.903 340.5,741.5C333.496,741.227 326.496,740.894 319.5,740.5C309.443,740.135 299.443,740.635 289.5,742C274.312,747.341 258.979,752.174 243.5,756.5Z"/>
    </g>
</svg>
