<?xml version="1.0" encoding="UTF-8" standalone="no"?>
<!DOCTYPE svg PUBLIC "-//W3C//DTD SVG 1.1//EN" "http://www.w3.org/Graphics/SVG/1.1/DTD/svg11.dtd">
<svg width="100%" height="100%" viewBox="0 0 1024 1024" version="1.1" xmlns="http://www.w3.org/2000/svg" xmlns:xlink="http://www.w3.org/1999/xlink" xml:space="preserve" xmlns:serif="http://www.serif.com/" style="fill-rule:evenodd;clip-rule:evenodd;stroke-linejoin:round;stroke-miterlimit:2;">
    <g transform="matrix(1.62785,0,0,1.62785,-323.046,-327.17)">
        <path d="M503.5,684.5C478.731,677.704 457.231,665.37 439,647.5C435.575,643.91 432.742,639.91 430.5,635.5C413.388,628.782 398.054,619.282 384.5,607C369.542,592.881 355.542,578.048 342.5,562.5C333.106,549.398 323.94,536.065 315,522.5C314.098,511.709 316.931,502.043 323.5,493.5C328.312,483.209 333.645,473.209 339.5,463.5C359.039,433.796 384.705,410.962 416.5,395C421.14,393.363 425.806,392.863 430.5,393.5C433.447,366.102 445.447,343.602 466.5,326C500.349,297.61 539.349,286.276 583.5,292C646.335,298.507 699.001,324.673 741.5,370.5C742.478,370.811 743.145,371.478 743.5,372.5C758.152,373.499 772.818,373.833 787.5,373.5L787.5,254.5C758.329,254.831 729.329,254.498 700.5,253.5C695.352,251.532 693.018,247.698 693.5,242C693.4,238.196 695.066,235.529 698.5,234C733.5,233.333 768.5,233.333 803.5,234C805.093,234.949 806.426,236.115 807.5,237.5L807.5,375.5L818.5,375.5C824.544,377.211 827.544,381.211 827.5,387.5C801.423,424.649 776.09,462.316 751.5,500.5C749.511,503.806 747.511,507.139 745.5,510.5C746.63,511.622 747.297,512.956 747.5,514.5C774.137,551.987 800.637,589.653 827,627.5C827.959,631.421 826.792,634.588 823.5,637C818.064,638.011 812.73,638.844 807.5,639.5C807.667,690.834 807.5,742.168 807,793.5C805.786,795.049 804.286,796.215 802.5,797C770.125,797.819 737.791,797.652 705.5,796.5C701.727,794.287 700.06,790.954 700.5,786.5C699.947,782.103 701.614,778.937 705.5,777C732.831,776.5 760.165,776.333 787.5,776.5L787.5,770.5C788.161,726.487 787.495,682.821 785.5,639.5C770.5,638.357 755.5,638.357 740.5,639.5C728.606,654.217 713.939,665.384 696.5,673C674.39,682.187 651.39,687.853 627.5,690C597.855,692.687 568.188,693.02 538.5,691C526.592,689.905 514.926,687.738 503.5,684.5ZM335.5,518.5C344.979,531.433 354.479,544.433 364,557.5C386.546,586.043 414.379,607.876 447.5,623C451.61,633.776 458.61,642.109 468.5,648C482.678,656.554 497.678,663.054 513.5,667.5C523.459,669.162 533.459,670.662 543.5,672C582.82,674.444 621.82,672.111 660.5,665C678.978,661.426 695.311,653.593 709.5,641.5C706.135,640.099 702.801,638.599 699.5,637C675.745,620.795 652.745,603.628 630.5,585.5C593.882,604.404 554.882,614.071 513.5,614.5C503.405,614.238 498.072,609.072 497.5,599C500.184,584.882 502.684,570.716 505,556.5C512.365,512.757 508.365,470.091 493,428.5C490.511,417.603 494.011,409.437 503.5,404C537.936,402.443 571.269,407.777 603.5,420C617.659,426.58 631.659,433.413 645.5,440.5C654.332,435.919 662.665,430.586 670.5,424.5C683.272,412.229 695.938,399.729 708.5,387C712.279,383.447 716.612,380.947 721.5,379.5C721.649,378.448 721.483,377.448 721,376.5C670.695,328.191 610.528,306.691 540.5,312C512.196,316.233 488.362,328.733 469,349.5C460.97,359.225 455.304,370.225 452,382.5C451.094,389.213 450.094,395.88 449,402.5C447.269,404.617 445.102,406.117 442.5,407C417.681,413.736 396.681,426.569 379.5,445.5C365.948,458.891 354.448,473.891 345,490.5C341.273,497.284 338.106,504.284 335.5,511.5C333.043,513.684 333.043,516.018 335.5,518.5ZM799.5,393.5C780.164,393.333 760.83,393.5 741.5,394C730.72,407.726 720.554,421.892 711,436.5C708.994,439.536 708.16,442.869 708.5,446.5C704.835,461.315 703.335,476.315 704,491.5C702.5,494.333 700.333,496.5 697.5,498C690.072,499.957 685.405,497.291 683.5,490C684.729,477.175 685.895,464.342 687,451.5C688.107,443.726 690.44,436.392 694,429.5C695.039,428.29 696.206,427.29 697.5,426.5C697.631,425.761 697.464,425.094 697,424.5C693.298,428.37 689.464,432.037 685.5,435.5C674.746,445.216 662.413,452.383 648.5,457C656.167,466.002 661.167,476.335 663.5,488C663.385,490.732 662.552,493.232 661,495.5C654.842,499.89 649.175,499.223 644,493.5C640.671,473.685 630.838,457.852 614.5,446C581.63,430.297 547.296,422.963 511.5,424C515.601,434.637 519.101,445.47 522,456.5C530.444,502.183 528.944,547.516 517.5,592.5C526.147,593.665 534.814,593.832 543.5,593C551.5,591.667 559.5,590.333 567.5,589C585.719,585.264 602.719,578.597 618.5,569C628.579,558.926 637.912,548.259 646.5,537C650.039,535.496 653.705,535.163 657.5,536C662.121,538.077 663.955,541.577 663,546.5C658.453,555.045 652.453,562.378 645,568.5C644.251,569.635 644.417,570.635 645.5,571.5C657.979,581.478 670.312,591.645 682.5,602C693.403,609.23 704.569,616.063 716,622.5C716.667,621.833 716.667,621.167 716,620.5C706.103,609.042 697.436,596.709 690,583.5C687.628,570.409 685.795,557.242 684.5,544C684.726,540.988 685.559,538.155 687,535.5C695.729,531.084 701.729,533.417 705,542.5C706.059,552.805 706.726,563.139 707,573.5C707.471,575.246 708.138,576.913 709,578.5C718.398,592.566 728.564,606.066 739.5,619C759.167,619.667 778.833,619.667 798.5,619C778.947,591.383 759.28,563.883 739.5,536.5C735.108,530.066 730.941,523.399 727,516.5C726.333,512.833 726.333,509.167 727,505.5C729.412,500.341 732.079,495.341 735,490.5C757.017,458.453 778.517,426.12 799.5,393.5ZM415.5,458.5C441.849,455.248 460.349,465.582 471,489.5C477.7,522.939 464.534,543.772 431.5,552C407.332,552.83 390.832,541.997 382,519.5C375.994,489.498 387.161,469.165 415.5,458.5ZM421.5,476.5C399.656,485.192 393.822,500.192 404,521.5C415.167,533.889 428,536.056 442.5,528C451.368,519.732 454.868,509.565 453,497.5C447.471,483.151 436.971,476.151 421.5,476.5ZM420.5,489.5C424.514,489.334 428.514,489.501 432.5,490C441.854,498.182 442.854,507.182 435.5,517C426.301,521.707 418.801,519.873 413,511.5C409.555,502.072 412.055,494.738 420.5,489.5ZM302.5,422.5C303.665,483.332 303.832,544.332 303,605.5C301.668,607.66 300.168,609.66 298.5,611.5C295.5,612.833 292.5,612.833 289.5,611.5C286.63,610.567 284.296,608.9 282.5,606.5C282.333,544.832 282.5,483.166 283,421.5C286.781,417.01 291.614,415.343 297.5,416.5C299.473,417.806 301.139,419.473 302.5,421.5L302.5,422.5ZM439.5,797.5C412.831,797.667 386.165,797.5 359.5,797C354.464,795.604 352.131,792.271 352.5,787C352.198,782.268 354.198,778.935 358.5,777C390.167,776.333 421.833,776.333 453.5,777C456.893,777.394 459.06,779.227 460,782.5C460.805,785.696 460.638,788.696 459.5,791.5C459.141,793.371 458.141,794.871 456.5,796C450.912,797.289 445.245,797.789 439.5,797.5ZM201.5,233.5C232.835,233.333 264.168,233.5 295.5,234C301.393,237.821 302.893,242.988 300,249.5C298.786,251.049 297.286,252.215 295.5,253C270.502,253.5 245.502,253.667 220.5,253.5C220.667,275.503 220.5,297.503 220,319.5C214.093,327.868 207.426,328.535 200,321.5C198.35,293.253 198.017,264.92 199,236.5C199.698,235.309 200.531,234.309 201.5,233.5ZM356.5,233.5C388.502,233.333 420.502,233.5 452.5,234C458.542,237.748 460.042,242.915 457,249.5C455.269,251.617 453.102,253.117 450.5,254C419.833,254.667 389.167,254.667 358.5,254C351.347,247.791 350.68,240.958 356.5,233.5ZM561.5,233.5C586.169,233.333 610.836,233.5 635.5,234C640.492,237.157 642.325,241.657 641,247.5C639.833,250 638,251.833 635.5,253C611.167,253.667 586.833,253.667 562.5,253C556.241,246.83 555.908,240.33 561.5,233.5ZM227.5,478.5C238.878,487.945 250.378,497.278 262,506.5C263.122,508.407 263.955,510.407 264.5,512.5C264.797,516.911 263.631,520.911 261,524.5C247.667,536.5 234.333,548.5 221,560.5C220.667,580.833 220.333,601.167 220,621.5C217.073,629.546 211.573,632.046 203.5,629C201.622,627.457 200.122,625.624 199,623.5C198.333,601.167 198.333,578.833 199,556.5C212.415,542.374 226.582,529.041 241.5,516.5C226.915,504.755 212.748,492.422 199,479.5C198.333,455.833 198.333,432.167 199,408.5C204.916,400.068 211.583,399.402 219,406.5C220.301,428.436 220.968,450.436 221,472.5C223.037,474.706 225.203,476.706 227.5,478.5ZM205.5,703.5C211.734,702.373 216.568,704.373 220,709.5C220.827,731.739 220.66,753.906 219.5,776C244.167,776.333 268.833,776.667 293.5,777C296.573,777.739 298.74,779.572 300,782.5C302.889,790.906 300.056,795.739 291.5,797C262.833,797.667 234.167,797.667 205.5,797C203.754,796.529 202.087,795.862 200.5,795C199.338,766.239 199.172,737.405 200,708.5C201.73,706.598 203.563,704.931 205.5,703.5ZM564.5,776.5C592.169,776.333 619.835,776.5 647.5,777C653.109,780.277 654.942,785.11 653,791.5C651.602,795.454 648.768,797.288 644.5,797C618.5,797.667 592.5,797.667 566.5,797C563.506,796.594 561.339,795.094 560,792.5C559.333,788.5 559.333,784.5 560,780.5C561.397,778.93 562.897,777.596 564.5,776.5Z"/>
    </g>
</svg>
