<?xml version="1.0" encoding="UTF-8" standalone="no"?>
<!DOCTYPE svg PUBLIC "-//W3C//DTD SVG 1.1//EN" "http://www.w3.org/Graphics/SVG/1.1/DTD/svg11.dtd">
<svg width="100%" height="100%" viewBox="0 0 1024 1024" version="1.1" xmlns="http://www.w3.org/2000/svg" xmlns:xlink="http://www.w3.org/1999/xlink" xml:space="preserve" xmlns:serif="http://www.serif.com/" style="fill-rule:evenodd;clip-rule:evenodd;stroke-linejoin:round;stroke-miterlimit:2;">
    <g transform="matrix(1.25009,0,0,1.25009,-131.172,-142.98)">
        <path d="M189.5,524.5C191.065,515.575 193.565,506.908 197,498.5C200.914,490.337 205.081,482.337 209.5,474.5C202.721,457.631 196.555,440.631 191,423.5C188.829,412.751 186.996,402.084 185.5,391.5C184.767,372.843 184.434,354.176 184.5,335.5C185.592,306.591 189.425,277.925 196,249.5C200.88,233.529 205.547,217.529 210,201.5C215.895,187.711 221.228,173.711 226,159.5C233.25,153.254 240.25,146.587 247,139.5C252.482,132.717 258.315,126.217 264.5,120C271.884,114.574 280.05,113.074 289,115.5C296.604,119.947 303.77,124.947 310.5,130.5C316.489,135.157 322.156,140.157 327.5,145.5C356.039,168.201 383.206,192.534 409,218.5C418.764,229.207 427.931,240.374 436.5,252C443.039,250.911 449.373,248.911 455.5,246C458.817,245.502 462.15,245.335 465.5,245.5C488.698,242.133 512.031,240.799 535.5,241.5C540.844,241.334 546.177,241.501 551.5,242C556.434,242.116 561.1,242.949 565.5,244.5C576.898,247.018 588.231,249.518 599.5,252C612.596,231.563 627.929,212.897 645.5,196C674.084,169.391 703.417,143.724 733.5,119C744.051,112.786 754.384,113.12 764.5,120C774.225,129.389 783.558,139.056 792.5,149C796.792,150.396 800.292,152.896 803,156.5C829.6,222.066 843.433,290.233 844.5,361C844.66,384.221 841.826,407.055 836,429.5C832.595,439.882 829.095,450.215 825.5,460.5C841.546,514.058 844.713,568.391 835,623.5C833.787,628.922 832.287,634.255 830.5,639.5C821.698,666.437 808.198,690.77 790,712.5C777.575,725.429 764.741,737.762 751.5,749.5C724.867,771.799 700.2,796.133 677.5,822.5C663.199,837.637 649.033,852.97 635,868.5C626.325,877.342 617.492,886.008 608.5,894.5C592.288,908.114 574.288,918.948 554.5,927C547.353,929.662 540.02,931.495 532.5,932.5C523.009,933.658 513.342,933.825 503.5,933C477.099,928.049 454.099,916.549 434.5,898.5C421.232,886.734 408.399,874.401 396,861.5C356.06,815.226 313.06,771.893 267,731.5C257.944,721.781 248.944,712.114 240,702.5C233.055,691.889 225.722,681.556 218,671.5C211.257,659.534 205.257,647.201 200,634.5C187.422,598.593 183.922,561.926 189.5,524.5ZM280.5,145.5C264.504,156.677 252.671,171.344 245,189.5C230.342,225.13 220.842,262.13 216.5,300.5C215.111,305.269 214.444,310.269 214.5,315.5C211.834,340.829 211.834,366.163 214.5,391.5C214.656,397.116 215.656,402.449 217.5,407.5C220.474,420.931 223.974,434.265 228,447.5C232.242,456.82 236.075,466.32 239.5,476C239.333,477.167 239.167,478.333 239,479.5C232.839,489.818 227.172,500.485 222,511.5C220.004,516.648 218.837,521.981 218.5,527.5C216.771,533.926 215.771,540.593 215.5,547.5C215.334,556.839 215.5,566.173 216,575.5C216.183,578.365 216.683,581.031 217.5,583.5C218.543,593.552 220.043,603.552 222,613.5C228.418,632.098 236.752,649.764 247,666.5C260.416,685.578 275.583,703.078 292.5,719C332.313,753.146 369.146,790.313 403,830.5C419.566,849.068 437.399,866.234 456.5,882C465.115,888.474 474.448,893.641 484.5,897.5C488.522,899.734 492.856,901.401 497.5,902.5L499.5,902.5C508.71,904.433 518.044,904.933 527.5,904C534.73,902.013 542.063,900.513 549.5,899.5C559.264,894.783 568.597,889.283 577.5,883C581.548,879.284 585.882,875.95 590.5,873C625.741,838.428 659.574,802.594 692,765.5C701.47,757.031 710.637,748.197 719.5,739C742.27,721.231 762.77,701.064 781,678.5C795.009,656.794 804.343,633.127 809,607.5C814.024,565.735 811.69,524.401 802,483.5C799.496,476.139 796.996,468.806 794.5,461.5C798.155,450.713 802.322,440.046 807,429.5C809.618,419.574 811.785,409.574 813.5,399.5C814.972,395.081 815.638,390.414 815.5,385.5C817.437,315.964 806.603,248.631 783,183.5C776.828,169.664 767.994,157.83 756.5,148C753.119,145.755 749.452,145.088 745.5,146C739.221,149.946 733.221,154.279 727.5,159C713.27,172.069 698.937,184.903 684.5,197.5C659.586,219.58 638.086,244.58 620,272.5C614.354,282.125 609.521,292.125 605.5,302.5C602.684,310.808 599.85,319.141 597,327.5C591.927,334.361 585.427,336.194 577.5,333C571.739,327.717 569.572,321.217 571,313.5C575.494,301.843 579.994,290.177 584.5,278.5C582.228,277.515 579.895,276.681 577.5,276C566.105,274.396 554.771,272.563 543.5,270.5C523.164,270.333 502.831,270.5 482.5,271C471.273,272.428 460.273,274.928 449.5,278.5C453.556,289.161 457.723,299.828 462,310.5C464.645,318.244 463.478,325.244 458.5,331.5C449.726,338.013 442.56,336.68 437,327.5C428.678,297.858 415.345,270.858 397,246.5C385.3,233.634 373.134,221.301 360.5,209.5C338.719,190.105 316.719,170.938 294.5,152C290.446,148.473 285.78,146.306 280.5,145.5ZM713.5,394.5C713.328,388.059 713.994,381.726 715.5,375.5C720.115,359.041 723.782,342.374 726.5,325.5C728.211,321.119 728.877,316.453 728.5,311.5C729.889,302.487 729.722,293.487 728,284.5C722.124,282.487 716.958,283.654 712.5,288C705.948,295.549 699.115,302.715 692,309.5C687.875,314.301 684.542,319.635 682,325.5C674.182,336.11 665.515,337.11 656,328.5C651.745,319.682 652.745,311.682 659,304.5C670.121,295.043 679.454,284.043 687,271.5C702.832,253.164 721.665,248.997 743.5,259C751.191,264.543 755.691,272.043 757,281.5C757.889,319.946 751.889,357.28 739,393.5C734.888,403.145 728.055,405.978 718.5,402C716.203,399.901 714.536,397.401 713.5,394.5ZM310.5,343.5C312.006,349.731 312.673,356.064 312.5,362.5C308.347,372.732 301.347,375.232 291.5,370C288.457,367.407 286.29,364.24 285,360.5C280.762,342.74 277.929,324.74 276.5,306.5C276.57,259.066 299.903,241.399 346.5,253.5C357.2,258.237 360.033,265.903 355,276.5C353.062,279.106 350.562,280.939 347.5,282C335.167,282.333 322.833,282.667 310.5,283C308.239,285.772 306.739,288.938 306,292.5C305.333,301.5 305.333,310.5 306,319.5C307.439,327.526 308.939,335.526 310.5,343.5ZM485.5,861.5C472.898,853.398 462.398,843.065 454,830.5C440.805,809.748 433.305,787.081 431.5,762.5C431.845,746.814 437.845,733.814 449.5,723.5C453.337,720.167 457.337,717 461.5,714C468.208,711.826 474.875,709.993 481.5,708.5C503.836,708.333 526.169,708.5 548.5,709C554.875,710.512 561.209,712.345 567.5,714.5C589.729,726.954 599.896,745.954 598,771.5C593.424,797.903 583.757,822.236 569,844.5C547.808,868.59 521.975,875.424 491.5,865C489.273,864.059 487.273,862.892 485.5,861.5ZM465.5,746.5C464.563,749.269 463.396,751.936 462,754.5C461.144,764.274 461.81,773.941 464,783.5C466.141,788.756 467.974,794.089 469.5,799.5C472.786,806.735 476.62,813.735 481,820.5C484.709,825.71 489.209,830.043 494.5,833.5C494.953,834.458 495.619,835.292 496.5,836C499.279,837.722 502.279,838.889 505.5,839.5C523.374,844.154 537.874,839.154 549,824.5C559.844,805.487 566.677,785.154 569.5,763.5C569.325,751.628 563.991,743.128 553.5,738C528.167,737.333 502.833,737.333 477.5,738C472.787,739.887 468.787,742.721 465.5,746.5ZM487.5,775.5C506.836,775.333 526.17,775.5 545.5,776C555.765,781.475 557.932,789.308 552,799.5C550.229,800.304 548.729,801.471 547.5,803C526.833,803.667 506.167,803.667 485.5,803C475.892,793.132 476.559,783.965 487.5,775.5ZM642.5,525.5C671.024,531.696 687.024,549.363 690.5,578.5C686.6,616.573 665.6,634.74 627.5,633C602.097,625.095 587.763,607.928 584.5,581.5C585.441,556.241 597.441,538.574 620.5,528.5C627.647,526.214 634.98,525.214 642.5,525.5ZM633.5,554.5C621.63,558.7 614.964,567.033 613.5,579.5C614.777,593.779 622.444,602.446 636.5,605.5C651.129,602.874 659.129,594.207 660.5,579.5C658.197,563.862 649.197,555.529 633.5,554.5ZM391.5,525.5C397.196,525.447 402.862,525.78 408.5,526.5C432.775,533.11 447.442,548.777 452.5,573.5C452.497,578.527 452.164,583.527 451.5,588.5C444.116,620.388 424.116,635.222 391.5,633C376.763,629.73 365.263,621.896 357,609.5C354.588,604.341 351.921,599.341 349,594.5C342.822,564.013 353.656,541.847 381.5,528C384.621,526.392 387.954,525.559 391.5,525.5ZM421.5,569.5C420.207,568.158 419.374,566.491 419,564.5C417.028,563.695 415.528,562.361 414.5,560.5C400.259,551.818 388.426,554.152 379,567.5C373.1,584.163 377.934,596.33 393.5,604C409.07,605.546 418.737,598.713 422.5,583.5C422.563,578.797 422.229,574.13 421.5,569.5Z" style="fill:rgb(12,0,12);"/>
    </g>
</svg>
