<?xml version="1.0" encoding="UTF-8" standalone="no"?>
<!DOCTYPE svg PUBLIC "-//W3C//DTD SVG 1.1//EN" "http://www.w3.org/Graphics/SVG/1.1/DTD/svg11.dtd">
<svg width="100%" height="100%" viewBox="0 0 1024 1024" version="1.1" xmlns="http://www.w3.org/2000/svg" xmlns:xlink="http://www.w3.org/1999/xlink" xml:space="preserve" xmlns:serif="http://www.serif.com/" style="fill-rule:evenodd;clip-rule:evenodd;stroke-linejoin:round;stroke-miterlimit:2;">
    <g transform="matrix(1.45456,0,0,1.45456,-172.378,-231.606)">
        <path d="M338.5,732.5C293.771,729.75 253.437,715.25 217.5,689C178.858,653.079 163.691,608.912 172,556.5C175.386,536.738 182.386,518.405 193,501.5C198.419,492.042 206.252,489.209 216.5,493C221.279,497.479 221.446,502.312 217,507.5C196.039,533.4 187.373,563.067 191,596.5C195.693,636.742 215.526,666.909 250.5,687C282.227,703.243 315.894,711.91 351.5,713C350.048,703.556 348.715,694.056 347.5,684.5C346.072,677.835 343.572,671.502 340,665.5C327.642,654.142 315.642,642.475 304,630.5C288.235,609.644 275.568,586.977 266,562.5C259.749,544.67 254.083,526.67 249,508.5C247.544,502.903 247.211,497.237 248,491.5C254.404,487.175 260.404,487.509 266,492.5C273.402,517.707 281.402,542.707 290,567.5C306.519,605.018 332.019,634.851 366.5,657L373,663.5C374.597,669.297 372.764,673.297 367.5,675.5L363.5,675.5C366.254,682.691 368.754,690.024 371,697.5C372.05,702.448 372.55,707.448 372.5,712.5L425.5,712.5C426.438,693.96 424.938,675.627 421,657.5C416.771,645.38 412.271,633.38 407.5,621.5C409.617,612.608 414.95,609.775 423.5,613L427,616.5C442.412,646.629 448.912,678.629 446.5,712.5C463.503,712.667 480.503,712.5 497.5,712C502.219,705.392 506.552,698.559 510.5,691.5C523.554,667.967 530.721,642.633 532,615.5C534.543,609.53 539.043,607.363 545.5,609C549.722,611.609 551.722,615.442 551.5,620.5C550.674,640.118 546.84,659.118 540,677.5C537.372,683.914 534.205,689.914 530.5,695.5C528.357,701.311 525.357,706.644 521.5,711.5C549.494,712.667 577.494,712.833 605.5,712C590.667,693.512 578.501,673.345 569,651.5C545.821,591.03 561.655,544.197 616.5,511C644.398,497.106 673.065,495.106 702.5,505C708.542,508.748 710.042,513.915 707,520.5C706.097,521.701 704.931,522.535 703.5,523C700.167,523.667 696.833,523.667 693.5,523C670.507,516.66 648.507,518.827 627.5,529.5C616.189,535.096 606.355,542.762 598,552.5C583.956,569.122 578.123,588.122 580.5,609.5C583.241,635.977 592.408,659.977 608,681.5C617.406,692.404 626.24,703.737 634.5,715.5C639.133,716.098 643.3,717.764 647,720.5C647.817,723.964 647.483,727.298 646,730.5C644.416,731.861 642.582,732.528 640.5,732.5L338.5,732.5ZM365.5,811.5C315.829,807.539 269.162,793.706 225.5,770C187.563,748.73 158.397,718.897 138,680.5C122.942,649.877 116.609,617.544 119,583.5C121.505,562.982 128.172,543.982 139,526.5C150.373,510.788 162.873,495.954 176.5,482C182.821,478.189 188.655,478.689 194,483.5C196.161,487.698 195.828,491.698 193,495.5C180.273,507.894 168.607,521.227 158,535.5C140.04,564.256 134.707,595.256 142,628.5C151.202,671.099 172.702,705.933 206.5,733C243.32,759.954 284.32,777.621 329.5,786C341.643,787.847 353.643,789.681 365.5,791.5L644.5,791.5C676.82,789.782 706.487,779.949 733.5,762C762.281,736.836 781.781,705.669 792,668.5C812.977,594.102 793.144,533.269 732.5,486C685.117,455.218 633.117,442.218 576.5,447C555.386,451.529 534.386,456.529 513.5,462C502.867,463.195 492.2,463.695 481.5,463.5C479.691,490.7 483.524,517.033 493,542.5C494.586,544.67 495.92,547.004 497,549.5C503.955,558.79 511.288,567.79 519,576.5C519.868,580.672 518.368,583.838 514.5,586C510.739,586.738 507.072,586.405 503.5,585C483.283,570.095 470.45,550.262 465,525.5C459.986,494.25 459.319,462.917 463,431.5C468.503,409.66 482.003,395.16 503.5,388C510.011,385.747 516.677,384.08 523.5,383C537.227,381.409 550.893,379.409 564.5,377C572.071,374.215 579.405,370.881 586.5,367C611.047,366.666 628.881,355.832 640,334.5C636.263,337.634 631.93,338.967 627,338.5C609.939,337.443 602.273,328.443 604,311.5C606.167,306.667 609.667,303.167 614.5,301C600.195,287.696 586.195,274.029 572.5,260C554.097,245.191 533.097,236.191 509.5,233C461.231,225.172 419.564,238.005 384.5,271.5C374.047,282.462 364.88,294.462 357,307.5C346.637,329.228 335.97,350.894 325,372.5C318.766,386.299 314.266,400.632 311.5,415.5C303.752,452.731 307.918,488.731 324,523.5C336.745,547.992 349.745,572.325 363,596.5C364.551,609.126 359.385,613.459 347.5,609.5C345.808,607.641 344.308,605.641 343,603.5C330.406,577.666 317.072,552.333 303,527.5C276.671,463.508 281.671,402.175 318,343.5C322.195,337.792 326.862,332.459 332,327.5C346.805,270.028 382.639,232.862 439.5,216C482.118,204.785 523.118,209.119 562.5,229C571.007,234.419 579.34,240.086 587.5,246C599.862,258.696 612.529,271.03 625.5,283C630.334,286.252 635.334,289.252 640.5,292C648.721,294.407 656.721,297.407 664.5,301C669.654,304.475 672.32,309.308 672.5,315.5C670.177,329.812 664.343,342.478 655,353.5C640.769,370.393 622.936,381.56 601.5,387C588.616,391.072 575.616,394.739 562.5,398C548.876,400.218 535.21,402.218 521.5,404C505.96,406.669 494.46,414.836 487,428.5C486.272,432.536 485.439,436.536 484.5,440.5C484.709,441.086 485.043,441.586 485.5,442C494.139,443.248 502.806,443.582 511.5,443C530.219,438.205 548.885,433.205 567.5,428C622.439,422.122 674.439,431.789 723.5,457C783.959,492.054 816.959,544.554 822.5,614.5C820.16,660.354 806.326,702.354 781,740.5C753.783,779.369 716.617,802.369 669.5,809.5C662.861,810.472 656.194,811.305 649.5,812C554.816,812.821 460.149,812.655 365.5,811.5ZM532.5,285.5C542.969,284.653 551.802,287.986 559,295.5C564.261,310.812 559.094,320.645 543.5,325C525.019,324.6 516.853,315.1 519,296.5C522.213,291.107 526.713,287.441 532.5,285.5ZM433.5,248.5C453.778,246.863 470.612,253.53 484,268.5C487.817,273.372 488.15,278.372 485,283.5C482.321,286.835 479.155,287.335 475.5,285C469.848,278.844 463.182,274.178 455.5,271C437.092,266.955 423.259,273.121 414,289.5C412.365,293.709 411.198,298.042 410.5,302.5C411.651,306.766 412.317,311.1 412.5,315.5C421.089,313.915 429.422,311.415 437.5,308C444.276,307.08 450.943,307.414 457.5,309C459.97,313.117 459.803,317.284 457,321.5C456.097,322.701 454.931,323.535 453.5,324C447.116,324.242 440.782,324.908 434.5,326C430.329,327.583 426.663,329.916 423.5,333C425.597,336.768 428.097,340.268 431,343.5C435.14,346.728 438.806,350.395 442,354.5C443.5,363.667 439.667,367.5 430.5,366C426.888,364.861 423.554,363.194 420.5,361C402.967,345.767 392.967,326.6 390.5,303.5C392.567,275.447 406.901,257.114 433.5,248.5Z"/>
    </g>
</svg>
