<?xml version="1.0" encoding="UTF-8" standalone="no"?>
<!DOCTYPE svg PUBLIC "-//W3C//DTD SVG 1.1//EN" "http://www.w3.org/Graphics/SVG/1.1/DTD/svg11.dtd">
<svg width="100%" height="100%" viewBox="0 0 1024 1024" version="1.1" xmlns="http://www.w3.org/2000/svg" xmlns:xlink="http://www.w3.org/1999/xlink" xml:space="preserve" xmlns:serif="http://www.serif.com/" style="fill-rule:evenodd;clip-rule:evenodd;stroke-linejoin:round;stroke-miterlimit:2;">
    <g transform="matrix(1.48677,0,0,1.48677,-212.608,-275.44)">
        <path d="M261.5,821.5C241.349,815.926 223.349,806.426 207.5,793C164.897,753.951 143.397,705.451 143,647.5C150.086,595.815 176.919,558.315 223.5,535C246.207,523.827 270.207,518.993 295.5,520.5C296.311,497.621 287.977,478.788 270.5,464C255.575,452.246 238.575,446.246 219.5,446C215.664,448.084 211.997,450.417 208.5,453C201.873,456.384 197.54,454.718 195.5,448C195.848,444.092 197.182,440.592 199.5,437.5C252.803,404.56 276.636,356.56 271,293.5C269.021,275.253 264.688,257.586 258,240.5C256.843,230.334 261.343,226.5 271.5,229C330.555,244.764 389.888,259.264 449.5,272.5C449.809,267.59 451.476,263.256 454.5,259.5C457.773,258.415 461.106,258.248 464.5,259C466.333,259.5 467.5,260.667 468,262.5C468.547,269.83 469.047,277.163 469.5,284.5C464.921,338.841 460.087,393.175 455,447.5C453.227,479.515 451.561,511.515 450,543.5C450.471,545.246 451.138,546.913 452,548.5C469.649,574.108 488.982,598.442 510,621.5C513.785,617.869 517.951,614.869 522.5,612.5C522.918,611.778 523.584,611.278 524.5,611C514.212,594.379 500.879,580.712 484.5,570C477.527,563.272 470.694,556.439 464,549.5C463.333,540.167 463.333,530.833 464,521.5C466.503,483.8 469.17,446.133 472,408.5C476.932,403.472 481.932,403.472 487,408.5C485.948,446.227 483.615,483.894 480,521.5C479.333,529.167 479.333,536.833 480,544.5C484.53,551.209 490.363,556.209 497.5,559.5C505.732,558.79 514.065,557.79 522.5,556.5C521.864,544.335 521.197,532.168 520.5,520C520.974,508.433 521.808,496.933 523,485.5C516.583,477.006 510.917,468.006 506,458.5C499.817,455.36 497.817,450.36 500,443.5C501.668,439.835 504.501,437.668 508.5,437C521.716,434.258 535.049,432.591 548.5,432C556.498,421.806 564.832,411.972 573.5,402.5C563.778,379.053 552.945,356.053 541,333.5C537.258,324.579 540.092,321.079 549.5,323C564.299,332.571 579.299,341.904 594.5,351C605.713,357.106 617.047,362.94 628.5,368.5C629.442,368.392 630.275,368.059 631,367.5C631.167,364 631.333,360.5 631.5,357C630.5,339.507 630.333,322.007 631,304.5C633.653,301.806 636.82,300.973 640.5,302C662.391,321.728 684.725,340.895 707.5,359.5C708.328,354.868 708.828,350.202 709,345.5C709.5,343.667 710.667,342.5 712.5,342C719.841,341.556 726.508,343.556 732.5,348C742.643,356.127 750.477,365.96 756,377.5C758.12,385.475 757.62,393.308 754.5,401C757.354,406.535 759.188,412.368 760,418.5C771.068,404.697 781.402,390.363 791,375.5C791.333,363.5 791.667,351.5 792,339.5C796.21,335.925 800.71,335.592 805.5,338.5C806.806,339.912 807.64,341.579 808,343.5C808.2,347.753 808.7,351.92 809.5,356C810.944,356.781 812.277,356.614 813.5,355.5C816.178,350.881 820.178,349.048 825.5,350C831.095,352.354 832.928,356.521 831,362.5C826.374,368.73 820.208,371.563 812.5,371L810,368.5C809.667,376.162 807.334,383.162 803,389.5C791.576,406.916 779.409,423.749 766.5,440C778.833,440.333 791.167,440.667 803.5,441C808.255,441.255 810.922,443.755 811.5,448.5C809.767,453.629 807.767,458.629 805.5,463.5C797.595,478.979 789.928,494.646 782.5,510.5C778.898,517.981 775.898,525.647 773.5,533.5C771.972,534.861 770.305,536.028 768.5,537C764.5,537.667 760.5,537.667 756.5,537C740.478,525.989 724.811,514.489 709.5,502.5C701.414,507.03 692.747,509.196 683.5,509C680.623,508.044 677.956,506.711 675.5,505C671.257,499.846 667.257,494.512 663.5,489C655.588,485.541 647.588,482.375 639.5,479.5C631.139,491.82 629.306,505.153 634,519.5C636.27,524.098 638.937,528.431 642,532.5C651.944,541.442 661.611,550.775 671,560.5C683.538,575.586 691.205,592.919 694,612.5C694.777,622.571 694.277,632.571 692.5,642.5C690.672,648.097 688.672,653.763 686.5,659.5C690.802,667.444 691.635,675.778 689,684.5C682.303,707.688 669.47,726.688 650.5,741.5C636.568,751.552 621.234,759.052 604.5,764C595.667,765.833 592.167,762.333 594,753.5C595.458,751.04 597.291,748.873 599.5,747C634.689,737.807 658.856,716.307 672,682.5C672.667,681.5 672.667,680.5 672,679.5C667.726,684.774 662.559,688.941 656.5,692C641.263,698.06 625.596,702.727 609.5,706C602.84,708.667 596.673,712.167 591,716.5C576.429,733.308 565.763,752.308 559,773.5C557.487,787.781 560.82,800.781 569,812.5C572.31,814.146 574.977,816.48 577,819.5C578.243,823.843 577.076,827.177 573.5,829.5C572.391,830.29 571.058,830.79 569.5,831C487.167,831.036 404.834,830.702 322.5,830C304.316,829.606 286.316,827.606 268.5,824C265.896,823.61 263.562,822.776 261.5,821.5ZM397.5,692.5C397.168,703.52 397.501,714.52 398.5,725.5C406.049,723.456 413.716,721.79 421.5,720.5C413.822,710.828 405.822,701.494 397.5,692.5ZM537.5,449.5C532.297,450.899 526.963,452.232 521.5,453.5C525.24,457.311 528.24,461.644 530.5,466.5C532.657,460.68 535.657,455.347 539.5,450.5C539.043,449.702 538.376,449.369 537.5,449.5ZM682.5,481.5C683.428,485.362 684.928,489.029 687,492.5C690.184,490.996 693.351,489.496 696.5,488C691.962,485.565 687.296,483.398 682.5,481.5ZM528.5,590.5C531.5,592.668 534,595.334 536,598.5C533.692,590.846 531.025,583.179 528,575.5C526.644,574.62 525.144,574.286 523.5,574.5C521.631,575.165 519.631,575.831 517.5,576.5C521.19,581.185 524.857,585.852 528.5,590.5ZM514.5,641.5C509.24,645.255 504.406,649.589 500,654.5C485.846,672.466 474.513,692.133 466,713.5C463.824,716.529 461.657,719.529 459.5,722.5C453.304,728.438 445.971,732.605 437.5,735C424.006,738.305 410.339,740.638 396.5,742C369.862,743.907 343.196,744.574 316.5,744C300.124,743.075 284.79,738.742 270.5,731C245.746,715.245 227.913,693.745 217,666.5C213.165,656.35 212.165,646.017 214,635.5C219.357,631.213 224.357,631.547 229,636.5C229.333,640.833 229.667,645.167 230,649.5C241.355,691.355 268.188,717.022 310.5,726.5C312.015,712.075 314.182,697.742 317,683.5C317.346,681.152 318.513,679.319 320.5,678C325.585,675.617 330.085,676.45 334,680.5C345.07,696.239 356.903,711.406 369.5,726C373.114,726.936 376.78,727.436 380.5,727.5C380.333,708.164 380.5,688.83 381,669.5C381.45,667.481 382.283,665.648 383.5,664C387.997,661.879 392.33,662.212 396.5,665C410.269,682.605 424.602,699.772 439.5,716.5C442.472,714.694 445.305,712.694 448,710.5C454.704,697.743 461.038,684.743 467,671.5C475.076,657.246 484.91,644.246 496.5,632.5C482.101,616.271 468.268,599.604 455,582.5C447.156,571.474 439.823,560.141 433,548.5C432.333,540.5 432.333,532.5 433,524.5C438.484,446.106 444.651,367.772 451.5,289.5C447.486,289.666 443.486,289.499 439.5,289C394.433,277.118 349.099,266.118 303.5,256C295.419,254.19 287.586,251.69 280,248.5C283.526,263.304 286.526,278.304 289,293.5C290.05,312.331 288.717,330.998 285,349.5C278.184,381.16 262.684,407.493 238.5,428.5C246.336,432.282 254.336,435.782 262.5,439C268.167,442.667 273.833,446.333 279.5,450C311.992,477.127 319.992,509.961 303.5,548.5C310.272,546.298 316.939,543.798 323.5,541C347.435,527.065 365.935,507.899 379,483.5C388.471,460.551 395.637,436.885 400.5,412.5C375.702,404.973 350.702,398.14 325.5,392C323.383,390.269 321.883,388.102 321,385.5C320.051,376.783 323.884,373.283 332.5,375C356.448,381.82 380.448,388.32 404.5,394.5C411.107,361.849 417.607,329.182 424,296.5L427.5,293C437.13,291.211 440.963,295.044 439,304.5C432.753,341.647 425.753,378.647 418,415.5C413.961,432.987 409.295,450.32 404,467.5C388.716,512.115 359.549,543.948 316.5,563C334.87,567.092 352.87,572.426 370.5,579C374.589,581.127 378.423,583.627 382,586.5C383.457,589.366 383.79,592.366 383,595.5C380.013,600.152 375.846,601.652 370.5,600C364.779,596.473 358.779,593.473 352.5,591C337.292,585.152 321.625,581.152 305.5,579C291.378,577.798 278.045,580.464 265.5,587C255.246,593.919 246.246,602.252 238.5,612C231.265,616.216 226.932,614.216 225.5,606C226.671,600.491 229.171,595.658 233,591.5C240.833,584.333 248.667,577.167 256.5,570C269.977,561.69 280.977,550.856 289.5,537.5C264.106,537.904 240.439,544.737 218.5,558C182.641,580.21 162.974,612.377 159.5,654.5C160.71,677.003 165.543,698.67 174,719.5C202.589,781.234 251.089,812.4 319.5,813C363.332,813.596 407.166,814.096 451,814.5C468.337,814.5 485.503,814.167 502.5,813.5C496.336,798.834 494.169,783.5 496,767.5C499.013,737.423 510.346,711.09 530,688.5C548.662,671.82 570.495,661.654 595.5,658C604.27,655.552 611.77,651.052 618,644.5C622.657,635.923 623.657,626.923 621,617.5C615.413,602.327 608.746,587.66 601,573.5C590.205,547.474 586.538,520.474 590,492.5C594.106,472.789 602.606,455.289 615.5,440C619.167,438 622.833,438 626.5,440C627.573,441.313 628.24,442.813 628.5,444.5C624.82,454.194 620.32,463.527 615,472.5C606.879,492.049 604.212,512.382 607,533.5C608.755,544.522 611.755,555.188 616,565.5C623.204,579.908 629.87,594.575 636,609.5C643.037,630.327 638.87,648.494 623.5,664C620.167,666 616.833,668 613.5,670C600.373,674.616 587.04,678.616 573.5,682C555.445,688.272 541.278,699.439 531,715.5C515.386,741.571 510.052,769.571 515,799.5C516.667,804.823 518.834,809.823 521.5,814.5C532.013,814.558 542.346,814.558 552.5,814.5C542.745,801.473 539.245,786.807 542,770.5C548.224,747.714 558.891,727.381 574,709.5C581.033,701.796 589.2,695.63 598.5,691C611.894,686.568 625.561,683.235 639.5,681C652.087,676.074 661.92,667.907 669,656.5C682.815,625.387 678.815,596.72 657,570.5C645,559.833 633.667,548.5 623,536.5C611.217,512.151 611.883,488.151 625,464.5C627.483,462.509 630.316,461.509 633.5,461.5C644.691,463.341 655.691,466.007 666.5,469.5C671.979,462.466 678.979,460.633 687.5,464C692.772,466.941 697.772,470.274 702.5,474C721.557,489.838 741.223,504.671 761.5,518.5C762.128,513.572 763.628,508.905 766,504.5C772.765,489.136 779.932,473.97 787.5,459C776.152,458.168 764.819,458.334 753.5,459.5C754.908,463.239 754.741,466.906 753,470.5C744.32,477.258 738.82,475.092 736.5,464C737.219,458.782 740.219,456.282 745.5,456.5C746.063,438.21 743.063,420.543 736.5,403.5C730.086,399.918 724.086,395.751 718.5,391C688.875,374.538 658.542,373.205 627.5,387C565.618,417.927 535.785,468.093 538,537.5C540.898,555.195 545.232,572.528 551,589.5C554.547,601.823 551.381,611.99 541.5,620C531.736,626.27 522.736,633.437 514.5,641.5ZM409.5,593.5C411.527,593.338 413.527,593.505 415.5,594C429,604.833 442.5,615.667 456,626.5C456.584,639.263 451.418,642.429 440.5,636C429.06,627.528 417.894,618.695 407,609.5C402.884,603.113 403.718,597.78 409.5,593.5ZM671.5,410.5C689.267,409.762 697.101,418.095 695,435.5C690.206,446.427 682.039,449.927 670.5,446C660.633,440.761 656.799,432.595 659,421.5C661.505,415.822 665.671,412.155 671.5,410.5ZM330.5,704.5C329.38,711.826 328.38,719.16 327.5,726.5C334.811,727.665 342.144,727.831 349.5,727C343.273,719.284 336.939,711.784 330.5,704.5ZM574.5,359.5C578.775,370.052 583.608,380.386 589,390.5C594.089,386.707 599.255,383.041 604.5,379.5C604.081,378.328 603.415,377.328 602.5,376.5C593.139,370.822 583.806,365.155 574.5,359.5ZM725.5,364.5C725.89,367.839 726.39,371.173 727,374.5C731.644,378.814 735.978,383.48 740,388.5C740.192,385.053 739.525,381.72 738,378.5C733.968,373.639 729.801,368.972 725.5,364.5ZM647.5,330.5C647.987,341.546 648.987,352.546 650.5,363.5C659.536,360.263 668.869,358.763 678.5,359C671.874,354.043 665.54,348.709 659.5,343C655.269,338.938 651.269,334.771 647.5,330.5Z"/>
    </g>
</svg>
