<?xml version="1.0" encoding="UTF-8" standalone="no"?>
<!DOCTYPE svg PUBLIC "-//W3C//DTD SVG 1.1//EN" "http://www.w3.org/Graphics/SVG/1.1/DTD/svg11.dtd">
<svg width="100%" height="100%" viewBox="0 0 1024 1024" version="1.1" xmlns="http://www.w3.org/2000/svg" xmlns:xlink="http://www.w3.org/1999/xlink" xml:space="preserve" xmlns:serif="http://www.serif.com/" style="fill-rule:evenodd;clip-rule:evenodd;stroke-linejoin:round;stroke-miterlimit:2;">
    <g transform="matrix(1.37701,0,0,1.37701,-143.106,-170.071)">
        <path d="M239.5,658.5C194.578,668.36 156.745,656.027 126,621.5C115.781,608.394 108.781,593.727 105,577.5C101.469,560.086 106.636,545.92 120.5,535C137.909,525.797 153.409,528.297 167,542.5C170.799,548.249 172.466,554.582 172,561.5C178.045,575.024 188.545,582.024 203.5,582.5C224.248,580.397 239.081,570.064 248,551.5C248.667,546.167 248.667,540.833 248,535.5C242.412,511.562 237.079,487.562 232,463.5C226.917,435.04 225.251,406.373 227,377.5C231.228,320.212 254.728,272.712 297.5,235C313.718,222.391 331.718,213.224 351.5,207.5C359.7,204.02 368.367,201.853 377.5,201C401.891,198.507 425.558,201.507 448.5,210C456.203,213.851 463.87,217.685 471.5,221.5C478.591,218.748 485.925,216.915 493.5,216C547.5,215.333 601.5,215.333 655.5,216C688.011,221.518 710.844,239.351 724,269.5C726.169,277.011 727.502,284.678 728,292.5C728.821,305.076 728.655,317.576 727.5,330C795.253,347.416 834.753,390.583 846,459.5C846.831,465.477 847.331,471.477 847.5,477.5C847.667,576.834 847.5,676.167 847,775.5C845.324,782.341 841.158,786.674 834.5,788.5C833.737,789.268 832.737,789.768 831.5,790C768.833,790.667 706.167,790.667 643.5,790C636.492,787.656 632.326,782.823 631,775.5C630.5,741.502 630.333,707.502 630.5,673.5C609.327,673.831 588.327,673.497 567.5,672.5C563.039,672.21 560.205,669.877 559,665.5C558.209,661.074 558.543,656.741 560,652.5C560.671,651.748 561.504,651.414 562.5,651.5C562.918,650.778 563.584,650.278 564.5,650C620.335,649.168 676.002,649.335 731.5,650.5C733.716,651.203 735.549,652.536 737,654.5C737.5,681.498 737.667,708.498 737.5,735.5L737.5,765.5L823.5,765.5C823.667,670.833 823.5,576.166 823,481.5C823.383,433.327 803.883,395.827 764.5,369C753.465,362.822 741.798,358.322 729.5,355.5C729.147,372.303 727.48,388.97 724.5,405.5C717.487,435.86 703.82,462.86 683.5,486.5C648.828,524.171 605.828,546.004 554.5,552C548.751,552.785 543.084,552.618 537.5,551.5C508.274,547.104 488.441,531.104 478,503.5C476.548,463.527 476.048,423.527 476.5,383.5C476.333,355.498 476.5,327.498 477,299.5C478.5,296.667 480.667,294.5 483.5,293C529.177,292.808 574.843,292.308 620.5,291.5C631.382,291.543 635.882,296.877 634,307.5C632.084,311.085 629.251,313.585 625.5,315C583.835,315.5 542.168,315.667 500.5,315.5L500.5,479.5C499.068,505.915 511.401,521.749 537.5,527C543.157,527.499 548.824,527.666 554.5,527.5C606.067,520.798 647.234,496.465 678,454.5C693.262,430.478 701.596,404.145 703,375.5C703.92,344.144 703.587,312.81 702,281.5C696.627,264.247 685.794,251.747 669.5,244C661.063,241.058 652.397,239.058 643.5,238C598.167,237.333 552.833,237.333 507.5,238C468.079,242.753 447.246,264.919 445,304.5C439.264,310.16 432.764,310.994 425.5,307C424.299,306.097 423.465,304.931 423,303.5C420.305,276.061 429.805,253.894 451.5,237C428.512,225.174 404.179,221.174 378.5,225C353.736,228.388 332.069,238.222 313.5,254.5C291.142,273.715 274.309,297.048 263,324.5C260.025,333.404 257.525,342.404 255.5,351.5C253.743,357.248 252.577,363.248 252,369.5C248.211,396.94 248.877,424.273 254,451.5C260.335,480.174 266.669,508.841 273,537.5C274.457,552.794 270.457,566.46 261,578.5C242.604,599.634 219.438,608.8 191.5,606C166.248,598.421 151.248,581.755 146.5,556C142.203,554.908 137.869,554.575 133.5,555C131.641,556.558 130.141,558.391 129,560.5C127.527,577.94 132.527,593.273 144,606.5C173.88,637.545 209.046,645.378 249.5,630C258.382,625.396 267.049,620.563 275.5,615.5C304.981,591.178 327.481,561.511 343,526.5C349.281,510.046 354.947,493.379 360,476.5C365.548,472.652 371.715,471.485 378.5,473C384.415,476.269 386.082,481.102 383.5,487.5C370.951,532.943 349.285,573.276 318.5,608.5C302.249,626.238 283.249,640.404 261.5,651C254.393,654.202 247.06,656.702 239.5,658.5ZM654.5,765.5L713.5,765.5C713.169,736.662 713.502,707.995 714.5,679.5L714.5,673.5L654.5,673.5L654.5,765.5ZM126.5,488.5C125.339,441.904 125.172,395.237 126,348.5C127.787,340.04 132.954,336.207 141.5,337C144.539,338.031 147.039,339.865 149,342.5C149.5,386.499 149.667,430.499 149.5,474.5L149.5,478.5C164.17,478.333 178.837,478.5 193.5,479C198.34,480.337 200.673,483.504 200.5,488.5C199.648,496.851 194.981,501.351 186.5,502C170.833,502.667 155.167,502.667 139.5,502C132.918,499.586 128.584,495.086 126.5,488.5ZM431.5,784.5C426.936,780.674 424.77,775.674 425,769.5C424.5,706.834 424.333,644.168 424.5,581.5C415.494,581.666 406.494,581.5 397.5,581C389.227,577.955 386.06,572.121 388,563.5C389.167,561 391,559.167 393.5,558C408.833,557.333 424.167,557.333 439.5,558C443.896,558.73 446.73,561.23 448,565.5C448.5,631.832 448.667,698.166 448.5,764.5L448.5,765.5C484.502,765.333 520.502,765.5 556.5,766C564.944,772.151 565.611,779.151 558.5,787C556.913,787.862 555.246,788.529 553.5,789C515.346,790.711 477.346,790.878 439.5,789.5C436.151,788.831 433.484,787.164 431.5,784.5ZM379.5,336.5C403.821,334.988 415.321,346.321 414,370.5C409.506,386.986 398.673,395.152 381.5,395C363.784,389.741 355.951,377.908 358,359.5C360.981,347.692 368.148,340.025 379.5,336.5ZM384.5,360.5C382.404,362.354 381.071,364.687 380.5,367.5C382.323,373.492 385.823,374.825 391,371.5C393.271,365.001 391.104,361.334 384.5,360.5Z"/>
    </g>
</svg>
