<?xml version="1.0" encoding="UTF-8" standalone="no"?>
<!DOCTYPE svg PUBLIC "-//W3C//DTD SVG 1.1//EN" "http://www.w3.org/Graphics/SVG/1.1/DTD/svg11.dtd">
<svg width="100%" height="100%" viewBox="0 0 1024 1024" version="1.1" xmlns="http://www.w3.org/2000/svg" xmlns:xlink="http://www.w3.org/1999/xlink" xml:space="preserve" xmlns:serif="http://www.serif.com/" style="fill-rule:evenodd;clip-rule:evenodd;stroke-linejoin:round;stroke-miterlimit:2;">
    <g transform="matrix(1.57736,0,0,1.57736,-308.085,-308.649)">
        <path d="M560.5,695.5C560.665,691.818 560.499,688.152 560,684.5C550.222,675.728 541.555,666.061 534,655.5C532.872,653.655 532.372,651.655 532.5,649.5C501.843,650.007 473.843,641.841 448.5,625C446.167,622 443.833,619 441.5,616C425.864,608.518 411.197,599.518 397.5,589C382.167,576.333 366.833,563.667 351.5,551C314.763,518.299 300.43,477.465 308.5,428.5C308.522,412.136 308.855,395.803 309.5,379.5C296.034,379.467 283.367,376.3 271.5,370C267.166,365.422 261.666,363.588 255,364.5C238.828,365.32 222.661,365.82 206.5,366C194.766,358.328 192.266,348.162 199,335.5C201.463,332.035 204.296,328.869 207.5,326C213.444,322.389 219.111,318.389 224.5,314C228.046,312.207 231.713,310.707 235.5,309.5C239.611,269.22 261.611,245.387 301.5,238C317.255,236.228 332.921,236.894 348.5,240C377.905,248.071 394.405,267.238 398,297.5C398.333,340.167 398.667,382.833 399,425.5C400.137,431.447 402.137,437.113 405,442.5C407.798,446.066 411.465,448.066 416,448.5C421.151,448.004 425.985,446.504 430.5,444C445.617,433.421 459.617,421.421 472.5,408C521.607,367.81 577.273,354.81 639.5,369C661.46,374.248 681.46,383.415 699.5,396.5C719.309,408.803 736.142,424.469 750,443.5C760.89,432.385 766.89,419.052 768,403.5C771.54,399.874 775.874,398.207 781,398.5C788.262,398.13 793.595,401.13 797,407.5C799.598,412.232 801.432,417.232 802.5,422.5C804.686,430.683 806.019,439.017 806.5,447.5C806.692,461.049 803.526,473.715 797,485.5C793.702,489.111 790.869,492.944 788.5,497C789.579,507.148 789.746,517.315 789,527.5C783.938,557.298 770.772,582.631 749.5,603.5C730.201,619.486 708.535,631.32 684.5,639C676.234,640.933 667.901,642.433 659.5,643.5L651.5,643.5L651.5,653.5C650.286,664.233 646.62,673.9 640.5,682.5C640.315,684.196 639.481,685.529 638,686.5C637.5,717.832 637.333,749.165 637.5,780.5C686.833,781.167 736.167,781.833 785.5,782.5C790.613,783.541 792.946,786.708 792.5,792C793.216,798.255 790.549,801.922 784.5,803C590.5,803.667 396.5,803.667 202.5,803C198.82,798.098 197.653,792.598 199,786.5C199.5,784.667 200.667,783.5 202.5,783C321.736,782.168 440.903,782.335 560,783.5C560.5,754.169 560.667,724.835 560.5,695.5ZM617.5,780.5C617.667,754.831 617.5,729.165 617,703.5C605.936,708.287 594.436,709.62 582.5,707.5C581.791,706.596 580.791,706.263 579.5,706.5C579.169,732.005 579.502,757.339 580.5,782.5C593.011,782.829 605.345,782.495 617.5,781.5L617.5,780.5ZM782.5,425.5C782.186,428.947 781.352,432.28 780,435.5C776.333,442.167 772.667,448.833 769,455.5C767.926,456.618 766.76,457.618 765.5,458.5C770.224,464.559 774.557,470.892 778.5,477.5C785.062,464.579 787.229,450.912 785,436.5C784.758,432.57 783.925,428.903 782.5,425.5ZM698.5,419.5C669.768,399.418 637.768,387.918 602.5,385C570.33,382.965 540.33,389.965 512.5,406C490.073,420.421 469.406,437.088 450.5,456C412.357,482.177 388.524,472.677 379,427.5C378.667,384.5 378.333,341.5 378,298.5C376.379,281.57 367.879,269.737 352.5,263C336.404,258.932 320.071,257.598 303.5,259C271.553,266.605 255.72,286.771 256,319.5C255,321.167 254,322.833 253,324.5C240.187,329.321 228.354,335.821 217.5,344C233.61,343.172 249.776,343.339 266,344.5C268.032,344.142 269.866,343.308 271.5,342C282.531,340 288.531,344.5 289.5,355.5C297.808,356.205 306.141,356.705 314.5,357C320.148,357.735 324.314,360.568 327,365.5C328.013,404.153 329.013,442.82 330,481.5C331.738,491.305 335.404,500.305 341,508.5C373.859,546.038 412.026,576.872 455.5,601C461.913,600.101 467.913,601.434 473.5,605C485.088,617.292 499.088,624.459 515.5,626.5C510.986,617.364 509.486,607.697 511,597.5C517.193,589.907 523.86,589.574 531,596.5C530.323,606.757 532.323,616.424 537,625.5C547.576,638.987 557.91,652.654 568,666.5C570.993,668.981 574.493,670.481 578.5,671C584.355,673.849 585.688,678.015 582.5,683.5C582.833,684.167 583.167,684.833 583.5,685.5C586.947,686.13 590.447,686.463 594,686.5C606.358,687.452 616.191,683.118 623.5,673.5C625.246,670.337 626.746,667.004 628,663.5C631.388,647.682 632.388,631.682 631,615.5C628.746,610.61 629.08,605.943 632,601.5C637.919,598.29 643.252,598.956 648,603.5C650.582,609.577 652.082,615.91 652.5,622.5C659.555,621.743 666.555,620.576 673.5,619C720.472,608.515 751.806,580.682 767.5,535.5C770.646,521.258 769.813,507.258 765,493.5C746.301,465.808 724.134,441.141 698.5,419.5ZM682.5,459.5C686.25,459.402 689.583,460.569 692.5,463C703.719,477.763 716.719,490.763 731.5,502C738.252,506.043 745.252,509.543 752.5,512.5C758.096,522.973 754.929,528.973 743,530.5C734.307,529.315 726.64,525.982 720,520.5C717.446,530.776 711.279,537.943 701.5,542C692.569,543.964 684.903,541.797 678.5,535.5C672.242,550.296 661.242,556.129 645.5,553C641.836,551.998 638.669,550.164 636,547.5C618.66,566.083 600.16,567.25 580.5,551C578.451,548.407 576.285,545.907 574,543.5C566.374,558.562 554.207,564.395 537.5,561C525.335,556.176 515.502,548.343 508,537.5C498.616,524.368 492.116,509.868 488.5,494C488.698,490.599 490.365,488.266 493.5,487C497.625,486.146 501.625,486.48 505.5,488C510.224,498.054 514.724,508.221 519,518.5L528,530.5C533.808,536.153 540.641,539.82 548.5,541.5C555.118,540.994 558.618,537.328 559,530.5C559.759,521.86 558.426,513.527 555,505.5C553.639,500.726 555.139,497.226 559.5,495C562.833,494.333 566.167,494.333 569.5,495C570.931,495.465 572.097,496.299 573,497.5C577.536,514.758 586.703,528.925 600.5,540C612.5,544.683 617.333,540.516 615,527.5C608.236,517.074 601.903,506.408 596,495.5C592.467,486.032 595.634,481.532 605.5,482C608.177,482.249 610.51,483.249 612.5,485C620.35,499.707 629.684,513.374 640.5,526C643.557,528.723 646.89,531.056 650.5,533C658.917,534.098 662.917,530.265 662.5,521.5C660.391,511.616 655.891,502.95 649,495.5C645.201,488.936 643.534,481.936 644,474.5C649.547,468.269 655.547,467.936 662,473.5C668.997,488.174 677.497,501.841 687.5,514.5C695.283,522.138 700.283,520.638 702.5,510C702.204,508.112 701.704,506.278 701,504.5C694.373,496.204 687.373,488.204 680,480.5C675.649,475.395 674.649,469.728 677,463.5C678.5,461.531 680.333,460.198 682.5,459.5ZM297.5,289.5C312.346,290.222 317.513,297.555 313,311.5C307.576,317.529 301.076,319.029 293.5,316C287.661,310.101 286.161,303.267 289,295.5C291.322,292.605 294.155,290.605 297.5,289.5ZM817.5,782.5C825.253,782.104 832.92,782.604 840.5,784C845.278,788.983 845.778,794.483 842,800.5C840.829,801.893 839.329,802.727 837.5,803C830.45,803.797 823.45,803.63 816.5,802.5C810.993,795.434 811.326,788.767 817.5,782.5Z"/>
    </g>
</svg>
