<?xml version="1.0" encoding="UTF-8" standalone="no"?>
<!DOCTYPE svg PUBLIC "-//W3C//DTD SVG 1.1//EN" "http://www.w3.org/Graphics/SVG/1.1/DTD/svg11.dtd">
<svg width="100%" height="100%" viewBox="0 0 1024 1024" version="1.1" xmlns="http://www.w3.org/2000/svg" xmlns:xlink="http://www.w3.org/1999/xlink" xml:space="preserve" xmlns:serif="http://www.serif.com/" style="fill-rule:evenodd;clip-rule:evenodd;stroke-linejoin:round;stroke-miterlimit:2;">
    <g transform="matrix(1.49782,0,0,1.49782,-265.826,-281.354)">
        <path d="M378.5,870.5C337.376,868.516 309.209,848.516 294,810.5C285.293,785.208 282.293,759.208 285,732.5C290.582,674.372 312.248,623.372 350,579.5C374.337,555.497 399.004,531.83 424,508.5C442.973,486.951 449.973,461.951 445,433.5C438.902,415.302 432.236,397.302 425,379.5C410.099,327.319 420.432,280.985 456,240.5C502.562,189.234 558.396,175.401 623.5,199C635.562,204.729 646.228,212.395 655.5,222C664.916,222.684 673.582,225.517 681.5,230.5C687.229,235.961 689.562,242.628 688.5,250.5C686.526,253.77 684.526,257.103 682.5,260.5C683.04,261.748 683.707,262.915 684.5,264C677.262,297.573 663.929,328.407 644.5,356.5C642.909,359.431 640.909,362.098 638.5,364.5C650.148,384.468 659.648,405.468 667,427.5C672.124,447.201 674.957,467.201 675.5,487.5C676.266,505.437 674.433,523.104 670,540.5C661.8,568.767 653.8,597.1 646,625.5C642.711,641.874 641.877,658.208 643.5,674.5C645.774,714.267 656.441,751.6 675.5,786.5C677.104,787.287 677.771,788.62 677.5,790.5C700.404,790.914 722.737,794.581 744.5,801.5C753.867,804.9 756.7,811.234 753,820.5C750.203,824.299 747.036,827.799 743.5,831C720.77,848.364 695.436,860.364 667.5,867C663.509,867.642 659.509,868.142 655.5,868.5C648.541,869.83 641.541,870.83 634.5,871.5L378.5,871.5L378.5,870.5ZM607.5,791.5C623.328,790.669 639.328,790.169 655.5,790C628.787,740.489 618.287,687.656 624,631.5C630.44,602.408 638.44,573.741 648,545.5C655.495,517.929 657.495,489.929 654,461.5C651.565,433.315 641.899,407.982 625,385.5C623.464,391.784 620.964,397.617 617.5,403C611.986,405.365 606.819,404.865 602,401.5C601.72,395.654 602.72,389.987 605,384.5C614.674,364.168 626.007,344.834 639,326.5C651.222,305.338 659.388,282.671 663.5,258.5C661.78,257.066 659.78,256.233 657.5,256C650.5,255.333 643.5,255.333 636.5,256C625.856,258.436 615.856,262.436 606.5,268C603.258,268.586 600.425,267.753 598,265.5C596.755,259.294 597.588,253.461 600.5,248C614.003,239.833 628.669,235.5 644.5,235C639.167,231 633.833,227 628.5,223C566.126,193.873 512.626,205.373 468,257.5C441.583,290.232 433.249,327.232 443,368.5C450.104,389.375 457.771,410.042 466,430.5C468.798,440.56 471.798,450.56 475,460.5C480.501,483.833 482.834,507.5 482,531.5C480.5,534.333 478.333,536.5 475.5,538C465.529,539.864 461.196,535.698 462.5,525.5C462.029,514.428 460.862,503.428 459,492.5C452.906,503.678 445.573,514.011 437,523.5C412.363,546.469 388.03,569.802 364,593.5C336.425,625.99 318.425,663.323 310,705.5C307.373,717.723 305.54,730.057 304.5,742.5C304.307,757.933 305.474,773.267 308,788.5C314.108,822.274 333.941,842.441 367.5,849C414.302,850.152 461.136,850.652 508,850.5C557.183,850.634 606.349,850.134 655.5,849C682.829,844.332 707.496,833.665 729.5,817C719.944,815.964 710.611,814.464 701.5,812.5C695.489,812.199 689.489,811.699 683.5,811C599.5,810.667 515.5,810.333 431.5,810C423.92,804.147 423.587,797.814 430.5,791C455.503,791.643 480.503,791.476 505.5,790.5C504.896,780.819 504.063,771.152 503,761.5C498.809,734.593 485.642,713.426 463.5,698C453.195,693.349 443.029,688.516 433,683.5C431.543,680.634 431.21,677.634 432,674.5C433.672,668.493 437.505,666.327 443.5,668C459.115,672.974 473.449,680.307 486.5,690C511.377,714.086 524.377,743.586 525.5,778.5L525.5,791.5L562.5,791.5L562.5,790.5L577.5,790.5C575.333,755.16 573,719.826 570.5,684.5C569.234,670.214 575.067,666.214 588,672.5C592.457,709.033 595.624,745.699 597.5,782.5L597.5,791.5L607.5,791.5ZM499.5,273.5C507.575,272.358 514.408,274.691 520,280.5C522,285.5 522,290.5 520,295.5C518.093,296.93 515.926,297.596 513.5,297.5C509.228,296.237 504.895,295.737 500.5,296C490.035,299.642 480.702,305.142 472.5,312.5C465.78,323.717 467.78,333.217 478.5,341C486.299,345.367 494.633,347.367 503.5,347C496.156,342.464 493.656,335.964 496,327.5L500.5,323C507.815,321.41 514.315,322.91 520,327.5C524.183,334.255 523.017,339.755 516.5,344C520.801,349.224 521.634,355.058 519,361.5C515.557,364.874 511.39,366.707 506.5,367C488.07,368.935 472.236,363.435 459,350.5C447.006,335.29 445.339,318.957 454,301.5L463.5,292C475.164,285.002 487.164,278.835 499.5,273.5ZM561.5,274.5C567.611,273.838 573.278,275.005 578.5,278C582.922,284.111 582.256,289.444 576.5,294C572.79,294.895 569.123,295.895 565.5,297C561.023,302.073 557.857,307.906 556,314.5C548.839,318.09 543.839,316.09 541,308.5C539.143,296.713 542.976,287.213 552.5,280C555.564,278.141 558.564,276.308 561.5,274.5Z"/>
    </g>
</svg>
