<?xml version="1.0" encoding="UTF-8" standalone="no"?>
<!DOCTYPE svg PUBLIC "-//W3C//DTD SVG 1.1//EN" "http://www.w3.org/Graphics/SVG/1.1/DTD/svg11.dtd">
<svg width="100%" height="100%" viewBox="0 0 1024 1024" version="1.1" xmlns="http://www.w3.org/2000/svg" xmlns:xlink="http://www.w3.org/1999/xlink" xml:space="preserve" xmlns:serif="http://www.serif.com/" style="fill-rule:evenodd;clip-rule:evenodd;stroke-linejoin:round;stroke-miterlimit:2;">
    <g transform="matrix(1.38231,0,0,1.38231,-234.59,-179.929)">
        <path d="M284.5,681.5C260.866,726.099 236.7,770.433 212,814.5C206.993,820.208 201.159,821.041 194.5,817C191.513,813.708 190.347,809.875 191,805.5C216.467,761.404 241.3,716.904 265.5,672C262.853,670.701 260.186,669.368 257.5,668C251.59,662.761 246.423,656.928 242,650.5C224.913,687.672 207.579,724.672 190,761.5C182.266,770.095 175.599,769.429 170,759.5C169.262,755.598 169.928,751.932 172,748.5C198.474,692.081 225.14,635.748 252,579.5C279.379,528.047 311.713,480.047 349,435.5C377.44,403.876 411.607,380.876 451.5,366.5C477.495,358.145 504.161,355.145 531.5,357.5C531.333,331.498 531.5,305.498 532,279.5C540.441,233.741 566.274,202.575 609.5,186C633.19,179.276 656.523,180.276 679.5,189C683.959,190.524 687.959,192.691 691.5,195.5C702.434,201.232 712.268,208.565 721,217.5C726,223.833 731,230.167 736,236.5C740.054,244.776 744.221,252.943 748.5,261C768.69,273.927 788.357,287.594 807.5,302C825.068,317.567 841.235,334.4 856,352.5C875.138,378.854 889.138,407.854 898,439.5C903.081,453.908 907.247,468.575 910.5,483.5C908.804,492.198 903.471,495.698 894.5,494L889,488.5C859.69,438.214 816.524,406.714 759.5,394C743.637,390.914 727.637,389.08 711.5,388.5C712.996,416.788 710.996,444.788 705.5,472.5C692.105,539.036 658.772,592.703 605.5,633.5C581.537,653.407 554.537,668.074 524.5,677.5L524.5,785.5C543.503,785.333 562.503,785.5 581.5,786C583.667,786.833 585.167,788.333 586,790.5C586.667,794.167 586.667,797.833 586,801.5C584.749,804.381 582.583,806.214 579.5,807C506.5,807.667 433.5,807.667 360.5,807C354.276,802.618 352.443,796.785 355,789.5L358.5,786C377.164,785.5 395.83,785.333 414.5,785.5L414.5,690.5C381.498,690.667 348.498,690.5 315.5,690C304.554,689.116 294.221,686.283 284.5,681.5ZM455.5,387.5C443.193,392.485 431.193,398.319 419.5,405C408.476,412.513 397.809,420.513 387.5,429C365.327,450.48 345.493,473.647 328,498.5C369.157,491.627 409.491,481.294 449,467.5C451.321,467.909 453.487,468.743 455.5,470C460.784,478.782 458.784,485.448 449.5,490C421.893,499.236 393.893,507.236 365.5,514C347.746,518.303 329.746,520.803 311.5,521.5C307.381,531.732 301.714,541.065 294.5,549.5C295.333,549.833 296.167,550.167 297,550.5C346.498,541.534 395.665,531.034 444.5,519C448.244,518.071 451.744,518.571 455,520.5C459.014,529.454 456.514,535.954 447.5,540C391.742,554.785 335.408,566.952 278.5,576.5C272.039,588.588 265.706,600.755 259.5,613C277.728,614.499 295.728,613.165 313.5,609C359.724,596.592 405.057,581.592 449.5,564C455.684,561.832 462.017,561.165 468.5,562C475.628,567.575 476.295,573.908 470.5,581C442.029,590.268 413.695,599.935 385.5,610C382.883,610.822 380.216,611.322 377.5,611.5C376.624,611.369 375.957,611.702 375.5,612.5C388.994,613.825 402.327,613.825 415.5,612.5C443.523,615.018 470.856,611.851 497.5,603C546.377,587.813 582.21,557.313 605,511.5C615.66,485.507 623.827,458.84 629.5,431.5C629.898,425.778 630.731,420.111 632,414.5C632.667,405.833 632.667,397.167 632,388.5C627.405,356.407 609.238,337.74 577.5,332.5C569.458,332.736 561.458,332.403 553.5,331.5C553.09,347.831 552.756,364.165 552.5,380.5C529.498,380.333 506.498,380.5 483.5,381C474.176,383.275 464.842,385.442 455.5,387.5ZM502.5,785.5C503.173,752.627 503.84,719.627 504.5,686.5C504,686.167 503.5,685.833 503,685.5C495.245,687.376 487.412,688.876 479.5,690C465.171,690.5 450.837,690.667 436.5,690.5L436.5,785.5L502.5,785.5ZM649.5,364.5C653.477,375.524 655.477,387.024 655.5,399C652.909,430.534 646.742,461.367 637,491.5C607.195,576.442 547.362,623.775 457.5,633.5C391.179,634.472 324.846,634.805 258.5,634.5C261.094,638.272 263.927,641.939 267,645.5C275.304,652.064 284.137,657.731 293.5,662.5C302.589,665.605 311.923,667.772 321.5,669C374.181,669.925 426.848,669.591 479.5,668C522.142,658.838 560.809,641.338 595.5,615.5C603.438,608.063 611.272,600.396 619,592.5C633.597,577.309 646.264,560.642 657,542.5C673.37,510.041 684.037,475.708 689,439.5C690.077,398.807 690.91,358.14 691.5,317.5C692.228,315.265 693.561,313.432 695.5,312C702.472,308.908 707.639,310.741 711,317.5C711.5,333.83 711.667,350.163 711.5,366.5C772.233,366.901 825.066,387.235 870,427.5C870.167,427 870.333,426.5 870.5,426C860.059,397.269 844.892,371.436 825,348.5C797.578,320.397 766.745,296.897 732.5,278C730.622,276.457 729.122,274.624 728,272.5C720.115,245.69 703.948,225.69 679.5,212.5C674.306,210.072 668.972,207.906 663.5,206C637.91,199.266 614.243,203.266 592.5,218C563.486,241.879 550.153,272.712 552.5,310.5C562.86,310.422 573.193,310.922 583.5,312C587.795,312.569 591.795,313.736 595.5,315.5C621.725,322.724 639.725,339.057 649.5,364.5Z"/>
    </g>
</svg>
