<?xml version="1.0" encoding="UTF-8" standalone="no"?>
<!DOCTYPE svg PUBLIC "-//W3C//DTD SVG 1.1//EN" "http://www.w3.org/Graphics/SVG/1.1/DTD/svg11.dtd">
<svg width="100%" height="100%" viewBox="0 0 1024 1024" version="1.1" xmlns="http://www.w3.org/2000/svg" xmlns:xlink="http://www.w3.org/1999/xlink" xml:space="preserve" xmlns:serif="http://www.serif.com/" style="fill-rule:evenodd;clip-rule:evenodd;stroke-linejoin:round;stroke-miterlimit:2;">
    <g transform="matrix(1.25975,0,0,1.25975,-148.905,-201.882)">
        <path d="M787.5,822.5C793.055,784.034 798.222,745.368 803,706.5C803.798,703.107 804.798,699.774 806,696.5C820.262,674.286 828.595,649.952 831,623.5C833.728,591.375 825.728,562.375 807,536.5C780.318,506.583 746.818,492.083 706.5,493C667.5,492.667 628.5,492.333 589.5,492C564.564,484.913 540.897,474.913 518.5,462C511.052,458.218 505.218,452.718 501,445.5C500.009,437.354 500.676,429.354 503,421.5C510.524,400.768 521.357,382.102 535.5,365.5C531.965,362.692 527.965,360.525 523.5,359C496.592,351.011 469.259,349.344 441.5,354C413.12,358.022 389.12,370.189 369.5,390.5C355.14,404.527 340.807,418.527 326.5,432.5C317.01,441.481 307.01,449.981 296.5,458C268.798,478.071 238.131,485.404 204.5,480C211.316,482.43 218.316,484.097 225.5,485C248.833,485.333 272.167,485.667 295.5,486C307.214,487.011 318.214,490.345 328.5,496C341.13,503.646 348.63,514.812 351,529.5C351.396,567.104 333.229,589.937 296.5,598C274.552,601.342 253.219,599.009 232.5,591C195.794,575.459 166.127,551.293 143.5,518.5C130.932,499.309 122.765,478.309 119,455.5C115.687,423.057 122.687,393.057 140,365.5C147.038,356.976 154.704,356.31 163,363.5C164.483,366.702 164.817,370.036 164,373.5C160.35,381.085 156.683,388.752 153,396.5C136.636,438.707 142.302,477.707 170,513.5C192.128,543.619 221.295,563.453 257.5,573C269.132,574.468 280.798,574.801 292.5,574C320.416,568.322 330.583,551.822 323,524.5C318.585,518.429 312.752,514.262 305.5,512C302.211,511.118 298.877,510.452 295.5,510C271.495,509.667 247.495,509.667 223.5,510C205.717,508.212 191.217,500.379 180,486.5C171.114,472.394 164.114,457.394 159,441.5C158.283,435.007 158.949,428.673 161,422.5C164.854,418.329 169.354,417.496 174.5,420C177.052,427.471 179.552,434.971 182,442.5C186.153,448.996 191.987,453.162 199.5,455C226.055,460.63 251.055,456.63 274.5,443C281.354,439.408 287.687,435.075 293.5,430C313.124,410.547 332.791,390.88 352.5,371C371.11,354.356 392.444,342.356 416.5,335C421.096,333.714 425.763,332.881 430.5,332.5C433.316,324.498 437.982,317.664 444.5,312C453.325,305.421 462.325,299.087 471.5,293C484.485,283.359 495.985,284.859 506,297.5C514.737,307.972 519.903,319.972 521.5,333.5C526.696,334.287 531.696,335.787 536.5,338C545.593,342.88 554.927,347.214 564.5,351C569.724,357.763 569.724,364.596 564.5,371.5C549.143,385.852 537.476,402.852 529.5,422.5C527.884,426.735 526.551,431.069 525.5,435.5C526.682,437.761 528.349,439.595 530.5,441C550.073,451.625 570.407,460.291 591.5,467C632.801,468.299 674.134,468.966 715.5,469C780.869,473.479 825.536,505.979 849.5,566.5C878.424,566.812 896.09,581.145 902.5,609.5C912.571,605.57 921.404,607.57 929,615.5C929.862,617.087 930.529,618.754 931,620.5C931.821,653.216 924.154,683.883 908,712.5C903.907,716.256 899.073,717.756 893.5,717C881.854,708.554 874.021,697.387 870,683.5C866.938,673.855 864.771,664.022 863.5,654C863.935,649.758 864.769,645.591 866,641.5C869.906,634.837 874.406,628.67 879.5,623C878.469,614.844 876.303,607.011 873,599.5C867.828,594.497 861.661,591.497 854.5,590.5C858.279,613.238 856.613,635.571 849.5,657.5C844.686,673.805 838.186,689.471 830,704.5C827.897,709.302 826.731,714.302 826.5,719.5C821.998,753.515 817.331,787.515 812.5,821.5C835.159,822.333 857.826,822.833 880.5,823C886.373,826.939 888.54,832.439 887,839.5C885.668,841.66 884.168,843.66 882.5,845.5L879.5,845.5C679.001,846.5 478.334,846.833 277.5,846.5C272.381,840.976 271.215,834.643 274,827.5C274.948,825.43 276.448,823.93 278.5,823C332.832,822.5 387.166,822.333 441.5,822.5C438.965,795.154 436.299,767.821 433.5,740.5C418.528,721.318 403.028,702.318 387,683.5C373.911,669.065 359.078,656.898 342.5,647C333.448,642.872 324.115,639.538 314.5,637C291.56,633.81 268.56,631.144 245.5,629C226.637,626.871 208.971,621.205 192.5,612C167.209,597.704 146.043,578.871 129,555.5C127,550.5 127,545.5 129,540.5C132.387,536.961 136.553,535.628 141.5,536.5C143.389,537.322 145.389,538.155 147.5,539C151.949,544.063 155.783,549.563 159,555.5C182.902,581.704 212.402,597.871 247.5,604C269.644,605.518 291.644,608.185 313.5,612C326.518,615.339 339.184,619.672 351.5,625C382.498,642.832 407.831,666.665 427.5,696.5C428.885,697.574 430.051,698.907 431,700.5C430.46,686.875 429.46,673.208 428,659.5C427.333,652.5 427.333,645.5 428,638.5C430.346,633.743 434.179,631.743 439.5,632.5C445.353,631.671 449.186,634.004 451,639.5C455.903,700.527 461.069,761.527 466.5,822.5L509.5,822.5C517.577,761.457 526.077,700.457 535,639.5C536.448,635.512 539.281,633.012 543.5,632C553.069,630.735 558.403,634.902 559.5,644.5C555.961,671.526 552.294,698.526 548.5,725.5L705.5,725.5C703.397,700.468 700.897,675.468 698,650.5C697.333,646.5 697.333,642.5 698,638.5C700.57,634.1 704.404,632.1 709.5,632.5C715.316,631.655 719.149,633.988 721,639.5C728.217,700.437 734.717,761.437 740.5,822.5L787.5,822.5ZM534.5,822.5L654.5,822.5C652.829,798.106 650.496,773.773 647.5,749.5C613.173,748.703 578.839,748.369 544.5,748.5C541.227,773.17 537.893,797.837 534.5,822.5ZM485.5,313.5C478.563,317.641 471.563,321.807 464.5,326C474.852,326.529 485.185,326.862 495.5,327C492.332,322.339 488.999,317.839 485.5,313.5ZM906.5,632.5C900.618,637.508 895.118,642.842 890,648.5C889.418,660.922 891.418,672.922 896,684.5C901.103,668.32 904.937,651.82 907.5,635C907.472,633.93 907.139,633.097 906.5,632.5ZM673.5,748.5C675.084,773.172 676.75,797.839 678.5,822.5L716.5,822.5C714.37,797.809 712.037,773.143 709.5,748.5L673.5,748.5ZM372.5,423.5C398.612,422.947 413.279,435.613 416.5,461.5C412.806,492.028 395.64,508.361 365,510.5C348.398,509.952 335.564,502.785 326.5,489C326.82,487.347 327.82,486.347 329.5,486C331.81,485.503 334.143,485.337 336.5,485.5C331.797,472.161 333.297,459.494 341,447.5C348.218,434.997 358.718,426.997 372.5,423.5ZM374.5,447.5C361.27,454.296 356.437,464.963 360,479.5C361.167,482 363,483.833 365.5,485C379.515,485.221 388.015,478.388 391,464.5C391.996,452.33 386.496,446.664 374.5,447.5ZM490.5,365.5C494.846,365.334 499.179,365.501 503.5,366C505.646,366.479 506.646,367.812 506.5,370C506.007,372.819 504.84,375.319 503,377.5C495.927,383.902 489.594,390.902 484,398.5C481.092,407.597 479.926,416.93 480.5,426.5L455.5,426.5C454.614,409.67 457.78,393.67 465,378.5C471.899,370.801 480.399,366.468 490.5,365.5Z"/>
    </g>
</svg>
