<?xml version="1.0" encoding="UTF-8" standalone="no"?>
<!DOCTYPE svg PUBLIC "-//W3C//DTD SVG 1.1//EN" "http://www.w3.org/Graphics/SVG/1.1/DTD/svg11.dtd">
<svg width="100%" height="100%" viewBox="0 0 1024 1024" version="1.1" xmlns="http://www.w3.org/2000/svg" xmlns:xlink="http://www.w3.org/1999/xlink" xml:space="preserve" xmlns:serif="http://www.serif.com/" style="fill-rule:evenodd;clip-rule:evenodd;stroke-linejoin:round;stroke-miterlimit:2;">
    <g transform="matrix(1.37705,0,0,1.37705,-230.528,-176.587)">
        <path d="M282.5,803.5C284.738,789.549 292.072,779.049 304.5,772C310.497,769.512 316.497,767.345 322.5,765.5C336.412,765.823 350.246,765.49 364,764.5C374.574,742.109 383.574,719.109 391,695.5C391.936,691.886 392.436,688.22 392.5,684.5C393.647,680.354 393.814,676.02 393,671.5C391.688,663.775 390.188,656.108 388.5,648.5C339.354,636.177 297.521,611.511 263,574.5C231.414,537.99 213.58,495.657 209.5,447.5C207.938,417.992 212.105,389.325 222,361.5C229.451,342.933 236.618,324.266 243.5,305.5C243.961,303.45 244.628,301.45 245.5,299.5C244.478,298.646 243.645,297.646 243,296.5C237.317,292.827 231.65,289.161 226,285.5C209.865,286.312 193.698,286.812 177.5,287C174.97,288.422 172.303,288.755 169.5,288C168.177,287.184 167.511,286.017 167.5,284.5C167.183,278.091 167.683,271.757 169,265.5C174.145,248.187 185.312,237.187 202.5,232.5C203.252,226.492 205.086,220.826 208,215.5C216.081,200.253 228.581,190.92 245.5,187.5C245.369,183.779 246.369,180.446 248.5,177.5C251.171,175.163 254.171,173.329 257.5,172C286.167,171.333 314.833,171.333 343.5,172C354.159,174.308 358.992,180.808 358,191.5C354.336,205.317 346.169,215.317 333.5,221.5C342.971,252.746 353.137,283.746 364,314.5C373.121,329.821 386.288,339.988 403.5,345C412.715,347.314 422.048,348.98 431.5,350C456.492,350.958 481.492,351.625 506.5,352C516.247,352.76 525.914,354.093 535.5,356C573.709,367.429 607.709,386.096 637.5,412C644.833,414 652.167,414 659.5,412C665.098,410.199 670.431,407.866 675.5,405C700.335,384.999 720.669,361.165 736.5,333.5C758.051,293.33 772.551,250.663 780,205.5C785.122,192.707 794.288,184.541 807.5,181C819.376,178.076 829.376,180.909 837.5,189.5C861.436,189.925 875.936,201.925 881,225.5C881.954,230.62 882.454,235.787 882.5,241C881.814,253.17 881.147,265.336 880.5,277.5C898.168,280.423 908.335,290.757 911,308.5C911.461,338.533 906.127,367.533 895,395.5C883.87,425.271 868.536,452.604 849,477.5C819.178,516.635 782.345,547.135 738.5,569C724.613,575.055 710.28,579.721 695.5,583C683.954,584.431 680.12,579.598 684,568.5L687.5,565C721.981,557.592 752.981,542.925 780.5,521C825.354,484.493 858.187,439.327 879,385.5C887.549,361.537 892.215,336.871 893,311.5C892.511,303.346 888.511,297.679 881,294.5C880.501,298.486 880.334,302.486 880.5,306.5C874.192,339.398 864.025,371.065 850,401.5C845.618,405.769 840.784,406.436 835.5,403.5C835.167,402.167 834.833,400.833 834.5,399.5C835.434,394.018 836.601,388.684 838,383.5C823.909,411.368 807.075,437.368 787.5,461.5C764.364,490.809 737.031,515.309 705.5,535C697.324,539.588 688.991,543.922 680.5,548C670.412,551.212 665.579,547.712 666,537.5C666.516,534.966 667.683,532.8 669.5,531C687.291,524.518 703.625,515.518 718.5,504C735.301,490.699 750.635,475.865 764.5,459.5C795.381,422.779 821.548,382.779 843,339.5C858.179,304.095 864.846,267.095 863,228.5C860.518,215.338 852.685,208.838 839.5,209C838.299,209.903 837.465,211.069 837,212.5C833.529,224.718 830.529,237.051 828,249.5C821.647,269.192 814.481,288.526 806.5,307.5C792.965,333.565 779.132,359.565 765,385.5C748.022,413.485 728.355,439.485 706,463.5C699.5,469.333 693,475.167 686.5,481C679.249,485.399 674.415,483.566 672,475.5C671.333,472.833 671.333,470.167 672,467.5C696.519,447.651 717.519,424.651 735,398.5C759.71,359.419 781.043,318.419 799,275.5C808.053,250.621 815.553,225.288 821.5,199.5C812.567,197.555 805.4,200.221 800,207.5C794.118,232.695 787.451,257.695 780,282.5C762.782,330.673 736.282,372.84 700.5,409C693.676,414.245 686.676,419.245 679.5,424C668.739,429.085 657.406,432.252 645.5,433.5C643.074,433.596 640.907,432.93 639,431.5C645.56,466.82 641.227,500.82 626,533.5C609.045,569.795 583.545,598.628 549.5,620C563.851,634.69 576.351,650.857 587,668.5C593.048,682.474 598.214,696.807 602.5,711.5C610.11,708.697 617.11,704.864 623.5,700C633.695,699.167 640.528,703.667 644,713.5C646.963,728.981 643.63,742.981 634,755.5C628.699,761.802 623.032,767.802 617,773.5C616.939,780.12 614.773,785.954 610.5,791C612.237,801.215 608.904,809.548 600.5,816C583.609,827.378 565.275,831.045 545.5,827C530.796,818.084 527.296,805.917 535,790.5C538.299,787.022 541.966,784.022 546,781.5C550.507,775.486 553.673,768.819 555.5,761.5C552.982,733.292 540.648,710.459 518.5,693C507.167,685.667 495.833,678.333 484.5,671C479.226,666.565 474.893,661.398 471.5,655.5C471.22,667.956 468.72,679.956 464,691.5C452.584,711.329 441.917,731.662 432,752.5C430.533,755.266 428.7,757.766 426.5,760C435.227,760.123 443.894,760.79 452.5,762C459.034,767.247 459.034,772.581 452.5,778C438.5,778.667 424.5,778.667 410.5,778C405.683,773.431 404.35,767.931 406.5,761.5C415.174,745.486 423.341,729.152 431,712.5C437.806,701.885 443.806,690.885 449,679.5C450.489,672.571 451.322,665.571 451.5,658.5C452.479,655.375 452.813,652.042 452.5,648.5L431.5,648.5C423.088,648.378 414.755,647.878 406.5,647C411.656,663.502 412.823,680.335 410,697.5C402.838,722.825 393.171,747.158 381,770.5C376.307,776.769 370.14,780.936 362.5,783C349.207,784.215 335.874,784.881 322.5,785C316.389,786.888 311.056,790.054 306.5,794.5C302.887,798.121 300.553,802.455 299.5,807.5C365.834,807.333 432.168,807.5 498.5,808C503.081,811.438 504.581,815.938 503,821.5C502.34,823.324 501.173,824.657 499.5,825.5C422.237,826.497 344.904,826.83 267.5,826.5C257.395,826.949 247.395,826.449 237.5,825C233.904,820.11 233.57,814.943 236.5,809.5C237.376,808.749 238.376,808.249 239.5,808C253.829,807.5 268.163,807.333 282.5,807.5L282.5,803.5ZM284.5,190.5C291.023,194.77 298.023,198.604 305.5,202C318.976,206.86 329.642,203.527 337.5,192C337.333,191.5 337.167,191 337,190.5C319.53,191.815 302.03,191.815 284.5,190.5ZM530.5,627.5C524.493,630.832 518.16,633.666 511.5,636C501.77,639.015 492.103,642.182 482.5,645.5C500.952,659.233 519.619,672.733 538.5,686C559.298,706.266 571.298,730.932 574.5,760C574.143,767.404 571.976,774.238 568,780.5C563.497,786.835 559.497,793.502 556,800.5C553.295,801.755 551.462,803.755 550.5,806.5C550.608,807.442 550.941,808.275 551.5,809C566.004,811.249 579.17,808.082 591,799.5C589.603,786.837 592.27,775.17 599,764.5C606.67,757.163 614.004,749.496 621,741.5C625.525,734.065 627.525,726.065 627,717.5C626.07,719.552 624.57,721.052 622.5,722C617.226,725.47 611.56,728.136 605.5,730C599.137,732.746 593.637,731.58 589,726.5C582.911,705.998 574.911,686.332 565,667.5C556.963,655.438 547.963,644.105 538,633.5C535.894,630.882 533.394,628.882 530.5,627.5ZM249.5,204.5C237.675,208.155 229.508,215.822 225,227.5C225.124,256.638 238.958,276.138 266.5,286C268.594,287.255 269.594,289.088 269.5,291.5C257.129,321.438 245.629,351.771 235,382.5C216.965,458.217 235.799,523.05 291.5,577C318.271,599.56 348.271,616.726 381.5,628.5C383.45,619.676 388.45,617.509 396.5,622C400.897,627.034 406.563,629.367 413.5,629C427.5,629.667 441.5,629.667 455.5,629C496.112,625.806 532.112,611.472 563.5,586C613.458,541.291 631.458,486.125 617.5,420.5C614.584,417.685 611.584,414.851 608.5,412C593.148,401.987 577.148,392.987 560.5,385C544.982,377.704 528.649,373.37 511.5,372C488.85,370.872 466.183,370.205 443.5,370C433.134,369.328 422.801,368.328 412.5,367C382.78,361.751 360.947,345.918 347,319.5C335.588,288.185 325.255,256.519 316,224.5C311.245,224.106 306.412,222.939 301.5,221C290.623,216.563 279.956,211.563 269.5,206C262.908,204.671 256.241,204.171 249.5,204.5ZM459.5,379.5C462.607,379.351 465.607,379.851 468.5,381C486.529,388.514 504.196,396.847 521.5,406C526.077,407.644 530.744,408.978 535.5,410C545.561,410.939 555.561,412.272 565.5,414C572.289,416.812 576.123,421.978 577,429.5C580.676,489.141 556.176,532.975 503.5,561C461.483,580.171 417.816,585.505 372.5,577C324.703,560.587 301.87,527.087 304,476.5C309.888,447.223 325.721,425.056 351.5,410C367.032,402.9 383.365,400.233 400.5,402C407.114,404.157 409.281,408.657 407,415.5C405.647,416.685 404.48,418.019 403.5,419.5C376.272,417.705 353.772,427.038 336,447.5C318.21,472.914 316.877,499.247 332,526.5C354.819,555.978 384.652,567.145 421.5,560C437.06,556.389 450.393,548.889 461.5,537.5C487.744,510.995 500.744,478.995 500.5,441.5C500.603,432.429 499.936,423.429 498.5,414.5C494.268,414.222 490.268,413.056 486.5,411C477.959,406.23 469.292,401.73 460.5,397.5C455.532,391.801 455.198,385.801 459.5,379.5ZM518.5,423.5C522.36,470.911 509.027,512.578 478.5,548.5C484.431,547.476 490.431,545.643 496.5,543C540.98,519.217 561.98,482.05 559.5,431.5C554.821,431.666 550.155,431.499 545.5,431C536.019,429.982 527.019,427.482 518.5,423.5ZM253.5,224.5C268.306,224.134 274.14,231.134 271,245.5C267.606,251.036 262.606,254.036 256,254.5C247.044,253.21 242.878,248.043 243.5,239C243.464,236.37 243.964,233.87 245,231.5C247.628,228.79 250.461,226.456 253.5,224.5ZM208.5,247.5C200.591,252.406 193.925,258.739 188.5,266.5C197.833,267.833 207.167,267.833 216.5,266.5C213.441,260.083 210.775,253.749 208.5,247.5ZM645.5,807.5C657.229,807.088 668.896,807.588 680.5,809C685.833,814.667 685.833,820.333 680.5,826C668.167,826.667 655.833,826.667 643.5,826C637.721,819.067 638.388,812.901 645.5,807.5Z"/>
    </g>
</svg>
