<?xml version="1.0" encoding="UTF-8" standalone="no"?>
<!DOCTYPE svg PUBLIC "-//W3C//DTD SVG 1.1//EN" "http://www.w3.org/Graphics/SVG/1.1/DTD/svg11.dtd">
<svg width="100%" height="100%" viewBox="0 0 1024 1024" version="1.1" xmlns="http://www.w3.org/2000/svg" xmlns:xlink="http://www.w3.org/1999/xlink" xml:space="preserve" xmlns:serif="http://www.serif.com/" style="fill-rule:evenodd;clip-rule:evenodd;stroke-linejoin:round;stroke-miterlimit:2;">
    <g transform="matrix(1.40285,0,0,1.40285,-184.629,-234.697)">
        <path d="M188.5,782.5C172.396,806.726 163.063,833.392 160.5,862.5C160.666,870.174 160.5,877.841 160,885.5C156.69,893.952 150.523,897.118 141.5,895C134.555,890.862 131.388,884.696 132,876.5C130.498,855.523 133.331,835.19 140.5,815.5C153.778,773.924 178.445,740.924 214.5,716.5C253.047,690.445 295.714,679.445 342.5,683.5C343.665,673.502 346.165,663.835 350,654.5C352.029,652.95 354.196,651.617 356.5,650.5C360.09,647.361 364.09,644.694 368.5,642.5C369.489,638.893 369.823,635.226 369.5,631.5C369.827,626.456 369.494,621.456 368.5,616.5C352.784,622.522 338.118,630.356 324.5,640C312.728,644.283 305.394,640.45 302.5,628.5C302.881,623.239 305.214,619.072 309.5,616C322.062,608.552 335.062,601.885 348.5,596C344.282,590.622 340.282,585.122 336.5,579.5C334.218,576.878 331.885,574.212 329.5,571.5C308.625,577.07 288.625,584.903 269.5,595C256.476,595.218 251.309,588.718 254,575.5C255.624,571.928 258.124,569.094 261.5,567C276.944,559.474 292.944,553.474 309.5,549C292.65,525.811 278.483,500.978 267,474.5C255.467,444.245 250.467,412.911 252,380.5C245.413,372.322 239.58,363.656 234.5,354.5C221.727,331.295 214.894,306.295 214,279.5C211.797,261.475 213.964,244.141 220.5,227.5C233.089,197.249 255.423,178.583 287.5,171.5C291.204,169.909 295.204,169.076 299.5,169C326.452,168.071 351.785,174.071 375.5,187C386.352,193.258 396.686,200.258 406.5,208C407.793,208.49 409.127,208.657 410.5,208.5C462.751,174.397 519.751,162.731 581.5,173.5C613.089,179.886 642.256,191.886 669,209.5C700.739,181.568 737.906,168.068 780.5,169C809.208,172.607 831.208,186.44 846.5,210.5C857.127,225.478 862.127,242.311 861.5,261C861.688,305.764 848.688,346.098 822.5,382C822.862,383.225 823.362,384.391 824,385.5C824.5,395.494 824.666,405.494 824.5,415.5C820.297,448.947 810.13,480.614 794,510.5C788.81,519.555 783.643,528.555 778.5,537.5C775.697,540.417 773.363,543.75 771.5,547.5C773.064,549.251 775.064,550.251 777.5,550.5C785.016,552.54 792.35,554.874 799.5,557.5C808.909,559.915 817.909,563.415 826.5,568C834.435,574.407 835.602,581.907 830,590.5C826.117,595.009 821.284,596.509 815.5,595C804.055,588.442 792.055,583.275 779.5,579.5C770.928,576.857 762.262,574.524 753.5,572.5C748.044,580.784 742.044,588.618 735.5,596C743.707,599.276 751.707,602.776 759.5,606.5C767.207,609.438 774.04,613.771 780,619.5C785.886,629.843 783.386,637.343 772.5,642C769.833,642.667 767.167,642.667 764.5,642C749.261,632.212 733.261,623.712 716.5,616.5C716.167,618 715.833,619.5 715.5,621C716.209,626.837 716.876,632.67 717.5,638.5C716.343,644.386 718.01,649.219 722.5,653C749.466,670.982 775.133,690.648 799.5,712C803.392,715.226 806.558,719.059 809,723.5C809.252,736.917 802.752,743.083 789.5,742C776.936,730.596 764.27,719.429 751.5,708.5C746.259,705.433 741.426,701.767 737,697.5C741.661,744.099 746.328,790.766 751,837.5C751.87,843.917 751.536,850.251 750,856.5C747.118,861.442 742.785,863.776 737,863.5C730.875,864.044 726.875,861.377 725,855.5C721.093,831.978 718.259,808.312 716.5,784.5C712.418,747.512 708.085,710.512 703.5,673.5C687.573,662.561 670.573,653.395 652.5,646C650.91,644.954 649.41,643.787 648,642.5C650.195,656.714 651.695,671.047 652.5,685.5C652.517,685.673 652.532,685.845 652.544,686.017C657.017,738.688 661.337,791.515 665.5,844.5C665.173,849.478 663.84,854.145 661.5,858.5C655.284,865.239 648.284,866.072 640.5,861C639.695,859.887 639.028,858.721 638.5,857.5C637.207,856.158 636.374,854.491 636,852.5C631.4,797.529 627.233,742.529 623.5,687.5C622.245,680.7 621.578,673.7 621.5,666.5C576.137,689.768 529.471,692.601 481.5,675C474.469,672.098 468.136,668.264 462.5,663.5L459.5,663.5C453.517,726.815 447.684,790.148 442,853.5C438.002,862.748 431.169,865.915 421.5,863C418.238,860.408 415.738,857.241 414,853.5C414.131,829.907 415.965,806.574 419.5,783.5C420.898,745.846 424.231,708.513 429.5,671.5C430.163,662.031 431.33,652.698 433,643.5C424.808,649.178 415.641,652.011 405.5,652C403.609,653.442 401.609,654.609 399.5,655.5C391.803,660.443 384.303,665.776 377,671.5C372.299,680.439 369.132,689.772 367.5,699.5C361.418,752.313 354.585,804.98 347,857.5C342.887,862.986 337.387,865.152 330.5,864C325.627,862.123 322.46,858.623 321,853.5C322.887,819.888 326.387,786.554 331.5,753.5L331.5,750.5C332.51,738.399 334.176,726.399 336.5,714.5C313.744,711.764 291.411,713.597 269.5,720C259.416,723.302 249.749,727.469 240.5,732.5C233.35,738.137 226.017,743.637 218.5,749C208.554,757.44 199.887,766.94 192.5,777.5C191.167,779.167 189.833,780.833 188.5,782.5ZM377.608,570.514C377.572,570.51 377.536,570.505 377.5,570.5C373.818,570.335 370.152,570.501 366.5,571C371.108,576.771 376.108,581.937 381.5,586.5C389.638,581.948 398.304,578.448 407.5,576C397.495,573.65 387.531,571.822 377.608,570.514ZM395.5,607.5C399.33,611.499 402.997,615.665 406.5,620C408.01,620.85 409.51,621.683 411,622.5C423.566,613.968 437.066,607.134 451.5,602C456.428,600.582 461.428,600.249 466.5,601C471.933,602.932 474.933,606.766 475.5,612.5C474.004,620.161 469.338,624.661 461.5,626C479.769,643.914 501.612,654.067 527.031,656.457C527.184,656.457 527.34,656.472 527.5,656.5C538.172,656.667 548.839,656.5 559.5,656C581.824,654.286 601.824,646.786 619.5,633.5C621.479,630.854 623.812,628.521 626.5,626.5C619.576,624.91 615.91,620.577 615.5,613.5C616.4,603.037 622.067,598.87 632.5,601C648.765,606.462 663.432,614.629 676.5,625.5C681.444,620.219 686.444,614.886 691.5,609.5C679.139,605.49 666.806,601.49 654.5,597.5C645.346,595.107 636.013,593.94 626.5,594C624.383,592.269 622.883,590.102 622,587.5C620.004,577.12 623.838,569.953 633.5,566C638.584,565.827 643.584,565.161 648.5,564C677.118,546.782 708.118,539.616 741.5,542.5C745.171,536.841 749.171,531.508 753.5,526.5C759.076,515.741 764.909,505.074 771,494.5C783.497,469.509 791.497,443.175 795,415.5C795.415,400.464 795.081,385.464 794,370.5C798.56,362.607 803.893,355.273 810,348.5C823.308,326.066 830.475,301.732 831.5,275.5C837.247,243.814 826.247,220.314 798.5,205C775.403,196.142 752.403,196.475 729.5,206C708.871,214.486 691.204,227.153 676.5,244C673.5,246 670.5,246 667.5,244C634.091,218.876 596.425,204.209 554.5,200C538.105,199.051 521.771,199.551 505.5,201.5C480.543,205.959 456.876,214.459 434.5,227C425.529,233.97 416.029,240.136 406,245.5C404.177,244.349 402.344,243.182 400.5,242C379.843,219.519 354.51,205.352 324.5,199.5C311.99,197.659 299.657,198.326 287.5,201.5C259.475,211.726 244.475,231.892 242.5,262C243.374,271.479 243.707,280.979 243.5,290.5C245.477,305.51 249.31,320.177 255,334.5C259.604,342.722 264.438,350.722 269.5,358.5C273.786,362.385 277.619,366.718 281,371.5C279.098,402.954 283.098,433.62 293,463.5C304.709,491.944 320.209,517.944 339.5,541.5C340.594,542.582 341.927,543.248 343.5,543.5C353.472,542.382 363.472,542.216 373.5,543C397.729,545.409 420.729,552.076 442.5,563C452.285,563.477 460.452,567.31 467,574.5C470.687,583.331 468.521,590.164 460.5,595C452.833,595.333 445.167,595.667 437.5,596C425.007,600.123 412.34,603.623 399.5,606.5C398.432,607.434 397.099,607.768 395.5,607.5ZM321.5,232.5C343.273,231.924 362.606,238.424 379.5,252C386.912,259.33 387.412,267.163 381,275.5C375.967,283.704 371.134,292.037 366.5,300.5C357.543,307.979 350.043,306.646 344,296.5C342.863,286.574 345.029,277.407 350.5,269C342.123,262.963 332.79,260.963 322.5,263C303.283,269.576 294.783,283.076 297,303.5C298.789,309.284 301.455,314.617 305,319.5C310.795,325.192 316.462,330.859 322,336.5C324.745,352.085 318.245,358.252 302.5,355C294.756,350.591 288.256,344.758 283,337.5C279.73,331.236 276.064,325.236 272,319.5C262.872,292.12 268.372,268.287 288.5,248C298.432,240.419 309.432,235.252 321.5,232.5ZM397.5,431.5C425.286,421.366 449.62,426.866 470.5,448C480.006,458.518 487.506,470.351 493,483.5C496.265,495.189 496.265,506.856 493,518.5C492.117,521.102 490.617,523.269 488.5,525C481.467,527.512 475.467,531.512 470.5,537C449.391,549.759 428.391,549.425 407.5,536C386.273,522.581 377.607,503.414 381.5,478.5C382.777,471.609 385.444,465.275 389.5,459.5C381.037,450.356 381.703,441.856 391.5,434C393.407,432.878 395.407,432.045 397.5,431.5ZM456.5,511.5C462.787,505.124 464.954,497.457 463,488.5C460.374,478.716 454.874,471.05 446.5,465.5C442.193,463.347 437.86,461.18 433.5,459C430.366,458.21 427.366,458.543 424.5,460C421.126,463.887 417.626,467.72 414,471.5C406.506,483.387 406.839,495.054 415,506.5C427.716,517.656 441.55,519.323 456.5,511.5ZM728.5,267.5C728.077,268.265 727.743,269.098 727.5,270C732.247,277.901 734.747,286.401 735,295.5C731.068,303.714 724.568,306.548 715.5,304C713.714,303.215 712.214,302.049 711,300.5C707.848,294.199 704.182,288.199 700,282.5C695.968,276.407 693.968,269.74 694,262.5C696.641,255.521 701.141,250.021 707.5,246C711.155,243.173 715.155,241.007 719.5,239.5C728.088,234.521 737.422,232.354 747.5,233C761.582,233.851 773.915,238.685 784.5,247.5C790.48,251.315 795.314,256.315 799,262.5C814.94,295.593 809.44,324.76 782.5,350C775.695,355.285 768.029,357.285 759.5,356C750.508,351.017 748.341,343.85 753,334.5C758.894,328.912 764.894,323.579 771,318.5C785.285,296.422 781.118,278.755 758.5,265.5C750.642,262.437 742.642,261.937 734.5,264C732.273,264.941 730.273,266.108 728.5,267.5ZM663.5,426.5C677.676,425.568 691.01,428.401 703.5,435C712.496,442.502 712.829,450.335 704.5,458.5C718.151,483.182 715.984,506.182 698,527.5C678.019,544.789 655.519,549.289 630.5,541C625.58,538.084 621.247,534.418 617.5,530C606.283,527.782 600.449,520.948 600,509.5C598.562,498.025 600.228,487.025 605,476.5C613.147,458.681 625.314,444.181 641.5,433C648.529,429.372 655.863,427.205 663.5,426.5ZM663.5,457.5C656.537,460.262 649.871,463.762 643.5,468C638.468,472.693 634.635,478.193 632,484.5C628.572,503.091 636.239,514.091 655,517.5C682.392,512.714 691.059,497.381 681,471.5C677.323,463.975 671.49,459.309 663.5,457.5ZM537.5,544.5C556.924,543.213 574.591,548.046 590.5,559C601.8,569.85 604.634,582.683 599,597.5C595.682,605.957 590.516,613.123 583.5,619C575.803,624.513 567.803,629.513 559.5,634C555.303,635.633 550.969,636.8 546.5,637.5C527.447,632.388 512.281,621.721 501,605.5C488.743,581.693 494.243,563.193 517.5,550C524.213,547.81 530.88,545.977 537.5,544.5ZM539.5,573.5C534.079,575.397 529.579,578.731 526,583.5C525.416,586.257 525.75,588.923 527,591.5C531.55,599.05 537.717,604.884 545.5,609C547.5,609.667 549.5,609.667 551.5,609C557.258,605.246 562.425,600.746 567,595.5C569.298,591.782 569.965,587.782 569,583.5C560.962,575.191 551.129,571.858 539.5,573.5ZM715.5,579.5C716.644,576.553 718.311,573.887 720.5,571.5C706.511,570.099 692.844,571.599 679.5,576C680.094,576.464 680.761,576.631 681.5,576.5C690.664,579.388 699.831,582.388 709,585.5C711.384,583.727 713.551,581.727 715.5,579.5Z"/>
    </g>
</svg>
