<?xml version="1.0" encoding="UTF-8" standalone="no"?>
<!DOCTYPE svg PUBLIC "-//W3C//DTD SVG 1.1//EN" "http://www.w3.org/Graphics/SVG/1.1/DTD/svg11.dtd">
<svg width="100%" height="100%" viewBox="0 0 1024 1024" version="1.1" xmlns="http://www.w3.org/2000/svg" xmlns:xlink="http://www.w3.org/1999/xlink" xml:space="preserve" xmlns:serif="http://www.serif.com/" style="fill-rule:evenodd;clip-rule:evenodd;stroke-linejoin:round;stroke-miterlimit:2;">
    <g transform="matrix(1.37814,0,0,1.37814,-210.727,-203.275)">
        <path d="M201.456,842.952C200.33,672.631 200.178,502.147 201,331.5C205.412,323.551 211.912,321.384 220.5,325C222.001,326.252 223.668,327.252 225.5,328C226.252,328.671 226.586,329.504 226.5,330.5C226.369,331.376 226.702,332.043 227.5,332.5C237.984,263.908 272.317,211.074 330.5,174C349.537,163.043 369.87,155.543 391.5,151.5C400.201,149.134 409.201,147.968 418.5,148C471.833,147.333 525.167,147.333 578.5,148C582.356,148.177 586.023,148.677 589.5,149.5C639.669,153.481 678.169,176.481 705,218.5C705.273,220.101 705.773,221.601 706.5,223C722.167,223.333 737.833,223.667 753.5,224C767.579,227.068 774.579,235.735 774.5,250C807.448,260.947 829.948,282.78 842,315.5C848.833,335.826 850.166,356.493 846,377.5C840.989,399.538 832.656,420.204 821,439.5C810.794,448.466 802.127,447.133 795,435.5C792.615,425.959 789.615,416.626 786,407.5C782.308,400.974 777.141,395.974 770.5,392.5C761.28,398.951 752.614,406.117 744.5,414L693,465.5C691.906,467.078 691.072,468.745 690.5,470.5C690.879,516.18 690.379,561.847 689,607.5C687.184,629.043 684.018,650.376 679.5,671.5C669.449,711.486 657.282,750.82 643,789.5C638.588,798.657 633.922,807.657 629,816.5C621.976,825.682 614.81,834.682 607.5,843.5C574.794,873.358 536.127,888.858 491.5,890C420.151,890.957 348.818,890.623 277.5,889C256.177,886.339 238.177,877.339 223.5,862C212.45,864.31 205.117,860.143 201.5,849.5C201.436,847.316 201.422,845.134 201.456,842.952ZM530.5,686.5C476,743.501 422,801.001 368.5,859C401.165,859.5 433.832,859.667 466.5,859.5C474.147,830.39 483.314,801.723 494,773.5C506.146,744.154 518.313,715.154 530.5,686.5ZM772.5,278.5C769.707,288.422 765.54,297.755 760,306.5C748.147,323.353 731.98,333.519 711.5,337C697.837,337.5 684.171,337.667 670.5,337.5L670.5,363.5C705.535,363.041 740.535,363.541 775.5,365C792.954,368.785 804.788,378.952 811,395.5C818,378.835 820.666,361.501 819,343.5C815.604,312.97 800.104,291.304 772.5,278.5ZM230.5,392.5C230.333,530.834 230.5,669.167 231,807.5C246.99,788.512 263.323,769.845 280,751.5C280.667,650.5 280.667,549.5 280,448.5C263.234,429.911 246.734,411.244 230.5,392.5ZM309.5,858.5C315.987,859.654 322.654,859.821 329.5,859L334,854.5C374.695,809.807 415.362,765.141 456,720.5C491.194,683.304 527.194,646.637 564,610.5C572.655,599.709 577.488,587.375 578.5,573.5C579.419,559.072 574.419,547.239 563.5,538C544.862,527.119 524.862,519.786 503.5,516C498.12,515.404 492.787,515.738 487.5,517C472.809,522.691 459.975,531.191 449,542.5C402.929,595.064 357.095,647.73 311.5,700.5C310.838,753.264 310.171,805.931 309.5,858.5ZM535.5,176.5C494.832,176.333 454.165,176.5 413.5,177C385.887,179.817 360.554,188.817 337.5,204C280.07,246.871 251.903,304.371 253,376.5C269.964,395.799 287.298,414.799 305,433.5C309.086,440.217 310.586,447.55 309.5,455.5L309.5,639.5C309.334,645.509 309.501,651.509 310,657.5C329.924,633.572 350.59,610.239 372,587.5C389.333,566.833 406.667,546.167 424,525.5C432.369,517.407 441.202,509.907 450.5,503C463.174,493.274 477.508,487.774 493.5,486.5C516.603,489.367 538.936,495.201 560.5,504C594.962,519.426 610.462,545.926 607,583.5C603.667,598.666 598.834,613.332 592.5,627.5C566.652,678.527 542.986,730.527 521.5,783.5C511.343,808.807 502.51,834.474 495,860.5C512.515,859.863 529.348,856.029 545.5,849C573.975,836.854 595.808,817.354 611,790.5C622.79,762.129 632.79,733.129 641,703.5C651.273,669.528 657.773,634.862 660.5,599.5C661.271,552.842 661.771,506.175 662,459.5C663.333,456.833 664.667,454.167 666,451.5C684.652,431.681 703.819,412.348 723.5,393.5C698.753,392.982 674.086,392.148 649.5,391C645.324,387.481 643.157,382.981 643,377.5C642.333,360.833 642.333,344.167 643,327.5C644.488,319.002 649.322,313.502 657.5,311C674.528,310.857 691.528,310.19 708.5,309C723.615,304.884 734.449,295.717 741,281.5C744.854,272.226 746.354,262.559 745.5,252.5L704.5,252.5C699.615,266.548 689.949,275.714 675.5,280C660.878,281.394 646.211,281.894 631.5,281.5C624.384,313.116 605.05,332.616 573.5,340C533.912,343.13 508.745,325.63 498,287.5C497.718,283.961 497.218,280.461 496.5,277C493.236,275.009 489.903,273.009 486.5,271C480.751,262.49 481.417,254.49 488.5,247C550.167,246.667 611.833,246.333 673.5,246C677.205,243.454 679.538,239.954 680.5,235.5C670.543,213.379 654.21,197.879 631.5,189C600.519,177.428 568.519,173.261 535.5,176.5ZM524.5,279.5C528.205,295.121 537.538,305.621 552.5,311C579.885,313.812 597.219,301.979 604.5,275.5L523.5,275.5C523.232,277.099 523.566,278.432 524.5,279.5ZM279.5,795.5C267.697,809.805 255.697,823.972 243.5,838C252.364,851.103 264.697,858.603 280.5,860.5C280.831,838.66 280.497,816.994 279.5,795.5Z"/>
    </g>
</svg>
