<?xml version="1.0" encoding="UTF-8" standalone="no"?>
<!DOCTYPE svg PUBLIC "-//W3C//DTD SVG 1.1//EN" "http://www.w3.org/Graphics/SVG/1.1/DTD/svg11.dtd">
<svg width="100%" height="100%" viewBox="0 0 1024 1024" version="1.1" xmlns="http://www.w3.org/2000/svg" xmlns:xlink="http://www.w3.org/1999/xlink" xml:space="preserve" xmlns:serif="http://www.serif.com/" style="fill-rule:evenodd;clip-rule:evenodd;stroke-linejoin:round;stroke-miterlimit:2;">
    <g transform="matrix(1.6384,0,0,1.6384,-310.655,-312.115)">
        <path d="M251.5,347.5C252.451,346.081 252.784,344.415 252.5,342.5L207.5,342.5C204.95,342.116 203.617,340.616 203.5,338C203.858,335.968 204.692,334.134 206,332.5C225.385,310.05 244.052,287.05 262,263.5C271.86,251.817 284.36,244.651 299.5,242C293.881,237.948 290.381,232.448 289,225.5C287.208,211.593 292.041,200.76 303.5,193C306.101,192.08 308.768,191.413 311.5,191C325.5,190.333 339.5,190.333 353.5,191C368.792,195.311 375.959,205.478 375,221.5C373.893,229.203 370.059,235.037 363.5,239C393.74,250.074 414.073,270.907 424.5,301.5C461.71,281.784 501.376,273.617 543.5,277C647.363,286.571 718.196,339.737 756,436.5C759.934,448.901 762.6,461.568 764,474.5C764.746,491.557 764.413,508.557 763,525.5C776.065,540.578 786.731,557.245 795,575.5C806.155,601.71 800.989,624.21 779.5,643C766.65,654.264 752.317,663.264 736.5,670C724.887,674.491 712.887,676.158 700.5,675C689.716,673.204 679.049,671.204 668.5,669C644.169,682.667 621.503,698.667 600.5,717C587.176,726.07 574.343,735.237 562,744.5C570.356,751.858 578.356,759.524 586,767.5C592.512,781.64 588.679,786.14 574.5,781C567.737,772.233 560.237,764.067 552,756.5C552.464,770.751 552.631,785.084 552.5,799.5C564.576,799.062 576.576,799.562 588.5,801C595.285,806.289 594.951,810.956 587.5,815C538.167,815.667 488.833,815.667 439.5,815C435.954,814.287 433.954,812.12 433.5,808.5C434.389,805.721 435.556,803.055 437,800.5C446.001,794.083 455.835,789.416 466.5,786.5C466.335,783.15 466.502,779.817 467,776.5L469.5,774C483.441,772.571 497.441,772.071 511.5,772.5C511.831,764.14 511.498,755.807 510.5,747.5C498.097,732.759 486.43,717.426 475.5,701.5C405.354,686.362 347.854,651.029 303,595.5C256.783,534.517 246.616,467.851 272.5,395.5C260.562,389.978 253.729,380.644 252,367.5C251.5,360.842 251.334,354.175 251.5,347.5ZM267.5,340.5C267.114,349.9 267.614,359.234 269,368.5C271.184,373.688 274.518,378.022 279,381.5C282.746,375.26 285.079,368.593 286,361.5C281.748,352.752 275.581,345.752 267.5,340.5ZM317.5,253.5C310.955,255.306 304.289,257.139 297.5,259C287.756,262.619 279.256,268.119 272,275.5C265.964,286.1 263.964,297.433 266,309.5C266.802,319.296 271.635,326.129 280.5,330C286.796,335.289 291.962,341.456 296,348.5C299.824,340.859 302.491,332.859 304,324.5L306.5,322C314.451,320.145 318.451,323.311 318.5,331.5C317.807,336.607 316.64,341.607 315,346.5C304.853,364.277 295.853,382.61 288,401.5C267.367,454.924 270.367,506.924 297,557.5C323.052,601.624 358.885,635.457 404.5,659C476.189,692.421 549.522,696.421 624.5,671C712.199,634.464 753.366,568.631 748,473.5C732.016,393.518 686.183,338.351 610.5,308C548.872,284.792 488.538,287.625 429.5,316.5C432.647,327.756 435.481,339.089 438,350.5C441.801,360.638 448.967,366.804 459.5,369C485.5,369.333 511.5,369.667 537.5,370C589.424,371.001 631.257,391.834 663,432.5C693.652,480.234 686.152,520.734 640.5,554C605.311,573.19 568.311,577.523 529.5,567C476.728,544.23 437.562,507.063 412,455.5C409.614,450.691 408.28,445.691 408,440.5C412.711,435.565 417.544,435.565 422.5,440.5C437.904,474.741 460.57,503.241 490.5,526C538.824,563.999 588.824,566.333 640.5,533C647.068,528.267 652.401,522.434 656.5,515.5C646.651,491.466 634.984,468.466 621.5,446.5C621.876,444.617 622.876,443.117 624.5,442C627.956,440.877 630.79,441.71 633,444.5C642,459.167 651,473.833 660,488.5C661.562,490.957 662.562,493.624 663,496.5C664.7,481.638 662.7,467.305 657,453.5C640.171,426.009 616.671,406.509 586.5,395C561.997,388.047 536.997,384.881 511.5,385.5C495.167,386.167 478.833,386.333 462.5,386C444.374,384.699 431.541,375.865 424,359.5C419.288,339.986 413.955,320.653 408,301.5C390.167,262.938 360,246.938 317.5,253.5ZM286.5,278.5C300.783,278.615 306.283,285.615 303,299.5C297.74,306.364 291.24,307.864 283.5,304C278.854,298.689 277.354,292.523 279,285.5C280.767,282.228 283.267,279.895 286.5,278.5ZM605.5,489.5C607.857,489.337 610.19,489.503 612.5,490C620.523,499.213 627.689,509.046 634,519.5C634.556,525.611 631.723,528.444 625.5,528C619.631,520.429 614.131,512.596 609,504.5L603,498.5C602.333,496.833 602.333,495.167 603,493.5C604.095,492.307 604.928,490.973 605.5,489.5ZM313.5,206.5C303.637,210.574 301.137,217.574 306,227.5C314.415,237.08 324.915,240.246 337.5,237C346.261,234.719 353.094,229.885 358,222.5C360.075,215.489 357.908,210.323 351.5,207C338.838,206.5 326.171,206.333 313.5,206.5ZM483.5,799.5L537.5,799.5C537.821,771.968 537.487,744.468 536.5,717C536.862,715.775 537.362,714.609 538,713.5C544.594,709.704 549.427,711.538 552.5,719C551.634,723.866 551.134,728.699 551,733.5C564.721,722.39 578.888,711.89 593.5,702C595.017,700.315 596.684,698.815 598.5,697.5C597.833,697.167 597.167,696.833 596.5,696.5C562.379,702.779 528.046,704.612 493.5,702C498.982,709.81 504.815,717.31 511,724.5C511.333,721.5 511.667,718.5 512,715.5C516.567,709.236 521.567,708.902 527,714.5C527.333,737.833 527.667,761.167 528,784.5C528.374,785.416 528.874,786.25 529.5,787C512.837,787.5 496.17,787.667 479.5,787.5C479.768,790.119 479.435,792.619 478.5,795C474.986,796.562 471.319,797.395 467.5,797.5C472.833,798.167 478.167,798.833 483.5,799.5ZM252.5,324.5C251.341,317.888 250.508,311.221 250,304.5C244.239,312.265 237.739,319.431 230.5,326C233.482,326.498 236.482,326.665 239.5,326.5C244.294,327.097 248.627,326.43 252.5,324.5ZM758.5,544.5C750.065,581.205 732.399,612.705 705.5,639C698.727,645.107 691.393,650.44 683.5,655C697.72,660.453 712.054,660.787 726.5,656C746.405,647.978 763.572,636.145 778,620.5C783.673,610.771 785.007,600.438 782,589.5C776.207,573.241 768.374,558.241 758.5,544.5Z"/>
    </g>
</svg>
