<?xml version="1.0" encoding="UTF-8" standalone="no"?>
<!DOCTYPE svg PUBLIC "-//W3C//DTD SVG 1.1//EN" "http://www.w3.org/Graphics/SVG/1.1/DTD/svg11.dtd">
<svg width="100%" height="100%" viewBox="0 0 1024 1024" version="1.1" xmlns="http://www.w3.org/2000/svg" xmlns:xlink="http://www.w3.org/1999/xlink" xml:space="preserve" xmlns:serif="http://www.serif.com/" style="fill-rule:evenodd;clip-rule:evenodd;stroke-linejoin:round;stroke-miterlimit:2;">
    <g transform="matrix(1.31349,0,0,1.31349,-148.657,-162.255)">
        <path d="M263.5,511.5C237.662,505.667 215.829,493 198,473.5C191.577,466.281 185.411,458.948 179.5,451.5C170.799,437.811 162.133,424.144 153.5,410.5C140.485,387.464 129.318,363.464 120,338.5C118.12,331.221 116.453,323.888 115,316.5C108.213,283.722 120.38,261.722 151.5,250.5C152.492,250.672 153.158,250.338 153.5,249.5C155.565,249.483 157.565,249.15 159.5,248.5C176.854,246.369 193.854,248.036 210.5,253.5C246.727,264.607 279.393,281.941 308.5,305.5C313.383,308.109 317.716,311.443 321.5,315.5C332.839,324.182 343.839,333.349 354.5,343C377.901,364.945 400.734,387.445 423,410.5C432.755,421.081 441.921,432.081 450.5,443.5C451.833,444.5 453.167,445.5 454.5,446.5C458.076,450.639 460.909,455.306 463,460.5C466.53,473.024 462.03,478.524 449.5,477C442.933,471.43 437.433,464.93 433,457.5C425.635,448.641 418.135,439.974 410.5,431.5C406.833,427.5 403.167,423.5 399.5,419.5C389.194,408.86 378.861,398.193 368.5,387.5C346.688,367.859 324.688,348.359 302.5,329C287.769,317.102 272.103,306.602 255.5,297.5C231.855,283.845 206.522,275.012 179.5,271C172.783,270.244 166.117,270.411 159.5,271.5C157.299,272.566 154.965,273.233 152.5,273.5C138.709,281.099 133.542,292.766 137,308.5C139.515,320.714 142.849,332.714 147,344.5C164.723,386.996 188.223,425.663 217.5,460.5C228.487,471.331 241.154,479.664 255.5,485.5C257.403,485.796 259.07,486.463 260.5,487.5C269.471,489.326 278.471,490.993 287.5,492.5C342.5,493.167 397.5,493.833 452.5,494.5C456.453,500.941 456.453,507.274 452.5,513.5C450.981,514.41 449.315,515.243 447.5,516C399.5,516.667 351.5,516.667 303.5,516C290.017,515.619 276.683,514.119 263.5,511.5ZM818.5,271.5C805.954,274.227 793.62,278.06 781.5,283C745.712,299.881 713.379,321.714 684.5,348.5C680.209,351.123 676.543,354.456 673.5,358.5C665.037,365.793 656.704,373.293 648.5,381C627.965,402.533 607.799,424.366 588,446.5C581.283,455.044 574.783,463.71 568.5,472.5C566.833,473.5 565.5,474.833 564.5,476.5C560.149,479.269 555.982,478.936 552,475.5C548.363,467.527 549.03,459.861 554,452.5C593.322,402.841 637.156,357.341 685.5,316C694.099,308.894 703.099,302.394 712.5,296.5C720.119,290.684 728.119,285.35 736.5,280.5C758.183,266.996 781.516,257.33 806.5,251.5C810.702,250.033 815.035,249.033 819.5,248.5C841.692,244.463 861.359,249.63 878.5,264C890.25,276.588 894.75,291.421 892,308.5C886.096,340.214 875.429,370.214 860,398.5C847.486,420.659 833.819,441.992 819,462.5C810.602,472.399 801.435,481.399 791.5,489.5C775.576,500.96 757.91,508.293 738.5,511.5C731.035,513.708 723.369,514.875 715.5,515C663.5,515.667 611.5,515.667 559.5,515C557.106,513.048 555.606,510.548 555,507.5C553.417,501.85 554.917,497.35 559.5,494C564.823,493.501 570.156,493.334 575.5,493.5C619.168,493.667 662.835,493.5 706.5,493C716.246,492.417 725.912,491.25 735.5,489.5C741.396,487.526 747.396,485.859 753.5,484.5C759.075,481.713 764.741,478.879 770.5,476C782.926,466.909 794.093,456.409 804,444.5C823.049,417.747 839.549,389.413 853.5,359.5C857.193,349.414 860.859,339.414 864.5,329.5C865.347,324.112 866.513,318.779 868,313.5C873.271,294.75 867.438,281.084 850.5,272.5C839.928,270.203 829.261,269.87 818.5,271.5ZM368.5,776.5C343.381,779.861 318.047,780.361 292.5,778C235.657,766.792 210.824,732.292 218,674.5C219.083,667.817 220.916,661.483 223.5,655.5C225.816,647.195 228.983,639.195 233,631.5C272.975,569.914 329.809,536.747 403.5,532C417.889,531.07 432.222,531.403 446.5,533C448.742,534.422 450.409,536.255 451.5,538.5C452.604,546.807 449.27,552.307 441.5,555C427.504,555.5 413.504,555.667 399.5,555.5C382.366,556.133 365.7,559.133 349.5,564.5C341.575,567.588 333.909,571.255 326.5,575.5C302.929,588.062 282.262,604.395 264.5,624.5C252.12,641.605 243.787,660.605 239.5,681.5C238.564,694.473 239.897,707.14 243.5,719.5C244.987,722.473 246.487,725.473 248,728.5C258.987,741.576 272.821,749.91 289.5,753.5C292.807,754.051 296.14,754.384 299.5,754.5C319.026,757.113 338.693,757.113 358.5,754.5C361.833,754.167 365.167,753.833 368.5,753.5C371.761,752.622 375.094,751.956 378.5,751.5C386.667,749.049 394.667,745.883 402.5,742C409.115,737.719 415.448,733.053 421.5,728C442.905,707.031 456.905,681.864 463.5,652.5C463.294,649.505 463.96,646.838 465.5,644.5C472.684,608.073 476.653,571.438 477.407,534.597C477.183,527.97 477.214,521.271 477.5,514.5L477.5,495.5C478.012,481.4 479.512,467.4 482,453.5C483.621,446.467 486.121,439.8 489.5,433.5L489.5,432.5C492.72,429.117 496.386,426.284 500.5,424C513.252,423.738 521.086,429.905 524,442.5C525.657,451.088 526.657,459.755 527,468.5C527.548,505.199 528.881,541.866 531,578.5C531.912,587.014 533.079,595.347 534.5,603.5C536.701,624.967 541.701,645.634 549.5,665.5C553.589,677.012 558.756,688.012 565,698.5C581.746,725.071 605.246,742.738 635.5,751.5C641.251,753.264 647.251,754.431 653.5,755C670.167,755.667 686.833,755.667 703.5,755C713.79,754.094 723.79,751.927 733.5,748.5C735.751,747.305 738.085,746.305 740.5,745.5C751.841,740.325 760.007,731.992 765,720.5C769.989,704.394 770.822,688.061 767.5,671.5C765.231,663.272 762.064,655.272 758,647.5C751.104,636.603 743.438,626.27 735,616.5C727.049,609.717 719.549,602.383 712.5,594.5C676.795,567.711 636.462,554.711 591.5,555.5C581.828,555.666 572.161,555.5 562.5,555C559.183,553.52 557.183,551.02 556.5,547.5L556.5,546.5L555.5,546.5C554.528,540.552 556.528,536.052 561.5,533C582.859,532.124 604.192,532.457 625.5,534C639.521,535.756 653.188,538.922 666.5,543.5C679.872,549.353 692.872,556.02 705.5,563.5C728.266,576.929 747.6,594.262 763.5,615.5C765.412,617.657 767.079,619.991 768.5,622.5C793.242,655.291 799.076,691.291 786,730.5C776.193,750.475 760.693,763.809 739.5,770.5C731.663,774.207 723.33,776.54 714.5,777.5C692.194,779.979 669.86,780.146 647.5,778C635.916,776.104 624.583,773.271 613.5,769.5C603.603,764.547 593.936,759.047 584.5,753C556.759,731.046 537.259,703.213 526,669.5C514.998,633.65 509.164,596.983 508.5,559.5C507.027,525.34 506.027,491.007 505.5,456.5L502.5,456.5C500.227,496.113 498.727,535.78 498,575.5C495.997,594.193 493.83,612.86 491.5,631.5C488.623,642.689 485.789,654.022 483,665.5C476.73,691.56 464.896,714.56 447.5,734.5C438.059,743.617 428.059,751.95 417.5,759.5L415.5,759.5C401.277,768.91 385.61,774.577 368.5,776.5ZM454.5,287.5C462.538,295.189 470.372,303.189 478,311.5C491.103,327.959 500.77,346.292 507,366.5C517.782,335.406 535.616,309.239 560.5,288C567.586,281.54 575.752,277.04 585,274.5C590.258,274.774 594.258,277.107 597,281.5C598.653,287.378 597.153,292.212 592.5,296C581.462,300.668 572.129,307.501 564.5,316.5C555.386,325.453 547.553,335.453 541,346.5C528.746,369.444 519.579,393.444 513.5,418.5C508.456,418.827 503.456,418.494 498.5,417.5C498.192,416.692 497.692,416.025 497,415.5C494.107,403.141 491.107,390.808 488,378.5C482.142,359.447 473.142,342.114 461,326.5C450.215,312.539 436.715,302.206 420.5,295.5C414.963,286.06 417.296,279.227 427.5,275C431.316,274.599 434.983,275.266 438.5,277C444.004,280.356 449.337,283.856 454.5,287.5Z"/>
    </g>
</svg>
