<?xml version="1.0" encoding="UTF-8" standalone="no"?>
<!DOCTYPE svg PUBLIC "-//W3C//DTD SVG 1.1//EN" "http://www.w3.org/Graphics/SVG/1.1/DTD/svg11.dtd">
<svg width="100%" height="100%" viewBox="0 0 1024 1024" version="1.1" xmlns="http://www.w3.org/2000/svg" xmlns:xlink="http://www.w3.org/1999/xlink" xml:space="preserve" xmlns:serif="http://www.serif.com/" style="fill-rule:evenodd;clip-rule:evenodd;stroke-linejoin:round;stroke-miterlimit:2;">
    <g transform="matrix(1.37606,0,0,1.37606,-209.782,-196.019)">
        <path d="M377.5,273.5C399.473,272.638 411.807,283.138 414.5,305C412.668,325.665 401.334,336.832 380.5,338.5C358.734,335.227 348.568,322.561 350,300.5C353.859,285.805 363.026,276.805 377.5,273.5ZM378.5,300.5C375.446,302.28 374.279,304.946 375,308.5C376.711,311.58 379.211,312.746 382.5,312C388.518,305.943 387.185,302.11 378.5,300.5ZM585.5,273.5C603.525,272.424 615.359,280.424 621,297.5C623.723,325.778 610.889,338.945 582.5,337C564.79,329.756 557.29,316.589 560,297.5C563.574,284.088 572.074,276.088 585.5,273.5ZM588.5,300.5C587.152,301.601 585.652,302.601 584,303.5C583.313,305.568 583.48,307.568 584.5,309.5C587.085,312.864 589.918,313.197 593,310.5C595.948,304.959 594.448,301.626 588.5,300.5ZM418.5,463.5C403.694,453.573 392.36,440.573 384.5,424.5C376.887,424.367 369.22,424.2 361.5,424C356.374,422.018 352.374,418.852 349.5,414.5C347.378,407.837 348.711,402.003 353.5,397C364.397,395.546 375.397,395.046 386.5,395.5C386.201,374.566 392.035,355.566 404,338.5C428.543,307.317 460.71,293.151 500.5,296C553.633,308.294 583.3,341.461 589.5,395.5C598.839,395.334 608.173,395.5 617.5,396C622.946,398.535 625.946,402.868 626.5,409C625.934,417.231 621.6,421.898 613.5,423C605.254,423.815 597.088,423.648 589,422.5C584.827,431.337 579.827,439.671 574,447.5C552.943,470.779 526.776,484.112 495.5,487.5C472.98,489.284 451.98,484.618 432.5,473.5C427.531,470.522 422.865,467.189 418.5,463.5ZM523.5,450.5C541.89,442.463 555.056,429.463 563,411.5C550.023,422.875 534.856,427.375 517.5,425C506.542,422.511 497.542,417.011 490.5,408.5C471.406,425.46 449.739,429.96 425.5,422C419.871,419.602 415.037,416.102 411,411.5C412.554,417.276 415.221,422.609 419,427.5C431.662,442.257 447.496,452.091 466.5,457C475.382,459.034 484.382,459.868 493.5,459.5C503.697,457.447 513.697,454.447 523.5,450.5ZM501.5,373.5C501.799,377.105 502.965,380.439 505,383.5C514.227,396.483 526.393,400.317 541.5,395C552.973,390.547 557.473,382.38 555,370.5C549.52,356.349 540.354,345.183 527.5,337C508.641,323.455 487.974,319.789 465.5,326C447.645,333.854 433.478,346.021 423,362.5C417.998,370.428 417.664,378.428 422,386.5C431.447,396.408 442.947,399.908 456.5,397C470.989,392.864 478.156,383.364 478,368.5C477.107,367.919 476.107,367.585 475,367.5C463.778,373.229 454.778,370.896 448,360.5C444.833,352.203 446.333,345.037 452.5,339C475.5,338.333 498.5,338.333 521.5,339C527.009,342.33 530.009,347.33 530.5,354C526.936,369.115 517.936,373.615 503.5,367.5C501.692,368.918 501.025,370.918 501.5,373.5ZM208.5,588.5C203.716,520.867 214.216,455.533 240,392.5C242.34,387.145 245.174,382.145 248.5,377.5C252.82,370.21 257.653,363.21 263,356.5C263.115,344.752 264.115,333.086 266,321.5C267.155,315.158 268.989,309.158 271.5,303.5C273.422,293.157 276.589,283.157 281,273.5C294.05,245.069 312.216,220.402 335.5,199.5C342.48,194.516 349.146,189.183 355.5,183.5C361.304,180.43 366.97,177.097 372.5,173.5C426.951,141.319 484.618,134.152 545.5,152C559.673,156.213 573.006,162.046 585.5,169.5C591.604,172.386 597.604,175.553 603.5,179C625.644,193.645 644.311,211.812 659.5,233.5C664.137,239.653 668.637,245.986 673,252.5C684.825,273.473 692.659,295.807 696.5,319.5C697.167,319.5 697.5,319.833 697.5,320.5C702.476,353.428 701.142,386.095 693.5,418.5C690.44,430.091 686.773,441.424 682.5,452.5C680.673,457.144 679.173,461.81 678,466.5C697.214,462.254 716.381,462.754 735.5,468C774.956,481.124 802.456,506.957 818,545.5C819.604,553.022 817.437,559.189 811.5,564C805.499,566.348 799.833,565.848 794.5,562.5C791.91,556.57 789.41,550.57 787,544.5C757.76,496.193 716.26,481.359 662.5,500C689.133,523.763 705.466,553.263 711.5,588.5C713.137,593.927 714.137,599.593 714.5,605.5C715.808,624.169 713.974,642.502 709,660.5C698.112,693.383 679.945,721.55 654.5,745C620.59,773.8 582.257,795.133 539.5,809C535.5,809.667 531.5,809.667 527.5,809C525.714,808.215 524.214,807.049 523,805.5C516.418,794.177 519.251,786.343 531.5,782C544.552,777.983 557.218,772.983 569.5,767C603.215,751.29 632.382,729.457 657,701.5C665.414,690.659 672.248,678.992 677.5,666.5C679.503,659.83 681.503,653.163 683.5,646.5C692.103,605.332 683.936,567.999 659,534.5C653.572,529.872 647.739,525.872 641.5,522.5C640.833,522.167 640.167,521.833 639.5,521.5C639.833,522.833 640.167,524.167 640.5,525.5C647.48,558.044 645.314,590.044 634,621.5C620.273,656.663 600.773,687.996 575.5,715.5C563.167,729.5 550.833,743.5 538.5,757.5C520.977,775.191 501.31,790.025 479.5,802C475.693,803.881 471.693,805.047 467.5,805.5C437.245,813.964 415.079,803.964 401,775.5C394.391,756.242 393.891,736.908 399.5,717.5C401.04,710.01 403.207,702.677 406,695.5C407.5,692.667 409.667,690.5 412.5,689C419.167,686.572 425.5,687.238 431.5,691C435.718,698.545 435.052,705.712 429.5,712.5C427.181,720.776 425.014,729.11 423,737.5C421.005,752.878 425.172,766.211 435.5,777.5C439.534,779.621 443.867,780.954 448.5,781.5C457.819,780.674 466.486,777.841 474.5,773C484.116,766.385 493.45,759.385 502.5,752C524.41,731.426 544.91,709.593 564,686.5C589.16,656.18 606.327,621.846 615.5,583.5C619.281,558.142 617.614,533.142 610.5,508.5C633.178,487.151 649.844,461.818 660.5,432.5C664.373,419.705 667.54,406.705 670,393.5C670.5,386.508 670.666,379.508 670.5,372.5C663.291,371.065 656.624,368.232 650.5,364C646.736,360.304 644.736,355.804 644.5,350.5C644.223,343.862 647.223,339.695 653.5,338C659.849,338.004 665.683,339.838 671,343.5C671.498,340.183 671.665,336.85 671.5,333.5C670.009,325.636 668.509,317.636 667,309.5C647.891,245.891 607.058,202.891 544.5,180.5C528.377,176.441 512.044,173.274 495.5,171C485.82,170.421 476.153,170.588 466.5,171.5C411.404,178.042 366.071,202.376 330.5,244.5C330.672,245.492 330.338,246.158 329.5,246.5C313.201,267.699 301.868,291.366 295.5,317.5C294.596,318.209 294.263,319.209 294.5,320.5C294.5,321.167 294.167,321.5 293.5,321.5C292.883,328.232 292.383,334.898 292,341.5C295.176,338.951 298.843,337.618 303,337.5C316.151,340.094 319.651,347.427 313.5,359.5C312.038,360.458 310.705,361.624 309.5,363C302.084,365.542 295.084,368.875 288.5,373C281.151,380.87 274.651,389.37 269,398.5C256.644,424.246 248.144,451.246 243.5,479.5C240.223,491.162 238.223,503.162 237.5,515.5C237.5,516.167 237.167,516.5 236.5,516.5C226.773,601.614 247.273,678.281 298,746.5C329.397,786.446 368.563,816.112 415.5,835.5C421.157,838.047 426.824,840.38 432.5,842.5C457.564,850.446 483.231,855.446 509.5,857.5C530.507,860.1 551.507,859.934 572.5,857C624.384,852.427 672.384,836.594 716.5,809.5C741.27,793.238 762.77,773.238 781,749.5C801.557,719.83 812.557,686.83 814,650.5C817.623,645.679 822.456,643.679 828.5,644.5C832.695,644.681 836.195,646.347 839,649.5C841.248,655.605 842.081,661.939 841.5,668.5C834.666,722.173 810.999,766.839 770.5,802.5C754.038,816.893 736.371,829.56 717.5,840.5C717.158,841.338 716.492,841.672 715.5,841.5C692.551,855.633 667.884,865.966 641.5,872.5C641.5,873.167 641.167,873.5 640.5,873.5C639.209,873.263 638.209,873.596 637.5,874.5C607.983,881.955 577.983,885.955 547.5,886.5C506.816,887.45 467.149,881.783 428.5,869.5C410.364,864.593 393.364,857.26 377.5,847.5C368.485,843.324 359.818,838.491 351.5,833C313.155,806.656 281.655,773.823 257,734.5C228.359,690.077 212.192,641.41 208.5,588.5Z"/>
    </g>
</svg>
