<?xml version="1.0" encoding="UTF-8" standalone="no"?>
<!DOCTYPE svg PUBLIC "-//W3C//DTD SVG 1.1//EN" "http://www.w3.org/Graphics/SVG/1.1/DTD/svg11.dtd">
<svg width="100%" height="100%" viewBox="0 0 1024 1024" version="1.1" xmlns="http://www.w3.org/2000/svg" xmlns:xlink="http://www.w3.org/1999/xlink" xml:space="preserve" xmlns:serif="http://www.serif.com/" style="fill-rule:evenodd;clip-rule:evenodd;stroke-linejoin:round;stroke-miterlimit:2;">
    <g transform="matrix(1.59377,0,0,1.59377,-304.311,-369.755)">
        <path d="M657.5,631.5C659.181,637.384 660.348,643.384 661,649.5C663.333,671.997 661.166,693.997 654.5,715.5C645.431,742.295 630.764,765.629 610.5,785.5C563.688,824.802 511.688,833.302 454.5,811C410,788.82 381.167,753.653 368,705.5C362.68,680.917 362.18,656.251 366.5,631.5C339.836,632.064 313.17,632.564 286.5,633C285.614,634.615 284.614,636.115 283.5,637.5C263.093,663.58 243.427,690.247 224.5,717.5C218.569,724.473 211.236,726.307 202.5,723C197.912,718.811 196.412,713.645 198,707.5C200.079,703.007 202.412,698.674 205,694.5C227.219,665.282 249.052,635.782 270.5,606C307.161,604.576 343.828,603.41 380.5,602.5C388.167,581.674 400.834,564.507 418.5,551C414.652,546.139 412.319,540.639 411.5,534.5C398.862,536.428 386.195,538.095 373.5,539.5C364.688,539.408 356.022,538.241 347.5,536C337.253,532.25 327.253,527.917 317.5,523C302.337,514.586 287.337,505.919 272.5,497C270.641,495.442 269.141,493.609 268,491.5C267.333,448.167 267.333,404.833 268,361.5C272.029,353.409 278.529,350.576 287.5,353C291.693,354.526 294.526,357.359 296,361.5C296.265,400.616 296.765,439.616 297.5,478.5C315.02,489.095 333.02,498.929 351.5,508C359.003,510.251 366.67,511.417 374.5,511.5C384.48,510.502 394.48,509.836 404.5,509.5C402.885,489.627 407.385,471.294 418,454.5C423.274,447.389 429.108,440.722 435.5,434.5C432.333,429.659 431,424.326 431.5,418.5C392.468,406.966 370.635,380.966 366,340.5C365.333,307.5 365.333,274.5 366,241.5C370.008,234.27 376.174,231.437 384.5,233C389.245,234.115 392.412,236.948 394,241.5C394.333,273.5 394.667,305.5 395,337.5C397.747,363.023 410.747,381.023 434,391.5C444.936,361.574 466.102,343.407 497.5,337C535.745,333.536 564.245,348.369 583,381.5C583.875,384.628 585.042,387.628 586.5,390.5C611.905,381.361 626.072,363.361 629,336.5C629.293,304.808 630.293,273.142 632,241.5C632.504,237.98 634.337,235.48 637.5,234C697.512,232.952 757.512,232.286 817.5,232C827.374,237.63 829.541,245.463 824,255.5C821.9,258.467 819.066,260.3 815.5,261C797.836,261.5 780.17,261.667 762.5,261.5C728.502,262.014 694.502,262.347 660.5,262.5C660.784,286.855 660.451,311.188 659.5,335.5C655.194,378.789 632.194,406.122 590.5,417.5C590.916,423.257 589.916,428.757 587.5,434C609.209,454.276 619.876,479.442 619.5,509.5C634.866,510.918 650.2,510.752 665.5,509C685.678,500.482 705.178,490.649 724,479.5C724.333,440.167 724.667,400.833 725,361.5C728.781,353.695 734.947,350.862 743.5,353C749,354.5 752.5,358 754,363.5C754.961,406.195 754.628,448.862 753,491.5C750.833,495 748,497.833 744.5,500C728.157,509.84 711.49,519.174 694.5,528C680.611,535.519 665.777,539.353 650,539.5C636.781,538.213 623.615,536.547 610.5,534.5C609.826,539.856 608.159,544.856 605.5,549.5C614.83,558.665 623.663,568.332 632,578.5C636.978,586.124 641.145,594.124 644.5,602.5L647.5,602.5C683.223,603.484 718.89,604.984 754.5,607C766.088,622.579 777.255,638.413 788,654.5C798.667,668.5 809.333,682.5 820,696.5C822.254,700.007 824.254,703.673 826,707.5C825.82,720.352 819.32,725.852 806.5,724C800.622,719.79 795.789,714.623 792,708.5C774.554,683.388 756.721,658.554 738.5,634C711.501,633.05 684.501,632.217 657.5,631.5ZM459.5,453.5C438.271,469.662 430.438,490.995 436,517.5C443.248,539.424 457.082,555.924 477.5,567C490.721,573.843 504.721,576.177 519.5,574C561.561,567.776 584.561,543.61 588.5,501.5C587.78,480.717 578.78,464.717 561.5,453.5C559.31,455.524 556.977,457.357 554.5,459C528.88,472.24 502.547,473.907 475.5,464C469.472,461.457 464.139,457.957 459.5,453.5ZM470.5,613.5C457.733,622.348 449.4,634.348 445.5,649.5C440.318,672.696 443.485,694.696 455,715.5C479.182,752.896 510.682,760.729 549.5,739C570.793,721.657 581.46,699.157 581.5,671.5C581.607,648.305 572.94,629.138 555.5,614C536.709,602.442 516.376,598.442 494.5,602C485.237,603.485 477.237,607.318 470.5,613.5ZM624.5,628.5C617.406,607.16 605.406,588.993 588.5,574C587.5,573.333 586.5,573.333 585.5,574C580.813,578.35 575.813,582.35 570.5,586C591.172,602.514 604.339,623.681 610,649.5C616.141,691.317 604.308,726.983 574.5,756.5C569.529,759.99 564.529,763.49 559.5,767C537.442,779.678 514.108,783.011 489.5,777C445.524,760.676 420.358,729.176 414,682.5C410.605,642.812 424.105,610.312 454.5,585C449.027,581.185 443.861,577.018 439,572.5C436.765,574.371 434.265,575.871 431.5,577C402.242,605.7 389.409,640.533 393,681.5C400.398,734.885 429.232,771.051 479.5,790C531.638,802.178 574.471,787.678 608,746.5C633.136,709.945 638.636,670.612 624.5,628.5ZM499.5,366.5C487.29,369.365 477.123,375.698 469,385.5C457.369,405.606 461.203,422.106 480.5,435C498.547,442.835 516.88,443.502 535.5,437C558.673,426.103 564.507,409.27 553,386.5C538.793,370.482 520.96,363.816 499.5,366.5ZM351.5,861.5C350.877,867.946 347.544,872.113 341.5,874C316.5,874.667 291.5,874.667 266.5,874C261.527,870.711 259.527,866.044 260.5,860C259.473,854.586 261.139,850.253 265.5,847C284.073,845.526 302.74,845.026 321.5,845.5C321.333,800.165 321.5,754.832 322,709.5C326.599,700.408 333.765,697.575 343.5,701C347.048,703.047 349.715,705.88 351.5,709.5C352.833,760.167 352.833,810.833 351.5,861.5ZM689.5,700.5C698.661,698.995 705.161,702.328 709,710.5C709.5,755.499 709.667,800.499 709.5,845.5C727.503,845.333 745.503,845.5 763.5,846C771.066,851.034 773.233,857.867 770,866.5C768.833,870.333 766.333,872.833 762.5,874C738.167,874.667 713.833,874.667 689.5,874C684.309,871.483 681.142,867.317 680,861.5C679.333,810.833 679.333,760.167 680,709.5C681.775,704.888 684.942,701.888 689.5,700.5Z"/>
    </g>
</svg>
