<?xml version="1.0" encoding="UTF-8" standalone="no"?>
<!DOCTYPE svg PUBLIC "-//W3C//DTD SVG 1.1//EN" "http://www.w3.org/Graphics/SVG/1.1/DTD/svg11.dtd">
<svg width="100%" height="100%" viewBox="0 0 1024 1024" version="1.1" xmlns="http://www.w3.org/2000/svg" xmlns:xlink="http://www.w3.org/1999/xlink" xml:space="preserve" xmlns:serif="http://www.serif.com/" style="fill-rule:evenodd;clip-rule:evenodd;stroke-linejoin:round;stroke-miterlimit:2;">
    <g transform="matrix(1.23292,0,0,1.23292,-141.696,-151.353)">
        <path d="M830.5,649.5C814.268,643.752 797.602,639.585 780.5,637C756.158,633.749 731.824,630.416 707.5,627C697.716,625.128 688.383,621.961 679.5,617.5C659.407,630.997 648.574,649.997 647,674.5C646.083,686.189 645.25,697.856 644.5,709.5C656.486,710.333 668.486,710.833 680.5,711C687.235,714.322 689.069,719.489 686,726.5C682.913,730.792 678.746,732.458 673.5,731.5C642.504,730.286 611.504,730.286 580.5,731.5C553.681,734.413 532.515,725.08 517,703.5C494.898,660.294 473.565,616.628 453,572.5C449.333,567.167 445.667,561.833 442,556.5C439.389,550.884 440.889,546.718 446.5,544C455.114,542.058 461.614,544.892 466,552.5C485.375,589.919 503.708,627.919 521,666.5C526.326,677.827 532.659,688.494 540,698.5C546.079,704.291 553.246,708.124 561.5,710C574.162,710.5 586.829,710.667 599.5,710.5C599.325,692.148 599.825,673.815 601,655.5C603,640.176 607.833,625.843 615.5,612.5C620.61,608.318 626.276,607.485 632.5,610C636.233,612.769 637.233,616.269 635.5,620.5C623.405,645.067 619.072,671.067 622.5,698.5C623.832,679.848 626.998,661.515 632,643.5C635.055,633.712 639.888,625.045 646.5,617.5C650.324,613.176 654.324,609.009 658.5,605C649.448,601.563 641.948,596.063 636,588.5C633.655,579.835 636.822,574.835 645.5,573.5C649.374,574.435 653.04,575.935 656.5,578C671.916,589.876 688.916,598.876 707.5,605C735.468,609.163 763.468,613.163 791.5,617C813.144,619.686 833.477,626.186 852.5,636.5C874.787,648.953 892.287,666.287 905,688.5C913.956,697.505 920.289,695.838 924,683.5C924.401,679.684 923.734,676.017 922,672.5C910.696,654.858 897.529,638.691 882.5,624C861.599,605.216 838.933,588.883 814.5,575C798.82,563.996 784.32,551.496 771,537.5C755.808,513.297 737.308,491.797 715.5,473C695.493,457.5 672.826,449 647.5,447.5C615.791,446.075 594.291,460.075 583,489.5C581.034,500.733 580.034,512.066 580,523.5C573.398,530.24 567.064,529.907 561,522.5C555.566,489.345 565.733,462.179 591.5,441C610.895,428.25 632.229,423.25 655.5,426C666.222,427.431 676.555,429.931 686.5,433.5C715.463,444.072 739.63,461.406 759,485.5C772.284,505.128 787.45,523.295 804.5,540C811.167,545.333 817.833,550.667 824.5,556C843.513,568.172 862.179,580.838 880.5,594C889.359,602.195 898.193,610.361 907,618.5C921.285,633.742 933.618,650.408 944,668.5C949.699,695.419 938.865,710.753 911.5,714.5C905.656,714.075 900.323,712.241 895.5,709C888.282,700.116 881.448,690.949 875,681.5C863.056,666.709 848.223,656.042 830.5,649.5ZM296.5,716.5C292.854,696.62 299.521,681.12 316.5,670C323.52,666.818 330.853,665.818 338.5,667C346.223,671.604 347.223,677.271 341.5,684C333.549,685.971 326.715,689.805 321,695.5C319.044,699.893 317.211,704.226 315.5,708.5C342.492,709.833 369.825,710.5 397.5,710.5C424.833,710.167 452.167,709.833 479.5,709.5C476.187,697.323 468.187,690.49 455.5,689C427.201,687.718 398.868,687.051 370.5,687C368.714,686.215 367.214,685.049 366,683.5C364.48,679.625 364.146,675.625 365,671.5C365.833,669.333 367.333,667.833 369.5,667C396.833,666.333 424.167,666.333 451.5,667C474.605,668.138 490.439,679.305 499,700.5C500.919,708.523 500.919,716.523 499,724.5C497.749,727.381 495.583,729.214 492.5,730C430.167,730.667 367.833,730.667 305.5,730C298.9,727.982 295.9,723.482 296.5,716.5ZM686.5,544.5C689.85,544.335 693.183,544.502 696.5,545C719.367,560.733 744.7,569.067 772.5,570C778.301,575.239 778.967,581.073 774.5,587.5C766.975,589.519 759.308,590.019 751.5,589C726.315,585.484 703.481,576.317 683,561.5C678.684,554.474 679.85,548.807 686.5,544.5ZM435.5,332.5C502.217,332.238 561.717,352.571 614,393.5C617.82,400.703 616.654,406.87 610.5,412C608.5,412.667 606.5,412.667 604.5,412C593.328,404.915 582.328,397.581 571.5,390C516.032,356.971 456.699,347.304 393.5,361C342.962,376.202 302.462,405.368 272,448.5C250.689,480.598 238.856,515.931 236.5,554.5C236.41,582.804 242.91,609.471 256,634.5C260.389,639.889 264.389,645.556 268,651.5C268.667,653.5 268.667,655.5 268,657.5C247.509,685.655 221.342,706.822 189.5,721C219.178,722.181 248.678,720.348 278,715.5C291.768,716.878 295.268,723.378 288.5,735C287.167,735.667 285.833,736.333 284.5,737C264.451,738.52 244.451,740.52 224.5,743C191.046,744.453 157.713,743.119 124.5,739C114.219,734.957 112.219,728.457 118.5,719.5C145.502,715.163 171.169,706.663 195.5,694C207.373,687.565 218.373,679.899 228.5,671C234.068,665.268 239.068,659.101 243.5,652.5C226.822,628.154 217.655,601.154 216,571.5C214.634,494.07 244.134,431.236 304.5,383C329.5,363.76 357.167,349.427 387.5,340C403.488,336.506 419.488,334.006 435.5,332.5Z"/>
    </g>
</svg>
