<?xml version="1.0" encoding="UTF-8" standalone="no"?>
<!DOCTYPE svg PUBLIC "-//W3C//DTD SVG 1.1//EN" "http://www.w3.org/Graphics/SVG/1.1/DTD/svg11.dtd">
<svg width="100%" height="100%" viewBox="0 0 1024 1024" version="1.1" xmlns="http://www.w3.org/2000/svg" xmlns:xlink="http://www.w3.org/1999/xlink" xml:space="preserve" xmlns:serif="http://www.serif.com/" style="fill-rule:evenodd;clip-rule:evenodd;stroke-linejoin:round;stroke-miterlimit:2;">
    <g transform="matrix(1.45671,0,0,1.45671,-252.574,-255.544)">
        <path d="M813.5,543.5C801.565,610.322 772.231,667.988 725.5,716.5C699.294,741.851 669.627,762.351 636.5,778C576.509,804.479 515.509,807.146 453.5,786C410.295,768.29 375.628,740.123 349.5,701.5C328.014,714.414 306.014,726.58 283.5,738C273.151,741.871 262.484,743.538 251.5,743C241.217,739.758 237.55,733.091 240.5,723C225.429,722.396 210.429,723.23 195.5,725.5C189.372,725.718 183.706,724.218 178.5,721C173.911,716.034 172.411,710.2 174,703.5C174.726,700.379 176.226,697.713 178.5,695.5C214.663,671.915 251.329,649.082 288.5,627C280.864,624.027 276.031,618.527 274,610.5C272.738,602.543 274.738,595.543 280,589.5C300.195,570.985 323.695,558.652 350.5,552.5C351.729,546.691 353.562,541.025 356,535.5C378.892,487.261 412.058,447.427 455.5,416C470.819,405.027 487.319,396.194 505,389.5C514.347,340.828 540.18,303.662 582.5,278C637.863,247.773 694.196,245.773 751.5,272C773.542,284.873 790.208,302.706 801.5,325.5C825.573,327.913 847.906,335.413 868.5,348C880.152,360.803 878.819,372.137 864.5,382C848.733,388.866 832.4,394.033 815.5,397.5C817.857,403.608 818.857,409.942 818.5,416.5C817.084,428.11 816.418,439.776 816.5,451.5C818.506,482.282 817.506,512.949 813.5,543.5ZM315.5,638.5C284.566,658.978 252.9,678.478 220.5,697C231.322,696.729 242.156,695.896 253,694.5C258.126,694.207 262.46,695.874 266,699.5C267.84,707.655 265.34,714.155 258.5,719C267.471,717.196 276.138,714.196 284.5,710C302.608,700.066 320.608,689.9 338.5,679.5C333.218,667.319 329.551,654.652 327.5,641.5C323.397,640.91 319.397,639.91 315.5,638.5ZM803.5,349.5C805.773,358.149 808.94,366.483 813,374.5C824.437,371.131 835.604,366.964 846.5,362C832.473,356.646 818.14,352.479 803.5,349.5ZM684.5,523.5C677.792,549.278 666.125,572.611 649.5,593.5C627.195,618.163 600.529,636.663 569.5,649C519.507,665.491 468.84,667.825 417.5,656C406.002,653.375 395.002,649.375 384.5,644C382.951,642.786 381.785,641.286 381,639.5C377.463,626.034 382.629,620.534 396.5,623C433.662,636.914 471.996,641.581 511.5,637C563.054,631.982 604.554,609.149 636,568.5C640.861,560.449 644.861,552.116 648,543.5C624.849,574.994 594.016,594.16 555.5,601C498.833,601.667 442.167,601.667 385.5,601C381.128,600.579 376.795,599.912 372.5,599C360.18,597.035 352.18,590.201 348.5,578.5C330.282,584.055 314.282,593.388 300.5,606.5C302.754,608.919 305.421,610.752 308.5,612C325.191,619.01 342.524,623.343 360.5,625C362.709,626.873 364.542,629.04 366,631.5C368.363,640.807 364.863,645.807 355.5,646.5C356.477,655.598 358.977,664.265 363,672.5C369.329,685.167 376.663,697.167 385,708.5C424.227,752.101 473.394,774.435 532.5,775.5C582.835,774.554 628.501,759.721 669.5,731C756.457,664.263 797.291,575.763 792,465.5C762.957,487.846 730.124,497.68 693.5,495C691.112,494.697 688.945,493.863 687,492.5C686.797,502.898 685.964,513.232 684.5,523.5ZM659.5,278.5C652.962,279.571 646.295,280.737 639.5,282C598.221,292.64 566.721,316.14 545,352.5C537.02,370.106 530.02,388.106 524,406.5L519.5,411C513.167,413.333 506.833,415.667 500.5,418C488.832,424.499 477.498,431.499 466.5,439C426.55,469.28 396.717,507.447 377,553.5C374.191,560.052 372.691,566.718 372.5,573.5C380.111,574.91 387.778,576.077 395.5,577C425.839,577.645 456.172,577.479 486.5,576.5C485.488,564.705 487.321,553.371 492,542.5C509.712,504.8 538.879,480.967 579.5,471C619.847,465.194 647.014,480.027 661,515.5C661.574,504.154 661.907,492.821 662,481.5C660,476.833 658,472.167 656,467.5C641.836,445.341 622.336,429.841 597.5,421C586.406,417.857 575.406,414.523 564.5,411C562.077,408.487 560.744,405.487 560.5,402C561.36,393.647 566.026,389.814 574.5,390.5C619.88,397.255 654.713,419.922 679,458.5C683.445,463.962 688.945,467.796 695.5,470C720.466,471.807 743.799,466.473 765.5,454C787.488,441.196 796.321,422.363 792,397.5C785.063,374.42 779.063,351.086 774,327.5C766.597,314.096 756.43,303.263 743.5,295C717.111,281.696 689.111,276.196 659.5,278.5ZM704.5,358.5C714.217,358.176 723.884,358.676 733.5,360C746.775,366.482 750.608,376.648 745,390.5C741.715,396.567 736.548,399.734 729.5,400C718.872,401.899 709.039,400.066 700,394.5C693.96,385.393 692.96,375.727 697,365.5C699.069,362.594 701.569,360.261 704.5,358.5ZM585.5,494.5C574.917,496.981 564.917,501.147 555.5,507C529.125,522.872 513.792,546.039 509.5,576.5C545.308,582.382 577.308,574.216 605.5,552C617.004,543.477 625.504,532.643 631,519.5C631.714,514.581 630.381,510.247 627,506.5C615.097,496.229 601.263,492.229 585.5,494.5Z"/>
    </g>
</svg>
