<?xml version="1.0" encoding="UTF-8" standalone="no"?>
<!DOCTYPE svg PUBLIC "-//W3C//DTD SVG 1.1//EN" "http://www.w3.org/Graphics/SVG/1.1/DTD/svg11.dtd">
<svg width="100%" height="100%" viewBox="0 0 1024 1024" version="1.1" xmlns="http://www.w3.org/2000/svg" xmlns:xlink="http://www.w3.org/1999/xlink" xml:space="preserve" xmlns:serif="http://www.serif.com/" style="fill-rule:evenodd;clip-rule:evenodd;stroke-linejoin:round;stroke-miterlimit:2;">
    <g transform="matrix(1.59746,0,0,1.59746,-227.674,-292.685)">
        <path d="M335.5,639.5C338.311,639.174 340.978,638.341 343.5,637C362.481,623.663 379.148,607.829 393.5,589.5C373.107,589.645 352.44,589.478 331.5,589C303.71,589.422 281.21,578.922 264,557.5C257.405,546.796 253.738,535.13 253,522.5C220.266,509.427 201.266,485.427 196,450.5C195.057,443.868 194.557,437.202 194.5,430.5C195.37,417.505 195.537,404.505 195,391.5C181.561,378.728 169.561,364.728 159,349.5C144.726,323.195 139.726,295.195 144,265.5C145.673,257.48 148.34,249.813 152,242.5C157.76,235.622 164.26,234.789 171.5,240C176.573,244.517 181.573,249.017 186.5,253.5C233.465,286.665 282.465,316.832 333.5,344C349.925,356.757 363.092,372.257 373,390.5C373.307,382.468 374.807,374.801 377.5,367.5C379.017,357.613 382.684,348.613 388.5,340.5C372.258,300.813 370.425,260.48 383,219.5C384.64,215.608 385.973,211.608 387,207.5C391.719,197.352 397.719,196.352 405,204.5C435.814,242.472 465.647,281.138 494.5,320.5C507.136,336.648 519.636,352.982 532,369.5C536.098,376.031 539.931,382.698 543.5,389.5C548.946,407.429 552.78,425.762 555,444.5C564.051,437.223 574.217,431.889 585.5,428.5C594.511,431.708 595.511,436.541 588.5,443C569.482,450.685 553.982,462.851 542,479.5C531.555,492.984 524.055,507.984 519.5,524.5C520.542,528.799 520.709,533.132 520,537.5L517.5,540C503.956,541.537 490.623,540.203 477.5,536C474.552,534.763 471.885,533.263 469.5,531.5C464.134,528.979 459.134,525.812 454.5,522C415.327,479.837 381.16,434.003 352,384.5C345.905,376.401 339.072,368.901 331.5,362C286.373,336.939 242.04,310.606 198.5,283C189.013,275.424 179.346,268.091 169.5,261C167.034,258.521 164.701,256.021 162.5,253.5C157.023,275.863 157.19,298.196 163,320.5C167.781,334.739 175.114,347.406 185,358.5C190.968,365.469 197.301,372.136 204,378.5C205.941,382.048 207.607,385.714 209,389.5C208.524,414.025 220.024,429.858 243.5,437C264.797,438.264 286.13,438.931 307.5,439C313.062,440.399 314.895,443.899 313,449.5C312.065,452.102 310.232,453.602 307.5,454C288.5,454.667 269.5,454.667 250.5,454C233.989,453.33 220.823,446.497 211,433.5C209.347,472.039 226.847,497.206 263.5,509C266.833,509.667 270.167,510.333 273.5,511C305.167,511.333 336.833,511.667 368.5,512C375.712,513.513 378.212,517.68 376,524.5C373.656,526.774 370.822,527.941 367.5,528C339.5,528.667 311.5,528.667 283.5,528C278.375,527.925 273.541,526.758 269,524.5C271.945,550.117 286.112,565.617 311.5,571C316.799,571.93 322.133,572.597 327.5,573C354.165,573.5 380.831,573.667 407.5,573.5C408.668,566.168 409.501,558.834 410,551.5C399.121,542.622 390.454,531.955 384,519.5C378.282,505.33 371.615,491.663 364,478.5C341.667,447.5 319.333,416.5 297,385.5C284.942,380.034 272.442,375.534 259.5,372C228.178,359.666 202.345,340.166 182,313.5C177.595,306.711 174.929,299.378 174,291.5C175.793,285.384 179.293,284.051 184.5,287.5C190.931,298.029 198.098,308.029 206,317.5C221.831,334.167 240.331,347 261.5,356C275.587,360.806 289.587,365.806 303.5,371C328.153,401.317 351.653,432.483 374,464.5C385.369,483.904 395.703,503.904 405,524.5C410.634,531.136 416.634,537.469 423,543.5C426.711,549.115 427.378,555.115 425,561.5C421.33,577.51 413.997,591.51 403,603.5L370.5,636C357.916,645.247 345.916,655.247 334.5,666C315.343,680.419 295.009,693.086 273.5,704C264.032,706.781 255.032,710.614 246.5,715.5C246.235,722.115 247.735,728.449 251,734.5C259.753,746.587 270.419,756.587 283,764.5C304.268,737.463 324.435,709.629 343.5,681C345.833,680.333 348.167,680.333 350.5,681C370.413,693.305 392.079,700.638 415.5,703C437.365,706.447 458.699,704.614 479.5,697.5C498.056,689.116 510.389,675.283 516.5,656C520.666,653.749 524.166,654.583 527,658.5C527.524,670.596 523.857,681.262 516,690.5C506.908,700.429 496.075,707.762 483.5,712.5C479.714,714.46 475.714,716.126 471.5,717.5C560.631,722.535 611.464,680.868 624,592.5C628.334,560.831 632.667,529.164 637,497.5C639.289,483.878 645.789,472.712 656.5,464C664.814,459.254 672.314,453.421 679,446.5C686.954,430.147 683.787,416.314 669.5,405C651.19,393.901 634.023,395.401 618,409.5C614.41,414.084 611.243,418.917 608.5,424C601.8,426.643 598.466,424.309 598.5,417C600.385,404.906 606.718,395.906 617.5,390C640.58,378.65 662.58,380.316 683.5,395C697.256,406.767 702.59,421.6 699.5,439.5C725.502,439.333 751.502,439.5 777.5,440C782.732,442.633 784.565,446.799 783,452.5C781.786,454.049 780.286,455.215 778.5,456C773.333,456.167 768.167,456.333 763,456.5C739.74,455.853 716.574,454.353 693.5,452C703.511,453.781 713.511,455.781 723.5,458C731.24,460.284 737.74,464.45 743,470.5C745.087,474.918 744.254,478.751 740.5,482C738.833,482.667 737.167,482.667 735.5,482C717.261,471.153 697.594,467.487 676.5,471C667.994,472.839 661.827,477.672 658,485.5C655.77,489.962 654.103,494.628 653,499.5C648.673,528.118 644.673,556.785 641,585.5C630.734,684.952 575.901,734.619 476.5,734.5C476.667,756.836 476.5,779.169 476,801.5C475.292,802.381 474.458,803.047 473.5,803.5C470.18,806.071 466.68,806.071 463,803.5C462.667,802.5 462.333,801.5 462,800.5C461.5,773.502 461.333,746.502 461.5,719.5C456.612,720.611 451.779,720.611 447,719.5C446.667,747.5 446.333,775.5 446,803.5C442.535,809.279 438.201,809.945 433,805.5C431.293,803.091 430.46,800.425 430.5,797.5L430.5,720.5C417.395,720.223 404.561,718.223 392,714.5C391.235,714.57 390.735,714.903 390.5,715.5C390.667,739.502 390.5,763.502 390,787.5C387.695,789.93 384.862,790.93 381.5,790.5C378.114,789.739 375.947,787.739 375,784.5C374.5,759.502 374.333,734.502 374.5,709.5L371.5,709.5C364.769,706.387 357.936,703.387 351,700.5C333.384,724.451 315.384,748.117 297,771.5L287.5,781C281.883,783.343 276.883,782.343 272.5,778C261.249,768.96 250.749,759.126 241,748.5C236.867,742.567 233.534,736.234 231,729.5C229.059,722.824 229.059,716.157 231,709.5C232.061,706.438 233.894,703.938 236.5,702C267.41,691.706 295.41,676.372 320.5,656C268.887,656.653 217.221,656.653 165.5,656C161.423,652.861 160.59,649.028 163,644.5C164.129,642.859 165.629,641.859 167.5,641.5C223.5,640.833 279.5,640.167 335.5,639.5ZM389.5,409.5C393.253,419.001 398.086,428.001 404,436.5C421.667,458.5 439.333,480.5 457,502.5C465.182,512.84 475.682,519.506 488.5,522.5C494.689,524.1 501.022,524.767 507.5,524.5L507.5,508.5C505.876,508.64 504.71,507.973 504,506.5C498.846,475.381 491.846,444.715 483,414.5C480.333,408.5 477.667,402.5 475,396.5C452.126,362.913 434.792,326.58 423,287.5C422.333,283.833 422.333,280.167 423,276.5C427.249,273.487 430.916,274.153 434,278.5C444.139,301.917 454.472,325.25 465,348.5C474.852,364.204 484.185,380.204 493,396.5C504.078,426.289 511.745,456.955 516,488.5C522.816,477.01 531.149,466.676 541,457.5C540.355,448.855 539.522,440.189 538.5,431.5C535.69,415.956 530.857,400.956 524,386.5C499.635,353.082 474.802,320.082 449.5,287.5C432.555,265.543 415.555,243.543 398.5,221.5C383.077,273.543 390.244,322.209 420,367.5C424.716,373.094 429.549,378.594 434.5,384C445.532,392.852 457.532,400.186 470.5,406C473.758,409.794 473.758,413.794 470.5,418C465.326,418.126 460.326,417.126 455.5,415C429.852,402.684 410.019,384.184 396,359.5C389.081,375.519 386.914,392.186 389.5,409.5ZM647.5,420.5C657.569,422.068 663.569,427.902 665.5,438C662.941,448.62 656.274,452.62 645.5,450C637.023,445.543 634.19,438.71 637,429.5C639.463,425.198 642.963,422.198 647.5,420.5Z"/>
    </g>
</svg>
