<?xml version="1.0" encoding="UTF-8" standalone="no"?>
<!DOCTYPE svg PUBLIC "-//W3C//DTD SVG 1.1//EN" "http://www.w3.org/Graphics/SVG/1.1/DTD/svg11.dtd">
<svg width="100%" height="100%" viewBox="0 0 1024 1024" version="1.1" xmlns="http://www.w3.org/2000/svg" xmlns:xlink="http://www.w3.org/1999/xlink" xml:space="preserve" xmlns:serif="http://www.serif.com/" style="fill-rule:evenodd;clip-rule:evenodd;stroke-linejoin:round;stroke-miterlimit:2;">
    <g transform="matrix(1.45228,0,0,1.45228,-299.82,-247.475)">
        <path d="M393.5,854.5L398.5,854.5C511.834,854.333 625.167,854.5 738.5,855C740.247,855.352 741.914,855.852 743.5,856.5C745.902,861.401 746.069,866.401 744,871.5C742.786,873.049 741.286,874.215 739.5,875C624.167,875.667 508.833,875.667 393.5,875C391.185,873.891 389.685,872.057 389,869.5C388.333,865.833 388.333,862.167 389,858.5C389.383,857.944 389.883,857.611 390.5,857.5C390.81,855.856 391.81,854.856 393.5,854.5ZM671.5,363.5C711.003,321.28 755.003,316.114 803.5,348C814.079,356.577 823.245,366.41 831,377.5C832.535,389.515 827.369,393.681 815.5,390C788.971,368.437 767.137,372.271 750,401.5C749.009,403.447 748.675,405.447 749,407.5C789.686,387.247 829.186,389.414 867.5,414C872.645,418.598 873.812,424.098 871,430.5C868.293,434.035 864.793,435.202 860.5,434C845.709,424.846 829.709,418.846 812.5,416C790.383,412.599 770.717,417.932 753.5,432C732.898,449.933 712.898,468.6 693.5,488C688.182,492.125 684.015,491.291 681,485.5C680.446,474.665 685.113,466.665 695,461.5C706.55,425.553 725.384,394.053 751.5,367C756.014,363.909 760.347,360.575 764.5,357C766.804,356.105 769.138,355.271 771.5,354.5C745.017,344.029 720.684,347.863 698.5,366C684.642,378.851 673.475,393.684 665,410.5C663.156,415.156 662.323,419.99 662.5,425C662.989,433.735 663.989,442.402 665.5,451C664.36,462.459 658.36,466.126 647.5,462C645.959,460.421 644.792,458.587 644,456.5C641.642,438.576 640.975,420.576 642,402.5C645.222,376.495 651.222,351.161 660,326.5C666.051,312.964 674.551,301.297 685.5,291.5C673.695,291.821 662.695,295.321 652.5,302C619.37,326.745 601.203,359.911 598,401.5C595.786,428.765 601.119,454.432 614,478.5C614.837,482.295 614.504,485.961 613,489.5C608.973,492.596 604.473,494.763 599.5,496C575.245,503.853 551.245,503.187 527.5,494C517.074,488.453 506.408,483.453 495.5,479C486.713,473.88 479.547,467.047 474,458.5C469.513,423.672 456.846,392.339 436,364.5C427.679,354.837 418.179,346.67 407.5,340C391.34,331.856 374.34,329.189 356.5,332C339.148,336.857 327.481,347.69 321.5,364.5C353.352,375.504 366.186,397.838 360,431.5C358.269,450.554 354.602,469.221 349,487.5C344.45,499.35 337.617,509.517 328.5,518C321.723,523.391 314.056,526.557 305.5,527.5C300.084,561.25 305.917,592.917 323,622.5C329.266,632.697 336.266,642.364 344,651.5C381.41,689.969 426.576,715.136 479.5,727C483.485,728.627 485.485,731.627 485.5,736C481.422,770.437 477.922,804.937 475,839.5C474.25,840.126 473.416,840.626 472.5,841C468,841.167 463.5,841.333 459,841.5C453.725,841.616 448.558,841.116 443.5,840C440.378,833.212 442.378,828.212 449.5,825C452.063,823.921 454.729,823.421 457.5,823.5C459.175,797.11 461.508,770.777 464.5,744.5C407.621,729.157 359.788,699.491 321,655.5C305.478,635.456 294.478,613.123 288,588.5C282.792,566.904 282.292,545.237 286.5,523.5C274.88,517.708 268.047,508.374 266,495.5C263.489,479.038 267.822,464.705 279,452.5C283.833,448.333 288.667,444.167 293.5,440C286.166,439.871 278.832,440.205 271.5,441C262.889,443.149 254.223,444.983 245.5,446.5C245.542,423.413 252.042,402.413 265,383.5C270.104,377.556 275.937,372.556 282.5,368.5C279.921,364.933 278.421,360.933 278,356.5C275.266,345.442 276.266,334.775 281,324.5C284.085,320 286.918,315.333 289.5,310.5C275.853,293.7 267.52,274.533 264.5,253C265.998,232.848 275.998,218.848 294.5,211C304.619,209.236 313.452,211.736 321,218.5C324.056,222.048 326.889,225.715 329.5,229.5C330.192,228.975 330.692,228.308 331,227.5C332.121,215.014 335.121,203.014 340,191.5C345.684,182.146 353.518,175.312 363.5,171C378.778,168.603 391.278,173.436 401,185.5C404.014,190.865 407.014,196.199 410,201.5C417.958,188.873 428.458,179.04 441.5,172C471.433,168.217 490.933,180.717 500,209.5C505.769,262.761 482.936,297.261 431.5,313C424.087,314.179 416.753,315.679 409.5,317.5C439.21,334.713 461.043,359.046 475,390.5C480.4,404.035 485.4,417.702 490,431.5C504.416,456.971 525.916,473.138 554.5,480C566.8,481.346 578.8,480.179 590.5,476.5C582.838,459.698 578.672,442.031 578,423.5C575.64,381.571 586.973,343.905 612,310.5C642.642,275.723 681.142,261.223 727.5,267C734.187,269.581 736.354,274.414 734,281.5C733.085,282.328 732.419,283.328 732,284.5C726.995,286.701 721.828,288.534 716.5,290C703.875,300.08 692.709,311.58 683,324.5C680.393,329.38 678.06,334.38 676,339.5C675.185,347.668 673.685,355.668 671.5,363.5ZM367.5,191.5C360.857,195.738 356.357,201.738 354,209.5C353.155,216.927 351.822,224.26 350,231.5C345.143,243.502 336.31,250.002 323.5,251C317.343,248.21 312.843,243.71 310,237.5C305.827,233.809 300.993,232.642 295.5,234C287.473,240.221 283.973,248.387 285,258.5C288.452,271.735 294.285,283.735 302.5,294.5C319.339,273.162 340.339,257.329 365.5,247C386.913,237.786 408.913,236.12 431.5,242C446.749,245.541 460.249,252.374 472,262.5C478.447,251.045 481.614,238.712 481.5,225.5C482.444,214.159 478.778,204.659 470.5,197C460.418,189.741 450.418,189.741 440.5,197C433.127,204.704 426.127,212.704 419.5,221C410.118,225.22 401.618,224.053 394,217.5C391.653,207.829 386.819,199.662 379.5,193C375.637,191.646 371.637,191.146 367.5,191.5ZM329.5,390.5C335.014,410.096 331.514,427.763 319,443.5C310.052,451.777 301.052,460.11 292,468.5C289.473,472.221 287.473,476.221 286,480.5C282.879,491.73 286.046,500.563 295.5,507C310.345,507.495 320.845,500.995 327,487.5C336.639,462.437 340.973,436.437 340,409.5C339.07,401.63 335.57,395.297 329.5,390.5ZM311.5,381.5C290.076,384.583 276.076,396.583 269.5,417.5C270,417.833 270.5,418.167 271,418.5C281.832,416.081 292.666,416.247 303.5,419C306.058,420.626 308.725,421.626 311.5,422C312.83,408.402 312.83,394.902 311.5,381.5ZM392.5,260.5C379.728,263.82 367.395,268.654 355.5,275C330.883,291.086 311.383,311.919 297,337.5C296.333,339.167 296.333,340.833 297,342.5C299.499,346.832 300.832,351.499 301,356.5C317.614,322.931 344.781,306.931 382.5,308.5C385.551,304.14 389.551,300.974 394.5,299C408.91,295.987 423.244,292.654 437.5,289C445.623,286.108 452.957,281.942 459.5,276.5C453.87,273.685 448.203,270.851 442.5,268C426.493,261.277 409.827,258.777 392.5,260.5ZM358.5,352.5C371.638,350.158 378.138,355.491 378,368.5C374.459,376.849 368.292,380.349 359.5,379C352.807,374.273 349.973,367.773 351,359.5C352.767,356.228 355.267,353.895 358.5,352.5ZM380.5,460.5C384.247,460.392 387.914,460.892 391.5,462C392.701,462.903 393.535,464.069 394,465.5C394.333,486.833 394.667,508.167 395,529.5C404.526,609.356 449.526,650.69 530,653.5C558.268,654.059 584.435,647.059 608.5,632.5C607.687,631.186 606.687,630.019 605.5,629C576.167,609.999 547.667,589.833 520,568.5C516.611,563.436 516.778,558.603 520.5,554C525.624,551.93 530.624,552.264 535.5,555C567.833,578.167 600.167,601.333 632.5,624.5C636.547,630.801 636.047,636.801 631,642.5C594.083,669.025 552.916,679.192 507.5,673C452.555,665.697 413.055,637.197 389,587.5C377.579,559.308 372.746,529.975 374.5,499.5C374.667,488.5 374.833,477.5 375,466.5C376.36,463.977 378.193,461.977 380.5,460.5ZM807.5,424.5C817.665,425.494 821.165,430.827 818,440.5C795.795,460.373 773.295,479.873 750.5,499C747.65,501.682 744.984,504.516 742.5,507.5C753.489,518.321 764.655,528.988 776,539.5C780.825,546.861 780.659,554.028 775.5,561C772.833,561.667 770.167,561.667 767.5,561C756.759,551.695 744.426,548.862 730.5,552.5C731.994,588.212 726.827,622.879 715,656.5C692.088,710.585 651.921,743.585 594.5,755.5C596.556,778.173 598.723,800.839 601,823.5C611.482,824.297 615.148,829.63 612,839.5C610.933,840.191 609.766,840.691 608.5,841C601.167,841.667 593.833,841.667 586.5,841L585,839.5C583.345,833.24 582.012,826.907 581,820.5C579.411,802.785 577.411,785.119 575,767.5C574.333,757.833 574.333,748.167 575,738.5C575.5,736.667 576.667,735.5 578.5,735C629.729,730.808 667.229,705.975 691,660.5C706.72,623.096 713.053,584.096 710,543.5C712.327,538.577 716.16,535.41 721.5,534C727.5,533.333 733.5,532.667 739.5,532C732.333,526.167 725.833,519.667 720,512.5C718.156,507.789 718.156,503.123 720,498.5C746.833,475 773.667,451.5 800.5,428C802.925,426.787 805.259,425.621 807.5,424.5ZM508.5,734.5C522.882,734.712 537.215,735.545 551.5,737C552.701,737.903 553.535,739.069 554,740.5C554.089,755.234 555.089,769.901 557,784.5C560.901,799.935 564.401,815.435 567.5,831C567.236,840.605 562.569,843.938 553.5,841C551.622,839.457 550.122,837.624 549,835.5C541.036,809.378 536.202,782.711 534.5,755.5L524.5,755.5C521.884,783.748 516.384,811.415 508,838.5C503.039,842.489 498.039,842.489 493,838.5C491.445,833.618 491.112,828.618 492,823.5C494.999,810.169 497.999,796.836 501,783.5C502.547,769.816 504.214,756.149 506,742.5C506.097,739.518 506.93,736.851 508.5,734.5Z"/>
    </g>
</svg>
