<?xml version="1.0" encoding="UTF-8" standalone="no"?>
<!DOCTYPE svg PUBLIC "-//W3C//DTD SVG 1.1//EN" "http://www.w3.org/Graphics/SVG/1.1/DTD/svg11.dtd">
<svg width="100%" height="100%" viewBox="0 0 1024 1024" version="1.1" xmlns="http://www.w3.org/2000/svg" xmlns:xlink="http://www.w3.org/1999/xlink" xml:space="preserve" xmlns:serif="http://www.serif.com/" style="fill-rule:evenodd;clip-rule:evenodd;stroke-linejoin:round;stroke-miterlimit:2;">
    <g transform="matrix(1.38755,0,0,1.38755,-181.169,-231.071)">
        <path d="M663.5,903.5C542.334,904.666 421.001,904.833 299.5,904C287.803,900.308 284.303,892.808 289,881.5C290.214,879.951 291.714,878.785 293.5,878C343.8,876.528 394.134,876.028 444.5,876.5L444.5,803.5C393.384,795.605 348.384,774.772 309.5,741C265.436,701.728 236.603,653.228 223,595.5C218.013,567.076 218.347,538.742 224,510.5C227.35,500.76 230.85,491.093 234.5,481.5C232.349,471.628 231.016,461.628 230.5,451.5C207.3,436.469 183.967,421.636 160.5,407C154.775,402.914 152.941,397.414 155,390.5C156.061,387.438 157.894,384.938 160.5,383C175.01,372.912 189.343,362.578 203.5,352C205.134,351.506 206.801,351.34 208.5,351.5C207.807,341.82 208.307,332.154 210,322.5C212.039,304.896 217.039,288.229 225,272.5C228.999,266.002 234.165,260.669 240.5,256.5C242.428,254.526 244.761,253.026 247.5,252C248.574,251.261 249.241,250.261 249.5,249C239.242,222.468 244.909,200.135 266.5,182C281.418,173.236 297.084,171.569 313.5,177C318.844,178.756 324.011,180.922 329,183.5C349.018,165.766 371.518,161.932 396.5,172C424.653,184.815 437.82,206.648 436,237.5C433.81,245.739 430.643,253.573 426.5,261C452.633,285.517 471.133,315.017 482,349.5C490.073,374.384 497.739,399.384 505,424.5C520.044,419.223 535.544,415.723 551.5,414C567.205,413.329 582.872,413.829 598.5,415.5C598.883,410.183 600.383,405.183 603,400.5C622.798,359.702 650.965,325.869 687.5,299C702.821,288.166 719.155,286.166 736.5,293C749.692,301.562 755.859,313.728 755,329.5C753.283,337.046 751.283,344.379 749,351.5C768.375,345.803 787.875,345.303 807.5,350C844.656,364.452 854.156,389.286 836,424.5C827.214,435.128 816.381,442.628 803.5,447C807.341,451.173 811.507,455.007 816,458.5C828.152,471.465 834.152,486.798 834,504.5C829.022,529.812 813.856,544.645 788.5,549C780.768,549.856 773.102,549.523 765.5,548C756.937,545.052 748.603,541.552 740.5,537.5C733.837,543.635 727.003,543.968 720,538.5C713.841,525.334 717.341,515.834 730.5,510C734.833,509.333 739.167,509.333 743.5,510C752.388,512.778 761.055,516.112 769.5,520C781.185,523.285 791.685,521.118 801,513.5C805.776,505.36 806.776,496.693 804,487.5C796.148,472.653 783.982,463.487 767.5,460C758.316,459.735 749.149,459.235 740,458.5C735.668,459.8 731.501,461.633 727.5,464C713.569,465.374 708.735,459.207 713,445.5C715.541,437.311 721.041,432.478 729.5,431C751.967,434.79 773.634,432.124 794.5,423C804.692,418.808 811.859,411.641 816,401.5C817.95,393.545 816.117,386.711 810.5,381C805.828,378.163 800.828,376.163 795.5,375C770.917,373.708 747.25,377.708 724.5,387C711.862,398.637 699.529,410.637 687.5,423C678.433,426.899 671.933,424.399 668,415.5C666.568,408.751 667.734,402.584 671.5,397C675.165,395.503 678.498,393.503 681.5,391C697.206,376.305 711.039,360.138 723,342.5C732.813,320.876 726.647,313.709 704.5,321C701.98,322.697 699.647,324.53 697.5,326.5C666.823,350.517 643.157,380.183 626.5,415.5C625.416,417.319 624.082,418.985 622.5,420.5C659.75,437.926 684.917,466.26 698,505.5C706.381,529.121 710.881,553.454 711.5,578.5C709.302,619.335 696.969,656.668 674.5,690.5C662.111,710.897 647.111,729.23 629.5,745.5C603.015,769.749 572.348,786.749 537.5,796.5C537.824,822.878 537.491,849.211 536.5,875.5C579.829,876.333 623.163,876.833 666.5,877C672.46,878.29 675.46,881.956 675.5,888C675.595,896.016 671.929,901.183 664.5,903.5L663.5,903.5ZM264.5,273.5C255.443,278.725 248.61,286.058 244,295.5C237.703,313.649 235.037,332.316 236,351.5C240.751,354.459 245.584,357.293 250.5,360C268.47,371.892 274.637,388.392 269,409.5C266.667,421.5 264.333,433.5 262,445.5C258.619,459.635 258.952,473.635 263,487.5C268.973,500.576 279.139,507.909 293.5,509.5C321.978,505.25 333.145,488.917 327,460.5C323.129,451.091 318.462,442.091 313,433.5C306.752,427.184 300.419,420.85 294,414.5C289.465,397.702 295.632,391.535 312.5,396C331.726,410.931 345.226,430.097 353,453.5C356.627,463.986 357.294,474.653 355,485.5C348.91,512.59 332.41,529.423 305.5,536C282.757,539.643 264.257,532.477 250,514.5C243.312,546.443 244.645,578.11 254,609.5C264.886,643.616 282.219,673.949 306,700.5C341.694,738.829 385.194,763.662 436.5,775C528.477,786.169 600.477,753.669 652.5,677.5C656.656,669.856 660.823,662.189 665,654.5C680.212,623.109 685.879,590.109 682,555.5C667.462,455.709 611.796,420.709 515,450.5C509.312,452.928 503.812,455.761 498.5,459C495.036,459.817 491.702,459.483 488.5,458C486.294,454.732 484.461,451.232 483,447.5C473.333,409.833 461.666,372.833 448,336.5C442.435,325.267 436.435,314.267 430,303.5C420.119,289.621 407.286,279.454 391.5,273C375.764,268.422 359.764,265.089 343.5,263C335.5,262.333 327.5,262.333 319.5,263C300.562,263.755 282.229,267.255 264.5,273.5ZM498.5,512.5C516.328,511.625 533.995,512.792 551.5,516C564.065,518.925 574.232,525.425 582,535.5C586.596,544.151 586.596,552.817 582,561.5C577.591,569.244 571.758,575.744 564.5,581C576.178,587.677 586.345,596.177 595,606.5C609.014,629.615 604.514,648.449 581.5,663C563.295,672.196 543.961,676.363 523.5,675.5C475.608,674.482 432.608,659.648 394.5,631C381.958,621.146 373.458,608.646 369,593.5C366.808,575.737 372.641,561.237 386.5,550C409.206,535.323 433.872,524.99 460.5,519C473.215,516.27 485.882,514.104 498.5,512.5ZM503.5,540.5C477.023,542.767 451.356,548.933 426.5,559C416.063,562.961 406.897,568.794 399,576.5C396.599,581.232 395.932,586.232 397,591.5C399.035,597.069 402.202,601.903 406.5,606C432.522,627.173 462.188,640.506 495.5,646C520.541,650.66 544.875,648.327 568.5,639C574.109,635.723 575.942,630.89 574,624.5C570.88,619.046 566.713,614.546 561.5,611C549.423,602.629 536.757,595.296 523.5,589C518.741,584.509 517.241,579.009 519,572.5C519.785,570.714 520.951,569.214 522.5,568C532.716,565.28 542.716,561.947 552.5,558C555.133,554.962 556.299,551.462 556,547.5C549.702,543.879 542.869,541.713 535.5,541C524.839,540.5 514.172,540.333 503.5,540.5ZM324.5,294.5C341.138,293.405 354.971,299.071 366,311.5C376.881,332.427 373.381,350.593 355.5,366C333.263,378.564 314.429,374.73 299,354.5C287.534,325.784 296.034,305.784 324.5,294.5ZM327.5,321.5C324.777,324.062 322.611,327.062 321,330.5C319.231,337.126 321.397,341.96 327.5,345C334.011,346.874 339.178,345.041 343,339.5C346.298,326.295 341.131,320.295 327.5,321.5ZM222.5,375.5C212.061,381.893 201.728,388.56 191.5,395.5C207.499,404.163 222.832,413.83 237.5,424.5C240.732,412.317 242.066,399.983 241.5,387.5C235.99,383.912 230.657,380.078 225.5,376C224.552,375.517 223.552,375.351 222.5,375.5ZM361.5,194.5C352.676,197.47 345.676,202.97 340.5,211C335.43,213.424 330.097,214.091 324.5,213C319.167,210 313.833,207 308.5,204C291.736,197.692 279.569,202.526 272,218.5C268.753,227.521 270.587,235.188 277.5,241.5C320.505,231.643 362.839,233.976 404.5,248.5C409.994,238.585 410.827,228.252 407,217.5C397.16,199.662 381.993,191.996 361.5,194.5ZM512.5,804.5C511.207,803.842 509.707,803.508 508,803.5C495.52,804.831 483.02,805.831 470.5,806.5L470.5,876.5L511.5,876.5C511.169,852.328 511.502,828.328 512.5,804.5Z"/>
    </g>
</svg>
