<?xml version="1.0" encoding="UTF-8" standalone="no"?>
<!DOCTYPE svg PUBLIC "-//W3C//DTD SVG 1.1//EN" "http://www.w3.org/Graphics/SVG/1.1/DTD/svg11.dtd">
<svg width="100%" height="100%" viewBox="0 0 1024 1024" version="1.1" xmlns="http://www.w3.org/2000/svg" xmlns:xlink="http://www.w3.org/1999/xlink" xml:space="preserve" xmlns:serif="http://www.serif.com/" style="fill-rule:evenodd;clip-rule:evenodd;stroke-linejoin:round;stroke-miterlimit:2;">
    <g transform="matrix(1.86939,0,0,1.86939,-453.201,-489.901)">
        <path d="M710.5,282.5C713.039,279.81 716.039,277.643 719.5,276C721.833,273 724.167,270 726.5,267C730.93,264.73 735.597,264.063 740.5,265C747.128,268.444 748.295,273.277 744,279.5C729.635,307.063 715.135,334.563 700.5,362C705.038,368.905 709.205,376.071 713,383.5C720.199,398.562 718.699,412.562 708.5,425.5C689.719,453.391 669.719,480.391 648.5,506.5C630.643,532.437 606.31,548.937 575.5,556C559.589,559.763 543.589,563.096 527.5,566C553.223,579.51 580.556,584.843 609.5,582C616.246,580.647 622.913,578.98 629.5,577C642.888,572.434 653.888,564.6 662.5,553.5C666.682,550.234 671.349,549.067 676.5,550C679.291,551.119 680.957,553.119 681.5,556C680.755,558.992 679.588,561.826 678,564.5C661.633,583.937 640.8,595.437 615.5,599C587.716,602.876 560.716,599.876 534.5,590C523.186,584.034 511.853,578.034 500.5,572C494.176,572.18 487.843,572.18 481.5,572C479,571.625 476.667,570.792 474.5,569.5C473.697,578.35 471.197,586.683 467,594.5C462.582,598.247 458.916,602.58 456,607.5C454.201,622.152 452.535,636.818 451,651.5C449.667,655.5 448.333,659.5 447,663.5C446.304,674.321 448.304,684.654 453,694.5C457.457,702.584 462.291,710.418 467.5,718C476.298,721.813 484.298,726.813 491.5,733C497.557,734.162 503.223,733.162 508.5,730C512.418,721.08 519.085,715.414 528.5,713C541.567,702.272 555.9,693.606 571.5,687C592.867,685.061 607.7,693.894 616,713.5C616.578,720.102 614.911,726.102 611,731.5C588.427,752.743 565.261,773.243 541.5,793C523.513,806.381 503.513,810.381 481.5,805C433.447,796.574 395.613,772.408 368,732.5C362.365,722.897 357.532,712.897 353.5,702.5C336.636,701.801 320.97,705.967 306.5,715C286.96,727.538 270.293,743.204 256.5,762C252.775,762.76 249.108,762.593 245.5,761.5C243.154,759.763 242.154,757.43 242.5,754.5C243.142,750.21 244.642,746.21 247,742.5C264.925,721.574 286.091,704.74 310.5,692C322.306,686.798 334.639,683.965 347.5,683.5C337.599,647.613 337.099,611.613 346,575.5C363.257,535.084 388.091,500.084 420.5,470.5C426.395,464.109 433.061,458.609 440.5,454C451.528,447.051 463.195,441.551 475.5,437.5C474.507,427.948 477.84,420.448 485.5,415C493.006,412.165 500.673,409.831 508.5,408C575.419,365.38 642.752,323.547 710.5,282.5ZM437.5,480.5C428.369,490.132 419.036,499.632 409.5,509C414.637,510.268 419.637,511.934 424.5,514C440.5,522.329 455.833,531.662 470.5,542C479.261,551.95 490.261,555.616 503.5,553C517.367,549.2 531.367,546.033 545.5,543.5C525.632,515.608 505.632,487.774 485.5,460C478.723,461.821 471.723,462.821 464.5,463C454.791,467.901 445.791,473.735 437.5,480.5ZM528.5,486.5C541.444,503.952 554.611,521.285 568,538.5C588.684,533.663 606.351,523.663 621,508.5C648.042,475.412 673.375,441.079 697,405.5C696.046,395.186 692.213,386.019 685.5,378C681.842,376.557 678.675,374.391 676,371.5C676.166,364.666 678.166,358.333 682,352.5C689.925,337.645 698.092,322.978 706.5,308.5C706.611,307.883 706.944,307.383 707.5,307C694.179,314.514 681.179,322.848 668.5,332C609.998,367.081 551.998,402.915 494.5,439.5C505.883,455.203 517.216,470.87 528.5,486.5ZM623.5,382.5C640.556,381.603 652.39,388.936 659,404.5C661.011,430.156 649.177,442.322 623.5,441C601.568,434.099 594.735,419.932 603,398.5C608.141,390.864 614.974,385.53 623.5,382.5ZM625.5,400.5C623.193,401.977 621.36,403.977 620,406.5C618.058,412.89 619.891,417.723 625.5,421C632.88,423.531 637.38,421.031 639,413.5C639.942,403.61 635.442,399.277 625.5,400.5ZM358.5,640.5C360.952,653.215 363.619,665.882 366.5,678.5C387.956,677.762 408.123,672.429 427,662.5C428.608,657.561 430.441,652.727 432.5,648C407.826,645.462 383.159,642.962 358.5,640.5ZM446.5,725.5C434.519,735.502 421.185,743.502 406.5,749.5C419.192,760.184 433.192,768.851 448.5,775.5C455.821,764.871 463.154,754.204 470.5,743.5C461.686,738.443 453.686,732.443 446.5,725.5ZM424.5,685.5C408.151,691.975 391.151,696.309 373.5,698.5C379.047,711.932 385.881,724.599 394,736.5C404.085,730.54 414.252,724.707 424.5,719C427.681,716.908 430.681,714.575 433.5,712C435.025,710.991 436.692,710.491 438.5,710.5C436.369,705.563 434.202,700.563 432,695.5C430.648,692.28 429.814,688.947 429.5,685.5L424.5,685.5ZM397.5,525.5C393.241,531.604 388.741,537.604 384,543.5C379.532,551.439 375.366,559.439 371.5,567.5C391.854,572.451 412.187,577.617 432.5,583C437.834,584.507 443.168,585.007 448.5,584.5C452.425,576.571 454.591,568.237 455,559.5C438.215,544.231 419.048,532.898 397.5,525.5ZM363.5,585.5C360.619,597.665 358.953,609.998 358.5,622.5C364.176,622.334 369.843,622.501 375.5,623C394.837,625.215 414.17,627.382 433.5,629.5C433.59,621.053 434.59,612.72 436.5,604.5C412.302,597.7 387.969,591.367 363.5,585.5ZM575.5,705.5C560.655,715.089 545.655,724.422 530.5,733.5C536.167,742.833 541.833,752.167 547.5,761.5C551.651,756.848 555.985,752.348 560.5,748C573.129,737.707 585.462,727.04 597.5,716C592.077,708.455 584.743,704.955 575.5,705.5ZM514.5,747.5C512.603,750.559 509.936,752.726 506.5,754C499.508,755.26 492.841,754.426 486.5,751.5C480.913,759.001 476.079,767.001 472,775.5C470.542,777.96 468.709,780.127 466.5,782C476.762,785.186 487.262,786.686 498,786.5C511.403,788.375 522.237,784.042 530.5,773.5C525.431,764.483 520.098,755.817 514.5,747.5ZM481.5,354.5C486.511,354.334 491.511,354.501 496.5,355C501.143,357.072 502.643,360.572 501,365.5C500.654,367.848 499.487,369.681 497.5,371C480.212,372.975 462.879,374.642 445.5,376C407.692,382.477 379.192,402.31 360,435.5C354.805,446.279 351.472,457.612 350,469.5C349.623,483.844 349.623,498.177 350,512.5C349.167,514.667 347.667,516.167 345.5,517C337.202,519.108 332.702,515.942 332,507.5C323.219,454.124 340.719,411.958 384.5,381C393.016,375.239 402.016,370.239 411.5,366C422.54,362.098 433.873,359.431 445.5,358C457.697,357.308 469.697,356.142 481.5,354.5ZM787.5,381.5C783.769,397.194 777.602,411.861 769,425.5C747.388,456.778 725.388,487.778 703,518.5C699.893,523.056 697.06,527.723 694.5,532.5C692.734,534.771 690.734,536.937 688.5,539C677.207,541.957 672.707,537.79 675,526.5C676.746,522.673 678.746,519.007 681,515.5C705.721,481.779 730.055,447.779 754,413.5C759.907,403.111 764.24,392.111 767,380.5C769.541,365.21 771.208,349.876 772,334.5C778.292,328.952 784.292,329.285 790,335.5C790.637,350.918 789.803,366.251 787.5,381.5ZM722.5,552.5C730.133,551.313 734.466,554.48 735.5,562C728.674,599.497 707.341,624.83 671.5,638C653.318,643.92 634.651,647.253 615.5,648C571.826,648.728 528.159,648.394 484.5,647C477.868,643.903 475.701,638.736 478,631.5C479.333,629.167 481.333,628.167 484,628.5C531.146,631.088 578.313,631.588 625.5,630C655.942,628.525 681.442,616.692 702,594.5C709.393,583.622 714.06,571.622 716,558.5C717.436,555.558 719.603,553.558 722.5,552.5Z"/>
    </g>
</svg>
