<?xml version="1.0" encoding="UTF-8" standalone="no"?>
<!DOCTYPE svg PUBLIC "-//W3C//DTD SVG 1.1//EN" "http://www.w3.org/Graphics/SVG/1.1/DTD/svg11.dtd">
<svg width="100%" height="100%" viewBox="0 0 1024 1024" version="1.1" xmlns="http://www.w3.org/2000/svg" xmlns:xlink="http://www.w3.org/1999/xlink" xml:space="preserve" xmlns:serif="http://www.serif.com/" style="fill-rule:evenodd;clip-rule:evenodd;stroke-linejoin:round;stroke-miterlimit:2;">
    <g transform="matrix(1.43369,0,0,1.43369,-258.236,-239.798)">
        <path d="M561.5,878.5C515.668,879.665 469.668,879.832 423.5,879C421.545,878.047 419.878,876.713 418.5,875C404.673,874.696 391.34,872.03 378.5,867C377.069,866.535 375.903,865.701 375,864.5C376.086,871.493 373.586,876.659 367.5,880C344.833,880.667 322.167,880.667 299.5,880C294.172,874.562 293.172,868.396 296.5,861.5C297.665,860.416 298.998,859.583 300.5,859C321.188,858.151 341.855,857.818 362.5,858C312.883,824.593 290.049,777.759 294,717.5C298.067,686.04 310.734,658.706 332,635.5C333.3,632.705 334.8,630.039 336.5,627.5C334.929,625.118 334.096,622.451 334,619.5C333.622,596.774 338.289,575.107 348,554.5C360.484,532.342 376.318,512.842 395.5,496C376.946,485.453 360.779,471.953 347,455.5C346.535,456.931 345.701,458.097 344.5,459C339.833,461.667 335.167,464.333 330.5,467C323.567,470.116 318.401,468.283 315,461.5C314.333,457.833 314.333,454.167 315,450.5C315.785,448.714 316.951,447.214 318.5,446C322.668,443.75 326.668,441.25 330.5,438.5C323.972,425.239 318.638,411.572 314.5,397.5C306.835,400.918 298.835,402.418 290.5,402C284.075,396.451 283.075,390.117 287.5,383C295.532,379.452 303.698,376.285 312,373.5C312.333,312.167 312.667,250.833 313,189.5C318.882,171.967 331.049,164.8 349.5,168C364.002,172.916 377.335,179.916 389.5,189C405.716,200.947 421.383,213.614 436.5,227C465.8,226.374 495.134,226.374 524.5,227C528.835,227.834 533.168,228.667 537.5,229.5C561.554,209.622 586.887,191.456 613.5,175C632.819,162.601 649.319,165.434 663,183.5C665.099,187.231 666.266,191.231 666.5,195.5C666.824,254.685 666.49,313.852 665.5,373C665.833,373.833 666.167,374.667 666.5,375.5C671.873,377.569 677.207,379.736 682.5,382C688.116,387.086 688.949,392.919 685,399.5C680.551,402.63 675.718,403.296 670.5,401.5C666.976,400.035 663.309,399.035 659.5,398.5C655.817,411.549 651.151,424.216 645.5,436.5C651.897,440.791 658.064,445.457 664,450.5C666.372,457.715 664.539,463.549 658.5,468C656.5,468.667 654.5,468.667 652.5,468C644.711,464.606 637.378,460.44 630.5,455.5C618.716,470.288 605.049,482.954 589.5,493.5C601.187,506.686 612.687,520.019 624,533.5C644.239,562.187 652.572,593.854 649,628.5C665.752,648.981 679.752,671.314 691,695.5C693.208,700.289 694.708,705.289 695.5,710.5C697.131,698.995 696.298,687.661 693,676.5C665.795,619.813 663.462,562.147 686,503.5C694.16,482.676 707.993,466.843 727.5,456C756.149,448.651 776.316,458.485 788,485.5C793.205,510.553 786.371,531.719 767.5,549C764.833,550 762.167,551 759.5,552C752.009,552.848 747.676,549.515 746.5,542C746.542,540.033 747.042,538.199 748,536.5C762.662,524.858 768.662,509.858 766,491.5C760.383,478.275 750.549,473.442 736.5,477C720.468,488.05 709.301,502.883 703,521.5C693.891,547.422 690.891,574.088 694,601.5C697.295,627.382 704.628,652.049 716,675.5C723.81,712.381 715.144,744.715 690,772.5C686.894,791.876 679.06,809.042 666.5,824C696.748,815.777 720.248,798.277 737,771.5C757.94,734.345 764.607,694.679 757,652.5C753.453,637.642 749.286,622.975 744.5,608.5C746.696,600.23 752.03,597.397 760.5,600C761.931,600.465 763.097,601.299 764,602.5C781.723,640.415 787.056,680.082 780,721.5C770.614,772.835 743.447,811.335 698.5,837C677.373,847.198 655.04,852.865 631.5,854C612.929,867.079 592.263,873.746 569.5,874C568.956,874.717 568.289,875.217 567.5,875.5C566.089,877.539 564.089,878.539 561.5,878.5ZM643.5,223.5C643.666,214.494 643.5,205.494 643,196.5C641.166,191.657 637.666,189.823 632.5,191C608.281,203.876 586.281,219.876 566.5,239C598.147,252.985 623.313,274.485 642,303.5C643.762,311.296 644.595,311.296 644.5,303.5C643.535,276.859 643.202,250.192 643.5,223.5ZM634.5,341.5C611.674,286.737 570.674,256.237 511.5,250C491.167,249.333 470.833,249.333 450.5,250C440.62,251.311 430.953,253.644 421.5,257C371.608,278.387 342.608,315.887 334.5,369.5C354.488,368.451 374.488,368.285 394.5,369C402.867,370.887 405.7,376.054 403,384.5C401.74,387.428 399.573,389.261 396.5,390C376.801,390.23 357.134,391.064 337.5,392.5C338.926,404.676 343.593,415.343 351.5,424.5C366.272,417.781 381.272,411.614 396.5,406C402.062,404.419 406.562,405.919 410,410.5C411.509,416.284 410.009,421.117 405.5,425C392.37,430.399 379.703,436.566 367.5,443.5C388.969,469.748 416.636,485.248 450.5,490C471.812,491.496 493.146,491.83 514.5,491C524.3,490.644 533.967,489.311 543.5,487C570.032,480.129 592.199,466.296 610,445.5C599.982,438.056 588.815,431.89 576.5,427L573,423.5C568.266,417.714 568.433,412.214 573.5,407C578.257,406.19 582.924,406.524 587.5,408C599.923,414.295 612.423,420.461 625,426.5C631.114,416.604 635.281,405.937 637.5,394.5C632.179,393.601 626.846,392.768 621.5,392C607.765,391.946 594.098,391.28 580.5,390C575.741,385.509 574.241,380.009 576,373.5C577.339,370.906 579.506,369.406 582.5,369C589.833,368.833 597.167,368.667 604.5,368.5C616.984,368.062 629.317,369.062 641.5,371.5C639.806,361.326 637.473,351.326 634.5,341.5ZM433.5,318.5C442.693,317.176 448.859,320.843 452,329.5C452.905,337.911 452.572,346.245 451,354.5C445.102,364.435 437.602,365.935 428.5,359C427.54,357.581 426.707,356.081 426,354.5C425.333,345.167 425.333,335.833 426,326.5C427.84,323.103 430.34,320.436 433.5,318.5ZM540.5,318.5C548.843,317.412 554.343,320.745 557,328.5C557.667,337.167 557.667,345.833 557,354.5C552.271,363.298 545.438,365.465 536.5,361C533.836,358.331 532.002,355.164 531,351.5C530.333,344.167 530.333,336.833 531,329.5C532.627,324.382 535.793,320.715 540.5,318.5ZM478.5,369.5C487.839,369.334 497.173,369.5 506.5,370C512.364,373.566 514.53,378.733 513,385.5C512.575,390.92 509.742,394.087 504.5,395C507.657,401.329 511.991,406.663 517.5,411C521.782,410.21 526.116,409.376 530.5,408.5C538.132,408.979 540.965,412.979 539,420.5C537.93,423.242 536.43,425.742 534.5,428C517.981,436.663 503.648,433.83 491.5,419.5C482.864,428.989 472.198,433.155 459.5,432C448.369,428.735 444.703,421.735 448.5,411C450.438,409.128 452.771,408.295 455.5,408.5C460.076,409.973 464.743,410.473 469.5,410C474.021,405.858 477.188,401.025 479,395.5C472.722,388.715 471.389,381.049 475,372.5C476.145,371.364 477.312,370.364 478.5,369.5ZM333.5,298.5C332.833,300.819 332.666,303.153 333,305.5C338.742,293.755 346.075,283.088 355,273.5C371.701,258.151 390.535,245.984 411.5,237C402.849,228.686 393.849,220.686 384.5,213C372.016,203.423 358.35,195.923 343.5,190.5C340.026,191.402 337.026,193.068 334.5,195.5C333.52,229.802 333.187,264.136 333.5,298.5ZM569.5,501.5C560.176,505.33 550.51,508.496 540.5,511C507.54,515.044 474.54,515.378 441.5,512C432.445,509.923 423.445,507.757 414.5,505.5C414.649,506.552 414.483,507.552 414,508.5C401.954,520.545 390.621,533.212 380,546.5C374.481,554.872 369.481,563.539 365,572.5C357.336,589.483 355.002,607.15 358,625.5C383.04,702.661 408.54,779.661 434.5,856.5C450.486,857.499 466.486,857.833 482.5,857.5C482.333,805.499 482.5,753.499 483,701.5C483.606,698.452 485.106,695.952 487.5,694C497.082,690.707 503.248,693.873 506,703.5C506.5,754.832 506.667,806.166 506.5,857.5L552.5,857.5C575.008,787.463 597.841,717.463 621,647.5C624.675,634.934 626.842,622.101 627.5,609C624.847,579.687 613.68,554.187 594,532.5C584.349,524.185 577.016,514.185 572,502.5C571.329,501.748 570.496,501.414 569.5,501.5ZM342.5,656.5C336.522,666.671 330.689,677.004 325,687.5C322.693,693.392 320.693,699.392 319,705.5C308.711,761.351 326.545,805.517 372.5,838C383.493,845.005 395.16,848.671 407.5,849C387.325,784.809 366.159,720.976 344,657.5C343.617,656.944 343.117,656.611 342.5,656.5ZM640.5,656.5C639.809,661.598 638.642,666.598 637,671.5C617.129,730.613 597.962,789.947 579.5,849.5C598.151,848.007 614.817,841.507 629.5,830C667.599,796.698 681.099,755.198 670,705.5C662.752,687.462 652.919,671.128 640.5,656.5ZM716.5,858.5C723.508,858.334 730.508,858.5 737.5,859C746.582,862.573 748.748,868.739 744,877.5C742.421,879.041 740.587,880.208 738.5,881C730.167,881.667 721.833,881.667 713.5,881C708.28,876.084 707.113,870.25 710,863.5C711.965,861.45 714.132,859.783 716.5,858.5Z"/>
    </g>
</svg>
