<?xml version="1.0" encoding="UTF-8" standalone="no"?>
<!DOCTYPE svg PUBLIC "-//W3C//DTD SVG 1.1//EN" "http://www.w3.org/Graphics/SVG/1.1/DTD/svg11.dtd">
<svg width="100%" height="100%" viewBox="0 0 1024 1024" version="1.1" xmlns="http://www.w3.org/2000/svg" xmlns:xlink="http://www.w3.org/1999/xlink" xml:space="preserve" xmlns:serif="http://www.serif.com/" style="fill-rule:evenodd;clip-rule:evenodd;stroke-linejoin:round;stroke-miterlimit:2;">
    <g transform="matrix(1.47548,0,0,1.47548,-204.161,-305.311)">
        <path d="M238.5,319.5C207.81,308.325 176.81,297.825 145.5,288C139.333,284.155 137.166,278.655 139,271.5C140.793,268.705 142.96,266.205 145.5,264C174.142,242.47 206.142,234.804 241.5,241C249.688,242.73 257.688,245.063 265.5,248C266.756,248.417 267.423,249.25 267.5,250.5C269.543,247.457 272.21,245.124 275.5,243.5C283.416,234.873 292.749,228.206 303.5,223.5C314.789,218.008 326.789,214.675 339.5,213.5C382.822,211.587 418.989,226.587 448,258.5C453,264.833 458,271.167 463,277.5C464.454,280.071 465.62,282.738 466.5,285.5C467.167,285.5 467.5,285.833 467.5,286.5C472.455,294.744 476.621,303.41 480,312.5C484.153,328.112 488.153,343.778 492,359.5C496.886,373.49 502.552,387.157 509,400.5C515.42,410.737 521.587,421.07 527.5,431.5C538.189,445.531 548.522,459.864 558.5,474.5C571.756,493.607 586.756,511.44 603.5,528C606.557,530.723 609.89,533.056 613.5,535C621.619,537.362 629.619,540.029 637.5,543C646.704,552.535 655.537,562.368 664,572.5C685.902,597.202 711.736,616.702 741.5,631L768.5,640C778.701,645.335 780.034,652.335 772.5,661C745.134,669 717.468,670.5 689.5,665.5C728.667,699.165 768,732.665 807.5,766C812.411,770.406 816.745,775.24 820.5,780.5C826.931,788.263 830.764,797.263 832,807.5C834.683,835.317 823.183,854.483 797.5,865C781.672,869.256 766.339,868.09 751.5,861.5C740.481,853.991 730.481,845.157 721.5,835C706.536,822.372 691.869,809.372 677.5,796C638.281,762.245 598.948,728.745 559.5,695.5C553.621,692.13 548.455,687.797 544,682.5C540.385,668.118 545.885,661.951 560.5,664L566.5,667C619.5,712.667 672.5,758.333 725.5,804C729.37,807.702 733.037,811.536 736.5,815.5C738.027,815.427 739.027,816.094 739.5,817.5C746.295,823.125 752.962,828.958 759.5,835C775.57,845.012 790.07,843.179 803,829.5C803.938,827.512 804.772,825.512 805.5,823.5C808.229,812.089 806.062,801.756 799,792.5C758.011,757.348 716.844,722.348 675.5,687.5C665.57,678.201 655.237,669.367 644.5,661C629.523,657.672 614.523,654.505 599.5,651.5C573.917,646.694 549.583,638.194 526.5,626C505.022,615.43 484.022,604.096 463.5,592C451.891,585.708 441.224,578.208 431.5,569.5C420.145,559.811 409.479,549.478 399.5,538.5C373.469,512.785 354.802,482.452 343.5,447.5C342.596,446.791 342.263,445.791 342.5,444.5C336.698,424.776 337.198,405.109 344,385.5C345.274,382.609 346.774,379.942 348.5,377.5C352.759,368.907 359.092,362.24 367.5,357.5C370.947,354.562 374.947,352.562 379.5,351.5C386.569,348.455 394.069,347.122 402,347.5C425.366,348.271 446.533,355.438 465.5,369C466.376,370.586 467.376,372.086 468.5,373.5C465.692,356.379 461.692,339.379 456.5,322.5C448.784,298.392 435.118,278.392 415.5,262.5C405.695,255.263 395.028,249.597 383.5,245.5C380.514,245.097 377.848,244.097 375.5,242.5C344.369,235.087 316.702,241.587 292.5,262C280.607,273.333 270.274,285.833 261.5,299.5C260.859,300.482 260.193,301.482 259.5,302.5C262.444,303.704 265.444,304.704 268.5,305.5C278.712,309.967 281.545,317.3 277,327.5C274.859,330.321 272.025,331.654 268.5,331.5C269.139,335.527 269.972,339.527 271,343.5C274.574,351.653 278.907,359.32 284,366.5C286.835,372.019 287.169,377.686 285,383.5C277.922,393.32 272.755,403.987 269.5,415.5C263.987,481.078 282.487,538.745 325,588.5C346.366,613.737 371.533,634.07 400.5,649.5C407.829,652.831 415.162,656.164 422.5,659.5C428.218,661.63 433.885,663.964 439.5,666.5C446.218,674.319 448.885,683.319 447.5,693.5C444.394,694.328 441.394,694.661 438.5,694.5C447.384,711.264 456.551,727.93 466,744.5C469.052,749.937 471.552,755.603 473.5,761.5C470.689,768.146 466.856,774.146 462,779.5C449.15,793.906 436.316,808.239 423.5,822.5C418.298,829.578 412.631,836.245 406.5,842.5C400.547,850.878 394.213,859.044 387.5,867C401.829,867.5 416.163,867.667 430.5,867.5C430.351,866.448 430.517,865.448 431,864.5L445,850.5C466.98,825.019 489.147,799.685 511.5,774.5C499.559,750.622 487.059,726.955 474,703.5C470.738,696.551 467.572,689.551 464.5,682.5C461.842,679.194 459.676,675.527 458,671.5C455.106,665.713 452.773,659.713 451,653.5C449.607,648.051 450.774,643.384 454.5,639.5C461.998,634.96 468.831,635.96 475,642.5C478.726,651.01 482.059,659.677 485,668.5C500.57,699.311 516.904,729.645 534,759.5C537.155,764.638 539.321,770.138 540.5,776C538.987,781.858 536.153,787.024 532,791.5C514.295,810.87 496.961,830.537 480,850.5L463.5,867C514.831,868.594 566.164,868.928 617.5,868C624.955,872.629 627.122,879.129 624,887.5C622.833,890.667 620.667,892.833 617.5,894C528.332,894.832 439.332,894.666 350.5,893.5L349.5,893.5C345.897,891.565 343.897,888.565 343.5,884.5C342.147,880.444 342.647,876.444 345,872.5C349.185,869.405 353.185,866.072 357,862.5C383.283,830.052 410.45,798.386 438.5,767.5C440.666,765.163 442.666,762.663 444.5,760C430.705,732.911 417.039,705.744 403.5,678.5C384.818,670.17 367.485,659.837 351.5,647.5C346.278,643.729 341.278,639.729 336.5,635.5C287.209,593.291 256.709,539.957 245,475.5C239.392,439.731 243.558,405.231 257.5,372C249.461,360.389 244.461,347.556 242.5,333.5L242.5,319.5L238.5,319.5ZM237.5,269.5C232.852,268.338 228.185,267.171 223.5,266C219.459,265.173 215.459,265.34 211.5,266.5C208.833,270.5 206.167,274.5 203.5,278.5C211.877,281.793 220.377,284.793 229,287.5C233.746,282.916 238.913,278.916 244.5,275.5C245.574,274.115 246.907,272.949 248.5,272C244.661,271.764 240.994,270.931 237.5,269.5ZM598.5,555.5C585.949,546.787 574.782,536.454 565,524.5C540.512,492.189 516.512,459.522 493,426.5C477.742,410.726 460.908,397.06 442.5,385.5C427.55,377.263 411.55,373.429 394.5,374C381.776,377.892 373.109,386.058 368.5,398.5C368.5,399.167 368.167,399.5 367.5,399.5C365.603,404.988 364.603,410.655 364.5,416.5C368.465,448.422 380.632,476.756 401,501.5C424.146,530.647 451.646,554.814 483.5,574C497.724,581.608 511.724,589.441 525.5,597.5C546.483,608.442 568.483,616.942 591.5,623C627.193,630.95 663.193,636.284 699.5,639C671.937,617.106 646.604,592.773 623.5,566C618.903,564.414 614.236,563.081 609.5,562C605.229,560.654 601.562,558.487 598.5,555.5ZM335.5,267.5C353.648,267.176 366.481,275.176 374,291.5C378.799,311.068 372.299,325.568 354.5,335C325.875,343.021 309.208,332.354 304.5,303C306.538,283.803 316.871,271.969 335.5,267.5ZM337.5,293.5C334.722,295.538 333.055,298.372 332.5,302C334.886,309.024 339.553,311.024 346.5,308C350.687,298.525 347.687,293.692 337.5,293.5Z"/>
    </g>
</svg>
