<?xml version="1.0" encoding="UTF-8" standalone="no"?>
<!DOCTYPE svg PUBLIC "-//W3C//DTD SVG 1.1//EN" "http://www.w3.org/Graphics/SVG/1.1/DTD/svg11.dtd">
<svg width="100%" height="100%" viewBox="0 0 1024 1024" version="1.1" xmlns="http://www.w3.org/2000/svg" xmlns:xlink="http://www.w3.org/1999/xlink" xml:space="preserve" xmlns:serif="http://www.serif.com/" style="fill-rule:evenodd;clip-rule:evenodd;stroke-linejoin:round;stroke-miterlimit:2;">
    <g transform="matrix(1.27309,0,0,1.27309,-156.615,-119.67)">
        <path d="M288.5,171.5C262.156,191.181 241.156,215.514 225.5,244.5C220.193,253.125 216.527,262.458 214.5,272.5C229.515,272.833 244.515,272.499 259.5,271.5C270.973,237.729 291.306,210.563 320.5,190C354.915,165.801 392.915,149.801 434.5,142C459.221,136.695 484.221,134.361 509.5,135C516.738,138.655 519.238,144.488 517,152.5C515.01,156.49 511.843,158.99 507.5,160C467.713,161.186 429.047,168.186 391.5,181C358.074,192.457 329.574,211.291 306,237.5C297.651,247.526 290.818,258.526 285.5,270.5C289.167,271.833 292.833,271.833 296.5,270.5C308.22,252.611 323.553,238.778 342.5,229C347.019,225.571 351.352,221.904 355.5,218C359.555,215.66 363.889,214.993 368.5,216C370.552,216.93 372.052,218.43 373,220.5C385.075,254.981 381.075,287.315 361,317.5C354.29,325.94 346.123,332.607 336.5,337.5C335.056,344.957 335.556,352.29 338,359.5C340.451,366.404 343.451,373.07 347,379.5C365.016,405.271 388.183,425.105 416.5,439C426.77,443.423 437.437,446.423 448.5,448C462.473,449.627 476.473,450.96 490.5,452C550.844,453.691 611.178,455.691 671.5,458C710.118,462.977 743.118,479.143 770.5,506.5C782.335,501.385 794.335,496.552 806.5,492C818.883,486.95 828.05,478.45 834,466.5C837.806,457.417 841.806,448.417 846,439.5C857.189,431.443 866.189,433.443 873,445.5C886,489.134 876.834,527.301 845.5,560C832.982,570.013 819.149,577.846 804,583.5C802.768,597.825 799.935,611.825 795.5,625.5C797.43,629.273 799.597,632.94 802,636.5C812.583,647.383 825.083,655.55 839.5,661C853.103,665.868 866.77,670.534 880.5,675C900.83,683.815 909.663,699.315 907,721.5C898.999,760.839 890.999,800.173 883,839.5C881.882,844.703 879.715,849.37 876.5,853.5C868.284,858.483 861.784,856.816 857,848.5C856.333,844.833 856.333,841.167 857,837.5C866.297,795.887 874.463,754.054 881.5,712C881.347,705.512 878.347,700.845 872.5,698C849.618,692.817 827.951,684.484 807.5,673C796.056,666.053 786.389,657.22 778.5,646.5C770.188,652.977 762.021,659.644 754,666.5C745.574,677.704 742.407,690.204 744.5,704C768.897,708.02 792.564,714.687 815.5,724C827.522,727.699 836.022,735.199 841,746.5C842.856,752.816 842.856,759.149 841,765.5C834.649,793.57 827.982,821.57 821,849.5C819.833,852 818,853.833 815.5,855C807.565,857.28 801.731,854.78 798,847.5C797.376,841.405 797.876,835.405 799.5,829.5C804.455,807.918 809.621,786.251 815,764.5C816.184,760.551 816.518,756.551 816,752.5C811.528,749.347 806.694,746.847 801.5,745C790.253,741.355 778.919,738.022 767.5,735C761.712,733.407 756.212,731.241 751,728.5C752.116,735.171 754.449,741.505 758,747.5C765.333,758.167 772.667,768.833 780,779.5C782.142,786.278 781.809,792.945 779,799.5C776,804.167 773,808.833 770,813.5C749.896,839.764 730.396,866.431 711.5,893.5C705.451,899.604 699.117,899.937 692.5,894.5C688.25,886.898 688.75,879.565 694,872.5C699.719,864.955 705.219,857.288 710.5,849.5C711.338,849.158 711.672,848.492 711.5,847.5C727.426,827.396 742.426,806.562 756.5,785C745.236,772.989 736.07,759.489 729,744.5C720.089,722.549 717.423,699.882 721,676.5C726.505,653.962 740.005,638.462 761.5,630C771.283,620.677 776.45,609.177 777,595.5C778.271,574.992 773.605,555.992 763,538.5C737.686,502.587 702.853,484.087 658.5,483C601.519,480.741 544.519,479.074 487.5,478C470.392,476.856 453.392,474.856 436.5,472C407.756,464.963 382.423,451.63 360.5,432C342.578,416.428 328.078,398.262 317,377.5C310.447,363.183 308.114,348.183 310,332.5C311.115,328.271 312.781,324.271 315,320.5C321.212,315.972 327.712,311.805 334.5,308C349.916,293.082 355.749,274.915 352,253.5C342.763,259.401 334.096,266.068 326,273.5C320.793,280.745 315.959,288.245 311.5,296C294.709,297.13 277.876,297.63 261,297.5C245.594,297.496 230.261,297.163 215,296.5C217.33,303.231 216.997,309.897 214,316.5C201.177,338.316 187.177,359.316 172,379.5C167.745,386.642 167.412,393.975 171,401.5C172.961,404.135 175.461,405.969 178.5,407C205.5,407.333 232.5,407.667 259.5,408C260.833,408.667 262.167,409.333 263.5,410C294.237,462.408 325.403,514.575 357,566.5C359.394,571.395 358.894,575.895 355.5,580C333.052,587.056 311.385,596.056 290.5,607C276.847,616.238 275.014,627.404 285,640.5C290.896,645.469 297.729,648.302 305.5,649C325.582,651.505 345.582,654.338 365.5,657.5C373.748,651.754 380.415,644.587 385.5,636C380.726,624.674 376.559,613.174 373,601.5C365.06,568.559 369.06,537.226 385,507.5C389.406,500.424 394.572,493.924 400.5,488C407.938,482.269 415.438,482.102 423,487.5C425.635,491.351 425.969,495.351 424,499.5C420.467,506.04 415.8,511.706 410,516.5C401.953,528.606 397.286,541.939 396,556.5C393.64,575.768 395.974,594.434 403,612.5C407,619.167 411,625.833 415,632.5C416.405,638.535 415.072,643.868 411,648.5C385.601,673.236 359.601,697.236 333,720.5C328.155,727.756 328.488,734.756 334,741.5C340.368,747.926 347.202,753.759 354.5,759C372.05,766.942 389.717,774.608 407.5,782C418.202,787.34 428.869,792.673 439.5,798C446.572,800.937 453.906,802.27 461.5,802C466.499,798.541 469.166,793.708 469.5,787.5C467.651,780.272 467.151,772.939 468,765.5C471.909,758.364 477.743,756.531 485.5,760C488.473,761.765 490.64,764.265 492,767.5C499.251,787.865 495.417,805.699 480.5,821C476.326,823.588 471.993,825.921 467.5,828C461.569,829.471 455.569,829.804 449.5,829C416.167,814.333 382.833,799.667 349.5,785C334.409,776.047 321.242,764.88 310,751.5C301.707,734.978 303.04,719.311 314,704.5C322.407,695.59 331.24,687.257 340.5,679.5C326.817,677.798 313.151,675.965 299.5,674C279.396,669.89 264.896,658.724 256,640.5C249.588,619.398 255.088,601.898 272.5,588C289.706,579.062 307.372,571.229 325.5,564.5C299.795,520.252 273.462,476.419 246.5,433C225.047,433.249 203.547,433.749 182,434.5C161.487,433.332 148.821,422.665 144,402.5C141.308,388.955 143.642,376.288 151,364.5C164.327,346.519 176.66,327.853 188,308.5C188.935,306.091 189.435,303.591 189.5,301C186.45,281.9 188.617,263.4 196,245.5C214.382,204.447 242.215,171.281 279.5,146C322.032,116.6 369.032,99.266 420.5,94C429.655,98.501 431.821,105.334 427,114.5C425.167,115.667 423.333,116.833 421.5,118C382.779,124.843 346.112,137.51 311.5,156C303.422,160.694 295.756,165.861 288.5,171.5ZM852.5,487.5C849.803,492.706 846.137,497.206 841.5,501C824.389,513.323 805.389,521.49 784.5,525.5C789.704,535.911 794.371,546.577 798.5,557.5C831.983,545.774 849.983,522.441 852.5,487.5ZM235.5,342.5C244.839,342.334 254.173,342.5 263.5,343C273.537,348.157 275.203,355.49 268.5,365C267.167,365.667 265.833,366.333 264.5,367C258.175,367.5 251.842,367.666 245.5,367.5C245.857,371.664 244.19,374.831 240.5,377C233.593,379.694 226.593,380.028 219.5,378C212.186,372.249 210.853,365.416 215.5,357.5C220.02,355.886 224.686,355.22 229.5,355.5C229.338,353.473 229.505,351.473 230,349.5C231.666,347.004 233.5,344.671 235.5,342.5ZM706.5,806.5C687.121,831.88 668.121,857.546 649.5,883.5C640.074,891.177 632.24,889.844 626,879.5C625.333,876.833 625.333,874.167 626,871.5C628.232,866.035 631.232,861.035 635,856.5C651.728,836.039 667.728,815.039 683,793.5C684.162,788.875 684.496,784.208 684,779.5C663.457,755.403 644.124,730.403 626,704.5C619.698,693.879 613.864,683.045 608.5,672C574.474,671.237 540.474,671.904 506.5,674C496.248,674.646 486.581,677.312 477.5,682C461.811,692.845 446.477,704.179 431.5,716C429.754,716.471 428.087,717.138 426.5,718C435.622,722.061 444.622,726.394 453.5,731C459.746,731.62 465.579,733.454 471,736.5C475.022,745.905 472.522,753.071 463.5,758C457.958,758.913 452.625,758.246 447.5,756C433.877,749.604 420.377,743.104 407,736.5C399.225,741.937 391.725,747.771 384.5,754C375.216,758.599 368.049,756.432 363,747.5C362.382,740.902 364.882,735.735 370.5,732C399.453,710.049 428.12,687.715 456.5,665C473.136,654.123 491.469,648.456 511.5,648C532.82,646.9 554.153,646.4 575.5,646.5L594.5,646.5C594.737,645.209 594.404,644.209 593.5,643.5C590.017,627.005 588.851,610.338 590,593.5C591.828,581.511 596.161,570.511 603,560.5C611.345,548.99 620.011,548.657 629,559.5C629.667,562.167 629.667,564.833 629,567.5C625.7,573.48 622.366,579.48 619,585.5C613.136,606.77 614.803,627.437 624,647.5C637.798,675.771 654.131,702.438 673,727.5L706,766.5C713.113,779.778 713.28,793.111 706.5,806.5Z"/>
    </g>
</svg>
