<?xml version="1.0" encoding="UTF-8" standalone="no"?>
<!DOCTYPE svg PUBLIC "-//W3C//DTD SVG 1.1//EN" "http://www.w3.org/Graphics/SVG/1.1/DTD/svg11.dtd">
<svg width="100%" height="100%" viewBox="0 0 1024 1024" version="1.1" xmlns="http://www.w3.org/2000/svg" xmlns:xlink="http://www.w3.org/1999/xlink" xml:space="preserve" xmlns:serif="http://www.serif.com/" style="fill-rule:evenodd;clip-rule:evenodd;stroke-linejoin:round;stroke-miterlimit:2;">
    <g transform="matrix(1.46296,0,0,1.46296,-232.621,-231.732)">
        <path d="M174.5,329.5C180.434,328.889 186.1,329.722 191.5,332C198.859,339.005 199.359,346.505 193,354.5C187.731,359.245 181.564,360.745 174.5,359C171.193,357.272 168.693,354.772 167,351.5C166.161,346.079 166.494,340.746 168,335.5C169.494,332.686 171.66,330.686 174.5,329.5ZM285.5,752.5C250.109,783.224 217.776,816.891 188.5,853.5C178.188,861.569 170.355,859.569 165,847.5C162.737,840.995 163.071,834.662 166,828.5C200.868,786.632 239.368,748.465 281.5,714C361.181,652.906 451.181,627.573 551.5,638C584.2,642.45 616.867,647.117 649.5,652C670.225,652.99 690.892,652.324 711.5,650C723.954,648.182 735.621,644.182 746.5,638C753.917,632.335 758.084,624.835 759,615.5C759.499,610.177 759.666,604.844 759.5,599.5C738.164,599.667 716.831,599.5 695.5,599C671.839,598.243 652.672,588.743 638,570.5C634.383,564.6 631.883,558.267 630.5,551.5C630.68,550.446 631.013,549.446 631.5,548.5C622.852,547.668 614.186,547.168 605.5,547C601.23,545.321 598.73,542.155 598,537.5C596.491,531.716 597.991,526.883 602.5,523C604.025,521.991 605.692,521.491 607.5,521.5C615.243,522.13 622.576,521.463 629.5,519.5C633.945,497.938 644.112,479.605 660,464.5C661.861,462.112 663.194,459.446 664,456.5C663.463,439.687 659.463,423.687 652,408.5C644.868,416.325 636.034,421.492 625.5,424C596.026,427.517 574.859,416.017 562,389.5C560.801,386.274 560.301,382.941 560.5,379.5C541.86,382.36 535.027,374.693 540,356.5C541.261,353.789 543.094,351.622 545.5,350C558.5,349.833 571.5,349.667 584.5,349.5C621.104,344.201 652.27,354.535 678,380.5C684.829,395.145 689.496,410.478 692,426.5C695.233,439.984 696.233,453.65 695,467.5C694.226,471.049 692.893,474.382 691,477.5C676.685,488.809 666.852,503.142 661.5,520.5C673.222,521.063 684.889,521.896 696.5,523C703.796,528.508 705.296,535.342 701,543.5C699.786,545.049 698.286,546.215 696.5,547C684.838,547.5 673.171,547.667 661.5,547.5C666.707,560.459 676.374,567.625 690.5,569C716.5,569.667 742.5,569.667 768.5,569C772.5,567.333 776.5,565.667 780.5,564C781.649,555.579 781.816,547.079 781,538.5C773.205,532.373 765.705,525.873 758.5,519C748.766,511.273 742.266,501.44 739,489.5C738.475,479.759 740.975,470.926 746.5,463C747.833,462.333 749.167,461.667 750.5,461C768.842,460.833 787.176,460.333 805.5,459.5C768.7,420.878 737.533,378.212 712,331.5C687.721,293.55 655.554,264.383 615.5,244C596.234,236.342 576.234,231.676 555.5,230C539.534,228.502 523.534,227.669 507.5,227.5C482.825,228.234 458.159,228.734 433.5,229C430.624,228.562 427.957,227.562 425.5,226C420.272,220.225 415.272,214.225 410.5,208C396.709,195.18 380.375,189.513 361.5,191C340.675,197.158 327.175,210.658 321,231.5C314.997,255.542 320.83,276.042 338.5,293C347.883,300.717 357.549,308.051 367.5,315C376.158,322.608 377.658,331.441 372,341.5C361.665,349.336 352.498,358.336 344.5,368.5C314.603,403.927 289.436,442.593 269,484.5C257.665,507.499 247.165,530.833 237.5,554.5C230.863,565.857 222.696,567.19 213,558.5C209.69,551.871 208.69,544.871 210,537.5C232.578,481.005 260.912,427.672 295,377.5C307.256,361.076 320.423,345.41 334.5,330.5C320.457,319.289 308.29,306.289 298,291.5C276.933,246.265 285.1,207.098 322.5,174C347.927,156.34 374.927,153.673 403.5,166C418.828,172.987 431.495,183.32 441.5,197C473.494,196.581 505.494,196.581 537.5,197C569.979,197.829 601.313,204.162 631.5,216C657.25,228.459 680.083,244.959 700,265.5C713.472,279.966 725.805,295.299 737,311.5C752.584,337.674 768.918,363.341 786,388.5C804.497,412.839 824.831,435.506 847,456.5C856.579,472.948 856.913,489.615 848,506.5C838.57,519.999 827.736,532.332 815.5,543.5C817.168,565.4 809.335,582.734 792,595.5C793.653,645.845 769.487,674.012 719.5,680C688.158,684.494 656.825,684.494 625.5,680C596.37,674.505 567.037,670.505 537.5,668C441.05,660.427 357.05,688.593 285.5,752.5ZM592.5,380.5C594.522,385.031 597.522,388.864 601.5,392C613.905,398.738 623.572,396.071 630.5,384C628.508,382.002 626.174,380.502 623.5,379.5C612.993,378.177 602.326,378.177 591.5,379.5C591.624,380.107 591.957,380.44 592.5,380.5ZM772.5,489.5C780.651,497.758 788.818,506.091 797,514.5C805.348,506.319 813.514,497.986 821.5,489.5C804.958,489.345 788.625,489.345 772.5,489.5ZM442.5,334.5C461.86,334.557 470.694,344.223 469,363.5C460.486,379.116 448.653,382.283 433.5,373C422.941,361.528 422.941,350.195 433.5,339L442.5,334.5ZM649.5,292.5C668.196,292.536 674.696,301.536 669,319.5C667.52,322.663 665.02,324.496 661.5,325C641.992,326.829 634.826,318.329 640,299.5C642.529,296.115 645.696,293.782 649.5,292.5ZM369.5,238.5C375.189,238.089 380.522,239.256 385.5,242C401.088,255.919 415.588,270.753 429,286.5C430.572,301.437 423.739,309.104 408.5,309.5C403.153,309.332 398.653,307.332 395,303.5C392.441,297.961 389.607,292.627 386.5,287.5C377.848,279.348 369.348,271.014 361,262.5C356.042,251.531 358.876,243.531 369.5,238.5ZM469.5,280.5C493.071,281.62 500.571,293.287 492,315.5C482.698,324.613 472.531,325.78 461.5,319C454.865,311.766 452.698,303.266 455,293.5C458.162,287.164 462.996,282.831 469.5,280.5ZM609.5,254.5C625.33,252.834 632.83,259.834 632,275.5C626.564,286.09 618.397,288.924 607.5,284C599.785,276.329 598.618,267.829 604,258.5C605.812,257.023 607.645,255.69 609.5,254.5ZM543.5,248.5C553.823,247.408 560.656,251.741 564,261.5C565.15,271.359 560.983,277.859 551.5,281C542.074,283.536 535.574,280.369 532,271.5C528.539,259.75 532.373,252.083 543.5,248.5ZM517.5,369.5C529.424,367.616 536.758,372.449 539.5,384C536.981,395.934 529.647,400.934 517.5,399C509.756,393.913 506.922,386.746 509,377.5C511.157,374.024 513.99,371.357 517.5,369.5ZM713.5,369.5C730.579,368.411 736.746,376.078 732,392.5C725.315,399.854 717.482,401.354 708.5,397C700.411,385.728 702.077,376.561 713.5,369.5ZM177.5,392.5C186.791,391.392 193.291,395.058 197,403.5C197.32,418.108 190.154,424.608 175.5,423C171.725,421.558 168.892,419.058 167,415.5C165.535,408.426 166.701,401.926 170.5,396C172.713,394.384 175.047,393.217 177.5,392.5ZM365.5,401.5C384.808,400.308 393.308,409.308 391,428.5C386.082,441.045 376.915,445.879 363.5,443C353.24,438.614 348.74,430.78 350,419.5C351.839,410.503 357.006,404.503 365.5,401.5ZM449.5,412.5C469.39,410.888 478.223,419.888 476,439.5C471.544,451.151 463.044,456.318 450.5,455C438.549,450.279 433.382,441.446 435,428.5C436.919,420.419 441.753,415.085 449.5,412.5ZM549.5,426.5C566.484,426.643 573.318,434.976 570,451.5C563.348,460.957 554.848,462.957 544.5,457.5C537.052,448.468 536.719,439.301 543.5,430C545.727,429.059 547.727,427.892 549.5,426.5ZM603.5,450.5C617.966,448.803 624.799,455.137 624,469.5C623.207,477.259 619.04,482.092 611.5,484C595.355,486.522 588.522,479.688 591,463.5C592.718,456.618 596.885,452.285 603.5,450.5ZM175.5,463.5C183.142,462.102 189.642,464.102 195,469.5C199.43,481.476 195.596,489.643 183.5,494C178.819,494.665 174.486,493.665 170.5,491C168.683,489.2 167.516,487.034 167,484.5C164.056,474.911 166.89,467.911 175.5,463.5ZM543.5,477.5C554.345,475.168 561.512,479.168 565,489.5C565.368,502.797 558.868,508.963 545.5,508C539.315,506.217 535.482,502.05 534,495.5C532.236,486.793 535.403,480.793 543.5,477.5ZM461.5,482.5C481.579,480.746 490.745,489.746 489,509.5C485.168,522.68 476.335,528.18 462.5,526C451.984,521.985 446.317,514.319 445.5,503C446.581,492.762 451.915,485.929 461.5,482.5ZM374.5,482.5C392.345,482.84 400.511,491.84 399,509.5C397.203,517.964 392.036,523.131 383.5,525C364.121,526.28 355.621,517.114 358,497.5C360.728,489.396 366.228,484.396 374.5,482.5ZM509.5,522.5C526.786,521.953 535.286,530.286 535,547.5C531.705,560.893 523.205,567.06 509.5,566C497.596,561.701 492.096,553.201 493,540.5C494.933,531.073 500.433,525.073 509.5,522.5ZM177.5,527.5C194.324,527.131 200.157,534.798 195,550.5C188.315,557.854 180.482,559.354 171.5,555C163.355,543.601 165.355,534.434 177.5,527.5ZM423.5,537.5C438.529,536.37 447.196,543.204 449.5,558C447.501,573.339 438.834,580.672 423.5,580C413.813,577.642 408.313,571.476 407,561.5C405.967,556.106 406.967,551.106 410,546.5C413.882,542.429 418.382,539.429 423.5,537.5ZM175.5,590.5C184.888,588.45 192.054,591.45 197,599.5C197.698,613.136 191.198,619.969 177.5,620C171.667,618.833 168.167,615.333 167,609.5C164.752,600.701 167.585,594.368 175.5,590.5ZM627.5,601.5C646.984,600.867 653.484,609.534 647,627.5C639.522,634.514 631.355,635.347 622.5,630C614.663,618.669 616.329,609.169 627.5,601.5ZM582.5,590.5C597.056,589.554 603.556,596.221 602,610.5C597.846,621.071 590.346,624.571 579.5,621C572.401,615.95 569.901,609.117 572,600.5C574.354,595.916 577.854,592.583 582.5,590.5ZM175.5,655.5C193.267,654.079 199.767,661.746 195,678.5C189.878,684.652 183.378,686.818 175.5,685C172.438,683.939 169.938,682.106 168,679.5C163.969,669.158 166.469,661.158 175.5,655.5ZM175.5,719.5C183.461,718.046 190.294,720.046 196,725.5C200.51,736.976 197.01,744.809 185.5,749C169.116,750.141 163.282,742.641 168,726.5C170.396,723.933 172.896,721.6 175.5,719.5Z"/>
    </g>
</svg>
