<?xml version="1.0" encoding="UTF-8" standalone="no"?>
<!DOCTYPE svg PUBLIC "-//W3C//DTD SVG 1.1//EN" "http://www.w3.org/Graphics/SVG/1.1/DTD/svg11.dtd">
<svg width="100%" height="100%" viewBox="0 0 1024 1024" version="1.1" xmlns="http://www.w3.org/2000/svg" xmlns:xlink="http://www.w3.org/1999/xlink" xml:space="preserve" xmlns:serif="http://www.serif.com/" style="fill-rule:evenodd;clip-rule:evenodd;stroke-linejoin:round;stroke-miterlimit:2;">
    <g transform="matrix(1.36908,0,0,1.36908,-188.566,-183.753)">
        <path d="M175.5,671.5C173.549,669.52 172.049,667.187 171,664.5C143.767,600.089 134.434,533.089 143,463.5C147.764,413.211 162.93,366.377 188.5,323C182.96,315.793 176.46,309.626 169,304.5C166.05,300.775 165.716,296.775 168,292.5C174.03,284.065 181.863,277.899 191.5,274C203.564,270.449 215.897,268.282 228.5,267.5C269.899,215.461 321.899,178.128 384.5,155.5C492.21,120.051 596.21,128.884 696.5,182C785.077,233.605 843.577,308.771 872,407.5C887.145,474.465 887.312,541.465 872.5,608.5C851.881,685.433 810.881,749.1 749.5,799.5C732.863,811.955 715.53,823.455 697.5,834C680.33,844.086 662.33,852.253 643.5,858.5C643.5,859.167 643.167,859.5 642.5,859.5C640.597,859.796 638.93,860.463 637.5,861.5C618.867,867.575 599.867,872.242 580.5,875.5C541.042,883.224 501.438,884.233 461.689,878.527C461.626,878.519 461.563,878.51 461.5,878.5C447.763,877.683 434.43,875.349 421.5,871.5C382.653,862.74 346.319,847.907 312.5,827C252.35,787.698 206.683,735.865 175.5,671.5ZM673.5,819.5C668.66,817.661 664.327,814.995 660.5,811.5C637.622,791.126 615.455,769.792 594,747.5C590.284,743.452 586.95,739.118 584,734.5C581.743,730.311 581.243,725.977 582.5,721.5C554.488,719.579 527.488,713.413 501.5,703C426.506,671.334 368.339,620.501 327,550.5C313.694,526.401 303.861,501.067 297.5,474.5C293.683,455.65 292.683,436.65 294.5,417.5C292.22,413.552 289.22,410.218 285.5,407.5C283.164,404.824 280.831,402.158 278.5,399.5C259.873,421.879 252.04,447.546 255,476.5C260.851,500.199 270.517,522.199 284,542.5C323.028,603.86 372.528,655.027 432.5,696C446.708,703.604 461.042,710.937 475.5,718C484.6,727.693 484.767,737.526 476,747.5C463.142,759.359 450.642,771.525 438.5,784C422.046,790.85 414.546,785.35 416,767.5C418.128,764.37 420.628,761.537 423.5,759C433.458,751.377 443.125,743.377 452.5,735C448.942,733.638 445.442,732.138 442,730.5C411.912,744.946 382.079,759.779 352.5,775C348.542,777.234 345.042,780.067 342,783.5C341.672,789.523 343.006,795.189 346,800.5C350.689,806.187 355.689,811.521 361,816.5C364.137,820.469 366.637,824.803 368.5,829.5C374.945,832.195 381.278,834.861 387.5,837.5C483.354,869.179 577.354,864.512 669.5,823.5C671.663,822.531 673.996,821.698 676.5,821C675.263,820.768 674.263,820.268 673.5,819.5ZM692.5,801.5C695.469,802.329 698.469,802.495 701.5,802C706.446,800.194 711.112,797.861 715.5,795C732.838,783.168 748.838,769.668 763.5,754.5C763.512,754.294 763.529,754.088 763.551,753.883C763.571,753.055 763.388,752.261 763,751.5C717.432,702.939 674.432,652.272 634,599.5C629,591.833 624,584.167 619,576.5C622.099,587.056 626.099,597.39 631,607.5C641.485,633.122 649.652,659.455 655.5,686.5C655.345,695.314 651.679,702.148 644.5,707C632.973,713.133 620.64,716.633 607.5,717.5C608.229,722.293 610.063,726.626 613,730.5C619.763,739.267 627.263,747.433 635.5,755C649.467,767.299 663.134,779.966 676.5,793C681.448,796.64 686.781,799.473 692.5,801.5ZM783.5,734.5C836.045,667.362 861.379,590.862 859.5,505C859.644,441.79 844.477,382.623 814,327.5C759.976,240.199 682.476,186.033 581.5,165C454.067,142.372 345.4,177.039 255.5,269C264.874,270.895 274.207,272.561 283.5,274C295.928,256.95 311.928,244.45 331.5,236.5C349.411,228.537 368.078,226.037 387.5,229C396.265,230.858 404.931,233.024 413.5,235.5C425.872,240.883 437.206,247.883 447.5,256.5C473.36,278.88 488.193,307.214 492,341.5C492.333,356.5 492.667,371.5 493,386.5L500,400.5C530.582,433.755 561.249,467.089 592,500.5C617.333,535.167 642.667,569.833 668,604.5C697.54,641.713 728.206,678.046 760,713.5C768.595,720.413 775.261,728.747 780,738.5C780.66,736.676 781.827,735.343 783.5,734.5ZM393.5,255.5C358.621,247.849 329.454,257.515 306,284.5C302.97,289.015 299.803,293.349 296.5,297.5C282.268,325.087 283.268,352.087 299.5,378.5C302.132,379.148 304.465,378.315 306.5,376C310.833,375.333 315.167,375.333 319.5,376C324.732,378.633 326.565,382.799 325,388.5C319.375,402.778 316.875,417.611 317.5,433C318.376,451.463 321.209,469.63 326,487.5C340.163,529.612 362.496,566.612 393,598.5C428.246,635.719 469.746,663.886 517.5,683C552.139,697.213 587.472,699.213 623.5,689C625.833,687.5 628.167,686 630.5,684.5C626.728,674.616 623.228,664.616 620,654.5C616.165,656.743 611.998,658.243 607.5,659C584.206,661.803 563.373,655.969 545,641.5C545.481,650.018 541.647,655.518 533.5,658C524.508,658.368 515.841,656.868 507.5,653.5C485.69,644.773 466.023,632.773 448.5,617.5C443.874,614.046 439.374,610.379 435,606.5C418.235,588.736 402.568,570.07 388,550.5C384.188,545.269 383.022,539.602 384.5,533.5C385.96,531.537 387.627,529.704 389.5,528C395.097,526.909 400.43,527.576 405.5,530C427.741,566.241 456.741,595.908 492.5,619C501.702,624.12 511.369,627.954 521.5,630.5C522.239,630.631 522.906,630.464 523.5,630C500.483,607.992 479.316,584.492 460,559.5C459.019,557.04 458.185,554.54 457.5,552C460.269,539.219 467.602,535.885 479.5,542C482.459,546.751 485.293,551.584 488,556.5C501.138,570.538 514.638,584.371 528.5,598C542.591,611.215 558.258,622.215 575.5,631C587.785,637.669 599.451,636.836 610.5,628.5C598.588,600.667 586.088,573.001 573,545.5C550.201,494.396 518.534,449.729 478,411.5C472.649,402.803 468.983,393.47 467,383.5C466.667,368.167 466.333,352.833 466,337.5C464.3,325.992 460.966,314.992 456,304.5C442.643,278.726 421.81,262.393 393.5,255.5ZM263.5,299.5C259.524,298.705 255.524,298.038 251.5,297.5C244.736,295.965 237.736,295.298 230.5,295.5C225.322,295.501 220.322,295.834 215.5,296.5C211.513,296.284 207.68,296.951 204,298.5C202.743,298.85 202.409,299.517 203,300.5C212.257,309.094 222.09,316.927 232.5,324C242.465,327.854 252.799,329.354 263.5,328.5C263.545,318.875 265.545,309.708 269.5,301C267.564,300.187 265.564,299.687 263.5,299.5ZM214.5,338.5C207.443,344.059 201.61,350.726 197,358.5C185.436,379.855 177.436,402.522 173,426.5C161.113,485.657 161.779,544.657 175,603.5C178.808,617.425 183.308,631.092 188.5,644.5C196.158,661.48 204.658,678.147 214,694.5C239.457,734.788 271.29,769.122 309.5,797.5C309.502,784.004 314.502,772.837 324.5,764C331.924,758.905 339.59,754.238 347.5,750C370.004,739.25 392.004,727.75 413.5,715.5C398.909,702.534 383.909,690.034 368.5,678C351.225,662.058 334.725,645.558 319,628.5C309.333,616.833 299.667,605.167 290,593.5C271.405,567.996 255.072,540.996 241,512.5C232.707,494.37 229.041,475.37 230,455.5C235.586,424.727 247.752,396.894 266.5,372C262.518,366.535 259.184,360.702 256.5,354.5C260.375,354.915 264.042,354.415 267.5,353C259.507,352.5 251.507,352.334 243.5,352.5C232.428,350.798 222.761,346.131 214.5,338.5ZM351.5,294.5C365.129,292.726 374.629,298.059 380,310.5C381.606,327.068 374.106,336.401 357.5,338.5C340.574,334.331 334.074,323.665 338,306.5C340.85,300.514 345.35,296.514 351.5,294.5Z"/>
    </g>
</svg>
