<?xml version="1.0" encoding="UTF-8" standalone="no"?>
<!DOCTYPE svg PUBLIC "-//W3C//DTD SVG 1.1//EN" "http://www.w3.org/Graphics/SVG/1.1/DTD/svg11.dtd">
<svg width="100%" height="100%" viewBox="0 0 1024 1024" version="1.1" xmlns="http://www.w3.org/2000/svg" xmlns:xlink="http://www.w3.org/1999/xlink" xml:space="preserve" xmlns:serif="http://www.serif.com/" style="fill-rule:evenodd;clip-rule:evenodd;stroke-linejoin:round;stroke-miterlimit:2;">
    <g transform="matrix(1.27848,0,0,1.27848,-156.164,-176.864)">
        <path d="M203.5,287.5C231.396,293.561 250.562,309.894 261,336.5C262.935,347.242 258.935,350.575 249,346.5C246.223,343.282 244.223,339.615 243,335.5C244.092,342.573 244.926,349.74 245.5,357C244.407,373.949 240.24,390.115 233,405.5C222.287,427.259 212.954,449.593 205,472.5C198.654,493.138 196.988,514.138 200,535.5C201.969,543.771 205.303,551.438 210,558.5C225.544,573.912 236.211,592.245 242,613.5C244.151,625.084 247.151,636.417 251,647.5C257.638,665.247 269.471,670.413 286.5,663C290.423,659.323 292.923,654.823 294,649.5C296.712,617.85 310.212,592.016 334.5,572C343.179,567.551 352.179,563.885 361.5,561C377.212,553.938 386.045,541.771 388,524.5C394.24,514.247 400.907,513.914 408,523.5C408.015,546.312 398.515,563.812 379.5,576C369.914,580.195 360.248,584.195 350.5,588C330.079,603.656 318.579,624.49 316,650.5C313.471,662.065 307.971,671.898 299.5,680C277.501,694.797 258.001,691.963 241,671.5C236.554,664.942 232.887,657.942 230,650.5C225.269,633.385 220.269,616.385 215,599.5C209.302,590.112 202.635,581.445 195,573.5C177.351,548.872 171.684,521.539 178,491.5C180.198,480.388 182.531,469.388 185,458.5C153.611,442.449 133.277,417.449 124,383.5C119.355,359.991 123.521,338.325 136.5,318.5C152.377,293.904 174.71,283.571 203.5,287.5ZM148.5,340.5C146.906,346.12 145.406,351.787 144,357.5C142.547,396.146 159.381,422.979 194.5,438C203.563,420.372 211.397,402.205 218,383.5C224.273,364.712 223.939,346.046 217,327.5C214.273,319.663 209.439,313.663 202.5,309.5C193.319,306.449 184.319,306.949 175.5,311C163.542,318.124 154.542,327.958 148.5,340.5ZM327.5,776.5C304.577,789.239 284.41,805.573 267,825.5C260.46,834.744 254.293,844.244 248.5,854C240.926,856.962 236.092,854.462 234,846.5C233.496,838.527 234.829,830.861 238,823.5C278.649,735.072 347.815,691.572 445.5,693C421.616,684.754 398.283,686.087 375.5,697C357.38,703.248 340.38,701.082 324.5,690.5C319.366,684.908 318.366,678.742 321.5,672C324.546,669.826 327.88,669.159 331.5,670C345.332,678.86 359.999,680.527 375.5,675C387.523,669.903 400.023,666.736 413,665.5C438.855,669.737 464.689,674.237 490.5,679C508.049,682.528 524.383,679.528 539.5,670C545.655,665.089 551.989,660.423 558.5,656C556.963,654.89 556.297,653.39 556.5,651.5C537.554,601.613 543.721,554.946 575,511.5C600.98,479.054 634.813,463.554 676.5,465C682.774,468.932 683.94,474.099 680,480.5C678.786,482.049 677.286,483.215 675.5,484C625.909,486.602 592.409,511.102 575,557.5C566.385,581.819 565.219,606.486 571.5,631.5C581.371,665.716 601.704,691.883 632.5,710C641.475,714.479 650.475,718.646 659.5,722.5C689.169,731.433 719.502,736.766 750.5,738.5C806.339,738.445 844.839,712.778 866,661.5C874.719,636.072 876.886,610.072 872.5,583.5C868.188,567.073 862.354,551.073 855,535.5C830.693,493.358 796.86,461.358 753.5,439.5C723.346,425.966 691.679,418.466 658.5,417C639.492,416.617 620.492,416.617 601.5,417C596.54,411.953 595.373,406.12 598,399.5C599.579,397.959 601.413,396.792 603.5,396C616.329,395.384 629.162,394.884 642,394.5C652.034,394.469 661.867,395.135 671.5,396.5C750.248,404.472 813.081,440.139 860,503.5C861.777,506.059 863.277,508.726 864.5,511.5C894.06,555.551 902.893,603.551 891,655.5C869.08,724.887 821.58,759.554 748.5,759.5C726.882,758.944 705.549,756.111 684.5,751C647.066,740.763 609.399,731.596 571.5,723.5C518.873,713.328 465.873,710.828 412.5,716C372.122,720.112 336.789,735.445 306.5,762C311.189,760.499 315.856,758.665 320.5,756.5C367.151,736.672 415.817,729.505 466.5,735C500.382,738.925 534.049,744.258 567.5,751C612.247,761.354 656.914,772.02 701.5,783C726.569,788.44 751.902,790.44 777.5,789C856.863,776.966 898.363,730.799 902,650.5C903.878,643.474 908.378,640.974 915.5,643C919.234,643.733 921.734,645.9 923,649.5C924.391,697.19 908.224,737.69 874.5,771C841.551,797.543 803.718,811.043 761,811.5C745.09,810.806 729.257,809.306 713.5,807C682.102,801.268 651.102,793.935 620.5,785C567.52,771.738 513.853,762.071 459.5,756C413.691,751.691 369.691,758.525 327.5,776.5ZM564.5,675.5C554.255,684.539 542.589,691.372 529.5,696C551.459,698.394 573.126,702.061 594.5,707C584.173,698.015 575.34,687.849 568,676.5C566.989,675.663 565.822,675.33 564.5,675.5ZM725.5,222.5C732.733,221.892 737.899,224.892 741,231.5C745.495,240.493 750.495,249.16 756,257.5C763.917,263.546 772.417,268.712 781.5,273C790.919,279.595 791.919,287.262 784.5,296C774.915,300.598 765.582,305.598 756.5,311C749.549,319.062 743.715,327.895 739,337.5C732.278,344.451 725.945,344.118 720,336.5C716.084,326.604 710.584,317.771 703.5,310C694.382,306.275 685.382,302.275 676.5,298C667.267,291.374 666.267,283.708 673.5,275C684.091,269.124 694.257,262.624 704,255.5C709.524,246.453 714.524,237.12 719,227.5C721.326,225.934 723.492,224.268 725.5,222.5ZM728.5,252.5C725.748,260.263 722.081,267.596 717.5,274.5C710.423,277.205 703.756,280.705 697.5,285C704.655,286.384 711.655,288.384 718.5,291L723,295.5C725.86,301.081 728.526,306.748 731,312.5C734.311,305.211 738.144,298.211 742.5,291.5C748.663,288.835 754.996,286.668 761.5,285C755.167,282 748.833,279 742.5,276C738.627,268.421 734.627,260.921 730.5,253.5C730.043,252.702 729.376,252.369 728.5,252.5ZM355.5,331.5C360.844,331.334 366.177,331.501 371.5,332C376.069,334.541 377.569,338.375 376,343.5C375.214,346.583 373.381,348.749 370.5,350C359.247,352.918 347.914,355.585 336.5,358C324.029,362.235 312.029,367.568 300.5,374C289.328,381.085 278.328,388.419 267.5,396C263.577,398.309 260.077,397.809 257,394.5C253.888,388.71 253.888,383.043 257,377.5C276.316,362.875 297.15,350.709 319.5,341C331.332,336.658 343.332,333.491 355.5,331.5ZM458.5,309.5C508.426,308.679 542.259,331.346 560,377.5C567.351,412.116 558.184,441.616 532.5,466C515.307,479.844 495.641,487.177 473.5,488C467.6,483.312 466.1,477.479 469,470.5C470.319,468.513 472.152,467.346 474.5,467C510.96,463.204 532.794,443.371 540,407.5C541.607,376.464 528.774,353.631 501.5,339C458.594,322.761 424.427,333.594 399,371.5C391.737,384.553 388.237,398.553 388.5,413.5C389.123,423.887 389.957,434.22 391,444.5C387.252,450.542 382.085,452.042 375.5,449C371.262,443.964 368.762,438.131 368,431.5C361.571,377.174 383.071,338.674 432.5,316C441.052,312.862 449.719,310.696 458.5,309.5ZM498.5,555.5C508.298,555.131 512.798,559.798 512,569.5C504.43,585.072 493.596,597.905 479.5,608C461.068,619.04 441.401,627.373 420.5,633C407.663,637.418 395.663,643.418 384.5,651C378.532,657.969 372.199,664.636 365.5,671C355.608,676.934 349.941,674.268 348.5,663C348.267,659.541 349.101,656.374 351,653.5C360.316,642.515 371.15,633.348 383.5,626C399.355,617.536 416.022,611.203 433.5,607C460.334,599.018 480.501,582.851 494,558.5C495.652,557.601 497.152,556.601 498.5,555.5ZM652.5,564.5C665.948,563.862 678.615,566.696 690.5,573C699.167,578.333 707.833,583.667 716.5,589C723.099,595.076 723.099,601.076 716.5,607C713.262,608.368 709.928,608.701 706.5,608C697.024,601.205 687.024,595.205 676.5,590C669.333,587.565 661.999,586.565 654.5,587C640.551,593.699 631.384,604.533 627,619.5C625.225,627.15 623.559,634.817 622,642.5C613.072,647.543 607.406,644.876 605,634.5C604.012,604.967 616.178,582.801 641.5,568C645.254,566.691 648.921,565.525 652.5,564.5ZM137.5,644.5C159.836,644.333 182.169,644.5 204.5,645C210.113,648.219 211.946,653.052 210,659.5C208.332,663.165 205.499,665.332 201.5,666C180.5,666.667 159.5,666.667 138.5,666C130.676,661.539 128.843,655.372 133,647.5C134.409,646.219 135.909,645.219 137.5,644.5ZM189.5,687.5C200.855,685.716 206.022,690.382 205,701.5C199.602,710.234 193.435,718.4 186.5,726C173.866,733.271 167.366,729.771 167,715.5L182,694.5C184.396,691.933 186.896,689.6 189.5,687.5ZM234.5,689.5C244.568,688.734 249.735,693.401 250,703.5C238.333,721.833 226.667,740.167 215,758.5C207.039,766.062 201.039,764.728 197,754.5C196.299,751.072 196.632,747.738 198,744.5C208,727.833 218,711.167 228,694.5C229.965,692.45 232.132,690.783 234.5,689.5Z"/>
    </g>
</svg>
