<?xml version="1.0" encoding="UTF-8" standalone="no"?>
<!DOCTYPE svg PUBLIC "-//W3C//DTD SVG 1.1//EN" "http://www.w3.org/Graphics/SVG/1.1/DTD/svg11.dtd">
<svg width="100%" height="100%" viewBox="0 0 1024 1024" version="1.1" xmlns="http://www.w3.org/2000/svg" xmlns:xlink="http://www.w3.org/1999/xlink" xml:space="preserve" xmlns:serif="http://www.serif.com/" style="fill-rule:evenodd;clip-rule:evenodd;stroke-linejoin:round;stroke-miterlimit:2;">
    <g transform="matrix(1.55373,0,0,1.55373,-309.881,-286.618)">
        <path d="M257.5,397.5C257.392,395.217 256.559,393.217 255,391.5C238.076,372.914 223.076,352.914 210,331.5C189.252,285.32 199.086,247.154 239.5,217C268.438,200.512 297.438,200.512 326.5,217C342.833,227.333 359.167,237.667 375.5,248C379.642,250.072 383.975,251.572 388.5,252.5C429.632,226.452 474.632,211.285 523.5,207C578.973,206.782 629.973,221.615 676.5,251.5C698.459,239.186 720.126,226.353 741.5,213C770.999,199.358 798.665,202.192 824.5,221.5C847.026,239.221 858.359,262.555 858.5,291.5C856.922,308.14 852.088,323.806 844,338.5C835.819,351.684 826.486,364.018 816,375.5C809.945,383.222 804.278,391.222 799,399.5C801.825,410.132 804.325,420.799 806.5,431.5C807.098,436.813 807.431,442.146 807.5,447.5C808.954,457.088 809.62,466.755 809.5,476.5C804.677,537.352 782.011,590.352 741.5,635.5C737.855,639.48 734.189,643.48 730.5,647.5C746.189,649.484 761.856,651.651 777.5,654C785.688,655.284 793.355,657.951 800.5,662C808.968,669.444 809.635,677.444 802.5,686C797.924,687.476 793.257,687.81 788.5,687C752.218,676.765 715.218,672.932 677.5,675.5C676.473,687.995 674.473,700.328 671.5,712.5C712.722,717.91 753.056,727.077 792.5,740C802.482,743.31 806.648,750.144 805,760.5C802.349,766.922 797.516,770.589 790.5,771.5C763.144,759.924 734.811,751.424 705.5,746C690.726,743.128 675.892,740.628 661,738.5C659.5,738.833 658,739.167 656.5,739.5C640.863,777.024 613.863,802.857 575.5,817C510.436,834.876 459.603,815.709 423,759.5L411.5,736.5C362.74,743.235 315.407,755.402 269.5,773C261.986,773.82 256.819,770.654 254,763.5C251.641,753.054 255.474,745.887 265.5,742C307.769,728.516 350.769,718.016 394.5,710.5C391.312,699.041 389.312,687.374 388.5,675.5C353.861,673.923 319.528,676.423 285.5,683C279.288,685.349 272.955,687.183 266.5,688.5C256.047,687.627 251.88,681.96 254,671.5C254.667,670.167 255.333,668.833 256,667.5C266.395,660.143 277.895,655.31 290.5,653C304.474,651.114 318.474,649.447 332.5,648C260.006,578.997 235.006,495.497 257.5,397.5ZM818.5,251.5C804.298,237.934 787.298,232.434 767.5,235C758.755,236.804 750.421,239.804 742.5,244C729.897,251.606 717.564,259.606 705.5,268C703.283,269.275 700.949,270.275 698.5,271C714.116,284.609 729.783,298.275 745.5,312C749.303,308.4 753.637,305.234 758.5,302.5C769.402,300.191 778.235,303.525 785,312.5C793.077,324.666 798.411,338 801,352.5C806.914,344.34 812.581,336.007 818,327.5C821.562,319.709 824.562,311.709 827,303.5C831.998,284.794 829.165,267.461 818.5,251.5ZM450.5,480.5C452.388,478.012 453.055,475.012 452.5,471.5L452.5,467.5C431.576,462.268 410.909,456.101 390.5,449C388.121,448.386 385.788,448.053 383.5,448C385.94,454.648 388.774,461.148 392,467.5C394.167,471 397,473.833 400.5,476C416.651,482.875 433.318,484.375 450.5,480.5ZM732.5,335.5C706.183,310.521 678.183,287.687 648.5,267C567.673,224.453 488.007,226.453 409.5,273C393.588,282.779 378.255,293.279 363.5,304.5C356.833,310.5 350.167,316.5 343.5,322.5C296.65,361.195 273.984,410.862 275.5,471.5C275.491,480.194 275.991,488.861 277,497.5C289.821,559.169 321.321,608.836 371.5,646.5C377.463,647.496 383.463,647.829 389.5,647.5C389.336,644.813 389.503,642.146 390,639.5C397.384,606.45 416.718,583.45 448,570.5C450.159,555.91 451.326,541.244 451.5,526.5C451.496,520.458 450.829,514.792 449.5,509.5C439.767,511.954 429.767,512.788 419.5,512C381.194,506.36 361.028,484.193 359,445.5L357,443.5C356.333,438.833 356.333,434.167 357,429.5C360.93,418.951 368.43,414.784 379.5,417C397.095,421.702 414.429,426.869 431.5,432.5C442.919,435.689 454.252,439.189 465.5,443C471.493,447.471 475.66,453.304 478,460.5C479.106,471.287 479.606,482.12 479.5,493C479.266,525.532 478.266,558.032 476.5,590.5C476.502,595.556 477.002,600.556 478,605.5C480.27,610.098 482.937,614.431 486,618.5C497.77,629.937 510.937,639.437 525.5,647C534.135,651.454 542.802,651.454 551.5,647C558.416,643.091 565.082,638.758 571.5,634C581.259,627.244 588.425,618.411 593,607.5C594.026,601.888 594.526,596.221 594.5,590.5C591.941,554.042 590.274,517.542 589.5,481C586.043,459.558 594.376,445.224 614.5,438C636.956,432.07 659.289,425.737 681.5,419C685.624,418.144 689.79,417.644 694,417.5C702.756,416.921 708.089,420.921 710,429.5C712.274,436.849 710.107,442.183 703.5,445.5C702.601,450.821 701.768,456.154 701,461.5C698.137,479.664 688.97,493.497 673.5,503C655.374,512.026 636.374,514.693 616.5,511C618.453,530.409 619.953,549.909 621,569.5C629.476,575.969 637.976,582.469 646.5,589C664.642,604.455 674.976,623.955 677.5,647.5C682.844,647.666 688.177,647.499 693.5,647C705.642,635.191 717.475,623.024 729,610.5C768.243,562.56 785.743,507.56 781.5,445.5C778.144,402.808 761.81,366.141 732.5,335.5ZM463.5,369.5C474.735,367.413 484.235,370.413 492,378.5C497.725,389.681 495.725,399.348 486,407.5C479.601,422.966 469.101,426.466 454.5,418C439.953,403.693 439.953,389.526 454.5,375.5C457.393,373.228 460.393,371.228 463.5,369.5ZM588.5,264.5C605.531,264.765 619.031,271.765 629,285.5C631.698,296.74 627.865,304.907 617.5,310C613.5,310.667 609.5,310.667 605.5,310C596.347,302.591 587.014,295.424 577.5,288.5C575.228,277.714 578.895,269.714 588.5,264.5ZM753.5,447.5C746.936,490.954 729.77,529.62 702,563.5C698.268,568.068 694.101,572.068 689.5,575.5C680.983,579.975 672.983,579.142 665.5,573C653.148,562.617 649.314,549.784 654,534.5C659.263,526.569 666.096,520.402 674.5,516C683.647,515.029 692.147,516.862 700,521.5C714.18,498.819 723.18,474.153 727,447.5C730.385,435.724 737.552,432.557 748.5,438C751.361,440.557 753.028,443.723 753.5,447.5ZM678.5,539.5C678.335,542.85 678.502,546.183 679,549.5C682.153,547.168 685.653,545.501 689.5,544.5C685.43,543.63 681.763,541.963 678.5,539.5ZM505.5,321.5C523.836,321.333 542.17,321.5 560.5,322C571.555,330.944 572.222,340.61 562.5,351C560.608,351.973 558.608,352.64 556.5,353C539.833,353.667 523.167,353.667 506.5,353C500.396,349.082 497.063,343.415 496.5,336C496.962,329.413 499.962,324.58 505.5,321.5ZM650.5,316.5C661.205,318.017 669.038,323.683 674,333.5C677.7,337.535 681.7,341.202 686,344.5C688.11,348.628 687.61,352.461 684.5,356C677.571,360.925 671.238,366.592 665.5,373C662.945,374.444 660.279,375.611 657.5,376.5C655.734,375.909 654.067,375.076 652.5,374C647.366,367.865 641.866,362.031 636,356.5C627.994,344.213 629.16,332.713 639.5,322C642.99,319.588 646.657,317.755 650.5,316.5ZM461.5,265.5C479.124,263.958 487.291,271.958 486,289.5C478.224,295.308 470.724,301.475 463.5,308C447.666,314.916 437.999,309.916 434.5,293C435.628,284.868 439.628,278.535 446.5,274C451.27,270.619 456.27,267.786 461.5,265.5ZM321.5,434.5C328.237,434.06 332.737,437.06 335,443.5C338.237,472.387 348.07,498.721 364.5,522.5C376.494,516.329 388.494,516.162 400.5,522C407.365,528.531 413.865,535.364 420,542.5C423.127,548.451 423.127,554.451 420,560.5C413.167,565.333 406.333,570.167 399.5,575C389.341,581.473 379.674,580.807 370.5,573C339.195,540.56 319.362,502.06 311,457.5C309.489,449.707 311.322,442.873 316.5,437C318.315,436.243 319.981,435.41 321.5,434.5ZM391.5,541.5C387.056,542.813 382.389,543.646 377.5,544C383.085,547.065 389.085,548.898 395.5,549.5C395.468,546.006 394.135,543.339 391.5,541.5ZM591.5,368.5C597.04,368.3 602.04,369.8 606.5,373C612.465,377.959 617.298,383.792 621,390.5C622.712,401.912 619.212,411.412 610.5,419C602.629,423.171 594.629,423.504 586.5,420C581.823,410.656 576.323,401.823 570,393.5C568.711,384.58 571.877,377.746 579.5,373C583.301,370.584 587.301,369.084 591.5,368.5ZM404.5,317.5C422.44,316.101 432.107,324.434 433.5,342.5C433.449,346.821 432.282,350.821 430,354.5C423.135,361.031 416.635,367.864 410.5,375C406.075,377.183 402.075,376.516 398.5,373C391.636,365.802 384.47,358.968 377,352.5C376.245,349.697 376.578,347.03 378,344.5C387.036,335.632 395.869,326.632 404.5,317.5ZM331.5,297.5C338.603,291.571 345.603,285.404 352.5,279C355.672,277.248 358.672,275.248 361.5,273C344.843,261.001 327.51,250.001 309.5,240C282.033,229.091 258.2,234.258 238,255.5C226.3,270.851 223.3,287.851 229,306.5C234.964,323.767 244.464,338.767 257.5,351.5C260.66,337.517 265.493,324.184 272,311.5C281.862,300.297 293.362,298.463 306.5,306C309,307.833 311.5,309.667 314,311.5C314.383,310.944 314.883,310.611 315.5,310.5C320.833,306.167 326.167,301.833 331.5,297.5ZM677.5,449.5C657.642,455.672 637.642,461.672 617.5,467.5L617.5,480.5C628.14,481.57 638.807,481.737 649.5,481C667.356,477.648 676.689,467.148 677.5,449.5ZM533.5,712.5C521.929,721.965 509.596,730.465 496.5,738C482.052,745.54 466.718,749.707 450.5,750.5C452.864,753.699 455.03,757.032 457,760.5C482.676,787.838 514.176,798.671 551.5,793C579.985,788.106 602.651,774.106 619.5,751C616.167,750.667 612.833,750.333 609.5,750C582.904,743.536 559.237,731.536 538.5,714C536.975,712.991 535.308,712.491 533.5,712.5ZM450.5,600.5C445.061,603.728 439.727,607.228 434.5,611C423.505,621.49 417.172,634.324 415.5,649.5C423.827,650.019 432.16,650.519 440.5,651C446.403,652.521 450.569,656.021 453,661.5C454.946,673.902 449.612,680.902 437,682.5C429.548,680.674 422.048,679.507 414.5,679C415.868,684.833 417.368,690.666 419,696.5C427.153,715.158 441.319,723.325 461.5,721C483.26,714.705 502.426,703.871 519,688.5C521.732,682.441 520.232,677.608 514.5,674C502.838,667.838 491.504,661.171 480.5,654C463.009,640.169 453.009,622.335 450.5,600.5ZM619.5,601.5C618.835,623.331 609.835,640.831 592.5,654C580.5,661.333 568.5,668.667 556.5,676C553.236,678.804 551.736,682.304 552,686.5C554.833,690.667 558.333,694.167 562.5,697C572.332,704.086 582.666,710.419 593.5,716C601.388,719.181 609.555,721.347 618,722.5C628.455,721.443 636.789,716.777 643,708.5C647.073,699.54 649.906,690.207 651.5,680.5C650.833,680.167 650.167,679.833 649.5,679.5C643.186,680.608 636.853,681.608 630.5,682.5C623.886,682.056 619.386,678.723 617,672.5C614.584,662.496 618.084,655.663 627.5,652C635.447,650.725 643.447,650.225 651.5,650.5C651.197,645.751 650.363,641.084 649,636.5C643.633,620.974 633.799,609.307 619.5,601.5Z"/>
    </g>
</svg>
