<?xml version="1.0" encoding="UTF-8" standalone="no"?>
<!DOCTYPE svg PUBLIC "-//W3C//DTD SVG 1.1//EN" "http://www.w3.org/Graphics/SVG/1.1/DTD/svg11.dtd">
<svg width="100%" height="100%" viewBox="0 0 1024 1024" version="1.1" xmlns="http://www.w3.org/2000/svg" xmlns:xlink="http://www.w3.org/1999/xlink" xml:space="preserve" xmlns:serif="http://www.serif.com/" style="fill-rule:evenodd;clip-rule:evenodd;stroke-linejoin:round;stroke-miterlimit:2;">
    <g transform="matrix(1.43929,0,0,1.43929,-293.073,-195.312)">
        <path d="M726.5,200.5C742.787,204.761 759.121,208.927 775.5,213C786.058,216.408 796.391,220.408 806.5,225C814.116,230.983 821.116,237.65 827.5,245C835.814,249.746 843.314,255.579 850,262.5C861.633,280.412 860.967,298.079 848,315.5C841.149,322.673 832.982,327.84 823.5,331C815.969,333.466 808.302,335.466 800.5,337C785.528,338.166 770.528,338.833 755.5,339C738.833,341.5 722.167,344 705.5,346.5C676.617,346.483 650.951,337.317 628.5,319C621.923,314.441 619.757,308.274 622,300.5C623.697,294.457 627.531,292.29 633.5,294C642.833,300 652.167,306 661.5,312C674.642,318.952 688.642,322.119 703.5,321.5C703.334,312.161 703.5,302.827 704,293.5C709.787,284.961 716.454,284.294 724,291.5C725.083,300.446 725.916,309.446 726.5,318.5C728.409,317.652 730.409,317.318 732.5,317.5C738.508,316.347 744.508,316.347 750.5,317.5C753.063,317.263 753.063,316.763 750.5,316C753.047,315.34 755.547,315.507 758,316.5C759.225,316.138 760.391,315.638 761.5,315C769.011,314.829 776.345,314.329 783.5,313.5C787.897,313.575 792.23,313.075 796.5,312C805.09,309.203 813.756,306.703 822.5,304.5C823.289,304.217 823.956,303.717 824.5,303C819.511,302.501 814.511,302.334 809.5,302.5C794.539,300.922 779.539,299.755 764.5,299C755.374,294.805 751.874,287.638 754,277.5C755.109,275.185 756.943,273.685 759.5,273C775.418,274.684 791.418,276.018 807.5,277C814.5,277.667 821.5,277.667 828.5,277C814.555,269.012 802.555,258.679 792.5,246C789.623,245.044 786.956,243.711 784.5,242C767.07,237.309 749.737,232.309 732.5,227C719.284,223.833 705.951,221.5 692.5,220C683.642,215.314 677.976,208.147 675.5,198.5C674.518,196.594 673.518,194.594 672.5,192.5C664.81,196.616 656.81,197.45 648.5,195C640.839,180.18 637.339,164.347 638,147.5C643.836,136.161 652.67,132.995 664.5,138C666.833,139.5 669.167,141 671.5,142.5C682.4,134.239 692.9,134.572 703,143.5C705.925,148.061 707.091,153.061 706.5,158.5C704.345,171.744 703.011,185.077 702.5,198.5C710.661,198.015 718.661,198.682 726.5,200.5ZM586.5,222.5C598.224,228.241 610.558,232.074 623.5,234C632.054,235.863 635.888,241.03 635,249.5C619.601,303.453 601.601,356.453 581,408.5C571.856,428.798 561.189,448.131 549,466.5C540.167,476.667 530.667,486.167 520.5,495C525.439,500.942 530.773,506.609 536.5,512C539.5,513.667 542.5,515.333 545.5,517C553.79,518.121 562.124,518.787 570.5,519C577.533,521.407 580.033,526.24 578,533.5C577.484,536.034 576.317,538.2 574.5,540C564.931,544.814 554.931,545.814 544.5,543C535.287,540.713 526.953,536.713 519.5,531C512.798,524.899 506.798,518.233 501.5,511C499.179,510.992 497.179,511.825 495.5,513.5C493.513,531.136 492.847,549.136 493.5,567.5C493.667,579.505 493.5,591.505 493,603.5C492.027,607.406 489.527,609.573 485.5,610C481.428,610.956 477.595,610.456 474,608.5C473.138,606.913 472.471,605.246 472,603.5C471.5,577.169 471.333,550.835 471.5,524.5C460.919,526.978 450.252,529.144 439.5,531C418.35,530.915 397.35,532.582 376.5,536C348.627,543.873 328.794,561.039 317,587.5C313.647,595.892 311.314,604.558 310,613.5C309.333,679.167 309.333,744.833 310,810.5C310.615,815.783 313.449,819.283 318.5,821C329.589,823.548 336.422,819.381 339,808.5C339.667,742.5 339.667,676.5 339,610.5C335.613,605.675 334.28,600.341 335,594.5C336.5,591.667 338.667,589.5 341.5,588C352.209,587.845 362.875,587.178 373.5,586C381.007,584.345 386.507,580.179 390,573.5C391.131,564.876 391.798,556.21 392,547.5C396.439,543.658 401.605,542.491 407.5,544C408.931,544.465 410.097,545.299 411,546.5C418.901,567.727 414.735,586.227 398.5,602C391.917,606.792 384.583,609.626 376.5,610.5L361.5,610.5L361.5,809.5C356.652,836.107 340.652,848.607 313.5,847C300.651,841.983 291.651,833.15 286.5,820.5C285.535,793.525 285.202,766.525 285.5,739.5C285.666,735.486 285.499,731.486 285,727.5C283.663,732.336 281.163,736.503 277.5,740C273.138,741.923 268.805,741.923 264.5,740C260.82,735.098 259.653,729.598 261,723.5C266.665,707.166 274.665,692.166 285,678.5C285.333,654.833 285.667,631.167 286,607.5C291.98,574.359 308.48,547.859 335.5,528C350.552,517.648 367.218,511.648 385.5,510C408.319,509.118 430.986,506.785 453.5,503C490.325,492.428 518.325,470.595 537.5,437.5C531.643,435.501 526.81,432.168 523,427.5C518.98,409.192 525.814,403.359 543.5,410C546.266,411.467 548.766,413.3 551,415.5C558.448,399.99 564.614,383.99 569.5,367.5C554.299,368.467 547.466,361.467 549,346.5C549.685,343.943 551.185,342.109 553.5,341C562.259,340.717 570.926,341.55 579.5,343.5C581.878,333.997 584.878,324.664 588.5,315.5C577.55,315.052 572.384,309.385 573,298.5C575.199,291.731 579.865,288.731 587,289.5C590.035,289.609 592.869,290.276 595.5,291.5C596.086,291.291 596.586,290.957 597,290.5C600.396,279.479 603.896,268.479 607.5,257.5C604.524,256.342 601.524,255.342 598.5,254.5C579.372,249.854 564.205,239.521 553,223.5C546.933,205.027 551.099,189.194 565.5,176C572.68,173.067 580.013,172.734 587.5,175C593.6,176.358 599.6,178.025 605.5,180C619.667,188.918 634,197.585 648.5,206C657.484,211.533 658.817,218.533 652.5,227C647.061,229.371 641.394,230.037 635.5,229C621.467,217.645 606.134,208.311 589.5,201C579.383,197.459 574.883,200.959 576,211.5C578.357,216.355 581.857,220.021 586.5,222.5ZM662.5,254.5C665.271,254.421 667.937,254.921 670.5,256C677.318,264.717 685.985,267.384 696.5,264C700.52,261.966 704.52,259.966 708.5,258C717.298,258.138 721.131,262.638 720,271.5C718.264,278.237 714.097,282.737 707.5,285C698.036,289.82 688.036,291.486 677.5,290C669.196,287.099 662.696,281.932 658,274.5C653.512,266.3 655.012,259.633 662.5,254.5ZM587.5,464.5C582.797,464.563 578.13,464.229 573.5,463.5C564.825,458.057 563.492,451.391 569.5,443.5C579.544,442.104 589.544,440.271 599.5,438C605.52,435.317 609.353,430.817 611,424.5C611.333,404.833 611.667,385.167 612,365.5C614.852,355.265 621.019,352.765 630.5,358C632.726,359.227 634.226,361.061 635,363.5C635.667,384.167 635.667,404.833 635,425.5C633.852,445.339 623.685,457.506 604.5,462C598.91,463.419 593.243,464.252 587.5,464.5ZM637.5,607.5C636.71,608.609 636.21,609.942 636,611.5C635.5,679.499 635.333,747.499 635.5,815.5C630.818,838.662 616.818,848.829 593.5,846C579.662,840.841 571.829,831.007 570,816.5C569.333,798.167 569.333,779.833 570,761.5C574.454,753.06 580.954,751.226 589.5,756C590.211,757.255 591.044,758.421 592,759.5C592.038,778.565 592.704,797.565 594,816.5C597.74,821.844 602.406,822.844 608,819.5C609.275,817.283 610.275,814.949 611,812.5C611.5,745.834 611.667,679.167 611.5,612.5C601.522,611.168 591.189,610.501 580.5,610.5C569.995,610.5 559.661,610.833 549.5,611.5C542.896,613.064 538.396,617.064 536,623.5C535.333,687.833 535.333,752.167 536,816.5C538.587,821.068 542.421,822.568 547.5,821C550.887,817.947 554.553,815.28 558.5,813C563.12,811.462 566.287,812.962 568,817.5C569.854,825.933 567.688,833.1 561.5,839C536.744,852.971 519.91,846.471 511,819.5C510.286,788.825 510.453,758.159 511.5,727.5C486.492,727.607 461.492,727.274 436.5,726.5C436.667,757.502 436.5,788.502 436,819.5C433.693,834.809 424.86,843.976 409.5,847C391.843,848.422 380.677,840.588 376,823.5C375.333,800.5 375.333,777.5 376,754.5C380.741,747.142 387.241,744.975 395.5,748C398.616,750.4 399.949,753.567 399.5,757.5C398.396,776.821 398.23,796.155 399,815.5C402.181,821.252 406.181,821.919 411,817.5C411.333,768.5 411.667,719.5 412,670.5C416.082,663.51 421.915,661.677 429.5,665C433.916,667.998 436.082,672.165 436,677.5C436.5,685.827 436.666,694.16 436.5,702.5L511.5,702.5L511.5,626.5C512.717,610.226 520.383,598.059 534.5,590C536.5,589.333 538.5,588.667 540.5,588C566.406,587.828 592.239,587.328 618,586.5C625.81,560.238 633.31,533.905 640.5,507.5C630.178,504.329 625.678,497.329 627,486.5C629.208,479.89 633.708,477.724 640.5,480C643.562,481.205 646.562,482.372 649.5,483.5C657.469,450.68 665.969,418.013 675,385.5C677.423,374.293 678.757,362.96 679,351.5C682.001,349.022 685.501,348.022 689.5,348.5C697.512,347.187 701.512,350.52 701.5,358.5C699.82,377.734 696.654,396.734 692,415.5C687.689,430.742 683.689,446.076 680,461.5C666.136,510.294 651.97,558.961 637.5,607.5ZM575.5,663.5C579.182,663.335 582.848,663.501 586.5,664C589,665.167 590.833,667 592,669.5C592.667,691.5 592.667,713.5 592,735.5C589.122,744.36 583.289,746.86 574.5,743C572.951,741.786 571.785,740.286 571,738.5C570.333,715.167 570.333,691.833 571,668.5C572.707,666.963 574.207,665.296 575.5,663.5Z"/>
    </g>
</svg>
