<?xml version="1.0" encoding="UTF-8" standalone="no"?>
<!DOCTYPE svg PUBLIC "-//W3C//DTD SVG 1.1//EN" "http://www.w3.org/Graphics/SVG/1.1/DTD/svg11.dtd">
<svg width="100%" height="100%" viewBox="0 0 1024 1024" version="1.1" xmlns="http://www.w3.org/2000/svg" xmlns:xlink="http://www.w3.org/1999/xlink" xml:space="preserve" xmlns:serif="http://www.serif.com/" style="fill-rule:evenodd;clip-rule:evenodd;stroke-linejoin:round;stroke-miterlimit:2;">
    <g transform="matrix(1.27518,0,0,1.27518,-110.567,-98.08)">
        <path d="M126.5,303.5C134.571,298.635 143.237,295.135 152.5,293C149.705,291.207 147.205,289.04 145,286.5C139.333,278.833 133.667,271.167 128,263.5C122.012,252.551 119.679,240.885 121,228.5C123.72,218.395 128.053,209.062 134,200.5C134.771,186.604 128.104,179.937 114,180.5C90.531,184.697 82.198,175.364 89,152.5C92.421,148.743 96.588,146.243 101.5,145C113.953,143.327 125.953,144.827 137.5,149.5C141.101,151.977 144.767,154.477 148.5,157C164.093,169.68 169.927,185.846 166,205.5C161.079,216.174 156.579,227.007 152.5,238C153.331,242.826 155.331,246.992 158.5,250.5C163.808,259.322 170.475,267.156 178.5,274C188.408,281.205 198.575,288.038 209,294.5C237.208,269.389 268.041,265.889 301.5,284C306.628,287.297 311.294,291.13 315.5,295.5C316.183,295.137 316.85,294.804 317.5,294.5C335.443,285.404 351.276,273.404 365,258.5C369.943,252.953 373.61,246.619 376,239.5C376.667,237.167 376.667,234.833 376,232.5C374.864,229.904 374.031,227.237 373.5,224.5C359.513,203.626 360.347,183.292 376,163.5C394.107,144.011 415.274,139.511 439.5,150C445.496,158.145 445.996,166.645 441,175.5C439.457,177.378 437.624,178.878 435.5,180C425.833,180.333 416.167,180.667 406.5,181C397.029,185.419 393.529,192.585 396,202.5C400.366,209.234 404.199,216.234 407.5,223.5C410.357,239.069 407.357,253.402 398.5,266.5C392.945,276.054 385.945,284.388 377.5,291.5C381.104,294.309 385.104,296.643 389.5,298.5C395.896,302.057 401.896,306.223 407.5,311C414.408,318.412 421.741,325.245 429.5,331.5C442.228,322.987 456.228,320.154 471.5,323C482.028,324.797 492.028,328.131 501.5,333C571.5,333.333 641.5,333.667 711.5,334C714.365,334.183 717.031,334.683 719.5,335.5C721.415,335.216 723.081,335.549 724.5,336.5C745.669,340.259 764.669,348.593 781.5,361.5C782.167,361.5 782.5,361.833 782.5,362.5C802.467,378.404 815.967,398.738 823,423.5C824.975,430.374 826.308,437.374 827,444.5C827.823,468.876 827.657,493.209 826.5,517.5C841.791,530.957 856.291,545.29 870,560.5C886.444,579.609 892.611,601.609 888.5,626.5C885.778,635.282 881.944,643.616 877,651.5C871.6,658.402 865.433,664.402 858.5,669.5C842.252,676.886 832.919,671.886 830.5,654.5C830.445,650.944 831.278,647.611 833,644.5C838.958,640.211 844.624,635.544 850,630.5C857.286,617.806 857.286,605.139 850,592.5C844.376,583.056 837.543,574.722 829.5,567.5C825.501,563.67 821.335,560.003 817,556.5C813.854,568.603 809.521,580.27 804,591.5C793.052,615.397 781.052,638.73 768,661.5C767.333,663.167 767.333,664.833 768,666.5C771.852,678.87 775.352,691.204 778.5,703.5L778.5,804.5C778.675,806.621 778.341,808.621 777.5,810.5C776.609,811.11 775.609,811.443 774.5,811.5C723.237,812.662 671.904,812.828 620.5,812C619.057,810.933 617.724,809.766 616.5,808.5C615.335,798.851 615.168,789.184 616,779.5C632.872,750.777 648.705,721.444 663.5,691.5C658.918,682.423 654.918,673.09 651.5,663.5C648.896,657.098 646.896,650.431 645.5,643.5C604.833,642.167 564.167,642.167 523.5,643.5L523.5,783.5C523.376,789.336 521.709,794.669 518.5,799.5C514.218,804.645 508.885,808.312 502.5,810.5C466.21,811.487 429.876,811.82 393.5,811.5L389.5,811.5C375.931,808.597 368.264,800.264 366.5,786.5L366.5,641.5L363.5,641.5C335.57,634.734 319.737,617.067 316,588.5C315.426,578.096 315.759,567.762 317,557.5C312.277,553.28 308.11,548.613 304.5,543.5C287.086,561.607 266.086,567.441 241.5,561C218.021,550.492 204.854,532.326 202,506.5C201.667,489.5 201.333,472.5 201,455.5C199.672,452.688 198.172,450.022 196.5,447.5C185.294,431.388 179.294,413.388 178.5,393.5C178.808,391.076 178.474,388.743 177.5,386.5C158.493,400.257 139.826,399.757 121.5,385C110.921,374.676 104.421,362.176 102,347.5C100.762,338.197 99.929,328.863 99.5,319.5C103.105,319.201 106.439,318.035 109.5,316C114.501,310.819 120.168,306.652 126.5,303.5ZM290.5,315.5C280.446,309.235 269.446,306.235 257.5,306.5C248.04,307.374 239.706,310.874 232.5,317C210.634,339.281 203.134,365.781 210,396.5C211.897,408.722 216.397,419.722 223.5,429.5C226.09,434.349 228.424,439.349 230.5,444.5C231.384,447.023 232.218,449.69 233,452.5C233.333,469.833 233.667,487.167 234,504.5C235,507.167 236,509.833 237,512.5C240.26,521.427 246.427,527.261 255.5,530C276.005,530.499 286.505,520.332 287,499.5C287.096,483.461 287.763,467.461 289,451.5C290.152,448.56 291.152,445.56 292,442.5C298.568,432.031 304.068,421.031 308.5,409.5C314.238,387.944 314.905,366.277 310.5,344.5C306.066,333.301 299.4,323.634 290.5,315.5ZM478.5,360.5C470.581,356.801 462.247,355.635 453.5,357C444.804,362.694 435.47,367.028 425.5,370C422.518,370.498 419.518,370.665 416.5,370.5C413.609,378.239 408.609,384.406 401.5,389C381.855,399.928 363.022,398.762 345,385.5C343.884,392.792 343.384,400.126 343.5,407.5C347.902,407.228 352.235,407.561 356.5,408.5C360.723,414.165 363.389,420.498 364.5,427.5C375.658,463.812 387.158,500.145 399,536.5C399.675,541.53 400.508,546.53 401.5,551.5C399.921,563.683 393.088,570.349 381,571.5C374.202,571.77 369.535,568.77 367,562.5C366.822,554.449 366.156,546.449 365,538.5C354.771,504.583 343.771,470.917 332,437.5C328.763,444.307 324.763,450.64 320,456.5C319.833,465 319.667,473.5 319.5,482C319.58,491.574 320.247,501.074 321.5,510.5C321.402,512.937 320.402,514.937 318.5,516.5C324.033,522.198 330.033,527.365 336.5,532C344.342,538.83 349.175,547.33 351,557.5C351.333,568.833 351.667,580.167 352,591.5C353.934,596.93 357.434,600.93 362.5,603.5C365.261,605.212 368.261,606.378 371.5,607C390.497,607.5 409.497,607.667 428.5,607.5C428.026,580.436 428.526,553.436 430,526.5C430.707,524.919 431.54,523.419 432.5,522C443.271,514.781 452.104,516.614 459,527.5C459.5,610.833 459.667,694.166 459.5,777.5L490.5,777.5L490.5,775.5C490.333,693.499 490.5,611.499 491,529.5C491.936,525.793 493.769,522.626 496.5,520C508.481,514.579 517.314,517.746 523,529.5C522.84,555.853 523.674,581.853 525.5,607.5L645.5,607.5C645.058,597.387 645.892,587.387 648,577.5C651.915,567.175 654.248,556.509 655,545.5C656.753,537.469 661.253,531.635 668.5,528C684.776,525.281 692.609,532.114 692,548.5C686.878,561.2 682.544,574.2 679,587.5C676.133,600.363 675.133,613.363 676,626.5C679.395,648.686 686.395,669.686 697,689.5C697.977,691.74 698.477,694.073 698.5,696.5C696.692,700.588 694.692,704.588 692.5,708.5C679.833,731.5 667.167,754.5 654.5,777.5L697.5,777.5C697.333,765.495 697.5,753.495 698,741.5C698.511,739.122 699.178,736.788 700,734.5C703.148,728.011 708.315,724.677 715.5,724.5C721.483,724.074 725.983,726.408 729,731.5C730.435,746.775 730.935,762.109 730.5,777.5L746.5,777.5C746.667,754.164 746.5,730.831 746,707.5C741.991,695.449 737.991,683.449 734,671.5C733.333,667.5 733.333,663.5 734,659.5C749.355,627.395 764.688,595.395 780,563.5C785.46,551.119 790.127,538.452 794,525.5C794.667,497.5 794.667,469.5 794,441.5C792.408,435.345 790.575,429.345 788.5,423.5C777.217,397.21 757.884,380.21 730.5,372.5C721.622,370.492 712.622,369.325 703.5,369C650.168,368.5 596.834,368.333 543.5,368.5C526.497,368.667 509.497,368.5 492.5,368C487.647,365.742 482.981,363.242 478.5,360.5ZM668.5,431.5C680.148,430.734 686.982,436.067 689,447.5C689.667,462.833 689.667,478.167 689,493.5C687.094,502.738 681.427,507.738 672,508.5C664.934,508.142 659.934,504.808 657,498.5C656.333,480.167 656.333,461.833 657,443.5C658.832,437.443 662.666,433.443 668.5,431.5ZM561.5,454.5C572.568,452.609 579.734,456.943 583,467.5C583.667,494.833 583.667,522.167 583,549.5C581.255,558.878 575.589,563.545 566,563.5C558.759,562.929 553.759,559.263 551,552.5C550.333,523.5 550.333,494.5 551,465.5C552.684,459.984 556.184,456.318 561.5,454.5ZM349.5,323.5C347.139,323.674 344.806,324.007 342.5,324.5C340.801,324.34 339.134,324.506 337.5,325C342.709,332.582 347.543,340.416 352,348.5C358.844,358.009 368.01,362.175 379.5,361C388.073,357.751 391.573,351.584 390,342.5C385.739,333.768 378.906,327.935 369.5,325C362.897,323.726 356.23,323.226 349.5,323.5ZM186.5,327.5C174.153,321.106 161.486,320.939 148.5,327C136.625,331.634 133.125,339.801 138,351.5C149.053,364.679 160.386,364.679 172,351.5C177.11,343.603 181.944,335.603 186.5,327.5ZM399.5,775.5C399.328,776.492 399.662,777.158 400.5,777.5L428.5,777.5L428.5,643.5C419.014,642.506 409.348,642.173 399.5,642.5L399.5,775.5Z"/>
    </g>
</svg>
