<?xml version="1.0" encoding="UTF-8" standalone="no"?>
<!DOCTYPE svg PUBLIC "-//W3C//DTD SVG 1.1//EN" "http://www.w3.org/Graphics/SVG/1.1/DTD/svg11.dtd">
<svg width="100%" height="100%" viewBox="0 0 1024 1024" version="1.1" xmlns="http://www.w3.org/2000/svg" xmlns:xlink="http://www.w3.org/1999/xlink" xml:space="preserve" xmlns:serif="http://www.serif.com/" style="fill-rule:evenodd;clip-rule:evenodd;stroke-linejoin:round;stroke-miterlimit:2;">
    <g transform="matrix(1.48843,0,0,1.48843,-279.081,-265.632)">
        <path d="M337.5,367.5C336.719,352.203 336.886,336.87 338,321.5C338.198,319.618 338.698,317.952 339.5,316.5C341.559,303.475 348.226,293.808 359.5,287.5L362.5,287.5C363.952,286.698 365.618,286.198 367.5,286C383.497,285.5 399.497,285.333 415.5,285.5C419.215,285.423 422.881,285.756 426.5,286.5L426.5,283.5C425.052,275.786 428.218,271.786 436,271.5C440.7,271.013 443.7,273.013 445,277.5C446.553,286.327 444.72,294.327 439.5,301.5L438.5,301.5C435.612,304.78 431.945,306.78 427.5,307.5C408.164,307.333 388.83,307.5 369.5,308C364.851,310.455 362.017,314.288 361,319.5C359.543,333.472 359.209,347.472 360,361.5C363.305,366.639 367.472,370.972 372.5,374.5C373.973,377.447 375.473,380.447 377,383.5C377.377,405.44 386.877,421.94 405.5,433C419.233,439.02 432.899,438.853 446.5,432.5C457.79,425.291 464.623,414.957 467,401.5C467.667,392.167 467.667,382.833 467,373.5C466.289,369.645 465.122,365.979 463.5,362.5C462.023,360.193 460.023,358.36 457.5,357C442.167,356.667 426.833,356.333 411.5,356C409.754,355.529 408.087,354.862 406.5,354C399.843,347.406 398.843,340.072 403.5,332C409.562,329.572 415.228,330.239 420.5,334C433.833,334.333 447.167,334.667 460.5,335C469.725,337.732 476.725,343.232 481.5,351.5C482.167,351.5 482.5,351.833 482.5,352.5C492.29,371.333 494.124,391 488,411.5C485.881,420.414 481.714,428.081 475.5,434.5C475.631,435.239 475.464,435.906 475,436.5C466.351,445.892 456.184,452.892 444.5,457.5C441.518,457.963 438.518,458.296 435.5,458.5C421.212,461.223 407.546,459.223 394.5,452.5C385.213,446.874 377.213,439.874 370.5,431.5C369.248,429.999 368.248,428.332 367.5,426.5C365.917,424.337 364.584,422.004 363.5,419.5C360.895,415.95 359.061,411.95 358,407.5C357.26,401.842 356.594,396.175 356,390.5C351.033,386.534 346.366,382.201 342,377.5C339.676,374.52 338.176,371.187 337.5,367.5ZM757.5,525.5C753.815,504.095 747.649,483.429 739,463.5C737.439,459.056 737.272,454.723 738.5,450.5C739.203,448.284 740.536,446.451 742.5,445C746.625,444.146 750.625,444.48 754.5,446C758.748,455.592 763.081,465.092 767.5,474.5C774.893,494.527 778.726,515.193 779,536.5C776.149,543.392 771.316,545.225 764.5,542C759.938,537.49 757.605,531.99 757.5,525.5ZM262.5,639.5C261.028,629.564 260.028,619.564 259.5,609.5C260.775,596.171 263.608,583.171 268,570.5C268.346,568.152 269.513,566.319 271.5,565C276.226,562.679 280.56,563.179 284.5,566.5C285.801,567.882 286.634,569.548 287,571.5C287.499,575.821 287.666,580.154 287.5,584.5C282.225,603.084 281.058,622.084 284,641.5C284.568,646.44 285.735,651.107 287.5,655.5C288.975,666.427 284.308,671.261 273.5,670C271.004,668.669 269.004,666.836 267.5,664.5L267.5,663.5C264.373,655.838 262.706,647.838 262.5,639.5ZM228.5,815.5C218.14,795.083 209.64,773.75 203,751.5C198.48,730.111 194.313,708.778 190.5,687.5C189.251,669.519 188.251,651.519 187.5,633.5C187.501,628.654 187.834,623.988 188.5,619.5C188.506,614.785 189.006,610.118 190,605.5L192.5,603C199.178,599.834 204.344,601.334 208,607.5C208.373,639.871 211.206,671.871 216.5,703.5C219.273,725.258 223.94,746.591 230.5,767.5C233.02,772.557 235.02,777.891 236.5,783.5C240.76,791.848 245.427,800.015 250.5,808C279.165,808.5 307.831,808.667 336.5,808.5L336.5,806.5C343.473,793.552 349.64,780.219 355,766.5C355.322,764.311 354.822,762.311 353.5,760.5C350.833,756.5 348.167,752.5 345.5,748.5C344.758,746.02 343.758,743.687 342.5,741.5C342.167,740.833 341.833,740.167 341.5,739.5C337.229,732.622 333.729,725.289 331,717.5C322.998,691.519 322.498,665.519 329.5,639.5C330.045,637.407 330.878,635.407 332,633.5C332.5,612.503 332.667,591.503 332.5,570.5C332.675,568.379 332.341,566.379 331.5,564.5C318.814,553.152 308.814,539.819 301.5,524.5C297.825,518.679 294.991,512.346 293,505.5C289.781,497.125 289.781,488.792 293,480.5C297.976,475.785 303.143,475.452 308.5,479.5C316.26,513.829 334.26,541.662 362.5,563C378.291,573.395 394.958,581.895 412.5,588.5C415.157,588.935 417.491,589.935 419.5,591.5C433.256,596.362 447.256,600.529 461.5,604C463.624,605.122 465.457,606.622 467,608.5C470.676,621.655 465.842,626.989 452.5,624.5C450.883,623.962 449.216,623.629 447.5,623.5C446.359,622.661 445.026,621.994 443.5,621.5C442.486,625.014 440.152,626.848 436.5,627C414.476,627.119 392.476,627.786 370.5,629C362.158,631.855 355.824,637.022 351.5,644.5L351.5,645.5C348.934,650.755 347.434,656.422 347,662.5C346.333,673.5 346.333,684.5 347,695.5C347.84,698.202 348.673,700.868 349.5,703.5C349.796,705.403 350.463,707.07 351.5,708.5C353.767,715.705 356.601,722.705 360,729.5C366.521,739.875 372.521,750.542 378,761.5C378.03,770.908 375.53,779.574 370.5,787.5C367.611,794.946 363.944,801.946 359.5,808.5L437.5,808.5C443.287,794.926 449.62,781.593 456.5,768.5C456.957,767.702 457.624,767.369 458.5,767.5C452.927,761.688 449.427,754.688 448,746.5C435.016,736.515 423.682,724.848 414,711.5C413.517,710.552 413.351,709.552 413.5,708.5C412.21,707.942 411.377,706.942 411,705.5C410.262,701.739 410.595,698.072 412,694.5C417.92,688.235 424.087,687.902 430.5,693.5C431.234,694.708 431.567,696.041 431.5,697.5C437.766,707.431 445.433,716.098 454.5,723.5C479.924,740.196 507.591,751.196 537.5,756.5C538.978,756.762 540.311,756.429 541.5,755.5C540.82,754.14 540.153,752.807 539.5,751.5C531.026,735.984 523.359,719.984 516.5,703.5C514.272,699.042 512.605,694.375 511.5,689.5C502.105,670.126 502.272,650.793 512,631.5C529.265,608.287 551.765,592.62 579.5,584.5C581.435,583.85 583.435,583.517 585.5,583.5C587.5,582.833 589.5,582.167 591.5,581.5C607.734,580.604 623.4,583.104 638.5,589C642.419,590.54 645.919,592.707 649,595.5C651.978,568.199 654.478,540.866 656.5,513.5C653.484,513.159 650.818,511.993 648.5,510C639.644,502.142 631.144,493.976 623,485.5C622.601,485.728 622.435,486.062 622.5,486.5C622.037,489.482 621.704,492.482 621.5,495.5C609.991,529.676 586.991,552.009 552.5,562.5C545.14,565.089 537.473,566.922 529.5,568C518.5,568.667 507.5,568.667 496.5,568C454.828,560.096 420.994,539.596 395,506.5C392.924,503.107 391.758,499.44 391.5,495.5C392.81,488.173 397.143,485.339 404.5,487C410,489.833 414.167,494 417,499.5C432.911,516.601 451.411,529.934 472.5,539.5C474.965,539.767 477.299,540.434 479.5,541.5C501.811,548.078 524.144,548.078 546.5,541.5C548.297,540.27 550.297,539.604 552.5,539.5C554.964,538.433 557.297,537.1 559.5,535.5C583.71,524.757 597.543,506.09 601,479.5C602.672,470.802 602.672,462.135 601,453.5C598.743,447.329 596.243,441.329 593.5,435.5C590.232,427.697 587.566,419.697 585.5,411.5C584.421,408.383 583.754,405.05 583.5,401.5C585.666,390.919 591.666,388.085 601.5,393C608.158,411.481 615.491,429.648 623.5,447.5C624.167,447.5 624.5,447.833 624.5,448.5C632.206,464.867 643.206,478.534 657.5,489.5C659.23,490.026 660.564,491.026 661.5,492.5C667.779,495.976 674.112,499.476 680.5,503C691.195,507.964 702.362,511.131 714,512.5C721.823,508.402 727.323,510.402 730.5,518.5C727.968,526.928 725.135,535.262 722,543.5C718.217,555.825 719.051,567.825 724.5,579.5C728.67,586.847 734.17,593.181 741,598.5C743.248,604.345 742.915,610.012 740,615.5C736.59,619.416 732.757,622.749 728.5,625.5C727.124,627.082 726.124,628.915 725.5,631C726.971,636.444 729.138,641.611 732,646.5C738,655.833 744,665.167 750,674.5C752.617,677.985 756.117,679.652 760.5,679.5C771.214,680.431 781.547,678.931 791.5,675C800.583,669.742 808.583,663.242 815.5,655.5C827.037,640.954 836.037,624.954 842.5,607.5C851.068,584.304 854.734,560.304 853.5,535.5C851.707,516.323 847.374,497.656 840.5,479.5C831.155,456.81 816.821,437.81 797.5,422.5C786.741,415.791 776.741,408.125 767.5,399.5C758.474,391.471 749.474,383.471 740.5,375.5C730.997,367.747 720.33,362.08 708.5,358.5C706.883,357.962 705.216,357.629 703.5,357.5C692.601,354.918 681.601,352.751 670.5,351C666.992,349.988 664.658,347.822 663.5,344.5C659.454,338.767 655.621,332.767 652,326.5C650.27,324.598 648.437,322.931 646.5,321.5C644.302,319.902 641.969,318.569 639.5,317.5C634.303,313.37 628.303,310.87 621.5,310C612.938,308.123 604.271,307.289 595.5,307.5C570.179,309.998 544.846,312.498 519.5,315C509.5,315.667 499.5,315.667 489.5,315C485.362,313.022 482.029,310.189 479.5,306.5C478.89,305.609 478.557,304.609 478.5,303.5C473.522,296.225 469.022,288.559 465,280.5C460.333,274.336 455.5,268.336 450.5,262.5C447.833,260.5 445.5,258.167 443.5,255.5C437.269,250.895 430.936,246.562 424.5,242.5C379.698,227.156 345.198,239.822 321,280.5C319.546,283.071 318.38,285.738 317.5,288.5C310.012,302.29 304.679,316.956 301.5,332.5C295.149,356.293 291.816,380.627 291.5,405.5C296.813,404.902 302.146,404.569 307.5,404.5C312.305,403.513 317.305,403.179 322.5,403.5C322.026,396.419 325.026,391.753 331.5,389.5C335.548,389.441 338.715,391.108 341,394.5C343.137,400.057 342.971,405.39 340.5,410.5C339.149,416.02 335.816,419.853 330.5,422C316.485,424.308 302.485,426.474 288.5,428.5C285.557,428.98 282.89,429.98 280.5,431.5L279.5,431.5C273.801,433.183 268.467,435.683 263.5,439C248.144,451.591 240.144,467.758 239.5,487.5L239.5,581.5C233.801,589.909 227.301,590.576 220,583.5C218.991,581.975 218.491,580.308 218.5,578.5C217.167,549.167 217.167,519.833 218.5,490.5C218.518,479.65 219.851,468.983 222.5,458.5C226.128,448.208 231.794,439.208 239.5,431.5C243.377,426.457 248.043,422.29 253.5,419C257.577,416.295 261.91,414.128 266.5,412.5C266.842,411.662 267.508,411.328 268.5,411.5C268.667,400.154 269.167,388.821 270,377.5C272.932,349.36 279.266,322.027 289,295.5C300.323,264.354 320.157,240.354 348.5,223.5C354.67,220.443 361.004,217.777 367.5,215.5C379.421,213.759 391.421,213.092 403.5,213.5C424.257,216.715 442.591,225.049 458.5,238.5C474.508,254.509 487.841,272.509 498.5,292.5C505.476,293.664 512.476,293.831 519.5,293C545.441,289.794 571.441,287.294 597.5,285.5C635.515,284.5 664.182,300.167 683.5,332.5C709.873,334.343 733.54,343.177 754.5,359C762.063,366.07 769.73,372.903 777.5,379.5C778.5,379.833 779.167,380.5 779.5,381.5C792.47,391.658 805.47,401.825 818.5,412C834.484,426.464 847.151,443.298 856.5,462.5C858.928,468.352 861.594,474.019 864.5,479.5C866.036,484.108 867.369,488.775 868.5,493.5C877.798,529.16 877.798,564.827 868.5,600.5C864.387,610.745 860.22,621.078 856,631.5C853.978,636.223 851.478,640.557 848.5,644.5C848.25,646.674 847.25,648.341 845.5,649.5C835.016,670.151 819.349,685.651 798.5,696C795.28,697.352 791.947,698.186 788.5,698.5C787.329,699.345 785.995,700.011 784.5,700.5C772.119,703.331 759.786,703.164 747.5,700C745.934,699.392 744.6,698.558 743.5,697.5L741.5,697.5C738.196,695.027 735.362,692.027 733,688.5C723.403,673.635 714.07,658.635 705,643.5C704.187,641.564 703.687,639.564 703.5,637.5C701.535,630.753 702.702,624.419 707,618.5C710.896,614.275 714.396,609.775 717.5,605C709.087,595.015 702.587,583.848 698,571.5C695.555,559.793 696.388,548.46 700.5,537.5C700.383,535.516 701.05,533.85 702.5,532.5C696.989,531.231 691.489,529.898 686,528.5C682.992,528.006 680.492,526.673 678.5,524.5C676.354,544.151 674.354,563.818 672.5,583.5C671.6,590.999 670.6,598.499 669.5,606C670.414,607.406 671.08,608.906 671.5,610.5C688.376,633.429 699.043,659.096 703.5,687.5C704.404,688.209 704.737,689.209 704.5,690.5C706.048,697.787 707.381,705.12 708.5,712.5C709.79,713.058 710.623,714.058 711,715.5C711.179,719.025 711.679,722.359 712.5,725.5C714.165,745.563 713.665,765.563 711,785.5C707.095,789.34 705.595,794.006 706.5,799.5L703.5,799.5L703.5,804.5C701.176,804.662 699.509,805.828 698.5,808C699.451,808.718 699.617,809.551 699,810.5C694.855,813.44 692.188,817.44 691,822.5C690.259,821.359 689.425,821.359 688.5,822.5C685.745,824.211 683.411,826.378 681.5,829L682.5,830C681.5,830.333 680.5,830.667 679.5,831C627.096,831.831 575.429,831.664 524.5,830.5L524.5,829.5C522.167,829.167 520.833,827.833 520.5,825.5C519.353,821.354 519.186,817.02 520,812.5C521.214,810.951 522.714,809.785 524.5,809C536.162,808.5 547.829,808.333 559.5,808.5L564.5,808.5C567.247,808.813 569.914,808.48 572.5,807.5C570.822,804.805 569.156,802.139 567.5,799.5C565.421,795.007 563.088,790.674 560.5,786.5C558.03,783.177 555.696,779.677 553.5,776C539.306,777.304 525.306,776.137 511.5,772.5C501.711,769.936 492.377,766.27 483.5,761.5C480.874,770.078 477.207,778.078 472.5,785.5C465.344,799.811 458.178,814.145 451,828.5C449.416,829.861 447.582,830.528 445.5,830.5L243.5,830.5C241.143,830.663 238.81,830.497 236.5,830C232.919,825.67 230.252,820.837 228.5,815.5ZM354.5,582.5C355.087,591.82 355.753,601.153 356.5,610.5C359.793,608.118 363.46,607.118 367.5,607.5C368.263,606.732 369.263,606.232 370.5,606C379.861,605.279 389.194,605.446 398.5,606.5C389.177,602.341 379.844,597.841 370.5,593C365.044,590.026 360.044,586.526 355.5,582.5L354.5,582.5ZM591.5,604.5C563.64,610.017 542.474,625.017 528,649.5C526.221,655.443 526.054,661.443 527.5,667.5C531.042,678.961 535.209,690.294 540,701.5C549.999,722.832 560.499,743.832 571.5,764.5C572.338,764.842 572.672,765.508 572.5,766.5C581.862,780.711 591.862,794.544 602.5,808C620.497,808.5 638.497,808.667 656.5,808.5C662.246,808.451 667.58,806.951 672.5,804C678.258,797.965 682.591,791.132 685.5,783.5C689.15,767.667 690.15,751.667 688.5,735.5C685.988,714.077 682.154,692.744 677,671.5C672.743,655.528 665.91,640.861 656.5,627.5C645.842,614.832 632.176,607.332 615.5,605C607.507,604.5 599.507,604.334 591.5,604.5ZM606.5,695.5C605.206,692.452 604.206,689.285 603.5,686C605.119,679.852 609.119,677.185 615.5,678C619.664,678.823 622.831,680.99 625,684.5C631.566,695.958 636.732,707.958 640.5,720.5C639.586,728.074 635.253,731.74 627.5,731.5C624.925,730.432 622.758,728.765 621,726.5C616.153,716.14 611.319,705.807 606.5,695.5Z"/>
    </g>
</svg>
