<?xml version="1.0" encoding="UTF-8" standalone="no"?>
<!DOCTYPE svg PUBLIC "-//W3C//DTD SVG 1.1//EN" "http://www.w3.org/Graphics/SVG/1.1/DTD/svg11.dtd">
<svg width="100%" height="100%" viewBox="0 0 1024 1024" version="1.1" xmlns="http://www.w3.org/2000/svg" xmlns:xlink="http://www.w3.org/1999/xlink" xml:space="preserve" xmlns:serif="http://www.serif.com/" style="fill-rule:evenodd;clip-rule:evenodd;stroke-linejoin:round;stroke-miterlimit:2;">
    <g transform="matrix(1.45882,0,0,1.45882,-254.55,-263.572)">
        <path d="M255.5,593.5C235.495,585.332 216.828,574.832 199.5,562C189.867,554.704 182.033,545.87 176,535.5C172.985,528.742 174.485,523.242 180.5,519C185.047,517.455 189.713,517.121 194.5,518C204.148,529.314 214.815,539.647 226.5,549C235.7,554.433 245.033,559.599 254.5,564.5C257.292,522.566 270.625,484.233 294.5,449.5C288.184,438.007 285.684,425.673 287,412.5C289.074,382.158 302.574,358.658 327.5,342C351.478,328.841 376.812,319.341 403.5,313.5C409.237,311.852 415.071,310.519 421,309.5C433.582,314.415 442.582,323.082 448,335.5C449.007,340.111 448.34,344.445 446,348.5C433.462,360.04 420.629,371.206 407.5,382C399.802,389.364 392.469,397.03 385.5,405C381.582,406.156 377.582,406.656 373.5,406.5C364.03,403.562 360.864,397.229 364,387.5C367.405,383.023 371.238,378.856 375.5,375C389.771,363.068 403.771,350.734 417.5,338C388.81,342.897 361.81,352.564 336.5,367C322.022,381.63 314.022,399.297 312.5,420C316.903,442.647 330.737,454.48 354,455.5C376.321,454.176 393.987,444.509 407,426.5C416.608,414.62 423.608,401.286 428,386.5C430.513,382.41 434.179,380.41 439,380.5C454.108,382.714 458.108,390.714 451,404.5C442.242,423.523 430.409,440.356 415.5,455C399.706,468.896 381.373,477.396 360.5,480.5C360.011,488.471 358.178,496.137 355,503.5C348.833,519.167 342.667,534.833 336.5,550.5C354.125,566.657 371.792,582.824 389.5,599C390.5,599.667 391.5,599.667 392.5,599C409.01,589.08 426.343,580.746 444.5,574C429.755,567.367 422.422,555.867 422.5,539.5C425.825,513.665 440.491,501.832 466.5,504C485.272,509.773 495.605,522.44 497.5,542C496.97,548.993 495.303,555.659 492.5,562C503.49,562.05 514.49,561.884 525.5,561.5C535.236,561.318 544.903,561.985 554.5,563.5C555.5,563.333 556.5,563.167 557.5,563C549.366,540.299 555.032,521.965 574.5,508C594.622,499.269 611.456,503.436 625,520.5C634.782,539.857 631.615,556.69 615.5,571C612.623,571.956 609.956,573.289 607.5,575C626.356,582.178 644.19,591.345 661,602.5C678.674,586.66 696.507,570.994 714.5,555.5C706.533,534.772 699.033,513.772 692,492.5C690.985,488.56 690.485,484.56 690.5,480.5C667.602,477.634 648.102,467.968 632,451.5C618.284,435.416 607.617,417.416 600,397.5C597.526,389.62 600.026,384.12 607.5,381C615.15,378.696 620.983,380.862 625,387.5C632.945,414.771 649.112,435.604 673.5,450C689.479,457.241 705.479,457.241 721.5,450C733.287,442.938 739.287,432.438 739.5,418.5C738.105,388.855 723.772,368.355 696.5,357C675.572,348.689 654.239,342.022 632.5,337C650.928,352.091 668.761,367.924 686,384.5C691.297,400.546 685.463,407.713 668.5,406L662.5,403C648.716,385.546 632.716,370.546 614.5,358C609.854,354.358 606.354,349.858 604,344.5C604.408,329.857 610.908,318.691 623.5,311C625.278,310.296 627.112,309.796 629,309.5C659.1,315.132 687.934,324.632 715.5,338C758.289,362.427 773.456,398.594 761,446.5L757.5,450C779.36,484.745 792.36,522.578 796.5,563.5C820.373,554.445 839.706,539.612 854.5,519C861.823,515.325 868.323,516.491 874,522.5C876.856,526.639 877.19,530.972 875,535.5C871.926,541.808 867.76,547.308 862.5,552C852.397,561.548 841.397,569.881 829.5,577C812.802,585.016 796.136,593.016 779.5,601C755.33,626.837 730.163,651.67 704,675.5C701.67,678.555 699.67,681.555 698,684.5C724.491,674.78 751.158,665.447 778,656.5C783.801,657.802 787.968,661.135 790.5,666.5C801.696,683.211 813.529,699.544 826,715.5C838.692,729.191 851.692,742.525 865,755.5C867.642,762.916 866.142,769.416 860.5,775C855.314,777.226 850.314,776.893 845.5,774C830.633,758.801 816.133,743.301 802,727.5C792.215,713.563 782.215,699.896 772,686.5C769.846,687.274 767.679,687.941 765.5,688.5C737.865,698.433 709.865,707.267 681.5,715C679.283,716.275 676.949,717.275 674.5,718C678.821,718.499 683.154,718.666 687.5,718.5C709.193,718.477 730.86,717.81 752.5,716.5C758.117,716.389 762.284,718.722 765,723.5C765.667,764.167 765.667,804.833 765,845.5C761.05,855.054 754.217,857.887 744.5,854C741.404,851.971 739.738,849.138 739.5,845.5C738.167,815.833 738.167,786.167 739.5,756.5C739.827,751.786 739.493,747.12 738.5,742.5C735.242,743.417 731.909,743.751 728.5,743.5C728.272,743.516 728.043,743.53 727.815,743.542C700.155,745.25 672.383,747.07 644.5,749C657.286,766.736 669.453,784.903 681,803.5C681.667,806.5 681.667,809.5 681,812.5C677.869,823.56 674.536,834.56 671,845.5C667.426,854.369 660.926,857.536 651.5,855C645.636,851.434 643.47,846.267 645,839.5C647.805,829.583 650.305,819.583 652.5,809.5C651.825,806.309 650.658,803.309 649,800.5C643.869,792.404 638.369,784.571 632.5,777C625.345,774.836 618.512,772.003 612,768.5C554.187,792.446 496.354,792.446 438.5,768.5C430.295,772.552 421.628,775.052 412.5,776C405.791,786.585 398.958,797.085 392,807.5C391.333,809.5 391.333,811.5 392,813.5C394,820.833 396,828.167 398,835.5C400.492,849.669 394.659,856.169 380.5,855C378.714,854.215 377.214,853.049 376,851.5C368.858,836.264 364.858,820.264 364,803.5C374.599,784.244 386.765,766.077 400.5,749C369.526,746.8 338.526,744.966 307.5,743.5C307.926,777.502 308.093,811.502 308,845.5C304.021,855.396 297.187,857.896 287.5,853C284.648,850.479 283.148,847.313 283,843.5C282.708,808.663 282.208,773.83 281.5,739C281.374,732.729 281.874,726.563 283,720.5C284.171,719.107 285.671,718.273 287.5,718C317.198,717.685 346.865,718.018 376.5,719C373.5,717.333 370.5,715.667 367.5,714C336.752,705.806 306.419,696.306 276.5,685.5C255.402,717.783 230.402,746.95 201.5,773C196.859,776.608 191.859,777.274 186.5,775C181.854,769.689 180.354,763.523 182,756.5C195.972,741.86 209.972,727.193 224,712.5C237.777,695.112 250.943,677.278 263.5,659C266.614,657.069 269.947,656.402 273.5,657C300.485,666.439 327.485,675.439 354.5,684C350,678.003 345.333,672.17 340.5,666.5C336.849,663.256 333.182,659.922 329.5,656.5C311.036,639.87 293.37,622.37 276.5,604C269.847,599.836 262.847,596.336 255.5,593.5ZM312.5,469.5C298.48,492.708 288.48,517.541 282.5,544C292.445,543.22 302.445,542.387 312.5,541.5C321.104,521.353 328.104,500.687 333.5,479.5C326.336,476.554 319.336,473.221 312.5,469.5ZM366.5,619.5C366.953,618.542 367.619,617.708 368.5,617C351.833,601 335.167,585 318.5,569L315.5,567.5C305.557,568.663 295.557,569.33 285.5,569.5C286.298,574.06 287.798,578.394 290,582.5C301.005,592.339 311.505,602.672 321.5,613.5C330.537,621.852 339.37,630.519 348,639.5C354.033,632.637 360.199,625.97 366.5,619.5ZM734.5,568.5C718.34,585.494 701.673,601.994 684.5,618C691.333,625.5 698.167,633 705,640.5C724.527,621.196 743.861,601.53 763,581.5C764.269,577.859 765.436,574.192 766.5,570.5C755.88,569.091 745.214,568.424 734.5,568.5ZM501.5,587.5C486.762,589.68 472.095,592.847 457.5,597C422.837,607.068 393.671,625.568 370,652.5C400.455,731.485 458.289,767.319 543.5,760C576.008,757.732 605.341,747.065 631.5,728C652.973,707.019 669.973,682.852 682.5,655.5C660.392,631.228 634.059,613.062 603.5,601C570.398,589.873 536.398,585.373 501.5,587.5ZM736.5,469.5C733.898,471.81 730.898,473.643 727.5,475C723.124,476.403 718.79,477.903 714.5,479.5C718.231,488.296 721.398,497.296 724,506.5C729.692,518.208 734.525,530.208 738.5,542.5C747.485,543.166 756.485,543.499 765.5,543.5C760.819,517.792 752.152,493.458 739.5,470.5C738.675,469.614 737.675,469.281 736.5,469.5ZM588.5,527.5C581.478,532.175 579.645,538.509 583,546.5C588.296,551.717 594.463,552.884 601.5,550C603.041,548.421 604.208,546.587 605,544.5C606.246,532.342 600.746,526.676 588.5,527.5ZM455.5,527.5C452.861,529.309 450.694,531.642 449,534.5C447.241,541.009 448.741,546.509 453.5,551C461.337,553.946 467.171,551.779 471,544.5C473.073,532.402 467.907,526.735 455.5,527.5ZM292.5,207.5C300.554,206.931 306.054,210.265 309,217.5C309.667,226.833 309.667,236.167 309,245.5C305.92,256.286 299.087,259.453 288.5,255C285.769,252.374 283.936,249.207 283,245.5C282.333,236.167 282.333,226.833 283,217.5C284.323,212.345 287.49,209.012 292.5,207.5ZM747.5,212.5C753.883,211.476 759.383,213.143 764,217.5C764.973,219.392 765.64,221.392 766,223.5C766.667,231.833 766.667,240.167 766,248.5C763.232,257.756 757.065,261.256 747.5,259C744.333,257.167 741.833,254.667 740,251.5C738.651,242.199 738.317,232.866 739,223.5C739.814,218.196 742.647,214.529 747.5,212.5ZM535.5,234.5C542.641,234.314 547.807,237.314 551,243.5C551.167,248.667 551.333,253.833 551.5,259C554.628,277.206 547.295,284.539 529.5,281C527.333,279.5 525.5,277.667 524,275.5C522.408,265.241 522.074,254.907 523,244.5C523.471,242.754 524.138,241.087 525,239.5C528.147,236.841 531.647,235.174 535.5,234.5ZM329.5,249.5C340.549,249.15 351.549,249.65 362.5,251C368.473,255.286 369.973,260.786 367,267.5C364.374,270.231 361.207,272.064 357.5,273C366.269,274.087 370.102,278.921 369,287.5C367.629,292.198 364.463,294.698 359.5,295C350.5,295.667 341.5,295.667 332.5,295C324.225,292.616 321.725,287.45 325,279.5C327.778,276.193 331.278,274.026 335.5,273C323.529,271.22 319.696,264.72 324,253.5C325.5,251.531 327.333,250.198 329.5,249.5ZM773.5,250.5C782.839,250.334 792.173,250.5 801.5,251C811.939,255.199 813.939,261.866 807.5,271C805.5,271.667 803.5,272.333 801.5,273C809.548,274.611 813.048,279.444 812,287.5C810.01,291.49 806.843,293.99 802.5,295C792.5,295.667 782.5,295.667 772.5,295C770.714,294.215 769.214,293.049 768,291.5C764.057,282.662 766.557,276.495 775.5,273C769.881,271.038 766.881,267.038 766.5,261C767.732,256.686 770.065,253.186 773.5,250.5ZM241.5,249.5C252.172,249.333 262.839,249.5 273.5,250C280.489,254.128 282.322,259.961 279,267.5C276.573,270.57 273.406,272.404 269.5,273C280.643,275.616 283.643,281.949 278.5,292C276.913,292.862 275.246,293.529 273.5,294C262.833,294.667 252.167,294.667 241.5,294C235.891,290.723 234.058,285.89 236,279.5C237.981,276.255 240.814,274.089 244.5,273C234.907,268.894 232.407,262.061 237,252.5C238.409,251.219 239.909,250.219 241.5,249.5ZM556.5,279.5C565.94,279.055 575.274,279.555 584.5,281C590.936,286.575 592.769,293.408 590,301.5C588.445,304.055 586.278,305.888 583.5,307C572.735,307.952 562.068,307.619 551.5,306C545.368,299.332 544.868,292.165 550,284.5C551.965,282.45 554.132,280.783 556.5,279.5ZM489.5,279.5C497.174,279.334 504.841,279.5 512.5,280C523.088,285.76 525.588,293.927 520,304.5C519.097,305.701 517.931,306.535 516.5,307C507.167,307.667 497.833,307.667 488.5,307C480.349,301.533 478.515,294.367 483,285.5C484.737,282.926 486.904,280.926 489.5,279.5ZM693.5,273.5C703.208,273.256 712.874,273.756 722.5,275C731.147,280.928 731.481,287.261 723.5,294C713.167,294.667 702.833,294.667 692.5,294C688.177,291.894 686.177,288.394 686.5,283.5C686.877,278.731 689.21,275.398 693.5,273.5ZM748.5,290.5C756.91,289.614 762.743,292.947 766,300.5C766.667,310.167 766.667,319.833 766,329.5C761.395,337.214 754.895,339.381 746.5,336C743.667,334.5 741.5,332.333 740,329.5C739.333,319.167 739.333,308.833 740,298.5C741.445,294.218 744.278,291.551 748.5,290.5ZM292.5,291.5C300.485,290.903 305.985,294.236 309,301.5C309.667,311.167 309.667,320.833 309,330.5C300.734,340.654 292.067,340.987 283,331.5C282.333,320.5 282.333,309.5 283,298.5C285.48,295.18 288.647,292.846 292.5,291.5ZM530.5,309.5C540.009,307.672 546.842,311.005 551,319.5C551.667,327.5 551.667,335.5 551,343.5C546.652,351.915 539.819,354.748 530.5,352C526.667,350.833 524.167,348.333 523,344.5C522.333,335.167 522.333,325.833 523,316.5C524.767,313.228 527.267,310.895 530.5,309.5Z"/>
    </g>
</svg>
