<?xml version="1.0" encoding="UTF-8" standalone="no"?>
<!DOCTYPE svg PUBLIC "-//W3C//DTD SVG 1.1//EN" "http://www.w3.org/Graphics/SVG/1.1/DTD/svg11.dtd">
<svg width="100%" height="100%" viewBox="0 0 1024 1024" version="1.1" xmlns="http://www.w3.org/2000/svg" xmlns:xlink="http://www.w3.org/1999/xlink" xml:space="preserve" xmlns:serif="http://www.serif.com/" style="fill-rule:evenodd;clip-rule:evenodd;stroke-linejoin:round;stroke-miterlimit:2;">
    <g transform="matrix(1.354,0,0,1.354,-172.01,-184.448)">
        <path d="M497.5,786.5C496.163,787.315 495.163,788.482 494.5,790C491.774,790.182 489.107,790.682 486.5,791.5C481.083,802.082 472.583,808.748 461,811.5C455.108,809.903 449.275,808.403 443.5,807C432.241,820.939 418.241,830.939 401.5,837C384.671,840.7 368.838,838.2 354,829.5C343.764,837.204 332.264,840.704 319.5,840C301.614,834.59 292.614,822.423 292.5,803.5C293.386,784.433 302.719,771.267 320.5,764C329.364,761.005 338.197,760.838 347,763.5C361.054,753.446 373.054,741.446 383,727.5C388.926,717.222 392.759,706.222 394.5,694.5C381.82,682.32 369.32,669.987 357,657.5C347.108,643.716 338.775,629.049 332,613.5C328.231,615.826 324.398,615.992 320.5,614C307.706,596.286 300.873,576.453 300,554.5C299.474,538.802 299.974,523.135 301.5,507.5C288.119,502.985 274.952,497.985 262,492.5C262.818,496.097 263.818,499.764 265,503.5C266.717,512.116 263.217,515.949 254.5,515C238.003,498.84 226.503,479.673 220,457.5C217.413,446.255 216.913,434.922 218.5,423.5C213.976,415.427 211.809,406.76 212,397.5C192.566,372.625 179.566,344.625 173,313.5C168.881,294.361 167.548,275.028 169,255.5C168.94,248.075 170.606,241.075 174,234.5C182.785,228.472 190.452,229.806 197,238.5C205.844,258.878 217.677,277.212 232.5,293.5L233.5,292.5C225.967,269.089 223.134,245.089 225,220.5C227.92,201.157 232.253,182.157 238,163.5C244.377,157.563 251.377,156.896 259,161.5C273.734,211.806 301.567,253.306 342.5,286C349.332,290.584 356.332,294.917 363.5,299C385.441,295.006 407.441,291.006 429.5,287C443.525,282.825 455.858,275.825 466.5,266C475.086,263.841 480.253,267.008 482,275.5C483.804,305.282 473.971,330.282 452.5,350.5C465.722,367.633 474.222,386.966 478,408.5C479.057,416.464 479.723,424.464 480,432.5C490.129,420.37 500.962,408.87 512.5,398C545.7,369.07 581.033,343.07 618.5,320C646.547,300.641 673.88,280.308 700.5,259C709.429,250.615 718.263,242.115 727,233.5C746.921,212.917 764.588,190.583 780,166.5C784.766,158.207 788.766,149.54 792,140.5C793.319,138.513 795.152,137.346 797.5,137C807.033,134.511 812.866,138.011 815,147.5C816.266,176.041 812.932,204.041 805,231.5C798.32,250.495 791.986,269.495 786,288.5C802.226,273.324 816.56,256.658 829,238.5C833.583,229.75 837.583,220.75 841,211.5C844.788,206.847 849.622,205.347 855.5,207C858.196,207.69 860.363,209.19 862,211.5C863.135,217.952 863.969,224.452 864.5,231C861.212,284.374 843.045,331.874 810,373.5C793.463,394.371 774.629,412.871 753.5,429C789.814,415.02 821.647,394.187 849,366.5C852.803,360.561 855.803,354.227 858,347.5C862.599,340.938 868.432,339.771 875.5,344C877.317,345.8 878.484,347.966 879,350.5C878.969,390.546 866.969,426.546 843,458.5C830.203,474.964 815.703,489.797 799.5,503C783.603,513.894 767.436,524.394 751,534.5C752.265,546.35 749.598,557.35 743,567.5C737.286,576.221 730.452,584.054 722.5,591C703.841,607.337 683.175,620.67 660.5,631C672.74,639.571 683.406,649.904 692.5,662C708.009,665.004 721.509,671.838 733,682.5C738.823,689.479 744.156,696.812 749,704.5C755.298,718.09 761.298,731.757 767,745.5C779.637,763.238 796.804,773.405 818.5,776C828.5,776.333 838.5,776.667 848.5,777C850.587,777.792 852.421,778.959 854,780.5C855.434,784.406 855.767,788.406 855,792.5C853.786,794.049 852.286,795.215 850.5,796C835.137,796.837 819.803,796.504 804.5,795C774.377,788.877 753.211,771.711 741,743.5C737.485,732.983 733.485,722.649 729,712.5C722.038,703.204 714.038,694.87 705,687.5C707.494,697.305 709.494,707.305 711,717.5C711.798,730.512 710.631,743.346 707.5,756C707.517,759.383 708.35,762.55 710,765.5C721.447,781.952 736.613,793.452 755.5,800C760.155,800.171 764.822,800.004 769.5,799.5C776.238,798.45 780.738,801.117 783,807.5C783.696,810.478 784.196,813.478 784.5,816.5L856.5,816.5C856.171,803.989 856.505,791.655 857.5,779.5C857.733,776.091 859.4,773.591 862.5,772C866.167,771.333 869.833,771.333 873.5,772C875.286,772.785 876.786,773.951 878,775.5C878.667,794.833 878.667,814.167 878,833.5C877.89,835.848 876.723,837.348 874.5,838C772.167,838.667 669.833,838.667 567.5,838C560.833,836.499 554.833,833.666 549.5,829.5C538.495,839.335 525.828,842.502 511.5,839C494.151,828.441 488.317,813.274 494,793.5C495.705,791.423 496.872,789.09 497.5,786.5ZM497.5,786.5C501.793,780.793 506.459,775.293 511.5,770C517.563,766.302 523.897,763.135 530.5,760.5C520.611,751.117 512.445,740.45 506,728.5C504.644,739.93 502.644,751.263 500,762.5C499.802,768.179 499.802,773.845 500,779.5C498.589,781.65 497.755,783.984 497.5,786.5ZM519.5,421.5C505.824,434.678 492.991,448.678 481,463.5C475.304,472.229 470.137,481.229 465.5,490.5C463.798,494.043 461.465,497.21 458.5,500C456.5,500.167 454.5,500.333 452.5,500.5C446.579,500.91 442.912,498.244 441.5,492.5C445.628,482.283 449.461,471.95 453,461.5C454.259,455.207 455.259,448.873 456,442.5C459.768,413.643 453.268,387.476 436.5,364C431.504,365.313 426.504,366.979 421.5,369C412.637,370.961 407.97,367.461 407.5,358.5C407.321,355.869 407.987,353.535 409.5,351.5C424.226,347.274 436.059,338.941 445,326.5C452.103,317.634 456.436,307.634 458,296.5C452.162,300.336 445.995,303.502 439.5,306C422.965,309.978 406.298,313.311 389.5,316C357.067,321.961 329.901,337.128 308,361.5C302.017,368.773 298.35,377.106 297,386.5C296.731,393.542 296.064,400.542 295,407.5C293.888,410.278 292.055,412.445 289.5,414C277.206,415.547 270.873,410.047 270.5,397.5C255.21,399.956 245.376,408.623 241,423.5C237.629,441.454 240.963,458.121 251,473.5C256.81,455.161 269.31,444.661 288.5,442C313.802,440.401 339.135,440.068 364.5,441C368.12,441.284 370.62,443.117 372,446.5C372.667,450.167 372.667,453.833 372,457.5C371.535,458.931 370.701,460.097 369.5,461C351.169,462.437 332.836,462.937 314.5,462.5C323.027,475.942 326.527,490.608 325,506.5C319.443,534.47 320.443,562.137 328,589.5C334.049,578.579 341.215,568.412 349.5,559C350.833,558.333 352.167,557.667 353.5,557C361.416,554.545 366.916,557.045 370,564.5C369.274,558.731 368.441,552.897 367.5,547C366.944,538.39 370.944,534.223 379.5,534.5C385.3,533.875 389.133,536.208 391,541.5C392.912,539.343 394.579,537.009 396,534.5C397.857,527.906 401.023,522.073 405.5,517C414.663,514.247 420.663,517.247 423.5,526C419.541,543.785 410.041,557.618 395,567.5C393.886,575.499 392.553,583.499 391,591.5C387.769,597.687 382.936,599.52 376.5,597C371.009,591.677 365.342,586.511 359.5,581.5C357.877,584.955 356.043,588.288 354,591.5C354.471,608.786 359.805,624.452 370,638.5C377.556,646.719 385.056,654.885 392.5,663C407.461,674.292 419.961,687.792 430,703.5C433.685,728.643 430.018,752.643 419,775.5C408.194,793.823 393.027,798.823 373.5,790.5C367.258,794.083 360.591,795.249 353.5,794C347.869,789.035 341.703,784.869 335,781.5C321.596,785.218 315.929,793.885 318,807.5C320.561,815.057 325.727,817.89 333.5,816C341.177,812.494 348.844,808.994 356.5,805.5C364.891,808.198 372.891,811.698 380.5,816C391.336,818.304 401.336,816.304 410.5,810L422,798.5C424.416,793.999 427.083,789.666 430,785.5C433.681,782.64 437.848,781.807 442.5,783C449.474,785.11 456.474,786.776 463.5,788C467.753,782.755 471.586,777.255 475,771.5C483.686,747.595 487.019,722.929 485,697.5C486.002,695.334 487.502,693.667 489.5,692.5C493.118,691.654 496.785,691.32 500.5,691.5C500.334,686.821 500.501,682.155 501,677.5C507.261,666.818 510.761,655.318 511.5,643C509.118,627.434 506.618,611.934 504,596.5C505.214,594.951 506.714,593.785 508.5,593C527.263,590.354 545.096,584.854 562,576.5C562.315,575.092 561.982,573.759 561,572.5C554.694,562.861 546.694,554.861 537,548.5C535.517,545.298 535.183,541.964 536,538.5C537.109,536.185 538.943,534.685 541.5,534C554.266,531.535 565.432,526.035 575,517.5C578.477,514.422 578.31,511.589 574.5,509C565.647,503.379 555.98,499.713 545.5,498C542.344,497.063 539.511,495.563 537,493.5C535.812,485.724 537.145,478.391 541,471.5C557.421,445.576 580.588,429.243 610.5,422.5C614.688,421.854 617.522,423.52 619,427.5C619.355,433.433 617.522,438.6 613.5,443C592.497,449.183 575.497,461.016 562.5,478.5C575.325,482.83 586.491,489.83 596,499.5C603.327,509.128 603.327,518.794 596,528.5C587.799,536.351 578.633,542.851 568.5,548L577,556.5C587.41,569.202 586.91,581.369 575.5,593C561.322,601.878 545.989,607.711 529.5,610.5C532.56,620.58 534.226,630.913 534.5,641.5C540.176,641.666 545.843,641.499 551.5,641C593.8,634.514 633.8,621.181 671.5,601C689.942,591.176 706.109,578.342 720,562.5C723.839,556.322 727.006,549.822 729.5,543C718.694,547.551 707.36,551.218 695.5,554C681.656,557.417 667.656,558.917 653.5,558.5C648.753,553.247 648.253,547.581 652,541.5C653.319,539.513 655.152,538.346 657.5,538C664.208,537.711 670.875,537.045 677.5,536C714.918,526.619 749.584,511.285 781.5,490C815.366,464.962 839.032,432.462 852.5,392.5C819.443,423.245 780.776,445.745 736.5,460C717.931,464.593 699.598,469.926 681.5,476C677.013,477.378 673.513,476.212 671,472.5C668.309,466.661 669.142,461.494 673.5,457C682.23,453.802 690.563,449.802 698.5,445C736.472,420.346 769.638,390.18 798,354.5C818.85,326.277 832.517,294.943 839,260.5C794.239,319.934 739.073,367.101 673.5,402C667.691,403.345 663.857,401.178 662,395.5C661.021,389.017 661.521,382.684 663.5,376.5C691.651,356.187 717.151,332.854 740,306.5C771.4,270.016 789.4,227.682 794,179.5C791.446,186.276 788.113,192.609 784,198.5C763.835,225.924 741.002,251.091 715.5,274C674.507,306.992 631.841,337.659 587.5,366C563.111,382.365 540.444,400.865 519.5,421.5ZM327.5,364.5C344.492,363.66 352.659,371.66 352,388.5C348.257,400.627 340.09,405.46 327.5,403C317.36,395.979 314.194,386.479 318,374.5C320.022,369.98 323.189,366.647 327.5,364.5ZM632.5,640.5C631.942,641.79 630.942,642.623 629.5,643C597.841,655.624 565.008,662.79 531,664.5C526.393,674.489 522.893,684.822 520.5,695.5C521.227,707.076 524.727,717.743 531,727.5C542.38,740.885 554.547,753.719 567.5,766C570.833,768 574.167,770 577.5,772C581.435,772.084 585.102,773.084 588.5,775C593.858,781.245 593.525,787.245 587.5,793C571.373,798.291 558.039,794.291 547.5,781C545.833,780.333 544.167,780.333 542.5,781C537.833,782.667 533.167,784.333 528.5,786C522.471,788.691 518.638,793.191 517,799.5C515.416,813.256 521.25,818.423 534.5,815C538.677,812.152 542.844,809.318 547,806.5C554.222,810.362 561.722,813.529 569.5,816C598.5,816.667 627.5,816.667 656.5,816C655.478,813.455 654.312,810.955 653,808.5C646.221,800.388 638.721,792.888 630.5,786C612.141,772.819 594.141,759.152 576.5,745C574.622,743.457 573.122,741.624 572,739.5C571.057,727.125 576.557,722.959 588.5,727C607.833,742 627.167,757 646.5,772C653.636,778.135 660.469,784.635 667,791.5C679.977,776.249 687.311,758.582 689,738.5C692.48,692.405 673.646,659.739 632.5,640.5ZM249.5,201.5C248.93,207.861 248.097,214.195 247,220.5C245.273,248.139 249.606,274.805 260,300.5C268.431,318.579 278.098,335.912 289,352.5C302.804,334.692 319.638,320.526 339.5,310C332.885,305.719 326.552,301.053 320.5,296C290.729,268.777 267.062,237.277 249.5,201.5ZM375.5,765.5C377.196,765.315 378.529,764.481 379.5,763C381.833,762.333 384.167,762.333 386.5,763C390.092,765.921 392.925,769.421 395,773.5C399.113,767.609 402.446,761.276 405,754.5C406.54,742.408 408.206,730.408 410,718.5C407.746,726.34 404.413,733.673 400,740.5C392.328,749.338 384.162,757.672 375.5,765.5ZM695.5,786.5C694.824,788.859 693.991,791.192 693,793.5C687.463,800.739 682.296,808.239 677.5,816C697.167,816.667 716.833,816.667 736.5,816C721.559,807.886 707.892,798.052 695.5,786.5ZM190.5,273.5C191.515,307.044 200.348,338.378 217,367.5C222.235,376.564 228.735,384.564 236.5,391.5C245.738,381.682 257.071,375.515 270.5,373C238.807,343.814 212.14,310.647 190.5,273.5ZM479.5,870.5C493.24,870.054 506.907,870.554 520.5,872C525.833,878 525.833,884 520.5,890C518.5,890.667 516.5,891.333 514.5,892C434.833,892.667 355.167,892.667 275.5,892C266.266,886.034 265.266,879.034 272.5,871C288.163,870.5 303.83,870.333 319.5,870.5L479.5,870.5ZM136.5,809.5C180.168,809.333 223.835,809.5 267.5,810C274.062,814.599 275.229,820.432 271,827.5C269.786,829.049 268.286,830.215 266.5,831C223.167,831.667 179.833,831.667 136.5,831C131.85,826.426 130.35,820.926 132,814.5C133.193,812.503 134.693,810.836 136.5,809.5Z"/>
    </g>
</svg>
