<?xml version="1.0" encoding="UTF-8" standalone="no"?>
<!DOCTYPE svg PUBLIC "-//W3C//DTD SVG 1.1//EN" "http://www.w3.org/Graphics/SVG/1.1/DTD/svg11.dtd">
<svg width="100%" height="100%" viewBox="0 0 1024 1024" version="1.1" xmlns="http://www.w3.org/2000/svg" xmlns:xlink="http://www.w3.org/1999/xlink" xml:space="preserve" xmlns:serif="http://www.serif.com/" style="fill-rule:evenodd;clip-rule:evenodd;stroke-linejoin:round;stroke-miterlimit:2;">
    <g transform="matrix(1.43854,0,0,1.43854,-227.163,-231.149)">
        <path d="M325.5,725.5C312.149,729.215 298.649,732.882 285,736.5C278.693,735.859 275.526,732.359 275.5,726C274.91,720.4 277.244,716.733 282.5,715C297.393,710.361 312.393,706.194 327.5,702.5C326.866,687.357 326.532,672.19 326.5,657C326.365,641.782 326.865,626.615 328,611.5C329.558,609.232 331.724,608.066 334.5,608C351.393,606.42 368.059,603.587 384.5,599.5C385.713,599.253 386.38,598.586 386.5,597.5C383.554,576.949 382.887,556.283 384.5,535.5C377.869,536.331 371.202,536.664 364.5,536.5C364.628,538.655 364.128,540.655 363,542.5C346.555,559.614 330.055,576.78 313.5,594C303.479,598.502 297.479,595.502 295.5,585C296.245,582.008 297.412,579.174 299,576.5C317.568,557.935 335.401,538.769 352.5,519C363.081,516.584 373.747,514.75 384.5,513.5C384.554,483.958 387.054,454.625 392,425.5C392.878,421.948 394.044,418.614 395.5,415.5C395.69,412.145 396.69,409.145 398.5,406.5C394.247,399.732 389.747,393.066 385,386.5C380.563,378.626 376.397,370.626 372.5,362.5C358.512,361.667 344.512,361.167 330.5,361C329.299,360.097 328.465,358.931 328,357.5C326.359,329.562 326.025,301.562 327,273.5C327.692,269.138 330.192,266.304 334.5,265C340.378,263.347 345.212,264.847 349,269.5C350.48,292.743 350.98,316.076 350.5,339.5C360.172,339.334 369.839,339.5 379.5,340C385.317,340.15 389.15,342.984 391,348.5C394.759,357.679 398.759,366.679 403,375.5C405.349,380.212 408.183,384.545 411.5,388.5C416.15,381.855 421.15,375.522 426.5,369.5C420.762,365.704 417.262,360.371 416,353.5C413.577,327.175 424.077,308.008 447.5,296C457.166,291.722 467.166,288.556 477.5,286.5C470.548,266.931 460.715,248.931 448,232.5C438.53,222.029 428.697,211.863 418.5,202C408.709,194.544 399.209,186.711 390,178.5C387.366,168.769 391.033,163.103 401,161.5C403.3,161.494 405.466,161.994 407.5,163C436.924,185.085 461.424,211.585 481,242.5C488.012,255.19 494.512,268.19 500.5,281.5C509.475,282.498 518.475,282.832 527.5,282.5C535.243,260.015 546.41,239.348 561,220.5C577.887,200.946 596.054,182.779 615.5,166C624.274,157.89 631.441,159.057 637,169.5C638.013,173.744 637.18,177.577 634.5,181C596.189,208.139 567.189,242.972 547.5,285.5C552.755,286.343 557.755,287.677 562.5,289.5C580.989,294.502 595.823,304.835 607,320.5C614.93,334.105 616.597,348.439 612,363.5C610.833,366 609,367.833 606.5,369C609.802,372.456 612.469,376.289 614.5,380.5C616.796,382.401 618.629,384.734 620,387.5C626.317,374.197 632.65,360.864 639,347.5C640.793,344.705 642.96,342.205 645.5,340C656.828,339.5 668.162,339.333 679.5,339.5C679.333,316.164 679.5,292.831 680,269.5C684.096,264.787 689.263,263.287 695.5,265C698.115,265.612 699.781,267.112 700.5,269.5C701.222,269.918 701.722,270.584 702,271.5C702.824,299.572 702.657,327.572 701.5,355.5C700.212,359.282 697.545,361.449 693.5,362C681.499,361.424 669.499,361.59 657.5,362.5C651.296,378.68 642.296,393.013 630.5,405.5C634.869,417.175 638.035,429.175 640,441.5C642.651,465.427 644.151,489.427 644.5,513.5C653.586,514.417 662.586,515.917 671.5,518C674.446,518.806 677.112,520.139 679.5,522C697.305,540.805 715.471,559.305 734,577.5C738.86,588.338 735.36,594.671 723.5,596.5C722.062,596.281 720.729,595.781 719.5,595C704.081,578.248 687.915,562.081 671,546.5C668.95,543.852 667.784,540.852 667.5,537.5C660.178,536.962 652.845,536.629 645.5,536.5C645.755,557.543 645.089,578.543 643.5,599.5C658.986,604.36 674.986,607.194 691.5,608C696.737,607.528 700.237,609.695 702,614.5C702.554,643.837 702.387,673.171 701.5,702.5C715.853,706.506 730.186,710.673 744.5,715C752.736,719.695 754.402,726.028 749.5,734C747.1,735.701 744.433,736.534 741.5,736.5C728.556,733.129 715.723,729.462 703,725.5C702.667,771.5 702.333,817.5 702,863.5C700.578,869.473 696.745,872.473 690.5,872.5C685.535,872.369 682.035,870.036 680,865.5C679.5,786.501 679.333,707.501 679.5,628.5C666.211,625.909 652.878,623.576 639.5,621.5C630.228,683.817 609.728,742.15 578,796.5C570.163,809.327 560.997,821.161 550.5,832C534.516,843.499 516.849,847.166 497.5,843C491.746,841.088 486.412,838.421 481.5,835C470.769,825.116 461.769,813.949 454.5,801.5C438.415,775.661 425.249,748.328 415,719.5C404.165,687.158 395.998,654.158 390.5,620.5C380.207,622.471 369.874,624.304 359.5,626C355.967,626.371 352.967,627.537 350.5,629.5L350.5,831.5C350.915,843.562 350.415,855.562 349,867.5C343.019,873.641 336.519,874.141 329.5,869C328.283,867.352 327.45,865.519 327,863.5C326.5,817.501 326.333,771.501 326.5,725.5L325.5,725.5ZM410.5,605.5C412.073,614.302 413.24,623.302 414,632.5C417.546,630.319 421.38,628.819 425.5,628C455.323,620.345 485.656,616.845 516.5,617.5C550.626,616.778 583.959,621.444 616.5,631.5C617.6,627.057 618.6,622.724 619.5,618.5C619.337,613.453 619.671,608.453 620.5,603.5C609.772,600.647 599.106,597.481 588.5,594C547.1,586.286 505.433,584.62 463.5,589C446.78,590.846 430.78,595.179 415.5,602C413.866,602.494 412.199,602.66 410.5,602.5L410.5,605.5ZM611.5,652.5C611.53,651.503 611.03,650.836 610,650.5C579.591,641.085 548.425,636.751 516.5,637.5C483.047,636.327 450.38,640.66 418.5,650.5C419.339,660.539 421.506,670.205 425,679.5C443.332,673.583 462.165,670.083 481.5,669C508.182,668.194 534.849,668.527 561.5,670C573.311,671.462 584.978,673.629 596.5,676.5C599.417,677.417 602.417,678.084 605.5,678.5C607.503,669.822 609.503,661.155 611.5,652.5ZM598.5,698.5C571.49,690.999 543.824,687.666 515.5,688.5C486.579,687.077 458.245,690.41 430.5,698.5C433.432,706.796 436.265,715.129 439,723.5C439.414,723.957 439.914,724.291 440.5,724.5C489.803,714.826 538.969,715.493 588,726.5C589.011,725.944 589.844,725.278 590.5,724.5C592.964,715.774 595.631,707.107 598.5,698.5ZM579.5,748.5C579.539,747.417 579.873,746.417 580.5,745.5C549.832,738.964 518.832,736.797 487.5,739C474.125,740.171 460.792,741.671 447.5,743.5C450.77,752.301 454.436,760.968 458.5,769.5C460.22,768.066 462.22,767.233 464.5,767C488.246,763.112 511.912,762.612 535.5,765.5C547.046,766.343 558.38,768.343 569.5,771.5C572.079,763.404 575.412,755.737 579.5,748.5ZM553.5,788.5C525.769,782.289 498.103,781.956 470.5,787.5C477.231,797.738 484.565,807.572 492.5,817C498.05,821.91 504.55,823.743 512,822.5C520.101,822.914 527.935,821.748 535.5,819C543.929,809.97 551.263,800.137 557.5,789.5C556.311,788.571 554.978,788.238 553.5,788.5ZM412.5,435.5C411.88,438.34 411.213,441.174 410.5,444C411.793,444.49 413.127,444.657 414.5,444.5C482.842,445.163 550.842,444.497 618.5,442.5C616.434,431.567 613.434,420.901 609.5,410.5L420.5,410.5C417.437,418.688 414.771,427.022 412.5,435.5ZM412.5,464.5L409.5,464.5C407.778,477.775 406.778,491.108 406.5,504.5C420.025,501.434 433.692,499.268 447.5,498C491.5,497.333 535.5,497.333 579.5,498C594.037,499.423 608.371,501.923 622.5,505.5L623.5,504.5C622.133,492.899 621.467,481.232 621.5,469.5C620.691,467.708 620.191,465.708 620,463.5C550.904,464.498 481.738,464.831 412.5,464.5ZM438.5,383.5C437.236,385.27 435.736,386.937 434,388.5C433.333,389.167 433.333,389.833 434,390.5C479.423,390.374 524.923,390.374 570.5,390.5C578.676,389.833 587.01,389.167 595.5,388.5C591.068,381.899 586.068,375.732 580.5,370C537.167,369.333 493.833,369.333 450.5,370C446.635,374.694 442.635,379.194 438.5,383.5ZM527.5,302.5C502.175,300.336 478.175,304.836 455.5,316C446.626,321.698 440.626,329.532 437.5,339.5C438.114,342.345 439.114,345.012 440.5,347.5C441.289,347.783 441.956,348.283 442.5,349C490.832,349.5 539.166,349.667 587.5,349.5C590.728,347.712 592.395,344.879 592.5,341C591.284,335.734 589.117,330.901 586,326.5C577.64,318.63 568.14,312.63 557.5,308.5C547.444,306.146 537.444,304.146 527.5,302.5ZM444.5,517.5C431.504,519.997 418.504,522.997 405.5,526.5C405.167,544.845 405.5,563.179 406.5,581.5C479.01,560.044 551.343,560.71 623.5,583.5C624.179,565.132 624.846,546.799 625.5,528.5C611.099,523.919 596.432,520.419 581.5,518C535.835,517.5 490.168,517.333 444.5,517.5Z"/>
    </g>
</svg>
