<?xml version="1.0" encoding="UTF-8" standalone="no"?>
<!DOCTYPE svg PUBLIC "-//W3C//DTD SVG 1.1//EN" "http://www.w3.org/Graphics/SVG/1.1/DTD/svg11.dtd">
<svg width="100%" height="100%" viewBox="0 0 1024 1024" version="1.1" xmlns="http://www.w3.org/2000/svg" xmlns:xlink="http://www.w3.org/1999/xlink" xml:space="preserve" xmlns:serif="http://www.serif.com/" style="fill-rule:evenodd;clip-rule:evenodd;stroke-linejoin:round;stroke-miterlimit:2;">
    <g transform="matrix(1.51999,0,0,1.51999,-263.532,-288.085)">
        <path d="M431.5,534.5C416.808,532.771 403.475,527.604 391.5,519C386.189,514.021 381.189,508.687 376.5,503C369.274,501.941 365.941,497.775 366.5,490.5C366.505,488.304 366.838,486.304 367.5,484.5C367.414,483.504 367.748,482.671 368.5,482C376.885,479.903 384.218,481.903 390.5,488C398.033,499.545 408.367,507.212 421.5,511C430.16,512.887 438.827,514.554 447.5,516C452.616,528.823 448.283,534.989 434.5,534.5L431.5,534.5ZM537.5,564.5C532.24,560.745 527.406,556.411 523,551.5C520.634,547.657 520.134,543.657 521.5,539.5C522.023,537.292 523.356,535.792 525.5,535C534.527,533.51 539.861,537.344 541.5,546.5C547.446,546.643 552.279,548.976 556,553.5C559.047,561.655 556.213,566.655 547.5,568.5C543.92,567.708 540.587,566.374 537.5,564.5ZM586.5,655.5C583.962,648.156 582.296,640.489 581.5,632.5C581.392,629.817 582.559,628.15 585,627.5C587.678,629.014 589.845,631.014 591.5,633.5C594.098,637.438 597.098,641.105 600.5,644.5C608.693,647.631 617.026,650.298 625.5,652.5C626.492,652.328 627.158,652.662 627.5,653.5C648.535,658.342 669.535,663.342 690.5,668.5C691.167,668.5 691.5,668.833 691.5,669.5C703.807,671.548 715.807,674.714 727.5,679C741.709,701.252 756.042,723.418 770.5,745.5C776.13,747.93 781.797,749.93 787.5,751.5C796.478,752.881 805.145,755.381 813.5,759C817.423,764.364 817.423,769.697 813.5,775C811.361,776.404 809.028,777.237 806.5,777.5C793.483,774.16 780.483,770.826 767.5,767.5C760.584,766.516 755.584,762.85 752.5,756.5C746.32,747.472 740.653,738.138 735.5,728.5C729.767,721.382 724.767,713.716 720.5,705.5C717.865,701.857 715.199,698.19 712.5,694.5C684.4,688.642 656.4,682.142 628.5,675C615.161,671.588 602.161,667.421 589.5,662.5C587.166,660.824 586.166,658.491 586.5,655.5ZM175.5,666.5C173.953,664.193 173.287,661.527 173.5,658.5C173.005,655.052 174.005,652.219 176.5,650C192.375,646.993 208.209,643.827 224,640.5C226.925,640.523 229.759,641.023 232.5,642C233.823,642.816 234.489,643.983 234.5,645.5C235.338,645.842 235.672,646.508 235.5,647.5C236.043,652.039 234.71,655.873 231.5,659C214.446,663.977 197.113,667.477 179.5,669.5C177.77,668.974 176.436,667.974 175.5,666.5ZM472.5,535.5C468.868,521.539 470.201,508.206 476.5,495.5C482.878,483.291 492.544,474.791 505.5,470C531.691,464.626 554.024,471.459 572.5,490.5C573.922,487.574 575.922,485.074 578.5,483C582.024,479.975 585.691,477.142 589.5,474.5C584.979,455.041 581.646,435.374 579.5,415.5C577.413,406.067 575.913,396.401 575,386.5C569.369,332.764 568.202,279.097 571.5,225.5C575.606,223.555 579.939,223.055 584.5,224C586.66,224.996 588.327,226.496 589.5,228.5C588.24,290.039 591.407,351.372 599,412.5C601.847,430.584 605.014,448.584 608.5,466.5L631.5,466.5L631.5,463.5C639.127,446.564 645.96,429.231 652,411.5C656.81,402.193 661.31,392.86 665.5,383.5C667.373,375.723 671.04,368.89 676.5,363C700.262,354.248 723.929,345.415 747.5,336.5C764.095,329.518 780.762,322.518 797.5,315.5C808.068,310.917 818.734,306.417 829.5,302C841.923,298.449 847.757,302.949 847,315.5C845.859,317.609 844.359,319.442 842.5,321C791.607,341.464 740.607,361.63 689.5,381.5C675.336,411.654 662.336,442.32 650.5,473.5C672.975,488.461 682.475,509.461 679,536.5C677.752,543.501 675.586,550.167 672.5,556.5C668.219,563.781 662.553,569.781 655.5,574.5C655.5,575.167 655.167,575.5 654.5,575.5C640.254,585.549 624.587,588.549 607.5,584.5C572.889,571.453 558.556,546.619 564.5,510C562.649,508.317 560.983,506.484 559.5,504.5C544.213,489.427 526.546,485.593 506.5,493C495.303,500.561 490.47,511.061 492,524.5C502.657,566.09 529.49,587.59 572.5,589C575.663,590.48 577.496,592.98 578,596.5C577.495,622.131 581.162,647.131 589,671.5C593.688,676.687 598.188,682.02 602.5,687.5C616.622,686.846 630.622,688.179 644.5,691.5C649.763,693.03 655.096,694.364 660.5,695.5C665.519,696.839 668.186,700.173 668.5,705.5C668.078,712.089 664.578,715.423 658,715.5C647.175,713.004 636.341,710.504 625.5,708C616.167,707.667 606.833,707.333 597.5,707C590.178,703.848 584.178,699.015 579.5,692.5C571.467,683.303 565.967,672.636 563,660.5C559.898,643.289 558.065,625.956 557.5,608.5C554.796,608.492 551.796,608.325 548.5,608C509.981,597.648 484.648,573.481 472.5,535.5ZM607.5,488.5C606.791,489.404 605.791,489.737 604.5,489.5C577.558,509.759 575.558,532.259 598.5,557C618.977,569.88 636.977,567.047 652.5,548.5C653.995,544.002 655.662,539.668 657.5,535.5C661.548,515.435 654.881,500.268 637.5,490C627.668,486.036 617.668,485.536 607.5,488.5ZM235.5,799.5C228.378,800.25 221.712,798.917 215.5,795.5C210.949,790.393 208.616,784.393 208.5,777.5C209.285,774.596 210.619,771.93 212.5,769.5C212.328,768.508 212.662,767.842 213.5,767.5C220.479,757.196 227.812,747.196 235.5,737.5C257.411,709.051 280.745,681.717 305.5,655.5C312.816,648.252 320.15,640.919 327.5,633.5C331.473,630.194 335.14,626.527 338.5,622.5C346.458,616.544 354.125,610.211 361.5,603.5C362.706,602.12 362.373,600.953 360.5,600C346.762,592.809 333.762,584.642 321.5,575.5C320.508,575.672 319.842,575.338 319.5,574.5C317.887,574.056 316.72,573.056 316,571.5C312.329,579.181 309.496,587.181 307.5,595.5C299.207,616.099 290.874,636.766 282.5,657.5C279.436,663.96 276.103,670.293 272.5,676.5C270.164,683.338 265.83,688.504 259.5,692C252.656,693.337 248.656,690.504 247.5,683.5C257.266,663.214 266.266,642.547 274.5,621.5C284.366,595.9 294.033,570.233 303.5,544.5L303.5,543.5C305.101,538.293 307.268,533.293 310,528.5C313.639,523.694 318.473,521.361 324.5,521.5C337.276,522.944 349.609,526.111 361.5,531C377.748,540.04 393.915,549.207 410,558.5C411.92,555.661 413.587,552.661 415,549.5C419.246,544.084 424.746,542.251 431.5,544C436.335,544.5 438.668,547.167 438.5,552C436.841,560.126 435.508,568.293 434.5,576.5C434.5,577.167 434.167,577.5 433.5,577.5C432.661,595.031 433.994,612.364 437.5,629.5L437.5,631.5C445.627,658.683 456.793,684.683 471,709.5C472.593,705.976 474.427,702.642 476.5,699.5C476.328,698.508 476.662,697.842 477.5,697.5C483.491,682.693 488.991,667.693 494,652.5C495.731,650.383 497.898,648.883 500.5,648C506.629,646.098 512.629,643.931 518.5,641.5C519.514,640.326 520.847,639.66 522.5,639.5C526.181,635.989 530.514,633.489 535.5,632C549.267,628.455 555.767,633.621 555,647.5C535.832,706.174 516.665,764.841 497.5,823.5C493.708,829.064 488.708,830.564 482.5,828C481.619,827.292 480.953,826.458 480.5,825.5C479.778,825.082 479.278,824.416 479,823.5C478.974,812.734 481.141,802.401 485.5,792.5C487.668,785.33 490.001,778.33 492.5,771.5L495.5,759.5C500.84,744.478 506.174,729.478 511.5,714.5C511.595,712.214 512.262,710.214 513.5,708.5C518.332,692.848 522.832,677.181 527,661.5C521.955,664.412 516.455,665.745 510.5,665.5C504.033,689.434 494.533,712.101 482,733.5C481.292,734.381 480.458,735.047 479.5,735.5C472.665,747.007 463.999,757.007 453.5,765.5C436.581,777.426 417.914,785.593 397.5,790C387.592,792.415 377.592,794.249 367.5,795.5L366.5,795.5C354.623,797.818 342.623,799.318 330.5,800C298.664,800.831 266.997,800.664 235.5,799.5ZM289.5,705.5C268.577,729.255 248.577,753.755 229.5,779C263.167,779.667 296.833,779.667 330.5,779C345.581,777.75 360.581,775.916 375.5,773.5C376.263,772.732 377.263,772.232 378.5,772C373.911,767.242 369.245,762.742 364.5,758.5C357.009,751.906 349.675,745.073 342.5,738C328.869,725.361 313.536,715.527 296.5,708.5C293.679,708.455 291.346,707.455 289.5,705.5ZM370.5,623.5C347.508,644.159 325.174,665.493 303.5,687.5L303.5,688.5C309.781,691.304 316.115,694.138 322.5,697C343.709,711.274 363.376,727.44 381.5,745.5C383.167,746.5 384.5,747.833 385.5,749.5C390.627,753.455 395.627,757.622 400.5,762C402.134,763.308 403.968,764.142 406,764.5C427.304,759.447 444.471,748.281 457.5,731C453.305,722.11 448.972,713.276 444.5,704.5C431.087,678.934 421.421,651.934 415.5,623.5C414.055,619.079 413.222,614.412 413,609.5C412.667,602.5 412.333,595.5 412,588.5C398.319,600.348 384.485,612.015 370.5,623.5ZM325.5,543.5C325.134,545.905 324.467,548.238 323.5,550.5C323.833,551.167 324.167,551.833 324.5,552.5C342.293,565.287 360.626,577.287 379.5,588.5C384.852,584.143 390.186,579.81 395.5,575.5C396.791,573.41 396.124,572.076 393.5,571.5C374.922,560.544 355.589,551.211 335.5,543.5C332.049,543.016 328.716,543.016 325.5,543.5Z"/>
    </g>
</svg>
