<?xml version="1.0" encoding="UTF-8" standalone="no"?>
<!DOCTYPE svg PUBLIC "-//W3C//DTD SVG 1.1//EN" "http://www.w3.org/Graphics/SVG/1.1/DTD/svg11.dtd">
<svg width="100%" height="100%" viewBox="0 0 1024 1024" version="1.1" xmlns="http://www.w3.org/2000/svg" xmlns:xlink="http://www.w3.org/1999/xlink" xml:space="preserve" xmlns:serif="http://www.serif.com/" style="fill-rule:evenodd;clip-rule:evenodd;stroke-linejoin:round;stroke-miterlimit:2;">
    <g transform="matrix(1.28699,0,0,1.28699,-124.469,-91.5994)">
        <path d="M255.5,447.5C238.51,434.879 228.676,417.879 226,396.5C225.19,385.786 225.357,375.12 226.5,364.5C183.442,363.546 140.442,363.212 97.5,363.5C96.081,359.596 96.581,355.93 99,352.5C103.167,347 108,342.167 113.5,338C131.508,324.498 151.508,314.998 173.5,309.5C192.318,303.881 211.651,302.048 231.5,304C238.379,304.542 245.212,305.375 252,306.5C259.859,298.974 268.025,291.807 276.5,285C296.547,270.737 318.88,264.737 343.5,267C387.847,272.538 421.513,294.372 444.5,332.5C445.382,331.24 446.382,330.074 447.5,329C453.677,326.081 459.344,322.414 464.5,318C498.965,298.266 533.298,278.266 567.5,258C584.271,251.532 600.605,252.366 616.5,260.5C625.359,254.572 634.359,248.906 643.5,243.5C679.265,220.108 715.265,196.942 751.5,174C770.839,164.001 790.172,164.001 809.5,174C819.641,182.109 825.808,192.609 828,205.5C828.667,219.5 828.667,233.5 828,247.5C825.911,259.29 821.411,269.957 814.5,279.5C814.344,287.529 814.677,295.529 815.5,303.5C813.923,318.732 809.423,333.065 802,346.5C773.832,394.182 744.165,440.848 713,486.5C705.001,497.328 696.834,507.994 688.5,518.5C670.56,538.645 648.56,552.478 622.5,560C698.644,600.24 774.978,640.24 851.5,680C861.997,685.748 872.33,691.748 882.5,698C894.566,709.854 895.566,722.521 885.5,736C875.463,742.133 864.796,743.133 853.5,739C841.793,734.978 830.46,730.145 819.5,724.5C766.715,703.627 714.048,682.461 661.5,661C656.404,656.752 655.237,651.585 658,645.5C661.391,642.032 665.224,641.532 669.5,644C711.47,659.994 753.136,676.494 794.5,693.5C820.934,703.549 847.267,713.883 873.5,724.5C874.599,721.641 874.099,718.974 872,716.5C869.131,713.296 865.965,710.463 862.5,708C815.971,682.901 768.971,658.568 721.5,635C683.5,614.667 645.5,594.333 607.5,574C592.376,571.686 578.543,566.186 566,557.5C565.667,556.167 565.333,554.833 565,553.5C557.688,548.722 549.855,544.889 541.5,542C534.881,537.283 533.881,531.617 538.5,525C541.702,523.517 545.036,523.183 548.5,524C559.622,529.061 570.622,534.394 581.5,540C599.835,543.794 617.835,542.46 635.5,536C640.666,533.252 645.666,530.252 650.5,527C642.626,526.257 634.959,524.59 627.5,522C606.951,511.97 589.784,497.803 576,479.5C572.591,474.807 571.925,469.807 574,464.5C578.633,460.675 583.467,460.509 588.5,464C600.77,484.636 618.437,498.303 641.5,505C651.455,506.498 661.455,506.831 671.5,506C672.833,505.333 674.167,504.667 675.5,504C685.237,491.861 694.237,479.194 702.5,466C664.731,461.759 627.731,453.759 591.5,442C587.356,440.734 583.523,438.901 580,436.5C574.721,424.556 578.554,419.389 591.5,421C627.462,432.491 664.128,440.824 701.5,446C706.864,446.829 712.198,446.663 717.5,445.5C729.127,427.076 741.127,408.909 753.5,391C699.878,397.745 646.211,404.912 592.5,412.5C588.312,413.146 585.478,411.48 584,407.5C583.209,403.074 583.543,398.741 585,394.5C586.491,392.996 588.324,392.163 590.5,392C648.749,384.075 707.082,376.742 765.5,370C777.305,353.527 786.471,335.694 793,316.5C794.627,309.865 795.793,303.198 796.5,296.5C787.739,301.878 778.406,306.211 768.5,309.5C758.042,314.558 747.376,319.391 736.5,324C688.041,341.898 640.041,360.898 592.5,381C584.915,381.416 581.249,377.749 581.5,370C580.809,364.378 583.142,360.711 588.5,359C648.387,336.65 708.053,313.817 767.5,290.5C784.656,283.676 797.323,272.009 805.5,255.5C808.037,247.962 808.704,240.295 807.5,232.5C802.809,228.789 797.476,227.622 791.5,229C727.297,265.601 662.963,301.934 598.5,338C593.004,341.916 587.337,345.582 581.5,349C568.838,348.861 565.504,343.028 571.5,331.5C572.981,330.52 574.315,329.353 575.5,328C639.671,291.413 704.005,255.08 768.5,219C781.802,210.779 796.135,208.279 811.5,211.5C810.812,202.507 806.812,195.507 799.5,190.5C789.529,185.17 779.196,184.336 768.5,188C722.686,216.324 677.019,244.824 631.5,273.5C596.91,297.472 561.91,320.972 526.5,344C498.655,364.423 470.988,385.09 443.5,406L439,410.5C415.609,463.288 375.109,486.121 317.5,479C303.007,475.51 289.84,469.343 278,460.5C278.915,489.833 288.248,516.166 306,539.5C336.707,578.988 376.54,604.655 425.5,616.5C444.537,620.084 463.537,623.084 482.5,625.5C506.453,627.664 530.453,629.164 554.5,630C567.951,631.283 581.284,633.283 594.5,636C606.559,641.065 617.893,647.399 628.5,655C652.194,667.513 675.86,680.013 699.5,692.5C726.551,707.359 754.218,721.192 782.5,734C795.469,742.642 809.469,748.976 824.5,753C829.833,758.667 829.833,764.333 824.5,770C822.256,770.906 819.923,771.406 817.5,771.5C810.799,770.433 804.466,768.266 798.5,765C764.353,747.426 730.02,730.093 695.5,713C683.448,706.979 671.782,700.479 660.5,693.5C637.7,681.266 615.033,668.766 592.5,656C579.008,652.771 565.341,650.437 551.5,649C542.959,646.22 537.959,649.22 536.5,658C537.198,661.262 538.198,664.428 539.5,667.5C543.461,668.231 546.961,669.897 550,672.5C552.702,677.82 551.535,681.987 546.5,685C537.913,687.335 530.913,685.169 525.5,678.5C524.023,680.807 522.023,682.64 519.5,684C508.827,685.969 498.161,685.969 487.5,684C484.588,682.627 481.754,681.127 479,679.5C477.833,682 476,683.833 473.5,685C464.167,685.667 454.833,685.667 445.5,685C440.715,684.294 436.215,682.794 432,680.5C431.682,682.061 430.849,683.228 429.5,684C356.5,684.667 283.5,684.667 210.5,684C207.234,681.464 205.9,678.131 206.5,674C205.611,669.56 207.278,666.56 211.5,665C260.832,664.5 310.166,664.333 359.5,664.5C380.797,664.667 402.092,664.501 423.384,664.003C423.422,663.999 423.46,663.996 423.498,663.992C421.903,656.379 422.404,648.882 425,641.5L428.5,638C403.472,632.83 380.139,623.664 358.5,610.5C295.578,574.34 261.244,520.006 255.5,447.5ZM193.5,324.5C186.778,325.68 180.111,327.18 173.5,329C162.254,333.458 150.921,337.625 139.5,341.5C165.661,342.498 191.995,342.831 218.5,342.5C223.527,342.503 228.527,342.836 233.5,343.5C234.139,337.574 236.139,332.241 239.5,327.5C233.094,326.816 226.761,325.649 220.5,324C211.465,323.252 202.465,323.419 193.5,324.5ZM253.5,339.5C249.553,349.176 246.72,359.176 245,369.5C240.705,394.054 247.205,415.221 264.5,433C273.53,437.847 282.53,442.681 291.5,447.5C299.317,451.278 307.317,454.778 315.5,458C353.225,467.369 384.059,456.869 408,426.5C414.478,415.749 419.811,404.415 424,392.5C427.985,389.007 432.318,386.007 437,383.5C437.667,379.5 437.667,375.5 437,371.5C434.912,375.924 431.745,379.424 427.5,382C393.964,401.565 358.964,404.565 322.5,391C315.817,388.374 313.65,383.541 316,376.5C317.684,373.651 320.184,372.318 323.5,372.5C337.483,375.859 351.65,377.859 366,378.5C394.163,380.365 415.663,369.532 430.5,346C426.119,337.413 420.619,329.58 414,322.5C412.333,325.833 410.667,329.167 409,332.5C385.718,360.403 356.718,369.069 322,358.5C321.043,361.022 319.543,363.189 317.5,365C306.736,369.854 298.236,367.354 292,357.5C287.305,339.535 294.139,331.369 312.5,333C317.239,334.029 320.239,336.863 321.5,341.5C327,341.833 332.5,342.167 338,342.5C366.446,345.486 387.279,334.486 400.5,309.5C398.976,307.142 396.976,305.309 394.5,304C335.863,271.402 288.863,283.236 253.5,339.5ZM481.5,645.5C469.073,642.942 456.406,641.442 443.5,641C441.686,643.479 440.019,645.979 438.5,648.5C438.242,654.561 440.242,659.728 444.5,664C453.775,665.353 463.109,665.853 472.5,665.5C474.484,666.694 476.484,666.694 478.5,665.5C476.539,658.315 477.539,651.648 481.5,645.5ZM521.5,665.5C521.251,662.998 520.917,660.498 520.5,658C521.264,654.472 521.764,650.972 522,647.5C513.912,647.846 505.745,648.012 497.5,648C496.956,648.717 496.289,649.217 495.5,649.5C491.625,654.738 491.625,659.905 495.5,665C504.16,665.5 512.827,665.666 521.5,665.5ZM592.5,272.5C584.043,273.038 576.043,275.538 568.5,280C562.34,284.58 556.007,288.914 549.5,293C515.757,310.613 483.257,330.113 452,351.5C451.288,359.289 451.955,366.955 454,374.5C499.613,337.557 547.447,303.724 597.5,273C595.866,272.506 594.199,272.34 592.5,272.5ZM393.5,521.5C396.649,521.211 399.649,521.711 402.5,523C410.446,532.279 419.112,540.946 428.5,549C453.434,566.425 481.101,576.759 511.5,580C515.414,585.159 515.081,590.159 510.5,595C503.018,597.973 495.351,598.306 487.5,596C449.483,588.592 418.316,570.092 394,540.5C390.018,536.204 388.685,531.204 390,525.5C391.032,523.973 392.199,522.64 393.5,521.5Z"/>
    </g>
</svg>
