<?xml version="1.0" encoding="UTF-8" standalone="no"?>
<!DOCTYPE svg PUBLIC "-//W3C//DTD SVG 1.1//EN" "http://www.w3.org/Graphics/SVG/1.1/DTD/svg11.dtd">
<svg width="100%" height="100%" viewBox="0 0 1024 1024" version="1.1" xmlns="http://www.w3.org/2000/svg" xmlns:xlink="http://www.w3.org/1999/xlink" xml:space="preserve" xmlns:serif="http://www.serif.com/" style="fill-rule:evenodd;clip-rule:evenodd;stroke-linejoin:round;stroke-miterlimit:2;">
    <g transform="matrix(1.32328,0,0,1.32328,-163.789,-188.783)">
        <path d="M883.5,307.5C892.28,324.444 895.446,342.444 893,361.5C890.589,374.22 887.923,386.886 885,399.5C878.728,425.033 868.395,448.7 854,470.5C835.484,496.017 810.984,513.017 780.5,521.5C782.722,564.696 768.056,600.863 736.5,630C721.137,640.358 706.637,651.858 693,664.5C687.253,671.654 682.253,679.321 678,687.5C675.703,694.688 674.036,702.022 673,709.5C673.374,729.159 673.374,748.826 673,768.5C668.667,783.005 660.501,794.838 648.5,804C602.133,840.854 556.133,878.187 510.5,916C509.5,916.667 508.5,916.667 507.5,916C502.892,909.554 497.226,904.387 490.5,900.5C480.996,890.831 470.996,881.664 460.5,873C432.2,849.188 403.534,825.854 374.5,803C367.968,796.802 361.801,790.302 356,783.5C353.015,778.522 351.015,773.189 350,767.5C349.667,748.167 349.333,728.833 349,709.5C347.986,703.739 346.652,698.073 345,692.5C338.367,676.182 328.2,662.348 314.5,651C296.112,638.777 279.779,624.277 265.5,607.5C247.32,581.871 239.32,553.204 241.5,521.5C202.182,509.029 173.016,484.362 154,447.5C142.652,421.789 134.319,395.122 129,367.5C123.247,329.368 135.081,298.034 164.5,273.5C179.708,261.65 197.041,255.317 216.5,254.5C240.843,256.012 262.176,264.679 280.5,280.5C285.076,271.681 289.909,263.014 295,254.5C328.51,206.842 373.01,173.842 428.5,155.5C468.73,142.579 509.73,139.412 551.5,146C636.008,160.552 699.675,204.719 742.5,278.5C759.918,263.712 780.085,255.712 803,254.5C839.529,257.543 866.362,275.21 883.5,307.5ZM605.5,631.5C606.894,629.049 607.728,626.382 608,623.5C609.008,613.203 607.675,603.203 604,593.5C597.327,575.816 588.327,559.483 577,544.5C566.262,531.775 554.095,530.275 540.5,540C534.157,547.041 527.824,554.041 521.5,561C510.652,566.278 501.486,564.112 494,554.5C490.894,546.395 485.394,540.561 477.5,537C466.406,531.054 456.573,532.554 448,541.5C432.228,560.706 420.894,582.373 414,606.5C412.622,613.118 412.289,619.785 413,626.5C416.558,634.443 422.391,636.61 430.5,633C442.316,626.843 453.316,619.51 463.5,611C477.079,601.21 492.079,594.71 508.5,591.5C520.828,593.22 532.494,597.054 543.5,603C557.287,611.639 570.62,620.806 583.5,630.5C587.844,632.589 592.344,634.256 597,635.5C600.436,635.365 603.269,634.031 605.5,631.5ZM728.5,305.5C722.779,290.721 715.945,276.387 708,262.5C694.938,244.768 679.771,228.935 662.5,215C607.605,176.358 546.605,160.358 479.5,167C404.363,177.284 346.529,214.117 306,277.5C296.382,293.69 290.382,311.023 288,329.5C295.87,321.961 304.037,314.794 312.5,308C353.482,275.613 398.482,268.946 447.5,288C470.769,297.96 492.435,310.46 512.5,325.5C533.422,308.036 556.756,294.703 582.5,285.5C606.332,276.659 630.666,275.159 655.5,281C686.351,290.668 712.517,307.501 734,331.5C732.82,322.768 730.986,314.101 728.5,305.5ZM562.5,645.5C564.527,645.662 566.527,645.495 568.5,645C557.328,637.915 546.328,630.581 535.5,623C527.337,618.417 518.67,615.25 509.5,613.5C502.201,615.1 495.201,617.6 488.5,621C476.437,628.022 464.77,635.522 453.5,643.5C489.833,644.167 526.167,644.833 562.5,645.5ZM760.5,393.5C751.458,434.255 732.458,469.588 703.5,499.5C683.005,518.722 658.672,527.555 630.5,526C641.966,539.148 651.466,553.648 659,569.5C662.088,576.554 663.088,583.887 662,591.5C658.43,604.963 651.097,615.963 640,624.5C638.348,657.021 625.848,684.354 602.5,706.5C597.651,711.511 592.317,716.011 586.5,720C534.409,752.293 483.076,751.293 432.5,717C401.872,693.914 385.872,663.081 384.5,624.5C381.86,624.046 379.527,622.879 377.5,621C372.667,615.5 367.833,610 363,604.5C359.529,598.254 357.363,591.588 356.5,584.5C357.219,578.738 358.386,573.071 360,567.5C367.529,552.434 377.029,538.767 388.5,526.5C383.339,526.541 378.006,526.374 372.5,526C354.485,522.992 338.485,515.658 324.5,504C265.845,447.048 248.179,379.382 271.5,301C249.98,279.559 224.646,272.892 195.5,281C170.323,293.191 155.156,313.024 150,340.5C151.164,377.154 160.164,411.821 177,444.5C192.049,469.62 213.216,487.62 240.5,498.5C241.499,482.848 241.833,467.181 241.5,451.5C235.285,450.93 229.285,449.43 223.5,447C189.296,428.731 177.463,400.898 188,363.5C195.617,344.879 209.117,333.046 228.5,328C242.806,324.973 248.306,330.473 245,344.5C237.646,347.888 230.146,351.054 222.5,354C215.019,359.447 209.853,366.613 207,375.5C202.443,410.62 217.943,429.12 253.5,431C258.216,434.387 261.383,438.887 263,444.5C263.333,479.167 263.667,513.833 264,548.5C267.501,568.83 275.834,586.83 289,602.5C303.873,615.709 319.04,628.542 334.5,641C360.123,663.687 372.456,692.187 371.5,726.5C371.033,739.172 370.866,751.839 371,764.5C372.667,767.833 374.333,771.167 376,774.5C384.072,782.116 392.238,789.616 400.5,797C437.345,827.18 474.178,857.347 511,887.5C545.574,859.458 580.074,831.291 614.5,803C625.333,793.5 636.167,784 647,774.5C649.478,771.211 651.144,767.544 652,763.5C651.637,742.173 651.637,720.84 652,699.5C654.012,687.803 658.012,676.803 664,666.5C671.143,656.695 678.976,647.528 687.5,639C704.501,627.341 720.334,614.174 735,599.5C746.97,584.942 754.303,568.276 757,549.5C757.026,513.453 757.692,477.453 759,441.5C761.677,435.264 766.177,431.098 772.5,429C778.351,428.954 784.017,427.954 789.5,426C799.637,421.529 807.137,414.362 812,404.5C821.282,375.062 811.115,356.062 781.5,347.5C779.808,345.641 778.308,343.641 777,341.5C775.184,329.326 780.35,324.826 792.5,328C820.6,337.107 835.6,356.44 837.5,386C835.515,423.149 816.182,444.649 779.5,450.5C779.333,467.17 779.5,483.837 780,500.5C792.004,494.914 803.504,488.414 814.5,481C830.425,467.335 842.592,450.835 851,431.5C859.667,409.515 866.001,386.849 870,363.5C870.793,352.131 870.46,340.798 869,329.5C854.863,289.693 827.03,272.86 785.5,279C772.343,284.032 760.343,290.865 749.5,299.5C751.638,305.378 753.471,311.378 755,317.5C757.462,331.479 759.796,345.479 762,359.5C762.923,370.925 762.423,382.259 760.5,393.5ZM540.5,487.5C519.329,488.167 497.996,488.833 476.5,489.5C471.502,496.497 467.835,504.164 465.5,512.5C477.284,514.893 487.951,519.726 497.5,527C502.072,532.269 507.072,536.602 512.5,540C523.329,524.754 537.996,515.921 556.5,513.5C553.104,506.159 549.604,498.825 546,491.5C545.125,488.785 543.292,487.452 540.5,487.5ZM589.5,664.5C583.427,666.148 577.093,666.981 570.5,667C527.5,667.667 484.5,667.667 441.5,667C432.217,665.929 423.217,663.762 414.5,660.5L413.5,661.5C429.704,692.514 455.037,711.681 489.5,719C526.219,724.29 558.885,715.457 587.5,692.5C596.234,683.373 603.234,673.039 608.5,661.5C608,661.167 607.5,660.833 607,660.5C601.243,662.231 595.41,663.565 589.5,664.5ZM557.5,320.5C544.725,329.065 532.058,337.898 519.5,347C513.294,350.543 507.294,350.209 501.5,346C480.084,327.275 455.75,313.609 428.5,305C390.772,293.525 356.772,300.192 326.5,325C301.728,345.716 290.562,372.216 293,404.5C298.507,444.028 318.007,474.528 351.5,496C364.793,504.125 379.127,507.125 394.5,505C400.459,508.902 405.959,513.402 411,518.5C414.049,522.589 414.715,526.923 413,531.5C398.2,545.628 386.533,561.961 378,580.5C377.333,582.167 377.333,583.833 378,585.5C381.49,593.316 386.157,600.316 392,606.5C394.302,589.927 399.969,574.594 409,560.5C417.172,547.486 425.839,534.82 435,522.5C442.667,506.833 450.333,491.167 458,475.5C460.832,470.006 465.332,466.839 471.5,466C496.167,465.333 520.833,465.333 545.5,466C554.562,467.396 561.062,472.23 565,480.5C571.077,493.653 577.41,506.653 584,519.5C601.727,540.941 615.894,564.607 626.5,590.5C628.381,595.316 629.548,600.316 630,605.5C636.723,598.721 640.723,590.721 642,581.5C633.33,564.157 622.663,548.157 610,533.5C607.755,530.119 607.088,526.452 608,522.5C611.833,514.667 617.667,508.833 625.5,505C651.738,506.645 674.071,498.145 692.5,479.5C723.575,446.538 734.408,407.871 725,363.5C715.413,341.911 700.247,325.411 679.5,314C648.417,297.425 616.417,295.425 583.5,308C574.659,311.922 565.992,316.088 557.5,320.5ZM396.5,349.5C427.345,347.61 453.512,357.61 475,379.5C488.272,398.503 489.938,418.503 480,439.5C474.624,446.434 467.791,451.268 459.5,454C435.899,463.527 412.233,463.86 388.5,455C372.588,447.37 362.754,434.87 359,417.5C356.193,399.536 359.526,382.869 369,367.5C376.244,358.398 385.411,352.398 396.5,349.5ZM401.5,370.5C383.574,378.68 376.407,392.68 380,412.5C381.967,425.289 389.134,433.455 401.5,437C420.92,441.859 439.587,439.859 457.5,431C460.391,428.325 462.557,425.158 464,421.5C466.336,411.183 464.669,401.516 459,392.5C442.612,378.199 423.446,370.866 401.5,370.5ZM599.5,349.5C630.682,345.57 651.515,358.237 662,387.5C666.67,408.467 662.67,427.467 650,444.5C630.166,458.872 608,464.372 583.5,461C538.795,452.092 525.295,426.592 543,384.5C552.483,369.663 565.649,359.496 582.5,354C588.253,352.314 593.919,350.814 599.5,349.5ZM601.5,370.5C591.858,373.778 582.525,377.944 573.5,383C567.188,387.642 562.354,393.476 559,400.5C553.673,415.188 557.507,426.688 570.5,435C585.198,439.81 600.198,440.81 615.5,438C628.74,435.755 637.24,428.255 641,415.5C646.469,384.136 633.302,369.136 601.5,370.5Z"/>
    </g>
</svg>
