<?xml version="1.0" encoding="UTF-8" standalone="no"?>
<!DOCTYPE svg PUBLIC "-//W3C//DTD SVG 1.1//EN" "http://www.w3.org/Graphics/SVG/1.1/DTD/svg11.dtd">
<svg width="100%" height="100%" viewBox="0 0 1024 1024" version="1.1" xmlns="http://www.w3.org/2000/svg" xmlns:xlink="http://www.w3.org/1999/xlink" xml:space="preserve" xmlns:serif="http://www.serif.com/" style="fill-rule:evenodd;clip-rule:evenodd;stroke-linejoin:round;stroke-miterlimit:2;">
    <g transform="matrix(1.41049,0,0,1.41049,-193.959,-244.261)">
        <path d="M318.5,576.5C318.796,564.118 319.296,551.785 320,539.5C308.771,531.276 298.437,521.943 289,511.5C282.043,501.754 275.21,491.921 268.5,482C253.343,473.003 237.01,467.503 219.5,465.5C188.884,467.948 170.717,484.282 165,514.5C164.333,538.833 164.333,563.167 165,587.5C167.187,606.398 173.52,623.731 184,639.5C210.905,674.54 246.405,694.373 290.5,699C282.616,689.451 275.116,679.618 268,669.5C247.751,634.339 233.084,597.006 224,557.5C220.439,539.565 219.772,521.565 222,503.5C223.833,500.333 226.333,497.833 229.5,496C238.162,494.079 243.995,497.246 247,505.5C246.916,537.748 252.249,569.082 263,599.5C273.586,628.697 288.753,655.031 308.5,678.5C317.704,690.204 328.371,700.371 340.5,709C344.287,714.376 344.453,719.876 341,725.5C337.911,728.81 334.078,730.476 329.5,730.5C310.174,728.026 290.841,725.526 271.5,723C220.892,712.066 181.892,684.899 154.5,641.5C143.849,621.9 138.349,600.9 138,578.5C137.106,554.142 137.44,529.809 139,505.5C140.863,498.708 143.03,492.041 145.5,485.5C159.408,459.266 181.075,443.932 210.5,439.5C219.213,439.248 227.88,439.748 236.5,441C244.924,443.197 253.257,445.697 261.5,448.5C257.907,419.82 263.073,392.82 277,367.5C282.514,359.989 288.014,352.489 293.5,345C285.963,335.794 278.797,326.294 272,316.5C265.658,306.146 260.658,295.146 257,283.5C255.919,262.25 266.086,252.416 287.5,254C290.167,255.333 292.833,256.667 295.5,258C301.167,264.333 306.833,270.667 312.5,277C315.328,279.248 318.328,281.248 321.5,283C335.455,288.196 349.621,292.696 364,296.5C366.465,295.349 368.965,294.349 371.5,293.5C384.344,285.749 398.011,279.582 412.5,275C434.44,268.512 456.773,264.012 479.5,261.5C519.507,259.469 558.173,265.636 595.5,280C607.951,285.643 620.451,291.143 633,296.5C651.905,292.9 670.072,287.067 687.5,279C693.874,272.294 699.874,265.294 705.5,258C718.621,250.804 730.454,252.637 741,263.5C744.356,269.757 745.356,276.424 744,283.5C739.776,297.282 733.442,309.949 725,321.5C718.697,329.299 712.53,337.133 706.5,345C712.537,354.236 718.704,363.403 725,372.5C737.732,396.296 741.898,421.463 737.5,448C747.958,444.968 758.624,442.301 769.5,440C805.956,437.062 833.956,450.895 853.5,481.5C858.194,490.255 861.36,499.589 863,509.5C863.667,532.5 863.667,555.5 863,578.5C862.869,586.297 862.036,593.964 860.5,601.5C851.014,642.645 828.347,674.312 792.5,696.5C772.426,709.109 750.76,717.942 727.5,723C710.816,725.391 694.149,727.891 677.5,730.5C671.734,730.068 668.068,727.068 666.5,721.5C665.034,713.046 668.368,706.879 676.5,703C703.436,674.972 723.103,642.472 735.5,605.5C746.906,572.498 752.406,538.498 752,503.5C757.886,494.473 765.219,493.14 774,499.5C776.416,503.301 777.916,507.301 778.5,511.5C779.456,543.374 774.122,574.04 762.5,603.5C752.612,637.441 737.279,668.607 716.5,697C717.448,697.483 718.448,697.649 719.5,697.5C722.874,697.326 726.207,696.826 729.5,696C745.376,691.326 760.376,684.826 774.5,676.5C781.432,671.354 788.432,666.188 795.5,661C812.246,647.122 823.913,629.955 830.5,609.5C831.19,604.743 832.19,600.076 833.5,595.5C834.196,591.548 834.696,587.548 835,583.5C835.5,560.169 835.667,536.836 835.5,513.5C834.011,502.222 829.511,492.222 822,483.5C820.549,481.536 818.716,480.203 816.5,479.5C811.871,474.509 806.204,471.009 799.5,469C780.622,463.983 762.288,465.649 744.5,474C738.067,476.963 732.234,480.797 727,485.5C719.085,499.491 709.585,512.325 698.5,524C690.971,529.379 683.638,534.879 676.5,540.5C685.037,587.614 676.87,631.614 652,672.5C647.667,678.833 643.333,685.167 639,691.5C634.033,695.682 628.533,696.516 622.5,694C620.19,692.363 618.69,690.196 618,687.5C617.333,683.5 617.333,679.5 618,675.5C622.174,668.484 626.841,661.817 632,655.5C650.396,621.96 656.396,586.293 650,548.5C629.573,549.659 609.073,549.826 588.5,549C581.973,544.036 579.807,537.536 582,529.5C583.167,527 585,525.167 587.5,524C603.167,523.667 618.833,523.333 634.5,523C662.837,520.255 684.337,506.755 699,482.5C713.389,455.785 716.389,427.785 708,398.5C701.151,379.986 689.484,365.319 673,354.5C671.438,347.493 672.771,341.159 677,335.5C691.779,321.43 704.113,305.764 714,288.5C707.066,298.885 697.566,305.718 685.5,309C661.802,317.726 637.468,323.893 612.5,327.5C594.823,331.438 577.156,335.938 559.5,341C549.218,345.475 539.885,351.308 531.5,358.5C521.899,368.943 514.066,380.609 508,393.5C500.932,400.576 494.598,399.909 489,391.5C481.467,374.306 469.967,360.473 454.5,350C448.288,346.727 441.954,343.727 435.5,341C418.153,336.497 400.82,331.997 383.5,327.5C377.792,326.323 372.126,324.99 366.5,323.5C342.673,319.246 320.34,311.079 299.5,299L288,287.5C297.113,305.964 309.447,322.298 325,336.5C330.87,348.585 327.703,357.419 315.5,363C286.717,393.914 279.55,429.414 294,469.5C306.291,499.134 328.125,516.967 359.5,523C376.5,523.333 393.5,523.667 410.5,524C413.409,525.406 415.409,527.572 416.5,530.5C417.958,535.221 417.458,539.887 415,544.5C413.457,546.378 411.624,547.878 409.5,549C388.927,549.826 368.427,549.659 348,548.5C345.194,563.398 344.694,578.398 346.5,593.5C349.909,624.602 362.075,651.602 383,674.5C386.573,689.562 380.74,696.395 365.5,695C359.283,689.746 354.117,683.579 350,676.5C339.917,660.003 331.75,642.67 325.5,624.5C323.356,615.591 321.69,606.591 320.5,597.5C318.779,590.747 318.112,583.747 318.5,576.5ZM473.5,288.5C452.111,290.681 431.444,295.681 411.5,303.5C410.282,304.161 408.949,304.828 407.5,305.5C422.246,309.693 436.913,314.193 451.5,319C471.067,327.111 486.733,339.944 498.5,357.5C517.365,331.203 543.032,315.203 575.5,309.5C579.035,308.948 582.368,307.782 585.5,306C549.593,291.182 512.26,285.349 473.5,288.5ZM385.5,368.5C415.175,366.691 436.675,379.025 450,405.5C458.359,433.425 451.192,456.592 428.5,475C396.219,492.529 368.719,487.029 346,458.5C330.043,427.175 335.543,400.341 362.5,378C369.731,373.541 377.398,370.374 385.5,368.5ZM388.5,396.5C369.604,401.595 361.771,413.928 365,433.5C370.596,451.415 382.763,459.248 401.5,457C420.063,451.776 428.23,439.609 426,420.5C419.781,402.802 407.281,394.802 388.5,396.5ZM393.5,412.5C402.562,413.056 406.062,417.723 404,426.5C401.045,430.277 397.212,431.443 392.5,430C385.766,423.816 386.099,417.983 393.5,412.5ZM601.5,368.5C635.769,368.217 657.602,384.55 667,417.5C669.565,453.875 653.065,476.042 617.5,484C587.467,486.068 566.634,473.235 555,445.5C545.987,410.174 558.153,385.341 591.5,371C594.991,370.262 598.325,369.429 601.5,368.5ZM603.5,396.5C595.307,398.495 588.474,402.829 583,409.5C573.059,431.468 579.225,447.302 601.5,457C628.051,459.113 640.884,446.946 640,420.5C633.833,403.651 621.667,395.651 603.5,396.5ZM603.5,413.5C612.708,411.887 616.875,415.554 616,424.5C611.825,431.275 606.492,432.275 600,427.5C597.43,421.842 598.596,417.175 603.5,413.5ZM495.5,419.5C502.251,418.295 508.085,419.962 513,424.5C515.732,428.241 518.066,432.241 520,436.5C526.519,450.382 532.853,464.382 539,478.5C548.275,487.412 548.942,497.078 541,507.5C532.585,522 523.918,536.333 515,550.5C505.294,558.494 495.627,558.494 486,550.5C479.76,539.692 473.76,528.692 468,517.5C465,513.167 462,508.833 459,504.5C455.838,499.223 454.838,493.557 456,487.5C460.174,481.154 463.841,474.488 467,467.5C472.299,455.561 477.633,443.561 483,431.5C485.769,425.895 489.936,421.895 495.5,419.5ZM499.5,456.5C499.477,458.927 498.977,461.26 498,463.5C493.931,473.208 489.764,482.874 485.5,492.5C490.901,502.061 496.068,511.728 501,521.5C505.158,511.505 509.991,501.838 515.5,492.5C509.923,480.369 504.59,468.369 499.5,456.5ZM529.5,711.5C533.615,707.778 538.282,705.112 543.5,703.5C571.167,699.116 596.167,705.283 618.5,722C643.328,745.02 646.161,770.52 627,798.5C611.885,814.318 593.385,820.818 571.5,818C555.553,815.351 540.219,810.684 525.5,804C516.323,799.463 514.156,792.629 519,783.5C528.446,775.06 536.779,765.727 544,755.5C549.669,749.788 556.503,747.955 564.5,750C572.042,753.939 574.542,760.105 572,768.5C570.905,773.091 568.738,777.091 565.5,780.5C578.408,793.388 591.574,793.722 605,781.5C611.915,771.748 612.249,761.748 606,751.5C595.007,737.418 580.507,729.751 562.5,728.5C558.37,728.699 554.37,729.533 550.5,731C544.39,736.499 537.723,737.499 530.5,734C525.649,726.647 525.316,719.147 529.5,711.5ZM468.5,708.5C475.704,713.266 478.204,719.932 476,728.5C473.166,735.666 467.999,738.166 460.5,736C442.629,726.607 425.296,727.607 408.5,739C397.331,746.172 392.164,756.339 393,769.5C398.292,785.771 409.458,792.604 426.5,790C431.833,787 437.167,784 442.5,781C435.309,775.126 432.142,767.626 433,758.5C436.649,750.495 442.816,747.661 451.5,750C455.813,751.306 459.313,753.806 462,757.5C469.053,767.578 477.053,776.912 486,785.5C489.247,792.73 487.414,798.23 480.5,802C467.588,806.958 454.588,811.625 441.5,816C413.979,823.006 391.479,815.506 374,793.5C360.569,769.374 363.069,747.04 381.5,726.5C401.252,707.639 424.918,699.805 452.5,703C458.336,703.556 463.67,705.389 468.5,708.5Z"/>
    </g>
</svg>
