<?xml version="1.0" encoding="UTF-8" standalone="no"?>
<!DOCTYPE svg PUBLIC "-//W3C//DTD SVG 1.1//EN" "http://www.w3.org/Graphics/SVG/1.1/DTD/svg11.dtd">
<svg width="100%" height="100%" viewBox="0 0 1024 1024" version="1.1" xmlns="http://www.w3.org/2000/svg" xmlns:xlink="http://www.w3.org/1999/xlink" xml:space="preserve" xmlns:serif="http://www.serif.com/" style="fill-rule:evenodd;clip-rule:evenodd;stroke-linejoin:round;stroke-miterlimit:2;">
    <g transform="matrix(1.40917,0,0,1.40917,-213.55,-271.871)">
        <path d="M249.5,231.5C293.357,228.849 329.524,244.182 358,277.5C366.517,287.861 373.517,299.195 379,311.5C383.107,320.224 384.107,329.224 382,338.5C377.854,346.371 371.688,348.537 363.5,345C361.951,343.786 360.785,342.286 360,340.5C348.722,294.555 319.889,267.055 273.5,258C245.471,255.784 222.304,265.284 204,286.5C174.217,322.867 169.217,362.534 189,405.5C206.283,433.59 231.116,451.59 263.5,459.5L270.5,445.5C242.18,432.67 224.68,411.003 218,380.5C211.868,352.511 218.701,328.345 238.5,308C261.464,291.938 285.464,290.271 310.5,303C330.842,317.518 340.675,337.352 340,362.5C339.271,367.021 337.937,371.354 336,375.5C305.822,434.523 276.155,493.857 247,553.5C242.7,566.034 242.366,578.7 246,591.5C251.495,607.973 259.162,623.307 269,637.5C275.426,646.016 282.093,654.349 289,662.5C322.725,694.47 355.892,726.97 388.5,760C405.893,776.712 426.226,788.379 449.5,795C454.143,795.83 458.81,796.497 463.5,797C498.875,798.116 534.208,797.45 569.5,795C586.434,791.807 601.767,785.141 615.5,775C622.5,769.333 629.5,763.667 636.5,758C669.57,725.316 702.737,692.816 736,660.5C749.396,645.365 761.062,629.032 771,611.5C774.987,602.536 777.987,593.203 780,583.5C781.38,571.898 780.38,560.565 777,549.5C750.378,495.258 724.045,440.925 698,386.5C686.229,360.006 689.229,335.339 707,312.5C730.032,290.823 755.532,287.657 783.5,303C800.211,314.062 810.044,329.562 813,349.5C815.318,374.203 809.652,396.869 796,417.5C785.975,431.372 772.808,440.705 756.5,445.5C758.425,449.693 760.092,454.026 761.5,458.5C812.036,449.464 842.202,419.797 852,369.5C855.504,327.637 840.338,294.471 806.5,270C781.184,255.001 755.184,253.668 728.5,266C696.777,282.733 676.61,308.566 668,343.5C659.814,349.802 653.148,348.469 648,339.5C645.731,329.876 646.731,320.543 651,311.5C672.974,262.679 710.64,236.012 764,231.5C785.351,231.839 804.851,238.006 822.5,250C875.541,291.466 890.708,343.966 868,407.5C849.03,448.968 817.196,474.301 772.5,483.5C781.078,500.989 789.911,518.323 799,535.5C807.45,552.319 809.783,569.986 806,588.5C801.981,607.561 794.648,625.228 784,641.5C773.366,658.471 760.866,673.971 746.5,688C726.966,705.703 707.966,723.869 689.5,742.5C708.765,755.681 721.099,773.681 726.5,796.5C741.318,800.595 754.651,807.428 766.5,817C780.61,831.668 786.11,849.168 783,869.5C780.85,878.163 775.35,881.663 766.5,880C762.572,878.407 760.072,875.573 759,871.5C761.469,854.539 755.969,841.039 742.5,831C737.325,827.912 731.992,825.079 726.5,822.5C726.928,835.941 726.428,849.607 725,863.5C715.872,875.939 707.872,875.273 701,861.5C700.667,842.833 700.333,824.167 700,805.5C697.065,785.954 687.731,770.287 672,758.5C653.239,779.451 631.739,796.951 607.5,811C593.164,817.334 578.164,821.001 562.5,822C525.5,822.667 488.5,822.667 451.5,822C434.087,819.532 418.087,813.532 403.5,804C384.262,790.707 366.596,775.54 350.5,758.5C336.005,770.156 327.171,785.156 324,803.5C323.667,822.833 323.333,842.167 323,861.5C317.916,873.728 310.583,875.395 301,866.5C300.027,864.608 299.36,862.608 299,860.5C298.833,847.82 298.333,835.154 297.5,822.5C284.317,826.991 274.484,835.324 268,847.5C266.274,856.826 264.607,866.16 263,875.5C257.114,882.524 250.614,883.19 243.5,877.5C242.081,875.664 240.914,873.664 240,871.5C236.718,835.22 252.218,811.053 286.5,799C290.313,797.228 294.313,796.395 298.5,796.5C300.092,782.325 305.258,769.658 314,758.5C320.199,752.636 326.032,746.469 331.5,740C311.096,719.719 290.596,699.552 270,679.5C248.373,656.178 232.039,629.511 221,599.5C217.785,586.339 216.785,573.005 218,559.5C218.926,554.721 220.259,550.054 222,545.5C231.491,524.838 241.658,504.505 252.5,484.5C238.848,479.218 225.515,473.051 212.5,466C160.873,430.159 142.04,381.326 156,319.5C168.652,279.85 194.152,252.016 232.5,236C238.41,234.926 244.077,233.426 249.5,231.5ZM743.5,319.5C736.714,321.486 730.88,325.152 726,330.5C716.217,344.706 714.551,359.706 721,375.5C728.896,391.729 737.23,407.729 746,423.5C759.506,418.753 770.172,410.42 778,398.5C784.315,385.908 787.815,372.575 788.5,358.5C785.531,331.527 770.531,318.527 743.5,319.5ZM272.5,319.5C262.48,322.098 254.646,327.765 249,336.5C240.093,352.637 239.093,369.304 246,386.5C252.709,405.048 265.542,416.715 284.5,421.5C291.141,405.743 298.641,390.41 307,375.5C310.039,369.095 312.206,362.428 313.5,355.5C311.049,330.715 297.382,318.715 272.5,319.5ZM465.5,605.5C480.48,606.528 495.48,607.195 510.5,607.5C527.832,606.75 545.165,606.583 562.5,607C581.294,611.127 592.794,622.627 597,641.5C599.735,660.396 598.735,679.063 594,697.5C582.973,722.952 563.473,736.452 535.5,738C459.036,749.195 423.203,716.362 428,639.5C432.619,619.302 445.119,607.969 465.5,605.5ZM501.5,678.5C491.163,681.134 480.663,682.8 470,683.5C464.064,684.254 458.731,682.921 454,679.5C455.269,685.492 457.602,691.159 461,696.5C472.162,708.722 485.995,713.722 502.5,711.5C502.828,700.321 502.495,689.321 501.5,678.5ZM522.5,677.5L522.5,711.5C534.66,712.678 546.327,710.845 557.5,706C566.22,698.97 572.054,690.136 575,679.5C568.912,682.468 562.412,684.135 555.5,684.5C544.113,683.771 533.113,681.438 522.5,677.5ZM466.5,630.5C457.294,633.572 453.794,639.906 456,649.5C458.934,655.808 463.934,659.142 471,659.5C478.404,657.717 485.57,655.217 492.5,652C505.833,651.333 519.167,651.333 532.5,652C538.49,654.327 544.49,656.661 550.5,659C556.695,659.995 561.861,658.162 566,653.5C572.434,643.5 570.267,636.333 559.5,632C544.005,631.892 528.505,632.059 513,632.5C497.459,632.558 481.959,631.892 466.5,630.5ZM402.5,465.5C419.664,463.83 434.164,469.163 446,481.5C455.852,494.365 464.518,508.031 472,522.5C478.25,539.866 476.25,556.199 466,571.5C444.425,590.741 424.591,611.574 406.5,634C405.552,634.483 404.552,634.649 403.5,634.5C403.14,647.378 401.307,660.045 398,672.5C395.921,676.993 393.588,681.326 391,685.5C389.85,687.754 389.516,690.087 390,692.5C407.359,720.178 431.859,738.345 463.5,747C493.5,747.667 523.5,747.667 553.5,747C590.04,741.914 617.04,723.248 634.5,691C630.272,682.708 626.439,674.208 623,665.5C621.257,655.892 619.924,646.225 619,636.5C606.909,623.079 595.575,609.079 585,594.5C579.833,590 574.667,585.5 569.5,581C551.266,564.964 546.099,545.464 554,522.5C562.594,505.918 572.761,490.418 584.5,476C596.281,466.39 609.614,463.39 624.5,467C663.784,479.285 688.284,505.452 698,545.5C699.649,563.554 694.316,579.22 682,592.5C669.458,604.708 657.291,617.208 645.5,630C646.09,645.378 648.257,660.545 652,675.5C656.438,665.364 663.938,661.864 674.5,665C677.065,667.295 678.731,670.128 679.5,673.5C678.14,678.553 675.973,683.219 673,687.5C663.274,698.625 654.274,710.292 646,722.5C622.563,751.975 592.063,769.141 554.5,774C526.833,774.667 499.167,774.667 471.5,774C433.471,769.072 402.637,751.572 379,721.5C372.667,712.167 366.333,702.833 360,693.5C357.851,685.099 361.018,680.765 369.5,680.5C370.85,670.763 372.683,661.096 375,651.5C376.151,644.167 376.818,636.834 377,629.5C371.129,620.721 364.129,613.054 356,606.5C349.235,599.411 342.901,592.078 337,584.5C329.449,573.293 326.115,560.96 327,547.5C336.466,505.54 361.633,478.207 402.5,465.5ZM405.5,492.5C387.407,498.485 373.573,509.818 364,526.5C356.669,537.831 353.669,550.164 355,563.5C358.677,570.846 363.511,577.346 369.5,583C379.714,590.047 388.047,598.881 394.5,609.5C402.182,598.813 410.349,588.48 419,578.5C427.375,570.824 435.708,563.157 444,555.5C448.017,548.379 449.35,540.713 448,532.5C442.333,523.167 436.667,513.833 431,504.5C424.908,495.625 416.408,491.625 405.5,492.5ZM393.5,518.5C414.298,519.796 423.798,530.796 422,551.5C413.346,570.374 399.846,574.874 381.5,565C370.35,553.933 368.85,541.766 377,528.5C381.93,524.037 387.43,520.704 393.5,518.5ZM394.5,529.5C392.032,531.641 390.366,534.308 389.5,537.5C390.057,543.633 393.223,547.633 399,549.5C408.398,544.804 409.898,538.304 403.5,530C400.518,529.502 397.518,529.335 394.5,529.5ZM605.5,493.5C602.896,495.6 600.396,497.933 598,500.5C592.836,510.166 587.169,519.5 581,528.5C575.905,538.59 576.571,548.256 583,557.5C591,564.833 599,572.167 607,579.5C614.644,589.312 622.477,598.978 630.5,608.5C632.667,605.5 634.833,602.5 637,599.5C647.333,590.5 657,580.833 666,570.5C668.93,565.544 670.763,560.211 671.5,554.5C668.958,542.412 664.458,531.078 658,520.5C648.559,507.4 636.059,498.567 620.5,494C615.511,493.501 610.511,493.334 605.5,493.5ZM625.5,518.5C640.812,517.237 651.646,523.571 658,537.5C658.935,558.227 649.102,569.061 628.5,570C612.707,564.922 605.54,554.089 607,537.5C610.017,527.984 616.184,521.651 625.5,518.5ZM626.5,529.5C622.276,531.959 620.776,535.626 622,540.5C623.833,543 625.667,545.5 627.5,548C632.292,550.196 636.125,549.029 639,544.5C641.339,533.782 637.173,528.782 626.5,529.5ZM497.5,308.5C541.648,306.79 583.315,315.956 622.5,336C625.929,341.13 626.429,346.63 624,352.5C622.099,356.57 618.932,358.903 614.5,359.5C596.57,351.869 578.237,345.369 559.5,340C509.717,329.493 462.05,335.493 416.5,358C408.547,358.404 403.714,354.57 402,346.5C400.555,341.277 402.055,337.11 406.5,334C435.429,320.021 465.762,311.521 497.5,308.5Z"/>
    </g>
</svg>
