<?xml version="1.0" encoding="UTF-8" standalone="no"?>
<!DOCTYPE svg PUBLIC "-//W3C//DTD SVG 1.1//EN" "http://www.w3.org/Graphics/SVG/1.1/DTD/svg11.dtd">
<svg width="100%" height="100%" viewBox="0 0 1024 1024" version="1.1" xmlns="http://www.w3.org/2000/svg" xmlns:xlink="http://www.w3.org/1999/xlink" xml:space="preserve" xmlns:serif="http://www.serif.com/" style="fill-rule:evenodd;clip-rule:evenodd;stroke-linejoin:round;stroke-miterlimit:2;">
    <g transform="matrix(1.35266,0,0,1.35266,-259.091,-175.24)">
        <path d="M759.5,578.5C749.261,572.36 746.927,564.027 752.5,553.5C758.246,544.086 766.246,541.586 776.5,546C778.706,548.037 780.706,550.203 782.5,552.5C783.167,552.5 783.5,552.833 783.5,553.5C785.594,558.499 785.927,563.499 784.5,568.5C783.609,575.058 779.942,579.058 773.5,580.5C769.935,581.787 766.268,581.787 762.5,580.5C761.29,580.068 760.29,579.401 759.5,578.5ZM242.5,865.5C238.652,843.045 244.985,824.045 261.5,808.5C265.597,802.129 270.93,797.129 277.5,793.5C285.155,786.665 293.821,781.332 303.5,777.5C312.935,772.043 323.102,768.376 334,766.5C343.216,767.379 347.716,772.546 347.5,782C347.754,787.349 345.42,790.849 340.5,792.5C333.947,796.27 326.947,799.27 319.5,801.5C302.956,809.124 288.956,820.124 277.5,834.5C275.924,837.926 274.091,841.26 272,844.5C270.228,848.313 269.395,852.313 269.5,856.5C276.563,856.788 283.563,856.288 290.5,855C304.297,850.124 317.963,844.957 331.5,839.5C331.983,830.057 334.65,821.391 339.5,813.5C344.997,802.679 351.664,792.679 359.5,783.5C369.741,770.314 379.908,770.314 390,783.5C391.932,788.194 391.932,792.861 390,797.5C384.664,802.004 379.497,806.671 374.5,811.5C372.976,815.202 370.81,818.536 368,821.5C365.597,825.635 363.763,829.968 362.5,834.5C359.784,841.112 358.451,848.112 358.5,855.5C364.845,855.938 370.512,853.938 375.5,849.5C382.631,845.767 389.631,841.767 396.5,837.5C405.435,830.572 414.102,823.238 422.5,815.5C425.5,811.833 428.833,808.5 432.5,805.5C441.569,795.77 450.236,785.77 458.5,775.5C463.948,767.545 469.615,759.712 475.5,752C478.56,750.337 481.56,750.17 484.5,751.5C486.415,751.216 488.081,751.549 489.5,752.5C496.361,753.09 503.028,754.09 509.5,755.5C523.328,756.819 537.017,758.122 550.568,759.411C550.868,759.417 551.179,759.446 551.5,759.5C570.183,759.722 588.85,759.389 607.5,758.5C623.282,756.888 638.615,753.388 653.5,748C662.383,744.057 671.05,739.89 679.5,735.5C681.86,733.147 684.527,731.147 687.5,729.5C695.161,722.84 702.828,716.173 710.5,709.5C716.836,702.158 723.169,694.824 729.5,687.5C735.179,679.462 740.846,671.462 746.5,663.5C747.669,660.489 749.336,657.822 751.5,655.5C756.081,645.997 761.414,636.997 767.5,628.5C770.929,620.631 775.596,613.631 781.5,607.5C786.573,600.453 793.24,595.119 801.5,591.5C805.691,588.542 810.358,586.542 815.5,585.5C819.675,582.779 824.341,581.446 829.5,581.5C829.1,575.171 828.767,568.838 828.5,562.5C827.09,553.55 824.424,544.883 820.5,536.5C815.861,531.526 811.195,526.526 806.5,521.5C799.166,517.331 791.499,513.998 783.5,511.5L757.5,511.5C751.669,513.46 745.669,515.127 739.5,516.5C732.836,520.165 726.17,523.832 719.5,527.5C718.395,528.6 717.062,529.267 715.5,529.5C701.934,541.622 687.267,552.289 671.5,561.5L669.5,561.5C666.017,564.237 662.017,565.903 657.5,566.5L657.5,567.5C644.529,571.788 631.196,573.788 617.5,573.5C613.678,572.646 610.344,570.979 607.5,568.5C602.299,565.737 597.299,562.737 592.5,559.5L591.5,559.5C575.834,551.839 559.834,545.173 543.5,539.5C538.089,538.919 532.756,537.919 527.5,536.5C522.193,535.67 516.859,535.003 511.5,534.5C506.331,533.619 500.998,532.952 495.5,532.5C482.967,532.128 470.633,531.128 458.5,529.5C449.434,529.629 440.434,528.962 431.5,527.5L431.5,526.5C408.051,523.906 386.051,516.739 365.5,505C361.7,503.021 358.366,500.521 355.5,497.5C353.074,495.782 350.407,495.282 347.5,496C343.939,499.63 341.272,503.797 339.5,508.5C338.833,509.5 338.167,510.5 337.5,511.5C335.321,522.748 336.654,533.414 341.5,543.5C343.361,549.917 346.694,555.25 351.5,559.5C352.644,562.447 354.311,565.113 356.5,567.5C359.854,571.521 363.521,575.188 367.5,578.5C376.048,585.714 385.382,591.714 395.5,596.5C405.844,601.392 416.511,605.058 427.5,607.5C444.112,609.739 460.112,607.573 475.5,601C484.125,595.546 490.791,588.379 495.5,579.5C496.725,572.983 499.392,567.15 503.5,562C516.62,556.195 523.953,560.362 525.5,574.5C523.452,586.923 518.452,597.923 510.5,607.5C502.501,618.01 492.168,625.343 479.5,629.5C471.321,633.041 462.655,635.208 453.5,636C441.272,636.895 429.105,636.395 417,634.5C415.833,634.833 414.667,635.167 413.5,635.5C413.058,636.739 412.391,637.739 411.5,638.5L411.5,639.5C405.526,652.419 401.193,665.753 398.5,679.5C396.656,691.245 394.49,702.912 392,714.5C387.868,719.048 382.701,720.715 376.5,719.5C363.536,713.844 350.536,708.511 337.5,703.5C331.499,701.833 325.499,700.166 319.5,698.5C316.833,697.5 314.167,696.5 311.5,695.5C304.199,694.553 296.865,693.886 289.5,693.5C286.5,693.833 283.5,694.167 280.5,694.5C278.829,697.492 276.829,700.159 274.5,702.5L274.5,703.5C272.709,709.038 272.209,714.704 273,720.5C274.039,721.71 275.206,722.71 276.5,723.5L276.5,724.5C282.777,725.576 289.11,726.243 295.5,726.5C309.483,725.418 323.483,724.751 337.5,724.5C338.167,724.5 338.5,724.833 338.5,725.5C344.73,727.916 348.063,732.583 348.5,739.5C347.626,747.206 343.293,751.373 335.5,752C317.537,753.721 299.537,754.387 281.5,754C276.375,753.135 271.375,751.802 266.5,750C263.244,748.884 260.578,747.051 258.5,744.5C246.492,734.428 241.825,721.761 244.5,706.5C245.219,698.667 247.885,691.667 252.5,685.5C255.787,677.939 261.121,672.273 268.5,668.5C271.301,666.112 274.634,664.612 278.5,664C289.593,663.105 300.593,663.771 311.5,666C330.801,670.822 349.467,677.322 367.5,685.5C369.295,680.007 370.962,674.341 372.5,668.5C374.486,656.2 378.152,644.533 383.5,633.5C384.539,630.218 385.872,627.052 387.5,624C386.167,623.667 384.833,623.333 383.5,623C378.952,619.612 374.286,616.445 369.5,613.5C363.19,609.185 357.19,604.518 351.5,599.5C338.592,589.264 328.258,576.931 320.5,562.5C316.674,556.517 313.674,550.183 311.5,543.5C309.834,532.853 309.5,522.187 310.5,511.5C312.827,497.01 318.827,484.176 328.5,473C325.964,469.966 323.63,466.8 321.5,463.5C315.159,455.816 309.159,447.816 303.5,439.5C300.91,434.651 298.576,429.651 296.5,424.5C294.473,421.78 292.807,418.78 291.5,415.5C285.937,404.377 280.937,393.044 276.5,381.5C274.62,375.198 272.953,368.864 271.5,362.5C270.09,359.05 269.424,355.384 269.5,351.5C267.298,344.616 265.631,337.616 264.5,330.5L264.5,319.5C263.339,303.672 263.172,287.672 264,271.5C264.771,266.145 265.605,260.812 266.5,255.5L267.5,255.5C267.299,249.82 268.299,244.486 270.5,239.5C272.252,232.224 274.252,224.89 276.5,217.5C276.402,215.447 277.069,213.78 278.5,212.5C279.018,209.113 279.851,205.779 281,202.5C281.697,200.416 282.864,198.749 284.5,197.5C286.613,194.07 288.28,190.403 289.5,186.5C290.98,183.479 292.313,180.312 293.5,177C293.836,175.97 294.503,175.47 295.5,175.5C298.384,170.6 301.717,165.933 305.5,161.5C307.479,159.832 309.812,159.166 312.5,159.5L319.5,159.5C323.099,161.058 326.599,163.058 330,165.5C332.287,169.66 334.121,173.994 335.5,178.5L335.5,184.5C336.684,188.461 337.684,192.461 338.5,196.5C340.565,208.093 343.565,219.426 347.5,230.5C347.833,231.833 348.167,233.167 348.5,234.5L348.5,235.5C349.022,237.219 350.022,238.552 351.5,239.5C352.678,244.19 354.178,248.856 356,253.5C360.318,260.973 364.151,268.639 367.5,276.5C372.35,284.881 377.684,292.881 383.5,300.5C384.253,302.88 385.587,304.88 387.5,306.5C388.6,307.605 389.267,308.938 389.5,310.5C397.426,320.763 406.092,330.43 415.5,339.5C415.369,340.239 415.536,340.906 416,341.5C425.312,349.645 434.145,358.311 442.5,367.5C448.135,371.801 453.468,376.467 458.5,381.5C460.434,382.11 462.101,383.11 463.5,384.5C473.908,392.916 484.574,400.916 495.5,408.5C504.13,413.809 512.464,419.475 520.5,425.5C523.89,427.523 527.223,429.523 530.5,431.5C535.132,434.143 539.465,437.143 543.5,440.5C547.392,442.062 550.725,444.395 553.5,447.5C555.483,448.471 557.483,449.471 559.5,450.5L559.5,451.5C567.449,457.115 574.782,463.448 581.5,470.5C590.865,478.698 599.365,487.698 607,497.5C611.888,503.945 615.722,510.945 618.5,518.5C622.239,526.767 625.239,535.433 627.5,544.5C628.736,543.754 630.07,543.421 631.5,543.5C634.385,543.806 637.052,543.473 639.5,542.5C643.329,541.262 647.329,540.262 651.5,539.5C654.256,537.796 657.256,536.463 660.5,535.5C664.96,533.1 669.293,530.434 673.5,527.5C678.467,523.534 683.134,519.201 687.5,514.5C688.922,513.075 690.589,512.075 692.5,511.5C693.714,510.374 694.714,509.041 695.5,507.5C695.954,503.232 696.954,499.232 698.5,495.5C699.398,490.466 701.065,485.799 703.5,481.5L703.5,479.5C711.151,465.799 718.484,451.799 725.5,437.5C729.953,425.233 731.953,412.566 731.5,399.5C729.69,388.292 726.023,377.625 720.5,367.5C714.428,357.418 708.762,347.085 703.5,336.5C699.753,332.399 696.753,327.732 694.5,322.5C683.76,306.034 673.76,289.034 664.5,271.5C663.833,271.5 663.5,271.167 663.5,270.5C660.595,265.693 657.928,260.693 655.5,255.5C649.384,244.262 644.05,232.596 639.5,220.5L639.5,219.5C636.333,211.34 633.333,203.006 630.5,194.5L630.5,193.5C629.675,190.628 628.841,187.628 628,184.5C627.617,185.056 627.117,185.389 626.5,185.5C626.125,187.698 625.458,189.698 624.5,191.5C624.007,193.806 623.674,196.139 623.5,198.5C619.848,202.808 617.515,207.808 616.5,213.5C613.548,221.07 610.881,228.737 608.5,236.5C607.756,240.119 607.423,243.785 607.5,247.5C606.105,251.591 605.272,255.924 605,260.5C604.5,269.494 604.334,278.494 604.5,287.5C605.167,289.167 605.833,290.833 606.5,292.5C606.423,296.215 606.756,299.881 607.5,303.5C608.566,309.12 610.233,314.453 612.5,319.5C613.698,322.426 614.698,325.426 615.5,328.5C620.648,338.126 626.315,347.459 632.5,356.5C639.601,363.942 647.267,370.609 655.5,376.5C662.236,380.901 667.57,386.568 671.5,393.5C672.79,394.058 673.623,395.058 674,396.5C675.759,400.009 676.926,403.675 677.5,407.5C682.733,423.843 679.9,438.843 669,452.5C667.871,454.141 666.371,455.141 664.5,455.5C656.107,463.194 646.107,467.194 634.5,467.5C620.378,469.24 607.045,466.407 594.5,459C589.005,455 583.671,450.834 578.5,446.5C571.439,438.706 565.105,430.372 559.5,421.5C558.833,419.5 558.167,417.5 557.5,415.5C552.579,406.558 549.745,396.891 549,386.5C548.523,378.822 548.69,371.155 549.5,363.5L550.5,363.5C551.135,356.592 553.135,350.259 556.5,344.5C557.123,342.289 558.123,340.289 559.5,338.5C563.713,330.952 569.046,324.285 575.5,318.5C576.794,317.71 577.961,316.71 579,315.5C579.17,311.507 579.004,307.507 578.5,303.5C577.833,299.833 577.167,296.167 576.5,292.5C575.64,282.861 575.307,273.194 575.5,263.5C576.5,258.167 577.5,252.833 578.5,247.5C579.242,237.291 581.075,227.291 584,217.5C585.716,210.426 588.216,203.759 591.5,197.5L591.5,191.5L592.5,191.5C597.48,180.926 602.48,170.26 607.5,159.5C610.647,154.071 613.981,148.738 617.5,143.5C619.317,139.199 621.65,135.199 624.5,131.5C625.492,131.672 626.158,131.338 626.5,130.5C630.875,129.087 635.209,129.254 639.5,131C643.977,131.646 646.644,134.146 647.5,138.5C648.024,140.306 648.691,141.972 649.5,143.5L649.5,149.5C652.344,157.854 654.344,166.521 655.5,175.5L655.5,176.5C658.4,186.006 661.066,195.673 663.5,205.5C666.605,211.139 668.938,217.139 670.5,223.5C671.338,223.842 671.672,224.508 671.5,225.5C673.343,227.853 674.677,230.52 675.5,233.5C679.402,240.632 682.735,247.966 685.5,255.5L686.5,255.5C688.481,259.461 690.481,263.461 692.5,267.5C693.885,268.574 695.051,269.907 696,271.5L703.5,286.5L703.5,287.5C707.953,291.034 710.953,295.701 712.5,301.5C713.401,302.29 714.068,303.29 714.5,304.5C718.831,310.862 722.831,317.529 726.5,324.5C735.16,339.2 743.494,354.2 751.5,369.5L751.5,371.5C753.806,375.085 755.139,379.085 755.5,383.5C757.809,393.895 758.809,404.562 758.5,415.5C758.435,418.428 757.768,421.095 756.5,423.5C756.514,429.799 754.847,435.466 751.5,440.5L751.5,442.5C747.702,455.58 742.369,467.914 735.5,479.5C734.496,483.008 732.829,486.174 730.5,489C731.094,489.464 731.761,489.631 732.5,489.5C735.899,486.803 739.899,485.47 744.5,485.5C746.717,484.631 749.05,484.298 751.5,484.5C752.609,483.71 753.942,483.21 755.5,483C760.167,482.833 764.833,482.667 769.5,482.5C777.057,482.357 784.39,483.024 791.5,484.5C796.59,485.263 801.257,486.93 805.5,489.5C809.327,489.752 812.66,491.085 815.5,493.5C820.481,496.278 825.147,499.778 829.5,504C830.823,504.816 831.489,505.983 831.5,507.5C834.416,509.274 836.916,511.607 839,514.5C842.048,518.605 844.548,522.939 846.5,527.5C847.338,527.842 847.672,528.508 847.5,529.5C851.514,537.237 853.514,545.57 853.5,554.5C854.241,558.172 855.407,561.839 857,565.5C859.415,568.014 861.581,570.681 863.5,573.5L863.5,574.5C866.55,576.549 868.883,579.216 870.5,582.5C873.282,585.224 876.615,586.891 880.5,587.5C883.655,588.442 886.655,589.776 889.5,591.5C892.089,592.419 894.089,594.086 895.5,596.5C896.79,597.058 897.623,598.058 898,599.5C900.605,611.547 895.938,618.88 884,621.5C882.415,620.956 880.915,620.289 879.5,619.5C873.672,616.248 867.672,613.582 861.5,611.5C853.259,609.88 844.925,609.214 836.5,609.5C832.452,609.395 828.452,609.728 824.5,610.5C821.744,612.204 818.744,613.537 815.5,614.5C809.562,619.936 803.729,625.603 798,631.5C792.89,639.397 788.056,647.397 783.5,655.5C782.258,659.655 780.258,663.322 777.5,666.5C772.494,676.521 766.494,685.854 759.5,694.5L759.5,696.5C757.273,698.607 755.273,700.94 753.5,703.5C753.068,704.71 752.401,705.71 751.5,706.5C743.69,716.476 735.357,725.976 726.5,735C725.552,735.483 724.552,735.649 723.5,735.5C722.92,737.749 721.587,739.415 719.5,740.5C715.386,744.439 711.053,748.273 706.5,752C703.941,753.777 701.274,755.277 698.5,756.5C695.01,759.411 691.344,762.078 687.5,764.5C684.833,765.5 682.167,766.5 679.5,767.5C671.808,771.402 663.808,774.736 655.5,777.5C647.821,780.374 639.821,782.374 631.5,783.5C623.752,785.441 615.752,786.607 607.5,787C589.836,787.5 572.17,787.667 554.5,787.5C549.138,787.528 543.805,787.194 538.5,786.5C522.633,785.725 506.967,783.725 491.5,780.5C489.97,781.211 488.637,782.211 487.5,783.5C482.423,791.312 477.09,798.979 471.5,806.5C468.29,810.921 464.623,814.921 460.5,818.5C460.631,819.239 460.464,819.906 460,820.5C453.577,827.428 446.744,833.762 439.5,839.5C434.293,845.763 428.293,851.096 421.5,855.5C420.71,856.401 419.71,857.068 418.5,857.5C411.868,863.486 404.535,868.486 396.5,872.5C392.899,876.08 388.565,878.414 383.5,879.5C373.244,885.645 362.244,887.479 350.5,885C347.631,883.404 344.964,881.57 342.5,879.5C339.494,877.161 336.827,874.494 334.5,871.5C320.413,876.772 306.08,881.272 291.5,885C283.219,886.287 274.886,886.787 266.5,886.5C255.384,883.05 247.384,876.05 242.5,865.5ZM322.5,416.5C326.152,422.464 329.819,428.464 333.5,434.5C336.695,439.569 340.362,444.235 344.5,448.5C345.11,449.391 345.443,450.391 345.5,451.5C355.21,461.545 365.544,470.878 376.5,479.5C384.812,483.322 393.145,487.155 401.5,491C429.597,499.611 458.176,504.111 487.234,504.5L495.5,504.5C511.897,505.047 527.897,507.38 543.5,511.5C549.613,512.481 555.613,513.981 561.5,516C568.272,518.967 574.939,521.8 581.5,524.5C584.686,525.771 588.02,526.771 591.5,527.5C589.188,522.875 586.854,518.209 584.5,513.5C576.937,503.597 568.604,494.263 559.5,485.5C550.859,479.519 542.525,473.186 534.5,466.5C532.02,465.758 529.687,464.758 527.5,463.5C524.833,461.167 522.167,458.833 519.5,456.5C516.807,455.448 514.14,454.448 511.5,453.5C499.739,445.109 487.739,436.942 475.5,429C469.764,424.481 464.097,419.981 458.5,415.5C442.991,404.999 428.658,392.999 415.5,379.5C414.167,378.5 412.833,377.5 411.5,376.5C404.833,369.167 397.833,362.167 390.5,355.5C388.885,352.55 386.885,349.884 384.5,347.5C383.89,346.609 383.557,345.609 383.5,344.5C377.159,338.323 371.326,331.656 366,324.5C363.909,321.26 362.076,317.926 360.5,314.5C354.292,307.624 349.292,299.958 345.5,291.5C341.609,285.052 338.276,278.386 335.5,271.5C331.895,266.719 329.229,261.386 327.5,255.5C324.839,249.187 322.172,242.854 319.5,236.5C316.383,227.036 314.383,217.369 313.5,207.5C312.325,207.281 311.325,207.614 310.5,208.5C309.972,210.336 309.306,212.003 308.5,213.5C305.368,224.228 302.035,234.895 298.5,245.5L298.5,247.5C298.156,253.504 296.822,259.171 294.5,264.5C294.388,269.614 293.721,274.614 292.5,279.5C291.233,292.98 291.233,306.314 292.5,319.5L292.5,329.5C293.167,331.833 293.833,334.167 294.5,336.5C294.337,338.857 294.503,341.19 295,343.5C297.543,354.287 300.376,364.953 303.5,375.5C305.539,379.266 307.205,383.266 308.5,387.5C312.672,397.178 317.339,406.511 322.5,415.5L322.5,416.5ZM596.5,351.5C595.026,350.564 594.026,349.23 593.5,347.5C592.4,346.395 591.733,345.062 591.5,343.5C590.883,343.389 590.383,343.056 590,342.5C587.22,347.062 584.72,351.728 582.5,356.5C581.5,357.833 580.5,359.167 579.5,360.5C573.129,377.387 574.795,393.387 584.5,408.5L584.5,410.5C590.93,420.097 598.93,428.264 608.5,435C617.718,439.238 627.385,440.571 637.5,439C651.339,434.022 655.672,424.522 650.5,410.5C648.757,407.25 646.423,404.416 643.5,402C639.307,398.635 635.307,395.135 631.5,391.5L630.5,391.5C625.802,388.463 621.802,384.797 618.5,380.5C609.026,372.437 601.693,362.771 596.5,351.5Z"/>
    </g>
</svg>
