<?xml version="1.0" encoding="UTF-8" standalone="no"?>
<!DOCTYPE svg PUBLIC "-//W3C//DTD SVG 1.1//EN" "http://www.w3.org/Graphics/SVG/1.1/DTD/svg11.dtd">
<svg width="100%" height="100%" viewBox="0 0 1024 1024" version="1.1" xmlns="http://www.w3.org/2000/svg" xmlns:xlink="http://www.w3.org/1999/xlink" xml:space="preserve" xmlns:serif="http://www.serif.com/" style="fill-rule:evenodd;clip-rule:evenodd;stroke-linejoin:round;stroke-miterlimit:2;">
    <g transform="matrix(1.22172,0,0,1.22172,-127.747,-105.308)">
        <path d="M518.5,328.5C519.043,328.44 519.376,328.107 519.5,327.5C514.014,326.185 508.68,326.185 503.5,327.5C494.494,327.666 485.494,327.5 476.5,327C467.147,321.973 463.314,314.139 465,303.5C467.202,295.424 471.202,288.424 477,282.5C477.667,281.833 477.667,281.167 477,280.5C461.876,290.656 445.376,294.156 427.5,291C415.058,285.075 411.892,275.909 418,263.5C425.006,252.153 432.506,241.153 440.5,230.5C411.408,229.337 382.408,230.503 353.5,234C333.136,239.016 314.803,248.016 298.5,261C323.257,268.552 348.257,275.218 373.5,281C412.575,291.075 437.408,315.575 448,354.5C451.374,375.86 451.208,397.193 447.5,418.5C439.907,449.353 425.24,476.353 403.5,499.5C384.201,518.264 361.534,531.431 335.5,539C304.693,548.049 277.86,541.549 255,519.5C248.635,508.579 251.301,501.245 263,497.5C266.012,497.726 268.845,498.559 271.5,500C286.02,512.131 302.687,516.465 321.5,513C350.619,507.512 374.453,493.345 393,470.5C421.808,432.917 429.808,391.25 417,345.5C409.712,329.546 397.878,318.379 381.5,312C345.232,303.114 309.232,293.28 273.5,282.5C234.564,299.798 195.897,317.965 157.5,337C142.414,344.844 133.747,357.177 131.5,374C131.411,376.723 132.077,379.223 133.5,381.5C165.426,392.642 197.426,403.475 229.5,414C241.689,417.087 254.023,419.42 266.5,421C284.523,421.668 302.523,422.668 320.5,424C328.94,426.374 332.107,431.874 330,440.5C328.885,445.245 326.052,448.412 321.5,450C289.443,451.7 257.777,449.034 226.5,442C201.589,434.809 177.256,426.476 153.5,417C203.725,490.894 253.558,565.061 303,639.5C316.284,659.128 331.45,677.295 348.5,694C357.218,701.052 366.218,707.719 375.5,714C385.221,719.527 395.221,724.527 405.5,729C414.098,736.65 414.764,744.983 407.5,754C392.234,755.286 376.901,755.953 361.5,756C358.339,757.413 355.339,759.08 352.5,761C346.092,766.738 340.425,773.071 335.5,780C374.167,780.667 412.833,780.667 451.5,780C459.295,779.97 466.295,777.637 472.5,773C476.117,767.68 477.284,761.846 476,755.5C473.159,747.646 469.826,739.98 466,732.5C444.055,696.267 422.388,659.934 401,623.5C399.635,609.531 405.801,604.031 419.5,607C422.667,608.833 425.167,611.333 427,614.5C447.081,648.998 467.415,683.332 488,717.5C494.97,728.772 500.303,740.772 504,753.5C506.93,780.557 495.43,798.057 469.5,806C464.833,807 460.167,808 455.5,809C409.167,809.667 362.833,809.667 316.5,809C305.365,806.261 300.531,799.094 302,787.5C311.394,763.379 326.56,743.712 347.5,728.5C326.687,711.191 308.52,691.524 293,669.5C233.275,582.107 173.942,494.44 115,406.5C97.504,374.941 102.004,346.775 128.5,322C130.5,320.667 132.5,319.333 134.5,318C177.073,296.548 220.073,275.881 263.5,256C281.738,236.877 303.071,222.21 327.5,212C341.153,207.536 355.153,204.869 369.5,204C402.144,202.001 434.811,201.001 467.5,201C478.941,203.381 483.108,210.215 480,221.5C478.667,224.167 477.333,226.833 476,229.5C468.972,239.028 462.139,248.695 455.5,258.5C470.6,253.062 485.933,247.229 501.5,241C513.932,240.099 519.765,245.932 519,258.5C515.321,268.857 510.321,278.524 504,287.5C501.928,290.971 500.428,294.638 499.5,298.5C518.831,297.587 538.164,297.087 557.5,297C565.499,300.486 569.333,306.652 569,315.5C567.861,319.112 566.194,322.446 564,325.5L520.5,363C539.263,368.441 558.263,372.774 577.5,376C583.104,382.197 583.937,389.031 580,396.5C565.424,410.413 550.258,423.58 534.5,436C551.928,440.177 569.595,442.843 587.5,444C594.128,447.091 596.628,452.257 595,459.5C591.032,471.707 587.532,484.04 584.5,496.5C598.422,498.417 612.422,499.584 626.5,500C636.92,500.026 642.254,505.193 642.5,515.5C639.782,527.756 637.449,540.089 635.5,552.5C658.739,555.821 682.072,558.321 705.5,560C711.619,562.4 714.619,566.9 714.5,573.5C712.549,584.586 710.216,595.586 707.5,606.5C718.896,606.091 730.23,606.591 741.5,608C745.857,610.185 748.69,613.685 750,618.5C747.671,635.155 745.337,651.822 743,668.5C742.167,670.667 740.667,672.167 738.5,673C726.817,674.997 719.65,670.164 717,658.5C716.333,653.5 716.333,648.5 717,643.5C717.093,640.993 717.926,638.826 719.5,637C710.532,635.47 701.532,634.136 692.5,633C678.195,629.141 673.029,619.974 677,605.5C678.404,599.126 679.904,592.793 681.5,586.5C661.903,585.467 642.569,582.634 623.5,578C612.99,574.998 606.99,568.165 605.5,557.5C607.338,547.812 609.338,538.145 611.5,528.5C598.647,528.572 585.981,527.072 573.5,524C561.173,520.849 554.506,513.016 553.5,500.5C555.216,490.02 557.55,479.687 560.5,469.5C548.351,467.837 536.351,465.337 524.5,462C512.082,457.301 504.748,448.468 502.5,435.5C503.777,427.388 507.444,420.555 513.5,415C520.833,409 528.167,403 535.5,397C521.602,393.923 508.269,389.256 495.5,383C488.945,379.445 484.112,374.279 481,367.5C479.685,361.796 481.018,356.796 485,352.5C496.324,344.669 507.491,336.669 518.5,328.5ZM707.5,208.5C716.185,206.657 722.352,209.657 726,217.5C727.859,259.075 737.526,298.742 755,336.5C767.565,363.987 782.898,389.654 801,413.5C821.299,436.134 841.966,458.467 863,480.5C887.17,508.027 906.504,538.694 921,572.5C939.559,623.302 946.225,675.635 941,729.5C937.458,751.088 934.458,772.755 932,794.5C930.377,800.952 926.21,804.285 919.5,804.5C911.057,802.552 906.223,797.219 905,788.5C904.333,785.833 904.333,783.167 905,780.5C920.05,719.099 918.716,658.099 901,597.5C890.786,567.403 876.12,539.736 857,514.5C831.444,483.938 804.777,454.272 777,425.5C737.189,372.436 711.522,313.103 700,247.5C679.677,272.024 673.01,300.024 680,331.5C684.333,339.5 688.667,347.5 693,355.5C703.829,370.488 714.162,385.821 724,401.5C741.333,431.5 758.667,461.5 776,491.5C817.421,565.604 829.754,644.27 813,727.5C808.206,734.541 802.039,736.041 794.5,732C786.74,726.389 783.907,718.889 786,709.5C793.157,686.706 795.491,663.373 793,639.5C790.502,604.508 782.502,570.841 769,538.5L748,496.5C728.333,462.5 708.667,428.5 689,394.5C679.581,379.994 669.914,365.661 660,351.5C640.466,298.817 651.3,253.65 692.5,216C697.324,212.921 702.324,210.421 707.5,208.5ZM276.5,297.5C298.937,294.966 314.77,303.966 324,324.5C328.629,349.416 319.129,366.249 295.5,375C270.651,378.665 253.817,368.832 245,345.5C241.806,325.337 249.306,310.503 267.5,301C270.662,299.973 273.662,298.806 276.5,297.5ZM281.5,324.5C278.861,326.309 276.694,328.642 275,331.5C272.251,339.586 274.751,345.419 282.5,349C287.625,350.569 291.459,349.069 294,344.5C295.944,340.682 296.611,336.682 296,332.5C293.671,325.344 288.838,322.678 281.5,324.5ZM270.5,684.5C262.212,693.054 254.379,702.054 247,711.5C234.864,728.269 222.364,744.769 209.5,761C208.167,761.667 206.833,762.333 205.5,763C199.491,763.5 193.491,763.333 187.5,762.5C183.307,762.398 179.307,763.231 175.5,765C168.912,769.124 162.912,773.958 157.5,779.5C185.161,780.667 212.827,780.833 240.5,780C241.386,778.385 242.386,776.885 243.5,775.5C258.909,756.579 273.409,736.912 287,716.5C294.876,708.724 302.876,708.724 311,716.5C313.857,724.602 312.524,731.935 307,738.5C296.422,752.657 286.088,766.99 276,781.5C268.953,790.425 261.786,799.258 254.5,808C211.559,809.65 168.559,809.984 125.5,809C114.886,806.287 110.386,799.454 112,788.5C113.08,786.004 114.414,783.67 116,781.5C123.004,774.829 129.671,767.829 136,760.5C151.951,743.943 171.451,735.11 194.5,734C210.771,713.731 226.271,692.898 241,671.5C248.849,659.859 258.182,658.525 269,667.5C272.941,672.908 273.441,678.575 270.5,684.5ZM693.5,743.5C691.776,748.394 688.443,751.894 683.5,754C653.167,754.333 622.833,754.667 592.5,755C581.107,760.225 572.441,768.391 566.5,779.5C605.161,780.5 643.828,780.833 682.5,780.5C702.869,780.913 723.203,780.413 743.5,779C754.521,776.148 759.521,768.981 758.5,757.5C756.803,744.613 750.803,734.113 740.5,726C704.812,704.378 672.312,678.544 643,648.5C637.47,641.642 631.97,634.809 626.5,628C578.49,596.321 537.324,557.488 503,511.5C485.986,488.128 474.986,462.128 470,433.5C468.902,426.615 469.569,419.949 472,413.5C478.798,407.354 485.798,407.021 493,412.5C495.918,418.463 497.251,424.796 497,431.5C501.21,453.578 509.543,473.911 522,492.5C542.577,522.086 566.411,548.919 593.5,573L638.5,606C647.667,615.833 656.833,625.667 666,635.5C676.141,644.972 686.307,654.472 696.5,664C716.558,678.39 736.892,692.39 757.5,706C772.325,717.826 781.825,732.993 786,751.5C787.196,786.632 770.362,805.798 735.5,809C676.167,809.667 616.833,809.667 557.5,809C541.378,806.208 534.545,796.708 537,780.5C544.152,758.347 557.652,741.18 577.5,729C580.101,728.08 582.768,727.413 585.5,727C618.167,726.333 650.833,726.333 683.5,727C686.738,727.232 689.238,728.732 691,731.5C692.783,735.298 693.616,739.298 693.5,743.5Z"/>
    </g>
</svg>
