<?xml version="1.0" encoding="UTF-8" standalone="no"?>
<!DOCTYPE svg PUBLIC "-//W3C//DTD SVG 1.1//EN" "http://www.w3.org/Graphics/SVG/1.1/DTD/svg11.dtd">
<svg width="100%" height="100%" viewBox="0 0 1024 1024" version="1.1" xmlns="http://www.w3.org/2000/svg" xmlns:xlink="http://www.w3.org/1999/xlink" xml:space="preserve" xmlns:serif="http://www.serif.com/" style="fill-rule:evenodd;clip-rule:evenodd;stroke-linejoin:round;stroke-miterlimit:2;">
    <g transform="matrix(1.38875,0,0,1.38875,-183.767,-167.309)">
        <path d="M319.5,542.5C290.954,532.787 272.454,513.453 264,484.5C260.286,468.885 256.786,453.218 253.5,437.5C253.696,430.806 257.029,426.639 263.5,425C279.335,424.429 294.668,426.596 309.5,431.5C332.21,435.369 353.21,443.369 372.5,455.5C379.163,459.839 385.496,464.673 391.5,470C392.167,470.667 392.833,470.667 393.5,470C398.354,465.645 403.354,461.478 408.5,457.5C408.833,456.167 409.167,454.833 409.5,453.5C408.767,447.166 408.1,440.832 407.5,434.5C400.07,431.91 394.236,427.244 390,420.5C382.779,406.606 376.612,392.273 371.5,377.5C365.655,371.492 359.322,365.992 352.5,361C334.815,346.321 323.315,327.821 318,305.5C314.633,284.341 318.966,265.008 331,247.5C338.33,239.17 345.997,231.17 354,223.5C359.049,212.764 359.716,201.764 356,190.5C352.511,182.18 348.011,174.514 342.5,167.5C331.111,155.288 317.111,148.122 300.5,146C290.816,145.589 281.149,145.589 271.5,146C263.938,138.622 263.605,130.955 270.5,123C280.698,120.008 291.031,119.675 301.5,122C312.208,123.336 322.208,126.503 331.5,131.5C352.897,142.068 368.397,158.401 378,180.5C383.606,197.724 383.94,215.057 379,232.5C375.452,238.263 372.452,244.263 370,250.5C367.357,267.033 370.357,282.366 379,296.5C386.403,304.676 394.237,312.342 402.5,319.5C418.565,330.564 431.899,344.231 442.5,360.5C447.832,367.821 452.165,375.821 455.5,384.5C461.349,399.223 465.349,414.556 467.5,430.5C486.555,425.623 505.555,425.29 524.5,429.5C527.86,429.616 531.193,429.949 534.5,430.5C535.256,397.669 546.089,368.669 567,343.5C569.703,340.629 572.536,337.962 575.5,335.5C589.249,324.196 602.749,312.529 616,300.5C629.764,285.065 634.431,267.065 630,246.5C621.564,237.873 616.564,227.54 615,215.5C612.429,199.127 615.262,183.793 623.5,169.5C629.016,158.981 636.683,150.314 646.5,143.5C653.712,136.395 662.046,131.062 671.5,127.5C687.694,121.89 704.361,119.724 721.5,121C724.522,121.098 727.189,121.932 729.5,123.5C735.75,127.018 737.916,132.351 736,139.5C733.52,144.824 729.354,147.157 723.5,146.5C691.221,140.398 665.721,150.731 647,177.5C637.411,192.163 636.078,207.496 643,223.5C651.944,231.442 660.61,239.775 669,248.5C672.959,254.084 676.125,260.084 678.5,266.5C683.702,278.378 685.202,290.711 683,303.5C681.46,309.951 679.626,316.284 677.5,322.5C675.5,325.833 673.5,329.167 671.5,332.5C669.261,336.64 666.761,340.64 664,344.5C656.265,352.738 648.099,360.405 639.5,367.5C635.606,370.371 631.773,373.371 628,376.5C627.392,378.154 626.892,379.821 626.5,381.5C621.875,392.75 616.708,403.75 611,414.5C607.019,419.316 602.852,423.982 598.5,428.5C596.513,430.327 594.179,431.327 591.5,431.5L591.5,458.5C594.37,459.433 596.704,461.1 598.5,463.5C601.245,464.737 603.578,466.57 605.5,469C606.5,469.667 607.5,469.667 608.5,469C614.351,464.572 620.017,459.906 625.5,455C629.787,451.691 634.453,449.191 639.5,447.5C647.947,442.616 656.947,438.783 666.5,436C686.907,429.986 707.741,426.152 729,424.5C734.291,424.011 739.124,425.011 743.5,427.5C745.129,428.625 746.629,429.959 748,431.5C748.812,435.689 748.645,439.689 747.5,443.5C744.124,462.546 739.291,481.212 733,499.5C728.466,510.924 721.299,520.257 711.5,527.5C703.978,533.432 695.645,538.099 686.5,541.5C671.514,546.166 656.181,549.166 640.5,550.5C642,572.842 641.667,595.175 639.5,617.5C637.317,641.566 631.983,664.9 623.5,687.5C621.686,693.78 619.352,699.78 616.5,705.5C613.868,713.43 610.202,720.763 605.5,727.5C604.692,730.45 603.358,733.117 601.5,735.5C597.917,740.931 594.084,746.265 590,751.5C591.018,780.104 583.018,805.771 566,828.5C539.554,855.987 508.054,864.153 471.5,853C445.692,843.192 427.859,825.359 418,799.5C416.273,796.382 415.439,793.049 415.5,789.5C411.737,776.23 409.904,762.564 410,748.5C393.631,729.444 381.631,707.777 374,683.5C359.155,640.08 352.989,595.413 355.5,549.5C347.042,549.309 338.709,548.142 330.5,546C328.509,545.626 326.842,544.793 325.5,543.5C323.435,543.483 321.435,543.15 319.5,542.5ZM303.5,453.5C295.848,452.42 288.348,450.754 281,448.5C282.347,457.897 284.347,467.23 287,476.5C290.759,491.059 298.592,502.726 310.5,511.5C311.167,511.5 311.5,511.833 311.5,512.5C326.697,519.898 342.697,524.898 359.5,527.5C360.327,523.541 360.827,519.541 361,515.5C362.873,513.291 365.04,511.458 367.5,510C375.38,507.526 380.88,510.026 384,517.5C384.554,523.188 384.387,528.855 383.5,534.5C382.406,541.32 381.573,548.32 381,555.5C380.333,573.833 380.333,592.167 381,610.5C382.012,619.933 383.512,629.266 385.5,638.5C390.153,657.96 396.32,676.96 404,695.5C404.697,697.584 405.864,699.251 407.5,700.5C410.571,709.319 415.238,716.819 421.5,723C422.163,721.482 423.163,720.315 424.5,719.5C426.833,716.167 429.167,712.833 431.5,709.5C451,678.935 457.833,645.602 452,609.5C450.099,589.524 443.765,571.191 433,554.5C425.086,546.05 416.086,539.05 406,533.5C405,531.833 404,530.167 403,528.5C400.044,514.544 405.544,508.711 419.5,511C427.498,514.827 434.165,520.327 439.5,527.5C450.962,537.747 459.462,550.08 465,564.5C489.928,630.483 480.095,690.483 435.5,744.5C433.211,759.837 434.711,774.837 440,789.5C447.711,811.716 462.878,825.716 485.5,831.5C499.664,834.487 513.664,833.32 527.5,828C533.209,825.76 538.209,822.593 542.5,818.5C546.669,815.216 550.169,811.216 553,806.5C563.47,787.485 567.803,767.151 566,745.5C554.921,730.347 544.588,714.681 535,698.5C519.694,662.42 516.527,625.42 525.5,587.5C528.752,570.738 534.752,555.072 543.5,540.5C547.183,536.975 550.35,532.975 553,528.5C559.337,520.822 566.837,514.655 575.5,510C581.985,508.09 586.985,509.923 590.5,515.5C591.766,519.468 591.766,523.468 590.5,527.5C584.876,533.303 578.876,538.636 572.5,543.5C571.206,544.29 570.039,545.29 569,546.5C565.312,551.218 562.145,556.218 559.5,561.5C552.377,576.978 547.877,593.311 546,610.5C542.516,635.63 545.516,659.963 555,683.5C557.785,688.735 560.285,694.068 562.5,699.5C568.233,707.943 574.233,716.276 580.5,724.5C593.603,703.076 602.603,680.076 607.5,655.5C609.285,650.373 610.785,645.04 612,639.5C617.538,609.39 619.038,579.057 616.5,548.5C614.585,539.181 612.918,529.681 611.5,520C611.7,515.602 613.7,512.268 617.5,510C631.496,506.843 638.496,512.343 638.5,526.5C649.689,525.392 660.689,523.225 671.5,520C676.521,518.76 681.188,516.926 685.5,514.5C692.504,511.999 698.504,507.999 703.5,502.5L703.5,501.5C711.785,487.986 717.118,473.319 719.5,457.5C719.986,454.618 719.986,451.952 719.5,449.5C691.251,451.919 664.584,459.586 639.5,472.5C636.264,475.797 632.597,478.63 628.5,481C625.323,484.01 622.323,487.176 619.5,490.5C614.178,493.11 608.511,494.11 602.5,493.5C598.067,492.786 594.4,490.786 591.5,487.5C579.011,478.68 566.011,470.68 552.5,463.5C541.701,457.122 530.034,453.122 517.5,451.5C516.508,451.672 515.842,451.338 515.5,450.5C493.702,448.189 472.702,451.189 452.5,459.5C435.09,467.403 419.09,477.57 404.5,490C396.336,494.263 388.003,494.597 379.5,491C365.004,476.078 347.67,465.745 327.5,460C319.487,457.83 311.487,455.664 303.5,453.5ZM353.5,297.5C348.837,288.166 346.67,278.166 347,267.5C341.935,280.547 341.269,293.88 345,307.5C350.551,323.727 360.051,337.227 373.5,348C385.254,356.75 396.421,366.25 407,376.5C410.107,381.056 412.94,385.723 415.5,390.5C425.102,407.483 430.602,425.816 432,445.5C435.328,442.667 438.995,440.334 443,438.5C442.782,425.195 440.616,412.195 436.5,399.5C433.994,394.001 431.661,388.335 429.5,382.5C424.251,374.736 418.751,367.069 413,359.5C397.369,346.204 382.036,332.538 367,318.5C361.067,312.405 356.567,305.405 353.5,297.5ZM611.5,336.5C593.919,347.746 580.586,362.746 571.5,381.5C561.834,399.495 556.834,418.828 556.5,439.5C560.522,440.343 564.188,442.01 567.5,444.5C569.855,412.46 582.855,385.794 606.5,364.5C618.735,354.439 630.569,343.772 642,332.5C645.677,328.454 648.844,324.121 651.5,319.5C652.167,317.5 652.833,315.5 653.5,313.5C656.785,307.169 658.118,300.336 657.5,293C657.613,285.686 656.78,278.52 655,271.5C653.2,288.431 646.533,303.097 635,315.5C628.556,322.785 621.389,329.119 613.5,334.5C613.167,335.5 612.5,336.167 611.5,336.5ZM481.5,800.5C498.115,809.859 513.449,808.025 527.5,795C529.768,793.448 532.268,792.615 535,792.5C542.75,793.442 545.584,797.775 543.5,805.5C542.295,808.234 540.795,810.901 539,813.5C524.613,827.558 507.446,832.892 487.5,829.5C480.971,826.564 474.638,823.064 468.5,819C460.748,813.002 457.248,805.169 458,795.5C458.903,794.299 460.069,793.465 461.5,793C468.879,791.53 474.879,793.696 479.5,799.5C480.167,799.833 480.833,800.167 481.5,800.5ZM572.5,603.5L571.5,603.5C571.013,602.527 570.513,601.527 570,600.5C569.333,592.167 569.333,583.833 570,575.5C570.985,568.03 574.818,562.696 581.5,559.5C584.116,558.948 586.783,558.614 589.5,558.5C597.154,557.357 602.321,560.357 605,567.5C605.667,578.167 605.667,588.833 605,599.5C603.727,602.597 601.893,605.264 599.5,607.5C593.101,610.201 586.434,611.035 579.5,610C576.247,608.726 573.914,606.56 572.5,603.5ZM540.5,724.5C542.163,726.493 543.33,728.826 544,731.5C546.629,755.516 536.463,771.016 513.5,778C491.465,782.064 474.631,774.564 463,755.5C454.522,725.629 465.355,706.795 495.5,699C504.57,698.234 513.237,699.734 521.5,703.5C530.679,708.008 537.012,715.008 540.5,724.5ZM498.5,721.5C495.1,723.037 491.767,724.87 488.5,727C483.979,731.623 482.479,737.123 484,743.5C488.547,753.023 496.047,757.189 506.5,756C516.407,752.667 521.24,745.833 521,735.5C517.304,725.007 509.804,720.341 498.5,721.5ZM393.5,601.5C390.989,589.464 390.989,577.464 393.5,565.5C394.596,563.897 395.93,562.397 397.5,561C406.096,557.492 414.429,558.158 422.5,563C428.241,570.682 430.574,579.349 429.5,589C431.493,597.663 428.826,604.33 421.5,609C410.24,612.92 400.907,610.42 393.5,601.5Z"/>
    </g>
</svg>
