<?xml version="1.0" encoding="UTF-8" standalone="no"?>
<!DOCTYPE svg PUBLIC "-//W3C//DTD SVG 1.1//EN" "http://www.w3.org/Graphics/SVG/1.1/DTD/svg11.dtd">
<svg width="100%" height="100%" viewBox="0 0 1024 1024" version="1.1" xmlns="http://www.w3.org/2000/svg" xmlns:xlink="http://www.w3.org/1999/xlink" xml:space="preserve" xmlns:serif="http://www.serif.com/" style="fill-rule:evenodd;clip-rule:evenodd;stroke-linejoin:round;stroke-miterlimit:2;">
    <g transform="matrix(1.29813,0,0,1.29813,-186.276,-165.926)">
        <path d="M231.5,743.5C230.778,743.082 230.278,742.416 230,741.5C229.5,721.836 229.333,702.169 229.5,682.5C200.637,670.812 178.803,651.145 164,623.5C143.922,582.736 138.589,540.069 148,495.5C158.996,455.847 179.829,422.347 210.5,395C242.447,365.68 279.114,344.013 320.5,330C331.908,326.385 343.575,324.052 355.5,323C397.167,322.333 438.833,322.333 480.5,323C489.109,328.004 489.775,334.004 482.5,341C479.956,342.092 477.289,342.759 474.5,343C434.167,343.333 393.833,343.667 353.5,344C325.659,348.256 299.659,357.59 275.5,372C237.144,394.022 206.311,423.855 183,461.5C157.444,512.636 157.111,563.969 182,615.5C194.135,637.303 211.635,653.136 234.5,663C239.03,664.632 243.696,665.632 248.5,666C249.252,666.671 249.586,667.504 249.5,668.5L249.5,727.5L336.5,727.5L336.5,615.5C336.334,607.493 336.5,599.493 337,591.5C339.963,585.439 344.797,583.272 351.5,585C354,586.167 355.833,588 357,590.5C356.547,635.814 356.381,681.147 356.5,726.5L569.5,726.5C569.333,701.498 569.5,676.498 570,651.5C573.84,644.195 579.34,642.695 586.5,647C587.701,647.903 588.535,649.069 589,650.5C589.167,676.173 589.667,701.84 590.5,727.5C613.121,726.511 635.788,726.177 658.5,726.5L658.5,666.5C656.809,663.355 656.309,660.021 657,656.5C665.826,652.504 671.659,645.838 674.5,636.5C626.556,629.683 583.889,611.183 546.5,581C493.497,532.842 477.997,474.342 500,405.5C510.273,370.469 528.107,340.135 553.5,314.5C546.276,294.227 550.61,276.727 566.5,262C587.478,250.997 605.978,254.163 622,271.5C626.151,276.799 628.318,282.799 628.5,289.5C657.921,285.142 687.254,285.809 716.5,291.5C718.347,276.667 726.014,265.834 739.5,259C762.195,250.236 780.362,255.736 794,275.5C801.36,289.96 801.027,304.293 793,318.5C792.097,319.701 790.931,320.535 789.5,321C784.096,321.772 778.762,321.439 773.5,320C771.586,318.587 770.253,316.753 769.5,314.5C779.358,304.884 780.858,294.218 774,282.5C767.855,275.912 760.355,273.745 751.5,276C743.513,278.779 738.346,284.279 736,292.5C735.7,298.186 735.7,303.853 736,309.5C734.421,311.041 732.587,312.208 730.5,313C708.23,310.511 685.897,308.344 663.5,306.5C654.416,306.427 645.416,307.261 636.5,309C629.76,311.248 622.927,313.081 616,314.5C612.8,314.853 610.133,313.853 608,311.5C608.414,306.324 609.247,301.157 610.5,296C606.461,277.649 595.794,271.982 578.5,279C568.007,289.952 567.84,301.119 578,312.5C579.691,319.815 576.858,324.315 569.5,326C565.033,331.468 560.2,336.635 555,341.5C551.918,345.734 549.084,350.067 546.5,354.5C529.308,381.051 517.975,410.051 512.5,441.5C505.606,491.327 520.939,532.827 558.5,566C581.877,584.358 607.877,598.025 636.5,607C685.619,620.446 735.619,627.446 786.5,628C807.173,626.801 826.839,621.801 845.5,613C872.232,598.148 886.899,575.648 889.5,545.5C886.891,546.23 884.224,546.73 881.5,547C814.763,547.829 748.096,547.663 681.5,546.5C659.334,545.333 641.167,536.333 627,519.5C623.649,514.043 623.815,508.876 627.5,504C632.256,501.737 636.589,502.403 640.5,506C650.655,516.579 662.988,523.246 677.5,526C745.5,526.667 813.5,526.667 881.5,526C886.919,525.145 892.252,523.978 897.5,522.5C904.907,518.393 909.407,512.059 911,503.5C913.659,458.306 898.159,420.473 864.5,390C828.51,357.556 786.177,342.556 737.5,345C710.543,350.561 688.043,363.728 670,384.5C650.567,407.361 636.901,433.361 629,462.5C623.292,468.715 617.292,469.048 611,463.5C610.125,462.127 609.625,460.627 609.5,459C621.912,403.948 652.578,362.615 701.5,335C730.596,322.293 760.596,319.959 791.5,328C838.781,341.652 876.948,368.152 906,407.5C909.179,413.194 912.345,418.861 915.5,424.5C928.257,448.203 933.757,473.536 932,500.5C930.214,515.922 923.214,528.255 911,537.5C909.858,579.585 891.025,610.752 854.5,631C847.41,634.216 840.41,637.383 833.5,640.5C794.439,649.76 755.106,650.927 715.5,644C708.875,642.9 702.375,641.4 696,639.5C694.129,646.245 690.962,652.245 686.5,657.5C684.205,660.297 681.705,662.964 679,665.5C678.667,691.5 678.333,717.5 678,743.5C676.591,744.781 675.091,745.781 673.5,746.5L235.5,746.5C233.77,745.974 232.436,744.974 231.5,743.5ZM625.5,348.5C642.12,346.022 650.62,353.022 651,369.5C645.956,385.273 635.789,390.106 620.5,384C613.507,376.694 611.674,368.194 615,358.5C617.081,353.584 620.581,350.25 625.5,348.5ZM727.5,392.5C741.811,389.912 752.977,394.578 761,406.5C769.84,430.32 762.006,445.82 737.5,453C728.684,454.445 720.351,453.112 712.5,449C707.709,445.258 705.876,440.424 707,434.5C709.633,429.268 713.799,427.435 719.5,429C724.136,430.601 728.802,432.101 733.5,433.5C742.165,431.061 745.331,425.395 743,416.5C739.257,412.741 734.757,411.574 729.5,413C725.551,419.097 720.717,419.93 715,415.5C712.351,404.132 716.517,396.465 727.5,392.5ZM827.5,393.5C838.488,391.258 847.654,394.258 855,402.5C858.418,408.067 857.918,413.234 853.5,418C850.833,418.667 848.167,418.667 845.5,418C840.755,411.792 835.255,410.959 829,415.5C823.497,425.343 826.33,431.343 837.5,433.5C842.208,432.097 846.875,430.597 851.5,429C859.16,426.994 863.827,429.827 865.5,437.5C863.105,446.722 857.105,451.888 847.5,453C826.723,456.53 812.89,448.363 806,428.5C804.064,411.009 811.23,399.342 827.5,393.5ZM399.5,767.5C407.644,769.776 410.644,775.109 408.5,783.5C406.954,786.2 404.621,788.033 401.5,789C340.833,789.667 280.167,789.667 219.5,789C215.594,788.027 213.427,785.527 213,781.5C210.724,774.708 212.89,770.208 219.5,768C279.499,767.5 339.499,767.333 399.5,767.5Z"/>
    </g>
</svg>
