<?xml version="1.0" encoding="UTF-8" standalone="no"?>
<!DOCTYPE svg PUBLIC "-//W3C//DTD SVG 1.1//EN" "http://www.w3.org/Graphics/SVG/1.1/DTD/svg11.dtd">
<svg width="100%" height="100%" viewBox="0 0 1024 1024" version="1.1" xmlns="http://www.w3.org/2000/svg" xmlns:xlink="http://www.w3.org/1999/xlink" xml:space="preserve" xmlns:serif="http://www.serif.com/" style="fill-rule:evenodd;clip-rule:evenodd;stroke-linejoin:round;stroke-miterlimit:2;">
    <g transform="matrix(1.43727,0,0,1.43727,-224.934,-222.503)">
        <path d="M651.5,727.5C659.142,689.191 659.309,650.857 652,612.5C627.461,514.98 564.961,461.48 464.5,452C416.976,445.487 370.643,450.154 325.5,466C309.868,472.98 295.868,482.313 283.5,494C274.836,503.664 265.836,512.997 256.5,522C247.535,527.876 240.702,526.043 236,516.5C235.254,511.546 235.754,506.713 237.5,502C237.355,501.228 237.022,500.561 236.5,500C210.59,485.798 185.09,470.964 160,455.5C155.174,448.469 155.34,441.636 160.5,435C166.641,431.634 172.641,431.968 178.5,436C204.134,451.487 229.801,466.987 255.5,482.5C261.515,476.936 267.182,471.103 272.5,465C239.902,415.733 205.735,367.566 170,320.5C169.275,318.051 168.275,315.717 167,313.5C166.015,301.486 171.515,296.32 183.5,298C186.249,299.123 188.749,300.623 191,302.5C226.289,351.579 261.456,400.745 296.5,450C304.508,446.498 312.508,442.665 320.5,438.5C301.817,393.949 282.65,349.616 263,305.5C261.153,290.688 267.653,284.855 282.5,288C284.624,289.122 286.457,290.622 288,292.5C307.667,339.167 327.333,385.833 347,432.5C358.322,429.268 369.822,426.601 381.5,424.5C367.49,367.947 352.656,311.614 337,255.5C337.857,239.966 345.357,235.799 359.5,243C361.652,245.469 363.152,248.302 364,251.5C380.383,308.141 395.217,365.141 408.5,422.5L441.5,422.5C432.929,373.644 425.262,324.644 418.5,275.5C419.099,267.734 423.266,263.401 431,262.5C438.349,262.258 443.016,265.591 445,272.5C453.254,323.446 461.087,374.446 468.5,425.5C482.103,427.027 495.437,429.361 508.5,432.5L509.5,432.5C509.333,376.832 509.5,321.166 510,265.5C515.858,253.308 524.191,251.308 535,259.5C536.009,261.025 536.509,262.692 536.5,264.5C537.329,323.096 537.829,381.763 538,440.5C538.671,441.252 539.504,441.586 540.5,441.5C548.613,445.261 556.779,448.928 565,452.5C573.845,424.12 582.845,395.786 592,367.5C600.309,338.932 608.309,310.266 616,281.5C618.183,275.306 622.517,272.306 629,272.5C638.023,272.523 642.856,277.023 643.5,286C643.259,289.207 642.759,292.374 642,295.5C625.289,352.689 608.122,409.689 590.5,466.5C597.201,473.203 604.201,479.536 611.5,485.5C642.573,423.686 673.907,362.02 705.5,300.5C710.207,295.769 715.874,294.269 722.5,296C731.582,299.745 733.748,305.912 729,314.5C724.062,325.373 718.896,336.039 713.5,346.5C685.492,399.181 658.492,452.514 632.5,506.5C633.709,508.941 635.376,510.941 637.5,512.5C639.573,516.308 641.906,519.974 644.5,523.5C679.129,471.037 713.962,418.703 749,366.5C753.333,359.167 757.667,351.833 762,344.5C767.841,335.219 775.674,333.052 785.5,338C786.381,338.708 787.047,339.542 787.5,340.5C789.07,342.529 790.07,344.862 790.5,347.5C788.472,353.888 785.639,359.888 782,365.5C741.667,426.833 701.333,488.167 661,549.5C661.14,553.807 662.474,557.807 665,561.5C682.977,542.022 701.144,522.688 719.5,503.5C754.212,466.286 789.878,429.786 826.5,394C837.919,388.93 844.919,392.597 847.5,405C847.136,407.921 846.469,410.754 845.5,413.5C787.797,470.703 731.631,529.369 677,589.5C676.219,590.729 675.719,592.062 675.5,593.5C677.186,602.242 679.186,610.909 681.5,619.5C712.863,590.802 744.53,562.469 776.5,534.5C794.644,519.198 812.977,504.031 831.5,489C837.799,484.244 843.966,484.411 850,489.5C852.876,495.353 853.21,501.353 851,507.5C795.253,554.222 740.253,601.889 686,650.5C685.169,657.856 685.335,665.189 686.5,672.5C741.791,646.57 797.124,620.737 852.5,595C867.268,594.688 872.102,601.521 867,615.5C861.747,619.88 855.914,623.38 849.5,626C795.744,650.71 742.077,675.71 688.5,701C686.866,701.494 685.199,701.66 683.5,701.5C683.052,708.19 682.385,714.857 681.5,721.5C736.353,713.146 791.353,705.812 846.5,699.5C861.385,700.259 865.885,707.592 860,721.5C858.681,723.487 856.848,724.654 854.5,725C793.353,734.331 732.02,742.164 670.5,748.5C667.404,753.051 663.071,755.551 657.5,756C578.853,757.47 500.187,757.97 421.5,757.5C417.562,767.945 410.562,775.779 400.5,781C382.205,782.584 363.872,782.918 345.5,782C342.098,780.6 339.264,778.433 337,775.5L328,760.5C323.918,756.924 320.418,752.924 317.5,748.5C310.632,741.465 303.299,734.965 295.5,729C279.468,719.986 263.468,710.986 247.5,702C215.461,679.801 193.127,650.301 180.5,613.5C173.036,595.666 169.87,576.999 171,557.5C171.619,550.947 174.785,546.114 180.5,543C197.735,542.413 214.402,545.247 230.5,551.5C230.988,542.018 234.988,534.518 242.5,529C251.416,524.336 258.583,526.169 264,534.5C308.327,491.606 361.494,471.772 423.5,475C440.437,476.883 454.27,484.383 465,497.5C470.704,507.036 472.038,517.036 469,527.5C462.636,537.217 454.636,538.884 445,532.5C440.663,527.195 440.496,521.861 444.5,516.5C438.133,506.143 428.799,500.643 416.5,500C363.964,500.39 318.63,518.39 280.5,554C272.08,562.083 264.08,570.416 256.5,579C248.873,580.729 241.206,580.729 233.5,579C221.472,576.825 209.805,573.325 198.5,568.5C200.986,597.616 210.986,623.949 228.5,647.5C232.455,652.627 236.622,657.627 241,662.5C246.167,667 251.333,671.5 256.5,676C277.494,687.495 298.161,699.495 318.5,712L332,725.5C333.903,727.441 334.736,729.774 334.5,732.5C339.746,730.935 344.413,732.102 348.5,736C352.919,742.006 356.419,748.506 359,755.5C360.011,756.337 361.178,756.67 362.5,756.5C363.153,740.843 363.653,725.176 364,709.5C368.011,701.622 374.177,699.455 382.5,703C386.934,705.103 389.434,708.603 390,713.5C390.158,727.532 390.824,741.532 392,755.5C394.765,747.464 398.931,740.297 404.5,734C408.631,730.923 413.298,729.756 418.5,730.5C496.211,730.161 573.878,729.161 651.5,727.5ZM500.5,497.5C505.327,497.941 509.993,499.107 514.5,501C523.99,505.123 533.656,508.79 543.5,512C548.571,518.269 548.737,524.769 544,531.5C540.406,534.698 536.239,535.865 531.5,535C519.787,531.651 508.454,527.318 497.5,522C491.947,517.382 490.114,511.549 492,504.5C493.851,500.843 496.684,498.51 500.5,497.5ZM580.5,517.5C585.121,516.993 589.454,517.826 593.5,520C600.224,525.482 605.224,532.148 608.5,540C604.942,553.446 596.942,557.113 584.5,551C576.365,543.596 573.198,534.429 575,523.5C576.36,520.977 578.193,518.977 580.5,517.5ZM349.5,537.5C369.985,535.513 383.485,544.18 390,563.5C391.613,587.606 380.447,601.273 356.5,604.5C334.05,600.597 323.216,587.264 324,564.5C327.564,550.771 336.064,541.771 349.5,537.5ZM356.5,562.5C355.152,563.601 353.652,564.601 352,565.5C349.102,568.201 348.768,571.201 351,574.5C357.832,580.728 361.998,579.228 363.5,570C363.732,565.067 361.399,562.567 356.5,562.5ZM489.5,562.5C494.405,562.429 498.572,564.096 502,567.5C505.53,576.423 508.863,585.423 512,594.5C514.277,608.5 508.444,615 494.5,614C492.714,613.215 491.214,612.049 490,610.5C486.586,601.346 482.919,592.346 479,583.5C475.103,572.626 478.603,565.626 489.5,562.5ZM601.5,571.5C608.654,570.157 613.487,572.823 616,579.5C615.261,587.236 615.594,594.903 617,602.5C614.642,610.192 609.475,613.025 601.5,611C595.836,608.668 592.336,604.501 591,598.5C588.345,589.818 589.845,581.984 595.5,575C597.432,573.541 599.432,572.375 601.5,571.5ZM536.5,565.5C544.701,563.4 550.534,566.066 554,573.5C556.948,581.554 559.448,589.721 561.5,598C559.784,609.357 553.45,613.357 542.5,610C538.58,606.688 535.747,602.522 534,597.5C531.754,591.173 530.254,584.673 529.5,578C529.122,572.251 531.456,568.084 536.5,565.5ZM549.5,630.5C557.371,628.744 563.538,631.077 568,637.5C568.667,648.833 568.667,660.167 568,671.5C563.971,681.425 557.138,683.925 547.5,679C544.485,676.137 542.651,672.637 542,668.5C541.333,658.833 541.333,649.167 542,639.5C543.642,635.7 546.142,632.7 549.5,630.5ZM602.5,630.5C611.185,628.657 617.352,631.657 621,639.5C621.667,649.5 621.667,659.5 621,669.5C618.854,678.994 613.02,682.494 603.5,680C599.066,677.897 596.566,674.397 596,669.5C595.333,659.167 595.333,648.833 596,638.5C596.612,634.403 598.779,631.736 602.5,630.5ZM487.5,647.5C496.111,645.392 502.611,648.059 507,655.5C508.586,669.577 502.42,676.077 488.5,675C480.649,670.782 477.816,664.282 480,655.5C481.955,652.283 484.455,649.617 487.5,647.5Z"/>
    </g>
</svg>
