<?xml version="1.0" encoding="UTF-8" standalone="no"?>
<!DOCTYPE svg PUBLIC "-//W3C//DTD SVG 1.1//EN" "http://www.w3.org/Graphics/SVG/1.1/DTD/svg11.dtd">
<svg width="100%" height="100%" viewBox="0 0 1024 1024" version="1.1" xmlns="http://www.w3.org/2000/svg" xmlns:xlink="http://www.w3.org/1999/xlink" xml:space="preserve" xmlns:serif="http://www.serif.com/" style="fill-rule:evenodd;clip-rule:evenodd;stroke-linejoin:round;stroke-miterlimit:2;">
    <g transform="matrix(1.36152,0,0,1.36152,-198.101,-235.537)">
        <path d="M426.5,635.5C426.503,632.325 427.503,629.492 429.5,627C425.245,621.908 421.578,616.408 418.5,610.5C386.574,608.186 356.574,599.352 328.5,584C312.833,573.667 297.167,563.333 281.5,553C262.031,546.198 242.031,541.531 221.5,539C217.069,537.371 213.236,534.871 210,531.5C205.367,517.904 199.034,505.237 191,493.5C178.753,481.915 165.92,471.082 152.5,461C148.148,457.13 145.815,452.297 145.5,446.5C145.608,437.957 149.941,433.623 158.5,433.5C165.394,435.326 172.394,435.826 179.5,435C193.115,430.776 204.949,423.609 215,413.5C223.09,402.321 231.424,391.321 240,380.5C268.486,347.735 303.653,324.902 345.5,312C413.444,293.741 480.777,295.741 547.5,318C588.478,331.143 624.812,351.976 656.5,380.5C657.675,380.719 658.675,380.386 659.5,379.5C661.774,373.786 664.441,368.286 667.5,363C654.519,341.632 649.519,318.466 652.5,293.5C652.073,289.956 651.406,286.456 650.5,283C650.776,275.426 654.443,270.426 661.5,268C667.58,267.626 673.58,266.793 679.5,265.5C688.896,261.557 698.562,258.057 708.5,255C731.036,248.521 753.369,249.187 775.5,257C813.336,275.15 831.336,305.317 829.5,347.5C834.838,350.167 839.838,353.334 844.5,357C853.667,367.5 862.833,378 872,388.5C878.735,395.905 886.068,402.572 894,408.5C895.439,410.275 896.439,412.275 897,414.5C899.201,425.595 895.367,433.761 885.5,439C867.659,442.096 850.325,440.43 833.5,434C818.723,425.888 805.723,415.555 794.5,403C788.796,402.313 783.13,402.479 777.5,403.5C778.564,409.204 776.564,413.371 771.5,416C765.718,417.249 760.385,416.415 755.5,413.5C758.495,421.319 760.995,429.319 763,437.5C771.209,498.41 752.709,549.41 707.5,590.5C685.65,610.267 660.316,624.1 631.5,632C589.749,641.95 547.583,644.117 505,638.5C502.639,638.504 500.473,638.837 498.5,639.5C500.098,694.013 500.537,748.632 499.817,803.36C499.997,810.081 500.193,816.798 500.405,823.511C604.598,824.824 708.63,824.82 812.5,823.5C813.463,823.97 813.463,824.637 812.5,825.5C813.391,826.11 814.391,826.443 815.5,826.5C819.123,828.577 820.79,831.744 820.5,836C820.669,841.341 818.336,845.008 813.5,847C636.833,847.667 460.167,847.667 283.5,847C282.213,845.59 281.046,844.09 280,842.5C279.186,837.98 279.353,833.646 280.5,829.5C281.122,827.665 282.456,826.498 284.5,826C348.832,825.5 413.166,825.333 477.5,825.5C478.145,813.452 477.478,801.785 475.5,790.5C451.091,769.114 426.424,747.948 401.5,727C396.919,723.562 395.419,719.062 397,713.5C406.63,687.272 416.463,661.272 426.5,635.5ZM644.5,415.5C644.909,411.152 645.076,406.819 645,402.5C636.962,392.74 627.796,384.24 617.5,377C587.078,356.74 554.078,342.073 518.5,333C466.652,318.588 414.652,317.921 362.5,331C310.005,343.392 269.338,372.226 240.5,417.5C242.646,422.02 242.813,426.687 241,431.5C235.594,436.315 229.927,436.648 224,432.5C222.244,435.263 220.077,437.763 217.5,440C212.565,442.606 207.898,445.606 203.5,449C197.274,452.78 190.607,455.447 183.5,457C188.5,461.333 193.5,465.667 198.5,470C207.927,479.014 215.26,489.514 220.5,501.5C225.08,494.084 230.246,487.084 236,480.5C242.167,473.667 248.333,466.833 254.5,460C331.29,389.135 420.623,366.135 522.5,391C542.501,396.666 560.501,405.999 576.5,419C590.225,429.55 598.225,443.383 600.5,460.5C600.655,472.39 594.988,479.557 583.5,482C576.108,482.565 568.775,483.565 561.5,485L545.5,493C541.928,494.405 538.261,494.738 534.5,494C526.274,487.718 517.274,482.718 507.5,479C448.003,459.438 390.669,464.438 335.5,494C329.027,501.622 321.527,503.122 313,498.5C308.754,490.943 309.92,484.443 316.5,479C360.261,453.111 407.594,442.111 458.5,446C487.326,446.944 513.826,455.111 538,470.5C550.83,464.417 564.33,461.084 578.5,460.5C575.128,450.275 569.462,441.442 561.5,434C554.097,428.936 546.43,424.27 538.5,420C505.049,406.98 470.382,401.314 434.5,403C349.898,409.947 283.898,448.281 236.5,518C253.973,521.075 270.973,525.742 287.5,532C301.688,540.184 315.354,549.184 328.5,559C352.609,574.37 378.942,583.37 407.5,586C438.421,587.96 469.087,586.127 499.5,580.5C519.445,575.377 538.778,568.211 557.5,559C599.94,533.195 627.106,496.028 639,447.5C640.418,436.738 642.251,426.071 644.5,415.5ZM515.5,598.5C498.951,603.372 481.951,606.538 464.5,608C475.635,611.489 486.969,614.156 498.5,616C539.456,620.633 580.123,618.967 620.5,611C645.946,604.609 668.946,593.442 689.5,577.5C732.623,539.814 749.623,492.48 740.5,435.5C737.197,424.582 733.863,413.582 730.5,402.5C714.942,397.887 700.609,390.887 687.5,381.5C685.771,380.883 684.271,379.883 683,378.5C678.698,385.48 674.365,392.48 670,399.5C666.336,418.821 662.836,438.154 659.5,457.5C652.937,483.289 641.604,506.623 625.5,527.5C597.441,564.214 560.774,587.881 515.5,598.5ZM476.5,635.5C468.961,632.232 461.294,629.232 453.5,626.5C451.73,631.035 449.73,635.368 447.5,639.5C439.294,663.987 430.627,688.32 421.5,712.5C422.26,714.437 423.26,716.27 424.5,718C442.264,732.262 459.264,747.428 475.5,763.5C476.499,721.003 476.832,678.337 476.5,635.5ZM703.5,279.5C694.497,282.951 685.497,286.617 676.5,290.5C669.108,333.387 685.774,362.387 726.5,377.5C741.469,384.551 757.135,387.051 773.5,385C776.726,382.425 780.393,380.925 784.5,380.5C780.138,368.428 782.805,358.261 792.5,350C796.754,348.735 801.088,347.902 805.5,347.5C809.38,306.871 791.38,282.038 751.5,273C744.167,272.333 736.833,272.333 729.5,273C720.646,274.547 711.98,276.713 703.5,279.5ZM742.5,313.5C755.683,312.515 761.516,318.515 760,331.5C755.26,341.78 747.76,344.28 737.5,339C729.621,328.486 731.287,319.986 742.5,313.5ZM706.5,465.5C715.117,464.817 719.784,468.817 720.5,477.5C712.553,525.6 689.22,564.1 650.5,593C647.167,594.667 643.833,596.333 640.5,598C635.186,599.26 631.353,597.426 629,592.5C626.645,585.059 628.812,579.559 635.5,576C639.007,573.746 642.673,571.746 646.5,570C675.624,544.259 693.124,512.092 699,473.5C701.028,470.308 703.528,467.641 706.5,465.5ZM805.5,368.5C815.347,399.847 836.681,416.347 869.5,418C859.659,407.825 850.159,397.325 841,386.5C836.928,382.55 832.762,378.717 828.5,375C821.137,371.743 813.471,369.576 805.5,368.5Z"/>
    </g>
</svg>
