<?xml version="1.0" encoding="UTF-8" standalone="no"?>
<!DOCTYPE svg PUBLIC "-//W3C//DTD SVG 1.1//EN" "http://www.w3.org/Graphics/SVG/1.1/DTD/svg11.dtd">
<svg width="100%" height="100%" viewBox="0 0 1024 1024" version="1.1" xmlns="http://www.w3.org/2000/svg" xmlns:xlink="http://www.w3.org/1999/xlink" xml:space="preserve" xmlns:serif="http://www.serif.com/" style="fill-rule:evenodd;clip-rule:evenodd;stroke-linejoin:round;stroke-miterlimit:2;">
    <g transform="matrix(1.45867,0,0,1.45867,-238.476,-236.445)">
        <path d="M164.5,367.5C163.347,361.347 163.18,355.014 164,348.5C164.293,344.132 165.46,340.132 167.5,336.5C175.424,317.576 188.757,303.909 207.5,295.5C209.789,293.613 212.455,292.279 215.5,291.5C219.699,290.029 224.033,288.695 228.5,287.5C232.725,286.341 237.058,285.174 241.5,284C262.942,283.473 284.276,281.806 305.5,279C313.704,277.116 321.704,274.616 329.5,271.5C335.167,266.5 340.5,261.167 345.5,255.5C349.941,246.387 353.774,237.053 357,227.5C360.108,223.229 363.608,222.562 367.5,225.5C369.785,226.957 371.618,228.957 373,231.5C375.603,237.911 376.936,244.578 377,251.5C379.666,254.176 381.833,257.176 383.5,260.5L383.5,261.5C385.007,265.391 385.674,269.558 385.5,274C385.824,279.872 384.824,285.372 382.5,290.5C381.833,292.167 381.167,293.833 380.5,295.5C386.842,295.334 393.175,295.5 399.5,296C401.965,299.171 401.965,302.337 399.5,305.5C397.717,314.452 392.717,320.952 384.5,325C385.381,325.708 386.047,326.542 386.5,327.5C393.762,336.769 401.429,345.769 409.5,354.5C413.325,357.477 417.325,360.311 421.5,363C432.012,367.752 442.012,373.252 451.5,379.5C478.063,393.268 503.063,409.268 526.5,427.5L527.5,427.5C542.378,438.04 556.044,450.04 568.5,463.5C589.637,482.767 606.137,505.434 618,531.5C622.109,524.27 626.943,517.603 632.5,511.5C636.07,505.756 640.237,500.422 645,495.5C648.702,491.63 652.536,487.963 656.5,484.5C669.652,471.421 685.319,462.754 703.5,458.5C719.877,454.995 735.877,456.328 751.5,462.5C763.853,467.005 774.519,474.005 783.5,483.5C794.545,493.268 802.879,504.935 808.5,518.5C810.607,521.057 811.941,524.057 812.5,527.5C814.775,531.536 816.608,535.869 818,540.5C821.17,557.524 824.337,574.524 827.5,591.5C831.038,607.916 837.871,622.916 848,636.5C852.76,639.758 856.593,643.758 859.5,648.5C860.167,648.5 860.5,648.833 860.5,649.5C862.643,651.131 864.31,653.131 865.5,655.5L865.5,658.5C865.323,668.949 864.156,679.283 862,689.5C860.957,693.915 859.124,697.915 856.5,701.5C856.16,704.675 854.493,706.841 851.5,708C847.684,709.409 844.017,711.076 840.5,713C837.518,713.498 834.518,713.665 831.5,713.5C783.33,713.832 735.33,713.499 687.5,712.5L684.5,712.5C681.391,712.264 678.391,712.597 675.5,713.5C672.092,714.842 668.759,716.175 665.5,717.5C650.537,720.657 635.537,723.657 620.5,726.5C616.19,727.08 611.857,727.414 607.5,727.5L607.5,728.5C586.206,730.174 564.872,730.84 543.5,730.5L521.5,730.5L521.5,734.5C521.183,737.572 521.516,740.572 522.5,743.5C536.347,739.842 542.18,745.175 540,759.5C537.927,767.37 533.761,773.704 527.5,778.5C525.371,780.95 522.704,782.617 519.5,783.5C518.685,784.837 517.518,785.837 516,786.5C514.769,790.704 513.269,794.704 511.5,798.5C511.5,799.167 511.167,799.5 510.5,799.5C506.861,803.388 503.028,803.388 499,799.5C496.871,787.42 501.038,778.086 511.5,771.5L512.5,771.5C516.189,767.813 520.189,764.48 524.5,761.5C516.486,760.263 508.486,760.263 500.5,761.5C489.505,766.376 481.339,774.376 476,785.5C475.969,789.768 474.969,793.768 473,797.5C468.293,801.493 464.293,800.827 461,795.5C459.751,778.332 466.251,764.999 480.5,755.5C487.336,748.583 495.669,744.583 505.5,743.5L505.5,730.5C487.164,730.667 468.83,730.5 450.5,730C445.981,729.825 441.647,729.325 437.5,728.5L433.5,728.5C433.158,727.662 432.492,727.328 431.5,727.5L430.5,727.5C430.179,733.026 430.512,738.36 431.5,743.5C450.188,744.539 457.521,754.206 453.5,772.5C452.6,777.389 449.6,779.723 444.5,779.5L439.5,779.5C438.85,779.196 438.183,778.863 437.5,778.5C434.18,781.494 430.513,783.994 426.5,786C422.131,789.554 419.631,794.054 419,799.5C414.667,803.5 410.333,803.5 406,799.5C405.199,796.633 405.366,793.966 406.5,791.5C409.128,780.199 415.795,772.199 426.5,767.5C429.208,765.647 432.208,764.647 435.5,764.5L435.5,760.5L412.5,760.5C410.11,762.02 407.443,763.02 404.5,763.5C404.158,764.338 403.492,764.672 402.5,764.5C393.854,769.764 387.52,777.097 383.5,786.5C382.869,789.702 381.869,792.702 380.5,795.5C379.878,798.776 377.878,800.109 374.5,799.5C368.814,799.144 366.481,796.144 367.5,790.5C369.647,774.852 377.313,762.852 390.5,754.5C397.161,748.157 405.161,744.491 414.5,743.5L414.5,724.5C396.61,722.088 379.61,717.088 363.5,709.5C355.652,706.599 348.318,702.933 341.5,698.5C316.305,683.64 295.639,663.973 279.5,639.5C276.073,634.984 273.407,629.984 271.5,624.5C268.142,620.451 265.809,615.784 264.5,610.5C256.909,594.381 251.909,577.381 249.5,559.5C248.421,549.868 247.755,540.201 247.5,530.5C247.45,522.29 248.117,514.29 249.5,506.5C250.43,497.126 252.43,488.126 255.5,479.5C255.865,474.042 256.865,468.709 258.5,463.5C259.263,459.951 260.263,456.451 261.5,453C261.167,452.5 260.833,452 260.5,451.5C250.93,456.12 241.263,460.453 231.5,464.5C227.144,466.768 222.977,469.435 219,472.5C217.136,477.091 215.47,481.757 214,486.5C210.042,491.436 205.709,491.769 201,487.5C200.202,483.219 200.702,479.219 202.5,475.5C206.533,458.005 211.2,440.672 216.5,423.5L197.5,414C193.362,411.685 189.695,408.852 186.5,405.5C174.053,395.957 166.719,383.29 164.5,367.5ZM201.5,319.5C189.155,328.847 181.822,341.18 179.5,356.5C179.944,360.163 180.278,363.829 180.5,367.5C183.261,374.612 186.928,381.279 191.5,387.5C196.617,392.23 201.95,396.73 207.5,401C213.018,404.596 219.018,406.763 225.5,407.5C224.908,404.873 224.575,402.206 224.5,399.5C219.934,373.762 227.6,352.429 247.5,335.5L248.5,335.5C252.302,331.763 256.635,328.763 261.5,326.5C276.841,318.96 293.174,314.96 310.5,314.5C311.167,314.5 311.5,314.167 311.5,313.5C327.675,313.17 343.675,313.504 359.5,314.5C367.201,314.691 374.868,314.358 382.5,313.5C376.211,312.728 369.878,311.562 363.5,310C359.141,307.046 358.474,303.546 361.5,299.5C364.542,293.544 366.708,287.211 368,280.5C368.607,276.463 368.44,272.463 367.5,268.5C366.458,263.993 364.958,259.659 363,255.5C359.803,264.581 354.636,272.248 347.5,278.5C341.706,283.906 335.04,288.072 327.5,291C316.853,294.164 306.186,296.664 295.5,298.5L294.5,298.5C281.52,299.354 268.52,299.687 255.5,299.5C243.258,300.725 231.258,303.559 219.5,308C212.927,311.109 206.927,314.942 201.5,319.5ZM495.5,425.5C481.628,417.069 467.961,408.403 454.5,399.5C435.339,390.092 417.006,379.425 399.5,367.5C387.7,355.532 376.034,343.365 364.5,331C349.504,330.5 334.504,330.333 319.5,330.5L311.5,330.5C306.384,331.806 301.051,332.473 295.5,332.5C282.425,335.307 270.425,340.64 259.5,348.5C255.14,352.194 251.14,356.194 247.5,360.5C244.813,365.215 242.646,370.215 241,375.5C240.348,381.021 240.514,386.521 241.5,392C241.492,395.212 242.492,395.879 244.5,394C249.116,393.751 252.783,395.584 255.5,399.5L255.5,400.5C261.327,408.148 266.66,416.148 271.5,424.5C273.924,427.008 275.59,430.008 276.5,433.5C278.158,446.574 276.825,459.241 272.5,471.5C270.862,481.032 268.862,490.366 266.5,499.5C263.742,515.758 263.075,532.091 264.5,548.5C265.368,565.18 269.035,581.18 275.5,596.5C281.358,611.887 289.025,626.221 298.5,639.5C304.596,646.77 310.93,653.937 317.5,661C323.688,665.697 329.688,670.531 335.5,675.5C342.833,679.833 350.167,684.167 357.5,688.5C368.852,694.345 380.519,699.345 392.5,703.5L393.5,703.5C421.595,711.377 450.262,715.044 479.5,714.5L543.5,714.5C566.586,715.12 589.586,714.12 612.5,711.5C612.586,711.485 612.671,711.472 612.755,711.46C624.958,709.549 637.207,707.229 649.5,704.5C662.758,701.192 675.758,696.859 688.5,691.5C700.117,685.691 711.45,679.358 722.5,672.5C729.688,665.966 736.855,659.299 744,652.5C749.278,646.252 753.778,639.585 757.5,632.5C757.216,630.585 757.549,628.919 758.5,627.5C758.66,625.801 758.494,624.134 758,622.5C755.672,621.001 753.505,619.334 751.5,617.5C749.167,615.5 746.833,613.5 744.5,611.5C740.975,610.241 737.975,608.241 735.5,605.5C729.285,601.893 722.952,598.56 716.5,595.5C708.759,592.81 701.092,590.143 693.5,587.5C681.602,584.528 669.935,581.195 658.5,577.5C651.964,576.199 645.63,574.532 639.5,572.5C635.207,571.343 630.873,570.343 626.5,569.5C621.759,567.135 616.759,565.135 611.5,563.5C609.71,560.012 608.377,556.346 607.5,552.5L607.5,550.5C602.248,534.994 595.081,520.327 586,506.5C578.017,496.02 569.517,486.02 560.5,476.5C540.79,456.835 519.123,439.835 495.5,425.5ZM692.5,478.5C686.034,482.236 679.701,486.236 673.5,490.5C661.118,501.881 649.785,514.215 639.5,527.5C634.526,534.815 629.526,542.149 624.5,549.5C624.977,550.478 625.643,551.311 626.5,552C632.249,553.973 637.916,555.806 643.5,557.5C662.334,561.875 681,566.875 699.5,572.5C706.277,574.527 712.943,576.861 719.5,579.5C727.419,582.793 735.086,586.626 742.5,591C745.94,593.042 748.94,595.542 751.5,598.5C757.475,602.481 763.142,606.814 768.5,611.5C770.71,611.894 772.043,613.227 772.5,615.5C774.017,617.462 774.684,619.795 774.5,622.5C772.837,634.82 768.171,645.82 760.5,655.5C757.878,659.457 754.878,663.124 751.5,666.5C745.384,674.549 738.051,681.216 729.5,686.5C725.019,690.246 720.019,693.246 714.5,695.5C721.468,696.497 728.468,696.83 735.5,696.5C770.009,696.002 804.675,695.668 839.5,695.5C841.019,694.59 842.685,693.757 844.5,693C846.037,691.89 846.703,690.39 846.5,688.5C846.5,687.833 846.833,687.5 847.5,687.5C847.294,684.505 847.96,681.838 849.5,679.5C849.666,673.491 849.499,667.491 849,661.5C848.427,659.359 847.594,657.359 846.5,655.5C845.833,655.5 845.5,655.167 845.5,654.5C841.536,651.037 837.702,647.37 834,643.5C823.554,628.608 816.388,612.275 812.5,594.5C809.736,581.915 807.402,569.248 805.5,556.5C803.514,550.584 801.514,544.584 799.5,538.5C797.574,531.974 795.074,525.641 792,519.5C788.241,514.309 784.741,508.976 781.5,503.5C773.582,493.236 763.915,485.236 752.5,479.5L751.5,479.5C743.895,476.686 736.228,474.353 728.5,472.5C718.637,471.917 708.97,472.917 699.5,475.5C697.491,477.065 695.157,478.065 692.5,478.5ZM259.5,435.5C253.02,428.184 247.52,420.184 243,411.5C242.051,413.093 240.885,414.426 239.5,415.5C236.814,420.872 234.147,426.205 231.5,431.5C230.137,436.422 228.47,441.255 226.5,446C226.836,447.03 227.503,447.53 228.5,447.5C236.959,443.442 245.626,439.609 254.5,436C256.134,435.506 257.801,435.34 259.5,435.5ZM282.5,373.5C287.82,375.108 290.486,378.775 290.5,384.5C289.417,393.247 284.417,397.914 275.5,398.5C266.857,397.186 263.19,392.186 264.5,383.5C265.473,378.353 268.473,374.853 273.5,373C276.696,372.195 279.696,372.362 282.5,373.5ZM418.5,583.5C417.343,575.01 417.176,566.343 418,557.5C422.796,552.281 427.463,552.281 432,557.5C432.236,568.231 433.069,578.897 434.5,589.5C437.777,607.088 445.444,622.421 457.5,635.5C459.833,637.167 461.833,639.167 463.5,641.5C478.367,656.26 496.367,663.927 517.5,664.5C537.816,665.294 557.816,663.127 577.5,658C588.134,654.974 598.8,652.141 609.5,649.5C610.609,649.443 611.609,649.11 612.5,648.5C615.461,647.677 618.461,647.01 621.5,646.5C621.666,638.826 621.5,631.159 621,623.5C619.887,622.695 618.721,622.028 617.5,621.5C613.628,619.403 609.961,617.069 606.5,614.5C603.489,613.331 600.822,611.664 598.5,609.5C591.004,606.255 584.004,602.255 577.5,597.5C561.533,589.519 546.2,580.519 531.5,570.5C522.072,567.177 520.405,561.677 526.5,554C531.28,552.97 535.613,553.97 539.5,557C545.897,560.859 552.23,564.692 558.5,568.5C559.167,568.5 559.5,568.833 559.5,569.5C567.324,573.245 574.991,577.245 582.5,581.5C596.71,589.431 610.377,598.098 623.5,607.5C625.553,607.402 627.22,608.069 628.5,609.5C630.415,609.216 632.081,609.549 633.5,610.5C635.179,610.285 636.179,610.952 636.5,612.5C637.661,626.661 637.827,640.994 637,655.5C633.176,658.944 628.676,660.944 623.5,661.5C613.089,665.357 602.422,668.69 591.5,671.5C575.745,675.784 559.745,678.784 543.5,680.5C532.833,681.833 522.167,681.833 511.5,680.5C500.297,679.366 489.63,676.366 479.5,671.5C473.967,669.24 468.967,666.24 464.5,662.5C463.833,662.5 463.5,662.167 463.5,661.5C450.025,652.36 439.358,640.693 431.5,626.5C428.769,621.744 426.436,616.744 424.5,611.5C420.632,602.68 418.632,593.346 418.5,583.5Z"/>
    </g>
</svg>
