<?xml version="1.0" encoding="UTF-8" standalone="no"?>
<!DOCTYPE svg PUBLIC "-//W3C//DTD SVG 1.1//EN" "http://www.w3.org/Graphics/SVG/1.1/DTD/svg11.dtd">
<svg width="100%" height="100%" viewBox="0 0 1024 1024" version="1.1" xmlns="http://www.w3.org/2000/svg" xmlns:xlink="http://www.w3.org/1999/xlink" xml:space="preserve" xmlns:serif="http://www.serif.com/" style="fill-rule:evenodd;clip-rule:evenodd;stroke-linejoin:round;stroke-miterlimit:2;">
    <g transform="matrix(1.74288,0,0,1.74288,-394.73,-337.163)">
        <path d="M512.5,199.5C515.518,199.335 518.518,199.502 521.5,200C527.434,205.7 531.434,212.534 533.5,220.5C597.906,224.1 652.073,249.1 696,295.5C743.328,347.538 765.328,408.871 762,479.5C767.901,488.737 774.568,497.404 782,505.5C810.903,545.681 820.237,590.015 810,638.5C796.412,684.264 765.912,709.264 718.5,713.5C701.543,711.844 685.21,707.844 669.5,701.5C677.836,740.657 662.503,764.824 623.5,774C601.156,775.526 579.656,772.026 559,763.5C534.408,769.727 509.741,770.06 485,764.5C465.985,770.863 446.485,774.363 426.5,775C385.454,767.814 367.121,743.648 371.5,702.5C354.415,707.751 336.915,711.418 319,713.5C286.785,709.274 261.785,693.608 244,666.5C231.946,646.96 226.113,625.627 226.5,602.5C228.264,555.32 246.431,515.987 281,484.5C278.822,430.881 291.822,381.214 320,335.5C347.075,291.096 384.241,257.929 431.5,236C457.949,224.708 485.449,219.875 514,221.5C511.82,216.943 509.986,212.109 508.5,207C508.777,203.902 510.11,201.402 512.5,199.5ZM701.5,692.5C721.781,697.546 740.781,694.38 758.5,683C772.771,671.371 783.271,656.871 790,639.5C802.561,590.079 792.561,545.746 760,506.5C757.417,528.161 753.25,549.495 747.5,570.5C740.05,593.418 730.884,615.751 720,637.5C711.145,655.075 699.978,670.908 686.5,685C691.248,688.041 696.248,690.541 701.5,692.5ZM397.5,722.5C395.186,720.523 392.853,718.523 390.5,716.5C389.799,730.097 394.799,741.097 405.5,749.5C418.425,756.499 432.092,758.332 446.5,755C436.701,749.599 427.035,743.932 417.5,738C410.386,733.383 403.719,728.216 397.5,722.5ZM322.5,637.5C301.911,596.489 288.744,553.156 283,507.5C253.984,541.548 241.984,580.882 247,625.5C254.437,659.603 274.604,682.436 307.5,694C315.49,695.869 323.49,695.869 331.5,694C339.856,691.816 348.189,689.649 356.5,687.5C343.683,671.873 332.349,655.206 322.5,637.5ZM301.5,511.5C305.911,547.057 315.577,581.057 330.5,613.5C348.088,651.006 373.088,682.673 405.5,708.5C468.068,756.358 535.068,763.191 606.5,729C643.193,707.308 673.026,678.475 696,642.5C721.997,596.877 737.997,547.877 744,495.5C750.812,426.957 732.479,366.291 689,313.5C632.828,254.105 563.994,229.605 482.5,240C454.915,244.24 429.915,254.407 407.5,270.5C368.404,297.768 338.904,333.101 319,376.5C299.845,419.752 294.012,464.752 301.5,511.5ZM617.5,335.5C658.098,337.265 685.264,357.265 699,395.5C700.511,406.974 695.678,410.808 684.5,407C680.993,402.828 678.826,397.994 678,392.5C664.164,364.266 642.164,352.266 612,356.5C622.706,366.209 633.706,375.542 645,384.5C649.318,389.786 651.318,395.786 651,402.5C647.298,408.542 642.131,410.042 635.5,407C632.874,402.916 630.374,398.75 628,394.5C619.519,386.929 610.852,379.596 602,372.5C593.604,363.62 592.437,353.953 598.5,343.5C604.086,338.868 610.42,336.202 617.5,335.5ZM569.5,429.5C557.486,451.532 545.486,473.532 533.5,495.5C522.084,504.051 511.25,503.385 501,493.5C486.134,467.435 472.634,440.768 460.5,413.5C460.969,409.926 462.136,406.592 464,403.5C484.88,382.481 509.713,375.981 538.5,384C554.319,387.517 566.486,396.017 575,409.5C575.323,416.706 573.489,423.373 569.5,429.5ZM507.5,398.5C501.079,400.48 494.746,402.98 488.5,406C484.957,407.608 481.957,409.942 479.5,413C489.19,432.214 499.024,451.38 509,470.5C512.085,475.672 515.419,480.672 519,485.5C530.624,460.546 543.124,436.046 556.5,412C541.8,401.741 525.466,397.241 507.5,398.5ZM411.5,335.5C422.899,334.58 433.066,337.58 442,344.5C446.536,352.084 446.536,359.751 442,367.5L433.5,376C425.5,380.667 417.5,385.333 409.5,390C405.093,394.812 401.426,400.145 398.5,406C394.053,409.021 389.553,409.188 385,406.5C382.441,392.114 387.607,381.281 400.5,374C411.193,369.995 420.526,363.995 428.5,356C398.793,350.937 377.626,362.104 365,389.5C363,394.833 361,400.167 359,405.5C353.719,409.699 348.719,409.366 344,404.5C343.227,394.469 345.56,385.136 351,376.5C364.352,352.628 384.519,338.961 411.5,335.5ZM651.5,717.5C649.45,720.058 647.117,722.558 644.5,725C629.192,736.822 612.525,746.322 594.5,753.5C600.268,755.611 606.268,756.611 612.5,756.5C615.167,756.333 617.833,756.167 620.5,756C638.601,753.394 649.268,743.228 652.5,725.5C652.806,722.615 652.473,719.948 651.5,717.5Z"/>
    </g>
</svg>
