<?xml version="1.0" encoding="UTF-8" standalone="no"?>
<!DOCTYPE svg PUBLIC "-//W3C//DTD SVG 1.1//EN" "http://www.w3.org/Graphics/SVG/1.1/DTD/svg11.dtd">
<svg width="100%" height="100%" viewBox="0 0 1024 1024" version="1.1" xmlns="http://www.w3.org/2000/svg" xmlns:xlink="http://www.w3.org/1999/xlink" xml:space="preserve" xmlns:serif="http://www.serif.com/" style="fill-rule:evenodd;clip-rule:evenodd;stroke-linejoin:round;stroke-miterlimit:2;">
    <g transform="matrix(1.51133,0,0,1.51133,-253.726,-302.222)">
        <path d="M351.5,219.5C340.428,220.691 330.094,224.191 320.5,230C304.999,240.176 290.499,251.676 277,264.5C263.254,282.145 257.92,302.145 261,324.5C267.75,356.039 284.417,380.705 311,398.5C313.649,410.182 309.149,415.015 297.5,413C272.832,394.632 255.332,370.799 245,341.5C233.71,298.706 245.21,263.54 279.5,236C292.488,226.505 305.821,217.505 319.5,209C336.409,201.524 354.076,198.69 372.5,200.5C402.031,204.085 425.031,218.085 441.5,242.5C442.429,243.689 442.762,245.022 442.5,246.5C452.67,242.873 463.003,239.706 473.5,237C506.95,231.357 539.617,234.19 571.5,245.5C576.733,236.922 583.066,229.088 590.5,222C623.508,197.501 658.842,193.835 696.5,211C721.371,225.201 742.538,243.701 760,266.5C768.56,283.793 772.726,302.127 772.5,321.5C766.67,350.827 753.67,376.494 733.5,398.5C726.65,406.095 718.317,411.428 708.5,414.5C703.07,413.156 700.737,409.656 701.5,404C701.464,401.37 701.964,398.87 703,396.5C707.833,393.667 712.667,390.833 717.5,388C735.104,370.302 746.604,349.136 752,324.5C752.667,317.5 752.667,310.5 752,303.5C750.932,289.181 745.932,276.514 737,265.5C718.371,246.107 696.538,231.607 671.5,222C646.297,215.173 623.63,219.84 603.5,236C599.226,240.274 595.726,245.107 593,250.5C591.745,251.211 590.579,252.044 589.5,253C594.314,252.74 597.981,254.573 600.5,258.5C611.139,247.053 624.139,239.553 639.5,236C653.058,234.879 666.058,237.045 678.5,242.5C696.404,250.246 711.571,261.58 724,276.5C726.705,280.577 728.872,284.91 730.5,289.5C737.199,302.047 739.033,315.381 736,329.5C731.86,349.672 721.026,364.839 703.5,375C693.796,380.023 683.796,384.19 673.5,387.5C678.752,440.787 661.419,484.953 621.5,520C619.5,520.833 617.5,521.667 615.5,522.5C619.443,546.507 627.61,568.84 640,589.5C645,602.833 650,616.167 655,629.5C660.999,651.83 664.665,674.496 666,697.5C679.002,716.162 684.002,736.828 681,759.5C677.749,789.483 666.249,815.65 646.5,838C638.671,845.749 629.671,851.749 619.5,856C636.777,857.444 654.111,857.944 671.5,857.5C678.161,860.335 680.327,865.335 678,872.5C677.125,875.215 675.292,876.548 672.5,876.5C550.236,877.665 427.903,877.831 305.5,877C303.266,875.266 301.599,873.1 300.5,870.5C300.335,867.482 300.502,864.482 301,861.5C301.465,860.069 302.299,858.903 303.5,858C328.498,857.5 353.498,857.333 378.5,857.5C383.844,857.666 389.177,857.499 394.5,857C359.926,835.694 340.093,804.861 335,764.5C330.193,739.519 335.193,716.852 350,696.5C352.87,660.021 361.536,625.021 376,591.5C387.816,571.552 395.982,550.218 400.5,527.5C401.73,525.703 402.396,523.703 402.5,521.5C399.774,521.736 397.441,520.903 395.5,519C354.205,484.873 336.871,441.04 343.5,387.5C319.428,382.56 300.261,370.226 286,350.5C269.386,316.903 274.886,287.403 302.5,262C313.742,252.877 326.075,245.544 339.5,240C368.817,229.83 394.15,235.996 415.5,258.5C418.415,255.246 422.081,253.412 426.5,253C419.784,241.951 410.784,233.284 399.5,227C384.143,220.719 368.143,218.219 351.5,219.5ZM460.5,696.5C470.698,690.748 481.698,687.248 493.5,686C480.404,675.575 467.904,664.408 456,652.5C431.494,624.523 421.161,591.856 425,554.5C425.471,549.638 426.638,544.971 428.5,540.5C425.137,538.125 421.803,535.791 418.5,533.5C414.228,557.153 405.728,579.153 393,599.5C382.054,626.287 375.054,653.954 372,682.5C377.685,677.91 384.185,676.41 391.5,678C405.157,681.4 415.323,689.234 422,701.5C425.826,708.152 428.826,715.152 431,722.5C437.906,710.423 447.739,701.756 460.5,696.5ZM498.5,808.5C498.826,800.316 498.492,792.316 497.5,784.5C480.807,781.488 465.807,774.655 452.5,764C446.838,759.349 442.338,753.849 439,747.5C438.937,755.603 438.27,763.603 437,771.5C430.804,779.744 425.138,779.411 420,770.5C418.903,753.903 416.237,737.57 412,721.5C408.559,711.416 402.392,703.583 393.5,698C381.647,695.508 371.813,699.008 364,708.5C355.948,720.74 352.448,734.24 353.5,749C353.096,788.535 369.429,818.868 402.5,840C411.759,845.796 421.425,850.796 431.5,855C436.754,856.271 442.087,856.771 447.5,856.5C463.325,857.496 479.325,857.83 495.5,857.5L498.5,857.5L498.5,808.5ZM522.5,685.5C545.088,688.877 564.588,698.544 581,714.5L584.5,721.5C589.049,708.58 596.049,697.08 605.5,687C617.413,677.907 630.413,676.074 644.5,681.5C643.388,664.978 640.555,648.644 636,632.5C632.34,621.843 628.673,611.176 625,600.5C618.297,588.415 611.963,576.081 606,563.5C603.629,553.68 600.796,544.013 597.5,534.5C595.007,537.248 592.007,539.248 588.5,540.5C599.956,592.725 584.956,635.559 543.5,669C536.625,674.714 529.625,680.214 522.5,685.5ZM651.5,374.5C649.044,361.029 644.877,348.029 639,335.5C629.552,320.274 618.885,305.941 607,292.5C583.581,266.905 554.414,254.072 519.5,254C475.393,248.864 438.06,262.03 407.5,293.5C399.85,301.661 392.684,310.327 386,319.5C381.096,326.642 377.262,334.309 374.5,342.5C372.398,347.297 370.564,352.297 369,357.5C346.227,432.047 369.061,486.88 437.5,522C469.658,535.02 502.992,539.186 537.5,534.5C547.371,532.032 557.371,529.532 567.5,527C636.677,499.225 664.677,448.392 651.5,374.5ZM498.5,385.5C508.205,384.238 517.205,386.071 525.5,391C535.343,399.862 542.843,410.362 548,422.5C552.066,433.363 555.732,444.363 559,455.5C562.298,477.638 554.465,494.472 535.5,506C506.46,520.325 482.626,514.158 464,487.5C457.93,476.549 455.93,464.882 458,452.5C463.504,435.979 470.171,419.979 478,404.5C483.565,396.597 490.399,390.264 498.5,385.5ZM503.5,405.5C500.562,407.934 497.729,410.601 495,413.5C487.431,427.546 481.431,442.212 477,457.5C476.333,461.5 476.333,465.5 477,469.5C481.422,482.594 490.255,490.76 503.5,494C528.963,495.204 541.13,483.037 540,457.5C536.045,443.304 530.712,429.637 524,416.5C521.167,412.333 517.667,408.833 513.5,406C510.183,405.502 506.85,405.335 503.5,405.5ZM429.5,393.5C438.139,392.547 446.139,394.38 453.5,399C460.655,405.823 462.488,413.99 459,423.5C453.519,431.487 446.019,435.653 436.5,436C431.104,433.766 426.771,430.266 423.5,425.5C417.707,431.373 412.874,430.706 409,423.5C408.011,412.793 411.844,404.293 420.5,398C423.508,396.348 426.508,394.848 429.5,393.5ZM432.5,411.5C432.389,412.117 432.056,412.617 431.5,413C435.933,413.421 439.933,414.921 443.5,417.5L444.5,416.5C441.491,412.733 437.491,411.066 432.5,411.5ZM597.5,400.5C605.382,407.239 607.548,415.572 604,425.5C600.291,429.611 596.124,430.278 591.5,427.5C581.985,439.503 571.485,440.503 560,430.5C557.565,427.066 555.565,423.4 554,419.5C553.061,414.864 553.561,410.531 555.5,406.5C559.091,399.179 565.091,395.012 573.5,394C582.492,392.747 590.492,394.913 597.5,400.5ZM573.5,415.5C576.572,415.817 579.572,415.484 582.5,414.5C582.376,413.893 582.043,413.56 581.5,413.5C578.592,412.431 575.592,412.264 572.5,413C571.117,414.461 571.451,415.294 573.5,415.5ZM655.5,254.5C639.645,252.433 627.312,257.933 618.5,271C617.167,271.333 615.833,271.667 614.5,272C615.851,273.617 617.518,274.784 619.5,275.5C628.752,289.585 638.585,303.252 649,316.5C651.062,319.723 652.896,323.057 654.5,326.5C657.243,331.656 659.743,336.989 662,342.5C664.375,351.006 667.209,359.34 670.5,367.5C674.866,366.492 679.2,365.325 683.5,364C710.809,352.886 722.143,332.72 717.5,303.5C714.932,298.559 712.266,293.559 709.5,288.5C694.808,271.787 676.808,260.454 655.5,254.5ZM561.5,547.5C554.607,550.557 547.274,552.39 539.5,553C519.528,554.548 499.528,554.882 479.5,554C468.104,552.568 457.104,549.735 446.5,545.5C441.181,572.764 444.681,598.764 457,623.5C469.257,641.758 484.757,656.591 503.5,668C508.227,669.036 512.56,668.203 516.5,665.5C534.474,653.693 549.307,638.693 561,620.5C571.596,596.573 575.096,571.573 571.5,545.5C568.211,546.374 564.877,547.041 561.5,547.5ZM564.5,727.5C562.703,723.44 560.037,719.94 556.5,717C536.37,704.54 514.704,700.374 491.5,704.5C477.528,705.871 465.694,711.537 456,721.5C454.061,726.473 454.061,731.473 456,736.5C457.958,741.59 460.792,746.09 464.5,750C496.87,773.279 528.037,771.779 558,745.5C562.714,740.408 564.881,734.408 564.5,727.5ZM624.5,696.5C616.127,700.377 610.294,706.71 607,715.5C601.392,732.357 598.392,749.691 598,767.5C597.64,769.608 596.973,771.608 596,773.5C588.579,779.652 582.912,778.318 579,769.5C578.918,762.456 578.751,755.456 578.5,748.5C577.081,750.336 575.914,752.336 575,754.5C559.075,770.714 539.909,781.048 517.5,785.5L517.5,856.5C537.503,856.667 557.503,856.5 577.5,856C637.997,837.23 665.831,796.063 661,732.5C659.799,726.232 657.799,720.232 655,714.5C648.401,702.451 638.234,696.451 624.5,696.5ZM359.5,253.5C336.231,258.896 317.397,271.229 303,290.5C292.766,308.729 293.099,326.729 304,344.5C315.457,357.112 329.623,364.779 346.5,367.5C349.692,356.423 353.192,345.423 357,334.5C367.451,311.259 381.617,290.592 399.5,272.5C389.762,258.906 376.428,252.572 359.5,253.5Z"/>
    </g>
</svg>
