<?xml version="1.0" encoding="UTF-8" standalone="no"?>
<!DOCTYPE svg PUBLIC "-//W3C//DTD SVG 1.1//EN" "http://www.w3.org/Graphics/SVG/1.1/DTD/svg11.dtd">
<svg width="100%" height="100%" viewBox="0 0 1024 1024" version="1.1" xmlns="http://www.w3.org/2000/svg" xmlns:xlink="http://www.w3.org/1999/xlink" xml:space="preserve" xmlns:serif="http://www.serif.com/" style="fill-rule:evenodd;clip-rule:evenodd;stroke-linejoin:round;stroke-miterlimit:2;">
    <g transform="matrix(1.51487,0,0,1.51487,-382.563,-235.612)">
        <path d="M508.5,366.5C494.254,355.505 489.921,341.505 495.5,324.5L495.5,323.5C498.405,317.432 503.072,313.265 509.5,311C526.95,306.987 541.616,311.487 553.5,324.5C557.315,333.08 558.482,342.08 557,351.5C554.587,358.699 550.087,364.032 543.5,367.5C533.102,373.692 522.435,374.025 511.5,368.5C510.71,367.599 509.71,366.932 508.5,366.5ZM533.5,333.5C532.833,333.5 532.5,333.167 532.5,332.5C525.348,327.961 518.681,328.628 512.5,334.5C510.992,345.509 515.825,351.842 527,353.5C529.221,353.607 531.054,352.94 532.5,351.5C534.371,351.141 535.871,350.141 537,348.5C537.768,344.08 537.602,339.747 536.5,335.5C535.5,334.833 534.5,334.167 533.5,333.5ZM511.5,809.5C510.167,808.5 508.833,807.5 507.5,806.5C506.781,804.236 506.448,801.903 506.5,799.5C506.568,795.445 508.234,792.278 511.5,790C516.788,790.272 522.122,790.439 527.5,790.5C530.385,790.194 533.052,790.527 535.5,791.5L659.5,791.5L659.5,792.5C664.737,797.81 664.737,803.31 659.5,809C642.223,810.444 624.889,810.944 607.5,810.5L527.5,810.5C521.974,810.821 516.64,810.488 511.5,809.5ZM302.5,810.5C293.964,809.168 290.797,804.168 293,795.5C294.025,793.313 295.525,791.646 297.5,790.5L303.5,790.5C308.64,791.488 313.974,791.821 319.5,791.5L393.5,791.5C393.87,786.097 395.87,781.431 399.5,777.5C401.55,775.453 403.883,773.786 406.5,772.5C407.058,771.21 408.058,770.377 409.5,770C415.068,767.881 420.735,767.214 426.5,768C421.29,762.294 416.29,756.461 411.5,750.5C410.512,749.205 409.512,747.872 408.5,746.5C379.799,709.757 359.466,668.757 347.5,623.5C346.19,618.257 345.524,612.923 345.5,607.5C339.708,569.482 343.041,532.149 355.5,495.5C357.597,488.53 360.264,481.863 363.5,475.5C366.117,468.264 369.284,461.264 373,454.5C381.352,441.794 389.185,428.794 396.5,415.5C399.628,413.601 402.962,412.267 406.5,411.5C414.126,412.619 417.959,416.952 418,424.5C414.97,429.015 411.803,433.349 408.5,437.5C403.112,444.222 398.112,451.222 393.5,458.5C364.153,509.578 355.487,563.911 367.5,621.5C371.849,640.529 378.183,658.862 386.5,676.5C395.658,693.486 405.325,710.153 415.5,726.5C421.934,734.507 428.268,742.674 434.5,751C443.468,750.423 452.468,749.923 461.5,749.5C464.656,748.566 467.989,747.899 471.5,747.5L471.5,739.5C471.334,729.161 471.5,718.828 472,708.5L475.5,705C481.732,702.301 486.565,703.801 490,709.5C490.667,715.5 490.667,721.5 490,727.5C488.071,732.116 488.571,736.449 491.5,740.5C496.841,744.503 502.841,746.836 509.5,747.5C534.661,748.498 559.995,748.831 585.5,748.5C592.869,747.56 600.202,746.227 607.5,744.5C610.625,742.775 613.958,741.275 617.5,740L628.5,729C619.171,727.254 610.171,724.754 601.5,721.5C600.167,721.167 598.833,720.833 597.5,720.5L585.5,714.5C579.627,711.069 573.96,707.402 568.5,703.5C562.377,699.217 556.377,694.717 550.5,690C523.34,665.434 501.673,636.934 485.5,604.5C482.407,600.653 480.074,596.32 478.5,591.5C473.042,579.733 467.875,567.733 463,555.5C459.591,544.27 455.591,533.27 451,522.5C450.19,517.743 450.524,513.076 452,508.5C454.692,503.097 457.858,498.097 461.5,493.5C464.429,489.394 467.596,485.394 471,481.5C473.445,480.023 475.612,478.19 477.5,476C498.291,462.753 520.458,459.919 544,467.5C545.246,450.666 550.246,434.999 559,420.5C560.067,419.809 561.234,419.309 562.5,419C560.613,415.341 559.113,411.508 558,407.5C555.695,391.067 556.195,374.733 559.5,358.5C560.776,356.438 561.61,354.104 562,351.5C562.908,349.561 564.408,348.561 566.5,348.5C568.142,347.197 569.809,345.864 571.5,344.5C574.616,340.782 578.282,337.782 582.5,335.5C591.54,332.215 600.873,330.215 610.5,329.5C608.741,315.226 605.741,301.226 601.5,287.5L600.5,287.5C589.432,250.573 577.432,213.906 564.5,177.5C562.326,184.037 560.659,190.703 559.5,197.5C559.666,202.179 559.499,206.845 559,211.5C557.529,215.546 555.029,216.379 551.5,214C549.915,211.931 548.581,209.764 547.5,207.5C546.526,206.365 545.359,205.365 544,204.5C543.62,204.717 543.451,205.031 543.492,205.439C543.495,205.459 543.497,205.479 543.5,205.5C544.835,220.34 550.001,233.674 559,245.5C559.809,249.695 559.309,253.695 557.5,257.5C556.684,259.144 555.35,260.31 553.5,261C548.389,262.006 543.222,262.506 538,262.5C525.171,260.92 512.338,259.253 499.5,257.5C473.329,259.436 450.329,268.769 430.5,285.5C417.483,295.518 405.816,306.851 395.5,319.5C392.587,324.324 389.92,329.324 387.5,334.5C387.637,336.107 388.304,337.441 389.5,338.5C391.246,336.146 393.579,335.146 396.5,335.5L399.5,335.5C403.406,335.467 406.74,336.801 409.5,339.5C412.395,347.235 410.062,353.068 402.5,357C390.547,361.622 380.213,368.622 371.5,378C373.435,377.942 375.102,377.109 376.5,375.5C385.297,371.268 393.964,366.768 402.5,362C407.285,359.794 412.285,358.294 417.5,357.5C420.36,358.18 422.86,359.513 425,361.5C428.085,370.596 424.918,376.262 415.5,378.5C413.485,379.924 411.152,380.59 408.5,380.5C408.106,384.406 406.94,388.072 405,391.5C401.635,395.693 398.135,399.693 394.5,403.5C384.166,416.673 373.999,430.006 364,443.5C355.987,455.019 349.487,467.353 344.5,480.5C331.949,510.803 326.616,542.47 328.5,575.5C329.018,580.986 329.685,586.319 330.5,591.5C330.66,596.982 331.66,602.316 333.5,607.5C333.61,609.374 332.944,610.874 331.5,612C327.289,613.534 322.956,613.867 318.5,613C315.272,611.437 313.105,608.937 312,605.5C310.126,584.876 309.293,564.209 309.5,543.5C309.569,538.146 309.902,532.813 310.5,527.5C315.29,500.468 324.29,474.801 337.5,450.5C340.861,444.816 344.194,439.149 347.5,433.5C351.785,427.214 356.451,421.214 361.5,415.5C365.103,410.558 369.103,405.892 373.5,401.5C373.333,401.167 373.167,400.833 373,400.5C369.426,405.262 364.926,408.595 359.5,410.5C354.987,412.059 350.654,411.726 346.5,409.5C343.157,407.492 341.324,404.492 341,400.5C340.371,395.672 341.038,391.005 343,386.5C348.564,374.683 356.064,364.349 365.5,355.5C365.369,354.761 365.536,354.094 366,353.5C369.338,350.992 372.505,348.325 375.5,345.5C373.47,343.393 371.303,341.393 369,339.5C368.125,338.127 367.625,336.627 367.5,335C368.656,328.871 370.989,323.371 374.5,318.5C378.066,311.936 382.399,305.936 387.5,300.5C405.843,277.999 428.177,260.499 454.5,248C462.723,244.7 471.057,242.2 479.5,240.5C489.42,238.671 499.42,238.171 509.5,239C517.944,240.532 526.278,242.198 534.5,244C528.981,234.27 525.981,223.77 525.5,212.5C525.334,205.492 525.5,198.492 526,191.5C525.681,180.477 530.848,175.977 541.5,178C542.056,178.383 542.389,178.883 542.5,179.5C544.939,174.623 547.439,169.623 550,164.5C551.719,161.712 553.885,159.379 556.5,157.5C565.157,153.721 572.657,155.387 579,162.5C583.481,175.102 587.648,187.768 591.5,200.5C592.167,200.5 592.5,200.833 592.5,201.5C603.034,231.566 612.701,261.899 621.5,292.5C625.86,302.28 628.193,312.614 628.5,323.5C633.729,323.015 638.729,323.682 643.5,325.5C658.834,333.162 673.501,341.829 687.5,351.5C700.806,359.489 714.139,367.489 727.5,375.5C741.165,382.997 754.498,390.997 767.5,399.5L771.5,399.5C771.372,401.655 771.872,403.655 773,405.5L774,404.5C774.667,408.833 774.667,413.167 774,417.5C773.252,419.332 772.252,420.999 771,422.5C769.274,421.424 767.441,421.257 765.5,422C764.284,423.74 762.618,424.74 760.5,425C700.514,426.273 640.514,426.939 580.5,427L578,429.5C577.722,428.584 577.222,427.918 576.5,427.5C569.953,436.589 565.62,446.589 563.5,457.5C562.965,461.511 562.298,465.511 561.5,469.5C564.595,473.742 568.595,477.076 573.5,479.5C603.632,501.481 625.799,529.814 640,564.5C651.261,589.448 662.428,614.448 673.5,639.5C674.674,640.514 675.34,641.847 675.5,643.5C680.216,653.44 685.05,663.44 690,673.5C691.9,677.632 692.733,681.966 692.5,686.5C698.967,687.822 705.3,689.655 711.5,692C718.797,694.651 725.797,697.818 732.5,701.5C777.576,723.039 822.242,745.039 866.5,767.5C877.156,770.137 884.489,776.47 888.5,786.5C889.916,800.416 884.582,810.916 872.5,818C853.978,826.815 835.645,826.649 817.5,817.5C811.602,815.949 805.936,813.949 800.5,811.5C789.354,807.896 778.354,803.896 767.5,799.5L765.5,799.5C750.684,792.954 735.35,787.621 719.5,783.5C714.453,781.233 709.12,779.566 703.5,778.5C694.4,774.462 685.067,770.796 675.5,767.5L674.5,767.5C661.572,761.956 648.738,755.956 636,749.5C630.693,754.647 624.526,758.314 617.5,760.5C616.486,761.674 615.153,762.34 613.5,762.5C604.726,765.24 595.726,766.573 586.5,766.5C570.167,767.833 553.833,767.833 537.5,766.5C536.209,766.263 535.209,766.596 534.5,767.5C535.201,772.612 533.201,776.779 528.5,780C520.689,784.368 512.356,787.035 503.5,788C494.173,788.5 484.839,788.666 475.5,788.5C475.105,794.762 475.772,800.762 477.5,806.5C484.511,806.085 489.345,809.085 492,815.5C494.28,822.917 492.113,828.25 485.5,831.5L481.5,831.5C470.49,829.494 463.157,823.161 459.5,812.5C453.916,810.705 447.916,809.871 441.5,810C435.53,807.457 433.363,802.957 435,796.5C436.172,792.163 439.006,790.163 443.5,790.5L452.5,790.5C453.209,791.404 454.209,791.737 455.5,791.5C455.561,775.775 463.561,768.109 479.5,768.5C488.865,769.004 498.199,769.004 507.5,768.5C503.666,766.795 499.666,765.461 495.5,764.5C491.566,761.745 487.733,758.745 484,755.5C483.648,757.247 483.148,758.914 482.5,760.5C479.663,763.857 475.997,766.024 471.5,767C463.878,769.054 456.211,769.554 448.5,768.5C448.919,772.428 448.419,776.428 447,780.5C445.5,783.333 443.333,785.5 440.5,787C432.167,787.333 423.833,787.667 415.5,788C414.584,788.278 413.918,788.778 413.5,789.5C410.492,794.603 409.826,799.936 411.5,805.5C411.511,807.017 412.177,808.184 413.5,809C417.123,810.156 420.789,811.156 424.5,812C429.396,817.397 429.729,823.064 425.5,829C415.264,833.806 406.764,831.639 400,822.5C398.579,820.595 397.412,818.595 396.5,816.5L395.5,816.5C395.123,814.742 394.456,813.075 393.5,811.5C363.507,810.5 333.507,810.167 303.5,810.5L302.5,810.5ZM650.5,735.5C658.607,739.106 666.607,742.939 674.5,747C687.067,751.077 699.4,755.744 711.5,761C752.317,773.325 792.317,787.492 831.5,803.5C839.481,804.443 847.481,804.61 855.5,804C858.376,803.562 861.043,802.562 863.5,801C868.118,798.291 870.118,794.458 869.5,789.5C862.137,785.819 854.804,782.152 847.5,778.5C842.516,776.674 837.849,774.341 833.5,771.5C808.55,760.025 783.883,748.025 759.5,735.5C748.589,730.711 737.922,725.378 727.5,719.5L724.5,719.5C721.416,717.463 718.083,715.797 714.5,714.5C710.162,712.499 705.828,710.499 701.5,708.5C700.686,710.766 700.186,713.1 700,715.5C699.34,717.324 698.173,718.657 696.5,719.5C692.906,723.8 688.239,726.3 682.5,727C670.891,728.872 659.224,730.372 647.5,731.5C648.188,732.855 649.188,733.855 650.5,734.5L650.5,735.5ZM587.5,694.5L604.5,703C611.095,704.982 617.761,706.649 624.5,708C643.13,709.404 661.796,709.904 680.5,709.5C681.291,707.691 681.291,705.691 680.5,703.5C676.722,692.841 672.722,682.175 668.5,671.5C665.1,666.693 662.766,661.36 661.5,655.5C659.864,654.251 658.697,652.584 658,650.5C649.155,630.812 640.321,611.145 631.5,591.5C629.185,586.244 626.852,580.91 624.5,575.5C615.804,555.1 604.804,536.1 591.5,518.5C588.833,516.5 586.5,514.167 584.5,511.5C578.439,507.618 572.773,503.118 567.5,498C562.972,494.904 558.305,492.071 553.5,489.5C552.609,488.89 551.609,488.557 550.5,488.5C547.865,486.672 544.865,485.505 541.5,485C531.609,482.725 521.609,482.058 511.5,483C505.754,483.97 500.421,485.803 495.5,488.5C485.206,494.293 477.04,502.293 471,512.5C471.397,520.379 473.064,528.046 476,535.5C481.154,550.132 486.987,564.465 493.5,578.5C494.167,580.5 494.833,582.5 495.5,584.5C500.163,593.159 504.83,601.826 509.5,610.5C513.665,616.158 517.332,622.158 520.5,628.5C528.136,637.645 535.636,646.979 543,656.5C556.555,670.905 571.388,683.572 587.5,694.5ZM610.5,348.5C603.765,350.022 597.099,351.855 590.5,354C586.655,355.42 583.322,357.587 580.5,360.5C577.7,369.798 576.034,379.298 575.5,389C574.786,394.862 576.12,400.028 579.5,404.5C579.842,405.338 580.508,405.672 581.5,405.5C588.649,404.963 595.816,404.629 603,404.5C648.495,405.519 693.995,406.186 739.5,406.5C740.239,406.631 740.906,406.464 741.5,406C733.601,402.227 726.268,397.727 719.5,392.5C708.531,386.682 697.864,380.348 687.5,373.5C685.999,372.248 684.332,371.248 682.5,370.5C667.518,360.336 651.851,351.169 635.5,343C633.167,342.333 630.833,342.333 628.5,343C624.278,344.638 619.945,345.805 615.5,346.5C613.972,347.309 612.306,347.976 610.5,348.5Z"/>
    </g>
</svg>
