<?xml version="1.0" encoding="UTF-8" standalone="no"?>
<!DOCTYPE svg PUBLIC "-//W3C//DTD SVG 1.1//EN" "http://www.w3.org/Graphics/SVG/1.1/DTD/svg11.dtd">
<svg width="100%" height="100%" viewBox="0 0 1024 1024" version="1.1" xmlns="http://www.w3.org/2000/svg" xmlns:xlink="http://www.w3.org/1999/xlink" xml:space="preserve" xmlns:serif="http://www.serif.com/" style="fill-rule:evenodd;clip-rule:evenodd;stroke-linejoin:round;stroke-miterlimit:2;">
    <g transform="matrix(1.42862,0,0,1.42862,-193.883,-211.039)">
        <path d="M720.5,677.5C718.504,732.49 717.837,787.823 718.5,843.5C718.369,844.239 718.536,844.906 719,845.5C720.049,844.483 721.216,844.316 722.5,845C731.49,850.445 731.823,856.445 723.5,863C688.5,863.667 653.5,863.667 618.5,863C613.404,858.752 612.237,853.585 615,847.5C618.774,844.556 622.941,843.889 627.5,845.5C628.5,791.171 628.833,736.837 628.5,682.5L498.5,682.5L498.5,845.5C507.991,845.493 511.824,850.159 510,859.5C508.363,861.81 506.196,863.31 503.5,864C470.167,864.667 436.833,864.667 403.5,864C397.777,858.825 397.11,853.158 401.5,847C405.152,846.501 408.818,846.335 412.5,846.5L412.5,664.5C377.364,670.074 349.197,658.741 328,630.5C320.863,618.421 316.529,605.421 315,591.5C314.5,517.167 314.333,442.834 314.5,368.5C291.164,368.667 267.831,368.5 244.5,368C241.598,365.76 239.431,362.927 238,359.5C237.333,341.167 237.333,322.833 238,304.5C242.389,287.777 253.222,279.277 270.5,279C281.58,264.333 293.247,250.167 305.5,236.5C294.32,220.615 289.653,202.948 291.5,183.5C291.17,175.358 292.003,167.358 294,159.5C294.948,157.43 296.448,155.93 298.5,155C302.833,154.333 307.167,154.333 311.5,155C326.226,165.023 340.56,175.523 354.5,186.5C361.349,171.824 370.682,158.991 382.5,148C392.338,146.663 400.172,150.163 406,158.5C420.957,176.089 429.624,196.422 432,219.5C432.5,313.833 432.667,408.166 432.5,502.5C507.501,502.333 582.501,502.5 657.5,503C704.142,512.304 734.309,539.804 748,585.5C755.831,621.489 746.664,652.155 720.5,677.5ZM257.5,333.5L257.5,349.5L277.5,349.5L277.5,333.5L257.5,333.5ZM310.5,176.5C308.892,194.908 312.892,211.908 322.5,227.5C331.475,228.498 340.475,228.832 349.5,228.5C349.666,222.491 349.499,216.491 349,210.5C335.919,199.247 323.086,187.914 310.5,176.5ZM410.5,209.5C406.553,193.935 399.22,180.269 388.5,168.5C380.324,176.844 374.157,186.511 370,197.5C369.5,207.494 369.334,217.494 369.5,227.5L380.5,227.5C380.171,213.99 380.504,200.656 381.5,187.5C381.953,186.542 382.619,185.708 383.5,185C389.645,183.412 394.811,184.912 399,189.5C399.333,203.833 399.667,218.167 400,232.5C403.746,235.29 407.579,237.957 411.5,240.5C412.493,235.88 412.827,231.214 412.5,226.5C411.263,221.04 410.596,215.373 410.5,209.5ZM698.5,844.5C699.822,782.155 699.822,719.655 698.5,657C699.098,650.064 702.765,647.398 709.5,649C711.667,650.167 713.833,651.333 716,652.5C717.261,652.241 718.261,651.574 719,650.5C723.822,642.05 727.488,633.05 730,623.5C730.667,614.833 730.667,606.167 730,597.5C721.858,554.023 696.025,528.857 652.5,522C575.167,521.667 497.833,521.333 420.5,521C416.23,519.73 413.73,516.896 413,512.5C412.667,508.167 412.333,503.833 412,499.5C411.667,422.167 411.333,344.833 411,267.5C403.963,259.743 395.797,253.576 386.5,249C363.493,248.167 340.493,248.334 317.5,249.5C309.77,260.402 301.104,270.568 291.5,280C305.167,280.667 318.833,280.667 332.5,280C335.623,276.387 338.956,273.054 342.5,270C354.149,266.122 365.483,266.788 376.5,272C388.17,282.69 393.503,296.023 392.5,312C392.265,344.734 375.932,363.234 343.5,367.5C340.713,368.477 337.713,368.81 334.5,368.5C334.795,370.735 334.461,372.735 333.5,374.5C333.333,445.834 333.5,517.167 334,588.5C337.078,617.229 352.245,636.063 379.5,645C394.5,645.333 409.5,645.667 424.5,646C428.109,646.625 430.776,648.458 432.5,651.5C433.189,713.34 433.855,775.34 434.5,837.5C434.441,839.891 434.107,842.225 433.5,844.5C448.485,845.499 463.485,845.833 478.5,845.5C478.077,780.821 478.577,716.154 480,651.5C487.206,644.338 493.206,645.338 498,654.5C498.07,657.775 498.237,660.942 498.5,664C541.832,664.5 585.165,664.667 628.5,664.5C628.334,659.821 628.501,655.155 629,650.5C635.567,643.734 641.733,644.068 647.5,651.5C648.499,715.665 648.832,779.998 648.5,844.5L698.5,844.5ZM363.5,286.5C359.131,286.467 354.798,286.8 350.5,287.5C349.829,290.758 348.996,294.091 348,297.5C346.147,299.592 343.814,300.592 341,300.5C315.184,299.215 289.35,298.715 263.5,299C262.023,301.445 260.19,303.612 258,305.5C257.503,307.81 257.337,310.143 257.5,312.5C268.172,312.333 278.839,312.5 289.5,313C292.911,313.117 295.411,314.617 297,317.5C297.5,327.828 297.666,338.161 297.5,348.5C311.837,348.667 326.171,348.5 340.5,348C344.872,347.579 349.205,346.912 353.5,346C361.502,343.997 367.002,339.164 370,331.5C373.263,318.5 373.263,305.5 370,292.5C368.901,289.267 366.735,287.267 363.5,286.5Z"/>
    </g>
</svg>
