<?xml version="1.0" encoding="UTF-8" standalone="no"?>
<!DOCTYPE svg PUBLIC "-//W3C//DTD SVG 1.1//EN" "http://www.w3.org/Graphics/SVG/1.1/DTD/svg11.dtd">
<svg width="100%" height="100%" viewBox="0 0 1024 1024" version="1.1" xmlns="http://www.w3.org/2000/svg" xmlns:xlink="http://www.w3.org/1999/xlink" xml:space="preserve" xmlns:serif="http://www.serif.com/" style="fill-rule:evenodd;clip-rule:evenodd;stroke-linejoin:round;stroke-miterlimit:2;">
    <g transform="matrix(1.19927,0,0,1.19927,-102.22,-105.621)">
        <path d="M85.5,601.5C84.464,596.376 86.464,593.21 91.5,592C115.831,591.5 140.164,591.333 164.5,591.5C164.765,580.462 164.432,569.462 163.5,558.5C143.164,558.667 122.831,558.5 102.5,558C96.028,553.612 96.028,549.278 102.5,545C123.073,544.827 143.573,544.327 164,543.5C161.138,504.011 167.138,466.011 182,429.5C194.166,403.512 211.333,381.512 233.5,363.5C216.492,315.022 228.159,274.856 268.5,243C301.725,218.186 338.059,212.519 377.5,226C383.061,228.464 388.727,230.631 394.5,232.5C417.499,187.358 454.332,162.692 505,158.5C557.704,162.257 597.204,186.924 623.5,232.5C653.699,216.819 684.699,214.986 716.5,227C747.712,239.544 770.545,261.044 785,291.5C794.494,316.789 793.327,341.622 781.5,366C793.718,378.217 805.218,391.05 816,404.5C836.327,436.482 847.66,471.482 850,509.5C850.169,522.673 850.669,535.673 851.5,548.5C873.169,548.333 894.836,548.5 916.5,549C920.5,551.667 920.5,554.333 916.5,557C895.169,557.5 873.836,557.667 852.5,557.5C852.158,556.662 851.492,556.328 850.5,556.5C850.17,572.675 850.504,588.675 851.5,604.5C856.874,604.523 862.207,605.023 867.5,606C869.648,608.075 869.982,610.408 868.5,613C863.599,614.325 858.599,614.825 853.5,614.5C852.791,613.596 851.791,613.263 850.5,613.5L850.5,647.5C850.11,666.376 841.444,679.876 824.5,688C812.863,691.454 802.863,688.787 794.5,680C792.333,677.167 790.167,674.333 788,671.5C790.534,700.83 784.867,728.497 771,754.5C755.489,780.337 732.989,796.504 703.5,803C671.728,808.538 640.061,814.538 608.5,821C592.536,824.241 576.87,828.574 561.5,834C543.472,839.865 529.805,851.032 520.5,867.5C513.959,872.651 507.293,872.817 500.5,868C495.636,861.645 490.636,855.478 485.5,849.5C473.46,839.816 459.794,833.316 444.5,830C407.778,821.055 370.778,813.389 333.5,807C317.527,804.342 302.194,799.675 287.5,793C276.403,786.066 266.736,777.566 258.5,767.5C242.656,748.516 233.489,726.516 231,701.5C230.667,691.833 230.333,682.167 230,672.5C209.978,695.654 190.644,694.987 172,670.5C166.517,660.901 164.017,650.568 164.5,639.5L164.5,606.5L160.5,606.5L160.5,607.5L153.5,607.5C133.764,606.828 113.931,606.161 94,605.5C93.005,606.066 92.172,606.733 91.5,607.5C88.522,606.522 86.522,604.522 85.5,601.5ZM355.5,786.5C378.621,790.354 401.621,794.854 424.5,800C456.622,805.569 485.289,818.403 510.5,838.5C527.276,823.274 546.609,812.441 568.5,806C608.548,796.27 648.882,787.937 689.5,781C730.946,772.552 755.112,747.386 762,705.5C762.5,682.502 762.667,659.502 762.5,636.5C767.25,638.029 771.916,639.863 776.5,642C784.222,648.055 792.222,653.722 800.5,659C814.128,666.601 822.295,662.768 825,647.5C825.667,602.167 825.667,556.833 825,511.5C824.061,501.439 822.728,491.439 821,481.5C814.028,443.711 795.861,412.544 766.5,388C759.915,387.251 753.581,385.584 747.5,383C744.456,380.088 743.289,376.588 744,372.5C767.04,347.512 770.707,319.845 755,289.5C745.789,275.956 734.289,264.789 720.5,256C687.559,238.199 655.559,239.532 624.5,260C616.406,264.077 609.573,262.577 604,255.5C600.211,242.397 593.877,230.73 585,220.5C561.015,194.385 531.182,182.552 495.5,185C453.58,192.245 425.746,216.079 412,256.5C407.429,261.135 401.929,262.968 395.5,262C388.865,258.348 382.198,254.681 375.5,251C341.085,237.678 309.419,242.345 280.5,265C246.172,297.308 242.339,332.808 269,371.5C269.601,377.582 266.935,381.582 261,383.5C255.758,384.032 250.591,384.865 245.5,386C241.241,389.381 237.074,392.881 233,396.5C207.359,425.952 192.693,460.285 189,499.5C188.333,548.167 188.333,596.833 189,645.5C190.631,657.821 197.464,663.321 209.5,662C220.143,656.679 230.143,650.345 239.5,643C243.048,641.059 246.714,639.393 250.5,638C251.944,637.219 253.277,637.386 254.5,638.5C255.322,659.123 255.822,679.79 256,700.5C259.406,733.356 275.573,757.356 304.5,772.5C311.802,776.213 319.469,779.046 327.5,781C337.052,782.429 346.385,784.262 355.5,786.5ZM669.5,561.5C662.967,574.897 656.134,588.231 649,601.5C648.998,637.309 632.165,660.976 598.5,672.5C601.002,688.659 597.002,702.992 586.5,715.5C578.653,724.592 568.653,729.759 556.5,731C523.833,731.667 491.167,731.667 458.5,731C436.129,727.126 422.962,713.959 419,691.5C418.5,684.842 418.334,678.175 418.5,671.5C388.005,662.658 371.338,642.325 368.5,610.5C368.636,608.135 368.97,605.802 369.5,603.5C362.681,591.198 355.848,578.865 349,566.5C325.844,511.434 328.677,457.768 357.5,405.5C355.631,402.887 353.297,400.721 350.5,399C335.218,390.384 321.051,380.218 308,368.5C293.99,351.795 289.657,332.795 295,311.5C300.886,295.934 312.052,289.101 328.5,291C346.956,299.728 365.29,308.728 383.5,318C396.206,326.234 404.373,337.734 408,352.5C427.193,337.09 449.027,327.257 473.5,323C517.856,315.004 559.523,322.338 598.5,345C602.639,347.479 606.472,350.313 610,353.5C613.187,340.621 619.354,329.454 628.5,320C646.853,309.823 665.519,300.156 684.5,291C705.053,288.385 718.22,297.218 724,317.5C727.089,340.233 719.922,359.067 702.5,374C690.023,383.74 677.023,392.74 663.5,401C661.534,402.46 659.868,404.127 658.5,406C684.921,456.24 688.588,508.074 669.5,561.5ZM687.5,316.5C675.686,322.907 663.686,329.074 651.5,335C639.192,343.266 632.525,354.932 631.5,370C635.036,375.547 639.369,380.547 644.5,385C658.305,375.063 672.305,365.063 686.5,355C694.948,346.941 699.115,337.108 699,325.5C697.589,319.242 693.756,316.242 687.5,316.5ZM322.5,317.5C316.795,324.103 315.962,331.437 320,339.5C323.645,347.152 328.811,353.652 335.5,359C348.226,367.059 360.393,375.893 372,385.5L387.5,370C386.21,365.127 384.71,360.294 383,355.5C380.982,348.954 377.148,343.787 371.5,340C357.323,332.411 342.99,325.078 328.5,318C326.527,317.505 324.527,317.338 322.5,317.5ZM507.5,652.5C506.118,655.394 504.118,657.894 501.5,660C494.683,664.742 487.349,668.409 479.5,671C467.505,671.5 455.505,671.667 443.5,671.5C442.801,680.705 444.635,689.372 449,697.5C451.312,701.58 454.812,704.08 459.5,705C492.833,705.667 526.167,705.667 559.5,705C562.902,703.6 565.736,701.433 568,698.5C572.262,690.027 574.429,681.027 574.5,671.5C562.162,671.667 549.829,671.5 537.5,671C530.783,668.808 524.449,665.808 518.5,662C514.916,658.572 511.25,655.405 507.5,652.5ZM420.5,462.5C418.488,463.524 416.822,465.024 415.5,467C419.411,473.286 425.078,475.786 432.5,474.5C430.793,468.126 426.793,464.126 420.5,462.5ZM589.5,462.5C586.835,465.335 584.335,468.335 582,471.5C581.383,472.449 581.549,473.282 582.5,474C586.5,474.667 590.5,474.667 594.5,474C597.363,472.636 599.363,470.47 600.5,467.5C597.727,463.948 594.06,462.281 589.5,462.5ZM401.5,389.5C381.183,410.54 368.183,435.54 362.5,464.5C353.33,509.514 362.497,550.514 390,587.5C391.181,597.164 392.514,606.831 394,616.5C398.002,630.162 406.502,639.662 419.5,645C438.167,645.667 456.833,645.667 475.5,645C497,638.177 504.5,623.677 498,601.5C487.771,592.971 477.271,584.804 466.5,577C460.602,570.609 454.935,564.109 449.5,557.5C448.833,536.5 448.167,515.5 447.5,494.5C441.413,495.698 435.246,496.365 429,496.5C421.785,497.072 415.285,495.239 409.5,491C404.635,485.8 399.468,480.967 394,476.5C392.08,473.661 390.413,470.661 389,467.5C387.114,460.451 388.947,454.618 394.5,450C408.512,443.731 423.179,441.064 438.5,442C440.167,443 441.833,444 443.5,445C447.788,450.41 451.955,455.91 456,461.5C462.752,466.851 468.752,472.851 474,479.5C474.333,503.5 474.667,527.5 475,551.5C485.873,561.018 497.373,569.684 509.5,577.5C520.09,569.621 530.59,561.621 541,553.5C541.333,529.5 541.667,505.5 542,481.5C547.568,473.926 553.901,466.926 561,460.5C564.4,453.535 568.9,447.369 574.5,442C591.092,440.473 607.092,443.14 622.5,450C628.549,455.395 630.049,461.895 627,469.5C621.921,477.914 615.421,485.081 607.5,491C600.96,495.26 593.793,497.093 586,496.5C579.189,497.044 572.856,495.711 567,492.5C566.667,514.833 566.333,537.167 566,559.5C561.878,565.291 557.378,570.791 552.5,576C541.942,585.192 531.109,594.026 520,602.5C515.261,623.87 523.094,638.037 543.5,645C562.552,645.949 581.552,645.615 600.5,644C609.975,639.859 616.808,633.026 621,623.5C623.515,611.592 625.515,599.592 627,587.5C632,579.167 637,570.833 642,562.5C656.619,528.642 659.952,493.642 652,457.5C630.928,383.786 581.928,346.119 505,344.5C463.927,344.896 429.427,359.896 401.5,389.5ZM913.5,599.5C921.84,599.334 930.173,599.5 938.5,600C939.856,603.653 938.856,606.653 935.5,609C928.5,609.667 921.5,609.667 914.5,609C910.968,606.172 910.634,603.005 913.5,599.5Z"/>
    </g>
</svg>
