<?xml version="1.0" encoding="UTF-8" standalone="no"?>
<!DOCTYPE svg PUBLIC "-//W3C//DTD SVG 1.1//EN" "http://www.w3.org/Graphics/SVG/1.1/DTD/svg11.dtd">
<svg width="100%" height="100%" viewBox="0 0 1024 1024" version="1.1" xmlns="http://www.w3.org/2000/svg" xmlns:xlink="http://www.w3.org/1999/xlink" xml:space="preserve" xmlns:serif="http://www.serif.com/" style="fill-rule:evenodd;clip-rule:evenodd;stroke-linejoin:round;stroke-miterlimit:2;">
    <g transform="matrix(1.22588,0,0,1.22588,-123.134,-140.802)">
        <path d="M733.5,388.5C730.463,385.94 728.629,382.607 728,378.5C727.333,360.167 727.333,341.833 728,323.5C728.608,321.934 729.442,320.6 730.5,319.5C732.324,314.178 735.991,310.678 741.5,309C752.375,306.134 762.708,307.467 772.5,313C777.85,316.008 782.85,319.508 787.5,323.5C813.327,317.968 836.994,323.135 858.5,339C877.68,354.352 891.68,373.519 900.5,396.5C930.587,405.329 941.421,424.995 933,455.5C924.374,480.638 907.207,495.971 881.5,501.5C880.081,502.451 878.415,502.784 876.5,502.5C871.427,503.565 866.261,503.231 861,501.5C856.029,504.156 850.696,505.823 845,506.5C831.666,504.499 825.999,496.833 828,483.5C831.293,477.696 836.126,474.029 842.5,472.5C842.46,469.119 842.793,465.786 843.5,462.5C843.402,460.447 844.069,458.78 845.5,457.5C847.689,448.872 853.356,444.205 862.5,443.5C870.075,443.925 875.242,447.592 878,454.5C878.707,460.325 878.373,465.991 877,471.5C896.38,465.627 905.213,452.627 903.5,432.5C896.997,428.414 890.33,424.581 883.5,421C880.705,419.207 878.205,417.04 876,414.5C869.674,400.664 862.507,387.33 854.5,374.5C851.5,371.833 848.5,369.167 845.5,366.5C830.834,355.224 814.167,350.058 795.5,351C800.901,358.837 802.735,367.337 801,376.5C797.167,384.122 791.001,386.955 782.5,385C778.667,383.167 775.833,380.333 774,376.5C774.997,361.488 769.664,349.155 758,339.5C757.667,354.5 757.333,369.5 757,384.5C751.724,392.944 744.557,395.11 735.5,391C734.619,390.292 733.953,389.458 733.5,388.5ZM532.5,565.5C509.181,551.275 483.847,546.275 456.5,550.5C451.763,580.97 437.43,605.97 413.5,625.5C402.388,635.084 390.055,642.917 376.5,649C368.965,655.011 366.298,662.844 368.5,672.5C389.881,668.242 408.381,673.576 424,688.5C435.607,704.469 436.607,721.136 427,738.5C418.996,750.003 407.996,756.336 394,757.5C375.854,756.699 357.687,756.199 339.5,756C327.753,753.874 318.253,748.041 311,738.5C297.108,721.845 286.775,703.178 280,682.5C278.026,669.596 283.526,663.429 296.5,664C299.902,665.4 302.736,667.567 305,670.5C308.901,680.875 313.568,690.875 319,700.5C325.29,709.289 332.123,717.622 339.5,725.5C356.931,726.154 374.265,726.82 391.5,727.5C398.902,727.093 402.569,723.093 402.5,715.5C401.294,709.116 397.628,704.616 391.5,702C350.669,709.817 332.169,693.317 336,652.5C342.365,638.8 352.199,628.3 365.5,621C388.062,611.098 405.562,595.598 418,574.5C424.439,561.199 426.772,547.199 425,532.5C422.917,523.261 422.251,513.928 423,504.5C428.888,493.987 437.055,491.821 447.5,498C449.652,500.469 451.152,503.302 452,506.5C452.499,510.821 452.666,515.154 452.5,519.5C517.405,511.857 563.905,537.19 592,595.5C595.346,604.701 598.179,614.035 600.5,623.5C602.767,628.546 604.434,633.879 605.5,639.5C616.566,673.655 634.733,703.321 660,728.5L661.5,727C677.167,726.667 692.833,726.333 708.5,726C714.089,723.549 715.922,719.383 714,713.5C711.045,704.87 705.045,700.536 696,700.5C681.285,704.96 669.619,700.96 661,688.5C644.723,655.839 639.39,621.506 645,585.5C653.249,555.584 672.416,536.751 702.5,529C716.058,519.199 721.725,505.865 719.5,489C724.559,464.51 737.893,446.177 759.5,434C777.305,427.715 793.972,429.715 809.5,440C818.793,448.767 819.793,458.267 812.5,468.5C808.364,470.447 804.03,470.947 799.5,470C795.844,466.837 791.844,464.171 787.5,462C783.08,461.232 778.747,461.398 774.5,462.5C770.309,463.262 766.642,465.096 763.5,468C756.516,475.132 752.016,483.632 750,493.5C750.456,516.324 742.29,535.324 725.5,550.5C716.079,556.817 705.746,561.317 694.5,564C678.484,575.213 671.484,590.713 673.5,610.5C673.419,631.263 677.253,651.263 685,670.5C710.014,667.826 729.014,677.159 742,698.5C749.885,717.408 746.385,733.908 731.5,748C726.499,752 720.832,754.666 714.5,756C694.833,756.667 675.167,756.667 655.5,756C648.439,753.971 642.106,750.637 636.5,746C617.013,726.524 601.347,704.357 589.5,679.5C584.909,668.898 580.409,658.231 576,647.5C571.462,631.68 566.462,616.014 561,600.5C554.343,586.518 544.843,574.852 532.5,565.5ZM105.5,645.5C96.612,623.267 99.445,602.601 114,583.5C126.471,570.602 141.304,567.102 158.5,573C171.667,578.167 180.833,587.333 186,600.5C189,610.167 192,619.833 195,629.5C196.98,638.704 193.813,645.204 185.5,649C178.495,650.084 172.662,647.918 168,642.5C164.564,634.426 161.897,626.093 160,617.5C157.43,608.613 151.93,602.613 143.5,599.5C136.362,601.474 132.195,606.14 131,613.5C129.461,622.804 131.128,631.471 136,639.5C152.354,661.079 174.187,670.912 201.5,669C242.757,661.633 275.257,640.8 299,606.5C303.438,599.177 307.105,591.51 310,583.5C311.941,575.286 312.774,566.953 312.5,558.5C301.773,484.138 327.773,426.638 390.5,386C407.142,375.897 425.142,369.563 444.5,367C513.849,366.956 583.182,366.289 652.5,365C663.224,364.402 673.558,362.069 683.5,358C691.106,354.281 698.606,350.447 706,346.5C717.324,348.856 721.991,355.856 720,367.5C717.092,373.373 712.592,377.54 706.5,380C690.463,388.234 673.463,393.234 655.5,395C588.167,395.333 520.833,395.667 453.5,396C426.105,398.537 402.771,409.37 383.5,428.5C361.771,447.272 348.271,470.939 343,499.5C342.667,525.5 342.333,551.5 342,577.5C336.458,605.259 323.625,628.925 303.5,648.5C284.395,665.895 263.062,680.062 239.5,691C220.067,697.967 200.067,700.633 179.5,699C172.18,697.921 165.18,696.088 158.5,693.5C134.809,684.154 117.142,668.154 105.5,645.5ZM431.5,745.5C429.412,738.988 430.745,733.155 435.5,728C436.5,727.667 437.5,727.333 438.5,727C487.5,726.333 536.5,726.333 585.5,727C594.044,730.252 597.211,736.419 595,745.5C594.576,748.025 593.41,750.025 591.5,751.5C590.025,753.41 588.025,754.576 585.5,755C537.5,755.667 489.5,755.667 441.5,755C436.772,753.769 433.439,750.936 431.5,746.5L431.5,745.5ZM837.5,387.5C853.126,388.453 862.126,396.787 864.5,412.5C862.158,427.002 854.158,431.502 840.5,426C830.042,416.308 827.209,404.808 832,391.5C834.015,390.303 835.849,388.97 837.5,387.5ZM133.5,726.5C180.835,726.333 228.168,726.5 275.5,727C281.302,729.813 284.302,734.48 284.5,741C284.315,748.073 280.982,752.74 274.5,755C227.833,755.667 181.167,755.667 134.5,755C128.078,752.329 125.078,747.496 125.5,740.5C125.104,733.945 127.771,729.279 133.5,726.5ZM785.5,726.5C823.835,726.333 862.168,726.5 900.5,727C908.61,731.064 911.443,737.564 909,746.5C907.402,751.099 904.235,753.932 899.5,755C861.833,755.667 824.167,755.667 786.5,755C780.088,752.353 777.088,747.52 777.5,740.5C777.13,733.887 779.797,729.22 785.5,726.5Z"/>
    </g>
</svg>
