<?xml version="1.0" encoding="UTF-8" standalone="no"?>
<!DOCTYPE svg PUBLIC "-//W3C//DTD SVG 1.1//EN" "http://www.w3.org/Graphics/SVG/1.1/DTD/svg11.dtd">
<svg width="100%" height="100%" viewBox="0 0 1024 1024" version="1.1" xmlns="http://www.w3.org/2000/svg" xmlns:xlink="http://www.w3.org/1999/xlink" xml:space="preserve" xmlns:serif="http://www.serif.com/" style="fill-rule:evenodd;clip-rule:evenodd;stroke-linejoin:round;stroke-miterlimit:2;">
    <g transform="matrix(1.34618,0,0,1.34618,-222.516,-217.848)">
        <path d="M546.5,776.5C539.897,784.276 533.063,791.942 526,799.5C502.216,823.073 478.883,847.073 456,871.5C434.962,895.623 408.795,904.123 377.5,897C354.682,887.876 344.849,871.043 348,846.5C350.709,838.626 354.876,831.626 360.5,825.5C376.54,809.96 392.373,794.293 408,778.5C415.382,763.957 416.382,748.957 411,733.5C404.093,719.348 396.427,705.681 388,692.5C375.664,669.496 365.664,645.496 358,620.5C356.426,615.616 355.593,610.616 355.5,605.5C336.042,602.628 317.042,597.795 298.5,591C274.574,579.65 264.407,560.817 268,534.5C282.61,498.446 305.11,468.279 335.5,444C349.363,435.274 364.196,429.108 380,425.5C383.657,408.845 387.324,392.179 391,375.5C393.024,335.531 394.024,295.531 394,255.5C394.748,235.265 398.415,215.599 405,196.5C419.095,165.365 442.262,155.199 474.5,166C482.108,170.467 488.441,176.3 493.5,183.5C530.16,163.371 558.326,171.705 578,208.5C579.644,213.077 580.978,217.744 582,222.5C585.739,251.333 583.406,279.666 575,307.5C560.322,362.2 534.655,410.867 498,453.5C507.707,488.922 502.374,521.922 482,552.5C463.033,577.584 438.2,594.084 407.5,602C395.979,604.732 384.312,606.565 372.5,607.5C378.217,625.601 385.051,643.268 393,660.5C405.015,683.198 417.015,705.865 429,728.5C437.879,749.889 435.879,770.222 423,789.5C421,792.167 419,794.833 417,797.5C401.974,811.861 386.974,826.194 372,840.5C361.456,855.677 363.956,868.177 379.5,878C397.651,883.807 414.651,881.474 430.5,871C466.107,833.729 501.941,796.896 538,760.5C534.789,712.107 552.622,673.94 591.5,646C612.14,633.604 634.474,628.604 658.5,631C690.242,635.461 718.909,647.127 744.5,666C776.482,692.134 792.815,725.967 793.5,767.5C793.168,778.52 793.501,789.52 794.5,800.5C795.107,800.376 795.44,800.043 795.5,799.5C796.356,795.43 797.523,791.43 799,787.5C816.079,755.925 820.413,722.592 812,687.5C804.925,655.678 790.259,628.011 768,604.5C725.048,559.157 672.048,536.49 609,536.5C598.396,536.767 587.896,537.934 577.5,540C547.494,548.557 517.66,557.724 488,567.5C485.021,566.228 483.521,563.895 483.5,560.5C483.593,555.936 485.259,552.103 488.5,549C514.901,539.533 541.568,530.866 568.5,523C597.792,515.941 627.125,515.941 656.5,523C727.227,537.905 780.061,576.738 815,639.5C833.016,676.893 838.016,715.893 830,756.5C827.439,767.02 823.606,777.02 818.5,786.5C819.002,787.521 819.668,787.688 820.5,787C821.665,785.008 822.998,783.175 824.5,781.5C832.025,770.769 836.191,758.769 837,745.5C837.728,720.153 837.395,694.82 836,669.5C834.544,655.674 831.21,642.341 826,629.5C822.412,623.325 819.078,616.991 816,610.5C807.153,598.989 798.319,587.489 789.5,576C789.735,572.601 791.402,570.268 794.5,569C798.625,568.146 802.625,568.48 806.5,570C827.601,591.027 842.435,615.861 851,644.5C852.982,652.391 854.315,660.391 855,668.5C855.752,691.834 856.085,715.167 856,738.5C855.738,758.559 850.071,776.893 839,793.5C836.963,795.706 834.797,797.706 832.5,799.5C828.473,803.183 823.806,805.85 818.5,807.5L817.5,808.5C818.63,809.622 819.297,810.956 819.5,812.5C832.987,831.478 833.82,851.145 822,871.5C810.789,887.526 795.289,895.859 775.5,896.5C685.001,897.666 594.334,897.832 503.5,897C498.99,895.582 494.99,893.415 491.5,890.5C484.807,881.701 483.14,872.035 486.5,861.5C493.648,847.863 504.648,838.697 519.5,834C528.36,831.579 537.36,829.912 546.5,829C563.483,827.945 580.483,827.278 597.5,827C580.246,809.576 563.246,792.742 546.5,776.5ZM811.5,849.5C811.984,843.3 811.151,837.3 809,831.5C802.282,823.803 793.782,819.303 783.5,818C780.86,817.104 778.693,815.604 777,813.5C776.667,797.167 776.333,780.833 776,764.5C773.789,735.76 763.122,710.76 744,689.5C718.855,667.019 689.355,653.852 655.5,650C630.869,647.212 609.202,653.878 590.5,670C565.263,694.03 554.43,723.53 558,758.5C560.266,762.042 562.766,765.375 565.5,768.5C584.833,787.167 603.833,806.167 622.5,825.5C625.13,827.628 627.63,829.961 630,832.5C633.186,838.919 631.353,843.085 624.5,845C601.5,845.333 578.5,845.667 555.5,846C541.184,846.882 527.517,850.216 514.5,856C507.419,860.993 503.586,867.827 503,876.5C509.211,878.434 515.711,879.101 522.5,878.5C607.501,878.667 692.501,878.5 777.5,878C795.732,876.592 807.066,867.092 811.5,849.5ZM402.5,407.5C402.051,411.527 401.384,415.527 400.5,419.5C400.833,420.167 401.167,420.833 401.5,421.5C403.024,416.726 403.357,412.059 402.5,407.5ZM410.5,371.5C410.336,374.187 410.503,376.854 411,379.5C415.774,353.964 421.44,328.631 428,303.5C439.084,265.502 455.917,230.335 478.5,198C477.132,195.433 475.632,192.933 474,190.5C466.797,180.876 457.297,177.376 445.5,180C431.641,186.188 422.808,196.688 419,211.5C415.741,226.996 413.908,242.662 413.5,258.5C413.81,261.713 413.477,264.713 412.5,267.5C412.544,296.172 412.211,324.839 411.5,353.5C411.823,359.69 411.49,365.69 410.5,371.5ZM523.5,190.5C511.285,193.367 501.118,199.7 493,209.5C479.767,227.289 469.1,246.622 461,267.5C440.122,322.346 427.122,379.013 422,437.5L419.5,440C381.522,439.101 349.355,452.267 323,479.5C310.433,494.742 299.433,511.075 290,528.5C281.935,546.184 285.768,560.684 301.5,572C313.749,576.194 326.083,580.194 338.5,584C376.031,592.827 411.031,586.827 443.5,566C480.737,534.953 491.57,496.453 476,450.5C498.114,426.282 516.78,399.615 532,370.5C552.229,330.916 563.396,288.916 565.5,244.5C566.001,234.507 564.501,224.84 561,215.5C554.357,198.582 541.857,190.249 523.5,190.5ZM513.5,268.5C522.681,267.604 526.681,271.771 525.5,281C523.315,299.222 518.482,316.722 511,333.5C492.745,371.196 471.578,407.03 447.5,441C438.477,443.386 434.644,439.886 436,430.5C436.862,428.913 437.529,427.246 438,425.5C451.667,402.5 465.333,379.5 479,356.5C489.245,337.672 497.579,318.005 504,297.5C506.177,289.638 507.51,281.638 508,273.5C509.107,270.887 510.94,269.22 513.5,268.5ZM351.5,499.5C365.859,499.518 371.026,506.518 367,520.5C360.223,527.978 353.223,528.312 346,521.5C341.373,512.438 343.206,505.105 351.5,499.5ZM749.5,906.5C752.677,912.449 751.677,917.616 746.5,922C655.5,922.667 564.5,922.667 473.5,922C469.363,917.413 468.529,912.247 471,906.5C472.129,904.859 473.629,903.859 475.5,903.5L747.5,903.5C748.906,903.973 749.573,904.973 749.5,906.5ZM238.5,903.5C261.502,903.333 284.502,903.5 307.5,904C312.558,907.827 313.725,912.66 311,918.5C309.786,920.049 308.286,921.215 306.5,922C284.833,922.667 263.167,922.667 241.5,922C235.891,918.723 234.058,913.89 236,907.5C236.662,906.016 237.496,904.683 238.5,903.5Z"/>
    </g>
</svg>
