<?xml version="1.0" encoding="UTF-8" standalone="no"?>
<!DOCTYPE svg PUBLIC "-//W3C//DTD SVG 1.1//EN" "http://www.w3.org/Graphics/SVG/1.1/DTD/svg11.dtd">
<svg width="100%" height="100%" viewBox="0 0 1024 1024" version="1.1" xmlns="http://www.w3.org/2000/svg" xmlns:xlink="http://www.w3.org/1999/xlink" xml:space="preserve" xmlns:serif="http://www.serif.com/" style="fill-rule:evenodd;clip-rule:evenodd;stroke-linejoin:round;stroke-miterlimit:2;">
    <g transform="matrix(1.42391,0,0,1.42391,-214.166,-283.443)">
        <path d="M853.5,465.5C845.343,471.284 836.343,475.451 826.5,478C808.27,480.864 789.937,482.864 771.5,484C787.243,487.706 801.577,494.373 814.5,504C827.673,513.837 832.173,526.67 828,542.5C822.631,549.109 815.797,553.609 807.5,556C798.298,558.274 788.965,559.441 779.5,559.5C722.101,557.995 665.101,552.495 608.5,543C583.547,538.772 561.714,528.272 543,511.5C542.5,519.493 542.334,527.493 542.5,535.5C542.826,635.195 542.493,734.862 541.5,834.5C536.772,850.558 526.105,859.892 509.5,862.5C503.014,861.84 497.514,859.174 493,854.5C487.17,847.842 483.17,840.175 481,831.5C480.531,725.471 480.364,619.471 480.5,513.5C458.6,531.94 433.267,542.44 404.5,545C345.14,553.76 285.473,558.427 225.5,559C213.613,558.753 203.78,554.253 196,545.5C190.964,535.175 191.631,525.175 198,515.5C210.689,499.069 227.189,488.569 247.5,484C228.779,482.48 210.112,480.48 191.5,478C174.485,472.972 161.652,462.806 153,447.5C146.705,427.387 151.871,410.887 168.5,398C186.763,384.2 206.763,373.533 228.5,366C234.782,364.675 241.115,363.675 247.5,363C264.833,362.333 282.167,362.333 299.5,363C357.054,367.765 414.387,374.432 471.5,383C476.167,383.667 480.833,383.667 485.5,383C448.296,365.075 435.796,336.242 448,296.5C463.283,266.587 487.783,252.754 521.5,255C554.819,261.485 574.486,281.319 580.5,314.5C581.356,332.242 577.689,348.908 569.5,364.5C568.719,363.271 568.219,361.938 568,360.5C565.279,364.044 562.446,367.378 559.5,370.5C552.496,375.673 544.829,379.839 536.5,383C593.038,375.829 649.705,369.496 706.5,364C730.837,362.059 755.17,362.059 779.5,364C789.035,366.05 798.369,368.716 807.5,372C823.993,380.075 839.66,389.408 854.5,400C860.357,405.541 864.857,412.041 868,419.5C869.225,424.085 869.725,428.752 869.5,433.5C868.384,446.398 863.051,457.065 853.5,465.5ZM719.5,384.5C705.225,385.576 690.891,387.41 676.5,390C666.833,390.333 657.167,390.667 647.5,391C612.379,395.031 577.379,399.865 542.5,405.5L542.5,420.5C586.473,428.264 630.806,432.264 675.5,432.5C716.221,430.568 756.887,427.734 797.5,424C812.378,422.814 826.545,420.314 840,416.5C804.779,388.339 764.612,377.672 719.5,384.5ZM501.5,276.5C496.489,278.348 491.489,280.514 486.5,283C468.924,295.38 462.091,312.213 466,333.5C476.426,356.465 494.259,367.299 519.5,366C550.472,358.892 562.972,339.725 557,308.5C546.503,284.325 528.003,273.658 501.5,276.5ZM477.5,479.5C425.264,487.441 372.597,492.275 319.5,494C299.026,496.496 278.693,499.829 258.5,504C249.873,506.209 241.54,509.209 233.5,513C226.427,516.738 220.594,521.904 216,528.5C215.257,530.441 215.424,532.274 216.5,534C224.008,536.018 231.675,536.851 239.5,536.5C293.815,536.307 347.815,532.14 401.5,524C416.15,522.119 430.15,518.119 443.5,512C456.277,503.555 468.777,494.722 481,485.5C481.495,483.527 481.662,481.527 481.5,479.5L477.5,479.5ZM173.5,438.5C180.207,447.359 188.874,453.526 199.5,457C246.169,462.167 292.836,467.334 339.5,472.5C386.931,468.321 434.265,463.321 481.5,457.5C481.827,452.456 481.494,447.456 480.5,442.5C427.147,450.501 373.48,454.001 319.5,453C284.794,450.815 250.127,448.148 215.5,445C201.408,444.652 187.741,442.152 174.5,437.5C173.893,437.624 173.56,437.957 173.5,438.5ZM541.5,478.5C541.709,479.922 542.209,481.255 543,482.5C557.672,496.087 573.839,507.587 591.5,517C660.971,532.873 731.305,538.873 802.5,535C804.651,534.735 806.318,533.735 807.5,532C801.931,521.104 793.264,513.771 781.5,510C757.367,502.503 732.7,497.503 707.5,495C678.433,494.024 649.433,492.024 620.5,489C594.115,485.744 567.782,482.244 541.5,478.5ZM551.5,458.5C593.128,463.579 634.795,468.245 676.5,472.5C724.472,467.17 772.472,462.004 820.5,457C832.244,454.798 841.244,448.631 847.5,438.5L846.5,437.5C839.671,439.9 832.671,441.734 825.5,443C776.413,447.808 727.246,451.641 678,454.5C632.933,453.508 588.1,449.841 543.5,443.5C542.515,447.634 542.182,451.968 542.5,456.5C545.689,456.858 548.689,457.525 551.5,458.5ZM520.5,411.5C520.877,404.743 520.377,398.076 519,391.5C513.412,384.965 508.079,384.965 503,391.5C502.333,468.167 502.333,544.833 503,621.5C504.895,627.34 505.895,633.34 506,639.5C506.803,642.244 507.803,644.911 509,647.5C509.498,645.473 509.331,643.473 508.5,641.5C508.667,640.833 508.833,640.167 509,639.5C510.827,643.281 511.827,647.281 512,651.5C519.281,637.706 522.115,623.039 520.5,607.5L520.5,411.5ZM250.5,384.5C245.306,385.3 239.972,386.133 234.5,387C214.342,393.245 196.009,402.912 179.5,416C188.001,418.64 196.668,420.64 205.5,422C233.829,424.714 262.163,427.381 290.5,430C322.467,432.876 354.467,433.21 386.5,431C417.925,428.558 449.258,425.391 480.5,421.5L480.5,406.5C420.197,396.212 359.531,389.045 298.5,385C282.503,384.5 266.503,384.333 250.5,384.5ZM507.5,676.5C504.258,678.007 502.758,680.674 503,684.5C502.248,704.185 502.582,723.851 504,743.5C506.064,740.274 508.564,737.607 511.5,735.5C514.777,736.942 517.277,739.275 519,742.5L520,741.5C520.667,721.833 520.667,702.167 520,682.5C517.497,677.362 513.33,675.362 507.5,676.5ZM508.5,771.5C505.772,773.069 503.938,775.402 503,778.5C502.333,793.833 502.333,809.167 503,824.5C504.384,830.869 507.718,835.869 513,839.5C516.559,836.738 518.892,833.072 520,828.5C520.667,811.5 520.667,794.5 520,777.5C517.425,773.093 513.592,771.093 508.5,771.5Z"/>
    </g>
</svg>
