<?xml version="1.0" encoding="UTF-8" standalone="no"?>
<!DOCTYPE svg PUBLIC "-//W3C//DTD SVG 1.1//EN" "http://www.w3.org/Graphics/SVG/1.1/DTD/svg11.dtd">
<svg width="100%" height="100%" viewBox="0 0 1024 1024" version="1.1" xmlns="http://www.w3.org/2000/svg" xmlns:xlink="http://www.w3.org/1999/xlink" xml:space="preserve" xmlns:serif="http://www.serif.com/" style="fill-rule:evenodd;clip-rule:evenodd;stroke-linejoin:round;stroke-miterlimit:2;">
    <g transform="matrix(1.38616,0,0,1.38616,-210.239,-170.937)">
        <path d="M431.5,574.5C418.496,574.667 405.496,574.5 392.5,574C388.961,570.613 387.628,566.447 388.5,561.5C388.345,556.977 390.345,553.811 394.5,552C487.166,551.5 579.833,551.333 672.5,551.5C674.167,552.167 675.833,552.833 677.5,553.5C681.182,556.371 682.848,560.205 682.5,565C683.286,569.878 681.286,572.878 676.5,574C594.834,574.5 513.167,574.667 431.5,574.5ZM591.5,631.5C589.821,631.892 588.154,632.392 586.5,633C544.823,633.775 503.157,633.609 461.5,632.5C461.103,631.475 460.437,631.308 459.5,632L453,638.5C438.955,655.04 425.122,671.707 411.5,688.5C408.288,692.533 404.288,695.7 399.5,698C393.25,698.442 389.084,695.608 387,689.5C386.25,683.072 387.583,677.072 391,671.5C409.44,653.398 426.774,634.398 443,614.5C444.17,611.495 445.336,608.495 446.5,605.5C456.786,604.358 467.12,604.191 477.5,605C479.056,605.72 480.056,606.887 480.5,608.5C509.123,609.484 537.789,609.817 566.5,609.5C565.102,592.681 572.435,587.181 588.5,593C591.952,596.734 594.785,600.9 597,605.5C621.361,630.195 646.028,654.528 671,678.5C676.435,689.286 673.435,696.286 662,699.5C658.823,699.109 655.99,697.943 653.5,696C632.63,674.631 611.963,653.131 591.5,631.5ZM383.5,533.5C372.162,533.333 360.828,533.5 349.5,534C337.758,536.282 326.092,538.949 314.5,542C322.059,549.395 330.059,556.229 338.5,562.5C342.212,558.976 346.545,556.476 351.5,555C365.212,556.608 368.546,563.441 361.5,575.5C347.703,583.906 334.37,593.073 321.5,603C315.167,608 309.5,613.667 304.5,620C272.259,634.454 240.259,649.454 208.5,665C205.132,666.551 201.632,667.717 198,668.5C193.542,667.045 190.876,664.045 190,659.5C189.333,656.167 189.333,652.833 190,649.5C221.512,631.995 254.012,616.495 287.5,603C291.8,599.702 295.8,596.035 299.5,592C306.516,587.826 313.183,583.159 319.5,578C304.292,562.959 289.292,547.793 274.5,532.5C273.352,534.149 272.019,535.649 270.5,537C223.445,551.651 187.945,537.484 164,494.5C150.909,466.513 148.242,437.513 156,407.5C158.473,395.986 165.306,391.486 176.5,394C178.617,395.731 180.117,397.898 181,400.5C179.647,409.908 177.647,419.241 175,428.5C172.376,453.667 178.042,476.667 192,497.5C206.798,515.49 225.631,522.656 248.5,519C256.927,516.905 262.427,511.739 265,503.5C267.089,451.235 282.756,403.568 312,360.5C353.047,308.718 406.547,278.884 472.5,271C549.819,266.197 624.819,277.197 697.5,304C748.37,323.883 789.536,356.05 821,400.5C844.227,437.176 855.894,477.176 856,520.5C853.235,526.931 848.402,530.764 841.5,532C831.068,532.048 820.735,532.714 810.5,534C789.484,551.518 767.484,567.685 744.5,582.5C744.977,583.478 745.643,584.311 746.5,585C793.217,606.242 840.217,626.908 887.5,647C892.626,655.711 890.96,662.711 882.5,668C880.833,668.667 879.167,668.667 877.5,668C830.346,647.337 783.179,626.837 736,606.5C734.496,603.491 732.996,600.491 731.5,597.5C720.615,590.453 710.449,582.453 701,573.5C697.255,562.588 701.088,557.422 712.5,558C718.214,559.392 723.214,562.059 727.5,566C728.5,566.667 729.5,566.667 730.5,566L775.5,533C644.912,533.496 514.246,533.663 383.5,533.5ZM775.5,489.5C637.833,489.333 500.166,489.5 362.5,490C337.341,491.785 314.008,499.118 292.5,512C299.015,515.172 305.848,517.338 313,518.5C325.666,515.168 338.499,512.668 351.5,511C513.174,510.958 674.84,510.291 836.5,509C834.129,506.294 831.463,503.961 828.5,502C814.474,494.427 799.474,490.594 783.5,490.5C780.615,490.806 777.948,490.473 775.5,489.5ZM300.5,482.5C305.768,480.3 311.101,478.3 316.5,476.5C319.884,474.557 323.551,473.057 327.5,472C346.855,467.071 366.522,465.238 386.5,466.5L407.5,466.5C531.169,466.52 654.836,466.353 778.5,466C791.79,467.214 804.79,469.714 817.5,473.5C820.427,474.65 823.427,475.65 826.5,476.5L827.5,475.5C824.202,460.301 819.369,445.634 813,431.5C792.674,394.839 764.507,365.673 728.5,344C684.513,320.783 637.847,305.783 588.5,299C563.039,294.362 537.373,292.195 511.5,292.5C474.244,291.375 438.577,298.208 404.5,313C385.39,322.285 368.39,334.452 353.5,349.5C347.171,354.996 341.337,360.996 336,367.5C308.687,402.808 293.687,442.808 291,487.5C294.149,485.677 297.316,484.01 300.5,482.5ZM669.5,578.5C675.899,578.031 681.565,579.864 686.5,584C693.019,589.096 699.352,594.429 705.5,600C710.159,603.226 715.159,605.893 720.5,608C723.5,612.333 727.167,616 731.5,619C739.562,621.865 747.229,625.531 754.5,630C758.287,630.16 761.954,630.826 765.5,632C772.568,639.738 780.234,646.738 788.5,653C799.167,661 809.833,669 820.5,677C823.964,679.047 827.63,680.713 831.5,682C836.178,687.106 836.678,692.606 833,698.5C827.341,702.686 821.174,703.519 814.5,701C798.193,687.848 781.526,675.181 764.5,663C758.167,657.333 751.833,651.667 745.5,646C736.845,643.336 728.178,640.669 719.5,638C704.558,626.282 689.724,614.449 675,602.5C671.177,604.985 667.344,607.485 663.5,610C662.549,610.718 662.383,611.551 663,612.5L735.5,685C740.422,688.378 745.255,691.878 750,695.5C754.091,702.942 752.924,709.442 746.5,715C742.375,715.854 738.375,715.52 734.5,714C694.64,675.472 654.807,636.972 615,598.5C612.282,591.651 614.115,586.484 620.5,583C624.905,582.304 629.239,582.637 633.5,584C638.327,587.827 642.827,591.994 647,596.5C653.931,589.64 661.431,583.64 669.5,578.5ZM388.5,577.5C398.425,575.39 406.258,578.39 412,586.5C423.35,580.093 430.184,583.26 432.5,596C432.344,599.817 431.178,603.317 429,606.5C396.528,641.641 364.028,676.807 331.5,712C325.854,715.698 319.854,716.365 313.5,714C307.879,707.021 308.212,700.355 314.5,694C320.152,691.25 324.986,687.417 329,682.5C332.955,676.877 337.288,671.543 342,666.5C361.535,645.869 380.701,625.035 399.5,604C393.843,603.501 388.176,603.334 382.5,603.5C382.025,611.273 378.358,617.106 371.5,621C362.156,626.112 352.49,630.445 342.5,634C312.833,655 283.167,676 253.5,697C247.764,701.128 241.431,702.462 234.5,701C228.886,695.096 228.219,688.763 232.5,682C255.993,667.504 278.659,651.837 300.5,635C311.851,628.995 322.518,621.995 332.5,614C340.978,610.008 349.645,606.508 358.5,603.5C361.089,597.984 364.422,592.984 368.5,588.5C375.55,585.313 382.217,581.646 388.5,577.5Z"/>
    </g>
</svg>
