<?xml version="1.0" encoding="UTF-8" standalone="no"?>
<!DOCTYPE svg PUBLIC "-//W3C//DTD SVG 1.1//EN" "http://www.w3.org/Graphics/SVG/1.1/DTD/svg11.dtd">
<svg width="100%" height="100%" viewBox="0 0 1024 1024" version="1.1" xmlns="http://www.w3.org/2000/svg" xmlns:xlink="http://www.w3.org/1999/xlink" xml:space="preserve" xmlns:serif="http://www.serif.com/" style="fill-rule:evenodd;clip-rule:evenodd;stroke-linejoin:round;stroke-miterlimit:2;">
    <g transform="matrix(1.32852,0,0,1.32852,-163.662,-159.962)">
        <path d="M285.5,265.5C293.05,264.543 300.05,266.043 306.5,270C331.052,285.887 355.052,302.554 378.5,320C386.731,327.625 392.564,336.791 396,347.5C399.08,359.407 401.747,371.407 404,383.5C406.133,390.231 408.466,396.898 411,403.5C419.667,420.833 428.333,438.167 437,455.5C439.21,462.017 439.876,468.684 439,475.5C432.428,485.084 425.095,485.751 417,477.5C414,469.167 411,460.833 408,452.5C390.813,423.609 379.146,392.609 373,359.5C369.679,348.341 363.513,339.174 354.5,332C337.362,320.362 320.362,308.528 303.5,296.5C302.334,312.156 302.167,327.823 303,343.5C304.683,352.198 308.017,360.198 313,367.5C322.634,376.793 330.301,387.46 336,399.5C338.053,406.95 336.22,413.116 330.5,418C324.505,420.618 319.338,419.451 315,414.5C311.861,406.888 308.194,399.554 304,392.5C294.395,383.228 286.729,372.562 281,360.5C279.844,356.877 278.844,353.211 278,349.5C277.333,323.5 277.333,297.5 278,271.5C280.075,268.89 282.575,266.89 285.5,265.5ZM718.5,335.5C719.825,322.661 719.825,309.661 718.5,296.5C717.893,296.624 717.56,296.957 717.5,297.5C698.439,309.722 679.772,322.556 661.5,336C654.499,342.829 649.665,350.996 647,360.5C639.537,393.891 627.537,425.558 611,455.5C608.028,462.721 605.361,470.055 603,477.5C596.513,484.962 589.846,485.295 583,478.5C580.681,469.301 581.348,460.301 585,451.5C594.685,435.49 603.018,418.823 610,401.5C615.333,382.167 620.667,362.833 626,343.5C629.83,333.354 635.997,324.854 644.5,318C669.977,299.424 696.31,282.091 723.5,266C731.851,264.001 738.351,266.501 743,273.5C743.667,297.833 743.667,322.167 743,346.5C741.737,357.627 737.737,367.627 731,376.5C725.333,382.833 719.667,389.167 714,395.5L705,413.5C697.072,421.937 690.072,421.271 684,411.5C682.348,403.119 684.015,395.453 689,388.5C697.76,379.077 705.76,369.077 713,358.5C716.564,351.245 718.397,343.579 718.5,335.5ZM240.5,610.5C235.847,619.807 231.18,629.14 226.5,638.5C227.167,638.833 227.833,639.167 228.5,639.5C238.655,636.5 248.988,635 259.5,635C266.18,636.347 270.18,640.347 271.5,647C267.257,664.315 259.924,680.149 249.5,694.5C250.167,694.833 250.833,695.167 251.5,695.5C290.658,688.715 329.992,683.049 369.5,678.5C375.878,677.792 380.045,680.459 382,686.5C383.42,694.727 380.253,700.227 372.5,703C342.536,707.145 312.536,711.145 282.5,715C273.787,716.643 265.12,718.476 256.5,720.5C264.557,733.947 274.057,746.28 285,757.5C325.856,735.489 368.023,716.323 411.5,700C415.394,697.741 419.061,698.074 422.5,701C428.704,710.291 427.037,717.957 417.5,724C363.928,743.953 312.928,768.953 264.5,799C259.486,802.009 254.153,804.175 248.5,805.5C243.725,805.032 240.225,802.699 238,798.5C235.325,792.04 236.158,786.206 240.5,781L262.5,770C250.503,755.669 239.669,740.502 230,724.5C224.852,727.653 219.686,730.653 214.5,733.5C207.132,735.4 202.299,732.733 200,725.5C199.333,722.167 199.333,718.833 200,715.5C214.939,700.402 227.772,683.735 238.5,665.5C238.333,665.167 238.167,664.833 238,664.5C236.266,665.249 234.433,665.749 232.5,666C218.825,666.61 205.159,666.943 191.5,667C183.813,662.045 182.647,655.879 188,648.5C201.545,633.416 212.045,616.416 219.5,597.5C238.46,549.623 252.126,500.289 260.5,449.5C260.427,442.205 258.927,435.205 256,428.5C248.556,416.614 241.889,404.28 236,391.5C233.05,382.368 231.05,373.035 230,363.5C229.5,290.167 229.333,216.834 229.5,143.5C229.13,137.075 229.63,130.742 231,124.5C236.206,120.158 242.04,119.325 248.5,122C251.135,123.961 252.969,126.461 254,129.5C254.168,139.517 254.668,149.517 255.5,159.5C267.03,167.529 278.697,175.363 290.5,183C346.639,222.973 402.639,263.139 458.5,303.5C460.766,304.314 463.1,304.814 465.5,305C496.167,305.667 526.833,305.667 557.5,305C562.361,302.407 567.028,299.573 571.5,296.5C635.864,251.224 700.03,205.557 764,159.5C764.333,149.5 764.667,139.5 765,129.5C765.278,128.584 765.778,127.918 766.5,127.5C770.708,120.53 776.708,118.696 784.5,122C786.378,123.543 787.878,125.376 789,127.5C789.667,204.833 789.667,282.167 789,359.5C788.626,365.58 787.793,371.58 786.5,377.5C780.894,396.72 773.06,415.054 763,432.5C759.662,441.55 758.662,450.883 760,460.5C769.232,503.431 781.565,545.431 797,586.5C805.683,608.206 816.683,628.54 830,647.5C832.905,652.651 833.238,657.985 831,663.5C829.786,665.049 828.286,666.215 826.5,667C811.845,667.953 797.345,667.119 783,664.5C792.16,683.685 805.16,700.018 822,713.5C825.492,721.048 823.992,727.548 817.5,733C812.78,734.824 808.114,734.657 803.5,732.5C798.796,730.088 793.962,727.754 789,725.5C781.256,741.326 771.756,755.992 760.5,769.5C768.157,773.996 775.824,778.496 783.5,783C785.921,788.466 785.754,793.966 783,799.5C779.309,805.049 774.142,806.882 767.5,805C714.231,772.367 658.231,745.034 599.5,723C596.96,720.795 594.793,718.295 593,715.5C592.003,699.406 598.837,694.906 613.5,702C656.543,717.771 698.043,736.938 738,759.5C746.364,746.633 754.531,733.633 762.5,720.5C722.683,713.523 682.683,707.689 642.5,703C639.898,702.117 637.731,700.617 636,698.5C630.24,682.589 635.74,676.089 652.5,679C689.552,684.009 726.552,689.342 763.5,695C766.554,695.821 769.554,695.655 772.5,694.5C763.087,683.682 756.254,671.348 752,657.5C747.283,643.574 752.117,635.908 766.5,634.5C776.458,636.549 786.458,638.049 796.5,639C783.62,616.074 772.786,592.241 764,567.5C752.796,533.35 743.462,498.683 736,463.5C735.141,453.781 735.474,444.115 737,434.5C741.78,419.274 748.447,404.941 757,391.5C759.95,383.704 762.283,375.704 764,367.5C764.667,308.167 764.667,248.833 764,189.5C708.42,230.369 652.253,270.369 595.5,309.5C591.205,312.99 586.872,316.49 582.5,320C576.903,334.971 571.236,349.805 565.5,364.5C550.649,411.219 535.483,457.886 520,504.5C518.833,506.333 517.667,508.167 516.5,510C508.685,514.338 502.852,512.505 499,504.5C487.815,469.418 476.482,434.418 465,399.5C463.518,394.225 462.352,388.892 461.5,383.5C454.954,365.035 448.454,346.368 442,327.5C440.167,324.333 438.333,321.167 436.5,318C376.833,274.001 316.333,231.168 255,189.5C254.536,190.094 254.369,190.761 254.5,191.5C254.333,248.168 254.5,304.834 255,361.5C256.411,369.221 258.077,376.887 260,384.5C266.922,397.344 273.589,410.344 280,423.5C283.499,431.995 285.332,440.829 285.5,450C277.092,505.384 262.092,558.884 240.5,610.5ZM472.5,329.5C471.167,330.167 471.167,330.833 472.5,331.5C473.5,335.499 474.5,339.499 475.5,343.5C486.989,382.78 498.489,422.113 510,461.5C512.508,451.136 515.174,440.803 518,430.5C528.813,397.229 539.313,363.896 549.5,330.5C524.575,329.501 498.908,329.167 472.5,329.5ZM683.5,843.5C688.786,850.625 694.286,857.625 700,864.5C707.425,872.954 707.258,881.121 699.5,889C692.786,891.973 687.286,890.473 683,884.5C663.018,858.189 642.684,832.189 622,806.5C613.674,818.464 605.841,830.631 598.5,843C591.372,844.159 584.372,845.825 577.5,848C564.871,855.544 551.538,861.544 537.5,866C518.826,865.599 500.159,865.599 481.5,866C467.278,860.557 453.278,854.557 439.5,848C432.423,846.314 425.423,844.481 418.5,842.5C412.842,828.858 405.175,816.524 395.5,805.5C375.39,832.784 355.057,859.951 334.5,887C327.918,893.047 321.751,892.547 316,885.5C314.743,883.487 313.909,881.321 313.5,879C314.483,874.538 316.15,870.371 318.5,866.5C334.47,845.684 350.303,824.684 366,803.5C370.429,797.561 374.263,791.228 377.5,784.5C372.044,780.547 367.878,775.547 365,769.5C363.54,755.955 369.373,750.455 382.5,753C398.085,769.412 413.085,786.246 427.5,803.5C434.2,797.099 440.2,790.099 445.5,782.5C437.242,781.749 431.742,777.415 429,769.5C427.934,759.243 432.434,754.076 442.5,754C450.592,757.031 458.758,759.864 467,762.5L495.5,749C497.481,741.993 497.981,734.826 497,727.5C478.362,709.862 460.028,691.862 442,673.5C436.569,668.072 431.902,662.072 428,655.5C426.632,652.262 426.299,648.928 427,645.5C431.077,629.858 436.077,614.524 442,599.5C444.118,593.649 444.785,587.649 444,581.5C440.716,590.117 435.216,596.95 427.5,602C398.776,619.649 369.776,619.983 340.5,603C328.114,596.051 319.614,585.884 315,572.5C313.896,562.277 318.396,558.444 328.5,561C336.545,568.047 344.878,574.713 353.5,581C354.759,581.982 356.092,582.315 357.5,582C351.054,574.689 346.888,566.189 345,556.5C342.029,546.984 341.862,537.484 344.5,528C337.145,527.131 329.812,526.131 322.5,525C319.804,524.31 317.637,522.81 316,520.5C311.752,511.924 313.585,505.091 321.5,500C341.261,501.203 360.928,503.536 380.5,507C386.9,508.413 393.234,510.08 399.5,512C421.04,521.189 439.54,534.689 455,552.5C468.306,565.743 472.639,581.41 468,599.5C462.333,614.335 457.166,629.335 452.5,644.5L453.5,645.5C460.955,642.273 468.288,638.773 475.5,635C483.897,628.94 492.563,623.273 501.5,618C505.976,615.123 510.643,614.79 515.5,617C526.833,624 538.167,631 549.5,638C554.606,640.636 559.772,643.136 565,645.5C565.5,645.167 566,644.833 566.5,644.5C561.041,632.289 555.874,619.955 551,607.5C547.8,597.045 546.8,586.379 548,575.5C550.622,568.255 554.289,561.588 559,555.5C571.279,542.882 584.445,531.382 598.5,521C605.726,516.22 613.392,512.22 621.5,509C646.304,504.2 671.304,501.2 696.5,500C699.102,500.883 701.269,502.383 703,504.5C707.435,513.526 705.268,520.359 696.5,525C689.201,526.036 681.868,526.536 674.5,526.5C676.358,539.089 675.191,551.423 671,563.5C669.084,571.171 665.25,577.671 659.5,583C663.306,581.591 666.973,579.591 670.5,577C676.167,572 681.833,567 687.5,562C699.604,558.433 704.438,562.933 702,575.5C700.333,578.833 698.667,582.167 697,585.5C683.749,600.37 667.249,609.87 647.5,614C615.132,619.227 590.299,608.06 573,580.5C572.565,588.436 573.898,596.103 577,603.5C582.396,616.354 587.396,629.354 592,642.5C593.712,650.029 592.045,656.696 587,662.5C566.392,685.442 544.725,707.442 522,728.5C521.833,731.333 521.667,734.167 521.5,737C521.33,741.331 521.997,745.498 523.5,749.5C532.561,755.371 542.227,759.538 552.5,762C558.718,759.058 565.051,756.391 571.5,754C574.167,753.333 576.833,753.333 579.5,754C584.902,756.128 587.569,760.128 587.5,766C586.776,775.393 581.776,781.06 572.5,783C578.621,789.958 584.955,796.791 591.5,803.5C605.37,787.795 618.703,771.628 631.5,755C639.47,749.662 646.303,750.829 652,758.5C655.277,770.281 651.277,778.614 640,783.5C639.333,784.5 639.333,785.5 640,786.5C654.363,805.685 668.863,824.685 683.5,843.5ZM507.5,770.5C507.047,771.458 506.381,772.292 505.5,773C501.251,775.194 496.918,777.194 492.5,779C473.075,789.591 457.742,804.425 446.5,823.5C454.933,827.424 463.266,831.591 471.5,836L480.5,839C490.277,840.114 500.11,840.614 510,840.5C518.5,840.333 527,840.167 535.5,840C548.109,835.027 560.442,829.527 572.5,823.5C567.858,817.024 563.025,810.691 558,804.5C543.435,789.8 526.601,778.467 507.5,770.5ZM509.5,642.5C496.741,650.074 484.074,657.907 471.5,666C484.079,679.416 497.413,691.916 511.5,703.5C523.504,691.495 535.171,679.162 546.5,666.5C546.023,665.522 545.357,664.689 544.5,664C532.666,656.978 521,649.811 509.5,642.5ZM645.5,529.5C642.032,530.811 638.366,531.811 634.5,532.5C634.63,542.166 631.63,550.666 625.5,558C615.878,563.622 608.378,561.455 603,551.5C602.271,555.887 600.271,559.553 597,562.5C598.585,572.426 603.752,579.926 612.5,585C625.344,587.5 635.177,583 642,571.5C649.023,558.366 651.856,544.366 650.5,529.5L645.5,529.5ZM367.5,529.5C367.154,540.426 368.654,551.093 372,561.5C376.07,572.9 383.57,581.066 394.5,586C404.909,587.623 412.742,583.789 418,574.5C422.86,566.164 421.527,558.831 414,552.5C413.269,554.899 412.102,557.065 410.5,559C404.223,562.629 398.223,562.296 392.5,558C387.453,550.644 385.453,542.478 386.5,533.5C380.191,532.006 373.858,530.672 367.5,529.5ZM316.5,816.5C306.14,823.024 296.474,830.524 287.5,839C276.741,847.905 269.241,845.738 265,832.5C264.224,827.384 265.724,823.05 269.5,819.5C278.154,814.169 286.487,808.336 294.5,802C302.992,793.346 312.826,786.846 324,782.5C325.967,782.542 327.801,783.042 329.5,784C335.699,790.603 336.033,797.436 330.5,804.5C325.494,808.178 320.827,812.178 316.5,816.5ZM746.5,844.5C743.277,845.826 740.277,845.326 737.5,843C731.623,838.283 725.623,833.783 719.5,829.5C707.565,820.076 695.732,810.409 684,800.5C683.333,796.833 683.333,793.167 684,789.5C688.217,780.652 694.384,779.152 702.5,785C719.438,798.606 736.938,811.439 755,823.5C757.296,832.815 754.463,839.815 746.5,844.5Z"/>
    </g>
</svg>
