<?xml version="1.0" encoding="UTF-8" standalone="no"?>
<!DOCTYPE svg PUBLIC "-//W3C//DTD SVG 1.1//EN" "http://www.w3.org/Graphics/SVG/1.1/DTD/svg11.dtd">
<svg width="100%" height="100%" viewBox="0 0 1024 1024" version="1.1" xmlns="http://www.w3.org/2000/svg" xmlns:xlink="http://www.w3.org/1999/xlink" xml:space="preserve" xmlns:serif="http://www.serif.com/" style="fill-rule:evenodd;clip-rule:evenodd;stroke-linejoin:round;stroke-miterlimit:2;">
    <g transform="matrix(1.63685,0,0,1.63685,-325.159,-341.181)">
        <path d="M705.5,526.5C703.708,527.309 701.708,527.809 699.5,528C665.833,528.333 632.167,528.667 598.5,529C595.289,529.732 593.289,531.566 592.5,534.5C607.706,540.768 622.706,547.601 637.5,555C646.577,558.137 655.577,561.47 664.5,565C683.357,568.912 702.357,571.912 721.5,574C729.169,576.002 736.169,579.335 742.5,584C760.918,599.344 773.418,618.511 780,641.5C784.506,677.035 769.672,699.535 735.5,709C721.863,711.739 708.53,710.739 695.5,706C660.666,687.851 630.499,663.684 605,633.5C594.513,620.524 584.513,607.191 575,593.5C571.419,582.414 575.253,578.581 586.5,582C588.96,583.458 591.127,585.291 593,587.5C610.252,612.098 629.752,634.931 651.5,656C668.501,670.506 687.168,682.506 707.5,692C722.889,695.787 737.222,693.453 750.5,685C763.405,670.474 766.571,653.974 760,635.5C753.97,617.814 743.136,603.981 727.5,594C724.226,592.798 720.893,591.798 717.5,591C667.34,587.504 621.674,571.504 580.5,543C573.591,531.454 575.924,522.121 587.5,515C591.089,512.369 595.089,511.203 599.5,511.5C631.502,511.667 663.502,511.5 695.5,511C708.555,510.206 720.221,505.873 730.5,498C751.094,476.651 765.927,451.818 775,423.5C777.452,411.254 774.285,400.754 765.5,392C759.384,387.929 752.717,386.595 745.5,388C716.5,399.667 687.5,411.333 658.5,423C635.15,433.728 612.816,446.062 591.5,460C587.833,460.667 584.167,460.667 580.5,460C576.202,454.414 576.869,449.414 582.5,445C621.432,419.702 663.099,400.036 707.5,386C719.25,380.46 731.25,375.46 743.5,371C767.698,369.521 783.531,380.354 791,403.5C792.329,410.092 792.829,416.759 792.5,423.5C784.216,455.066 768.883,482.733 746.5,506.5C735.106,517.696 721.439,524.363 705.5,526.5ZM569.5,515.5C570.644,586.154 570.81,656.82 570,727.5C567.212,755.345 552.045,772.178 524.5,778C504.108,781.072 486.108,776.072 470.5,763C463.795,756.094 459.295,747.927 457,738.5C455.358,662.524 455.024,586.524 456,510.5C457.965,500.241 462.798,491.741 470.5,485C464.262,479.989 460.428,473.489 459,465.5C455.016,446.415 459.849,430.081 473.5,416.5C460.314,401.815 447.314,386.981 434.5,372C412.242,374.91 408.242,367.41 422.5,349.5C425.677,347.474 429.011,347.141 432.5,348.5C435.144,350.31 437.644,352.31 440,354.5C455.275,372.063 470.775,389.396 486.5,406.5C503.164,399.873 519.83,399.873 536.5,406.5C554.655,387.51 572.655,368.344 590.5,349C599.808,346.578 605.974,350.078 609,359.5C610.368,362.738 610.701,366.072 610,369.5C608.509,371.004 606.676,371.837 604.5,372C599.5,372.333 594.5,372.667 589.5,373C576.833,387.333 564.167,401.667 551.5,416C566.936,432.251 571.102,451.084 564,472.5C561.549,477.58 558.049,481.747 553.5,485C562.019,491.873 567.019,500.707 568.5,511.5C569.434,512.568 569.768,513.901 569.5,515.5ZM550.5,504.5C548.715,500.88 546.048,498.047 542.5,496C522.167,495.333 501.833,495.333 481.5,496C476.964,499.862 474.131,504.695 473,510.5C472.333,584.833 472.333,659.167 473,733.5C479.779,752.325 493.279,761.992 513.5,762.5C534.185,762.291 547.019,752.291 552,732.5C553.181,722.2 553.681,711.867 553.5,701.5C553.667,638.166 553.5,574.832 553,511.5C552.256,509.1 551.423,506.767 550.5,504.5ZM485.5,661.5C481.816,658.346 479.316,654.346 478,649.5C477.333,608.5 477.333,567.5 478,526.5C481.312,519.326 485.478,518.659 490.5,524.5C491.458,524.953 492.292,525.619 493,526.5C493.5,564.832 493.667,603.165 493.5,641.5C500.005,657.504 511.005,661.338 526.5,653C528.727,650.436 530.561,647.603 532,644.5C533.31,604.546 533.977,564.546 534,524.5C540.416,518.464 545.416,519.464 549,527.5C549.966,568.533 549.632,609.533 548,650.5C538.915,670.958 523.415,678.458 501.5,673C495.169,670.495 489.836,666.662 485.5,661.5ZM545.5,668.5C547.017,668.511 548.184,669.177 549,670.5C552.155,697.352 540.155,711.352 513,712.5C496.041,711.703 484.041,703.703 477,688.5C476.406,682.144 476.573,675.811 477.5,669.5C482.833,671.833 488.167,674.167 493.5,676.5C491.704,685.968 495.371,692.135 504.5,695C512.348,696.088 520.015,695.421 527.5,693C532.444,688.686 534.777,683.186 534.5,676.5C538.834,674.524 542.501,671.857 545.5,668.5ZM506.5,418.5C495.099,420.455 485.932,426.122 479,435.5C470.878,451.436 473.378,465.269 486.5,477C504.591,477.973 522.591,477.639 540.5,476C552.339,464.467 554.505,451.3 547,436.5C536.932,423.054 523.432,417.054 506.5,418.5ZM424.5,511.5C433.837,513.416 441.004,518.416 446,526.5C447.068,531.768 446.401,536.768 444,541.5C433.081,550.049 421.248,557.215 408.5,563C392.714,569.893 376.714,576.227 360.5,582C344.514,586.808 328.18,589.474 311.5,590C297.081,594.417 286.248,603.251 279,616.5C270.132,630.971 266.465,646.638 268,663.5C273.17,682.668 285.67,692.668 305.5,693.5C310.212,693.414 314.879,692.914 319.5,692C355.228,675.279 385.395,651.446 410,620.5C418.869,608.596 427.369,596.429 435.5,584C440.131,580.433 445.131,579.767 450.5,582C452.973,585.346 453.14,588.846 451,592.5C439.642,609.879 427.309,626.546 414,642.5C393.057,665.462 369.223,684.629 342.5,700C307.672,718.914 278.839,712.414 256,680.5C249.178,666.322 247.845,651.656 252,636.5C257.908,616.174 268.742,599.007 284.5,585C290.002,581.415 295.669,578.081 301.5,575C318.915,572.653 336.249,569.653 353.5,566C379.968,557.593 405.301,546.76 429.5,533.5C428.687,532.186 427.687,531.019 426.5,530C422.536,528.157 418.37,527.323 414,527.5C383.842,528.615 353.676,528.782 323.5,528C304.589,525.13 288.756,516.63 276,502.5C257.614,482.095 243.281,459.095 233,433.5C226.391,411.333 231.891,392.833 249.5,378C260.196,370.589 271.863,368.589 284.5,372C310.103,383.312 336.103,393.646 362.5,403C391.709,415.935 419.709,430.935 446.5,448C448.792,459.369 444.126,463.702 432.5,461C391.229,433.778 346.896,412.778 299.5,398C293.015,395.257 286.681,392.257 280.5,389C259.203,385.445 248.203,394.612 247.5,416.5C247.711,422.679 248.878,428.679 251,434.5C259.83,452.173 270.163,468.84 282,484.5C289.714,493.891 298.881,501.391 309.5,507C313.647,508.109 317.647,509.276 321.5,510.5C355.816,511.459 390.149,511.792 424.5,511.5ZM502.5,208.5C509.508,208.334 516.508,208.5 523.5,209C529.868,212.496 531.035,217.329 527,223.5C518.647,226.989 510.147,227.322 501.5,224.5C497.226,218.74 497.559,213.407 502.5,208.5ZM505.5,258.5C512.391,257.901 519.058,258.735 525.5,261C528.97,264.337 529.47,268.17 527,272.5C525.363,274.81 523.196,276.31 520.5,277C513.916,278.141 507.583,277.474 501.5,275C497.539,270.202 497.539,265.369 501.5,260.5C503.026,260.006 504.359,259.339 505.5,258.5ZM679.5,284.5C695.317,284.163 700.151,291.163 694,305.5C689.86,310.211 684.694,311.711 678.5,310C675.667,308.5 673.5,306.333 672,303.5C669.359,294.868 671.859,288.535 679.5,284.5ZM334.5,284.5C340.275,283.775 345.608,284.941 350.5,288C355.427,296.555 353.761,303.555 345.5,309C331.721,311.221 325.887,305.387 328,291.5C329.694,288.642 331.861,286.309 334.5,284.5ZM415.5,296.5C425.008,295.84 429.175,300.173 428,309.5C425.818,315.241 421.651,317.408 415.5,316C413.333,315.167 411.833,313.667 411,311.5C410.333,308.167 410.333,304.833 411,301.5C412.025,299.313 413.525,297.646 415.5,296.5ZM570.5,296.5C581.243,295.977 585.41,300.977 583,311.5C580.013,316.152 575.846,317.652 570.5,316C568.333,315.167 566.833,313.667 566,311.5C563.05,305.045 564.55,300.045 570.5,296.5ZM451.5,296.5C462.242,296.97 465.742,302.304 462,312.5C458.604,316.203 454.437,317.369 449.5,316C447.667,315.5 446.5,314.333 446,312.5C445.333,308.833 445.333,305.167 446,301.5C447.352,299.251 449.185,297.584 451.5,296.5ZM612.5,296.5C621.64,297.41 624.806,302.41 622,311.5C619.459,316.069 615.625,317.569 610.5,316L607,312.5C606.333,308.833 606.333,305.167 607,301.5C608.352,299.251 610.185,297.584 612.5,296.5ZM502.5,333.5C510.585,333.099 518.585,333.599 526.5,335C531.006,341.466 530.006,346.8 523.5,351C516.167,351.667 508.833,351.667 501.5,351C497.185,346.879 496.351,342.045 499,336.5C500.145,335.364 501.312,334.364 502.5,333.5ZM279.5,426.5C284.887,426.405 290.22,426.905 295.5,428C322.833,435.333 350.167,442.667 377.5,450C380.848,453.419 381.348,457.252 379,461.5C376.252,465.619 372.419,467.119 367.5,466C338.915,457.581 310.248,449.581 281.5,442C277.023,437.352 276.356,432.186 279.5,426.5ZM732.5,426.5C736.182,426.335 739.848,426.501 743.5,427C748.277,430.573 748.777,434.74 745,439.5C743.773,441.726 741.939,443.226 739.5,444C710.298,449.633 681.632,457.133 653.5,466.5C646.369,464.589 643.536,459.922 645,452.5C645.833,451 647,449.833 648.5,449C676.523,441.038 704.523,433.538 732.5,426.5ZM630.5,592.5C633.649,592.211 636.649,592.711 639.5,594C666.267,625.771 699.267,648.438 738.5,662C739.457,666.251 738.957,670.417 737,674.5C735.221,676.764 732.887,678.097 730,678.5C689.066,663.369 655.066,638.702 628,604.5C625.696,599.855 626.529,595.855 630.5,592.5ZM390.5,592.5C393.862,592.07 396.695,593.07 399,595.5C399.738,599.261 399.405,602.928 398,606.5C370.373,639.314 336.373,662.981 296,677.5C290.751,675.356 288.251,671.356 288.5,665.5C288.406,663.088 289.406,661.255 291.5,660C300.833,656.333 310.167,652.667 319.5,649C336.611,639.221 352.611,627.888 367.5,615C374.399,606.6 382.066,599.1 390.5,592.5ZM380.5,729.5C392.644,727.805 397.144,732.805 394,744.5C388.897,750.263 383.23,750.93 377,746.5C374.082,739.791 375.249,734.124 380.5,729.5ZM636.5,729.5C647.378,728.209 651.878,732.876 650,743.5C645.108,751.484 639.108,752.484 632,746.5C630,741.833 630,737.167 632,732.5C633.652,731.601 635.152,730.601 636.5,729.5ZM388.5,792.5C401.196,792.026 406.696,798.026 405,810.5C401.882,816.155 397.049,819.489 390.5,820.5C382.29,819.125 378.29,814.292 378.5,806C378.606,799.066 381.94,794.566 388.5,792.5ZM482.5,812.5C493.028,812.192 496.862,817.192 494,827.5C491.612,833.583 487.445,835.417 481.5,833C477.809,828.865 476.642,824.031 478,818.5C478.599,815.746 480.099,813.746 482.5,812.5ZM536.5,812.5C546.713,811.211 550.88,815.544 549,825.5C547.38,833.031 542.88,835.531 535.5,833C534.299,832.097 533.465,830.931 533,829.5C532.333,824.833 532.333,820.167 533,815.5C534.145,814.364 535.312,813.364 536.5,812.5Z"/>
    </g>
</svg>
