<?xml version="1.0" encoding="UTF-8" standalone="no"?>
<!DOCTYPE svg PUBLIC "-//W3C//DTD SVG 1.1//EN" "http://www.w3.org/Graphics/SVG/1.1/DTD/svg11.dtd">
<svg width="100%" height="100%" viewBox="0 0 1024 1024" version="1.1" xmlns="http://www.w3.org/2000/svg" xmlns:xlink="http://www.w3.org/1999/xlink" xml:space="preserve" xmlns:serif="http://www.serif.com/" style="fill-rule:evenodd;clip-rule:evenodd;stroke-linejoin:round;stroke-miterlimit:2;">
    <g transform="matrix(1.36938,0,0,1.36938,-181.825,-187.003)">
        <path d="M342.5,271.5C342.667,251.497 342.5,231.497 342,211.5C323.189,204.007 304.022,197.507 284.5,192C257.602,184.859 230.602,178.192 203.5,172C194.832,166.321 193.499,159.321 199.5,151C201.39,149.888 203.39,149.054 205.5,148.5C214.452,150.757 223.452,152.757 232.5,154.5C240.828,156.499 249.162,158.499 257.5,160.5C286.288,167.445 314.622,175.779 342.5,185.5C342.333,171.163 342.5,156.829 343,142.5C347.562,136.591 353.396,135.091 360.5,138C362.333,139.167 363.833,140.667 365,142.5C365.167,159.843 365.667,177.176 366.5,194.5C417.959,214.722 465.959,240.889 510.5,273C523.304,284.804 535.804,296.97 548,309.5C551.717,315.065 553.55,321.232 553.5,328C552.377,336.179 551.544,344.346 551,352.5C584.17,374.006 609.17,402.673 626,438.5C640.24,471.06 649.073,505.06 652.5,540.5C653.451,539.674 654.451,539.508 655.5,540L697.5,576C707.277,583.307 707.943,591.307 699.5,600C683.497,606.277 667.497,612.443 651.5,618.5C647.24,657.209 636.906,694.209 620.5,729.5C625.012,734.172 630.012,738.339 635.5,742C642.838,747.004 650.504,751.504 658.5,755.5C661.902,752.105 664.902,748.438 667.5,744.5C674.37,735.273 681.37,726.107 688.5,717C726.068,705.719 763.734,694.719 801.5,684C814.125,681.958 819.292,687.125 817,699.5C815.954,701.09 814.787,702.59 813.5,704C801.831,708.445 789.998,712.279 778,715.5C765.539,769.882 752.873,824.215 740,878.5C739.292,879.381 738.458,880.047 737.5,880.5C729.562,886.486 722.395,885.486 716,877.5C694.819,844.469 674.153,811.136 654,777.5C647.147,774.602 640.314,771.602 633.5,768.5C623.289,763.122 613.455,757.122 604,750.5C588.932,770.402 571.098,787.402 550.5,801.5C550.027,802.906 549.027,803.573 547.5,803.5C504.359,839.047 454.693,855.547 398.5,853C393.242,849.984 391.075,845.484 392,839.5C393.109,835.281 394.775,831.281 397,827.5C430.473,781.876 463.306,735.876 495.5,689.5C501.327,680.155 506.994,670.655 512.5,661C485.57,620.305 464.07,576.805 448,530.5C446.487,524.15 444.987,517.817 443.5,511.5C441.868,508.442 440.701,505.109 440,501.5C436.147,482.18 433.981,462.68 433.5,443C433.109,414.515 440.609,388.348 456,364.5C463.551,355.283 470.718,345.783 477.5,336C482.718,334.437 488.051,334.104 493.5,335C504.424,337.085 515.257,339.585 526,342.5C526.772,342.355 527.439,342.022 528,341.5C528.264,336.137 528.764,330.803 529.5,325.5C520.378,314.544 510.378,304.377 499.5,295C458.741,264.282 414.407,239.782 366.5,221.5C365.893,221.624 365.56,221.957 365.5,222.5C365.169,312.237 365.503,401.904 366.5,491.5C366.833,492.167 367.167,492.833 367.5,493.5C376.444,498.634 382.277,506.3 385,516.5C385.333,528.167 385.667,539.833 386,551.5C386.834,554.669 387.668,557.836 388.5,561C387.929,563.544 387.262,566.044 386.5,568.5C385.844,571.962 384.511,575.128 382.5,578C378.316,579.165 375.483,577.665 374,573.5C373.015,568.311 373.515,563.311 375.5,558.5C372.232,557.513 368.898,557.18 365.5,557.5C365.333,577.503 365.5,597.503 366,617.5C366.452,620.149 367.286,622.649 368.5,625C381.169,627.138 386.336,634.638 384,647.5C372.881,677.648 351.381,690.148 319.5,685C303.996,679.828 292.496,669.995 285,655.5C281.729,648.084 279.229,640.417 277.5,632.5C271.642,631.993 267.142,629.326 264,624.5C265.166,609.165 266.833,593.832 269,578.5C274.418,570.558 280.085,570.558 286,578.5C292.611,588.777 299.611,598.777 307,608.5C309.533,612.203 310.866,616.203 311,620.5C308.085,623.918 304.585,625.251 300.5,624.5C302.823,634.3 306.323,643.634 311,652.5C326.356,667.079 341.689,667.079 357,652.5C357.875,651.127 358.375,649.627 358.5,648C356.615,641.397 353.782,635.23 350,629.5C347.796,627.983 345.462,626.65 343,625.5C342.5,602.836 342.333,580.169 342.5,557.5C330.829,557.667 319.162,557.5 307.5,557C303.667,555.833 301.167,553.333 300,549.5C294.755,526.302 301.255,507.136 319.5,492C326.597,487.809 334.264,485.643 342.5,485.5L342.5,271.5ZM518.5,772.5C505.833,765.167 493.167,757.833 480.5,750.5C479.957,753.038 478.957,755.372 477.5,757.5C463.435,775.293 450.102,793.627 437.5,812.5C433.066,817.84 428.732,823.34 424.5,829C425.766,829.309 426.933,829.809 428,830.5C437.173,828.917 446.34,827.084 455.5,825C485.438,816.865 512.438,803.198 536.5,784C530.266,780.392 524.266,776.559 518.5,772.5ZM537.5,653.5C553.468,674.941 571.801,694.108 592.5,711C595.286,713.06 598.286,714.56 601.5,715.5C627.216,655.765 635.716,593.432 627,528.5C622.884,491.67 611.551,457.337 593,425.5C585.862,415.54 578.029,406.207 569.5,397.5C566.834,394.001 563.667,391.001 560,388.5C553.141,407.902 542.974,425.235 529.5,440.5C509.77,459.636 486.104,468.969 458.5,468.5C459.182,477.259 460.515,485.925 462.5,494.5C482.126,489.009 501.126,481.843 519.5,473C524.805,471.568 528.305,473.401 530,478.5C531.39,485.665 529.223,491.499 523.5,496C507.28,502.943 490.947,509.61 474.5,516C472.19,516.497 469.857,516.663 467.5,516.5C468.78,521.68 470.113,526.847 471.5,532C477.773,532.902 483.773,534.402 489.5,536.5C517.44,543.303 544.774,541.47 571.5,531C579.51,527.332 586.844,522.665 593.5,517C603.275,516.227 607.108,520.727 605,530.5C601.974,538.194 596.808,544.028 589.5,548C556.234,564.892 521.567,568.226 485.5,558L484,556.5C488.463,570.527 494.13,584.194 501,597.5C511.435,617.39 523.602,636.057 537.5,653.5ZM652.5,569.5L652.5,593.5C659.512,591.495 666.178,588.661 672.5,585C665.622,580.066 658.956,574.9 652.5,569.5ZM489.5,359.5C485.568,364.607 481.401,369.607 477,374.5C462.992,396.032 456.158,419.699 456.5,445.5C492.234,444.571 517.401,427.904 532,395.5C535.259,388.558 536.426,381.392 535.5,374C521.444,365.152 506.111,360.319 489.5,359.5ZM565.5,759.5C572.52,751.811 579.187,743.811 585.5,735.5C580.494,731.822 575.827,727.822 571.5,723.5C559.876,714.544 549.21,704.544 539.5,693.5C535.833,688.833 532.167,684.167 528.5,679.5C519.444,694.599 510.111,709.599 500.5,724.5C499.139,726.85 497.806,729.184 496.5,731.5C515.28,744.596 534.613,756.93 554.5,768.5C558.476,765.855 562.143,762.855 565.5,759.5ZM751.5,735.5C752.358,730.758 753.191,726.091 754,721.5C739.232,725.737 724.399,730.071 709.5,734.5C707.333,735.269 705.166,736.269 703,737.5C694.519,748.313 685.685,758.813 676.5,769C687.586,788.419 699.086,807.585 711,826.5C715.333,832.833 719.667,839.167 724,845.5C732.554,808.619 741.72,771.952 751.5,735.5ZM339.5,509.5C329.131,513.557 323.131,521.224 321.5,532.5C334.817,533.499 348.15,533.833 361.5,533.5C362.109,518.112 354.776,510.112 339.5,509.5Z"/>
    </g>
</svg>
