<?xml version="1.0" encoding="UTF-8" standalone="no"?>
<!DOCTYPE svg PUBLIC "-//W3C//DTD SVG 1.1//EN" "http://www.w3.org/Graphics/SVG/1.1/DTD/svg11.dtd">
<svg width="100%" height="100%" viewBox="0 0 1024 1024" version="1.1" xmlns="http://www.w3.org/2000/svg" xmlns:xlink="http://www.w3.org/1999/xlink" xml:space="preserve" xmlns:serif="http://www.serif.com/" style="fill-rule:evenodd;clip-rule:evenodd;stroke-linejoin:round;stroke-miterlimit:2;">
    <g transform="matrix(1.41632,0,0,1.41632,-228.736,-224.493)">
        <path d="M535.5,805.5C481.068,804.444 426.735,806.277 372.5,811C337.167,811.667 301.833,811.667 266.5,811C255.095,810.934 243.762,810.267 232.5,809C231.299,808.097 230.465,806.931 230,805.5C229.333,801.5 229.333,797.5 230,793.5C242.898,772.929 255.398,752.095 267.5,731C199.58,683.011 164.246,617.178 161.5,533.5C166.788,431.054 214.788,356.22 305.5,309C371.928,278.541 439.262,276.541 507.5,303C511.402,304.565 515.069,306.398 518.5,308.5C586.659,339.507 632.159,390.84 655,462.5C655.359,439.336 657.359,416.336 661,393.5C665.269,377.961 672.435,363.961 682.5,351.5C673.714,334.754 664.047,318.587 653.5,303C631.712,306.355 616.545,297.855 608,277.5C603.035,258.723 608.535,243.89 624.5,233C643.812,224.536 660.646,228.036 675,243.5C685.249,258.521 684.749,273.188 673.5,287.5C683.532,303.702 693.365,320.035 703,336.5C722.832,323.534 744.332,319.701 767.5,325C775.142,327.32 782.476,329.987 789.5,333C797.787,317.589 806.454,302.422 815.5,287.5C808.969,278.536 806.803,268.536 809,257.5C814.957,236.757 828.79,227.257 850.5,229C871.027,232.691 882.36,244.858 884.5,265.5C880.266,292.957 864.266,305.624 836.5,303.5C827.403,317.926 818.736,332.593 810.5,347.5C825.553,364.616 833.719,384.616 835,407.5C835.667,421.833 835.667,436.167 835,450.5C834.214,453.583 832.381,455.749 829.5,457C817.43,457.062 805.43,457.728 793.5,459C787.175,461.799 783.341,466.632 782,473.5C781.253,480.882 781.586,488.215 783,495.5C789.944,521.276 795.944,547.276 801,573.5C808.535,625.23 804.202,675.897 788,725.5C780.755,745.33 770.922,763.663 758.5,780.5C768.817,781.332 779.151,781.832 789.5,782C797.754,786.961 799.587,793.794 795,802.5C793.509,804.004 791.676,804.837 789.5,805C781.833,805.167 774.167,805.333 766.5,805.5C689.489,804.721 612.489,804.721 535.5,805.5ZM505.5,328.5C490.156,321.608 474.156,316.941 457.5,314.5C381.932,300.14 315.599,318.64 258.5,370C187.674,441.152 169.507,523.985 204,618.5C212.562,636.633 222.895,653.633 235,669.5C238.749,673.42 242.583,677.086 246.5,680.5C246.369,681.239 246.536,681.906 247,682.5C250.989,686.545 255.156,690.211 259.5,693.5C283.902,715.867 312.568,730.033 345.5,736C359.432,737.992 373.432,739.158 387.5,739.5C420.537,738.387 453.537,736.72 486.5,734.5C495.823,733.76 505.156,733.093 514.5,732.5C535.274,729.979 555.608,725.479 575.5,719C611.334,704.501 634.501,678.667 645,641.5C652.094,610.451 653.427,579.117 649,547.5C643.007,504.206 630.674,462.873 612,423.5C587.016,380.015 551.516,348.348 505.5,328.5ZM476.5,433.5C483.877,441.378 490.71,449.711 497,458.5C508.497,476.17 515.497,495.503 518,516.5C521.678,578.31 497.845,626.143 446.5,660C398.552,686.329 351.886,684.496 306.5,654.5C276.527,630.573 258.361,599.573 252,561.5C246.723,495.881 272.223,446.381 328.5,413C382.259,388.552 431.593,395.386 476.5,433.5ZM377.5,423.5C340.364,429.457 311.864,448.457 292,480.5C266.552,529.207 270.552,575.207 304,618.5C343.638,658.467 388.138,664.634 437.5,637C485.663,601.187 502.496,554.021 488,495.5C467.891,446.019 431.058,422.019 377.5,423.5ZM375.5,485.5C410.517,485.028 432.35,501.695 441,535.5C444.269,565.139 432.769,586.639 406.5,600C376.018,610.004 352.184,601.504 335,574.5C320.197,542.286 326.697,515.453 354.5,494C361.172,490.061 368.172,487.228 375.5,485.5ZM376.5,511.5C358.152,518.516 350.318,531.849 353,551.5C359.715,573.274 374.215,581.774 396.5,577C412.438,568.623 418.938,555.456 416,537.5C409.631,518.72 396.465,510.054 376.5,511.5ZM842.5,253.5C832.387,259.009 831.054,266.175 838.5,275C845.568,279.229 851.401,278.062 856,271.5C859.465,259.411 854.965,253.411 842.5,253.5ZM639.5,253.5C636.861,255.309 634.694,257.642 633,260.5C631.073,267.735 633.24,273.235 639.5,277C645.796,278.683 650.629,276.85 654,271.5C657.449,258.785 652.616,252.785 639.5,253.5ZM514.5,756.5C482.753,760.099 450.753,762.266 418.5,763C384.347,765.674 350.68,763.007 317.5,755C308.496,751.554 299.663,747.721 291,743.5C284.497,754.509 277.497,765.176 270,775.5C268.191,778.778 266.691,782.111 265.5,785.5C325.228,787.56 384.894,786.393 444.5,782C488.169,781.382 531.836,781.549 575.5,782.5C624.168,781.562 672.835,780.562 721.5,779.5C728.481,774.177 734.815,768.177 740.5,761.5C754.888,742.72 765.054,721.72 771,698.5C781.748,650.268 782.082,601.935 772,553.5C766.572,534.364 761.906,515.03 758,495.5C756.456,481.85 757.789,468.517 762,455.5C766.979,443.516 775.812,436.349 788.5,434C795.826,433.5 803.159,433.334 810.5,433.5C811.706,416.462 809.873,399.795 805,383.5C791.097,357.964 769.597,346.13 740.5,348C712.045,354.33 693.545,371.497 685,399.5C682.09,414.024 680.423,428.691 680,443.5C679.278,500.864 677.612,558.198 675,615.5C667.309,685.842 629.476,730.342 561.5,749C546.064,753.017 530.397,755.517 514.5,756.5Z"/>
    </g>
</svg>
