<?xml version="1.0" encoding="UTF-8" standalone="no"?>
<!DOCTYPE svg PUBLIC "-//W3C//DTD SVG 1.1//EN" "http://www.w3.org/Graphics/SVG/1.1/DTD/svg11.dtd">
<svg width="100%" height="100%" viewBox="0 0 1024 1024" version="1.1" xmlns="http://www.w3.org/2000/svg" xmlns:xlink="http://www.w3.org/1999/xlink" xml:space="preserve" xmlns:serif="http://www.serif.com/" style="fill-rule:evenodd;clip-rule:evenodd;stroke-linejoin:round;stroke-miterlimit:2;">
    <g transform="matrix(1.28951,0,0,1.28951,-109.574,-174.604)">
        <path d="M399.5,277.5C373.569,291.801 347.903,306.635 322.5,322C308.148,331.509 294.148,341.509 280.5,352C279.773,353.399 279.273,354.899 279,356.5C278.483,366.166 277.983,375.832 277.5,385.5C277.404,391.263 278.071,396.93 279.5,402.5C278.901,405.702 277.734,408.702 276,411.5C238.083,442.852 198.916,472.352 158.5,500C164.456,514.245 171.456,527.912 179.5,541C236.843,540.452 294.176,539.119 351.5,537C352.551,535.615 353.884,534.615 355.5,534C414.426,526.115 471.093,534.115 525.5,558C535.552,562.9 545.219,568.4 554.5,574.5C560.475,559.397 563.475,543.563 563.5,527C560.013,483.192 542.346,446.192 510.5,416C505.262,411.797 499.762,407.964 494,404.5C487.065,390.873 491.232,384.706 506.5,386C510.796,387.815 514.796,390.148 518.5,393C551.416,422.285 573.582,458.451 585,501.5C586.573,479.596 583.573,458.263 576,437.5C566.604,412.705 554.604,389.371 540,367.5C536.897,354.833 541.73,349.333 554.5,351C557.667,352.833 560.167,355.333 562,358.5C573.991,378.814 584.657,399.814 594,421.5C615.969,475.164 612.636,527.164 584,577.5C567.771,599.744 546.937,615.911 521.5,626C513.158,627.001 508.158,623.335 506.5,615C506.843,610.981 508.509,607.648 511.5,605C520.121,601.356 528.454,597.189 536.5,592.5C527.866,585.173 518.2,579.34 507.5,575C461.071,556.373 413.071,550.373 363.5,557C355.038,558.866 346.705,561.199 338.5,564C303.4,580.049 268.4,596.382 233.5,613C225.705,614.599 218.705,612.932 212.5,608C203.079,601.25 194.246,593.75 186,585.5C173.571,570.315 160.904,555.315 148,540.5C141.667,530.833 135.333,521.167 129,511.5C125.983,504.681 125.816,497.848 128.5,491C170.623,464.937 210.623,435.937 248.5,404C249.448,403.517 250.448,403.351 251.5,403.5C252.726,381.808 256.226,360.475 262,339.5C264.463,336.035 267.296,332.869 270.5,330C274.951,327.217 279.117,324.05 283,320.5C283.333,262.167 283.667,203.833 284,145.5C285.72,139.214 289.886,136.214 296.5,136.5C300.519,136.507 304.185,137.673 307.5,140C337.833,163 368.167,186 398.5,209C405.69,214.698 412.69,220.531 419.5,226.5C421.505,228.334 423.672,230.001 426,231.5C426.483,232.448 426.649,233.448 426.5,234.5C428.308,234.509 429.975,234.009 431.5,233C450.398,220.104 468.731,206.437 486.5,192C513.87,175.329 541.204,158.662 568.5,142L580.5,136C590.628,133.811 597.128,137.644 600,147.5C600.985,209.211 600.652,270.878 599,332.5C592.326,339.42 585.993,339.086 580,331.5C579.027,329.608 578.36,327.608 578,325.5C577.833,271.164 577.333,216.83 576.5,162.5C553.098,177.536 530.765,194.036 509.5,212C500.833,218 492.167,224 483.5,230C455.959,246.605 427.959,262.438 399.5,277.5ZM397.5,236.5C389.939,230.111 381.939,224.278 373.5,219C365.333,212.167 357.167,205.333 349,198.5C359.587,218.996 370.754,239.33 382.5,259.5C383.873,259.657 385.207,259.49 386.5,259C394.5,254.333 402.5,249.667 410.5,245C405.764,242.761 401.431,239.928 397.5,236.5ZM198.5,565.5C205.743,574.245 214.077,581.745 223.5,588C226.366,589.457 229.366,589.79 232.5,589C247.879,580.644 263.545,572.811 279.5,565.5C280.922,565.291 282.255,564.791 283.5,564C274.173,563.5 264.839,563.334 255.5,563.5L239.5,563.5C225.484,563.167 211.484,563.501 197.5,564.5C197.624,565.107 197.957,565.44 198.5,565.5ZM305.5,164.5C306.319,211.805 306.819,259.138 307,306.5C325.304,294.209 344.137,282.709 363.5,272C356.608,261.047 350.108,249.88 344,238.5C331.392,213.615 318.559,188.948 305.5,164.5ZM556.5,927.5C554.112,926.781 552.612,925.115 552,922.5C551.333,880.5 551.333,838.5 552,796.5C556.236,789.095 562.07,787.595 569.5,792C571.049,793.214 572.215,794.714 573,796.5C573.667,838.5 573.667,880.5 573,922.5C572.608,925.455 571.108,927.622 568.5,929C564.833,929.667 561.167,929.667 557.5,929C556.944,928.617 556.611,928.117 556.5,927.5ZM538.5,197.5C550.213,197.031 554.713,202.365 552,213.5C530.333,252.167 508.667,290.833 487,329.5C483.272,335.17 478.106,337.003 471.5,335C466.348,329.694 465.181,323.528 468,316.5C489.081,280.013 509.414,243.013 529,205.5C531.161,201.495 534.328,198.829 538.5,197.5ZM406.5,396.5C415.603,397.433 419.77,402.433 419,411.5C415.439,422.069 408.605,429.903 398.5,435C393.659,437.921 388.659,440.588 383.5,443C343.024,458.05 303.357,475.05 264.5,494C251.197,497.365 246.031,492.198 249,478.5L254.5,473C273.619,464.607 292.619,455.941 311.5,447C335.518,438.157 359.185,428.49 382.5,418C389.75,413.505 395.416,407.505 399.5,400C401.713,398.384 404.047,397.217 406.5,396.5ZM355.5,392.5C367.63,392.465 372.797,398.465 371,410.5C366.451,418.81 359.951,420.643 351.5,416C346.425,411.401 345.259,405.901 348,399.5C349.742,396.254 352.242,393.921 355.5,392.5ZM633.5,350.5C637.41,350.263 641.077,351.096 644.5,353C686.954,379.788 720.121,415.288 744,459.5C753.176,479.359 760.176,500.026 765,521.5C767.631,534.428 762.464,539.928 749.5,538C747.714,537.215 746.214,536.049 745,534.5C735.055,477.076 707.555,430.243 662.5,394C652.596,386.464 642.43,379.298 632,372.5C627.309,366.634 626.475,360.301 629.5,353.5C630.901,352.479 632.235,351.479 633.5,350.5ZM622.5,271.5C628.782,270.661 634.448,272.161 639.5,276C679.333,303.833 713.167,337.667 741,377.5C761.631,406.755 778.631,438.088 792,471.5C790.655,465.773 789.489,459.939 788.5,454C788.057,446.37 791.557,441.87 799,440.5C802.455,440.871 805.455,442.205 808,444.5C855.04,564.567 845.707,679.901 780,790.5C759.769,821.404 735.269,848.57 706.5,872C694.93,880.56 682.597,887.893 669.5,894C698.167,894.333 726.833,894.667 755.5,895C761.353,900.676 762.019,907.01 757.5,914L751.5,917C710.167,917.667 668.833,917.667 627.5,917C620.807,913.115 617.64,907.282 618,899.5C618.516,896.966 619.683,894.8 621.5,893C629.359,889.821 636.859,885.987 644,881.5C642.34,866.881 640.673,852.214 639,837.5C635.605,769.336 656.938,710.336 703,660.5C724.206,640.637 743.206,618.97 760,595.5C779.288,564.898 784.622,531.898 776,496.5C770.89,476.948 763.557,458.282 754,440.5C728.287,392.294 694.787,350.127 653.5,314C642.418,306.709 631.252,299.542 620,292.5C614.742,284.645 615.575,277.645 622.5,271.5ZM801.5,500.5C802.537,508.63 803.204,516.797 803.5,525C802.646,540.02 800.479,554.853 797,569.5C790.127,589.917 780.127,608.584 767,625.5C748.702,646.133 730.035,666.467 711,686.5C707.24,691.683 703.24,696.683 699,701.5C663.899,752.853 653.566,808.853 668,869.5C713.346,841.157 748.679,803.49 774,756.5C805.86,692.863 818.86,625.529 813,554.5C811.293,535.922 807.46,517.922 801.5,500.5ZM327.5,588.5C331.605,588.234 335.605,588.734 339.5,590C386.417,609.68 427.251,637.846 462,674.5C504.635,724.694 520.301,782.361 509,847.5C504.77,863.624 498.604,878.958 490.5,893.5C493.006,895.506 495.173,897.84 497,900.5C500.097,908.476 497.597,913.976 489.5,917C453.5,917.667 417.5,917.667 381.5,917C373.958,913.061 371.458,906.895 374,898.5C375.214,896.951 376.714,895.785 378.5,895C400.245,894.357 421.912,894.357 443.5,895C338.485,823.69 296.652,725.19 318,599.5C319.627,594.382 322.793,590.715 327.5,588.5ZM337.5,613.5C329.329,665.111 335.162,715.111 355,763.5C381.365,815.865 420.032,856.532 471,885.5C483.444,861.644 489.944,836.144 490.5,809C488.84,759.536 471.34,716.703 438,680.5C408.137,652.82 374.637,630.486 337.5,613.5Z"/>
    </g>
</svg>
