<?xml version="1.0" encoding="UTF-8" standalone="no"?>
<!DOCTYPE svg PUBLIC "-//W3C//DTD SVG 1.1//EN" "http://www.w3.org/Graphics/SVG/1.1/DTD/svg11.dtd">
<svg width="100%" height="100%" viewBox="0 0 1024 1024" version="1.1" xmlns="http://www.w3.org/2000/svg" xmlns:xlink="http://www.w3.org/1999/xlink" xml:space="preserve" xmlns:serif="http://www.serif.com/" style="fill-rule:evenodd;clip-rule:evenodd;stroke-linejoin:round;stroke-miterlimit:2;">
    <g transform="matrix(1.5444,0,0,1.5444,-261.76,-331.191)">
        <path d="M220.5,407.5C215.942,389.987 210.442,372.653 204,355.5C194.117,333.402 183.451,311.735 172,290.5C168.211,282.757 168.711,275.423 173.5,268.5C175.509,266.935 177.843,265.935 180.5,265.5C185.103,264.617 189.77,264.283 194.5,264.5C222.518,261.471 250.185,263.971 277.5,272C335.644,290.563 388.31,318.729 435.5,356.5C444.171,364.006 452.005,372.339 459,381.5L481.5,416C485.052,414.569 488.718,413.069 492.5,411.5C502.031,409.299 511.031,410.633 519.5,415.5C520.107,415.376 520.44,415.043 520.5,414.5C535.828,382.848 558.161,357.515 587.5,338.5C616.146,318.672 646.479,301.672 678.5,287.5C695.66,279.753 713.327,273.42 731.5,268.5C761.181,261.552 791.181,260.719 821.5,266C826.594,267.599 830.261,270.766 832.5,275.5C832.762,282.55 831.262,289.217 828,295.5C803.276,337.666 787.276,382.999 780,431.5C779.875,454.856 779.209,478.189 778,501.5C772.232,532.901 755.732,556.735 728.5,573C715.918,580.462 702.585,585.962 688.5,589.5C681.919,592.566 674.919,594.566 667.5,595.5C661.278,596.916 654.945,598.416 648.5,600C671.507,615.843 695.507,630.177 720.5,643C727.216,648.834 728.216,655.501 723.5,663C717.098,665.812 711.598,664.645 707,659.5C694.077,692.875 694.91,725.875 709.5,758.5C711.954,765.408 714.954,772.075 718.5,778.5C721.544,783.582 724.378,788.915 727,794.5C731.69,799.854 737.023,804.521 743,808.5C746.3,815.159 745.466,821.326 740.5,827C736.546,830.138 732.546,830.138 728.5,827C713.88,813.937 702.547,798.437 694.5,780.5C684.265,777.685 673.932,775.185 663.5,773C636.957,765.396 612.957,753.063 591.5,736C575.334,722.022 563.334,705.189 555.5,685.5C548.098,668.951 541.098,652.284 534.5,635.5C532.227,627.679 529.56,620.012 526.5,612.5C526.013,611.527 525.513,610.527 525,609.5C524.5,620.495 524.333,631.495 524.5,642.5C524.705,656.014 522.205,669.014 517,681.5C515.217,687.453 511.384,691.119 505.5,692.5C501.149,693.999 497.816,692.666 495.5,688.5C492.634,686.454 490.467,683.787 489,680.5C485.91,672.39 483.577,664.057 482,655.5C479.928,639.877 478.428,624.211 477.5,608.5C476.794,607.443 476.461,607.776 476.5,609.5C466.895,638.146 456.395,666.479 445,694.5C437.948,710.028 428.114,723.362 415.5,734.5C409.987,740.176 403.987,745.342 397.5,750C394.757,752.038 391.757,753.538 388.5,754.5C384.557,757.478 380.223,759.978 375.5,762C366.178,765.84 356.845,769.34 347.5,772.5C336.899,775.15 326.233,777.484 315.5,779.5L315.5,783.5C308.954,799.703 299.288,813.703 286.5,825.5C282.448,828.621 278.115,829.121 273.5,827C266.874,817.019 268.707,808.853 279,802.5C289.498,787.502 297.331,771.169 302.5,753.5C303.167,750.833 303.833,748.167 304.5,745.5C308.53,728.398 310.03,711.065 309,693.5C307.099,682.56 304.265,671.893 300.5,661.5C297.59,662.425 294.924,663.759 292.5,665.5C288.673,665.613 285.173,664.613 282,662.5C278.911,655.157 280.411,648.99 286.5,644C295.814,639.678 304.814,634.844 313.5,629.5C328.089,620.251 342.422,610.584 356.5,600.5C340.537,597.408 324.87,593.241 309.5,588C296.101,583.133 283.435,576.966 271.5,569.5C245.748,552.344 230.915,528.344 227,497.5C226.667,479.167 226.333,460.833 226,442.5C224.491,430.772 222.658,419.105 220.5,407.5ZM232.5,370.5C233.338,370.842 233.672,371.508 233.5,372.5C237.104,382.918 239.771,393.584 241.5,404.5C258.346,407.044 275.013,410.544 291.5,415C298.541,419.794 300.041,425.961 296,433.5C293.74,435.477 291.073,436.477 288,436.5C283.167,435.667 278.334,434.834 273.5,434C264.494,432.041 255.661,429.541 247,426.5C248.211,448.081 248.878,469.748 249,491.5C251.746,516.835 263.579,536.668 284.5,551C296.6,558.882 309.6,564.882 323.5,569C341.556,572.787 359.556,576.787 377.5,581C391.311,584.608 404.977,584.274 418.5,580C432.524,573.664 445.524,565.83 457.5,556.5C460.333,555.369 461.666,553.202 461.5,550C460.115,536.845 457.281,524.011 453,511.5C439.877,476.905 421.877,445.239 399,416.5C384.112,399.837 367.278,385.67 348.5,374C341.106,370.311 334.106,366.144 327.5,361.5C304.087,350.795 280.42,340.628 256.5,331C251.955,327.956 248.289,324.123 245.5,319.5C243.588,315.806 243.088,311.806 244,307.5C246.028,303.866 249.194,302.2 253.5,302.5C262.229,302.35 267.896,306.35 270.5,314.5C277.922,316.973 285.255,319.64 292.5,322.5C315.398,330.783 337.065,341.45 357.5,354.5C361.5,357.167 365.5,359.833 369.5,362.5C379.571,369.064 389.238,376.231 398.5,384C424.923,410.25 445.589,440.417 460.5,474.5C464.37,480.249 467.203,486.583 469,493.5C469.795,489.688 470.629,486.021 471.5,482.5C471.507,479.962 471.841,477.462 472.5,475C468.588,466.942 466.254,458.442 465.5,449.5C465.627,444.49 466.627,439.656 468.5,435C465.353,429.692 462.02,424.525 458.5,419.5C442.985,393.984 422.985,372.651 398.5,355.5C394.517,353.194 390.517,350.861 386.5,348.5C353.053,327.11 317.72,309.443 280.5,295.5C264.984,291.691 249.317,288.524 233.5,286C219.833,285.333 206.167,285.333 192.5,286C194.709,287.873 196.542,290.04 198,292.5C211.956,317.413 223.456,343.413 232.5,370.5ZM678.5,312.5C651.286,325.774 624.953,340.607 599.5,357C592.833,362.333 586.167,367.667 579.5,373C562.54,390.081 548.373,409.247 537,430.5C537.891,435.925 538.725,441.425 539.5,447C538.583,457.512 535.583,467.345 530.5,476.5C531.971,481.735 532.637,487.068 532.5,492.5L555,447.5C558.329,442.014 561.829,436.68 565.5,431.5C585.167,401.833 609.833,377.167 639.5,357.5C664.237,342.298 690.237,329.465 717.5,319C723.226,316.425 729.226,315.091 735.5,315C740.718,302.725 749.385,299.391 761.5,305C765.622,314.634 763.289,322.301 754.5,328C733.096,336.802 711.763,345.802 690.5,355C679.678,360.577 669.011,366.411 658.5,372.5C645.72,379.281 634.386,387.948 624.5,398.5C611.192,409.983 599.358,422.983 589,437.5C576.517,454.127 566.35,472.127 558.5,491.5C550.266,510.936 544.599,531.102 541.5,552C543.167,555 545.5,557.333 548.5,559C559.331,566.997 570.998,573.497 583.5,578.5C589.592,581.648 596.092,583.315 603,583.5C614.992,582.334 626.826,580.334 638.5,577.5C642.085,576.417 645.751,575.751 649.5,575.5C665.007,572.84 680.34,569.007 695.5,564C725.928,553.239 745.761,532.406 755,501.5C756.195,480.189 756.861,458.856 757,437.5C757.181,434.305 757.681,431.305 758.5,428.5C755.696,427.362 752.696,427.195 749.5,428C737.02,430.962 724.52,433.796 712,436.5C707.26,436.255 704.093,433.922 702.5,429.5C702.066,423.631 704.066,418.798 708.5,415C726.565,409.732 744.898,405.899 763.5,403.5C763.264,400.391 763.597,397.391 764.5,394.5C773.337,358.641 786.67,324.641 804.5,292.5C804.84,290.321 805.84,288.488 807.5,287C777.463,282.215 748.13,284.882 719.5,295C705.807,300.848 692.141,306.682 678.5,312.5ZM511.5,461.5C516.998,453.134 516.665,444.967 510.5,437C499.376,431.734 492.042,434.9 488.5,446.5C489.306,462.391 496.973,467.391 511.5,461.5ZM558.5,592.5C552.443,589.12 546.443,586.454 540.5,584.5C545.177,597.535 549.844,610.535 554.5,623.5C560.928,639.364 567.095,655.364 573,671.5C589.179,708.34 616.346,733.506 654.5,747C664.084,749.948 673.751,752.448 683.5,754.5C683.371,752.784 683.038,751.117 682.5,749.5C677.172,730.22 675.005,710.553 676,690.5C676.665,676.326 680.499,663.16 687.5,651C670.199,640.68 652.866,630.347 635.5,620C609.327,612.208 583.66,603.041 558.5,592.5ZM490.5,501.5C491.332,534.331 491.832,567.331 492,600.5C493.734,602.451 495.901,603.451 498.5,603.5C498.969,609.162 499.469,614.829 500,620.5C502.36,580.27 503.193,539.937 502.5,499.5C501.571,492.212 497.904,490.212 491.5,493.5C490.735,496.096 490.401,498.763 490.5,501.5ZM364.5,741.5C382.279,734.128 397.279,723.128 409.5,708.5C416.688,700.117 422.522,690.784 427,680.5C439.107,648.651 449.94,616.651 459.5,584.5C447.283,591.189 434.617,597.023 421.5,602C407.55,606.539 393.55,610.873 379.5,615C373.981,617.591 368.648,620.425 363.5,623.5C349.556,633.482 334.89,642.482 319.5,650.5C330.653,670.43 334.819,691.763 332,714.5C331.599,722.556 330.765,730.556 329.5,738.5C328.35,743.44 327.35,748.44 326.5,753.5C339.627,750.902 352.294,746.902 364.5,741.5Z"/>
    </g>
</svg>
