<?xml version="1.0" encoding="UTF-8" standalone="no"?>
<!DOCTYPE svg PUBLIC "-//W3C//DTD SVG 1.1//EN" "http://www.w3.org/Graphics/SVG/1.1/DTD/svg11.dtd">
<svg width="100%" height="100%" viewBox="0 0 1024 1024" version="1.1" xmlns="http://www.w3.org/2000/svg" xmlns:xlink="http://www.w3.org/1999/xlink" xml:space="preserve" xmlns:serif="http://www.serif.com/" style="fill-rule:evenodd;clip-rule:evenodd;stroke-linejoin:round;stroke-miterlimit:2;">
    <g transform="matrix(1.70763,0,0,1.70763,-357.052,-403.484)">
        <path d="M659.5,684.5C659.61,678.711 659.61,672.711 659.5,666.5L659.5,650.5C657.856,650.714 656.356,650.38 655,649.5C654.667,664.833 654.333,680.167 654,695.5C653.056,705.13 651.556,714.63 649.5,724C662.039,737.286 667.206,753.12 665,771.5C677.033,783.202 689.367,794.535 702,805.5C706.201,810.578 706.534,815.911 703,821.5C698.331,825.5 693.164,826.333 687.5,824C674.691,810.859 661.525,798.025 648,785.5C646.478,783.259 645.145,780.926 644,778.5C642.94,771.178 641.94,763.844 641,756.5C640.513,753.202 639.347,750.202 637.5,747.5C618.765,789.39 587.432,817.223 543.5,831C502.7,841.697 465.033,835.03 430.5,811C407.788,794.791 390.788,773.958 379.5,748.5C377.129,751.772 375.629,755.439 375,759.5C374.667,765.5 374.333,771.5 374,777.5C373.399,780.637 372.399,783.637 371,786.5L336.5,821C330.578,825.862 324.411,826.362 318,822.5C315.186,817.994 314.853,813.327 317,808.5C328.627,796.707 340.46,785.04 352.5,773.5C353.331,767.193 353.831,760.859 354,754.5C354.384,750.347 355.384,746.347 357,742.5C360.923,736.076 365.423,730.076 370.5,724.5C369.726,720.221 369.226,715.887 369,711.5C368.667,690.5 368.333,669.5 368,648.5C364.943,649.451 361.777,649.784 358.5,649.5C358.667,661.838 358.5,674.171 358,686.5L355.5,689C330.63,703.268 305.63,717.268 280.5,731C272.006,732.395 267.673,728.728 267.5,720C267.542,718.033 268.042,716.199 269,714.5C272.566,711.301 276.4,708.467 280.5,706C299.329,695.753 317.995,685.253 336.5,674.5C337.198,662.819 338.031,651.152 339,639.5C340.997,633.968 344.497,629.801 349.5,627C355.816,626.072 362.149,625.239 368.5,624.5C367.184,597.512 367.184,570.512 368.5,543.5C360.695,542.379 352.862,541.379 345,540.5C343.5,540.833 342,541.167 340.5,541.5C334.64,554.727 327.64,567.227 319.5,579C307.883,580.554 296.216,580.887 284.5,580C276.422,576.677 273.588,570.844 276,562.5C277.543,560.622 279.376,559.122 281.5,558C290.827,557.5 300.161,557.334 309.5,557.5C314.443,543.448 321.109,530.281 329.5,518C344.66,516.182 359.66,517.349 374.5,521.5C380.709,504.298 391.376,490.631 406.5,480.5C403.694,471.394 402.027,462.06 401.5,452.5C379.587,446.467 357.253,442.634 334.5,441C332.376,439.878 330.543,438.378 329,436.5C324.186,422.263 322.186,407.597 323,392.5C314.664,386.961 309.164,379.461 306.5,370C306.837,363.328 310.337,359.494 317,358.5C319.321,358.909 321.487,359.743 323.5,361C331.031,368.197 338.198,375.697 345,383.5C346.418,395.772 346.918,408.105 346.5,420.5C367.351,420.92 387.684,424.253 407.5,430.5C411.078,411.853 420.412,396.687 435.5,385C437.134,384.506 438.801,384.34 440.5,384.5C442.42,374.493 447.087,365.993 454.5,359C459.428,354.91 464.761,351.41 470.5,348.5C469.568,330.902 462.568,316.069 449.5,304C442.932,299.05 435.599,295.717 427.5,294C414.204,291.737 400.871,289.737 387.5,288C367.92,285.081 355.086,274.248 349,255.5C346.618,239.867 352.785,234.367 367.5,239C370.523,245.065 373.356,251.232 376,257.5C378.264,260.433 381.098,262.6 384.5,264C401.444,267.244 418.444,270.244 435.5,273C462.434,280.935 480.601,298.102 490,324.5C491.958,329.329 493.124,334.329 493.5,339.5C505.344,336.59 517.01,337.257 528.5,341.5C534.441,314.413 549.107,293.579 572.5,279C577.42,276.804 582.42,274.804 587.5,273C604.221,269.828 620.887,266.495 637.5,263C640.249,261.877 642.749,260.377 645,258.5C647.24,254.024 648.906,249.357 650,244.5C653.256,237.403 658.756,234.903 666.5,237C672.786,239.85 675.286,244.684 674,251.5C669.1,270.066 657.267,281.566 638.5,286C624.543,288.882 610.543,291.548 596.5,294C568.778,302.041 554.111,320.374 552.5,349C567.859,355.87 578.026,367.37 583,383.5C585.545,384.522 588.045,385.688 590.5,387C603.246,398.925 611.579,413.425 615.5,430.5C634.907,423.71 654.907,420.377 675.5,420.5C675.333,409.162 675.5,397.828 676,386.5C677.08,384.004 678.414,381.67 680,379.5L699.5,360C708.96,357.064 714.96,360.397 717.5,370C717.053,372.956 716.22,375.789 715,378.5C709.952,384.215 704.286,389.215 698,393.5C698.271,406.354 696.938,419.021 694,431.5C692.807,436.694 689.64,439.86 684.5,441C662.332,442.145 640.665,445.978 619.5,452.5C618.777,459.186 617.943,465.853 617,472.5C616.484,475.034 615.317,477.2 613.5,479C629.454,489.773 641.12,503.94 648.5,521.5C661.226,517.568 674.226,516.068 687.5,517C689.96,518.458 692.127,520.291 694,522.5C700.232,533.798 706.065,545.298 711.5,557C719.833,557.333 728.167,557.667 736.5,558C746.823,564.346 747.156,571.346 737.5,579C724.82,580.979 712.153,580.979 699.5,579C692.572,567.541 686.406,555.707 681,543.5L678.5,541C670.778,541.175 663.111,542.008 655.5,543.5C654.5,570.825 654.167,598.159 654.5,625.5C666.614,623.631 674.78,628.298 679,639.5C679.178,651.076 679.678,662.576 680.5,674C703.658,686.409 726.325,699.576 748.5,713.5C751.917,720.412 750.584,726.245 744.5,731C741.833,731.667 739.167,731.667 736.5,731C712.468,717.652 688.468,704.319 664.5,691C662.21,689.223 660.543,687.056 659.5,684.5ZM476.5,488.5C464.162,488.333 451.829,488.5 439.5,489C437.122,489.511 434.788,490.178 432.5,491C406.663,503.853 392.163,524.686 389,553.5C388.333,599.167 388.333,644.833 389,690.5C393.145,748.118 421.978,787.451 475.5,808.5C476.499,794.85 476.833,781.183 476.5,767.5L476.5,488.5ZM548.5,805.5C556.207,802.814 563.54,799.314 570.5,795C606.208,769.448 626.375,734.614 631,690.5C631.667,641.5 631.667,592.5 631,543.5C630.548,540.123 629.882,536.789 629,533.5C614.06,497.1 586.893,482.1 547.5,488.5L547.5,491.5C547.167,596.904 547.5,701.57 548.5,805.5ZM525.5,551.5C525.333,526.164 525.5,500.831 526,475.5C526.511,473.122 527.178,470.788 528,468.5C528.75,467.874 529.584,467.374 530.5,467C552.164,466.5 573.831,466.333 595.5,466.5C595.666,458.493 595.5,450.493 595,442.5C593.38,429.096 587.88,417.596 578.5,408C574.922,406.963 571.256,406.463 567.5,406.5C526.507,407.287 485.507,407.787 444.5,408C441.705,409.793 439.205,411.96 437,414.5C426.862,430.391 423.028,447.725 425.5,466.5C447.169,466.333 468.836,466.5 490.5,467C496.083,469.181 498.416,473.347 497.5,479.5C498.499,590.665 498.833,701.999 498.5,813.5L525.5,813.5L525.5,551.5ZM503.5,359.5C491.463,361.688 480.796,366.854 471.5,375C468.556,377.722 466.223,380.889 464.5,384.5C495.828,385.667 527.161,385.833 558.5,385C556.22,381.053 553.553,377.387 550.5,374C536.329,364.444 520.662,359.61 503.5,359.5Z"/>
    </g>
</svg>
