<?xml version="1.0" encoding="UTF-8" standalone="no"?>
<!DOCTYPE svg PUBLIC "-//W3C//DTD SVG 1.1//EN" "http://www.w3.org/Graphics/SVG/1.1/DTD/svg11.dtd">
<svg width="100%" height="100%" viewBox="0 0 1024 1024" version="1.1" xmlns="http://www.w3.org/2000/svg" xmlns:xlink="http://www.w3.org/1999/xlink" xml:space="preserve" xmlns:serif="http://www.serif.com/" style="fill-rule:evenodd;clip-rule:evenodd;stroke-linejoin:round;stroke-miterlimit:2;">
    <g transform="matrix(1.51462,0,0,1.51462,-271.569,-280.963)">
        <path d="M411.5,434.5C417.007,437.92 422.674,440.754 428.5,443C424.625,431.302 421.125,419.469 418,407.5C409.941,389.048 401.607,370.714 393,352.5C391.566,348.594 391.233,344.594 392,340.5C409.814,306.875 427.147,272.875 444,238.5C452.104,224.095 462.771,221.762 476,231.5C480.073,236.859 481.406,242.859 480,249.5C466.366,277.438 451.699,304.771 436,331.5C433.603,335.623 431.77,339.956 430.5,344.5C436.446,361.058 442.946,377.391 450,393.5C454.297,405.688 458.13,418.021 461.5,430.5C488.611,413.554 517.611,409.721 548.5,419C559.399,421.867 569.232,426.7 578,433.5C584.988,403.363 595.488,374.53 609.5,347C607.745,341.989 605.578,337.156 603,332.5C587.208,305.249 572.208,277.582 558,249.5C556.401,237.508 561.234,229.674 572.5,226C580.172,225.417 586.338,228.251 591,234.5C606.556,265.28 622.889,295.613 640,325.5C643.528,331.72 646.361,338.22 648.5,345C647.668,348.164 646.834,351.331 646,354.5C632.208,382.555 621.208,411.555 613,441.5C635.241,425.624 658.408,411.124 682.5,398C690.637,392.695 698.637,387.195 706.5,381.5C707.476,378.503 707.31,375.503 706,372.5C704,367.167 702,361.833 700,356.5C678.339,306.859 657.006,257.192 636,207.5C634.05,194.699 639.383,187.365 652,185.5C659.318,185.487 664.984,188.487 669,194.5C695.445,253.838 721.112,313.505 746,373.5C748.239,384.052 745.739,393.219 738.5,401C701.296,428.113 661.963,451.946 620.5,472.5C619.394,474.284 619.394,476.118 620.5,478C622.364,482.228 624.364,486.394 626.5,490.5C627.365,491.583 628.365,491.749 629.5,491C640.167,486.333 650.833,481.667 661.5,477C681.104,467.036 700.438,456.702 719.5,446C722.075,445.042 724.741,444.542 727.5,444.5C750.764,449.653 774.098,454.486 797.5,459C809.753,461.059 822.087,462.392 834.5,463C842.915,467.348 845.748,474.181 843,483.5C839.821,492.682 833.321,497.349 823.5,497.5C796.016,492.788 768.683,487.288 741.5,481C738.5,480.333 735.5,480.333 732.5,481C703.516,500.508 671.849,513.841 637.5,521C635.714,521.196 634.381,522.029 633.5,523.5C672.202,524.869 710.869,524.702 749.5,523C753.4,524.565 757.066,526.565 760.5,529C770.131,537.81 780.131,546.143 790.5,554C799.385,562.135 803.718,572.302 803.5,584.5C793.409,664.892 782.909,745.225 772,825.5C770.594,839.933 762.761,846.433 748.5,845C740.361,840.391 736.361,833.391 736.5,824C746.291,746.502 756.125,669.002 766,591.5C766.667,587.167 766.667,582.833 766,578.5C757.468,570.488 748.301,563.322 738.5,557C703.835,556.5 669.168,556.333 634.5,556.5C631.924,571.967 627.257,586.8 620.5,601C635.517,609.843 650.851,618.177 666.5,626C683.173,636.339 699.007,647.839 714,660.5C717.884,668.865 718.55,677.531 716,686.5C708.286,715.31 697.619,742.977 684,769.5C669.588,797.325 654.921,824.992 640,852.5C634.572,860.976 627.072,863.476 617.5,860C609.853,854.075 606.686,846.241 608,836.5C625.585,803.991 642.585,771.324 659,738.5C667.411,720.069 674.911,701.235 681.5,682C678.549,678.046 675.216,674.379 671.5,671C660.532,661.512 648.532,653.512 635.5,647C622.744,641.457 610.078,635.624 597.5,629.5C561.475,662.394 520.475,670.561 474.5,654C460.886,647.356 448.719,638.856 438,628.5C408.165,639.574 381.165,655.241 357,675.5C357.353,679.578 358.353,683.578 360,687.5C370.688,715.545 383.021,742.878 397,769.5C409.269,791.706 421.269,814.039 433,836.5C434.515,845.959 431.682,853.792 424.5,860C415.682,863.276 408.182,861.443 402,854.5C381.173,815.844 361.173,776.844 342,737.5C331.693,715.246 324.193,692.08 319.5,668C319.357,663.781 320.524,659.948 323,656.5C352.072,633.875 383.572,615.208 417.5,600.5C409.739,586.794 404.739,572.127 402.5,556.5C369.165,556.333 335.832,556.5 302.5,557C293.095,563.068 284.262,569.902 276,577.5C275.377,585.865 275.71,594.198 277,602.5C286.161,674.795 294.995,747.128 303.5,819.5C303.781,834.721 296.448,841.888 281.5,841C277.388,839.221 274.222,836.388 272,832.5C270.031,826.987 268.697,821.321 268,815.5C258.404,739.545 249.071,663.545 240,587.5C237.405,573.216 241.239,561.05 251.5,551C261.785,543.716 271.785,536.05 281.5,528C284.371,526.065 287.371,524.399 290.5,523C326.789,524.543 363.122,524.876 399.5,524C374.447,516.537 349.78,507.871 325.5,498C314.895,491.447 304.061,485.28 293,479.5C263.513,487.398 233.68,493.231 203.5,497C193.537,492.817 189.371,485.317 191,474.5C192.427,468.075 196.26,463.908 202.5,462C213.92,461.416 225.253,460.083 236.5,458C257.159,453.435 277.826,448.935 298.5,444.5C300.167,444.667 301.833,444.833 303.5,445C337.421,464.96 373.088,481.126 410.5,493.5C413.36,487.588 416.026,481.588 418.5,475.5C387.243,459.206 356.909,441.373 327.5,422C318.079,415.25 309.246,407.75 301,399.5C296.48,389.551 296.48,379.551 301,369.5C324.113,310.607 347.78,251.94 372,193.5C379.599,184.817 388.433,183.317 398.5,189C404.652,194.122 406.818,200.622 405,208.5C380.717,265.73 357.551,323.397 335.5,381.5C336.219,383.728 337.552,385.561 339.5,387C362.863,403.875 386.863,419.708 411.5,434.5ZM509.5,448.5C488.226,452.228 470.726,462.561 457,479.5C428.693,518.958 428.36,558.625 456,598.5C485.378,630.814 519.545,636.98 558.5,617C598.158,588.161 609.992,550.328 594,503.5C578.002,466.736 549.836,448.403 509.5,448.5ZM487.5,549.5C500.78,548.946 509.613,554.946 514,567.5C515.302,588.203 505.802,597.037 485.5,594C474.133,587.955 469.633,578.455 472,565.5C475.355,558.313 480.522,552.979 487.5,549.5ZM490.5,492.5C502.889,491.353 511.556,496.353 516.5,507.5C526.763,491.225 539.263,489.225 554,501.5C560.906,515.044 558.406,526.544 546.5,536C534.427,542.335 524.26,540.168 516,529.5C503.638,542.764 491.305,542.764 479,529.5C472.101,517.189 473.601,506.023 483.5,496C485.925,494.787 488.259,493.621 490.5,492.5ZM537.5,550.5C556.792,548.63 566.292,557.297 566,576.5C560.193,594.32 548.693,599.487 531.5,592C521.789,582.541 519.956,571.707 526,559.5C529.161,555.491 532.994,552.491 537.5,550.5Z"/>
    </g>
</svg>
