<?xml version="1.0" encoding="UTF-8" standalone="no"?>
<!DOCTYPE svg PUBLIC "-//W3C//DTD SVG 1.1//EN" "http://www.w3.org/Graphics/SVG/1.1/DTD/svg11.dtd">
<svg width="100%" height="100%" viewBox="0 0 1024 1024" version="1.1" xmlns="http://www.w3.org/2000/svg" xmlns:xlink="http://www.w3.org/1999/xlink" xml:space="preserve" xmlns:serif="http://www.serif.com/" style="fill-rule:evenodd;clip-rule:evenodd;stroke-linejoin:round;stroke-miterlimit:2;">
    <g transform="matrix(1.42678,0,0,1.42678,-212.546,-185.025)">
        <path d="M355.5,782.5C321.317,768.909 287.983,753.409 255.5,736C238.52,727.034 221.52,718.034 204.5,709C199.309,705.761 196.976,701.094 197.5,695C199.073,684.543 200.239,674.043 201,663.5C201.5,615.501 201.667,567.501 201.5,519.5C190.495,519.667 179.495,519.5 168.5,519C161.843,516.386 159.343,511.553 161,504.5C162.399,501.371 164.065,498.371 166,495.5C182.398,476.938 198.232,457.938 213.5,438.5C185.54,422.629 167.707,398.963 160,367.5C158.305,355.836 158.139,344.17 159.5,332.5C164.878,304.586 179.211,282.419 202.5,266C217.446,257.629 233.446,254.629 250.5,257C257.604,257.795 264.604,259.128 271.5,261C283.944,265.037 296.444,268.87 309,272.5L337.5,244L364.5,223C367.74,220.909 371.074,219.076 374.5,217.5C380.836,211.658 388.169,207.325 396.5,204.5C415.994,193.832 436.66,185.998 458.5,181C472.289,177.53 486.289,175.697 500.5,175.5C500.333,161.829 500.5,148.163 501,134.5C506.869,127.756 512.536,128.089 518,135.5C518.814,148.546 518.647,161.546 517.5,174.5C520.977,175.167 524.311,175.834 527.5,176.5C577.658,182.266 622.658,200.433 662.5,231C677.359,244.028 691.692,257.528 705.5,271.5C705.369,272.376 705.702,273.043 706.5,273.5C720.826,267.665 735.492,262.999 750.5,259.5C753.865,258.96 757.198,258.294 760.5,257.5C773.634,255.736 786.634,256.402 799.5,259.5C833.482,275.696 852.648,302.696 857,340.5C858.114,383.781 840.281,416.614 803.5,439C820.346,458.182 836.846,477.682 853,497.5C856.668,502.844 857.334,508.511 855,514.5C854.241,516.063 853.074,517.063 851.5,517.5C850.737,518.268 849.737,518.768 848.5,519C837.172,519.5 825.838,519.667 814.5,519.5L814.5,671.5C815.989,678.745 816.989,686.079 817.5,693.5C817.555,699.219 815.555,704.052 811.5,708C760.645,735.622 708.645,760.955 655.5,784C639.398,790.367 623.231,796.534 607,802.5C601.192,801.36 597.192,798.027 595,792.5C591.75,781.33 589.25,769.996 587.5,758.5C567.574,784.427 544.907,807.76 519.5,828.5C518.672,832.796 518.172,837.129 518,841.5C515.259,846.419 511.092,848.252 505.5,847C503.714,846.215 502.214,845.049 501,843.5C500.667,838.5 500.333,833.5 500,828.5C498.293,826.963 496.793,825.296 495.5,823.5C471.801,803.635 450.301,781.635 431,757.5C428.545,768.773 426.212,780.106 424,791.5C421.135,800.849 414.968,804.349 405.5,802C388.643,795.729 371.977,789.229 355.5,782.5ZM175.5,354.5C176.775,364.93 179.608,374.93 184,384.5C195.764,405.096 212.264,420.762 233.5,431.5C235.103,435.449 234.603,439.116 232,442.5C219.621,457.374 207.454,472.374 195.5,487.5C191.737,492.103 187.737,496.603 183.5,501C192.5,501.333 201.5,501.667 210.5,502C214.499,502.668 217.332,504.835 219,508.5C219.667,560.167 219.667,611.833 219,663.5C218.847,674.131 217.68,684.631 215.5,695C267.751,724.624 321.751,750.791 377.5,773.5C387.507,778.181 397.84,781.681 408.5,784C409.958,773.806 411.791,763.639 414,753.5C415.027,750.246 416.527,747.246 418.5,744.5C400.381,719.934 384.547,693.934 371,666.5C366.894,654.287 362.227,642.287 357,630.5L327,582.5C317.772,565.836 309.105,548.836 301,531.5C288.852,500.263 281.352,467.93 278.5,434.5C277.527,432.052 277.194,429.385 277.5,426.5C276.336,399.67 276.17,372.67 277,345.5C278.264,335.638 281.764,326.638 287.5,318.5C272.574,308.004 256.907,306.837 240.5,315C235.971,318.364 231.971,322.197 228.5,326.5C214.192,350.406 216.859,372.24 236.5,392C242.755,396.378 248.922,400.878 255,405.5C256.925,415.904 252.758,420.404 242.5,419C237.9,413.708 232.567,409.375 226.5,406C204.516,386.243 197.682,362.076 206,333.5C210.208,322.969 216.375,313.802 224.5,306C227.222,303.642 230.222,301.809 233.5,300.5C246.913,292.603 261.247,290.769 276.5,295C282.009,296.336 287.343,298.17 292.5,300.5C294.155,296.871 296.155,293.537 298.5,290.5C299.85,289.176 299.683,288.176 298,287.5C281.89,281.575 265.39,277.075 248.5,274C226.177,271.411 208.011,278.911 194,296.5C181.236,313.703 175.069,333.036 175.5,354.5ZM297.5,656.5C308.94,655.757 313.106,660.757 310,671.5C303.57,679.475 297.236,679.475 291,671.5C288.906,664.375 291.072,659.375 297.5,656.5ZM369.5,239.5C342.718,258.112 321.385,281.612 305.5,310C312.818,306.661 320.484,303.661 328.5,301C352.73,295.562 377.063,295.062 401.5,299.5C404.306,299.822 406.806,300.822 409,302.5C409.167,302.167 409.333,301.833 409.5,301.5C404.087,294.342 398.921,287.009 394,279.5C386.548,265.595 379.381,251.595 372.5,237.5C371.5,238.167 370.5,238.833 369.5,239.5ZM407.5,216.5C400.561,219.97 393.561,223.47 386.5,227C390.989,236.143 395.323,245.31 399.5,254.5C403.908,261.644 408.074,268.977 412,276.5C426.515,298.018 442.181,318.685 459,338.5C466.364,346.198 474.03,353.531 482,360.5C483.457,363.366 483.79,366.366 483,369.5C482.391,373.283 480.224,374.95 476.5,374.5C477.198,380.467 477.698,386.467 478,392.5C479.848,395.011 481.681,397.511 483.5,400C482.181,401.988 480.347,403.155 478,403.5C475.277,402.459 472.777,400.959 470.5,399C462.856,391.024 454.856,383.358 446.5,376C439.204,371.853 431.537,368.52 423.5,366C404.847,364.221 386.18,364.221 367.5,366C358.314,366.015 350.481,369.182 344,375.5C335.258,387.958 332.258,401.625 335,416.5C335.883,419.102 337.383,421.269 339.5,423C344.791,424.215 350.124,425.215 355.5,426C359.165,427.497 362.498,429.497 365.5,432C378.942,450.276 394.609,466.443 412.5,480.5C417.28,474.217 422.613,468.384 428.5,463C437.622,456.644 447.622,454.811 458.5,457.5C462.606,444.787 469.606,433.954 479.5,425C486.189,420.968 493.189,420.468 500.5,423.5L500.5,191.5C467.996,194.336 436.996,202.67 407.5,216.5ZM407.5,383.5C422.428,383.547 434.262,389.547 443,401.5C448.588,415.548 445.755,427.715 434.5,438C423.613,444.311 412.946,443.977 402.5,437C386.135,425.914 381.968,411.414 390,393.5C394.687,387.913 400.521,384.58 407.5,383.5ZM407.5,401.5C400.693,411.985 403.359,419.485 415.5,424C423.277,426.125 427.611,423.292 428.5,415.5C425.744,404.614 418.744,399.947 407.5,401.5ZM538.5,600.5C545.02,596.075 551.353,591.408 557.5,586.5C552.386,581.111 546.053,578.111 538.5,577.5C532.594,584.294 527.927,591.961 524.5,600.5C528.107,601.489 531.774,601.823 535.5,601.5C536.609,601.443 537.609,601.11 538.5,600.5ZM518.5,415.5C518.183,418.572 518.516,421.572 519.5,424.5C526.554,420.527 533.554,420.694 540.5,425C552.257,432.996 560.257,443.829 564.5,457.5C569.446,456.386 574.446,456.219 579.5,457C592.408,461.619 602.408,469.786 609.5,481.5C626.56,465.439 642.227,448.106 656.5,429.5C664.596,426.226 672.929,423.726 681.5,422C685.482,410.836 685.316,399.669 681,388.5C677.37,377.868 670.204,371.035 659.5,368C640.287,364.842 620.953,363.842 601.5,365C590.746,366.471 581.08,370.471 572.5,377C563.115,385.723 553.781,394.39 544.5,403C534.93,402.519 534.097,399.353 542,393.5C542.236,387.962 542.736,382.462 543.5,377C538.698,372.931 536.865,367.764 538,361.5C560.537,341.304 580.537,318.971 598,294.5C612.742,275.189 624.242,254.022 632.5,231C629.197,228.677 625.863,226.343 622.5,224C591.779,207.649 559.112,197.149 524.5,192.5C525.574,194.284 527.24,195.451 529.5,196C526.833,196.667 524.167,197.333 521.5,198C525.19,198.424 525.357,199.258 522,200.5C520.759,205.426 519.926,210.426 519.5,215.5C519.831,252.813 520.164,290.147 520.5,327.5C520.643,357.014 519.977,386.347 518.5,415.5ZM607.5,383.5C626.832,383.666 636.666,393.333 637,412.5C631.167,433.506 617.334,443.339 595.5,442C580.043,436.648 573.209,425.815 575,409.5C580.395,393.929 591.229,385.263 607.5,383.5ZM603.5,401.5C600.155,402.605 597.322,404.605 595,407.5C590.688,414.613 592.188,420.113 599.5,424C605.566,425.22 611.066,424.054 616,420.5C622.211,407.524 618.044,401.191 603.5,401.5ZM373.5,551.5C382.002,531.193 392.669,512.027 405.5,494C398.006,489.747 391.006,484.747 384.5,479L368,462.5C362.875,455.707 357.375,449.207 351.5,443C326.712,443.207 315.378,430.874 317.5,406C316.472,380.028 327.805,362.028 351.5,352C367.375,349.409 383.375,348.242 399.5,348.5C421.421,346.482 441.421,351.315 459.5,363C446.358,348.371 433.692,333.371 421.5,318C418.711,317.979 415.878,318.146 413,318.5C396.624,315.641 380.124,313.974 363.5,313.5C353.622,313.425 343.956,314.758 334.5,317.5C325.497,320.113 316.831,323.613 308.5,328C302.608,330.892 298.441,335.392 296,341.5C294.548,361.779 294.048,382.113 294.5,402.5C294.062,414.576 294.562,426.576 296,438.5C299.44,446.109 304.94,451.443 312.5,454.5C312.814,457.947 313.648,461.28 315,464.5C330.653,497.166 349.32,527.833 371,556.5C371.374,554.509 372.207,552.842 373.5,551.5ZM550.5,664.5C518.529,656.989 486.862,657.989 455.5,667.5C454.602,668.158 453.602,668.824 452.5,669.5C459.858,679.185 467.191,688.852 474.5,698.5C477.172,700.84 479.839,703.173 482.5,705.5C500.491,706.666 518.491,706.833 536.5,706C540.299,703.203 543.799,700.036 547,696.5C553.186,688.764 559.352,681.097 565.5,673.5C565.703,671.956 566.37,670.622 567.5,669.5C561.777,667.957 556.11,666.29 550.5,664.5ZM518.5,805.5C518.369,806.239 518.536,806.906 519,807.5C553.757,776.095 584.09,741.095 610,702.5C622.843,682.306 633.01,660.806 640.5,638C647.495,608.984 644.328,581.151 631,554.5C618.165,530.337 604.498,506.67 590,483.5C584.695,475.1 577.195,472.1 567.5,474.5C570.326,501.146 577.492,526.479 589,550.5C598.627,563.423 605.294,577.757 609,593.5C610.438,607.773 609.105,621.773 605,635.5C600.111,648.282 593.944,660.282 586.5,671.5C582.918,677.754 578.918,683.754 574.5,689.5C569.298,696.578 563.631,703.245 557.5,709.5C553.249,714.957 547.915,718.957 541.5,721.5C521.213,722.477 500.879,722.81 480.5,722.5C472.162,719.841 465.495,714.841 460.5,707.5C442.203,687.604 427.37,665.271 416,640.5C408.898,622.288 408.065,603.955 413.5,585.5C417.49,573.186 423.323,561.853 431,551.5C435.377,543.71 439.377,535.71 443,527.5C448.197,510.684 452.697,493.684 456.5,476.5C445.917,471.033 437.417,473.366 431,483.5C413.131,511.897 396.798,541.231 382,571.5C379.97,579.156 378.137,586.822 376.5,594.5C374.24,611.478 375.74,628.145 381,644.5C388.558,664.949 398.224,684.282 410,702.5C436.163,739.987 465.83,774.32 499,805.5C499.154,801.902 500.154,798.569 502,795.5C503.853,793.408 506.186,792.408 509,792.5C516.666,793.898 519.832,798.231 518.5,805.5ZM722.5,284.5C720.208,285.34 717.875,286.34 715.5,287.5C718.914,291.994 722.081,296.66 725,301.5C762.075,284.636 790.408,293.97 810,329.5C821.243,360.362 814.409,386.529 789.5,408C784.833,411.333 780.167,414.667 775.5,418C771.082,420.087 767.249,419.254 764,415.5C763.333,412.167 763.333,408.833 764,405.5C772.249,399.922 779.916,393.588 787,386.5C801.018,367.552 802.018,347.885 790,327.5C771.684,307.084 750.85,304.084 727.5,318.5C733.788,325.743 737.955,334.076 740,343.5C740.667,372.833 740.667,402.167 740,431.5C739.369,439.722 738.203,447.722 736.5,455.5C736.45,456.217 736.36,456.887 736.23,457.51C732.764,482.681 726.187,507.011 716.5,530.5C709.377,548.082 700.711,564.749 690.5,580.5C682.098,595.52 673.598,610.52 665,625.5C660.621,634.26 656.787,643.26 653.5,652.5L653.5,653.5C639.961,685.914 622.794,716.248 602,744.5C602.466,749.717 603.633,754.717 605.5,759.5C606.344,767.593 607.678,775.593 609.5,783.5C669.636,761.265 727.636,734.432 783.5,703C788.752,700.538 794.085,698.371 799.5,696.5C798.75,686.507 798.084,676.507 797.5,666.5L797.5,511.5C797.6,505.75 800.6,502.584 806.5,502C816.873,501.435 827.207,501.435 837.5,502C818.552,482.724 800.718,462.558 784,441.5C781.91,437.879 782.077,434.379 784.5,431C791.83,428.006 798.497,424.006 804.5,419C835.625,393.958 846.125,362.125 836,323.5C828.879,300.558 814.379,284.558 792.5,275.5C782.898,273.808 773.232,273.308 763.5,274C749.795,277.343 736.128,280.843 722.5,284.5ZM710.5,657.5C714.514,657.334 718.514,657.501 722.5,658C723.416,658.374 724.25,658.874 725,659.5C728.878,671.271 724.711,677.104 712.5,677C706.892,674.182 704.725,669.682 706,663.5C706.804,660.854 708.304,658.854 710.5,657.5ZM723.5,343.5C720.983,336.666 716.65,331.166 710.5,327C686.036,315.98 660.369,311.646 633.5,314C621.864,315.913 610.197,317.579 598.5,319C589.152,333.174 578.485,346.341 566.5,358.5L567.5,359.5C575.931,353.743 585.264,350.243 595.5,349C612.833,348.333 630.167,348.333 647.5,349C678.186,351.015 696.352,367.182 702,397.5C704.037,409.591 702.037,420.925 696,431.5C687.856,440.44 677.69,444.274 665.5,443C652.97,463.865 636.637,481.198 616.5,495C629.118,515.402 640.284,536.569 650,558.5C671.249,532.014 688.416,503.014 701.5,471.5C703.936,466.291 706.103,460.958 708,455.5L718,445.5C720.434,442.205 722.101,438.538 723,434.5C723.5,404.168 723.667,373.835 723.5,343.5ZM445.5,652.5C489.825,638.265 533.825,639.265 577.5,655.5C595.278,628.164 597.111,599.831 583,570.5C571.998,555.861 557.498,546.361 539.5,542C532.566,540.379 525.566,539.213 518.5,538.5C518.168,550.518 518.501,562.518 519.5,574.5C522.263,570.118 525.597,566.285 529.5,563C549.14,559.404 563.974,566.237 574,583.5C575.759,590.009 574.259,595.509 569.5,600C561.739,604.214 553.739,607.881 545.5,611C539.794,615.854 533.46,619.687 526.5,622.5C523.651,621.914 521.318,620.58 519.5,618.5C515.834,615.003 512.001,611.669 508,608.5C504.133,612.702 499.967,616.535 495.5,620C492.97,621.422 490.303,621.755 487.5,621C484.797,617.962 481.797,615.295 478.5,613C469.46,609.766 460.793,605.766 452.5,601C447.709,597.258 445.876,592.424 447,586.5C455.279,567.604 469.779,559.437 490.5,562C494.974,564.143 498.474,567.31 501,571.5C501.464,570.906 501.631,570.239 501.5,569.5C500.506,559.347 500.172,549.014 500.5,538.5C452.75,541.918 428.083,567.585 426.5,615.5C428.587,628.698 433.254,641.031 440.5,652.5C442.095,653.434 443.761,653.434 445.5,652.5ZM517.5,433.5C518.468,462.808 518.801,492.142 518.5,521.5C535.485,522.156 551.152,526.656 565.5,535C563.094,530.792 561.26,526.292 560,521.5C555.223,504.061 551.557,486.394 549,468.5C547.819,464.109 546.486,459.776 545,455.5C539.827,443.312 530.66,435.979 517.5,433.5ZM717.5,471.5C705.276,510.292 685.109,544.292 657,573.5C658.934,582.304 659.934,591.304 660,600.5C661.92,596.546 663.92,592.546 666,588.5C690.676,552.581 707.842,513.581 717.5,471.5ZM301.5,474.5C305.823,496.635 312.656,517.969 322,538.5C333.563,559.961 345.897,580.961 359,601.5C359.333,596.167 359.667,590.833 360,585.5C361.342,580.811 362.342,576.145 363,571.5C337.941,542.046 317.441,509.712 301.5,474.5ZM495.5,435.5C487.024,440.503 481.19,447.836 478,457.5C471.728,482.124 465.561,506.79 459.5,531.5C459.667,531.833 459.833,532.167 460,532.5C472.368,524.881 485.868,521.214 500.5,521.5L500.5,435.5L495.5,435.5ZM645.5,239.5C638.204,261.26 627.871,281.426 614.5,300C631.923,296.71 649.59,295.71 667.5,297C682.031,298.212 695.697,302.046 708.5,308.5C709.521,307.998 709.688,307.332 709,306.5C702.439,295.938 695.106,285.938 687,276.5C673.871,263.195 660.038,250.861 645.5,239.5ZM479.5,577.5C474.544,578.808 469.877,580.975 465.5,584C464.483,585.049 464.316,586.216 465,587.5L484.5,601C487.894,601.752 491.227,601.585 494.5,600.5C495.583,599.635 495.749,598.635 495,597.5C492.606,591.713 489.94,586.046 487,580.5C484.959,578.35 482.459,577.35 479.5,577.5Z"/>
    </g>
</svg>
