<?xml version="1.0" encoding="UTF-8" standalone="no"?>
<!DOCTYPE svg PUBLIC "-//W3C//DTD SVG 1.1//EN" "http://www.w3.org/Graphics/SVG/1.1/DTD/svg11.dtd">
<svg width="100%" height="100%" viewBox="0 0 1024 1024" version="1.1" xmlns="http://www.w3.org/2000/svg" xmlns:xlink="http://www.w3.org/1999/xlink" xml:space="preserve" xmlns:serif="http://www.serif.com/" style="fill-rule:evenodd;clip-rule:evenodd;stroke-linejoin:round;stroke-miterlimit:2;">
    <g transform="matrix(1.27852,0,0,1.27852,-148.271,-145.211)">
        <path d="M332.5,582.5C328.847,581.214 327.18,578.547 327.5,574.5C327.151,571.029 328.484,568.529 331.5,567C377.165,566.5 422.832,566.333 468.5,566.5C470.138,554.875 470.971,543.208 471,531.5C454.811,503.122 439.144,474.455 424,445.5C421.565,440.729 422.065,436.395 425.5,432.5C443.42,420.29 461.254,407.957 479,395.5C478.371,385.199 477.871,374.866 477.5,364.5C455.497,364.667 433.497,364.5 411.5,364C407.587,358.969 407.587,353.969 411.5,349C434.164,348.5 456.831,348.333 479.5,348.5C480.816,342.201 483.483,336.534 487.5,331.5C461.724,318.659 454.224,298.992 465,272.5C473.656,262.078 484.49,257.078 497.5,257.5C483.642,227.489 469.142,197.822 454,168.5C441.131,148.15 422.964,135.317 399.5,130C389.844,130.76 380.177,131.427 370.5,132C367.479,127.123 368.146,122.79 372.5,119C389.621,111.518 406.621,111.851 423.5,120C441.481,129.978 456.314,143.478 468,160.5C484.041,190.583 499.041,221.249 513,252.5C514.011,253.337 515.178,253.67 516.5,253.5C518.119,245.915 520.619,238.582 524,231.5C535.365,207.102 548.031,183.435 562,160.5C577.282,138.89 597.449,123.723 622.5,115C634.352,112.58 646.019,113.246 657.5,117C660.759,118.211 663.592,120.044 666,122.5C666.829,131.661 662.662,135.161 653.5,133C639.366,127.847 625.7,128.847 612.5,136C591.464,148.707 575.63,166.207 565,188.5C553.291,210.586 542.124,232.919 531.5,255.5C545.807,257.213 557.64,263.547 567,274.5C575.771,292.28 572.937,308.113 558.5,322C554.167,324.333 549.833,326.667 545.5,329C544.978,329.561 544.645,330.228 544.5,331C547.701,336.567 551.034,342.067 554.5,347.5C579.493,348.333 604.493,348.833 629.5,349C633.212,351.558 634.378,355.058 633,359.5C632.167,361.667 630.667,363.167 628.5,364C604.169,364.5 579.836,364.667 555.5,364.5C554.71,374.507 554.21,384.507 554,394.5C571.922,407.211 589.755,420.044 607.5,433C610.798,435.464 613.132,438.63 614.5,442.5C611.861,449.112 608.694,455.446 605,461.5C590.635,485.187 576.302,508.854 562,532.5C562.297,543.858 563.13,555.191 564.5,566.5C609.835,566.333 655.168,566.5 700.5,567C705.827,570.436 706.827,574.936 703.5,580.5C702.624,581.251 701.624,581.751 700.5,582C655.835,582.5 611.168,582.667 566.5,582.5C569.977,606.363 571.977,630.363 572.5,654.5C609.471,652.472 646.471,651.139 683.5,650.5L683.5,762.5C684.833,811.997 685.333,861.664 685,911.5C681.662,914.318 677.829,915.151 673.5,914C672.333,913.5 671.5,912.667 671,911.5C669.146,841.514 667.646,771.514 666.5,701.5C666.499,689.813 665.832,678.48 664.5,667.5C633.803,667.632 603.137,668.632 572.5,670.5C569.48,732.245 555.313,791.245 530,847.5C527.921,851.993 525.588,856.326 523,860.5C519.057,863.366 515.39,863.032 512,859.5C490.325,816.808 475.658,771.808 468,724.5C466.216,713.129 464.216,701.796 462,690.5C461.5,684.175 461.334,677.842 461.5,671.5C440.657,670.555 419.99,669.221 399.5,667.5L383.5,667.5C379.366,666.515 375.032,666.182 370.5,666.5L370.5,679.5C369.663,696.486 369.33,713.486 369.5,730.5C368.3,787.172 366.8,843.839 365,900.5C364.89,904.855 364.057,909.022 362.5,913C357.962,915.303 353.795,914.803 350,911.5C351.063,824.166 352.563,736.832 354.5,649.5C390.154,651.412 425.821,653.078 461.5,654.5C461.334,645.827 461.5,637.16 462,628.5C463.829,616.231 464.995,603.898 465.5,591.5C464.473,589.55 463.807,586.883 463.5,583.5C419.663,583.832 375.997,583.499 332.5,582.5ZM497.5,272.5C489.115,274.376 483.282,279.376 480,287.5C479.149,307.155 488.649,317.489 508.5,318.5C509.53,324.463 509.697,330.463 509,336.5C501.667,339.138 498.333,344.471 499,352.5C497.71,354.792 496.043,356.792 494,358.5C493.833,360 493.667,361.5 493.5,363C496.281,386.802 498.781,410.635 501,434.5C501.688,442.681 503.188,450.681 505.5,458.5C502.824,468.871 499.99,479.204 497,489.5C494.039,510.229 490.705,530.895 487,551.5C484.237,570.081 482.904,588.748 483,607.5C488.542,602.289 494.375,597.456 500.5,593C505.442,589.363 510.776,586.53 516.5,584.5C521.37,585.602 525.703,587.768 529.5,591C537.548,596.929 545.048,603.429 552,610.5C549.735,577.379 546.069,544.379 541,511.5C537.793,493.245 533.626,475.245 528.5,457.5C533.884,424.332 536.884,390.998 537.5,357.5C536.139,355.972 534.972,354.305 534,352.5C535.145,345.346 532.479,340.346 526,337.5C525.5,331.175 525.334,324.842 525.5,318.5C536.076,317.75 543.91,312.75 549,303.5C554.234,285.798 547.734,275.631 529.5,273C518.839,272.5 508.172,272.333 497.5,272.5ZM550.5,411.5C548.764,428.189 546.764,444.856 544.5,461.5C549.293,477.339 553.46,493.339 557,509.5C569.079,487.669 581.912,466.336 595.5,445.5C580.688,433.926 565.688,422.593 550.5,411.5ZM516.5,601.5C504.234,610.587 492.067,619.92 480,629.5C478.631,649.805 478.131,670.138 478.5,690.5L555.5,690.5C555.667,679.495 555.5,668.495 555,657.5C553.936,648.542 552.936,639.542 552,630.5C540.293,620.621 528.459,610.954 516.5,601.5ZM540.5,758.5C524.675,759.496 508.675,759.83 492.5,759.5C498.725,784.619 507.225,808.953 518,832.5C528.358,809.094 536.524,784.927 542.5,760C542.164,758.97 541.497,758.47 540.5,758.5ZM481.5,707.5C483.141,719.167 485.475,730.667 488.5,742C507.509,742.833 526.509,742.666 545.5,741.5C548.214,730.768 550.214,719.934 551.5,709C528.211,707.552 504.878,707.052 481.5,707.5ZM481.5,412.5C467.715,422.443 454.049,432.61 440.5,443C452.355,465.208 464.355,487.375 476.5,509.5C478.78,492.713 482.78,476.379 488.5,460.5C486.159,444.399 483.826,428.399 481.5,412.5Z"/>
    </g>
</svg>
