<?xml version="1.0" encoding="UTF-8" standalone="no"?>
<!DOCTYPE svg PUBLIC "-//W3C//DTD SVG 1.1//EN" "http://www.w3.org/Graphics/SVG/1.1/DTD/svg11.dtd">
<svg width="100%" height="100%" viewBox="0 0 1024 1024" version="1.1" xmlns="http://www.w3.org/2000/svg" xmlns:xlink="http://www.w3.org/1999/xlink" xml:space="preserve" xmlns:serif="http://www.serif.com/" style="fill-rule:evenodd;clip-rule:evenodd;stroke-linejoin:round;stroke-miterlimit:2;">
    <g transform="matrix(1.55198,0,0,1.55198,-250.952,-289.569)">
        <path d="M487.5,603.5C483.817,600.922 479.65,599.588 475,599.5C412.712,605.359 366.046,581.359 335,527.5C314.731,485.106 313.231,442.439 330.5,399.5C298.308,410.502 267.642,424.668 238.5,442C216.139,459.027 196.473,478.694 179.5,501C174.138,504.493 168.971,504.326 164,500.5C163.333,499.167 162.667,497.833 162,496.5C160.366,473.34 165.366,451.673 177,431.5C187.146,414.361 199.146,398.695 213,384.5C219.833,378.333 226.667,372.167 233.5,366C254.791,349.021 276.791,333.021 299.5,318C307.599,311.905 315.099,305.072 322,297.5C324.503,294.498 326.503,291.165 328,287.5C329.288,272.899 331.955,258.566 336,244.5C359.929,197.512 397.096,182.345 447.5,199C488.345,216.351 510.345,247.184 513.5,291.5C512.994,315.72 505.66,337.554 491.5,357C562.086,358.562 628.419,375.895 690.5,409C697.204,412.68 703.538,416.847 709.5,421.5C719.094,427.754 728.427,434.42 737.5,441.5C740.43,446.943 740.096,452.11 736.5,457C735.271,457.781 733.938,458.281 732.5,458.5C684.315,420.907 629.982,396.074 569.5,384C535.257,376.193 500.591,373.193 465.5,375C450.839,375.822 439.839,382.489 432.5,395C423.774,398.778 418.774,395.944 417.5,386.5C418.493,381.014 421.16,376.514 425.5,373C439.668,362.915 455.001,354.915 471.5,349C479.978,342.223 486.145,333.723 490,323.5C502.996,280.815 491.163,246.982 454.5,222C433.859,210.602 412.193,207.935 389.5,214C371.042,223.122 358.209,237.289 351,256.5C349.192,264.445 348.192,272.445 348,280.5C350.63,276.868 353.63,273.535 357,270.5C359.667,265.167 362.333,259.833 365,254.5C371.514,246.997 379.681,244.163 389.5,246C395.752,246.414 401.252,248.581 406,252.5C408.976,260.381 406.143,264.381 397.5,264.5C391.851,263.54 386.185,263.373 380.5,264C377.481,267.192 374.814,270.692 372.5,274.5C384.187,289.867 396.354,304.867 409,319.5C409.464,318.906 409.631,318.239 409.5,317.5C407.11,307.105 408.776,297.272 414.5,288C403.601,286.752 399.101,280.585 401,269.5C402.182,267.643 403.849,266.643 406,266.5C412.183,268.092 417.85,270.759 423,274.5C423.483,273.552 423.649,272.552 423.5,271.5C421.629,266.79 418.463,263.124 414,260.5C412.622,252.878 415.789,249.378 423.5,250C425.996,251.08 428.33,252.414 430.5,254C435.655,260.977 437.655,268.81 436.5,277.5C435.325,284.037 432.992,290.037 429.5,295.5C428.66,297.853 427.326,299.853 425.5,301.5C424.71,302.794 423.71,303.961 422.5,305C427.393,304.897 430.059,307.23 430.5,312C430.06,315.593 429.227,319.093 428,322.5C420.971,335.906 412.471,348.24 402.5,359.5C399.365,362.8 396.031,365.967 392.5,369C380.833,376.667 369.167,384.333 357.5,392C351.016,399.127 346.182,407.293 343,416.5C327.273,468.758 338.44,514.258 376.5,553C402.246,574.526 431.913,584.36 465.5,582.5C464.227,571.279 468.893,568.112 479.5,573C489.078,584.419 501.078,591.919 515.5,595.5C538.505,601.126 561.838,604.292 585.5,605C579.388,601.221 573.555,597.055 568,592.5C566.517,589.298 566.183,585.964 567,582.5C567.417,581.244 568.25,580.577 569.5,580.5C571.352,579.039 573.518,578.039 576,577.5C608.148,596.771 632.814,623.104 650,656.5C657.667,673.5 665.333,690.5 673,707.5C675.919,712.34 679.086,717.006 682.5,721.5C683.325,722.386 684.325,722.719 685.5,722.5C688.539,702.89 687.873,683.39 683.5,664C683.58,662.106 683.913,660.273 684.5,658.5C688.603,655.959 692.77,655.959 697,658.5C708.167,679.514 720.834,699.514 735,718.5C734.923,696.554 731.257,675.221 724,654.5C712.66,635.147 700.327,616.481 687,598.5C682.403,587.428 685.903,583.595 697.5,587L705,594.5C713.274,606.708 722.274,618.375 732,629.5C736.054,634.942 739.054,640.942 741,647.5C740.457,637.437 739.124,627.437 737,617.5C734.725,608.846 732.559,600.179 730.5,591.5C724.368,588.266 718.368,584.766 712.5,581C698.856,570.179 684.856,559.845 670.5,550C655.833,540.667 641.167,531.333 626.5,522C606.266,509.381 585.266,498.047 563.5,488C561.785,487.223 560.785,485.89 560.5,484C560.838,472.502 566.172,469.502 576.5,475C592.36,481.597 607.693,489.263 622.5,498C675.055,530.558 725.388,566.225 773.5,605C777.021,606.592 780.354,608.425 783.5,610.5C779.251,592.669 771.751,576.335 761,561.5C746.117,544.517 729.617,529.517 711.5,516.5C696.862,506.842 681.862,497.676 666.5,489C614.416,461.862 559.749,441.862 502.5,429C498.839,424.52 498.506,419.687 501.5,414.5C510.928,413.682 520.261,414.515 529.5,417C561.54,425.177 592.874,435.51 623.5,448C663.756,464.851 700.756,486.684 734.5,513.5C736.296,514.793 737.963,516.293 739.5,518C740.167,518.667 740.833,518.667 741.5,518C734.986,511.805 729.819,504.638 726,496.5C725.233,492.406 725.566,488.406 727,484.5C732.126,478.004 738.292,476.837 745.5,481C759.744,496.341 772.911,512.508 785,529.5C800.696,551.558 812.696,575.558 821,601.5C821.667,604.833 821.667,608.167 821,611.5C816.076,616.756 811.076,616.756 806,611.5C802.486,601.812 798.986,592.145 795.5,582.5C793.574,578.834 791.574,575.834 789.5,573.5C794.885,585.153 798.551,597.32 800.5,610C799.494,623.001 792.494,628.668 779.5,627C769.721,623.887 761.555,618.387 755,610.5C757.697,626.04 760.03,641.706 762,657.5C762.667,663.167 762.667,668.833 762,674.5C761.266,681.401 757.433,685.067 750.5,685.5C750.911,692.212 751.744,698.879 753,705.5C753.667,712.167 753.667,718.833 753,725.5C751.829,732.492 747.996,737.158 741.5,739.5C735.459,740.407 730.126,738.907 725.5,735C716.753,726.665 709.587,717.165 704,706.5C703.961,717.786 700.461,727.786 693.5,736.5C681.276,743.517 671.11,741.184 663,729.5C655.233,714.634 648.566,699.3 643,683.5C636.026,665.532 626.526,649.199 614.5,634.5C611.5,632.332 609,629.666 607,626.5C605.991,624.975 605.491,623.308 605.5,621.5C579.359,624.127 553.525,622.46 528,616.5C527.235,616.57 526.735,616.903 526.5,617.5L526.5,821.5C531.985,822.327 537.652,822.827 543.5,823C550.882,825.818 552.715,830.651 549,837.5C547.509,839.004 545.676,839.837 543.5,840C512.167,840.667 480.833,840.667 449.5,840C443.516,836.637 442.016,831.803 445,825.5C445.5,824.333 446.333,823.5 447.5,823C460.829,822.5 474.163,822.333 487.5,822.5L487.5,819.5C486.325,747.519 486.325,675.519 487.5,603.5ZM360.5,289.5C359.653,290.966 358.32,291.8 356.5,292C352.416,292.231 348.416,292.898 344.5,294C343.446,295.388 343.28,296.888 344,298.5C346.167,300 348.333,301.5 350.5,303C363.167,317 376.5,330.333 390.5,343C391.5,343.667 392.5,343.667 393.5,343L399.5,334C386.635,318.973 373.635,304.14 360.5,289.5ZM504.5,822.5L507.5,822.5L507.5,610.5L504.5,610.5L504.5,822.5ZM773.5,548.5L773.5,546.5C768.915,539.029 763.582,532.029 757.5,525.5C757.167,525.667 756.833,525.833 756.5,526C762.03,533.684 767.697,541.184 773.5,548.5ZM333.5,311.5C331.78,314.731 329.447,317.564 326.5,320L260.5,368C235.162,386.668 213.996,409.168 197,435.5C192.227,443.361 188.894,451.694 187,460.5C216.584,432.607 250.418,411.107 288.5,396C319.513,385.665 349.513,372.998 378.5,358C373.699,354.201 369.199,350.034 365,345.5C355.001,333.669 344.501,322.336 333.5,311.5ZM446.5,450.5C450.182,450.335 453.848,450.501 457.5,451C475.639,457.699 493.639,464.699 511.5,472C519.828,476.162 527.828,480.829 535.5,486C569.261,493.883 599.928,508.216 627.5,529L638,539.5C641.844,544.62 641.011,548.787 635.5,552C632.833,552.667 630.167,552.667 627.5,552C622.5,548.333 617.5,544.667 612.5,541C588.467,529.153 563.467,519.82 537.5,513C517.381,502.775 497.714,491.775 478.5,480C467.668,474.612 456.668,469.612 445.5,465C441.766,460.027 442.099,455.194 446.5,450.5Z"/>
    </g>
</svg>
