<?xml version="1.0" encoding="UTF-8" standalone="no"?>
<!DOCTYPE svg PUBLIC "-//W3C//DTD SVG 1.1//EN" "http://www.w3.org/Graphics/SVG/1.1/DTD/svg11.dtd">
<svg width="100%" height="100%" viewBox="0 0 1024 1024" version="1.1" xmlns="http://www.w3.org/2000/svg" xmlns:xlink="http://www.w3.org/1999/xlink" xml:space="preserve" xmlns:serif="http://www.serif.com/" style="fill-rule:evenodd;clip-rule:evenodd;stroke-linejoin:round;stroke-miterlimit:2;">
    <g transform="matrix(1.28562,0,0,1.28562,-155.159,-150.211)">
        <path d="M463.5,847.5C405.832,847.667 348.166,847.5 290.5,847C283.588,840.833 283.921,835.167 291.5,830C312.164,829.5 332.831,829.333 353.5,829.5C355.56,808.934 366.56,795.768 386.5,790C392.167,789.667 397.833,789.333 403.5,789C394.831,780.513 387.997,770.68 383,759.5C371.355,736.918 366.022,712.918 367,687.5C372.686,662.147 387.852,645.313 412.5,637C420.159,635.323 427.826,635.156 435.5,636.5C437.749,624.066 440.082,611.733 442.5,599.5C438.783,598.473 435.45,596.639 432.5,594C423.952,585.782 415.119,577.949 406,570.5C348.747,592.258 317.414,572.592 312,511.5C311.085,510.672 310.419,509.672 310,508.5C276.888,474.72 243.721,440.887 210.5,407C205.833,406.667 201.167,406.333 196.5,406C184.044,388.26 172.211,370.093 161,351.5C157.076,346.069 155.409,340.069 156,333.5C157.141,331.391 158.641,329.558 160.5,328C164.833,325.667 169.167,323.333 173.5,321C177.12,320.159 180.454,320.826 183.5,323C188.361,327.032 193.028,331.199 197.5,335.5C212.183,349.587 226.85,363.587 241.5,377.5C260.877,393.702 279.543,410.869 297.5,429C301.386,428.221 305.386,427.721 309.5,427.5C321.609,429.219 332.609,433.719 342.5,441C351.905,447.566 360.571,455.066 368.5,463.5C378.353,475.666 389.02,487.166 400.5,498C404.744,501.288 409.41,503.788 414.5,505.5C416.555,506.948 418.722,508.281 421,509.5C424.985,496.562 428.818,483.562 432.5,470.5C404.84,463.258 380.673,449.925 360,430.5C344.337,412.832 335.504,392.166 333.5,368.5C333.344,354.466 338.011,342.299 347.5,332C343.316,325.796 340.483,318.963 339,311.5C336.482,295.998 337.149,280.665 341,265.5C345.98,250.856 355.48,240.356 369.5,234C381.822,230.833 392.822,233.333 402.5,241.5C409.22,233.274 416.553,225.44 424.5,218C450.386,198.919 479.386,187.253 511.5,183C560.281,179.584 600.948,195.917 633.5,232C646.408,230.705 659.075,232.038 671.5,236C691.052,244.9 702.219,260.066 705,281.5C705.149,316.53 691.816,345.197 665,367.5C661.341,387.481 653.341,405.481 641,421.5C633.82,429.345 626.654,437.178 619.5,445C625.052,464.466 630.552,483.966 636,503.5C650.27,545.976 663.936,588.642 677,631.5C681.202,646.678 684.702,662.012 687.5,677.5C695.898,669.928 703.064,661.261 709,651.5C719.439,626.71 721.106,601.377 714,575.5C711.861,569.888 709.194,564.554 706,559.5C701.721,555.711 697.721,551.711 694,547.5C691.785,539.093 694.618,532.926 702.5,529C773.047,504.633 833.214,520.133 883,575.5C915.493,616.964 924.826,663.297 911,714.5C902.256,752.171 884.09,784.338 856.5,811C830.574,831.926 800.908,843.759 767.5,846.5C766.381,846.568 765.266,846.579 764.155,846.533C664.101,847.506 563.882,847.829 463.5,847.5ZM371.5,829.5L453.5,829.5C453.688,813.622 460.688,801.788 474.5,794C461.939,782.732 452.439,769.232 446,753.5C439.112,735.86 435.112,717.527 434,698.5C433.5,683.504 433.333,668.504 433.5,653.5C404.192,653.305 387.859,667.805 384.5,697C387.567,738.311 405.4,771.478 438,796.5C439.006,802.824 436.339,806.157 430,806.5C417.87,804.055 405.703,803.888 393.5,806C382.346,809.321 375.013,816.488 371.5,827.5L371.5,829.5ZM747.5,535.5C736.466,537.346 725.466,539.846 714.5,543C719.435,547.932 723.601,553.432 727,559.5C737.159,581.952 739.826,605.285 735,629.5C730.811,653.05 719.978,672.884 702.5,689C698.165,691.827 694.832,695.327 692.5,699.5C693.709,713.639 694.376,727.805 694.5,742C695.289,766.344 690.456,789.51 680,811.5C676.265,817.904 671.765,823.737 666.5,829C702.854,829.925 739.187,829.592 775.5,828C801.317,824.253 824.317,814.253 844.5,798C866.279,775.617 881.779,749.45 891,719.5C901.272,686.711 900.939,654.044 890,621.5C861.319,562.042 813.819,533.376 747.5,535.5ZM406.5,522.5C403.738,521.62 401.071,520.454 398.5,519C386.816,511.325 376.316,502.158 367,491.5C352.958,469.103 333.458,453.936 308.5,446C309.46,447.419 310.293,448.919 311,450.5C331.55,479.399 354.717,506.232 380.5,531C390.836,537.837 401.503,544.17 412.5,550C425.185,562.683 438.518,574.683 452.5,586C458.046,588.94 463.713,591.606 469.5,594C497.542,602.533 521.875,596.533 542.5,576C546.627,575.48 549.794,576.98 552,580.5C552.738,584.261 552.405,587.928 551,591.5C548.872,594.63 546.372,597.463 543.5,600C516.45,617.866 487.95,620.699 458,608.5C455.784,620.464 453.784,632.464 452,644.5C450.012,665.193 450.346,685.86 453,706.5C455.922,737.996 468.422,764.829 490.5,787C498.813,786.473 507.147,786.473 515.5,787C507.25,776.333 501.25,764.5 497.5,751.5C494.779,745.803 492.613,739.803 491,733.5C489.882,726.127 488.549,718.794 487,711.5C486.333,705.5 486.333,699.5 487,693.5C491.667,660.99 509.167,638.49 539.5,626C577.092,615.44 609.925,623.606 638,650.5C639.373,652.695 639.706,655.029 639,657.5C637.303,663.543 633.469,665.71 627.5,664C622.546,660.715 617.88,657.048 613.5,653C591.409,639.537 568.075,636.537 543.5,644C513.16,659.847 500.827,684.68 506.5,718.5C511.275,743.376 521.441,765.71 537,785.5C542.212,792.725 549.045,797.558 557.5,800C560.46,807.75 557.626,811.917 549,812.5C541.724,810.742 534.557,808.575 527.5,806C515.82,804.09 504.153,804.09 492.5,806C480.285,808.715 472.952,816.215 470.5,828.5C485.485,829.499 500.485,829.833 515.5,829.5L642.5,829.5C654.222,819.074 662.722,806.407 668,791.5C675.181,768.016 677.515,744.016 675,719.5C672.487,693.087 667.82,667.087 661,641.5C647.92,598.666 634.253,555.999 620,513.5C615.734,496.704 611.067,480.038 606,463.5C605.281,459.855 604.781,456.188 604.5,452.5C591.329,461.257 577.329,468.757 562.5,475C551.833,475.978 548,471.144 551,460.5C560.277,455.625 569.777,451.125 579.5,447C588.167,441 596.833,435 605.5,429C622.574,415.931 635.074,399.431 643,379.5C643.972,372.865 644.639,366.199 645,359.5C647.365,358.711 649.532,357.544 651.5,356C673.12,338.261 684.786,315.427 686.5,287.5C687.05,267.217 677.384,255.05 657.5,251C631.934,249.522 608.934,256.522 588.5,272C576.623,282.377 565.623,293.543 555.5,305.5C553.043,307.225 550.377,307.725 547.5,307C542.268,304.367 540.435,300.201 542,294.5C560.511,268.932 583.844,249.932 612,237.5C599.59,224.103 584.756,214.27 567.5,208C507.056,192.741 455.723,207.908 413.5,253.5C424.517,275.229 431.35,298.229 434,322.5C435.245,316.678 437.578,311.345 441,306.5C467.625,263.595 505.125,234.762 553.5,220C561.895,217.068 570.229,217.068 578.5,220C584.443,224.592 584.776,229.426 579.5,234.5C569.935,236.739 560.268,238.572 550.5,240L532.5,246C508.722,258.321 488.222,274.821 471,295.5C459.881,310.625 449.548,326.291 440,342.5C429.567,350.468 422.234,348.135 418,335.5C413.881,316.786 409.548,298.12 405,279.5C401.381,269.756 395.881,261.256 388.5,254C379.268,248.233 371.435,249.733 365,258.5C360.408,266.602 358.075,275.268 358,284.5C359.273,282.428 361.107,281.095 363.5,280.5C369.836,282.999 373.836,287.499 375.5,294C374.409,299.274 372.909,304.441 371,309.5C367.585,313.824 363.418,315.491 358.5,314.5C360.732,318.196 361.732,322.196 361.5,326.5C366.805,325.558 372.139,325.391 377.5,326C395.118,332.062 401.618,344.229 397,362.5C393.243,376.459 384.743,380.959 371.5,376C366.805,371.651 366.305,366.818 370,361.5C373.463,360.176 376.629,358.343 379.5,356C381.378,351.26 380.378,347.26 376.5,344C369.577,341.274 363.41,342.441 358,347.5C353.524,353.762 351.357,360.762 351.5,368.5C352.454,385.403 358.621,400.069 370,412.5C401.337,445.507 439.837,459.34 485.5,454C487.329,454.273 488.829,455.107 490,456.5C492.823,463.032 490.989,467.865 484.5,471C473.191,472.086 461.858,472.586 450.5,472.5C446.501,486.495 442.501,500.495 438.5,514.5C452.626,515.98 465.96,513.48 478.5,507C490.119,498.046 499.619,487.213 507,474.5C511.638,468.463 517.471,466.963 524.5,470C531.418,475.843 530.918,481.009 523,485.5C515.95,497.389 507.117,507.889 496.5,517C467.445,536.775 437.445,538.608 406.5,522.5ZM620.5,292.5C639.518,292.206 648.351,301.54 647,320.5C645.236,329.535 640.403,336.368 632.5,341C624.48,347.119 615.48,349.786 605.5,349C598.376,342.884 596.376,335.384 599.5,326.5C597.175,324.335 594.841,322.168 592.5,320C591.541,317.88 591.374,315.713 592,313.5C595.833,307 601,301.833 607.5,298C611.76,295.703 616.093,293.87 620.5,292.5ZM620.5,311.5C616.962,314.015 613.295,316.349 609.5,318.5C611.607,320.727 613.94,322.727 616.5,324.5C617.189,326.444 617.689,328.444 618,330.5C622.952,327.238 625.785,322.738 626.5,317C626.819,312.687 624.819,310.854 620.5,311.5ZM612.5,383.5C622.838,384.005 627.004,389.338 625,399.5C620.426,409.815 613.592,418.315 604.5,425C599.398,427.343 594.064,428.01 588.5,427C582.597,420.399 583.93,415.399 592.5,412C600.819,405.343 606.319,396.843 609,386.5C610.145,385.364 611.312,384.364 612.5,383.5ZM505.5,323.5C523.022,322.505 534.856,330.171 541,346.5C542.275,368.06 532.108,379.393 510.5,380.5C490.388,377.668 481.222,366.001 483,345.5C486.735,334.233 494.235,326.9 505.5,323.5ZM507.5,341.5C501.92,344.97 500.087,349.97 502,356.5C507.576,366.301 513.91,366.968 521,358.5C524.926,346.252 520.426,340.586 507.5,341.5ZM412.5,379.5C423.401,378.623 431.901,382.623 438,391.5C441.037,399.742 439.537,406.909 433.5,413C440.32,416.705 447.653,418.538 455.5,418.5C464.896,417.082 474.229,415.582 483.5,414C488.535,417.013 489.702,421.18 487,426.5C484.659,429.835 481.493,432.002 477.5,433C463.257,437.217 448.923,437.551 434.5,434C430.221,432.527 426.221,430.527 422.5,428C402.581,427.418 393.081,417.251 394,397.5C396.878,388.002 403.044,382.002 412.5,379.5ZM413.5,397.5C415.981,410.669 417.981,410.669 419.5,397.5L413.5,397.5ZM225.5,389.5C224.391,390.29 223.058,390.79 221.5,391C220.549,391.718 220.383,392.551 221,393.5C255.969,429.027 291.302,464.36 327,499.5C327.667,498.833 327.667,498.167 327,497.5C317.963,488.131 309.296,478.465 301,468.5C296.747,461.663 292.747,454.663 289,447.5C268.994,428.66 249.494,409.327 230.5,389.5C228.901,388.438 227.234,388.438 225.5,389.5ZM335.5,511.5C333.873,513.63 332.04,515.63 330,517.5C330.628,526.722 333.294,535.388 338,543.5C349.208,561.014 364.708,566.181 384.5,559C367.58,543.584 351.247,527.751 335.5,511.5ZM174.5,339.5C174.351,340.552 174.517,341.552 175,342.5C185.452,356.444 195.285,370.778 204.5,385.5C206.455,381.87 209.455,379.87 213.5,379.5C213.649,378.448 213.483,377.448 213,376.5C200.575,363.571 187.741,351.238 174.5,339.5ZM355.5,289.5C355.152,296.906 355.652,304.239 357,311.5C357.687,303.949 357.187,296.616 355.5,289.5ZM127.5,281.5C137.611,282.433 143.945,287.933 146.5,298C144.464,306.361 139.13,309.695 130.5,308C122.793,304.235 119.626,298.069 121,289.5C122.479,286.172 124.645,283.506 127.5,281.5Z"/>
    </g>
</svg>
