<?xml version="1.0" encoding="UTF-8" standalone="no"?>
<!DOCTYPE svg PUBLIC "-//W3C//DTD SVG 1.1//EN" "http://www.w3.org/Graphics/SVG/1.1/DTD/svg11.dtd">
<svg width="100%" height="100%" viewBox="0 0 1024 1024" version="1.1" xmlns="http://www.w3.org/2000/svg" xmlns:xlink="http://www.w3.org/1999/xlink" xml:space="preserve" xmlns:serif="http://www.serif.com/" style="fill-rule:evenodd;clip-rule:evenodd;stroke-linejoin:round;stroke-miterlimit:2;">
    <g transform="matrix(1.52323,0,0,1.52323,-268.171,-284.615)">
        <path d="M501.5,399.5C492.212,402.284 484.712,407.617 479,415.5C474.004,422.823 470.671,430.823 469,439.5C468.667,451.833 468.333,464.167 468,476.5C464.313,490.541 457.98,503.207 449,514.5C448.333,546.167 448.333,577.833 449,609.5C450.072,614.383 451.739,619.05 454,623.5C461.167,633.83 467.834,644.497 474,655.5C489.08,688.972 486.08,720.638 465,750.5C450.856,767.957 432.689,778.791 410.5,783C395.488,782.943 380.488,782.61 365.5,782C345.143,789.022 334.476,803.355 333.5,825C334.863,833.137 335.696,841.304 336,849.5C333.71,857.398 328.543,860.231 320.5,858C316.788,853.542 314.621,848.376 314,842.5C308.504,814.041 316.67,790.541 338.5,772C350.007,763.221 363.007,759.388 377.5,760.5C416.625,768.359 443.791,754.025 459,717.5C465.022,696.029 462.355,675.696 451,656.5C441.328,644.16 433.995,630.494 429,615.5C427.874,597.203 427.374,578.869 427.5,560.5C427.367,542.458 427.867,524.458 429,506.5C432.858,499.301 437.525,492.635 443,486.5C443.471,484.754 444.138,483.087 445,481.5C446.095,466.848 447.095,452.182 448,437.5C450.168,426.823 454.002,416.823 459.5,407.5L458.5,406.5C442.876,409.215 427.209,411.715 411.5,414C407.15,420.868 403.483,428.035 400.5,435.5C398.004,447.444 397.837,459.444 400,471.5C404.019,483.385 407.519,495.385 410.5,507.5C413.14,524.862 411.307,541.862 405,558.5C400.747,565.337 396.747,572.337 393,579.5C389.645,590.577 389.979,601.577 394,612.5C397.568,619.737 401.568,626.737 406,633.5C416.894,660.35 413.227,685.017 395,707.5C389.458,712.711 383.625,717.544 377.5,722C365.313,726.459 359.146,722.292 359,709.5C360.122,707.376 361.622,705.543 363.5,704C376.307,700.526 384.474,692.36 388,679.5C390.327,669.62 390.994,659.62 390,649.5C388.885,645.271 387.219,641.271 385,637.5C368.525,617.001 364.858,594.334 374,569.5C378.732,562.427 383.065,555.094 387,547.5C391.498,531.543 391.665,515.543 387.5,499.5C382.261,489.116 379.261,478.116 378.5,466.5C375.447,446.129 379.114,426.962 389.5,409C372.867,407.508 356.867,403.508 341.5,397C323.786,384.375 316.952,367.208 321,345.5C326.684,311.804 340.684,282.137 363,256.5C418.372,197.44 485.872,175.94 565.5,192C619.345,205.996 660.511,236.829 689,284.5C699.679,302.863 707.012,322.53 711,343.5C715.978,375.746 702.812,395.912 671.5,404C656.576,407.113 641.576,408.779 626.5,409C629.773,413.24 631.607,418.073 632,423.5C632.333,452.167 632.667,480.833 633,509.5C633.739,513.385 635.073,517.052 637,520.5C643.916,530.663 650.583,540.997 657,551.5C661.716,560.704 665.05,570.371 667,580.5C669.954,600.197 664.788,617.364 651.5,632C646.755,634.969 641.755,635.302 636.5,633C632.797,629.604 631.631,625.437 633,620.5C643.945,609.741 647.945,596.741 645,581.5C643.083,571.995 639.75,562.995 635,554.5C627.833,544.17 621.166,533.503 615,522.5C613.844,518.877 612.844,515.211 612,511.5C611.667,483.833 611.333,456.167 611,428.5C610.481,422.298 607.981,417.131 603.5,413C593.476,410.656 583.476,408.656 573.5,407C580.697,417.108 584.031,428.442 583.5,441C583.49,453.887 580.157,465.72 573.5,476.5C570.841,483.313 568.674,490.313 567,497.5C566.5,507.494 566.334,517.494 566.5,527.5C568.92,539.239 573.42,550.239 580,560.5C591.39,576.225 602.39,592.225 613,608.5C617.868,618.302 621.034,628.636 622.5,639.5C622.781,648.368 621.614,657.035 619,665.5C614.407,675.232 609.24,684.565 603.5,693.5C595.56,713.2 598.06,731.533 611,748.5C622.7,759.224 636.534,763.39 652.5,761C669.09,765.922 681.923,775.756 691,790.5C702.166,809.805 704.5,830.139 698,851.5C694.826,858.505 689.659,860.672 682.5,858C679.055,854.943 677.388,851.11 677.5,846.5C680.641,832.993 680.141,819.66 676,806.5C665.514,785.869 648.681,777.369 625.5,781C605.412,774.705 591.245,761.872 583,742.5C572.406,715.142 576.406,690.142 595,667.5C602.264,651.541 602.264,635.541 595,619.5C584,603.167 573,586.833 562,570.5C554.464,558.761 549.13,546.094 546,532.5C545.333,519.167 545.333,505.833 546,492.5C547.595,484.856 550.428,477.856 554.5,471.5C560.92,458.895 563.253,445.562 561.5,431.5C556.401,413.401 544.734,402.068 526.5,397.5C526.167,424 525.833,450.5 525.5,477C525.379,507.187 525.879,537.354 527,567.5C528.438,573.043 530.438,578.376 533,583.5C543.85,596.196 551.85,610.529 557,626.5C562.181,644.824 561.181,662.824 554,680.5C551.797,685.744 548.964,690.578 545.5,695C532.876,698.96 527.043,694.46 528,681.5C540.059,662.507 541.725,642.507 533,621.5C528.328,612.15 522.662,603.483 516,595.5C508.179,581.872 504.346,567.205 504.5,551.5C504.165,500.658 503.165,449.992 501.5,399.5ZM344.5,368.5C344.933,371.195 346.266,373.362 348.5,375C351.502,377.503 354.835,379.503 358.5,381C370.963,384.411 383.63,386.744 396.5,388C434.21,390.161 471.21,386.161 507.5,376C514.167,375.333 520.833,375.333 527.5,376C574.318,390.21 621.651,392.21 669.5,382C683.948,379.713 690.948,371.213 690.5,356.5C689.511,347.405 688.011,338.405 686,329.5C665.545,271.713 626.045,233.546 567.5,215C504.983,198.532 448.983,210.699 399.5,251.5C379.733,267.771 364.233,287.438 353,310.5C345.047,327.308 341.38,344.975 342,363.5C342.099,365.653 342.933,367.319 344.5,368.5ZM586.5,243.5C603.457,243.904 608.791,251.737 602.5,267C591.449,273.314 583.282,270.814 578,259.5C576.391,251.715 579.224,246.382 586.5,243.5ZM620.5,272.5C625.655,271.89 630.322,273.056 634.5,276C647.144,291.783 656.811,309.283 663.5,328.5C660.987,340.491 654.154,343.824 643,338.5C639.756,332.21 637.422,325.544 636,318.5C632.558,309.779 627.725,301.945 621.5,295C611.902,290.798 609.902,284.131 615.5,275C617.315,274.243 618.981,273.41 620.5,272.5ZM514.5,733.5C520.593,733.139 526.593,733.639 532.5,735C538.388,739.558 539.055,744.891 534.5,751C529.962,753.846 524.962,755.179 519.5,755C512.386,758.447 506.886,763.614 503,770.5C491.232,790.478 490.565,810.812 501,831.5C504.581,835.15 508.248,838.816 512,842.5C512.725,854.106 507.225,859.272 495.5,858C477.047,838.973 469.547,816.14 473,789.5C477.991,764.044 491.824,745.378 514.5,733.5Z"/>
    </g>
</svg>
