<?xml version="1.0" encoding="UTF-8" standalone="no"?>
<!DOCTYPE svg PUBLIC "-//W3C//DTD SVG 1.1//EN" "http://www.w3.org/Graphics/SVG/1.1/DTD/svg11.dtd">
<svg width="100%" height="100%" viewBox="0 0 1024 1024" version="1.1" xmlns="http://www.w3.org/2000/svg" xmlns:xlink="http://www.w3.org/1999/xlink" xml:space="preserve" xmlns:serif="http://www.serif.com/" style="fill-rule:evenodd;clip-rule:evenodd;stroke-linejoin:round;stroke-miterlimit:2;">
    <g transform="matrix(1.41194,0,0,1.41194,-222.598,-267.328)">
        <path d="M741.5,463.5C741.333,487.836 741.5,512.169 742,536.5C747.83,557.675 761.663,568.175 783.5,568C796.483,565.265 806.65,558.432 814,547.5C819.142,539.612 822.142,530.945 823,521.5C823.333,445.5 823.667,369.5 824,293.5C824.911,278.963 832.078,274.463 845.5,280C849.122,284.911 849.289,290.078 846,295.5C845.667,371.833 845.333,448.167 845,524.5C839.677,556.369 821.843,577.536 791.5,588C776.813,591.206 762.813,589.373 749.5,582.5C734.527,572.257 724.693,558.257 720,540.5C719.833,432.165 719.333,323.832 718.5,215.5C714.862,210.071 714.528,204.404 717.5,198.5C722.869,193.193 728.869,192.36 735.5,196C737.894,197.952 739.394,200.452 740,203.5C740.392,207.528 740.892,211.528 741.5,215.5L741.5,463.5ZM314.5,896.5C312.878,899.979 311.711,903.645 311,907.5C309.428,912.704 305.928,915.037 300.5,914.5C298.035,914.522 295.702,914.022 293.5,913C275.473,895.413 259.973,875.913 247,854.5C240.966,843.96 235.133,833.293 229.5,822.5C214.774,814.387 200.608,805.387 187,795.5C183.164,788.357 183.831,781.691 189,775.5C195.656,769.754 203.156,765.421 211.5,762.5C238.922,750.142 267.589,741.808 297.5,737.5C301.911,696.878 310.244,657.211 322.5,618.5C323.688,612.767 325.188,607.1 327,601.5C327.667,599.5 327.667,597.5 327,595.5C308,575.167 289,554.833 270,534.5C268.517,531.298 268.183,527.964 269,524.5C297.165,487.334 324.165,449.334 350,410.5C353.87,405.437 358.704,404.27 364.5,407C378.219,415.387 391.385,424.554 404,434.5C417.812,414.093 433.645,395.259 451.5,378C492.438,338.193 539.104,306.86 591.5,284C611.605,276.076 631.938,268.743 652.5,262C655.482,261.502 658.482,261.335 661.5,261.5C664.139,263.309 666.306,265.642 668,268.5C679.297,340.4 666.797,407.733 630.5,470.5C640.307,474.901 649.64,480.068 658.5,486C667.311,494.473 671.978,504.807 672.5,517C672.953,530.524 667.953,541.357 657.5,549.5C642.194,559.327 625.527,563.16 607.5,561C597.109,558.412 588.776,552.912 582.5,544.5C581.041,548.752 579.041,552.752 576.5,556.5C557.397,587.929 536.731,618.263 514.5,647.5C510.733,651.501 507.066,655.667 503.5,660C515.191,682.548 527.024,705.048 539,727.5C539.837,731.295 539.504,734.961 538,738.5C492.892,753.645 447.392,767.812 401.5,781C399.167,781.667 396.833,781.667 394.5,781C391.124,776.418 388.124,771.585 385.5,766.5C372.841,776.503 359.174,785.003 344.5,792C343.693,797.083 343.193,802.25 343,807.5C334.879,837.663 325.379,867.33 314.5,896.5ZM358.5,438.5C339.267,464.619 320.267,490.952 301.5,517.5C298.928,520.969 296.594,524.636 294.5,528.5C308.519,544.018 322.353,559.685 336,575.5C349.441,531.956 368.274,490.956 392.5,452.5C383.358,445.859 374.358,439.025 365.5,432C362.191,432.797 359.858,434.963 358.5,438.5ZM486.5,677.5C461.554,704.627 434.554,729.46 405.5,752C404.663,753.011 404.33,754.178 404.5,755.5C414.256,753.811 423.923,751.645 433.5,749C459.644,740.715 485.977,733.215 512.5,726.5C504.599,709.695 495.932,693.361 486.5,677.5ZM210.5,784.5C210.389,785.117 210.056,785.617 209.5,786C210.833,787 212.167,788 213.5,789C224.576,794.284 235.076,800.451 245,807.5C254.909,826.325 265.576,844.658 277,862.5C282.972,870.305 289.472,877.638 296.5,884.5C297.466,880.593 298.799,876.926 300.5,873.5C309.773,846.514 317.939,819.181 325,791.5C325.667,787.833 325.667,784.167 325,780.5C322.387,777.676 320.721,774.342 320,770.5C319.501,765.511 319.334,760.511 319.5,755.5C290.759,760.07 262.425,766.57 234.5,775C226.278,777.684 218.278,780.85 210.5,784.5ZM349.5,599.5C341.713,626.645 334.547,653.979 328,681.5C323.796,699.057 320.796,716.724 319,734.5C327.277,730.704 333.61,732.704 338,740.5C338.333,748.5 338.667,756.5 339,764.5C339.739,766.221 340.573,767.887 341.5,769.5C405.808,730.375 461.308,681.042 508,621.5C533.933,585.297 558.1,547.964 580.5,509.5C581.298,507.114 582.298,504.78 583.5,502.5C568.184,492.169 553.184,481.335 538.5,470C510.541,445.9 490.707,416.4 479,381.5C472.329,387.004 466.163,393.004 460.5,399.5C450.831,409.004 441.664,419.004 433,429.5C403.558,469.712 380.391,513.379 363.5,560.5C359.062,573.684 354.395,586.684 349.5,599.5ZM514.5,465.5C527.324,463.497 533.157,468.83 532,481.5C523,493.167 514,504.833 505,516.5C505.306,523.317 502.472,528.15 496.5,531C490.297,531.306 486.131,528.473 484,522.5C483.304,518.095 483.637,513.761 485,509.5C490.838,499.821 497.172,490.487 504,481.5C506.295,475.208 509.795,469.874 514.5,465.5ZM600.5,514.5C598.396,518.025 596.896,521.691 596,525.5C600.236,532.244 606.07,536.91 613.5,539.5C626.449,542.128 637.616,538.795 647,529.5C652.511,519.427 651.344,510.26 643.5,502C634.684,496.925 625.684,492.425 616.5,488.5C612.184,497.799 606.851,506.466 600.5,514.5ZM648.5,286.5C595.998,301.917 547.998,326.084 504.5,359C502.288,361.043 500.288,363.209 498.5,365.5C499.178,371.593 500.345,377.593 502,383.5C508.682,402.543 518.682,419.543 532,434.5C551.071,454.417 572.571,471.083 596.5,484.5C605.931,469.89 614.765,454.89 623,439.5C637.64,410.576 645.973,379.909 648,347.5C648.19,327.809 648.69,308.142 649.5,288.5C649.457,287.584 649.124,286.917 648.5,286.5ZM584.5,335.5C605.408,332.866 619.908,341.199 628,360.5C631.646,377.106 626.812,390.606 613.5,401C590.658,411.164 573.158,405.331 561,383.5C554.675,360.484 562.509,344.484 584.5,335.5ZM589.5,357.5C587.811,358.304 586.145,359.304 584.5,360.5C579.194,367.299 579.194,374.132 584.5,381C591.805,386.028 598.638,385.528 605,379.5C609.836,365.165 604.669,357.831 589.5,357.5ZM837.5,189.5C849.454,188.294 855.621,193.627 856,205.5C851.984,216.174 844.817,219.007 834.5,214C825.873,204.601 826.873,196.434 837.5,189.5Z"/>
    </g>
</svg>
