<?xml version="1.0" encoding="UTF-8" standalone="no"?>
<!DOCTYPE svg PUBLIC "-//W3C//DTD SVG 1.1//EN" "http://www.w3.org/Graphics/SVG/1.1/DTD/svg11.dtd">
<svg width="100%" height="100%" viewBox="0 0 1024 1024" version="1.1" xmlns="http://www.w3.org/2000/svg" xmlns:xlink="http://www.w3.org/1999/xlink" xml:space="preserve" xmlns:serif="http://www.serif.com/" style="fill-rule:evenodd;clip-rule:evenodd;stroke-linejoin:round;stroke-miterlimit:2;">
    <g transform="matrix(1.37722,0,0,1.37722,-169.398,-223.525)">
        <path d="M851.5,659.5C840.275,694.666 826.775,728.999 811,762.5C799.656,783.339 785.822,802.339 769.5,819.5C753.96,832.942 736.293,842.775 716.5,849C709.554,850.373 702.554,851.373 695.5,852C595.167,852.667 494.833,852.667 394.5,852C390.16,849.647 388.493,845.98 389.5,841C388.674,836.877 390.008,833.877 393.5,832C411.83,831.5 430.164,831.333 448.5,831.5C447.633,823.529 445.3,816.029 441.5,809C423.824,808.167 406.157,808.334 388.5,809.5C383.621,821.429 376.621,831.929 367.5,841C354.932,850.188 340.766,854.355 325,853.5C304.504,852.854 284.004,852.354 263.5,852C256.864,846.905 255.864,840.905 260.5,834C262.087,833.138 263.754,832.471 265.5,832C277.162,831.5 288.829,831.333 300.5,831.5C299.069,827.081 299.236,822.748 301,818.5C309.758,816.737 315.758,811.737 319,803.5C320.245,795.571 317.745,789.071 311.5,784C302.066,776.618 291.399,771.952 279.5,770C256.081,767.319 232.748,763.986 209.5,760C177.962,754.823 152.128,739.989 132,715.5C126.392,707.673 123.392,699.006 123,689.5C123.883,686.898 125.383,684.731 127.5,683C140.406,679.422 151.24,672.589 160,662.5C173.695,641.812 189.195,622.645 206.5,605C246.657,571.504 291.657,563.171 341.5,580C353.047,585.355 363.88,591.855 374,599.5C374.781,600.729 375.281,602.062 375.5,603.5C370.57,624.411 378.904,634.245 400.5,633C407.764,631.867 414.097,628.867 419.5,624C432.302,607.191 445.136,590.357 458,573.5C502.793,528.137 555.626,515.303 616.5,535C660.983,550.155 696.15,577.322 722,616.5C731.558,632.28 737.725,649.28 740.5,667.5C741.43,674.777 741.764,682.11 741.5,689.5C740.833,689.5 740.5,689.833 740.5,690.5C739.281,698.064 734.948,700.564 727.5,698C726.069,697.535 724.903,696.701 724,695.5C717.819,634.667 687.319,590.833 632.5,564C613.417,555.229 593.417,549.896 572.5,548C538.441,546.018 508.774,556.352 483.5,579C476.55,586.405 469.717,593.905 463,601.5C454.742,615.504 444.909,628.337 433.5,640C422.758,649.751 410.092,654.917 395.5,655.5C387.718,655.351 380.718,653.017 374.5,648.5C372.642,657.265 370.475,665.932 368,674.5C366.891,676.815 365.057,678.315 362.5,679C356.969,680.358 352.135,679.191 348,675.5C349.136,662.779 351.636,650.279 355.5,638C352.592,633.867 348.592,631.2 343.5,630C322.588,620.904 311.088,627.737 309,650.5C306.27,657.053 301.437,659.22 294.5,657C291,656.167 288.833,654 288,650.5C287.231,627.54 297.731,612.373 319.5,605C324.833,604.333 330.167,604.333 335.5,605C340.481,606.447 345.481,607.447 350.5,608C306.439,585.008 264.439,588.342 224.5,618C206.97,633.514 192.47,651.347 181,671.5C172.018,683.166 161.018,692.499 148,699.5C147.685,700.908 148.018,702.241 149,703.5C167.689,723.93 190.855,736.097 218.5,740C238.906,742.129 259.24,744.796 279.5,748C295.229,751.369 309.562,757.702 322.5,767C333.714,775.22 340.381,786.22 342.5,800C341.06,813.761 334.393,824.094 322.5,831C348.531,833.731 364.031,822.231 369,796.5C370.808,792.362 373.641,789.195 377.5,787C400.167,786.333 422.833,786.333 445.5,787C462.605,797.044 470.271,811.878 468.5,831.5L511.5,831.5C510.347,825.068 512.014,819.568 516.5,815C494.404,809.022 479.57,795.189 472,773.5C467.095,749.81 475.595,732.977 497.5,723C519.012,718.045 534.845,725.211 545,744.5C547.667,753.167 550.333,761.833 553,770.5C555.161,775.492 557.828,780.159 561,784.5C563.264,787.433 566.098,789.6 569.5,791C574.865,791.94 580.198,792.94 585.5,794C591.769,799.293 592.103,804.96 586.5,811C582.922,812.037 579.256,812.537 575.5,812.5C568.836,811.777 562.17,811.611 555.5,812C551.594,819.241 546.261,825.241 539.5,830C588.805,831.633 638.139,831.967 687.5,831C719.758,829.698 745.925,816.532 766,791.5C781.212,771.753 793.879,750.42 804,727.5C824.267,680.034 837.6,630.7 844,579.5C847.546,541.202 843.212,503.868 831,467.5C819.263,439.187 802.43,414.354 780.5,393C766.085,380.257 751.918,367.09 738,353.5C721.73,334.627 711.063,312.96 706,288.5C703.233,274.04 704.733,260.04 710.5,246.5C683.612,234.671 656.279,233.504 628.5,243C591.738,260.437 571.404,289.437 567.5,330C568.707,352.955 575.873,373.789 589,392.5C602.28,409.779 618.113,424.279 636.5,436C662.125,449.142 686.792,463.809 710.5,480C726.151,492.65 739.318,507.483 750,524.5C756.136,537.24 760.469,550.574 763,564.5C763.667,600.167 763.667,635.833 763,671.5C762.183,684.691 760.517,697.691 758,710.5C773.294,676.663 783.628,641.33 789,604.5C797.891,538.386 779.891,481.052 735,432.5C717.616,414.782 699.283,398.116 680,382.5C651.844,352.505 637.178,316.838 636,275.5C639.277,269.891 644.11,268.058 650.5,270C654.165,271.668 656.332,274.501 657,278.5C659.659,316.649 674.826,348.815 702.5,375C734.935,399.763 762.102,429.263 784,463.5C804.799,500.698 814.632,540.698 813.5,583.5C808.487,646.04 789.153,703.873 755.5,757C753.323,758.202 750.989,758.702 748.5,758.5C744.795,758.129 742.795,756.129 742.5,752.5L742.5,640.5C742.667,616.164 742.5,591.831 742,567.5C738.675,546.853 730.009,528.853 716,513.5C699.903,498.082 682.07,484.915 662.5,474C633.995,461.139 608.495,443.972 586,422.5C575.767,410.371 566.767,397.371 559,383.5C532.783,318.493 548.949,266.993 607.5,229C645.807,209.695 684.14,209.695 722.5,229C738.802,237.648 754.302,247.482 769,258.5C772.546,264.679 772.046,270.512 767.5,276C762.732,279.142 758.065,279.142 753.5,276C746.222,268.389 738.055,261.889 729,256.5C723.858,280.983 728.192,303.65 742,324.5C754.089,341.257 768.255,356.09 784.5,369C795.697,379.863 806.53,391.029 817,402.5C846.888,440.47 863.222,483.803 866,532.5C867.261,555.606 866.261,578.606 863,601.5C860.347,621.086 856.514,640.42 851.5,659.5ZM503.5,743.5C498.034,746.144 494.534,750.477 493,756.5C491.825,769.963 496.658,780.796 507.5,789C518.242,794.069 529.575,796.236 541.5,795.5C535.254,780.61 529.087,765.61 523,750.5C517.715,744.904 511.215,742.571 503.5,743.5ZM205.5,656.5C229.354,655.689 243.354,667.023 247.5,690.5C247.081,702.756 241.081,706.923 229.5,703C227.951,701.786 226.785,700.286 226,698.5C227.202,690.473 224.702,683.973 218.5,679C210.565,676.72 204.731,679.22 201,686.5C200.667,690.167 200.333,693.833 200,697.5C198.688,702.308 195.521,704.642 190.5,704.5C184.89,704.611 181.39,701.944 180,696.5C178.248,676.454 186.748,663.12 205.5,656.5Z"/>
    </g>
</svg>
