<?xml version="1.0" encoding="UTF-8" standalone="no"?>
<!DOCTYPE svg PUBLIC "-//W3C//DTD SVG 1.1//EN" "http://www.w3.org/Graphics/SVG/1.1/DTD/svg11.dtd">
<svg width="100%" height="100%" viewBox="0 0 1024 1024" version="1.1" xmlns="http://www.w3.org/2000/svg" xmlns:xlink="http://www.w3.org/1999/xlink" xml:space="preserve" xmlns:serif="http://www.serif.com/" style="fill-rule:evenodd;clip-rule:evenodd;stroke-linejoin:round;stroke-miterlimit:2;">
    <g transform="matrix(1.21548,0,0,1.21548,-94.7086,-136.265)">
        <path d="M616.5,379.5C538.813,349.578 460.48,347.745 381.5,374C360.835,382.165 341.169,392.165 322.5,404C309.208,407.378 303.375,402.212 305,388.5C305.667,387.167 306.333,385.833 307,384.5C377.834,339.576 455.001,322.743 538.5,334C581.003,339.923 621.003,353.257 658.5,374C669.229,380.728 679.396,388.228 689,396.5C692.379,402.094 692.213,407.594 688.5,413C682.882,416.097 677.216,416.264 671.5,413.5C654.573,399.871 636.239,388.537 616.5,379.5ZM243.5,654.5C210.652,646.074 180.318,632.241 152.5,613C127.233,595.079 103.733,574.912 82,552.5C75.824,543.524 76.658,535.191 84.5,527.5C130.843,471.049 189.843,434.882 261.5,419C305.833,411.395 346.833,419.562 384.5,443.5C399.891,454.726 412.725,468.393 423,484.5C424.398,494.609 419.898,499.609 409.5,499.5C406.922,499.558 404.589,498.891 402.5,497.5C393.804,486.296 384.137,475.796 373.5,466C357.097,452.97 338.43,445.137 317.5,442.5C281.397,438.795 246.73,444.295 213.5,459C171.647,478.025 135.647,504.859 105.5,539.5C105.369,540.239 105.536,540.906 106,541.5C126.202,561.54 148.035,579.54 171.5,595.5C183.653,603.414 196.319,610.581 209.5,617C290.756,652.867 354.756,633.367 401.5,558.5C403.167,557.667 404.833,556.833 406.5,556C420.962,552.133 426.462,557.3 423,571.5C413.193,587.476 401.693,602.143 388.5,615.5C369.024,633.107 346.691,645.94 321.5,654C295.523,661.008 269.523,661.175 243.5,654.5ZM473.5,425.5C450.966,426.23 428.966,429.563 407.5,435.5C394.331,436.839 389.165,431.172 392,418.5C392.785,416.714 393.951,415.214 395.5,414C504.373,385.711 605.04,403.378 697.5,467C717.333,481.5 734.5,498.667 749,518.5C752.146,523.603 754.313,529.103 755.5,535C752.291,547.917 746.791,559.75 739,570.5C709.595,607.197 672.428,633.031 627.5,648C568.715,668.758 508.715,673.091 447.5,661C432.869,657.207 418.202,653.54 403.5,650C394.368,647.245 390.035,641.079 390.5,631.5C392.859,624.909 397.526,622.742 404.5,625C426.83,631.335 449.33,636.835 472,641.5C471.448,630.122 473.115,619.122 477,608.5C485.181,595.316 494.514,582.982 505,571.5C516.122,556.767 520.622,540.1 518.5,521.5C517.528,512.414 515.028,503.747 511,495.5C502.392,481.894 493.392,468.56 484,455.5C478.768,445.965 475.268,435.965 473.5,425.5ZM526.5,475.5C548.098,509.098 548.932,543.431 529,578.5C519.333,590.833 509.667,603.167 500,615.5C495.981,624.109 494.647,633.109 496,642.5C507.424,643.654 518.924,643.82 530.5,643C550.295,641.367 569.962,638.867 589.5,635.5C588.632,621.674 590.799,608.34 596,595.5C603.499,582.336 612.166,570.003 622,558.5C637.169,535.466 638.336,511.799 625.5,487.5C622.895,482.389 620.061,477.389 617,472.5C608.895,463.264 602.062,453.264 596.5,442.5C589.181,439.339 581.515,436.839 573.5,435C552.77,431.016 532.103,427.516 511.5,424.5L498.5,424.5C499.433,431.562 501.599,438.229 505,444.5C512.186,454.891 519.353,465.225 526.5,475.5ZM670.5,478.5C658.339,470.762 646.006,463.596 633.5,457C642.395,467.581 649.228,479.414 654,492.5C661.253,511.144 661.253,529.81 654,548.5C646.998,565.849 636.998,581.182 624,594.5C617.199,604.07 613.699,614.736 613.5,626.5C628.924,622.292 643.591,616.126 657.5,608C685.436,592.729 708.269,571.896 726,545.5C729.463,539.287 729.296,533.287 725.5,527.5C709.301,508.626 690.967,492.293 670.5,478.5ZM401.5,549.5C393.548,547.61 390.714,542.61 393,534.5C393.278,533.584 393.778,532.918 394.5,532.5C394.574,530.589 395.574,529.422 397.5,529C415.833,528.333 434.167,528.333 452.5,529C456.621,532.029 457.954,536.029 456.5,541C455.252,544.246 453.252,546.912 450.5,549C434.17,549.5 417.837,549.667 401.5,549.5ZM878.5,684.5C857.879,651.38 830.545,625.213 796.5,606C786.465,601.326 776.465,596.659 766.5,592C761.631,586.281 761.298,580.448 765.5,574.5C765.577,573.25 766.244,572.417 767.5,572C770.833,571.333 774.167,571.333 777.5,572C815.714,585.852 848.214,608.018 875,638.5C876.752,641.672 878.752,644.672 881,647.5C881.667,582.833 881.667,518.167 881,453.5C867.195,472.474 850.361,488.141 830.5,500.5C814.609,512.286 797.276,521.786 778.5,529C769.637,530.961 764.97,527.461 764.5,518.5C764.411,514.933 765.245,511.6 767,508.5C778.566,501.966 790.399,495.799 802.5,490C827.711,474.959 849.711,456.126 868.5,433.5C868.328,432.508 868.662,431.842 869.5,431.5C879.467,418.665 887.633,404.665 894,389.5C899.344,384.346 905.511,383.18 912.5,386C917.368,390.709 918.535,396.209 916,402.5C912.919,408.331 909.585,413.998 906,419.5C905.333,506.167 905.333,592.833 906,679.5C910.24,686.978 914.24,694.644 918,702.5C923.289,714.252 919.789,721.586 907.5,724.5C905.742,724.408 904.076,724.075 902.5,723.5C900.265,722.772 898.432,721.439 897,719.5C891.332,707.495 885.166,695.828 878.5,684.5ZM234.5,478.5C253.121,479.466 263.788,489.132 266.5,507.5C264.672,524.52 255.172,533.853 238,535.5C220.871,533.535 211.705,523.868 210.5,506.5C211.744,491.264 219.744,481.93 234.5,478.5ZM234.5,502.5C232.609,504.836 232.109,507.502 233,510.5C237.414,514.697 240.581,513.697 242.5,507.5C241.37,503.369 238.703,501.702 234.5,502.5ZM345.5,669.5C368.091,668.608 390.091,671.775 411.5,679C431.723,686.945 452.057,694.611 472.5,702C515.711,714.33 559.044,714.663 602.5,703C614.768,699.799 626.768,695.799 638.5,691C650.987,685.256 663.32,679.256 675.5,673C688.904,671.751 693.404,677.584 689,690.5C677.534,699.336 665.034,706.503 651.5,712C595.321,736.742 537.321,742.408 477.5,729C454.603,721.257 431.936,712.924 409.5,704C386.877,695.844 363.544,691.844 339.5,692C332.751,681.984 334.751,674.484 345.5,669.5Z"/>
    </g>
</svg>
