<?xml version="1.0" encoding="UTF-8" standalone="no"?>
<!DOCTYPE svg PUBLIC "-//W3C//DTD SVG 1.1//EN" "http://www.w3.org/Graphics/SVG/1.1/DTD/svg11.dtd">
<svg width="100%" height="100%" viewBox="0 0 1024 1024" version="1.1" xmlns="http://www.w3.org/2000/svg" xmlns:xlink="http://www.w3.org/1999/xlink" xml:space="preserve" xmlns:serif="http://www.serif.com/" style="fill-rule:evenodd;clip-rule:evenodd;stroke-linejoin:round;stroke-miterlimit:2;">
    <g transform="matrix(1.56715,0,0,1.56715,-286.121,-319.542)">
        <path d="M623.5,293.5C607.547,288.906 591.547,284.406 575.5,280C562.244,277.291 548.911,275.124 535.5,273.5C511.176,270.13 487.176,271.13 463.5,276.5C431.014,283.827 400.68,296.327 372.5,314C355.09,325.257 338.424,337.423 322.5,350.5C292.355,374.145 266.522,401.812 245,433.5C243.549,435.464 241.716,436.797 239.5,437.5C231.169,438.334 227.336,434.667 228,426.5C228.921,423.664 230.088,420.998 231.5,418.5C273.085,364.076 323.751,320.243 383.5,287C428.351,261.401 476.351,250.567 527.5,254.5C535.557,254.722 543.557,255.556 551.5,257C612.429,267.305 669.095,288.639 721.5,321C729.818,325.075 737.984,329.241 746,333.5C746.726,343.866 746.392,354.199 745,364.5C744.786,368.438 742.953,371.272 739.5,373C730.773,375.41 722.107,377.91 713.5,380.5C703.381,384.599 693.048,388.432 682.5,392C686.846,393.664 691.18,395.164 695.5,396.5C705.603,399.192 715.603,402.192 725.5,405.5C729.453,406.761 733.453,407.928 737.5,409C740.102,409.883 742.269,411.383 744,413.5C743.977,422.978 742.644,432.311 740,441.5C736.678,454.822 728.511,463.655 715.5,468C700.077,471.904 684.41,474.07 668.5,474.5C667.791,475.404 666.791,475.737 665.5,475.5L662.5,475.5C601.4,480.29 540.4,479.29 479.5,472.5C465.781,469.368 451.781,467.534 437.5,467C429.424,473.707 420.424,478.874 410.5,482.5C378.617,504.767 358.617,535.1 350.5,573.5C348.108,589.833 353.108,603.333 365.5,614C394.645,632.395 424.311,633.228 454.5,616.5C462.66,610.586 470.993,604.919 479.5,599.5C501.306,581.913 525.306,567.746 551.5,557C576.315,548.652 601.648,546.652 627.5,551C666.481,557.332 702.148,571.665 734.5,594C745.718,602.886 757.218,611.386 769,619.5C770.112,621.39 770.946,623.39 771.5,625.5C770.335,631.668 766.669,635.001 760.5,635.5C757.738,634.62 755.071,633.454 752.5,632C723.307,605.068 689.641,585.901 651.5,574.5C639.598,572.016 627.598,569.849 615.5,568C591.465,565.284 568.465,568.95 546.5,579C519.31,593.086 493.643,609.419 469.5,628C462.581,632.626 455.248,636.459 447.5,639.5C414.008,653.539 383.008,649.373 354.5,627C342.843,617.848 335.677,606.015 333,591.5C331.529,568.718 336.363,547.384 347.5,527.5C354.128,514.563 362.461,502.896 372.5,492.5C375.228,488.263 378.561,484.429 382.5,481C388.167,476.667 393.833,472.333 399.5,468C403.271,465.781 407.271,464.115 411.5,463C385.538,459.481 364.205,467.648 347.5,487.5C332.549,503.139 321.216,521.139 313.5,541.5C310.162,550.607 307.839,559.867 306.53,569.28C306.522,569.353 306.512,569.426 306.5,569.5C303.561,604.025 313.894,633.692 337.5,658.5C358.042,678.016 382.542,689.016 411,691.5C432.241,690.752 451.741,684.586 469.5,673C524.962,632.41 586.962,616.077 655.5,624C678.266,626.534 699.6,633.367 719.5,644.5C727.932,650.418 736.265,656.584 744.5,663C770.241,686.746 796.575,709.746 823.5,732C833.472,734.468 837.472,740.635 835.5,750.5C834.684,752.144 833.35,753.31 831.5,754C828.5,754.667 825.5,754.667 822.5,754C804.5,739.333 786.5,724.667 768.5,710C752.094,694.256 735.094,679.256 717.5,665C705.981,656.741 693.314,650.908 679.5,647.5C666.126,644.716 652.792,642.383 639.5,640.5C614.441,639.082 589.774,641.415 565.5,647.5C547.509,651.827 530.509,658.493 514.5,667.5C508.744,670.072 503.078,672.906 497.5,676C486.167,683 474.833,690 463.5,697C447.321,705.17 430.155,709.67 412,710.5C378.191,708.672 349.691,695.672 326.5,671.5C304.962,652.425 292.962,628.425 290.5,599.5C289.117,584.636 289.284,569.636 291,554.5C300.472,516.035 320.638,484.535 351.5,460C373.15,444.734 397.15,439.4 423.5,444C468.39,453.08 513.724,458.413 559.5,460C608.323,460.922 656.99,458.588 705.5,453C672.438,442.741 639.771,431.575 607.5,419.5C605.784,419.371 604.117,419.038 602.5,418.5C595.63,416.613 588.964,414.113 582.5,411C579.13,407.183 578.797,403.183 581.5,399C587.39,397.755 593.39,397.088 599.5,397C631.734,387.027 664.067,377.527 696.5,368.5C707.046,363.773 718.046,360.106 729.5,357.5L729.5,344.5C725.229,342.703 720.896,340.87 716.5,339C686.668,321.306 655.668,306.139 623.5,293.5ZM659.5,403.5C655.985,402.272 652.485,400.938 649,399.5C642.649,403.295 635.816,405.628 628.5,406.5C628.167,407.167 627.833,407.833 627.5,408.5C653.185,416.84 678.851,425.34 704.5,434C710.395,436.023 716.395,437.523 722.5,438.5C723.353,433.53 724.02,428.53 724.5,423.5C704.672,418.716 685.339,412.716 666.5,405.5C664.035,405.233 661.701,404.566 659.5,403.5ZM511.5,750.5C501.212,756.937 490.546,762.771 479.5,768C438.222,788.155 394.888,794.821 349.5,788C285.707,773.512 238.873,737.345 209,679.5C185.178,623.559 185.678,567.892 210.5,512.5C221.909,488.012 236.576,465.679 254.5,445.5C265.495,433.172 276.829,421.172 288.5,409.5C299.441,397.852 311.774,387.852 325.5,379.5C325.979,374.487 326.979,369.654 328.5,365C335.279,361.096 341.279,361.929 346.5,367.5C348.233,375.251 347.066,382.584 343,389.5C320.859,404.14 300.692,421.14 282.5,440.5C279.529,443.808 276.529,447.141 273.5,450.5C263.951,461.26 255.117,472.593 247,484.5C227.344,512.153 215.177,542.82 210.5,576.5C209.253,582.722 208.587,589.055 208.5,595.5C212.579,679.859 254.245,736.359 333.5,765C379.896,777.216 424.896,773.216 468.5,753C489.848,741.996 510.848,730.496 531.5,718.5C543.354,711.494 555.354,704.661 567.5,698C578.315,692.784 589.648,689.284 601.5,687.5C622.218,684.668 642.885,685.168 663.5,689C687.35,693.765 708.684,703.598 727.5,718.5C747.205,736.207 767.205,753.54 787.5,770.5C795.926,778.76 805.093,786.093 815,792.5C817.774,799.356 815.941,804.356 809.5,807.5L804.5,807.5C802.488,806.772 800.488,805.938 798.5,805C784.16,790.146 768.826,776.646 752.5,764.5C742.486,756.14 732.82,747.307 723.5,738C717.235,732.561 710.568,727.728 703.5,723.5C700.833,722.167 698.167,720.833 695.5,719.5C661.533,703.674 626.2,700.174 589.5,709C586.282,709.9 583.282,711.067 580.5,712.5C574.62,714.438 568.953,716.938 563.5,720C546.539,730.792 529.206,740.959 511.5,750.5ZM556.5,323.5C566.874,322.603 574.707,326.603 580,335.5C587.082,350.258 586.082,364.592 577,378.5C565.587,390.956 553.587,391.623 541,380.5C530.187,365.066 529.853,349.4 540,333.5C544.443,328.205 549.943,324.871 556.5,323.5ZM556.5,341.5C550.083,346.587 547.916,353.253 550,361.5C551.42,368.588 555.587,371.088 562.5,369C568.315,363.231 569.815,356.397 567,348.5C565.463,343.117 561.963,340.784 556.5,341.5ZM205.5,487.5C202.901,491.744 200.568,496.244 198.5,501C193.353,504.601 188.686,504.101 184.5,499.5C182.612,496.069 182.112,492.402 183,488.5C191.833,475.834 198.833,462.168 204,447.5C206.305,444.229 209.472,442.563 213.5,442.5C222.463,444.592 224.963,449.925 221,458.5C215.299,467.903 210.132,477.57 205.5,487.5Z"/>
    </g>
</svg>
