<?xml version="1.0" encoding="UTF-8" standalone="no"?>
<!DOCTYPE svg PUBLIC "-//W3C//DTD SVG 1.1//EN" "http://www.w3.org/Graphics/SVG/1.1/DTD/svg11.dtd">
<svg width="100%" height="100%" viewBox="0 0 1024 1024" version="1.1" xmlns="http://www.w3.org/2000/svg" xmlns:xlink="http://www.w3.org/1999/xlink" xml:space="preserve" xmlns:serif="http://www.serif.com/" style="fill-rule:evenodd;clip-rule:evenodd;stroke-linejoin:round;stroke-miterlimit:2;">
    <g transform="matrix(1.25303,0,0,1.25303,-112.676,-225.926)">
        <path d="M422.5,943.5C421.63,933.714 425.297,926.381 433.5,921.5C435.163,918.344 436.33,915.011 437,911.5C437.667,902.5 437.667,893.5 437,884.5C430.15,836.682 428.65,788.682 432.5,740.5C432.167,739.5 431.833,738.5 431.5,737.5C396.485,723.493 361.819,708.66 327.5,693C306.348,683.6 286.681,671.933 268.5,658C262.167,651 255.833,644 249.5,637C242.669,634.164 236.336,630.498 230.5,626C198.717,594.431 185.884,556.264 192,511.5C197.179,478.117 205.179,445.45 216,413.5C228.173,379.004 241.007,344.838 254.5,311C215.5,310.667 176.5,310.333 137.5,310C131.958,304.908 131.125,299.074 135,292.5C148.152,276.193 160.819,259.526 173,242.5C178.735,229.354 185.735,217.021 194,205.5C221.987,177.257 253.487,172.757 288.5,192C318.518,213.882 329.685,243.048 322,279.5C307.692,320.069 293.692,360.735 280,401.5C274.062,420.586 269.062,439.919 265,459.5C251.988,496.881 263.488,523.048 299.5,538C308.03,540.139 316.697,540.973 325.5,540.5C328.219,488.092 347.552,443.092 383.5,405.5C389.906,397.589 396.906,390.089 404.5,383C483.903,321.203 570.237,309.87 663.5,349C706.95,369.12 743.284,398.12 772.5,436C787.536,444.135 803.202,451.135 819.5,457C824.218,460.343 825.718,464.843 824,470.5C821.185,477.15 817.018,482.817 811.5,487.5C820.316,491.048 828.983,494.881 837.5,499C842.592,504.893 842.759,511.059 838,517.5C835.313,521.194 831.813,523.694 827.5,525C840.015,531.68 851.181,540.18 861,550.5C865.767,557.5 865.6,564.333 860.5,571C859.167,571.667 857.833,572.333 856.5,573C850.472,573.17 844.472,573.67 838.5,574.5C822.945,591.556 806.278,607.39 788.5,622C796.379,624.379 801.379,629.545 803.5,637.5C803.237,640.028 802.404,642.361 801,644.5C766.373,672.248 728.54,695.081 687.5,713C662.227,723.98 636.561,733.98 610.5,743C608.888,743.72 607.388,743.554 606,742.5C603.876,739.333 603.376,736 604.5,732.5C589.682,725.146 576.849,727.813 566,740.5C564.725,742.717 563.725,745.051 563,747.5C562.667,796.833 562.333,846.167 562,895.5C561.481,911.37 559.647,927.036 556.5,942.5C581.663,943.332 606.997,943.832 632.5,944C638.612,947.293 640.112,952.127 637,958.5C636.097,959.701 634.931,960.535 633.5,961C489.834,961.5 346.167,961.667 202.5,961.5C200.827,960.657 199.66,959.324 199,957.5C198.114,953.134 198.614,948.967 200.5,945C218.765,943.539 237.098,943.039 255.5,943.5L422.5,943.5ZM376.5,440.5C341.791,494.904 333.291,553.238 351,615.5C366.429,661.085 394.596,696.418 435.5,721.5C438.588,716.325 441.421,710.992 444,705.5C459.977,681.596 482.477,670.596 511.5,672.5C526.299,668.18 532.966,673.346 531.5,688C523.938,689.267 516.271,689.934 508.5,690C503.333,693.833 498.833,698.333 495,703.5C486.748,718.508 481.582,734.508 479.5,751.5C480.629,807.489 480.796,863.489 480,919.5C479.627,925.189 479.127,930.855 478.5,936.5C478.326,938.861 477.993,941.194 477.5,943.5L499.5,943.5C502.119,943.768 504.619,943.435 507,942.5C510.844,935.148 513.844,927.482 516,919.5C516.333,873.5 516.667,827.5 517,781.5C518.349,774.45 520.683,767.784 524,761.5C534.743,746.754 546.91,733.254 560.5,721C573.224,711.989 587.224,708.989 602.5,712C608.917,713.374 614.25,716.541 618.5,721.5C646.003,710.496 673.336,698.996 700.5,687C722.391,676.254 743.391,664.087 763.5,650.5C726.345,649.732 689.012,649.232 651.5,649C631.971,650.79 612.638,653.79 593.5,658C582.694,659.018 571.861,659.518 561,659.5C509.504,660.013 466.838,641.013 433,602.5C418.107,583.659 411.607,562.326 413.5,538.5C418.201,535.919 422.867,535.919 427.5,538.5C428.758,558.997 435.591,577.33 448,593.5C483.197,630.461 526.364,646.294 577.5,641C604.392,636.574 631.392,632.907 658.5,630C677.874,629.336 697.207,630.003 716.5,632C736.5,632.667 756.5,632.667 776.5,632C772.084,629.588 768.251,626.422 765,622.5C764.365,620.365 764.699,618.365 766,616.5C785.439,601.394 803.939,585.227 821.5,568C784.362,557.514 747.029,556.847 709.5,566C676.314,575.713 642.647,583.38 608.5,589C575.483,594.331 543.15,591.665 511.5,581C499.951,576.982 489.784,570.815 481,562.5C479.521,552.658 483.687,549.158 493.5,552C501.221,556.527 509.221,560.527 517.5,564C550.691,574.619 584.357,576.286 618.5,569C645.34,563.299 672.007,556.966 698.5,550C729.81,542.477 761.477,540.477 793.5,544C810.387,547.252 827.054,550.919 843.5,555C832.37,547.016 820.537,540.183 808,534.5C806.087,530.529 806.087,526.529 808,522.5C811.705,517.967 815.538,513.634 819.5,509.5C787.307,500.498 754.641,497.998 721.5,502C690.65,509.281 659.65,515.948 628.5,522C615.204,523.332 601.871,523.832 588.5,523.5C567.289,522.364 547.289,516.864 528.5,507C515.752,499.588 506.586,489.088 501,475.5C499.436,472.538 499.269,469.538 500.5,466.5C505.584,465.11 510.584,465.277 515.5,467C518.24,474.41 522.574,480.743 528.5,486C546.809,497.581 566.809,504.248 588.5,506C610.881,506.823 632.881,504.323 654.5,498.5C668.856,495.161 683.189,491.661 697.5,488C714.014,484.637 730.68,482.47 747.5,481.5C762.25,482.077 776.916,483.41 791.5,485.5C791.491,483.692 791.991,482.025 793,480.5C796.682,476.651 800.515,472.984 804.5,469.5C796.596,463.444 788.263,457.944 779.5,453C751.514,443.964 722.847,440.631 693.5,443C671.535,447.216 649.535,451.216 627.5,455C609.389,457.376 591.389,456.709 573.5,453C567.852,452.062 562.519,450.229 557.5,447.5C556.104,446.148 555.437,444.481 555.5,442.5C555.621,436.244 558.788,433.244 565,433.5C589.738,438.249 614.571,438.749 639.5,435C659.084,430.853 678.751,427.187 698.5,424C712.238,423.476 725.905,423.809 739.5,425C727.788,413.287 715.454,402.287 702.5,392C650.071,354.532 591.738,339.532 527.5,347C464.372,357.879 414.038,389.046 376.5,440.5ZM463.5,751.5C464.044,738.568 466.211,725.902 470,713.5C472.651,706.27 475.984,699.604 480,693.5C461.103,706.957 450.769,725.29 449,748.5C447.451,777.481 447.117,806.481 448,835.5C450.827,858.129 453.327,880.795 455.5,903.5C455.843,917.966 450.843,930.132 440.5,940C438.956,940.29 437.623,940.956 436.5,942C439.695,942.181 442.695,942.681 445.5,943.5L465.5,943.5C464.546,923.863 463.879,904.196 463.5,884.5L463.5,751.5ZM544.5,935.5C544.667,877.499 544.5,819.499 544,761.5C538.833,768.666 535.833,776.666 535,785.5C534.667,833.167 534.333,880.833 534,928.5C532.313,934.508 528.813,939.008 523.5,942C527.025,942.179 530.359,942.679 533.5,943.5C537.555,943.824 541.555,943.491 545.5,942.5C544.626,940.253 544.292,937.92 544.5,935.5ZM217.5,474.5C213.585,488.24 210.752,502.24 209,516.5C204.413,555.757 216.579,588.591 245.5,615C250.389,618.556 255.722,621.223 261.5,623C266.104,627.603 269.938,632.77 273,638.5C278.704,644.262 284.871,649.428 291.5,654C317.669,669.38 345.003,682.046 373.5,692C365.346,683.515 358.346,674.182 352.5,664C340.955,660.228 329.622,655.895 318.5,651C291.341,639.168 268.174,622.001 249,599.5C244.775,592.383 241.108,585.05 238,577.5C233.784,559.402 232.451,541.068 234,522.5C238.697,495.347 244.031,468.347 250,441.5C258.138,411.922 266.972,382.588 276.5,353.5C283.603,335.705 290.436,317.705 297,299.5C301.197,288.099 304.53,276.433 307,264.5C307.398,256.017 306.398,247.684 304,239.5C292.378,209.09 270.211,195.59 237.5,199C216.852,204.483 203.185,217.317 196.5,237.5C209.504,237.333 222.504,237.5 235.5,238C244.098,238.899 252.431,240.899 260.5,244C274.102,249.759 281.768,259.926 283.5,274.5C280.76,288.458 276.927,302.125 272,315.5C250.416,367.334 232.249,420.334 217.5,474.5ZM252.5,522.5C246.559,548.791 251.392,572.791 267,594.5C288.185,616.507 313.352,632.007 342.5,641C330.442,615.216 324.442,588.05 324.5,559.5C314.33,559.233 304.33,557.733 294.5,555C276.735,548.701 262.735,537.868 252.5,522.5ZM192.5,282.5C191.928,284.255 191.094,285.922 190,287.5C187.356,289.31 184.856,291.31 182.5,293.5C189.811,294.665 197.144,294.831 204.5,294C200.684,290.018 196.684,286.185 192.5,282.5ZM182.5,262.5C173.104,272.229 164.437,282.562 156.5,293.5C159.359,294.599 162.026,294.099 164.5,292C172.651,285.093 180.984,278.426 189.5,272C187.512,268.499 185.178,265.332 182.5,262.5ZM199.5,254.5C202.818,266.66 209.818,276.16 220.5,283C232.941,289.896 246.108,293.729 260,294.5C270.175,273.684 264.008,261.184 241.5,257C227.517,255.861 213.517,255.027 199.5,254.5ZM599.5,996.5C518.334,997.666 437.001,997.832 355.5,997C350.184,992.474 349.184,987.141 352.5,981C435.752,979.339 519.085,979.006 602.5,980C606.495,983.507 607.495,987.674 605.5,992.5C604.535,995.32 602.535,996.653 599.5,996.5ZM310.5,979.5C321.895,980.091 324.562,985.258 318.5,995C314.14,997.535 310.64,996.701 308,992.5C305.606,987.527 306.44,983.194 310.5,979.5Z"/>
    </g>
</svg>
