<?xml version="1.0" encoding="UTF-8" standalone="no"?>
<!DOCTYPE svg PUBLIC "-//W3C//DTD SVG 1.1//EN" "http://www.w3.org/Graphics/SVG/1.1/DTD/svg11.dtd">
<svg width="100%" height="100%" viewBox="0 0 1024 1024" version="1.1" xmlns="http://www.w3.org/2000/svg" xmlns:xlink="http://www.w3.org/1999/xlink" xml:space="preserve" xmlns:serif="http://www.serif.com/" style="fill-rule:evenodd;clip-rule:evenodd;stroke-linejoin:round;stroke-miterlimit:2;">
    <g transform="matrix(1.24735,0,0,1.24735,-173.931,-164.007)">
        <path d="M790.5,628.5C791.082,631.817 792.415,634.817 794.5,637.5C845.285,624.027 896.951,617.194 949.5,617C960.796,622.435 963.296,630.601 957,641.5C943.387,653.779 930.387,666.779 918,680.5C904.352,697.471 904.018,714.804 917,732.5C926.256,744.427 936.256,755.76 947,766.5C952.817,772.968 956.651,780.468 958.5,789C957.024,800.132 950.691,804.799 939.5,803C893.553,786.037 853.719,759.87 820,724.5C796.59,737.083 771.757,745.916 745.5,751C714.71,756.182 683.71,757.849 652.5,756C650.899,755.727 649.399,755.227 648,754.5C662.547,784.641 672.88,816.308 679,849.5C679.888,854.618 679.555,859.618 678,864.5C674.34,868.367 669.84,869.534 664.5,868C655.86,864.014 647.86,859.014 640.5,853C615.723,829.892 591.223,806.392 567,782.5C556.714,768.474 550.881,752.807 549.5,735.5C542.198,733.005 534.864,730.505 527.5,728C525.741,727.202 524.074,727.369 522.5,728.5C493.997,760.524 468.163,794.524 445,830.5C437.96,835.624 430.793,835.791 423.5,831C405.687,811.879 393.187,789.712 386,764.5C381.687,742 384.354,720.334 394,699.5C399.409,688.343 405.576,677.676 412.5,667.5C395.693,656.536 380.193,643.869 366,629.5C350.178,610.68 335.511,591.014 322,570.5C294.803,526.439 272.137,480.106 254,431.5C243.572,396.265 238.572,360.265 239,323.5C239.923,305.141 244.589,287.808 253,271.5C258.667,263.5 264.333,255.5 270,247.5C278.978,239.401 287.645,239.734 296,248.5C312.502,274.842 329.502,300.842 347,326.5C353.898,336.454 361.398,345.954 369.5,355C379.118,349.554 389.451,345.22 400.5,342C414.148,338.765 427.815,338.765 441.5,342C453.071,346.286 464.738,350.286 476.5,354C479.784,355.396 481.451,357.896 481.5,361.5C481.132,364.638 480.299,367.638 479,370.5C457.713,390.993 442.213,415.326 432.5,443.5C433.137,446.107 434.304,448.44 436,450.5C456.448,476.615 479.281,500.448 504.5,522L507.5,523.5C524.016,514.16 541.35,506.66 559.5,501C592.786,490.563 626.786,483.563 661.5,480C671.833,479.333 682.167,479.333 692.5,480C696.943,480.528 701.277,481.528 705.5,483C710.154,486.624 711.321,491.124 709,496.5C702.065,507.368 694.398,517.702 686,527.5C669.723,551.722 656.889,577.722 647.5,605.5C650.163,607.834 653.163,609.667 656.5,611C672.788,618.318 689.455,624.652 706.5,630C727.201,634.939 748.201,637.106 769.5,636.5C767,627.009 765.334,617.342 764.5,607.5C761.315,578.277 765.815,550.277 778,523.5C788.268,501.946 801.268,482.28 817,464.5C841.263,439.899 866.43,416.399 892.5,394C906.005,382.173 916.838,368.34 925,352.5C933.262,334.649 934.596,316.315 929,297.5C920.492,277.639 905.659,266.139 884.5,263C856.169,262.5 827.835,262.333 799.5,262.5C650.833,262.667 502.166,262.5 353.5,262C349.34,259.508 347.34,255.841 347.5,251C347.043,245.743 349.043,241.91 353.5,239.5C530.167,239.333 706.834,239.5 883.5,240C921.986,245.819 945.82,267.652 955,305.5C957.635,328.971 952.968,350.971 941,371.5C930.274,387.399 917.774,401.899 903.5,415C872.407,438.758 844.574,465.925 820,496.5C801.286,520.278 789.952,547.278 786,577.5C784.608,594.798 786.108,611.798 790.5,628.5ZM431.5,680.5C424.603,689.942 418.437,699.942 413,710.5C408.853,720.434 406.687,730.768 406.5,741.5C408.238,765.306 416.404,786.64 431,805.5C427.894,765.675 436.727,728.841 457.5,695C448.659,690.29 439.992,685.457 431.5,680.5ZM775.5,656.5C772.718,657.933 769.718,659.1 766.5,660C742.845,678.12 737.512,700.62 750.5,727.5C769.442,723.131 787.442,716.297 804.5,707C793.357,690.865 783.691,674.031 775.5,656.5ZM477.5,705.5C463.001,728.829 454.835,754.162 453,781.5C457.925,772.647 463.591,764.314 470,756.5C481.167,743.333 492.333,730.167 503.5,717C494.968,712.878 486.301,709.044 477.5,705.5ZM571.5,742.5C574.129,752.758 578.629,762.092 585,770.5C608.446,789.667 630.613,810.334 651.5,832.5C651.833,832 652.167,831.5 652.5,831C645.993,805.143 636.16,780.643 623,757.5C622.506,755.866 622.34,754.199 622.5,752.5C605.081,751.216 588.081,747.883 571.5,742.5ZM454.5,508.5C454.489,510.017 453.823,511.184 452.5,512C431.954,514.208 418.121,525.041 411,544.5C407.794,555.364 405.294,566.364 403.5,577.5C396.189,578.331 388.856,578.831 381.5,579C374.43,581.369 367.763,584.536 361.5,588.5C371.859,603.033 383.525,616.533 396.5,629C404.47,635.987 413.136,641.987 422.5,647C424.019,648.351 425.352,649.851 426.5,651.5C430.852,646.982 435.019,642.316 439,637.5C438.773,613.825 447.273,593.992 464.5,578C468.886,574.482 473.886,572.649 479.5,572.5C479.054,559.584 483.388,548.751 492.5,540C489.567,538.729 486.901,537.062 484.5,535C474.906,525.564 464.906,516.731 454.5,508.5ZM507.5,554.5C503.932,564.573 501.432,574.907 500,585.5C495.065,586.96 490.232,588.793 485.5,591C468.81,601.884 461.31,617.384 463,637.5C459.253,647.408 453.087,655.408 444.5,661.5C464.401,673.953 485.067,685.119 506.5,695C507.944,695.781 509.277,695.614 510.5,694.5C511.965,690.398 514.299,686.898 517.5,684C518.793,683.51 520.127,683.343 521.5,683.5C519.644,669.988 520.478,656.654 524,643.5C531.045,623.283 544.879,610.616 565.5,605.5C565.419,601.327 566.752,597.661 569.5,594.5C558.63,587.801 547.63,581.301 536.5,575C526.936,567.922 517.269,561.089 507.5,554.5ZM674.5,501.5C623.27,505.949 573.937,518.283 526.5,538.5C534.938,544.471 543.105,550.804 551,557.5C576.191,537.815 604.024,522.648 634.5,512C638.833,511.333 643.167,511.333 647.5,512C649.09,513.046 650.59,514.213 652,515.5C655.029,523.116 653.529,529.616 647.5,535C620.459,541.022 595.792,552.189 573.5,568.5C590.904,579.369 609.237,588.369 628.5,595.5C638.574,561.184 654.574,530.017 676.5,502C675.906,501.536 675.239,501.369 674.5,501.5ZM375.5,401.5C374.797,403.716 373.464,405.549 371.5,407C340.466,423.468 308.799,424.802 276.5,411C274.376,409.878 272.543,408.378 271,406.5C281.209,442.773 295.542,477.44 314,510.5C314.537,503.353 315.87,496.353 318,489.5C325.869,469.453 340.369,457.786 361.5,454.5C361.63,436.408 368.63,421.574 382.5,410C379.519,407.536 377.186,404.703 375.5,401.5ZM394.5,429.5C391.422,434.653 388.589,439.986 386,445.5C384.272,453.803 382.938,462.137 382,470.5L380.5,472C367.341,472.382 356.008,477.049 346.5,486C338.267,497.067 333.767,509.567 333,523.5C330.552,526.473 327.386,527.973 323.5,528C331.526,542.551 340.193,556.718 349.5,570.5C359.083,560.858 370.75,556.524 384.5,557.5C386.404,548.351 388.904,539.351 392,530.5C401.794,509.039 418.294,496.205 441.5,492C434,483.167 426.5,474.333 419,465.5C411.303,453.968 403.803,442.301 396.5,430.5C396.043,429.702 395.376,429.369 394.5,429.5ZM412.5,361.5C405.571,363.868 398.571,366.368 391.5,369C388.13,370.346 385.13,372.179 382.5,374.5C396.785,389.281 408.952,405.614 419,423.5C424.262,402.471 434.096,383.971 448.5,368C436.94,363.373 424.94,361.206 412.5,361.5ZM576.5,703.5C576.275,698.752 576.775,694.085 578,689.5C582.941,667.728 596.108,654.061 617.5,648.5C619.419,639.99 621.419,631.49 623.5,623C623.415,621.893 623.081,620.893 622.5,620C612.788,614.82 602.788,610.32 592.5,606.5C588.873,610.761 586.539,615.761 585.5,621.5C554.08,627.374 540.58,646.04 545,677.5C538.34,686.483 534.173,696.483 532.5,707.5C543.633,710.534 554.633,714.034 565.5,718C568.478,718.696 571.478,719.196 574.5,719.5C575.167,714.167 575.833,708.833 576.5,703.5ZM645.5,631.5C641.732,643.384 638.232,655.384 635,667.5C616.674,669.162 605.007,678.828 600,696.5C599.649,704.849 599.649,713.183 600,721.5C598.58,723.422 596.747,724.755 594.5,725.5C614.85,730.55 635.517,733.55 656.5,734.5C648.512,697.082 660.845,668.749 693.5,649.5C677.487,643.492 661.487,637.492 645.5,631.5ZM281.5,268.5C278.192,275.11 274.358,281.444 270,287.5C266.732,295.906 264.398,304.573 263,313.5C262.333,329.5 262.333,345.5 263,361.5C263.263,366.017 264.263,370.351 266,374.5C273.849,382.843 283.016,389.343 293.5,394C317.643,400.349 340.977,398.182 363.5,387.5C353.58,372.746 343.08,358.412 332,344.5C314.519,319.534 297.685,294.2 281.5,268.5ZM295.5,319.5C307.653,317.992 316.487,322.659 322,333.5C323.729,352.772 314.896,361.938 295.5,361C287.565,358.732 282.732,353.565 281,345.5C278.823,332.849 283.656,324.182 295.5,319.5ZM920.5,639.5C880.414,642.473 840.748,648.806 801.5,658.5C809.406,672.565 817.906,686.232 827,699.5C853.704,730.46 884.704,753.793 920,769.5C909.527,758.699 900.193,747.032 892,734.5C884.339,720.866 882.672,706.532 887,691.5C890.953,681.594 895.953,672.26 902,663.5L925.5,640C923.866,639.506 922.199,639.34 920.5,639.5ZM712.5,654.5C711.987,658.229 711.154,661.896 710,665.5C705.252,668.791 700.419,671.958 695.5,675C685.921,682.988 680.088,693.155 678,705.5C677.807,715.223 677.64,724.889 677.5,734.5C680,734.833 682.5,735.167 685,735.5C698.819,734.229 712.652,733.229 726.5,732.5C724.222,723.944 722.389,715.277 721,706.5C719.131,688.075 724.297,671.908 736.5,658C728.34,657.8 720.34,656.634 712.5,654.5ZM154.5,215.5C158.967,215.133 163.3,215.633 167.5,217C170.553,223.004 173.387,229.17 176,235.5C183.766,244.787 193.599,247.953 205.5,245C217.395,241.103 224.228,232.936 226,220.5C230.055,215.684 235.222,214.184 241.5,216C246.259,220.491 247.759,225.991 246,232.5C238.869,254.504 223.702,266.671 200.5,269C178.003,269.491 161.836,259.657 152,239.5C149.275,232.927 148.941,226.26 151,219.5C152.376,218.295 153.542,216.962 154.5,215.5ZM192.5,297.5C199.91,296.045 206.077,298.045 211,303.5C213.116,308.111 212.949,312.611 210.5,317C208.975,318.009 207.308,318.509 205.5,318.5L205.5,503.5C210.734,503.753 213.067,506.586 212.5,512C211.949,520.879 207.116,525.379 198,525.5C188.976,525.147 183.642,520.48 182,511.5C181.333,444.5 181.333,377.5 182,310.5C183.534,304.477 187.034,300.144 192.5,297.5ZM143.5,589.5C170.502,589.333 197.502,589.5 224.5,590C232.775,595.831 233.608,602.664 227,610.5C224.649,611.714 222.149,612.548 219.5,613C195.833,613.667 172.167,613.667 148.5,613C144.104,612.27 141.27,609.77 140,605.5C138.622,599.492 139.789,594.159 143.5,589.5Z"/>
    </g>
</svg>
