<?xml version="1.0" encoding="UTF-8" standalone="no"?>
<!DOCTYPE svg PUBLIC "-//W3C//DTD SVG 1.1//EN" "http://www.w3.org/Graphics/SVG/1.1/DTD/svg11.dtd">
<svg width="100%" height="100%" viewBox="0 0 1024 1024" version="1.1" xmlns="http://www.w3.org/2000/svg" xmlns:xlink="http://www.w3.org/1999/xlink" xml:space="preserve" xmlns:serif="http://www.serif.com/" style="fill-rule:evenodd;clip-rule:evenodd;stroke-linejoin:round;stroke-miterlimit:2;">
    <g transform="matrix(1.29335,0,0,1.29335,-157.473,-171.965)">
        <path d="M170.5,719.5C140.213,666.049 124.047,608.382 122,546.5C118.249,429.347 157.749,329.847 240.5,248C248.462,241.706 256.129,235.04 263.5,228C268.85,223.661 274.516,219.828 280.5,216.5C281.899,215.11 283.566,214.11 285.5,213.5C308.374,197.728 333.041,185.061 359.5,175.5C371.055,170.742 383.055,167.076 395.5,164.5C426.218,157.297 457.385,154.297 489,155.5C588.927,151.641 677.093,181.307 753.5,244.5C801.005,283.815 839.838,330.148 870,383.5C897.475,435.067 911.975,490.067 913.5,548.5C913.437,565.507 913.104,582.507 912.5,599.5C911.949,602.807 911.616,606.14 911.5,609.5C908.863,630.352 905.196,651.019 900.5,671.5C897.997,678.341 895.664,685.341 893.5,692.5C876.342,738.879 850.675,779.546 816.5,814.5C788.442,841.009 756.108,860.842 719.5,874C665.073,891.343 611.739,888.843 559.5,866.5C492.626,837.298 439.959,791.631 401.5,729.5C399.812,737.523 394.812,741.523 386.5,741.5C377.066,740.696 370.232,736.029 366,727.5C360.784,715.129 361.451,703.129 368,691.5L376.5,683C370.388,668.498 365.388,653.665 361.5,638.5C358.828,640.425 357.828,643.092 358.5,646.5C331.483,649.016 314.316,663.349 307,689.5C304.677,705.274 308.01,719.607 317,732.5C328.952,748.451 343.452,761.618 360.5,772C391.114,788.318 423.114,801.318 456.5,811C462.557,813.097 467.057,816.93 470,822.5C470.667,842.167 470.667,861.833 470,881.5C467.294,894.378 459.461,901.378 446.5,902.5C432.324,899.799 418.324,896.466 404.5,892.5C400.605,891.538 396.939,890.204 393.5,888.5C383.141,886.414 373.141,883.414 363.5,879.5C302.666,858.326 251.166,823.326 209,774.5C194.39,757.393 181.556,739.06 170.5,719.5ZM303.5,238.5C224.225,293.895 175.892,369.561 158.5,465.5C154.719,485.312 153.052,505.312 153.5,525.5C151.745,592.781 168.078,655.114 202.5,712.5C204.591,717.02 206.925,721.353 209.5,725.5C254.313,787.956 313.313,831.289 386.5,855.5C404.549,861.262 422.882,865.929 441.5,869.5C441.466,859.155 441.133,848.821 440.5,838.5C400.951,827.493 363.951,810.993 329.5,789C315.667,779.167 303.833,767.333 294,753.5C277.892,730.405 272.558,705.071 278,677.5C291.33,638.295 318.497,618.295 359.5,617.5C355.839,583.119 359.339,549.453 370,516.5C373.727,506.054 378.227,496.054 383.5,486.5C402.65,451.851 429.65,425.017 464.5,406C480.706,396.947 498.039,391.28 516.5,389C571.101,382.036 618.435,397.202 658.5,434.5C693.113,468.816 708.947,510.483 706,559.5C704.426,579.839 698.26,598.506 687.5,615.5C668.564,650.078 639.564,670.744 600.5,677.5C591.798,680.117 582.798,680.95 573.5,680C527.752,673.404 496.752,648.571 480.5,605.5C476.125,591.494 474.625,577.161 476,562.5C478.695,550.448 482.528,538.781 487.5,527.5C490.748,522.403 494.248,517.403 498,512.5C527.083,480.549 560.917,474.049 599.5,493C620.995,507.156 630.162,526.989 627,552.5C620.439,577.563 604.272,591.23 578.5,593.5C566.888,594.118 558.388,589.451 553,579.5C549.986,571.207 552.153,564.707 559.5,560C566.225,559.036 572.725,559.869 579,562.5C595.538,556.761 599.871,546.094 592,530.5C582.138,516.644 568.638,511.144 551.5,514C533.27,520.231 520.104,532.065 512,549.5C502.844,576.228 507.177,600.561 525,622.5C554.964,651.847 588.464,656.514 625.5,636.5C655.466,616.863 672.133,589.196 675.5,553.5C674.619,499.046 650.286,459.046 602.5,433.5C569.982,418.068 536.316,415.235 501.5,425C456.38,441.963 423.713,472.13 403.5,515.5C383.172,567.653 383.672,619.653 405,671.5C413.317,690.81 423.151,709.144 434.5,726.5C441.803,735.313 448.969,744.313 456,753.5C476.161,776.163 498.661,796.163 523.5,813.5C538.335,822.42 553.668,830.587 569.5,838C632.294,863.298 692.961,858.964 751.5,825C815.242,782.424 855.908,723.591 873.5,648.5C875.044,640.196 876.544,631.863 878,623.5C887.901,560.511 882.068,499.178 860.5,439.5C847.522,406.213 830.355,375.213 809,346.5C789.27,323.098 768.436,300.598 746.5,279C727.84,262.688 708.174,247.854 687.5,234.5C657.221,217.019 625.221,204.019 591.5,195.5C573.032,191.589 554.365,189.089 535.5,188C504.5,187.333 473.5,187.333 442.5,188C391.992,193.666 345.659,210.5 303.5,238.5ZM817.5,415.5C833.907,414.394 840.407,421.728 837,437.5C813.052,483.612 776.219,514.279 726.5,529.5C721.843,529.424 718.343,527.424 716,523.5C712.36,515.58 712.693,507.913 717,500.5C748.277,489.542 774.277,471.209 795,445.5C800.093,438.32 804.426,430.653 808,422.5C810.79,419.535 813.957,417.202 817.5,415.5ZM761.5,324.5C767.563,323.838 773.23,325.004 778.5,328C781.602,331.561 783.269,335.728 783.5,340.5C780.953,370.026 773.12,398.026 760,424.5C750.461,442.045 737.961,457.212 722.5,470C709.227,478.429 700.727,474.929 697,459.5C696.333,457.167 696.333,454.833 697,452.5C702.333,445.833 708.333,439.833 715,434.5C737.531,406.584 749.197,374.584 750,338.5C751.272,331.571 755.105,326.904 761.5,324.5ZM532.5,202.5C538.533,201.965 544.199,203.132 549.5,206C607.281,251.67 627.447,310.503 610,382.5C604.096,389.579 597.263,390.413 589.5,385C587.383,383.269 585.883,381.102 585,378.5C585.27,361.506 585.27,344.506 585,327.5C581.188,292.043 566.354,262.209 540.5,238C536.844,234.837 532.844,232.171 528.5,230C523.755,224.731 522.255,218.564 524,211.5C525.688,207.315 528.521,204.315 532.5,202.5ZM675.5,249.5C694.451,248.7 700.785,257.367 694.5,275.5C699.985,306.542 699.819,337.542 694,368.5C689.629,384.945 683.295,400.611 675,415.5C667.45,423.433 659.784,423.433 652,415.5C649.428,412.287 647.928,408.62 647.5,404.5C651.358,394.104 655.525,383.77 660,373.5C667.604,343.435 668.604,313.102 663,282.5C662.333,276.833 662.333,271.167 663,265.5C664.026,257.648 668.193,252.315 675.5,249.5ZM316.5,287.5C386.139,283.888 437.306,312.554 470,373.5C472.016,385.474 467.35,393.474 456,397.5C453.5,396.667 451,395.833 448.5,395C436.495,373.986 421.162,355.652 402.5,340C368.199,318.741 331.532,313.741 292.5,325C270.724,331.572 251.057,341.906 233.5,356C224.38,359.022 218.547,355.855 216,346.5C213.938,341.669 213.271,336.669 214,331.5C244.159,307.395 278.326,292.728 316.5,287.5ZM349.5,215.5C422.912,211.79 480.078,240.123 521,300.5C529.926,316.537 536.259,333.537 540,351.5C541.842,359.968 539.675,367.135 533.5,373C526.431,376.804 519.931,375.97 514,370.5C509.065,355.027 503.731,339.694 498,324.5C477.113,285.444 444.946,260.944 401.5,251C395.564,249.613 389.564,248.613 383.5,248C369.739,247.965 356.073,247.298 342.5,246C335.721,239.159 334.888,231.659 340,223.5C343.358,220.969 346.524,218.302 349.5,215.5ZM848.5,510.5C867.798,508.775 873.632,516.775 866,534.5C828.031,567.392 783.865,585.225 733.5,588C723.883,582.823 720.717,574.99 724,564.5C725.588,559.948 728.755,557.115 733.5,556C763.385,553.927 791.385,545.593 817.5,531C828.242,524.64 838.575,517.807 848.5,510.5ZM272.5,516.5C246.205,535.963 226.372,560.629 213,590.5C207.038,595.66 200.871,595.826 194.5,591C187.201,583.199 185.701,574.366 190,564.5C197.108,551.931 204.941,539.931 213.5,528.5C235.349,501.561 262.349,481.395 294.5,468C308.899,462.534 323.566,457.867 338.5,454C359.706,451.864 366.54,460.697 359,480.5L355.5,484C325.182,488.318 297.516,499.151 272.5,516.5ZM212.5,687.5C211.875,673.357 212.875,659.357 215.5,645.5C218.396,637.026 221.896,628.693 226,620.5C252.033,579.04 289.533,555.04 338.5,548.5C343.19,548.512 347.19,550.178 350.5,553.5C352.532,559.656 353.032,565.989 352,572.5C351.573,576.527 349.406,579.027 345.5,580C319.594,581.624 296.927,590.958 277.5,608C249.405,631.952 238.571,662.119 245,698.5C244.152,701.56 243.152,704.56 242,707.5C235.072,716.9 227.072,717.9 218,710.5C213.613,703.553 211.779,695.887 212.5,687.5ZM840.5,609.5C858.537,610.895 863.704,619.895 856,636.5C830.201,651.545 802.367,661.045 772.5,665C750.174,668.235 727.841,668.235 705.5,665C695.508,660.041 692.342,652.208 696,641.5C697.833,638.333 700.333,635.833 703.5,634C740.364,638.514 776.364,634.847 811.5,623C821.601,619.147 831.268,614.647 840.5,609.5ZM566.5,784.5C533.447,763.95 508.281,736.283 491,701.5C489.431,689.953 494.431,683.953 506,683.5C509.459,683.267 512.626,684.101 515.5,686C522.63,697.095 530.13,707.928 538,718.5C542.409,723.01 546.575,727.677 550.5,732.5C604.812,780.85 668.479,801.684 741.5,795C751.738,800.224 754.238,808.057 749,818.5C747.5,821.333 745.333,823.5 742.5,825C717.426,828.664 692.426,828.33 667.5,824C631.391,816.94 597.724,803.774 566.5,784.5ZM459.5,519.5C455.171,526.152 451.338,533.152 448,540.5C440.097,562.113 436.597,584.447 437.5,607.5C436.071,611.502 433.738,615.002 430.5,618C420.46,623.061 412.96,620.561 408,610.5C405.603,590.656 406.77,570.989 411.5,551.5C424.261,500.155 455.928,466.655 506.5,451C519.553,448.386 526.553,453.719 527.5,467C527.591,475.511 523.591,480.845 515.5,483C502.091,484.374 490.424,489.541 480.5,498.5C472.473,504.527 465.473,511.527 459.5,519.5ZM677.5,746.5C656.735,739.205 638.235,728.205 622,713.5C615.866,705.593 616.033,697.926 622.5,690.5C627.904,687.178 633.57,686.678 639.5,689C670.215,715.181 705.882,726.681 746.5,723.5C763.253,721.538 779.92,718.371 796.5,714C813.289,712.461 819.789,719.961 816,736.5C815.117,739.102 813.617,741.269 811.5,743C775.58,754.741 738.913,758.074 701.5,753C693.292,751.133 685.292,748.967 677.5,746.5ZM228.5,458.5C213.972,472.193 201.472,487.527 191,504.5C179.271,511.141 170.938,508.141 166,495.5C165.421,491.797 165.588,488.131 166.5,484.5C197.228,433.621 240.895,398.788 297.5,380C335.771,368.201 372.437,371.868 407.5,391C411.44,393.429 413.44,396.929 413.5,401.5C413.303,408.103 410.969,413.769 406.5,418.5C404.427,419.469 402.261,420.135 400,420.5C389.486,415.666 378.652,411.499 367.5,408C333.583,402.138 301.583,407.804 271.5,425C255.649,434.254 241.316,445.421 228.5,458.5Z"/>
    </g>
</svg>
