<?xml version="1.0" encoding="UTF-8" standalone="no"?>
<!DOCTYPE svg PUBLIC "-//W3C//DTD SVG 1.1//EN" "http://www.w3.org/Graphics/SVG/1.1/DTD/svg11.dtd">
<svg width="100%" height="100%" viewBox="0 0 1024 1024" version="1.1" xmlns="http://www.w3.org/2000/svg" xmlns:xlink="http://www.w3.org/1999/xlink" xml:space="preserve" xmlns:serif="http://www.serif.com/" style="fill-rule:evenodd;clip-rule:evenodd;stroke-linejoin:round;stroke-miterlimit:2;">
    <g transform="matrix(1.32077,0,0,1.32077,-127.283,-185.164)">
        <path d="M364.5,731.5C361.839,714.538 359.506,697.538 357.5,680.5C348.108,684.695 338.775,689.195 329.5,694C320.84,694.5 312.173,694.666 303.5,694.5C296.352,693.508 289.019,693.175 281.5,693.5L281.5,697.5C277.641,726.321 272.808,754.988 267,783.5C262.135,793.359 254.302,799.526 243.5,802C229.167,802.667 214.833,802.667 200.5,802C193.926,798.392 191.759,792.892 194,785.5C195.526,781.307 198.359,778.474 202.5,777C215.832,776.389 229.165,775.889 242.5,775.5C247.702,743.193 252.868,710.859 258,678.5C258.006,673.045 260.506,669.545 265.5,668C286.5,667.667 307.5,667.333 328.5,667C334.156,662.504 340.156,658.504 346.5,655C348.677,653.798 351.011,653.298 353.5,653.5L353.5,510.5L274.5,510.5C269.527,539 263.694,567.333 257,595.5C253.555,602.929 247.722,607.429 239.5,609C224.167,609.667 208.833,609.667 193.5,609C184.831,602.363 184.165,594.863 191.5,586.5C193.028,585.139 194.695,583.972 196.5,583C208.829,582.5 221.162,582.333 233.5,582.5C238.925,551.439 244.759,520.439 251,489.5C252.389,485.444 255.223,483.277 259.5,483C285.833,482.667 312.167,482.333 338.5,482C335.097,466.777 336.43,451.944 342.5,437.5C330.263,417.761 319.097,397.428 309,376.5C300.359,374.543 296.692,369.21 298,360.5C301.231,347.906 305.231,335.573 310,323.5C316.667,318.167 323.333,318.167 330,323.5C332.401,328.232 333.068,333.232 332,338.5C330.47,344.922 328.637,351.256 326.5,357.5C329.914,361.994 333.081,366.66 336,371.5C342.912,384.993 350.079,398.326 357.5,411.5C363.194,405.14 369.194,399.14 375.5,393.5C368.705,367.282 376.705,347.116 399.5,333C402.022,331.659 404.689,330.826 407.5,330.5C408.388,306.727 419.055,288.727 439.5,276.5C439.454,258.143 438.287,239.81 436,221.5C429.394,184.886 407.56,166.386 370.5,166C361.931,167.893 353.598,170.56 345.5,174C337.627,177.313 331.794,175.146 328,167.5C325.321,158.696 328.154,152.529 336.5,149C377.531,132.302 413.031,140.135 443,172.5C452.134,183.994 458.134,196.994 461,211.5C463.559,228.761 465.393,246.095 466.5,263.5C472.11,262.461 477.777,261.794 483.5,261.5C491.187,262.371 498.853,263.371 506.5,264.5C507.262,249.476 508.428,234.476 510,219.5C514.374,181.895 534.207,156.395 569.5,143C591.94,137.632 613.606,139.966 634.5,150C642.062,157.378 642.395,165.045 635.5,173C631.594,174.434 627.594,174.767 623.5,174C611.791,170.223 599.791,167.389 587.5,165.5C560.952,171.205 544.118,187.205 537,213.5C533.175,234.353 532.008,255.353 533.5,276.5C553.6,289.353 565.1,307.686 568,331.5C591.73,344.992 600.563,365.158 594.5,392C596.653,394.771 599.32,397.104 602.5,399C606.315,403.982 610.648,408.482 615.5,412.5C623.618,393.991 632.784,375.991 643,358.5C643.667,356.167 643.667,353.833 643,351.5C640.931,345.056 639.098,338.556 637.5,332C639.709,320.886 646.375,316.886 657.5,320C660,321.167 661.833,323 663,325.5C666.338,336.189 669.671,346.856 673,357.5C673.667,361.5 673.667,365.5 673,369.5C670.191,372.572 666.858,374.905 663,376.5C653.113,397.275 642.446,417.609 631,437.5C631.818,442.454 632.818,447.454 634,452.5C634.5,462.494 634.666,472.494 634.5,482.5C661.204,482.054 687.871,482.554 714.5,484C718.997,488.162 721.497,493.328 722,499.5C727.933,527.101 733.433,554.768 738.5,582.5C749.505,582.333 760.505,582.5 771.5,583C779.853,586.873 783.019,593.373 781,602.5C779.74,605.428 777.573,607.261 774.5,608C760.222,609.597 745.889,609.93 731.5,609C723.133,606.969 717.633,601.802 715,593.5C708.685,566.445 702.852,539.278 697.5,512C697.316,510.624 696.649,509.791 695.5,509.5C670.339,510.498 645.005,510.831 619.5,510.5L619.5,653.5C627.091,656.573 634.091,660.74 640.5,666C642.513,667.257 644.679,668.091 647,668.5C666.146,667.364 685.313,667.197 704.5,668C710.353,669.505 713.52,673.339 714,679.5C719.511,710.582 725.344,741.582 731.5,772.5L731.5,776.5L765.5,776.5C779.241,778.406 783.408,785.739 778,798.5C775.97,800.737 773.47,802.237 770.5,803C758.167,803.667 745.833,803.667 733.5,803C717.552,799.385 708.052,789.552 705,773.5C699.688,747.253 694.855,720.92 690.5,694.5C673.163,694.667 655.83,694.5 638.5,694C629.558,690.212 621.558,685.046 614.5,678.5C610.904,724.214 600.404,768.214 583,810.5C572.511,833.5 559.511,854.834 544,874.5C531.698,887.218 518.198,898.385 503.5,908C497.927,911.206 492.094,913.706 486,915.5C480.606,914.058 475.439,911.892 470.5,909C448.425,895.425 430.091,877.925 415.5,856.5C396.431,831.695 382.597,804.028 374,773.5C370.197,759.625 367.031,745.625 364.5,731.5ZM479.5,287.5C472.402,288.919 465.402,291.085 458.5,294C443.811,301.848 434.811,314.015 431.5,330.5C453.167,334.829 465.5,347.829 468.5,369.5C479.853,369.832 491.186,369.499 502.5,368.5C503.137,364.349 504.303,360.349 506,356.5C512.674,341.987 523.841,333.32 539.5,330.5C537.868,318.068 532.201,307.901 522.5,300C509.375,291.905 495.042,287.739 479.5,287.5ZM400.5,770.5C407.92,764.454 416.253,759.954 425.5,757C463.503,756.395 501.503,756.062 539.5,756C550.448,758.975 560.448,763.808 569.5,770.5C579.287,736.064 586.454,701.064 591,665.5C592.254,615.514 592.92,565.514 593,515.5C601.385,499.678 606.551,482.845 608.5,465C607.385,445.769 599.385,430.102 584.5,418C582.833,417.167 581.167,416.333 579.5,415.5C580.468,439.871 575.802,463.038 565.5,485C559.04,487.616 552.373,489.616 545.5,491C525.517,494.608 505.517,498.108 485.5,501.5C462.099,497.986 438.765,494.153 415.5,490C411.131,488.733 407.297,486.567 404,483.5C400.66,474.157 397.327,464.823 394,455.5C392.121,442.242 390.954,428.908 390.5,415.5C374.806,428.062 365.473,444.228 362.5,464C363.615,481.062 369.115,496.562 379,510.5C379.07,562.848 379.737,615.181 381,667.5C384.529,697.072 389.362,726.406 395.5,755.5C397.012,760.548 398.679,765.548 400.5,770.5ZM538.5,558.5C543.58,558.25 548.58,558.75 553.5,560C560.954,565.389 562.454,572.223 558,580.5C556.786,582.049 555.286,583.215 553.5,584C506.167,584.667 458.833,584.667 411.5,584C409.333,583.167 407.833,581.667 407,579.5C406.174,574.411 406.508,569.411 408,564.5C409.543,562.622 411.376,561.122 413.5,560C455.335,559.833 497.002,559.333 538.5,558.5ZM574.5,607.5C583.04,614.203 583.707,621.703 576.5,630C574.5,630.667 572.5,631.333 570.5,632C513.5,632.667 456.5,632.667 399.5,632C392.01,626.629 390.51,619.796 395,611.5C396.638,609.266 398.805,607.933 401.5,607.5L574.5,607.5ZM549.5,667.5C554.982,669.277 557.649,673.11 557.5,679C557.569,684.872 554.902,688.872 549.5,691C506.167,691.667 462.833,691.667 419.5,691C409.319,684.916 407.986,677.249 415.5,668C417.81,667.503 420.143,667.337 422.5,667.5L549.5,667.5ZM415.5,510.5C461.168,510.333 506.835,510.5 552.5,511C561.405,514.792 563.905,521.292 560,530.5C558.457,532.378 556.624,533.878 554.5,535C507.5,535.667 460.5,535.667 413.5,535C406.493,530.137 404.66,523.637 408,515.5C410.17,513.177 412.67,511.51 415.5,510.5ZM417.5,711.5C461.168,711.333 504.835,711.5 548.5,712C557.964,714.076 561.464,719.909 559,729.5C556.897,733.934 553.397,736.434 548.5,737C504.5,737.667 460.5,737.667 416.5,737C407.724,732.338 405.558,725.504 410,716.5C412.17,714.177 414.67,712.51 417.5,711.5ZM543.5,355.5C537.374,357.78 532.541,361.78 529,367.5C525.16,381.323 529.66,391.489 542.5,398C559.065,400.057 568.732,392.891 571.5,376.5C568.418,361.282 559.085,354.282 543.5,355.5ZM466.5,393.5C457.246,414.845 441.079,424.845 418,423.5C418.572,437.887 420.072,452.221 422.5,466.5C443.049,470.245 463.715,473.245 484.5,475.5C505.119,472.173 525.786,469.173 546.5,466.5C548.915,452.594 550.582,438.594 551.5,424.5C547.818,424.665 544.152,424.499 540.5,424C523.494,420.678 511.827,411.011 505.5,395C492.542,393.647 479.542,393.147 466.5,393.5ZM442.5,829.5C440.878,832.407 439.545,835.407 438.5,838.5C439.571,843.976 441.738,848.976 445,853.5C456.052,867.556 469.718,878.222 486,885.5C502.783,878.101 516.783,867.101 528,852.5C531.612,847.338 532.946,841.671 532,835.5C529.953,831.952 527.12,829.285 523.5,827.5C497.831,827.333 472.165,827.5 446.5,828C445.255,828.791 443.922,829.291 442.5,829.5ZM529.5,803.5C539.401,805.072 546.401,810.406 550.5,819.5C553.278,811.276 556.612,803.276 560.5,795.5C554.405,788.791 547.072,784.125 538.5,781.5L503.5,781.5C479.164,781.333 454.831,781.5 430.5,782C429.584,782.278 428.918,782.778 428.5,783.5C422.148,786.427 415.981,789.76 410,793.5C409.808,796.947 410.475,800.28 412,803.5C414.504,808.509 417.004,813.509 419.5,818.5C423.108,811.058 428.775,805.891 436.5,803C467.669,802.169 498.669,802.336 529.5,803.5ZM415.5,355.5C407.45,358.389 402.283,364.056 400,372.5C398.672,385.021 403.839,393.521 415.5,398C434.813,399.02 443.646,389.853 442,370.5C436.944,358.964 428.111,353.964 415.5,355.5Z"/>
    </g>
</svg>
