<?xml version="1.0" encoding="UTF-8" standalone="no"?>
<!DOCTYPE svg PUBLIC "-//W3C//DTD SVG 1.1//EN" "http://www.w3.org/Graphics/SVG/1.1/DTD/svg11.dtd">
<svg width="100%" height="100%" viewBox="0 0 1024 1024" version="1.1" xmlns="http://www.w3.org/2000/svg" xmlns:xlink="http://www.w3.org/1999/xlink" xml:space="preserve" xmlns:serif="http://www.serif.com/" style="fill-rule:evenodd;clip-rule:evenodd;stroke-linejoin:round;stroke-miterlimit:2;">
    <g transform="matrix(1.31272,0,0,1.31272,-201.453,-158.886)">
        <path d="M924.5,561.5C914.219,608.39 894.053,650.39 864,687.5C854.574,697.431 844.74,706.764 834.5,715.5C792.639,746.954 745.305,762.787 692.5,763C671.48,763.775 650.48,763.609 629.5,762.5C630.024,766.93 631.024,771.264 632.5,775.5C630.829,787.67 623.829,794.17 611.5,795C509.833,795.667 408.167,795.667 306.5,795C285.063,791.529 267.897,781.029 255,763.5C243.112,745.852 235.112,726.519 231,705.5C223.242,666.501 220.242,627.168 222,587.5C234.22,501.608 279.72,440.442 358.5,404C375.76,396.248 393.76,390.914 412.5,388C418.5,387.333 424.5,387.333 430.5,388C438.337,391.184 440.504,396.684 437,404.5L432.5,409C382.926,413.296 340.259,432.463 304.5,466.5C261.785,508.306 241.452,559.306 243.5,619.5C244.042,651.811 248.209,683.811 256,715.5C260.425,733.857 269.592,749.357 283.5,762C291.391,767.411 300.058,771.078 309.5,773C346.832,773.5 384.165,773.667 421.5,773.5C420.132,757.597 413.132,744.764 400.5,735C386.688,722.207 371.022,712.207 353.5,705C339.441,699.903 325.108,695.903 310.5,693C303.998,686.226 303.998,679.56 310.5,673C327.466,672.989 343.799,676.323 359.5,683C390.067,695.2 414.901,714.7 434,741.5C440.308,751.256 443.475,761.922 443.5,773.5C467.176,773.833 490.843,773.5 514.5,772.5C491.973,737.104 475.139,699.104 464,658.5C456.316,627.62 455.649,596.62 462,565.5C468.923,540.149 482.09,518.649 501.5,501C508.031,495.952 515.365,494.285 523.5,496C528.724,500.47 533.724,505.137 538.5,510C568.538,526.047 600.205,530.214 633.5,522.5C630.7,517.853 629.867,512.853 631,507.5C636.001,502.694 641.501,502.194 647.5,506C653.864,512.699 660.531,519.032 667.5,525C688.312,541.644 708.978,558.477 729.5,575.5C731.596,571.812 733.263,567.979 734.5,564C731.859,534.814 729.026,505.647 726,476.5C717.054,422.942 694.054,376.609 657,337.5C603.554,287.567 540.054,264.733 466.5,269C423.124,272.593 382.791,285.593 345.5,308C332.486,316.172 319.82,324.839 307.5,334C300.713,339.384 294.38,345.218 288.5,351.5C247.022,387.46 215.022,430.46 192.5,480.5C188.523,486.665 182.856,488.832 175.5,487C169.975,484.081 168.142,479.581 170,473.5C208.332,392.837 265.832,329.67 342.5,284C420.958,241.3 502.291,234.967 586.5,265C661.368,298.173 711.868,353.673 738,431.5C743.092,448.87 746.759,466.536 749,484.5C751.58,507.474 753.913,530.474 756,553.5C758.389,572.223 751.889,587.056 736.5,598C730.262,601.625 724.262,601.292 718.5,597C695.647,577.312 672.647,557.812 649.5,538.5C637.506,544.115 624.839,547.281 611.5,548C598.132,548.497 584.799,547.997 571.5,546.5C571.214,572.116 575.047,597.116 583,621.5C587.362,635.619 592.029,649.619 597,663.5C627.095,664.662 657.262,664.828 687.5,664C744.866,655.246 786.033,624.746 811,572.5C827.54,531.722 833.54,489.389 829,445.5C819.606,360.802 774.439,305.635 693.5,280C678.969,276.76 664.303,274.427 649.5,273C643.623,266.897 642.956,260.23 647.5,253C681.885,252.012 714.218,260.012 744.5,277C812.183,317.789 848.016,377.956 852,457.5C854.807,501.327 847.474,543.327 830,583.5C802.481,640.186 757.648,674.019 695.5,685C665.521,686.24 635.521,686.907 605.5,687C612.196,704.588 618.196,722.421 623.5,740.5C660.262,742.429 696.928,741.262 733.5,737C808.517,720.995 860.017,677.162 888,605.5C909.551,547.428 915.884,487.762 907,426.5C895.142,364.008 862.642,315.508 809.5,281C784.537,265.786 757.871,254.453 729.5,247C723.207,240.986 722.873,234.652 728.5,228C734.449,226.173 740.449,226.173 746.5,228C804.87,245.409 852.37,278.243 889,326.5C919.313,371.722 934.146,421.722 933.5,476.5C933.195,505.137 930.195,533.47 924.5,561.5ZM515.5,519.5C512.75,522.055 509.75,524.388 506.5,526.5C491.38,544.004 482.546,564.337 480,587.5C478.099,619.999 482.432,651.666 493,682.5C505.462,714.43 521.295,744.43 540.5,772.5C563.49,773.5 586.49,773.833 609.5,773.5C608.987,769.447 608.154,765.447 607,761.5C590.028,710.285 573.362,658.951 557,607.5C551.541,585.165 548.708,562.498 548.5,539.5C536.433,534.4 525.433,527.733 515.5,519.5ZM615.5,433.5C627.179,432.509 633.846,437.842 635.5,449.5C632.021,462.406 624.021,466.573 611.5,462C604.383,455.642 602.883,448.142 607,439.5C609.322,436.605 612.155,434.605 615.5,433.5ZM166.5,500.5C170.747,500.178 174.747,501.011 178.5,503C180.444,504.722 181.444,506.889 181.5,509.5C179.015,519.44 176.848,529.44 175,539.5C169.835,547.572 163.502,548.572 156,542.5C154.101,539.626 153.267,536.459 153.5,533C154.206,523.343 156.706,514.176 161,505.5C162.73,503.598 164.563,501.931 166.5,500.5Z"/>
    </g>
</svg>
