<?xml version="1.0" encoding="UTF-8" standalone="no"?>
<!DOCTYPE svg PUBLIC "-//W3C//DTD SVG 1.1//EN" "http://www.w3.org/Graphics/SVG/1.1/DTD/svg11.dtd">
<svg width="100%" height="100%" viewBox="0 0 1024 1024" version="1.1" xmlns="http://www.w3.org/2000/svg" xmlns:xlink="http://www.w3.org/1999/xlink" xml:space="preserve" xmlns:serif="http://www.serif.com/" style="fill-rule:evenodd;clip-rule:evenodd;stroke-linejoin:round;stroke-miterlimit:2;">
    <g transform="matrix(1.58704,0,0,1.58704,-275.06,-337.539)">
        <path d="M451.5,351.5C450.324,410.672 428.324,460.505 385.5,501C363.977,517.197 343.477,534.697 324,553.5C317.527,562.274 310.693,570.774 303.5,579C296.545,581.96 290.878,580.46 286.5,574.5C291.238,565.359 296.738,556.692 303,548.5C319.264,528.902 337.764,511.735 358.5,497C422.004,445.151 443.504,379.317 423,299.5C401.184,250.998 363.684,230.165 310.5,237C282.334,245.167 263.167,263 253,290.5C250.892,300.387 250.058,310.387 250.5,320.5C255.984,319.826 260.984,320.992 265.5,324C278.262,341.663 292.762,357.829 309,372.5C313.3,378.562 313.634,384.895 310,391.5C308.457,393.378 306.624,394.878 304.5,396C281.613,404.296 258.28,410.963 234.5,416C217.955,419.047 201.288,420.047 184.5,419C174.619,415.582 171.286,408.749 174.5,398.5C203.237,383.06 221.404,359.393 229,327.5C226.968,276.348 249.135,240.515 295.5,220C347.683,206.95 390.849,221.117 425,262.5C443.27,289.227 452.104,318.893 451.5,351.5ZM252.5,339.5C243.507,354.148 234.007,368.481 224,382.5C218.802,388.033 213.302,393.2 207.5,398C234.771,396.266 261.105,390.266 286.5,380C274.926,366.602 263.593,353.102 252.5,339.5ZM301.5,297.5C312.343,296.184 317.51,300.851 317,311.5C315.755,315.742 312.922,318.242 308.5,319C295.521,318.82 291.688,312.654 297,300.5C298.652,299.601 300.152,298.601 301.5,297.5ZM468.5,533.5C508.521,530.734 545.854,539.234 580.5,559C592.031,566.266 603.031,574.266 613.5,583C627.447,598.07 641.947,612.57 657,626.5C658.992,631.922 658.659,637.256 656,642.5C621.211,667.905 582.378,678.738 539.5,675C535.476,670.358 534.643,665.191 537,659.5C537.903,658.299 539.069,657.465 540.5,657C564.21,656.271 587.543,652.937 610.5,647C591.559,644.766 573.559,639.432 556.5,631C550.968,625.036 551.302,619.369 557.5,614C560.167,613.333 562.833,613.333 565.5,614C586.115,621.99 607.449,626.656 629.5,628C615.432,611.93 600.099,597.263 583.5,584C534.731,552.54 482.731,545.874 427.5,564C416.342,567.941 405.342,572.275 394.5,577C384.557,578.053 380.391,573.553 382,563.5C382.465,562.069 383.299,560.903 384.5,560C411.308,547.007 439.308,538.173 468.5,533.5ZM738.5,622.5C748.408,618.543 757.408,613.043 765.5,606C777.706,592.908 788.706,578.908 798.5,564C805.114,560.246 811.28,560.746 817,565.5C818.202,567.677 818.702,570.011 818.5,572.5C816.596,593.354 812.263,613.687 805.5,633.5C801.957,643.59 798.124,653.59 794,663.5C789.156,673.189 784.322,682.855 779.5,692.5C707.326,805.598 603.659,859.765 468.5,855C397.248,849.953 337.415,821.453 289,769.5C262.184,739.864 245.518,705.197 239,665.5C232.92,598.396 254.753,542.23 304.5,497C320.88,483.618 337.547,470.618 354.5,458C369.749,445.667 378.916,429.833 382,410.5C383.857,384.192 375.523,361.859 357,343.5C355.624,331.093 360.79,327.259 372.5,332C379.787,337.957 385.621,345.124 390,353.5C410.226,390.982 407.226,426.316 381,459.5C362.949,477.227 343.449,493.061 322.5,507C312.636,516.53 303.136,526.363 294,536.5C292.167,539.5 290.333,542.5 288.5,545.5C293.216,547.266 295.049,550.599 294,555.5C291.527,561.779 288.527,567.779 285,573.5C282.178,585.79 279.511,598.123 277,610.5C276.535,611.931 275.701,613.097 274.5,614C269.605,616.394 265.105,615.894 261,612.5C253.765,647.618 258.098,681.285 274,713.5C301.956,765.105 343.789,800.605 399.5,820C485.052,845.791 567.385,837.791 646.5,796C720.771,752.202 769.771,688.702 793.5,605.5C780.727,620.818 764.727,632.652 745.5,641C742.833,641.667 740.167,641.667 737.5,641C731.859,634.352 732.192,628.186 738.5,622.5ZM369.5,596.5C374.74,595.538 378.907,597.205 382,601.5C381.216,669.722 414.716,708.222 482.5,717C505.271,717.477 527.271,713.477 548.5,705C561.724,699.721 574.391,693.388 586.5,686C596.667,684.167 600.833,688.333 599,698.5C597.167,701.667 594.667,704.167 591.5,706C564.478,722.896 535.144,733.23 503.5,737C460.559,739.937 423.725,726.437 393,696.5C369.476,669.587 359.81,638.254 364,602.5C365.021,599.65 366.854,597.65 369.5,596.5Z"/>
    </g>
</svg>
