<?xml version="1.0" encoding="UTF-8" standalone="no"?>
<!DOCTYPE svg PUBLIC "-//W3C//DTD SVG 1.1//EN" "http://www.w3.org/Graphics/SVG/1.1/DTD/svg11.dtd">
<svg width="100%" height="100%" viewBox="0 0 1024 1024" version="1.1" xmlns="http://www.w3.org/2000/svg" xmlns:xlink="http://www.w3.org/1999/xlink" xml:space="preserve" xmlns:serif="http://www.serif.com/" style="fill-rule:evenodd;clip-rule:evenodd;stroke-linejoin:round;stroke-miterlimit:2;">
    <g transform="matrix(1.32449,0,0,1.32449,-162.031,-168.872)">
        <path d="M566.5,518.5C556.009,530.214 552.509,543.881 556,559.5C557.712,567.683 560.046,575.683 563,583.5C566.939,591.045 570.606,598.712 574,606.5C575.484,614.202 573.484,620.869 568,626.5C557.747,636.09 546.914,644.924 535.5,653C529.276,655.69 523.276,658.857 517.5,662.5C522.664,680.161 534.331,690.661 552.5,694C556.476,695.197 560.476,695.864 564.5,696C572.158,688.01 578.658,679.177 584,669.5C589.004,662.977 595.504,660.81 603.5,663C608.484,664.307 610.651,667.474 610,672.5C601.883,689.616 591.049,704.782 577.5,718C574.833,719.667 572.167,721.333 569.5,723C549.194,719.686 530.194,712.686 512.5,702C509.984,699.317 507.317,696.817 504.5,694.5C499.763,699.703 494.43,704.203 488.5,708C476.754,712.471 465.087,717.138 453.5,722C447.097,722.972 441.431,721.306 436.5,717C422.134,704.103 410.801,688.936 402.5,671.5C404.258,665.198 408.425,662.532 415,663.5C417.96,663.443 420.793,663.943 423.5,665L430,671.5C435.084,680.244 441.251,688.077 448.5,695C460.91,694.196 472.243,690.196 482.5,683C487.915,677.006 491.915,670.172 494.5,662.5C473.95,652.455 455.783,639.122 440,622.5C435.704,616.048 435.371,609.382 439,602.5C446.744,589.602 452.744,575.936 457,561.5C460.069,548.623 458.736,536.289 453,524.5C446.248,514.413 438.082,505.579 428.5,498C408.091,481.713 387.591,465.546 367,449.5C363.239,434.928 368.739,429.095 383.5,432C411.498,451.666 437.998,473.166 463,496.5C484.612,521.171 489.279,548.838 477,579.5C472.902,589.528 468.402,599.361 463.5,609C474.228,623.239 488.228,632.406 505.5,636.5C521.584,632.927 535.084,624.927 546,612.5C546.17,610.155 545.837,607.821 545,605.5C541.15,595.621 537.483,585.621 534,575.5C529.007,557.367 529.34,539.367 535,521.5C537.61,514.587 541.444,508.587 546.5,503.5C572.325,476.494 600.658,452.661 631.5,432C639.203,429.015 645.37,430.848 650,437.5C650.965,441.782 650.298,445.782 648,449.5C630.546,462.619 613.38,476.119 596.5,490C586.302,499.367 576.302,508.867 566.5,518.5ZM436.5,778.5C426.338,772.907 417.005,766.074 408.5,758C387.164,734.848 369.664,709.015 356,680.5C355.726,669.032 361.226,664.866 372.5,668C374.305,668.972 375.972,670.139 377.5,671.5C383.427,681.453 389.261,691.453 395,701.5C406.527,717.687 419.361,732.854 433.5,747C440.927,752.371 448.593,757.204 456.5,761.5C485.115,770.755 514.115,771.921 543.5,765C560.417,760.712 575.084,752.545 587.5,740.5C607.701,718.81 624.534,694.81 638,668.5C646.203,663.743 653.536,664.743 660,671.5C661.816,675.281 661.483,678.947 659,682.5C643.006,713.303 622.506,740.803 597.5,765C574.716,782.879 548.716,792.546 519.5,794C498.711,796.162 478.377,794.162 458.5,788C450.695,785.685 443.362,782.518 436.5,778.5ZM313.5,127.5C322.451,127.872 330.784,130.372 338.5,135C362.09,153.589 382.59,175.089 400,199.5C405.432,209.125 410.099,219.125 414,229.5C422.07,257.045 429.737,284.712 437,312.5C437.585,315.62 438.919,318.287 441,320.5C485.873,307.013 530.706,307.346 575.5,321.5C576.167,321.167 576.833,320.833 577.5,320.5C585.524,290.074 594.024,259.741 603,229.5C611.346,206.475 624.012,186.142 641,168.5C652.641,155.518 665.475,144.018 679.5,134C702.373,122.178 718.873,128.012 729,151.5C737.469,181.572 747.135,211.239 758,240.5C758.863,243.269 759.363,246.102 759.5,249C746.615,317.811 733.781,386.645 721,455.5C720.172,460.202 720.338,464.869 721.5,469.5C737.975,484.802 752.808,501.469 766,519.5C785.249,548.997 804.249,578.664 823,608.5C831.086,619.734 829.92,629.9 819.5,639C812.669,643.07 805.335,644.403 797.5,643C774.139,636.484 751.806,627.484 730.5,616C723.431,611.111 720.931,604.611 723,596.5C725.016,593.41 727.849,591.743 731.5,591.5C736.025,592.428 740.358,593.928 744.5,596C760.806,605.322 778.139,611.656 796.5,615C777.706,582.567 757.539,551.067 736,520.5C726.058,507.221 714.224,496.055 700.5,487C697.894,485.062 696.061,482.562 695,479.5C694.255,469.414 694.922,459.414 697,449.5C708.493,385.372 720.493,321.372 733,257.5C733.667,253.5 733.667,249.5 733,245.5C730.875,239.466 728.542,233.466 726,227.5C724.744,222.552 723.744,217.552 723,212.5C709.607,274.07 695.274,335.403 680,396.5C673.655,407.216 665.988,408.216 657,399.5C654.844,395.738 654.177,391.738 655,387.5C657.33,380.511 659.663,373.511 662,366.5C675.775,311.064 688.775,255.398 701,199.5C703.326,185.564 704.66,171.564 705,157.5C703.503,155.323 701.503,153.99 699,153.5C694.158,155.339 689.658,157.839 685.5,161C666.508,177.658 650.008,196.491 636,217.5C630.549,229.185 625.882,241.185 622,253.5C614.288,283.014 605.955,312.347 597,341.5C594.2,347.145 589.7,350.145 583.5,350.5C572.884,347.24 562.218,344.073 551.5,341C515.785,332.554 480.451,333.887 445.5,345C433.243,354.245 424.41,351.745 419,337.5C409.691,305.6 400.691,273.6 392,241.5C386.028,223.221 376.695,206.888 364,192.5C352.8,179.632 340.633,167.799 327.5,157C322.944,153.074 318.278,152.741 313.5,156C312.365,160.748 312.198,165.581 313,170.5C316.2,195.632 320.2,220.632 325,245.5C335.768,295.237 347.768,344.57 361,393.5C357.883,403.475 351.383,406.641 341.5,403C338.218,399.847 336.052,396.013 335,391.5C324.443,351.716 314.777,311.716 306,271.5C302.048,251.574 298.548,231.574 295.5,211.5C291.9,225.255 287.566,238.755 282.5,252C295.495,323.138 308.329,394.305 321,465.5C321.667,470.167 321.667,474.833 321,479.5C320.55,481.519 319.717,483.352 318.5,485L303.5,494C280.949,516.538 261.449,541.371 245,568.5C236.246,583.672 227.746,599.006 219.5,614.5L220.5,615.5C241.077,609.876 260.743,602.042 279.5,592C290.997,590.838 295.497,596.005 293,607.5C291.6,610.902 289.433,613.736 286.5,616C263.822,626.671 240.489,635.671 216.5,643C206.561,644.448 198.394,641.282 192,633.5C188.667,626.5 188.667,619.5 192,612.5C212.33,573.148 235.663,535.815 262,500.5C272.762,488.573 283.929,477.24 295.5,466.5C283.666,394.324 271,322.324 257.5,250.5C258.212,243.987 259.712,237.653 262,231.5C273.796,203.655 283.129,174.988 290,145.5C294.591,135.055 302.424,129.055 313.5,127.5ZM359.5,271.5C366.331,270.051 371.831,272.051 376,277.5C384.651,304.584 392.485,331.918 399.5,359.5C397.918,369.805 391.918,373.971 381.5,372C377.835,370.332 375.668,367.499 375,363.5C368.82,336.417 361.32,309.75 352.5,283.5C352.811,278.196 355.145,274.196 359.5,271.5ZM348.5,224.5C360.963,223.457 367.296,229.29 367.5,242C366.245,253.937 359.912,258.27 348.5,255C345.272,253.437 343.105,250.937 342,247.5C339.687,240.997 340.021,234.663 343,228.5C344.812,227.023 346.645,225.69 348.5,224.5ZM656.5,224.5C664.594,222.788 669.761,225.788 672,233.5C674.07,242.97 671.236,250.47 663.5,256C655.983,257.724 650.483,255.224 647,248.5C644.632,238.071 647.799,230.071 656.5,224.5ZM645.5,271.5C656.741,268.933 662.574,273.267 663,284.5C653.861,311.917 645.528,339.584 638,367.5C631.713,374.157 625.38,374.157 619,367.5C616.043,361.701 615.71,355.701 618,349.5C624.355,326.082 631.021,302.749 638,279.5C640.028,276.308 642.528,273.641 645.5,271.5ZM485.5,352.5C494.003,350.666 499.837,353.666 503,361.5C503.667,369.833 503.667,378.167 503,386.5C501.492,393.84 496.992,397.84 489.5,398.5C484.292,397.456 480.792,394.456 479,389.5C478.333,379.5 478.333,369.5 479,359.5C480.694,356.642 482.861,354.309 485.5,352.5ZM518.5,352.5C523.37,352.032 528.036,352.698 532.5,354.5C533.861,356.028 535.028,357.695 536,359.5C536.667,368.5 536.667,377.5 536,386.5C533.84,395.904 528.007,399.404 518.5,397C516,395.833 514.167,394 513,391.5C512.333,380.167 512.333,368.833 513,357.5C514.73,355.598 516.563,353.931 518.5,352.5ZM561.5,373.5C571.414,371.112 577.414,374.778 579.5,384.5C566.487,415.548 557.987,447.881 554,481.5C551.356,491.24 545.523,494.073 536.5,490C533.945,488.445 532.112,486.278 531,483.5C532.663,448.171 540.329,414.171 554,381.5C556.028,378.308 558.528,375.641 561.5,373.5ZM442.5,373.5C449.561,372.456 455.061,374.79 459,380.5C472.015,410.891 480.181,442.558 483.5,475.5C484.648,482.706 481.981,487.873 475.5,491C467.273,492.972 462.44,489.805 461,481.5C456.202,450.167 447.869,419.833 436,390.5C434.556,383.317 436.723,377.65 442.5,373.5ZM647.5,466.5C659.995,465.339 667.161,471.006 669,483.5C672.613,506.258 668.279,527.258 656,546.5C638.473,566.01 616.973,572.843 591.5,567C576.773,559.497 571.273,547.664 575,531.5C595.695,505.773 619.861,484.106 647.5,466.5ZM643.5,495.5C637.072,503.432 630.072,510.932 622.5,518C613.64,526.029 604.973,534.195 596.5,542.5C603.364,546.253 610.364,546.42 617.5,543C638.883,534.064 647.55,518.23 643.5,495.5ZM291.5,546.5C299.65,546.287 307.316,548.121 314.5,552C327.437,559.94 340.104,568.274 352.5,577C360.032,583.865 361.365,591.699 356.5,600.5C352.608,603.326 348.275,604.159 343.5,603C331.566,591.398 318.232,581.731 303.5,574C298.476,573.081 293.476,572.081 288.5,571C279.745,561.462 280.745,553.296 291.5,546.5ZM356.5,466.5C361.267,466.191 365.934,466.691 370.5,468C374.5,470.667 378.5,473.333 382.5,476C401.907,492.403 420.407,509.903 438,528.5C443.185,540.604 440.685,551.104 430.5,560C410.52,572.665 390.52,572.665 370.5,560C351.911,544.307 342.911,524.14 343.5,499.5C342.995,489.518 345.162,480.184 350,471.5C351.965,469.45 354.132,467.783 356.5,466.5ZM368.5,495.5C368.334,501.509 368.501,507.509 369,513.5C374.741,539.295 390.575,549.295 416.5,543.5C401.76,527.523 386.76,512.023 371.5,497C370.473,496.487 369.473,495.987 368.5,495.5ZM713.5,546.5C725.22,543.819 732.553,548.152 735.5,559.5C735.213,564.242 733.213,568.075 729.5,571C724.749,571.189 720.083,571.855 715.5,573C709.675,575.745 704.008,578.745 698.5,582C689.544,588.621 680.877,595.621 672.5,603C663.096,604.468 658.096,600.468 657.5,591C657.474,587.077 658.641,583.577 661,580.5C676.859,566.444 694.359,555.11 713.5,546.5ZM396.5,620.5C403.528,619.351 409.695,621.018 415,625.5C416.545,630.047 416.879,634.713 416,639.5C414.833,642 413,643.833 410.5,645C366.805,648.259 323.139,651.759 279.5,655.5C274.634,655.137 271.8,652.471 271,647.5C269.387,637.563 273.554,631.73 283.5,630C321.351,627.227 359.018,624.06 396.5,620.5ZM601.5,620.5C646.183,624.001 690.85,627.835 735.5,632C745.254,636.67 747.754,643.836 743,653.5C739.235,655.962 735.068,656.962 730.5,656.5C689.216,652.42 647.883,648.92 606.5,646C597.479,643.135 593.646,636.969 595,627.5C596.045,623.96 598.212,621.626 601.5,620.5ZM689.5,667.5C694.566,667.34 699.566,667.84 704.5,669C724.021,673.713 743.354,679.047 762.5,685C770.878,690 772.712,696.833 768,705.5C765.615,707.776 762.781,709.109 759.5,709.5C739.798,703.265 719.798,698.265 699.5,694.5C690.219,720.173 680.053,745.506 669,770.5C649.131,811.904 628.465,852.904 607,893.5C603.155,899.667 597.655,901.834 590.5,900C583.559,894.693 581.725,887.859 585,879.5C622.232,812.702 654.898,743.702 683,672.5C685.326,670.934 687.492,669.268 689.5,667.5ZM317.5,667.5C324.956,665.943 331.123,667.943 336,673.5C349.551,709.486 363.884,745.153 379,780.5C395.698,814.898 413.698,848.565 433,881.5C435.101,894.724 429.601,900.891 416.5,900C414.342,898.543 412.509,896.71 411,894.5C386.512,850.525 363.846,805.525 343,759.5C334.6,738.3 326.6,716.966 319,695.5C314.539,694.51 310.039,694.676 305.5,696C288.664,700.501 271.83,705.001 255,709.5C249.918,709.09 246.584,706.423 245,701.5C242.762,693.488 245.262,687.655 252.5,684C274.337,678.672 296.003,673.172 317.5,667.5ZM575.5,818.5C584.994,818.327 589.994,822.994 590.5,832.5C590.806,844.343 585.306,851.676 574,854.5C565.839,853.686 561.339,849.186 560.5,841C560.963,830.182 565.963,822.682 575.5,818.5ZM431.5,818.5C442.059,818.213 448.892,823.213 452,833.5C452.667,838.167 452.667,842.833 452,847.5C446.973,854.866 440.473,856.366 432.5,852C425.267,844.968 422.434,836.468 424,826.5C426.028,823.308 428.528,820.641 431.5,818.5Z"/>
    </g>
</svg>
