<?xml version="1.0" encoding="UTF-8" standalone="no"?>
<!DOCTYPE svg PUBLIC "-//W3C//DTD SVG 1.1//EN" "http://www.w3.org/Graphics/SVG/1.1/DTD/svg11.dtd">
<svg width="100%" height="100%" viewBox="0 0 1024 1024" version="1.1" xmlns="http://www.w3.org/2000/svg" xmlns:xlink="http://www.w3.org/1999/xlink" xml:space="preserve" xmlns:serif="http://www.serif.com/" style="fill-rule:evenodd;clip-rule:evenodd;stroke-linejoin:round;stroke-miterlimit:2;">
    <g transform="matrix(1.37298,0,0,1.37298,-226.576,-201.181)">
        <path d="M312.5,411.5C281.773,457.452 258.607,507.119 243,560.5C236.183,567.435 229.85,567.102 224,559.5C223.333,555.167 223.333,550.833 224,546.5C237.579,500.685 257.079,457.685 282.5,417.5C310.047,372.663 344.047,333.163 384.5,299C394.868,291.481 405.868,284.981 417.5,279.5C418.87,279.144 419.87,278.31 420.5,277C424.269,266.525 427.936,256.025 431.5,245.5C445.857,213.782 464.024,184.448 486,157.5C492.878,150.623 501.044,148.623 510.5,151.5C513.438,153.934 516.271,156.601 519,159.5C522.59,167.267 525.59,175.267 528,183.5C534.223,206.171 538.723,229.171 541.5,252.5C546.803,244.866 552.803,237.866 559.5,231.5C571.118,216.881 583.451,202.881 596.5,189.5C608.295,176.536 620.295,163.703 632.5,151C640.937,145.392 649.603,145.058 658.5,150C670.9,159.07 680.4,170.57 687,184.5C709.878,229.893 716.545,277.56 707,327.5C702.353,346.472 692.853,362.472 678.5,375.5C696.799,394.724 711.132,416.724 721.5,441.5C741.81,489.128 762.977,536.462 785,583.5C804.609,629.051 823.942,674.718 843,720.5C846.172,724.841 848.839,729.508 851,734.5C852.98,746.196 852.813,757.863 850.5,769.5C846.583,793.673 838.417,816.339 826,837.5C817.163,851.169 808.83,865.169 801,879.5C797.479,882.844 793.312,885.011 788.5,886C770.532,892.516 752.198,894.016 733.5,890.5C715.073,887.637 698.073,881.137 682.5,871C674.5,864.333 666.5,857.667 658.5,851C632.333,826.167 606.167,801.333 580,776.5C578.833,774.667 577.667,772.833 576.5,771C564.788,767.489 553.455,763.322 542.5,758.5C529.43,754.803 516.43,750.803 503.5,746.5C503.13,749.502 501.797,751.835 499.5,753.5C492.562,759.937 485.729,766.603 479,773.5C467.922,789.396 461.589,807.062 460,826.5C459.229,842.205 458.229,857.872 457,873.5C453.3,881.931 447.633,883.598 440,878.5C438.601,875.637 437.601,872.637 437,869.5C435.365,846.58 437.032,823.914 442,801.5C448.079,777.998 460.245,758.331 478.5,742.5C479.29,741.206 480.29,740.039 481.5,739C475.027,736.598 469.027,733.432 463.5,729.5C412.067,705.347 385.734,664.68 384.5,607.5C385.902,584.989 390.069,562.989 397,541.5C402.058,527.658 406.725,513.658 411,499.5C414.578,488.206 421.578,485.206 432,490.5C433.534,494.711 433.867,499.044 433,503.5C422.654,531.212 414.321,559.545 408,588.5C400.156,636.374 415.99,673.874 455.5,701C464.766,706.463 474.1,711.629 483.5,716.5C494.647,719.994 505.647,723.66 516.5,727.5C534.812,733.318 553.145,739.152 571.5,745C575.37,746.287 579.036,747.953 582.5,750C614.526,780.028 646.526,810.028 678.5,840C686.793,847.48 695.793,853.98 705.5,859.5L706.5,858.5C686.693,815.223 667.193,771.89 648,728.5C644.544,713.966 650.044,709.133 664.5,714C679.576,746.652 694.243,779.486 708.5,812.5C711.397,817.167 713.73,822.167 715.5,827.5C721.634,841.222 727.967,854.889 734.5,868.5C739.141,869.346 743.808,870.013 748.5,870.5C758.516,869.601 768.516,868.601 778.5,867.5C801.945,840.298 818.445,808.964 828,773.5C829.662,762.372 831.162,751.372 832.5,740.5C830.731,738.603 828.398,737.436 825.5,737C804.376,730.703 783.376,731.036 762.5,738C751.073,743.435 740.739,750.435 731.5,759C722.34,761.92 717.34,758.586 716.5,749C716.631,746.747 717.131,744.581 718,742.5C745.436,715.245 778.27,705.079 816.5,712C811.532,696.903 804.865,682.737 796.5,669.5C788.105,670.51 779.771,671.844 771.5,673.5C745.642,681.598 722.975,695.098 703.5,714C690.302,717.659 685.135,712.826 688,699.5C709.448,677.682 734.948,662.348 764.5,653.5C773.033,651.159 781.699,649.325 790.5,648C787.381,640.642 783.881,633.476 780,626.5C779.51,625.207 779.343,623.873 779.5,622.5C770.989,622.711 762.656,624.044 754.5,626.5C738.537,631.48 723.537,638.647 709.5,648C701.788,654.714 693.788,661.047 685.5,667C678.594,668.124 674.094,665.291 672,658.5C671.21,655.366 671.543,652.366 673,649.5C695.116,627.69 721.282,613.023 751.5,605.5C757.487,604.167 763.487,602.834 769.5,601.5C764.569,590.636 759.903,579.636 755.5,568.5C750.225,569.531 744.892,570.197 739.5,570.5C721.527,574.663 704.527,581.497 688.5,591C681.676,596.245 674.676,601.245 667.5,606C656.575,607.37 652.075,602.537 654,591.5C655.71,587.781 658.21,584.614 661.5,582C686.459,563.359 714.459,552.192 745.5,548.5C735.554,525.609 725.887,502.609 716.5,479.5C708.772,460.708 699.939,442.375 690,424.5C684.667,417.167 679.333,409.833 674,402.5C668.302,395.636 662.135,389.303 655.5,383.5C633.733,365.28 609.067,352.28 581.5,344.5C568.76,340.953 555.76,338.953 542.5,338.5C540.955,361.349 534.455,382.683 523,402.5C518.341,408.732 512.508,410.066 505.5,406.5C501.366,401.731 500.532,396.398 503,390.5C514.38,374.012 520.714,355.678 522,335.5C526.328,280.467 519.661,226.8 502,174.5C455.093,229.01 431.093,292.343 430,364.5C430.408,381.12 436.908,394.62 449.5,405C456.608,406.442 460.608,410.775 461.5,418C460.982,425.432 456.982,428.932 449.5,428.5C446.205,428.705 443.205,427.872 440.5,426C432.624,418.792 425.458,410.959 419,402.5C413.328,390.815 409.995,378.482 409,365.5C408.333,354.5 408.333,343.5 409,332.5C409.472,324.14 410.972,315.973 413.5,308C413.15,306.743 412.483,306.409 411.5,307C406.318,311.417 400.984,315.583 395.5,319.5C378.634,332.527 363.134,347.194 349,363.5C336.202,379.116 324.036,395.116 312.5,411.5ZM580.5,239.5C573.814,248.175 566.648,256.508 559,264.5C555.937,268.569 553.27,272.902 551,277.5C546.742,289.802 544.576,302.468 544.5,315.5C574.968,317.769 603.635,326.102 630.5,340.5C640.923,346.46 651.09,352.793 661,359.5C661.383,358.944 661.883,358.611 662.5,358.5C667.163,353.669 671.663,348.669 676,343.5C683.956,331.436 688.29,318.102 689,303.5C691.366,269.673 686.366,237.006 674,205.5C668.891,192.401 661.391,180.901 651.5,171C648.833,169 646.167,169 643.5,171C627.955,186.71 612.955,202.876 598.5,219.5C592.813,226.517 586.813,233.183 580.5,239.5ZM282.5,620.5C278.226,595.016 277.559,569.349 280.5,543.5C281.058,533.76 282.225,524.094 284,514.5C288.135,510.809 292.969,509.642 298.5,511C301.381,512.251 303.214,514.417 304,517.5C303.665,529.524 302.665,541.524 301,553.5C298.845,583.14 300.845,612.473 307,641.5C311.221,657.058 316.054,672.392 321.5,687.5C328.05,700.264 334.884,712.931 342,725.5C343.048,738.885 337.215,743.551 324.5,739.5C314.822,722.478 306.489,704.811 299.5,686.5C290.569,665.369 284.903,643.369 282.5,620.5ZM547.5,537.5C562.88,536.345 576.88,540.178 589.5,549C592.04,551.205 594.207,553.705 596,556.5C598.217,563.054 600.884,569.388 604,575.5C606.461,587.297 601.794,593.297 590,593.5C576.085,592.661 562.252,591.161 548.5,589C539.219,586.719 533.719,580.886 532,571.5C530.162,561.776 531.829,552.776 537,544.5C540.154,541.488 543.654,539.155 547.5,537.5ZM554.5,558.5C553.798,561.44 552.798,564.273 551.5,567C560.061,567.341 568.395,568.841 576.5,571.5L577.5,570.5C571.679,563.105 564.012,559.105 554.5,558.5Z"/>
    </g>
</svg>
