<?xml version="1.0" encoding="UTF-8" standalone="no"?>
<!DOCTYPE svg PUBLIC "-//W3C//DTD SVG 1.1//EN" "http://www.w3.org/Graphics/SVG/1.1/DTD/svg11.dtd">
<svg width="100%" height="100%" viewBox="0 0 1024 1024" version="1.1" xmlns="http://www.w3.org/2000/svg" xmlns:xlink="http://www.w3.org/1999/xlink" xml:space="preserve" xmlns:serif="http://www.serif.com/" style="fill-rule:evenodd;clip-rule:evenodd;stroke-linejoin:round;stroke-miterlimit:2;">
    <g transform="matrix(1.26908,0,0,1.26908,-133.999,-201.288)">
        <path d="M198.5,636.5C199.167,634.833 199.833,633.167 200.5,631.5C201.29,630.206 202.29,629.039 203.5,628C207.188,626.487 210.855,624.987 214.5,623.5L215.5,623.5C225.677,618.245 236.01,613.245 246.5,608.5C249.5,607.167 252.5,605.833 255.5,604.5C276.746,593.641 298.079,582.975 319.5,572.5C320.391,571.89 321.391,571.557 322.5,571.5C327.757,568.511 333.091,565.511 338.5,562.5C341.829,561.501 345.162,560.501 348.5,559.5L348.5,530.5C344.474,526.805 340.474,523.138 336.5,519.5L335.5,519.5L335.5,518.5C332.626,518.549 329.792,518.216 327,517.5C324.292,517.867 321.792,518.534 319.5,519.5C316.287,519.81 313.287,519.477 310.5,518.5C305.978,517.411 302.311,515.078 299.5,511.5L298.5,511.5C294.589,506.69 291.423,501.357 289,495.5C282.449,479.15 275.283,463.15 267.5,447.5C265.576,443.572 263.743,439.572 262,435.5C260.417,429.85 261.917,425.35 266.5,422C269.732,419.934 272.732,420.1 275.5,422.5C279.311,424.436 281.978,427.436 283.5,431.5L285.5,431.5C291.136,441.774 296.469,452.107 301.5,462.5C303.553,468.275 305.887,473.941 308.5,479.5C310.902,484.381 312.902,489.381 314.5,494.5C322.547,494.277 330.547,494.777 338.5,496C344.541,499.348 350.208,503.182 355.5,507.5C355.595,505.214 356.262,503.214 357.5,501.5C357.595,499.214 358.262,497.214 359.5,495.5C362.747,489.917 366.747,484.917 371.5,480.5C371.932,479.29 372.599,478.29 373.5,477.5C385.556,468.641 399.056,462.974 414,460.5C415.291,437.205 423.791,417.205 439.5,400.5C439.5,399.833 439.833,399.5 440.5,399.5L441.5,399.5C444.908,395.589 448.574,391.755 452.5,388C454.527,386.121 456.86,384.954 459.5,384.5L459.5,378.5C457.683,369.558 456.017,360.558 454.5,351.5C452.878,346.347 451.545,341.014 450.5,335.5L447.5,329.5C446.494,325.142 445.327,320.809 444,316.5C439.53,307.233 435.363,297.899 431.5,288.5C426.856,281.894 422.689,274.894 419,267.5C414.812,261.766 410.646,256.099 406.5,250.5C395.913,236.013 382.913,224.013 367.5,214.5C362.74,210.085 357.406,206.419 351.5,203.5C349.611,202.396 347.945,201.063 346.5,199.5C342.931,197.881 339.264,196.548 335.5,195.5C332.823,193.54 329.823,192.04 326.5,191C318.101,188.322 309.768,185.822 301.5,183.5L295.5,183.5C285.319,183.173 275.319,183.506 265.5,184.5L264.5,184.5C261.518,184.963 258.518,185.296 255.5,185.5C250.201,186.096 245.201,187.429 240.5,189.5L239.5,189.5C238.167,189.833 236.833,190.167 235.5,190.5C235.158,191.338 234.492,191.672 233.5,191.5C227.833,195.5 222.167,195.5 216.5,191.5C214.357,189.869 212.69,187.869 211.5,185.5C210.702,180.285 212.036,175.785 215.5,172C228.273,166.353 241.606,162.853 255.5,161.5C268.431,158.015 281.431,157.682 294.5,160.5C303.977,161.862 313.311,163.862 322.5,166.5C323.167,166.5 323.5,166.833 323.5,167.5C344.264,173.878 362.931,183.878 379.5,197.5C391.68,205.339 402.68,214.672 412.5,225.5C421.999,234.666 429.999,245 436.5,256.5C441.909,263.64 446.576,271.307 450.5,279.5C456.418,288.999 461.585,298.999 466,309.5C473.432,328.657 479.932,347.99 485.5,367.5L485.5,374.5L487.5,374.5C497.582,374.193 507.582,374.526 517.5,375.5C518.241,368.794 519.241,362.128 520.5,355.5C522.813,348.913 524.813,342.246 526.5,335.5C529.637,325.422 532.97,315.422 536.5,305.5C536.833,304.833 537.167,304.167 537.5,303.5C539.93,298.301 542.097,292.968 544,287.5C547.457,282.222 550.623,276.889 553.5,271.5C556.438,265.901 559.771,260.567 563.5,255.5C573.664,239.997 585.664,225.997 599.5,213.5C612.752,201.532 627.419,191.532 643.5,183.5C654.44,177.15 666.106,172.15 678.5,168.5C686.341,164.791 694.674,162.457 703.5,161.5C731.56,156.283 758.893,158.783 785.5,169C787.37,171.04 789.37,172.873 791.5,174.5C792.872,175.512 794.205,176.512 795.5,177.5C801.767,181.919 803.101,187.586 799.5,194.5C795.334,197.936 790.667,198.436 785.5,196C784.058,195.623 783.058,194.79 782.5,193.5C780.079,193.122 777.746,192.455 775.5,191.5C774.694,190.272 773.694,189.272 772.5,188.5C767.743,186.539 762.743,185.539 757.5,185.5C756.391,184.71 755.058,184.21 753.5,184C741.5,183.333 729.5,183.333 717.5,184C712.591,184.702 707.924,185.868 703.5,187.5C697.755,187.603 692.422,188.936 687.5,191.5C681.64,192.766 676.307,195.1 671.5,198.5L669.5,198.5C662.658,201.753 655.991,205.253 649.5,209C645.258,211.61 641.258,214.443 637.5,217.5C626.589,225.075 616.589,233.742 607.5,243.5C607.649,244.552 607.483,245.552 607,246.5C605.161,248.201 603.327,249.868 601.5,251.5C596.555,255.289 592.388,259.956 589,265.5C583.887,274.741 578.554,283.741 573,292.5C571.716,295.53 570.549,298.53 569.5,301.5L567.5,303.5C567.029,305.579 566.363,307.579 565.5,309.5C560.426,320.792 556.426,332.459 553.5,344.5C548.643,358.445 545.31,372.778 543.5,387.5C548.128,391.156 552.794,394.822 557.5,398.5C557.5,399.167 557.833,399.5 558.5,399.5C563.922,404.585 568.589,410.251 572.5,416.5C578.12,424.07 582.453,432.404 585.5,441.5C586.833,445.167 588.167,448.833 589.5,452.5C589.833,455.833 590.167,459.167 590.5,462.5L591.5,462.5C599.754,464.975 607.754,468.141 615.5,472C617.618,473.049 619.284,474.549 620.5,476.5C625.072,479.563 629.239,483.23 633,487.5C636,491.833 639,496.167 642,500.5C643.009,502.025 643.509,503.692 643.5,505.5C646.606,502.799 649.606,499.965 652.5,497C653.745,496.209 655.078,495.709 656.5,495.5C659.845,493.783 663.511,493.116 667.5,493.5C674.648,494.492 681.981,494.825 689.5,494.5C690.967,489.433 692.633,484.433 694.5,479.5C695.929,476.304 697.595,473.304 699.5,470.5C704.6,456.514 710.267,442.848 716.5,429.5C716.75,427.326 717.75,425.659 719.5,424.5C720.343,422.827 721.676,421.66 723.5,421C726.888,420.341 730.221,420.508 733.5,421.5C736.949,424.374 739.949,427.707 742.5,431.5C742.662,433.527 742.495,435.527 742,437.5C739.533,441.771 737.366,446.104 735.5,450.5C734.347,454.111 733.347,457.777 732.5,461.5C729.531,467.074 727.531,473.074 726.5,479.5C723.293,484.288 721.293,489.622 720.5,495.5L712.5,511.5C711.115,513.883 709.115,515.55 706.5,516.5C706.389,517.117 706.056,517.617 705.5,518C698.15,520.249 690.983,519.749 684,516.5C677.809,517.461 671.642,518.461 665.5,519.5C660.336,523.318 656.336,527.985 653.5,533.5L653.5,549.5C653.068,550.71 652.401,551.71 651.5,552.5C651.167,553.167 650.833,553.833 650.5,554.5C658.535,559.182 666.535,563.848 674.5,568.5C679.32,570.074 683.653,572.407 687.5,575.5C709.388,585.11 730.721,595.777 751.5,607.5C755.109,608.638 758.442,610.304 761.5,612.5C776.236,619.368 790.903,626.534 805.5,634C808.266,635.371 810.599,637.204 812.5,639.5C814.25,640.659 815.25,642.326 815.5,644.5C817.017,644.511 818.184,645.177 819,646.5C819.497,649.146 819.664,651.813 819.5,654.5C818.292,655.234 816.959,655.567 815.5,655.5C815.64,657.124 814.973,658.29 813.5,659C809.973,659.808 806.64,659.641 803.5,658.5C800.683,657.905 798.35,656.572 796.5,654.5C795.391,654.443 794.391,654.11 793.5,653.5C789.882,651.863 786.549,649.863 783.5,647.5C779.948,646.724 776.614,645.391 773.5,643.5C764.339,637.751 754.672,632.751 744.5,628.5C741.485,626.326 738.151,624.659 734.5,623.5C724.358,617.928 714.025,612.595 703.5,607.5L702.5,607.5L702.5,606.5C692.495,601.498 682.495,596.498 672.5,591.5L671.5,591.5C665.83,587.663 659.83,584.33 653.5,581.5C652.539,583.265 652.205,585.265 652.5,587.5C653.498,615.328 653.831,643.328 653.5,671.5L652.5,671.5C651.766,672.708 651.433,674.041 651.5,675.5C652.167,675.833 652.833,676.167 653.5,676.5C669.848,686.009 686.514,695.009 703.5,703.5C714.121,708.47 724.454,713.804 734.5,719.5L735.5,719.5C746.025,724.595 756.358,729.928 766.5,735.5C767.492,735.328 768.158,735.662 768.5,736.5C778.818,740.992 788.818,745.992 798.5,751.5L799.5,751.5C804.401,753.733 808.401,757.066 811.5,761.5C813.245,763.033 814.245,765.033 814.5,767.5C814.682,772.489 812.349,775.655 807.5,777C802.978,778.11 798.978,777.277 795.5,774.5C788.868,771.508 782.201,768.508 775.5,765.5C765.676,759.42 755.343,754.087 744.5,749.5C741.328,747.748 738.328,745.748 735.5,743.5C729.021,741.091 722.688,738.425 716.5,735.5C714.5,734.167 712.5,732.833 710.5,731.5C692.117,722.809 673.783,713.809 655.5,704.5L655.5,703.5L654.5,703.5C653.833,703.5 653.5,703.833 653.5,704.5L653.5,735.5C654.166,760.515 650.666,784.848 643,808.5C641.955,809.373 641.122,810.373 640.5,811.5L640.5,812.5C642.23,813.026 643.564,814.026 644.5,815.5C648.438,818.098 652.105,821.098 655.5,824.5C655.414,825.496 655.748,826.329 656.5,827C658.653,827.099 660.319,827.933 661.5,829.5C666.37,834.567 669.704,840.567 671.5,847.5L672.5,847.5C674.99,853.813 677.99,859.813 681.5,865.5C691.146,885.786 700.48,906.119 709.5,926.5C710.906,926.973 711.573,927.973 711.5,929.5C713.833,934.167 716.167,938.833 718.5,943.5C719.488,944.795 720.488,946.128 721.5,947.5C722.473,946.209 723.473,946.209 724.5,947.5C727.411,963.493 720.911,968.826 705,963.5C703.97,963.164 703.47,962.497 703.5,961.5L703.5,959.5C697.882,955.626 694.215,950.293 692.5,943.5C685.657,930.478 679.324,917.145 673.5,903.5C672.199,900.899 670.866,898.232 669.5,895.5C661.818,879.427 654.152,863.427 646.5,847.5C645.335,841.005 641.669,836.672 635.5,834.5C634.542,834.953 633.708,835.619 633,836.5C630.39,845.715 627.223,854.715 623.5,863.5C621.008,870.468 617.842,877.135 614,883.5C612.961,884.71 611.794,885.71 610.5,886.5C610.657,887.873 610.49,889.207 610,890.5C607.723,892.721 606.223,895.387 605.5,898.5L602.5,898.5C599.209,903.127 595.542,907.46 591.5,911.5C591.473,913.199 590.806,914.533 589.5,915.5C589.631,916.239 589.464,916.906 589,917.5C586.031,920.484 582.865,923.151 579.5,925.5C577.938,925.733 576.605,926.4 575.5,927.5C569.883,932.314 563.883,936.647 557.5,940.5C556.614,941.325 556.281,942.325 556.5,943.5C554.801,943.34 553.134,943.506 551.5,944C545.401,947.383 539.068,950.217 532.5,952.5C530.739,953.313 529.072,954.313 527.5,955.5C525.614,956.065 523.947,957.065 522.5,958.5C512.953,959.334 503.453,959.667 494,959.5C490.945,958.389 488.112,956.889 485.5,955C483.527,954.505 481.527,954.338 479.5,954.5L479.5,951.5C476.633,951.631 474.967,950.297 474.5,947.5C471.968,946.404 469.635,945.071 467.5,943.5L464.5,943.5C461.039,944.111 458.372,942.944 456.5,940C449.34,935.803 442.006,932.136 434.5,929C433.588,926.749 432.588,924.583 431.5,922.5C431.158,921.662 430.492,921.328 429.5,921.5C428.026,918.751 426.026,916.418 423.5,914.5C422.833,914.5 422.5,914.167 422.5,913.5C416.795,908.796 411.795,903.463 407.5,897.5C407.167,896.5 406.5,895.833 405.5,895.5C397.505,885.518 390.505,874.851 384.5,863.5C381.135,856.44 377.468,849.44 373.5,842.5C371.436,842.238 370.103,841.071 369.5,839C368.365,838.251 367.365,838.417 366.5,839.5C363.813,846.733 360.646,853.733 357,860.5C356.292,861.381 355.458,862.047 354.5,862.5C352.112,867.995 350.112,873.662 348.5,879.5C342.065,891.037 336.065,903.037 330.5,915.5C327.772,918.968 326.105,922.968 325.5,927.5C325.657,928.873 325.49,930.207 325,931.5C321.353,936.269 318.686,941.603 317,947.5C316.329,948.252 315.496,948.586 314.5,948.5C312.963,951.9 311.13,955.233 309,958.5C306.843,960.495 304.343,961.828 301.5,962.5C295.637,963.122 291.637,960.789 289.5,955.5C288.034,954.653 287.2,953.32 287,951.5C286.199,948.633 286.366,945.966 287.5,943.5C287.34,941.801 287.506,940.134 288,938.5C292.72,928.102 297.886,918.102 303.5,908.5C313.651,885.534 324.318,862.867 335.5,840.5C336.023,837.122 337.356,834.122 339.5,831.5C343.259,824.408 348.592,819.074 355.5,815.5C355.5,814.833 355.833,814.5 356.5,814.5C357.152,813.551 357.486,812.385 357.5,811C355.936,804.914 354.936,798.747 354.5,792.5C351.461,779.819 349.795,766.819 349.5,753.5C348.505,741.345 348.171,729.011 348.5,716.5L348.5,702.5C346.952,702.821 346.285,703.821 346.5,705.5C346.586,706.496 346.252,707.329 345.5,708C342.467,710.208 339.134,711.708 335.5,712.5L333.5,714.5L332.5,714.5C322.606,719.61 312.939,724.943 303.5,730.5C292.516,735.325 281.849,740.659 271.5,746.5C267.849,747.659 264.515,749.326 261.5,751.5C254.202,755.149 246.869,758.816 239.5,762.5C236.797,764.181 234.131,765.847 231.5,767.5C227.686,769.744 223.686,771.411 219.5,772.5C216.499,772.828 214.166,771.828 212.5,769.5C209.909,768.746 208.076,767.079 207,764.5C206.088,760.194 206.588,756.194 208.5,752.5C208.782,751.222 209.449,750.222 210.5,749.5C210.351,748.448 210.517,747.448 211,746.5C212.622,745.901 214.122,745.234 215.5,744.5C224.455,741.768 233.122,738.435 241.5,734.5C241.842,733.662 242.508,733.328 243.5,733.5C249.002,729.915 254.669,726.581 260.5,723.5L262.5,723.5C265.841,721.069 269.341,718.735 273,716.5C283.319,711.648 293.486,706.648 303.5,701.5C303.973,700.094 304.973,699.427 306.5,699.5C309.187,697.802 311.854,696.135 314.5,694.5C322.255,690.095 330.255,686.095 338.5,682.5C339.899,681.11 341.566,680.11 343.5,679.5C343.973,678.094 344.973,677.427 346.5,677.5L348.5,675.5C349.491,669.021 349.824,662.354 349.5,655.5L349.5,580.5C348.29,580.932 347.29,581.599 346.5,582.5C347.167,582.5 347.5,582.833 347.5,583.5C347.141,585.371 346.141,586.871 344.5,588C341.719,588.522 339.385,589.689 337.5,591.5C330.093,594.37 323.093,598.037 316.5,602.5C315.264,604.828 313.264,605.994 310.5,606C308.606,607.101 307.939,608.434 308.5,610C298.173,613.842 288.173,618.342 278.5,623.5C277.618,624.76 276.618,625.926 275.5,627C269.76,627.245 264.76,629.245 260.5,633C257.883,633.822 255.216,634.322 252.5,634.5C246.674,636.914 241.008,639.581 235.5,642.5C232.958,644.419 230.291,646.252 227.5,648C226.207,648.49 224.873,648.657 223.5,648.5C219.339,650.063 215.005,650.729 210.5,650.5C202.776,649.064 198.776,644.398 198.5,636.5ZM562.5,442.5C560.597,439.021 558.93,435.354 557.5,431.5L555.5,429.5C549.167,419.833 541.167,411.833 531.5,405.5L530.5,405.5C524.738,401.452 518.405,398.785 511.5,397.5C507.154,397.334 502.821,397.501 498.5,398C497.263,398.232 496.263,398.732 495.5,399.5C488.998,400.112 482.998,402.112 477.5,405.5C472.918,409.143 468.251,412.809 463.5,416.5C449.914,429.253 442.247,444.919 440.5,463.5C445.363,463.181 450.03,463.514 454.5,464.5C459.084,466.082 462.417,469.082 464.5,473.5C466.555,475.555 468.221,477.888 469.5,480.5C470.11,481.391 470.443,482.391 470.5,483.5C471.158,484.793 471.492,486.293 471.5,488C471.371,489.981 470.704,491.647 469.5,493C463.593,495.415 458.593,494.248 454.5,489.5C452.02,488.758 449.687,487.758 447.5,486.5C444.794,486.575 442.127,486.908 439.5,487.5C431.684,488.492 423.684,488.826 415.5,488.5C411.833,489.167 408.167,489.833 404.5,490.5C401.86,491.82 399.193,493.153 396.5,494.5C396.5,495.167 396.167,495.5 395.5,495.5C389.23,499.587 384.563,504.92 381.5,511.5C381.631,516.978 380.798,522.311 379,527.5C378.5,548.831 378.333,570.164 378.5,591.5L378.5,751.5C378.138,763.952 379.138,776.286 381.5,788.5C381.963,791.221 382.629,793.888 383.5,796.5C388.038,814.65 394.704,831.984 403.5,848.5C404.895,852.29 406.562,855.957 408.5,859.5C409.913,862.661 411.58,865.661 413.5,868.5C415.467,871.477 417.467,874.477 419.5,877.5C422.486,881.817 425.82,885.817 429.5,889.5C431.447,890.473 433.447,891.473 435.5,892.5C437.474,896.308 440.308,899.308 444,901.5C444.483,902.448 444.649,903.448 444.5,904.5C446.199,904.527 447.533,905.194 448.5,906.5C449.721,907.028 450.887,907.695 452,908.5C452.423,901.496 452.257,894.496 451.5,887.5C453.159,876.895 454.159,866.228 454.5,855.5C454.5,804.843 454.167,754.176 453.5,703.5C454.161,660.487 453.495,617.82 451.5,575.5C451.772,563.826 452.272,552.16 453,540.5C453.236,538.881 454.069,537.881 455.5,537.5C456.155,656.714 456.822,776.047 457.5,895.5L457.5,535.5C455.62,535.771 454.287,535.104 453.5,533.5C452.222,533.218 451.222,532.551 450.5,531.5L449.5,531.5C447.65,527.355 447.15,523.021 448,518.5C449.118,514.544 451.618,512.211 455.5,511.5C459.981,510.352 464.648,510.185 469.5,511C472.442,511.144 474.776,512.311 476.5,514.5C478.262,515.262 479.262,516.596 479.5,518.5C480.167,518.833 480.833,519.167 481.5,519.5C485.69,523.063 487.023,527.396 485.5,532.5L485.5,623.5L488.5,623.5C488.499,631.512 488.166,639.512 487.5,647.5C489.807,727.495 489.974,807.495 488,887.5C487.829,879.323 487.329,871.323 486.5,863.5C485.337,884.663 485.171,905.996 486,927.5C488.716,929.968 491.549,929.968 494.5,927.5C495.386,928.325 495.719,929.325 495.5,930.5L511.5,930.5C513.048,930.179 513.715,929.179 513.5,927.5L513.5,591.5C513.169,569.993 513.503,548.66 514.5,527.5C514.573,522.873 515.74,518.54 518,514.5C519.488,512.84 521.321,511.84 523.5,511.5C523.842,510.662 524.508,510.328 525.5,510.5L543.5,510.5C549.218,510.299 554.218,511.966 558.5,515.5C561.219,517.219 563.219,519.553 564.5,522.5C566.397,529.374 564.063,534.04 557.5,536.5C554.713,537.477 551.713,537.81 548.5,537.5L540.5,537.5L540.5,917.5C544.324,917.265 546.324,915.265 546.5,911.5L549.5,911.5C552.833,908.5 556.167,905.5 559.5,902.5C564.118,898.041 568.452,893.374 572.5,888.5C575.816,883.522 579.483,878.855 583.5,874.5C589.279,865.944 594.279,856.944 598.5,847.5C602.425,839.661 605.759,831.661 608.5,823.5C609.703,819.89 610.703,816.223 611.5,812.5C618.98,789.064 623.298,765.076 624.453,740.536C624.463,740.191 624.479,739.846 624.5,739.5C624.827,670.477 624.493,601.477 623.5,532.5C624.167,529.5 624.833,526.5 625.5,523.5C624.239,516.923 622.239,510.589 619.5,504.5C617.738,503.738 616.738,502.404 616.5,500.5C613.786,497.785 610.786,495.451 607.5,493.5C607.5,492.833 607.167,492.5 606.5,492.5C604.469,490.478 602.135,488.811 599.5,487.5C590.494,487.666 581.494,487.5 572.5,487C570.277,486.434 568.277,485.6 566.5,484.5C562.388,485.722 558.721,487.722 555.5,490.5C552.15,490.665 548.817,490.498 545.5,490C543.676,489.34 542.343,488.173 541.5,486.5C540.167,485.833 539.167,484.833 538.5,483.5C537.21,482.942 536.377,481.942 536,480.5C535.226,473.383 537.726,467.716 543.5,463.5L545.5,463.5C545.594,463.488 545.689,463.477 545.782,463.467C552.848,462.658 560.088,462.169 567.5,462C565.446,455.616 563.779,449.116 562.5,442.5Z"/>
    </g>
</svg>
