<?xml version="1.0" encoding="UTF-8" standalone="no"?>
<!DOCTYPE svg PUBLIC "-//W3C//DTD SVG 1.1//EN" "http://www.w3.org/Graphics/SVG/1.1/DTD/svg11.dtd">
<svg width="100%" height="100%" viewBox="0 0 1024 1024" version="1.1" xmlns="http://www.w3.org/2000/svg" xmlns:xlink="http://www.w3.org/1999/xlink" xml:space="preserve" xmlns:serif="http://www.serif.com/" style="fill-rule:evenodd;clip-rule:evenodd;stroke-linejoin:round;stroke-miterlimit:2;">
    <g transform="matrix(1.54824,0,0,1.54824,-279.64,-276.649)">
        <path d="M234.5,634.5C241.146,621.392 250.479,610.559 262.5,602C268.543,597.184 274.376,597.35 280,602.5C280.667,605.167 280.667,607.833 280,610.5C274.279,616.711 268.279,622.711 262,628.5C247.888,647.169 241.221,668.169 242,691.5C241.535,692.931 240.701,694.097 239.5,695C231.665,698.717 226.498,696.551 224,688.5C222.81,677.122 223.977,666.122 227.5,655.5C228.39,649.834 230.057,644.5 232.5,639.5C232.893,637.716 233.559,636.05 234.5,634.5ZM184.5,673.5C182.39,672.547 181.223,670.881 181,668.5C179.588,652.744 182.088,637.744 188.5,623.5C195.211,605.065 205.211,588.731 218.5,574.5C237.576,552.423 261.243,537.756 289.5,530.5C292.634,529.965 295.634,528.965 298.5,527.5C301.503,503.791 310.503,482.791 325.5,464.5C327.386,460.601 329.719,456.934 332.5,453.5C304.657,435.151 295.49,409.818 305,377.5C311.322,363.345 321.489,353.011 335.5,346.5C339.756,344.095 344.423,342.595 349.5,342C358.262,341.135 366.929,341.635 375.5,343.5C377.391,344.536 379.224,344.536 381,343.5C384.977,329.226 390.81,315.893 398.5,303.5C407.343,288.697 418.009,275.197 430.5,263C434.992,260.002 439.325,256.835 443.5,253.5C454.071,244.628 466.071,238.294 479.5,234.5C517.113,221.976 553.113,225.809 587.5,246C623.975,270.648 650.308,303.481 666.5,344.5C701.334,335.708 726.501,347.374 742,379.5C750.861,404.034 746.361,425.7 728.5,444.5C724.38,447.978 720.047,450.978 715.5,453.5L715.5,454.5C738.639,479.472 750.806,509.139 752,543.5C761.153,547.516 769.32,552.85 776.5,559.5C780.909,562.367 784.909,565.701 788.5,569.5C798.563,577.897 807.229,587.564 814.5,598.5C815.5,598.833 816.167,599.5 816.5,600.5C835.921,628.519 844.255,659.519 841.5,693.5C837.966,700.953 832.799,702.286 826,697.5C825.138,695.913 824.471,694.246 824,692.5C823.863,680.055 822.696,667.721 820.5,655.5C818.85,650.254 817.183,644.921 815.5,639.5C811.38,629.927 806.713,620.593 801.5,611.5C796.162,604.201 790.328,597.201 784,590.5C778.711,585.133 773.211,580.133 767.5,575.5C763.167,572.833 758.833,570.167 754.5,567.5C752.695,566.763 751.029,565.763 749.5,564.5C748.207,570.408 745.873,575.741 742.5,580.5C738.343,597.31 730.009,611.643 717.5,623.5C715.372,626.13 713.039,628.63 710.5,631C697.399,639.551 683.399,646.551 668.5,652L664,656.5C662.023,664.039 661.189,671.706 661.5,679.5C661.806,682.385 661.473,685.052 660.5,687.5C661.555,690.073 661.722,692.739 661,695.5C659.106,700.392 656.772,705.059 654,709.5C647.386,717.757 640.552,725.757 633.5,733.5C633.167,734.5 632.5,735.167 631.5,735.5C610.085,758.055 584.752,774.888 555.5,786C528.283,794.796 501.949,792.963 476.5,780.5C440.931,762.433 412.098,736.767 390,703.5C386.693,698.511 385.859,693.178 387.5,687.5C385.598,684.663 384.931,681.329 385.5,677.5C385.051,672.137 384.384,666.804 383.5,661.5C382.232,659.095 381.565,656.428 381.5,653.5C334.805,639.164 307.305,607.831 299,559.5C298.502,556.518 298.335,553.518 298.5,550.5C287.1,551.08 276.434,554.08 266.5,559.5C254.653,567.335 243.653,576.335 233.5,586.5C232.5,588.167 231.167,589.5 229.5,590.5C213.928,610.485 203.594,632.985 198.5,658C201.689,667.123 198.689,672.956 189.5,675.5C187.7,675.098 186.033,674.431 184.5,673.5ZM350.5,463.5C343.343,472.481 336.676,481.815 330.5,491.5C330.5,492.167 330.167,492.5 329.5,492.5C318.231,514.317 314.731,537.317 319,561.5C324.886,592.843 342.053,615.177 370.5,628.5C371.609,628.557 372.609,628.89 373.5,629.5C375.901,627.938 377.901,628.271 379.5,630.5C381.512,631.228 383.512,632.062 385.5,633C394.877,640.926 399.544,651.093 399.5,663.5C400.492,671.316 400.826,679.316 400.5,687.5C403.55,689.549 405.883,692.216 407.5,695.5C417.056,708.064 427.389,720.064 438.5,731.5C439.872,732.512 441.205,733.512 442.5,734.5C458.209,748.344 475.875,759.178 495.5,767C512.762,772.803 530.095,772.97 547.5,767.5L548.5,767.5C580.386,755.885 607.053,736.885 628.5,710.5C628.5,709.833 628.833,709.5 629.5,709.5C634.087,702.24 639.087,695.24 644.5,688.5C644.472,677.306 645.139,666.306 646.5,655.5C647.06,653.199 647.56,650.866 648,648.5C649.861,646.112 651.194,643.446 652,640.5C654.019,639.643 655.519,638.309 656.5,636.5C658.253,634.777 660.253,633.277 662.5,632C671.249,630.234 679.583,627.4 687.5,623.5C701.021,616.816 711.521,606.816 719,593.5C721.706,586.516 724.872,579.849 728.5,573.5C734.727,550.157 733.727,527.157 725.5,504.5C722.197,499 719.03,493.333 716,487.5C707.377,474.044 696.544,462.711 683.5,453.5C683.621,456.803 683.621,460.136 683.5,463.5C685.067,466.967 686.901,470.3 689,473.5C690.642,483.522 686.475,488.022 676.5,487C675.378,484.876 673.878,483.043 672,481.5C669.23,474.944 665.73,468.944 661.5,463.5C660.197,461.858 658.864,460.191 657.5,458.5C656.265,458.279 655.265,457.612 654.5,456.5C654.34,438.998 652.674,421.664 649.5,404.5C642.817,386.906 633.984,370.572 623,355.5C618.235,350.228 613.069,345.561 607.5,341.5C595.143,334.792 581.81,332.625 567.5,335C559.364,336.866 551.364,339.033 543.5,341.5C535.468,345.935 527.301,350.268 519,354.5C506.728,346.785 493.561,340.785 479.5,336.5C455.72,329.6 436.72,335.934 422.5,355.5C414.623,367.559 407.79,380.226 402,393.5C400.56,397.041 399.726,400.708 399.5,404.5C398.113,406.877 397.279,409.543 397,412.5C395.844,426.805 395.177,441.138 395,455.5C394.617,456.056 394.117,456.389 393.5,456.5C385.98,467.012 379.313,478.012 373.5,489.5C371.864,490.749 370.697,492.416 370,494.5C367.826,500.844 365.659,507.178 363.5,513.5C361.434,519.674 359.934,526.008 359,532.5C353.644,536.771 348.644,536.437 344,531.5C343.792,507.564 350.792,485.897 365,466.5C365.983,461.728 366.817,457.062 367.5,452.5C367.328,451.508 367.662,450.842 368.5,450.5C368.737,449.209 368.404,448.209 367.5,447.5C362.536,453.46 356.87,458.793 350.5,463.5ZM399.5,345.5C399.672,346.492 399.338,347.158 398.5,347.5C396.705,354.22 394.705,360.887 392.5,367.5L394.5,367.5C394.34,365.801 394.506,364.134 395,362.5C398.015,359.122 400.515,355.456 402.5,351.5C411.537,337.63 423.537,327.13 438.5,320C445.194,317.077 452.194,315.577 459.5,315.5C468.935,316.184 478.269,317.517 487.5,319.5C498.826,323.066 509.993,327.4 521,332.5C528.68,329.41 536.18,325.91 543.5,322C549.23,320.326 554.897,318.66 560.5,317C571.69,314.847 582.69,315.014 593.5,317.5C605.092,318.965 615.092,323.632 623.5,331.5C626.118,332.945 628.618,334.611 631,336.5C638.751,346.577 646.084,356.91 653,367.5C653.399,367.272 653.565,366.938 653.5,366.5C650.897,355.627 646.897,345.294 641.5,335.5C628.7,310.248 611.367,288.581 589.5,270.5C574.437,258.915 557.437,251.582 538.5,248.5C526.906,246.297 515.239,245.963 503.5,247.5C480.081,252.876 459.414,263.543 441.5,279.5C441.5,280.167 441.167,280.5 440.5,280.5C422.032,299.096 408.365,320.762 399.5,345.5ZM701.5,439.5C702.583,439.539 703.583,439.873 704.5,440.5C721.682,429.17 728.516,413.17 725,392.5C720.34,372.597 707.84,362.264 687.5,361.5C683.056,364.653 678.056,366.653 672.5,367.5C682.636,387.312 686.636,408.312 684.5,430.5C690.607,432.719 696.273,435.719 701.5,439.5ZM357.5,432.5C359.03,430.654 361.03,429.654 363.5,429.5C363.216,419.448 363.55,409.448 364.5,399.5C366.719,388.959 369.719,378.626 373.5,368.5C366.21,363.568 358.21,361.401 349.5,362C335.65,366.684 326.316,375.851 321.5,389.5C320.226,396.161 320.226,402.828 321.5,409.5C325.703,422.88 333.869,433.213 346,440.5C349.437,437.223 353.271,434.557 357.5,432.5ZM570.5,396.5C578.09,394.855 583.923,397.188 588,403.5C588.784,411.099 585.95,416.933 579.5,421C572.335,422.668 567.168,420.168 564,413.5C560.626,405.598 562.792,399.931 570.5,396.5ZM467.5,396.5C482.188,395.663 487.022,401.996 482,415.5C476.463,422.22 470.463,422.887 464,417.5C458.362,409.094 459.529,402.094 467.5,396.5ZM447.5,444.5C428.693,428.22 424.193,408.554 434,385.5C448.093,366.302 466.26,360.969 488.5,369.5C497.914,372.458 506.414,377.124 514,383.5C517.59,395.582 513.09,400.415 500.5,398C495.565,395.394 490.898,392.394 486.5,389C472.771,382.614 460.771,384.78 450.5,395.5C445.178,409.362 448.511,420.862 460.5,430C465.376,432.459 470.376,434.625 475.5,436.5C486.411,427.765 498.411,425.431 511.5,429.5C516.954,430.227 521.62,432.56 525.5,436.5C542.342,423.432 559.342,423.432 576.5,436.5C596.671,430.142 604.337,416.809 599.5,396.5C594.332,388.583 586.999,384.916 577.5,385.5L575.5,385.5C571.681,385.605 568.014,386.438 564.5,388C558.009,391.078 551.675,394.412 545.5,398C535.008,398.833 530.842,394 533,383.5C542.797,374.519 554.297,369.185 567.5,367.5C590.53,361.93 607.697,369.597 619,390.5C625.22,411.121 620.72,428.954 605.5,444C603.595,445.421 601.595,446.588 599.5,447.5C595.802,450.633 591.468,452.633 586.5,453.5C591.417,461.67 596.584,469.67 602,477.5C611.614,493.626 614.781,510.96 611.5,529.5C609.615,536.153 606.948,542.486 603.5,548.5C614.211,560.843 618.044,575.177 615,591.5C606.999,615.667 590.833,631.667 566.5,639.5C565.329,640.345 563.995,641.011 562.5,641.5C536.865,650.575 511.198,650.742 485.5,642C483.934,641.392 482.6,640.558 481.5,639.5C457.082,630.584 441.582,613.584 435,588.5C432.513,575.472 434.847,563.472 442,552.5C443.745,550.251 445.912,548.584 448.5,547.5C442.883,538.705 440.216,529.038 440.5,518.5C439.888,507.051 442.221,496.384 447.5,486.5C450.955,478.263 455.455,470.597 461,463.5C465.661,456.472 463.828,452.305 455.5,451C452.645,448.969 449.978,446.803 447.5,444.5ZM576.5,479.5C575.595,473.165 574.095,466.832 572,460.5C565.628,448.399 555.795,444.065 542.5,447.5C537.391,451.563 531.724,454.896 525.5,457.5C524.261,457.058 523.261,456.391 522.5,455.5C518.388,453.272 514.388,450.772 510.5,448C504.869,446.236 499.202,446.069 493.5,447.5C482.291,454.433 478.291,464.433 481.5,477.5C459.858,493.4 454.858,513.4 466.5,537.5C506.67,537.168 546.67,537.501 586.5,538.5L587.5,538.5C589.605,533.284 591.438,527.95 593,522.5C595.418,504.892 589.918,490.559 576.5,479.5ZM582.5,608.5C582.5,607.833 582.833,607.5 583.5,607.5C595.451,596.36 598.951,583.027 594,567.5C591.969,564.645 589.803,561.978 587.5,559.5C586.527,559.013 585.527,558.513 584.5,558C545.167,557.333 505.833,557.333 466.5,558C465.473,558.513 464.473,559.013 463.5,559.5C457.519,564.795 454.186,571.462 453.5,579.5C457.135,599.585 468.468,613.419 487.5,621C521.49,633.725 553.157,629.558 582.5,608.5ZM511.5,484.5C505.937,481.8 500.77,478.467 496,474.5C493.296,468.921 494.13,464.088 498.5,460C503.239,459.274 507.905,459.607 512.5,461C517.577,463.58 522.244,466.747 526.5,470.5C531.769,466.406 537.436,462.906 543.5,460C547.5,459.333 551.5,459.333 555.5,460C560.155,462.897 561.655,467.063 560,472.5C559.535,473.931 558.701,475.097 557.5,476C547.5,481.667 537.5,487.333 527.5,493C525.465,493.599 523.799,493.099 522.5,491.5C518.628,489.403 514.961,487.069 511.5,484.5Z"/>
    </g>
</svg>
