<?xml version="1.0" encoding="UTF-8" standalone="no"?>
<!DOCTYPE svg PUBLIC "-//W3C//DTD SVG 1.1//EN" "http://www.w3.org/Graphics/SVG/1.1/DTD/svg11.dtd">
<svg width="100%" height="100%" viewBox="0 0 1024 1024" version="1.1" xmlns="http://www.w3.org/2000/svg" xmlns:xlink="http://www.w3.org/1999/xlink" xml:space="preserve" xmlns:serif="http://www.serif.com/" style="fill-rule:evenodd;clip-rule:evenodd;stroke-linejoin:round;stroke-miterlimit:2;">
    <g transform="matrix(1.55393,0,0,1.55393,-289.845,-321.61)">
        <path d="M774.5,495.5C770.065,507.398 770.565,519.065 776,530.5C786.168,545.343 797.834,559.01 811,571.5C830.384,594.638 841.384,621.305 844,651.5C842.014,657.74 837.848,660.24 831.5,659C811.446,645.774 792.113,631.608 773.5,616.5C755.115,602.281 739.282,585.615 726,566.5C708.514,538.605 704.348,508.939 713.5,477.5C716.614,466.272 721.614,455.939 728.5,446.5C735.901,437.594 743.901,429.094 752.5,421C764.882,410.95 777.549,401.283 790.5,392C804.333,383.918 818,375.584 831.5,367C839.816,364.981 844.483,368.148 845.5,376.5C842.246,398.519 835.746,419.519 826,439.5C814.962,453.538 802.295,465.872 788,476.5C786.039,479.463 783.706,482.129 781,484.5C778.807,488.23 776.64,491.897 774.5,495.5ZM738.5,464.5C734.941,471.616 731.941,478.95 729.5,486.5C723.035,511.037 726.869,534.037 741,555.5C754.418,574.919 770.585,591.753 789.5,606C800.6,613.214 810.933,621.381 820.5,630.5C817.996,618.227 813.163,606.56 806,595.5C793.747,579.909 780.747,564.909 767,550.5C751.534,529.102 749.367,506.436 760.5,482.5C762.739,478.36 765.239,474.36 768,470.5C780.093,457.806 792.76,445.806 806,434.5C813.891,422.479 819.225,409.479 822,395.5C800.346,406.998 780.513,420.998 762.5,437.5C753.757,445.905 745.757,454.905 738.5,464.5ZM669.5,361.5C684.125,371.624 696.625,383.958 707,398.5C709.866,403.936 712.033,409.603 713.5,415.5C713.069,420.501 710.236,423.168 705,423.5C701.575,423.081 698.909,421.414 697,418.5C694.946,411.992 691.946,405.992 688,400.5C657.701,369.098 620.867,349.931 577.5,343C540.647,338.452 503.647,335.786 466.5,335C464.93,333.603 463.596,332.103 462.5,330.5C461.335,322 465.001,318 473.5,318.5C509.308,319.05 544.975,321.55 580.5,326C612.921,331.221 642.588,343.054 669.5,361.5ZM713.5,335.5C733.303,346.401 745.303,363.068 749.5,385.5C749.324,390.011 746.991,392.678 742.5,393.5C739.495,393.747 736.995,392.747 735,390.5C732.673,384.51 730.339,378.51 728,372.5C724.556,365.094 719.39,359.26 712.5,355C706.922,352.294 701.422,349.461 696,346.5C693.839,342.152 694.005,337.985 696.5,334C698.199,333.042 700.033,332.542 702,332.5C705.925,333.198 709.758,334.198 713.5,335.5ZM741.5,303.5C744.978,303.184 748.312,303.684 751.5,305C768.727,318.606 780.061,336.106 785.5,357.5C785.22,363.613 782.053,366.946 776,367.5C773.077,367.205 770.743,365.871 769,363.5C764.587,344.008 754.587,328.008 739,315.5C738.333,313.167 738.333,310.833 739,308.5C740.094,306.922 740.928,305.255 741.5,303.5ZM682.5,471.5C673.786,464.721 664.953,458.054 656,451.5C647.513,461.809 639.513,472.476 632,483.5C618.644,512.683 621.644,540.016 641,565.5C646.752,571.184 652.419,576.85 658,582.5C667.139,573.208 675.639,563.541 683.5,553.5C698.577,550.428 702.41,555.761 695,569.5C690.091,577.079 684.425,584.079 678,590.5C660.454,607.38 642.287,623.547 623.5,639C594.879,658.314 563.879,672.147 530.5,680.5C475.946,692.11 422.279,688.943 369.5,671C340.403,658.629 313.403,642.963 288.5,624C255.213,598.058 223.713,569.891 194,539.5C190.918,536.341 188.584,532.675 187,528.5C185.959,523.56 186.626,518.894 189,514.5C222.773,483.395 255.94,451.562 288.5,419C302.546,407.286 316.879,395.952 331.5,385C356.274,369.469 382.941,358.969 411.5,353.5C431.404,350.722 451.404,349.888 471.5,351C504.789,354.494 538.122,357.494 571.5,360C597.445,362.233 621.778,369.566 644.5,382C659.091,391.924 670.925,404.424 680,419.5C687.394,434.207 693.894,449.207 699.5,464.5C699.833,469.005 697.833,471.839 693.5,473C689.69,473.587 686.023,473.087 682.5,471.5ZM436.5,369.5C419.402,371.106 402.735,374.94 386.5,381C416.934,407.338 437.101,440.171 447,479.5C456.625,514.043 454.959,548.043 442,581.5C428.216,615.283 404.05,638.116 369.5,650C374.387,652.277 379.387,654.277 384.5,656C439.587,672.886 494.587,672.553 549.5,655C538.631,643.8 528.131,632.3 518,620.5C482.682,575.598 474.016,525.932 492,471.5C505.521,439.832 524.021,411.499 547.5,386.5C511.864,372.418 474.864,366.752 436.5,369.5ZM589.5,381.5C589.281,382.675 589.614,383.675 590.5,384.5C615.311,396.733 638.644,411.233 660.5,428C661.332,428.688 661.998,428.521 662.5,427.5C643.914,403.284 619.58,387.951 589.5,381.5ZM424.5,578.5C429.688,566.091 433.188,553.091 435,539.5C437.38,508.734 432.046,479.401 419,451.5C407.6,425.837 390.433,405.004 367.5,389C356.047,392.393 345.713,397.893 336.5,405.5C332.388,407.728 328.388,410.228 324.5,413C317.686,419.237 310.686,425.237 303.5,431C275.025,458.398 246.358,485.564 217.5,512.5C229.152,513.333 240.819,513.833 252.5,514C257.881,519.766 257.548,525.433 251.5,531C238.924,531.821 226.424,531.655 214,530.5C213.333,531.167 213.333,531.833 214,532.5C251.784,572.643 293.951,607.143 340.5,636C346.882,636.689 353.215,636.355 359.5,635C390.361,626.632 412.028,607.799 424.5,578.5ZM313.5,456.5C332.119,455.722 344.619,464.055 351,481.5C353.872,502.937 345.039,516.77 324.5,523C304.183,524.354 291.349,515.187 286,495.5C284.372,474.722 293.539,461.722 313.5,456.5ZM316.5,473.5C313.074,474.465 309.907,476.132 307,478.5C301.535,487.653 302.701,495.82 310.5,503C323.769,508.534 331.769,504.368 334.5,490.5C333.648,479.313 327.648,473.647 316.5,473.5ZM611.5,420.5C597.699,434.798 585.199,450.132 574,466.5C555.482,498.836 552.482,532.502 565,567.5C576.581,589.672 591.748,609.005 610.5,625.5C622.13,615.872 633.464,605.872 644.5,595.5C638.519,588.352 632.353,581.352 626,574.5C618.574,564.58 613.241,553.58 610,541.5C603.452,512.083 609.119,485.417 627,461.5C629.452,452.851 632.286,444.351 635.5,436C627.082,431.403 619.082,426.236 611.5,420.5ZM563.5,396.5C555.626,406.225 547.459,415.891 539,425.5C531.837,435.156 525.17,445.156 519,455.5C499.749,488.256 495.082,522.922 505,559.5C517.881,594.704 538.881,624.038 568,647.5C576.663,644.252 584.829,640.085 592.5,635C584.347,625.511 576.18,616.011 568,606.5C560.311,595.793 553.645,584.459 548,572.5C534.623,531.78 538.623,492.78 560,455.5C569.869,440.13 580.702,425.463 592.5,411.5C592.023,410.522 591.357,409.689 590.5,409C581.978,403.738 572.978,399.571 563.5,396.5ZM581.5,706.5C569.417,709.688 557.417,713.188 545.5,717C538.141,718.81 533.808,715.976 532.5,708.5C532.719,703.95 535.052,701.283 539.5,700.5C555.381,696.931 571.048,692.431 586.5,687C603.805,681.666 619.139,673 632.5,661C649.028,644.138 665.862,627.638 683,611.5C685.654,606.367 689.154,601.867 693.5,598C697.155,595.665 700.321,596.165 703,599.5C704.403,605.661 703.07,611.328 699,616.5C681.506,635.994 663.339,654.827 644.5,673C625.459,687.854 604.459,699.021 581.5,706.5ZM730.5,636.5C733.396,642.358 732.896,648.025 729,653.5L721.5,661L691.5,679C683.833,686.333 676.167,693.667 668.5,701C646.612,718.106 621.945,729.606 594.5,735.5C587.956,733.969 585.789,729.969 588,723.5C588.66,721.676 589.827,720.343 591.5,719.5C627.601,711.288 657.601,693.122 681.5,665C688.311,661.093 695.311,657.427 702.5,654C710.116,650.051 716.116,644.384 720.5,637C723.753,635.18 727.087,635.013 730.5,636.5ZM746.5,663.5C750.986,662.994 754.819,664.328 758,667.5C758.755,670.303 758.422,672.97 757,675.5C720.923,725.394 672.589,756.727 612,769.5C607.281,768.947 604.781,766.28 604.5,761.5C605.006,758.5 606.506,756.167 609,754.5C639.877,746.639 668.377,733.806 694.5,716C714.095,700.573 731.428,683.073 746.5,663.5Z"/>
    </g>
</svg>
