<?xml version="1.0" encoding="UTF-8" standalone="no"?>
<!DOCTYPE svg PUBLIC "-//W3C//DTD SVG 1.1//EN" "http://www.w3.org/Graphics/SVG/1.1/DTD/svg11.dtd">
<svg width="100%" height="100%" viewBox="0 0 1024 1024" version="1.1" xmlns="http://www.w3.org/2000/svg" xmlns:xlink="http://www.w3.org/1999/xlink" xml:space="preserve" xmlns:serif="http://www.serif.com/" style="fill-rule:evenodd;clip-rule:evenodd;stroke-linejoin:round;stroke-miterlimit:2;">
    <g transform="matrix(1.22489,0,0,1.22489,-92.501,-101.239)">
        <path d="M591.5,703.5C598.223,711.255 604.723,719.255 611,727.5C620.864,744.149 624.864,762.149 623,781.5C620.869,787.293 616.702,790.46 610.5,791C579.328,791.721 548.162,791.554 517,790.5C495.261,795.149 474.428,792.649 454.5,783C425.491,761.472 416.158,733.306 426.5,698.5C421.312,697.904 416.646,699.404 412.5,703C408.642,705.358 405.642,708.525 403.5,712.5C417.552,731.155 424.052,752.155 423,775.5C421.545,782.939 417.378,788.105 410.5,791C348.167,791.667 285.833,791.667 223.5,791C221,789.167 218.5,787.333 216,785.5C195.738,761.901 174.738,738.901 153,716.5C149.615,712.783 146.615,708.783 144,704.5C144.971,715.847 144.637,727.18 143,738.5C134.995,768.518 115.828,780.351 85.5,774C75.527,767.743 73.027,759.243 78,748.5C80.536,745.234 83.869,743.9 88,744.5C93.533,745.579 99.033,746.412 104.5,747C110.717,742.401 114.217,736.234 115,728.5C115.667,718.833 115.667,709.167 115,699.5C109.367,671.103 105.867,642.436 104.5,613.5C107.316,548.576 131.316,493.243 176.5,447.5C202.44,418.578 233.773,397.578 270.5,384.5C323.378,364.203 376.211,364.536 429,385.5C429.667,383.167 429.667,380.833 429,378.5C417.368,334.478 419.368,291.145 435,248.5C439.966,236.72 446.8,226.22 455.5,217C472.148,206.048 489.148,205.715 506.5,216C527.219,232.93 546.053,251.764 563,272.5C585.211,299.257 605.711,327.257 624.5,356.5C631.614,358.927 638.947,359.927 646.5,359.5C649.149,350.575 651.649,341.575 654,332.5C658.846,304.397 664.179,276.397 670,248.5C674.038,235.589 681.205,224.756 691.5,216C715.111,204.304 735.611,208.47 753,228.5C770.439,253.405 777.106,281.071 773,311.5C768.257,356.394 756.59,399.394 738,440.5L735.5,443C815.233,544.614 873.899,657.781 911.5,782.5C911.649,786.035 910.316,788.868 907.5,791C881.33,791.83 855.33,791.663 829.5,790.5C828.078,790.291 826.745,789.791 825.5,789C800.269,759.602 772.935,732.435 743.5,707.5C707.541,679.435 668.208,656.935 625.5,640C620.979,638.911 616.479,637.745 612,636.5C609.686,639.95 607.853,643.617 606.5,647.5C602.124,666.336 597.124,685.003 591.5,703.5ZM545.5,731.5C541.645,741.06 537.979,750.727 534.5,760.5C553.822,761.5 573.155,761.833 592.5,761.5C590.869,747.404 584.869,735.571 574.5,726C569.65,722.637 564.983,719.137 560.5,715.5C557.628,714.474 555.128,712.808 553,710.5C550.792,717.626 548.292,724.626 545.5,731.5ZM713.5,236.5C705.991,240.85 700.824,247.183 698,255.5C692.463,280.386 687.463,305.386 683,330.5C679.499,342.506 675.999,354.506 672.5,366.5C682.597,370.033 692.597,373.866 702.5,378C710.741,380.555 714.574,386.055 714,394.5C712.148,399.554 709.315,403.888 705.5,407.5C709.485,411.985 713.651,416.318 718,420.5C726.746,395.26 734.079,369.593 740,343.5C744.617,320.335 745.617,297.001 743,273.5C740.813,260.958 735.313,250.125 726.5,241C722.749,237.79 718.416,236.29 713.5,236.5ZM354.5,712.5C348.737,728.622 343.07,744.789 337.5,761C356.164,761.5 374.83,761.667 393.5,761.5C392.633,755.365 391.133,749.365 389,743.5C382.667,727.329 371.167,716.996 354.5,712.5ZM192.5,470.5C163.663,502.171 144.83,539.171 136,581.5C131.892,602.118 132.892,622.452 139,642.5C147.562,660.633 157.895,677.633 170,693.5C190.227,716.233 211.06,738.566 232.5,760.5C257.491,761.5 282.491,761.833 307.5,761.5C315.61,739.737 323.11,717.737 330,695.5C333.333,687.5 336.667,679.5 340,671.5C342.479,663.672 344.145,655.672 345,647.5C347.845,621.05 340.845,597.716 324,577.5C318.508,568.622 319.675,560.789 327.5,554C336.904,550.612 344.404,553.112 350,561.5C375.46,600.633 380.293,642.3 364.5,686.5C370.573,688.95 376.073,692.284 381,696.5C393.31,677.598 410.81,669.264 433.5,671.5C438.552,650.085 444.052,628.751 450,607.5C451.892,603.942 454.725,601.442 458.5,600C471.506,598.015 478.006,603.515 478,616.5C467.781,648.49 458.781,680.823 451,713.5C449.465,723.931 450.798,733.931 455,743.5C464.245,758.705 477.745,765.205 495.5,763C500.124,762.379 503.291,759.879 505,755.5C519.064,721.462 534.564,688.128 551.5,655.5C555.053,648.063 558.886,640.729 563,633.5C564.542,627.662 566.542,621.995 569,616.5C574.583,612.46 580.749,609.626 587.5,608C603.279,605.049 618.612,606.549 633.5,612.5C691.38,635.423 743.047,667.923 788.5,710C806.319,726.652 823.652,743.819 840.5,761.5C850.812,762.499 861.145,762.832 871.5,762.5L872.5,762.5C873.391,761.739 874.058,760.739 874.5,759.5C842.351,664.533 797.518,576.2 740,494.5C712.797,456.287 681.63,421.454 646.5,390C645.668,389.312 645.002,389.479 644.5,390.5C649.479,400.929 653.979,411.595 658,422.5C658.667,425.5 658.667,428.5 658,431.5C653.178,443.012 645.678,445.346 635.5,438.5C601.437,363.95 554.771,298.45 495.5,242C486.42,235.158 478.253,235.991 471,244.5C460.75,259.238 454.417,275.571 452,293.5C446.701,333.034 452.035,371.034 468,407.5C494.913,466.886 541.08,496.386 606.5,496L610,499.5C614.058,510.204 610.892,517.704 600.5,522C559.879,524.513 523.879,512.846 492.5,487C471.918,469.087 455.918,447.754 444.5,423C433.432,417.468 422.099,412.468 410.5,408C368.423,393.901 326.423,394.068 284.5,408.5C249.213,422.156 218.546,442.822 192.5,470.5ZM301.5,433.5C311.873,432.171 317.207,436.671 317.5,447C317.222,452.185 315.222,456.518 311.5,460C256.794,480.373 219.961,518.206 201,573.5C195.174,578.082 189.008,578.582 182.5,575C180.383,573.269 178.883,571.102 178,568.5C177.039,561.664 177.705,554.997 180,548.5C197.823,505.682 226.657,472.516 266.5,449C277.806,442.673 289.473,437.506 301.5,433.5ZM500.5,347.5C506.369,347.066 511.202,349.066 515,353.5C526.955,389.747 547.788,419.58 577.5,443C584.893,448.365 592.893,452.698 601.5,456C611.304,463.346 611.97,471.512 603.5,480.5C599.95,483.28 595.95,484.114 591.5,483C564.227,471.616 541.727,454.116 524,430.5C507.779,410.033 496.613,387.033 490.5,361.5C490.95,354.543 494.284,349.877 500.5,347.5ZM713.5,553.5C729.074,552.903 735.574,560.236 733,575.5C728.538,583.979 721.704,586.813 712.5,584C702.72,578.584 700.22,570.751 705,560.5C707.441,557.546 710.275,555.213 713.5,553.5Z"/>
    </g>
</svg>
