<?xml version="1.0" encoding="UTF-8" standalone="no"?>
<!DOCTYPE svg PUBLIC "-//W3C//DTD SVG 1.1//EN" "http://www.w3.org/Graphics/SVG/1.1/DTD/svg11.dtd">
<svg width="100%" height="100%" viewBox="0 0 1024 1024" version="1.1" xmlns="http://www.w3.org/2000/svg" xmlns:xlink="http://www.w3.org/1999/xlink" xml:space="preserve" xmlns:serif="http://www.serif.com/" style="fill-rule:evenodd;clip-rule:evenodd;stroke-linejoin:round;stroke-miterlimit:2;">
    <g transform="matrix(1.31439,0,0,1.31439,-129.098,-165.401)">
        <path d="M848.5,627.5C847.261,630.589 845.761,633.589 844,636.5C822.503,668.663 794.67,693.83 760.5,712C728.686,726.163 695.353,733.83 660.5,735C548.833,735.667 437.167,735.667 325.5,735C319.417,732.585 314.917,728.418 312,722.5C308.219,707.562 313.386,697.062 327.5,691C335.877,688.56 344.211,686.06 352.5,683.5C340.967,677.233 330.301,669.733 320.5,661C294.933,634.693 279.933,603.193 275.5,566.5C266.853,567.274 258.187,568.108 249.5,569C227.193,575.242 204.526,579.909 181.5,583C158.665,586.194 136.999,582.694 116.5,572.5C96.89,557.061 93.057,538.394 105,516.5C112.7,508.566 121.867,503.066 132.5,500C150.143,497.602 167.809,495.269 185.5,493C205.189,487.659 224.522,481.326 243.5,474C250.386,470.726 257.053,467.226 263.5,463.5C265.258,463.123 266.925,462.456 268.5,461.5C273.498,442.833 280.831,425.167 290.5,408.5C301.103,392.333 312.937,377 326,362.5C357.81,329.505 396.31,308.338 441.5,299C505.782,287.577 563.115,302.243 613.5,343C637.539,341.89 661.539,342.557 685.5,345C740.3,350.742 787.3,372.576 826.5,410.5C833.831,418.666 840.998,427 848,435.5C861.18,453.534 870.013,473.534 874.5,495.5C881.376,537.023 875.543,576.69 857,614.5C854.64,619.24 851.807,623.574 848.5,627.5ZM557.5,656.5C550.881,659.622 546.047,664.622 543,671.5C541.577,687.785 541.077,704.118 541.5,720.5L558.5,720.5C558.333,707.496 558.5,694.496 559,681.5C559.163,679.324 559.996,677.491 561.5,676C566.614,673.207 570.447,674.374 573,679.5C573.5,693.163 573.667,706.829 573.5,720.5L589.5,720.5C589.667,706.829 589.5,693.163 589,679.5C585.358,662.349 574.858,654.682 557.5,656.5ZM381.5,692.5C365.692,696.618 349.692,700.451 333.5,704C329.162,706.333 326.828,710 326.5,715C326.598,717.873 327.932,719.873 330.5,721C351.5,721.167 372.5,721.333 393.5,721.5C414.883,721.494 436.05,720.828 457,719.5C457.485,713.978 455.318,709.811 450.5,707C427.212,703.376 404.212,698.543 381.5,692.5ZM691.5,654.5C681.191,657.31 674.691,663.977 672,674.5C671.167,689.511 671.334,704.511 672.5,719.5C678.428,718.323 684.428,717.656 690.5,717.5C691.585,705.151 691.585,692.818 690.5,680.5C690.719,679.062 691.219,677.729 692,676.5C697.305,673.427 701.638,674.427 705,679.5C705.5,690.828 705.667,702.162 705.5,713.5C710.359,712.27 715.192,710.936 720,709.5C720.865,697.457 720.532,685.457 719,673.5C714.295,660.618 705.128,654.285 691.5,654.5ZM274.5,473.5C274.047,474.458 273.381,475.292 272.5,476C230.066,498.942 184.733,511.609 136.5,514C117.093,518.673 109.926,530.506 115,549.5C120.854,558.858 129.354,564.358 140.5,566C160.172,567.492 179.838,567.159 199.5,565C220.09,560.282 240.757,555.949 261.5,552C294.873,551.965 328.206,551.298 361.5,550C369.455,543.214 369.455,536.214 361.5,529C332.444,510.479 303.444,491.979 274.5,473.5ZM274.5,493.5C276.074,493.937 277.241,494.937 278,496.5C279.934,499.034 281.268,501.701 282,504.5C244.689,542.804 199.522,556.304 146.5,545C142.681,542.526 141.181,539.026 142,534.5C142.5,532.667 143.667,531.5 145.5,531C166.833,530.667 188.167,530.333 209.5,530C223.071,528.047 235.405,523.047 246.5,515C255.734,507.587 265.067,500.42 274.5,493.5ZM693.5,548.5C689.677,553.743 685.511,553.743 681,548.5C680.667,536.167 680.333,523.833 680,511.5C675.519,438.67 643.685,381.503 584.5,340C567.68,328.758 549.347,321.091 529.5,317C476.081,304.169 425.748,311.502 378.5,339C333.086,368.772 301.419,409.439 283.5,461C310.564,479.061 337.898,496.727 365.5,514C373.351,518.845 378.517,525.678 381,534.5C383.987,550.553 377.82,560.886 362.5,565.5C338.855,566.449 315.189,566.782 291.5,566.5C295.255,611.174 316.589,644.674 355.5,667C387.851,679.337 421.185,688.004 455.5,693C469.416,698.004 474.416,707.504 470.5,721.5C489.512,721.833 508.512,721.5 527.5,720.5C526.35,705.211 526.183,689.878 527,674.5C529.067,659.175 537.234,648.675 551.5,643C580.082,636.871 597.582,648.038 604,676.5C604.5,690.829 604.667,705.163 604.5,719.5C621.659,720.497 638.992,720.83 656.5,720.5C656.053,702.111 656.553,683.778 658,665.5C659.139,661.888 660.806,658.554 663,655.5C679.207,637.792 697.707,634.959 718.5,647C734.034,661.104 739.7,678.604 735.5,699.5C735.077,701.781 735.744,703.448 737.5,704.5C742.89,702.979 748.223,701.146 753.5,699C808.763,668.664 843.93,622.831 859,561.5C868.95,516.658 860.283,475.991 833,439.5C808.81,409.979 778.976,388.146 743.5,374C705.819,361.845 667.152,356.512 627.5,358C631,361.796 634.833,365.296 639,368.5C671.012,407.318 689.512,451.985 694.5,502.5C694.83,518.009 694.496,533.342 693.5,548.5ZM463.5,409.5C477.058,407.64 489.725,410.14 501.5,417C522.168,433.846 526.668,454.346 515,478.5C503.361,496.391 486.861,503.891 465.5,501C441.063,494.637 428.73,478.804 428.5,453.5C430.171,430.8 441.838,416.133 463.5,409.5ZM465.5,424.5C458.415,427.077 452.581,431.41 448,437.5C441.493,450.25 442.16,462.584 450,474.5C462.382,487.828 476.548,489.994 492.5,481C505.084,469.427 508.25,455.594 502,439.5C492.983,427.208 480.816,422.208 465.5,424.5ZM675.5,557.5C682.95,558.116 686.117,562.116 685,569.5C680.829,575.729 676.163,576.062 671,570.5C669.243,564.825 670.743,560.492 675.5,557.5Z"/>
    </g>
</svg>
