<?xml version="1.0" encoding="UTF-8" standalone="no"?>
<!DOCTYPE svg PUBLIC "-//W3C//DTD SVG 1.1//EN" "http://www.w3.org/Graphics/SVG/1.1/DTD/svg11.dtd">
<svg width="100%" height="100%" viewBox="0 0 1024 1024" version="1.1" xmlns="http://www.w3.org/2000/svg" xmlns:xlink="http://www.w3.org/1999/xlink" xml:space="preserve" xmlns:serif="http://www.serif.com/" style="fill-rule:evenodd;clip-rule:evenodd;stroke-linejoin:round;stroke-miterlimit:2;">
    <g transform="matrix(1.55191,0,0,1.55191,-283.324,-300.012)">
        <path d="M289.5,385.5C272.805,385.805 256.138,385.472 239.5,384.5C214.381,397.696 195.881,391.363 184,365.5C179.136,344.394 186.636,329.56 206.5,321C227.222,315.464 242.388,322.297 252,341.5C252.996,345.431 253.496,349.431 253.5,353.5C253.567,359.078 252.734,364.411 251,369.5C270.427,368.673 289.927,368.173 309.5,368C313.84,360.317 318.174,352.651 322.5,345C291.745,300.108 296.411,259.442 336.5,223C361.353,206.74 387.687,204.074 415.5,215C424.674,219.751 433.341,225.251 441.5,231.5C460.949,224.61 480.949,220.277 501.5,218.5C536.183,215.551 569.849,220.551 602.5,233.5C605.644,228.522 609.644,224.355 614.5,221C654.101,199.852 688.935,206.019 719,239.5C734.936,259.776 740.436,282.442 735.5,307.5C733.075,321.516 727.075,333.683 717.5,344C722.154,351.474 726.154,359.307 729.5,367.5C744.155,368.666 758.822,368.833 773.5,368C765.389,341.555 774.722,324.889 801.5,318C818.805,317.234 831.638,324.401 840,339.5C845.583,357.333 841.417,372.499 827.5,385C816.172,392.838 804.172,394.171 791.5,389C788.958,387.23 786.291,385.73 783.5,384.5C770.193,385.298 756.859,385.798 743.5,386C755.287,402.648 759.787,421.148 757,441.5C753.357,466.438 743.524,488.438 727.5,507.5C731.75,513.665 735.75,519.998 739.5,526.5C753.822,527.666 768.155,527.833 782.5,527C788.632,509.105 800.965,501.771 819.5,505C839.988,513.489 845.154,527.656 835,547.5C824.951,559.514 812.451,563.014 797.5,558C791.93,554.219 787.263,549.553 783.5,544C771.833,543.333 760.167,543.333 748.5,544C758.256,564.266 765.422,585.433 770,607.5C776.952,640.543 781.952,673.877 785,707.5C789.518,743.362 781.184,775.695 760,804.5C735.08,832.768 704.247,842.935 667.5,835C652.108,829.419 639.441,820.252 629.5,807.5C614.353,790.887 603.019,771.887 595.5,750.5C592.011,742.128 589.011,733.795 586.5,725.5C570.055,739.263 552.722,751.929 534.5,763.5C533.162,765.67 531.328,767.336 529,768.5C528.667,785.5 528.333,802.5 528,819.5C523.909,826.681 518.909,827.348 513,821.5C512.667,820.5 512.333,819.5 512,818.5C511.379,802.113 511.379,785.779 512,769.5C507.5,765.667 503,761.833 498.5,758C485.31,749.776 472.518,741.097 460.125,731.961C459.923,731.833 459.715,731.679 459.5,731.5C455.043,730.213 451.21,727.88 448,724.5C447.129,731.111 445.629,737.444 443.5,743.5C439.376,760.571 432.376,776.238 422.5,790.5C417.94,798.393 412.274,805.393 405.5,811.5C391.67,826.916 374.337,835.749 353.5,838C332.884,838.689 314.218,833.022 297.5,821C286.543,812.215 277.21,802.048 269.5,790.5C259.432,774.673 253.598,757.34 252,738.5C251.064,680.053 259.731,623.053 278,567.5C281.31,559.898 284.81,552.398 288.5,545C274.488,544.167 260.488,544.334 246.5,545.5C245.408,548.094 243.741,550.261 241.5,552C236.533,555.317 231.199,557.817 225.5,559.5C205.008,561.662 191.175,552.995 184,533.5C180.364,510.298 189.864,495.131 212.5,488C233.249,486.752 247.083,495.919 254,515.5C254.499,519.486 254.666,523.486 254.5,527.5L292.5,527.5C295.044,527.896 297.211,527.229 299,525.5C302.667,519.833 306.333,514.167 310,508.5C310.579,507.072 310.412,505.738 309.5,504.5C300.891,494.211 293.891,482.877 288.5,470.5C281.868,454.84 279.035,438.506 280,421.5C282.203,408.108 287.369,396.108 295.5,385.5L289.5,385.5ZM235.5,367.5C242.775,353.502 239.775,342.335 226.5,334C213.393,330.803 203.893,335.303 198,347.5C195.283,360.9 200.116,370.4 212.5,376C221.632,377.789 229.299,375.289 235.5,368.5L235.5,367.5ZM555.5,243.5C497.258,233.779 444.591,246.612 397.5,282C384.925,292.573 373.759,304.406 364,317.5C353.905,334.019 344.572,351.019 336,368.5C327.667,380.167 319.333,391.833 311,403.5C303.706,416.329 301.539,429.996 304.5,444.5C308.548,462.265 316.548,477.931 328.5,491.5C346.508,510.843 364.175,530.509 381.5,550.5C387.472,556.807 393.472,563.14 399.5,569.5C409.997,582.163 421.663,593.663 434.5,604C443.874,610.52 453.874,615.686 464.5,619.5C514.551,635.475 561.885,629.809 606.5,602.5C631.146,578.186 655.146,553.186 678.5,527.5C682.823,521.845 687.49,516.512 692.5,511.5C699.831,503.334 706.998,495 714,486.5C722.386,475.393 728.386,463.06 732,449.5C736.833,431.168 734.499,413.835 725,397.5C714.055,383.057 704.555,367.723 696.5,351.5C683.102,323.425 664.102,299.758 639.5,280.5C614.157,262.376 586.157,250.043 555.5,243.5ZM473.5,525.5C464.236,513.987 456.736,501.32 451,487.5C448.66,471.186 450.994,455.519 458,440.5C467.393,420.111 481.893,404.611 501.5,394C519.995,387.23 536.995,389.897 552.5,402C561.884,409.871 569.551,419.037 575.5,429.5C575.833,430.167 576.167,430.833 576.5,431.5C581.214,441.807 585.048,452.473 588,463.5C588.667,469.5 588.667,475.5 588,481.5C587.299,485.109 586.132,488.442 584.5,491.5C581.362,499.774 577.695,507.774 573.5,515.5C563.493,533.348 548.16,542.848 527.5,544C509.625,545.962 493.292,541.962 478.5,532C476.235,530.242 474.568,528.075 473.5,525.5ZM547.5,428.5C543.693,424.865 539.693,421.365 535.5,418C524.354,411.818 513.354,412.151 502.5,419C487.525,431.091 477.691,446.591 473,465.5C469.011,478.35 473.177,487.183 485.5,492C499.485,493.531 506.819,487.364 507.5,473.5C504.15,473.665 500.817,473.498 497.5,473C491.205,471.041 487.372,466.874 486,460.5C483.281,452.401 486.115,448.401 494.5,448.5C510.455,450.717 526.455,451.05 542.5,449.5C545.625,449.435 548.625,449.935 551.5,451C555.614,467.729 548.947,474.896 531.5,472.5L528.5,472.5C528.833,474.5 529.167,476.5 529.5,478.5C534.356,492.087 543.689,496.254 557.5,491C565.203,485.029 567.703,477.196 565,467.5C561.757,453.247 555.924,440.247 547.5,428.5ZM517.5,500.5C516.409,503.428 514.409,505.594 511.5,507C507.348,509.079 503.014,510.579 498.5,511.5C495.813,511.336 493.146,511.503 490.5,512C507.497,524.558 525.163,525.725 543.5,515.5C544.6,514.442 545.934,513.608 547.5,513C536.421,512.451 526.754,508.618 518.5,501.5C518.5,500.833 518.167,500.5 517.5,500.5ZM590.5,364.5C599.083,363.813 607.083,365.646 614.5,370C624.289,379.636 625.122,390.136 617,401.5C601.739,415.484 587.406,414.817 574,399.5C566.046,386.946 568.213,376.779 580.5,369C583.815,367.17 587.149,365.67 590.5,364.5ZM436.5,364.5C449.961,364.648 460.794,369.981 469,380.5C469.279,401.889 458.779,412.056 437.5,411C420.295,404.752 414.128,392.919 419,375.5C423.59,369.633 429.424,365.967 436.5,364.5ZM708.5,319.5C719.829,290.992 714.495,266.158 692.5,245C669.832,228.333 646.499,227.333 622.5,242C630.897,247.192 639.231,252.358 647.5,257.5C669.711,272.374 687.377,291.374 700.5,314.5C702.829,316.841 704.829,319.508 706.5,322.5C707.176,321.398 707.842,320.398 708.5,319.5ZM587.5,663.5C588.853,654.308 590.687,645.308 593,636.5C584.627,639.552 576.127,642.219 567.5,644.5C554.983,647.253 542.316,648.919 529.5,649.5C528.833,681.5 528.167,713.5 527.5,745.5C527.897,746.525 528.563,746.692 529.5,746C548.069,732.132 566.902,718.632 586,705.5C585.376,693.245 585.376,680.912 586,668.5C586.198,666.618 586.698,664.952 587.5,663.5ZM455.5,640.5C450.171,639.28 445.171,637.28 440.5,634.5L439.5,635.5C447.522,657.158 451.022,679.491 450,702.5C470.681,717.03 491.181,731.696 511.5,746.5C511.203,714.327 511.536,681.993 512.5,649.5C492.89,649.511 473.89,646.511 455.5,640.5ZM428.5,687.5C426.009,668.701 421.675,650.368 415.5,632.5C410.665,621.175 404.498,610.509 397,600.5C378.329,579.664 359.496,558.997 340.5,538.5C336.153,534.314 332.32,529.647 329,524.5C328.282,523.549 327.449,523.383 326.5,524C313.822,542.331 303.989,562.164 297,583.5C286.586,622.066 279.086,661.066 274.5,700.5C274.333,712.171 274.5,723.838 275,735.5C277.034,760.399 287.201,781.233 305.5,798C320.648,811.705 338.315,816.871 358.5,813.5C359.833,813.167 361.167,812.833 362.5,812.5C377.398,807.256 389.398,798.256 398.5,785.5C407.923,773.321 415.256,759.987 420.5,745.5C424.398,733.444 426.565,721.111 427,708.5C410.762,696.63 394.262,685.13 377.5,674C373.478,671.33 371.145,667.663 370.5,663C370.934,656.557 374.267,653.89 380.5,655C395.566,665.522 410.566,676.022 425.5,686.5C426.391,687.11 427.391,687.443 428.5,687.5ZM346.5,661.5C345.792,668.374 341.959,672.041 335,672.5C329.904,672.128 326.904,669.461 326,664.5C325.333,640.167 325.333,615.833 326,591.5C328.685,584.943 333.519,582.777 340.5,585C342.32,585.2 343.653,586.034 344.5,587.5C345.117,587.611 345.617,587.944 346,588.5C346.5,612.831 346.667,637.164 346.5,661.5ZM661.5,579.5C652.836,588.999 644.336,598.665 636,608.5C617.609,632.907 608.109,660.24 607.5,690.5C621.524,680.821 635.19,670.654 648.5,660C652.124,657.181 656.124,655.514 660.5,655C665.155,657.897 666.655,662.063 665,667.5C662.537,670.965 659.704,674.131 656.5,677C640.322,688.589 624.322,700.423 608.5,712.5C612.874,740.907 624.041,766.24 642,788.5C650.74,798.247 660.907,806.081 672.5,812C685.905,815.464 699.239,815.13 712.5,811C730.413,803.755 743.913,791.588 753,774.5C762.456,748.914 765.123,722.58 761,695.5C758.868,680.183 756.868,664.849 755,649.5C749.473,605.082 735.306,563.749 712.5,525.5C711.833,524.167 711.167,524.167 710.5,525.5C704.194,534.137 697.194,542.137 689.5,549.5C686.208,554.46 682.208,558.793 677.5,562.5C672.871,568.797 667.538,574.463 661.5,579.5ZM695.5,608.5C702.515,606.926 707.681,609.26 711,615.5C711.667,631.833 711.667,648.167 711,664.5C708.006,671.723 702.839,673.89 695.5,671C693.622,669.457 692.122,667.624 691,665.5C690.78,649.651 690.28,633.817 689.5,618C689.542,616.033 690.042,614.199 691,612.5C692.667,611.267 694.167,609.933 695.5,608.5ZM223.5,545.5C228.254,543.943 232.421,541.276 236,537.5C242.747,522.015 238.58,510.682 223.5,503.5C208.045,501.785 199.045,508.618 196.5,524C199.721,538.385 208.721,545.551 223.5,545.5ZM799.5,332.5C793.954,335.206 789.454,339.206 786,344.5C781.387,357.666 784.887,367.832 796.5,375C818.363,379.811 828.529,370.977 827,348.5C821.789,336.313 812.622,330.979 799.5,332.5ZM806.5,520.5C804.645,521.69 802.812,523.023 801,524.5C796.78,533.175 798.947,539.675 807.5,544C814.898,545.878 820.065,543.378 823,536.5C824.407,524.409 818.907,519.076 806.5,520.5ZM372.5,231.5C362.426,234.205 353.426,239.039 345.5,246C322.627,269.427 319.461,295.261 336,323.5C353.475,287.359 380.308,260.525 416.5,243C403.382,233.553 388.716,229.72 372.5,231.5Z"/>
    </g>
</svg>
