<?xml version="1.0" encoding="UTF-8" standalone="no"?>
<!DOCTYPE svg PUBLIC "-//W3C//DTD SVG 1.1//EN" "http://www.w3.org/Graphics/SVG/1.1/DTD/svg11.dtd">
<svg width="100%" height="100%" viewBox="0 0 1024 1024" version="1.1" xmlns="http://www.w3.org/2000/svg" xmlns:xlink="http://www.w3.org/1999/xlink" xml:space="preserve" xmlns:serif="http://www.serif.com/" style="fill-rule:evenodd;clip-rule:evenodd;stroke-linejoin:round;stroke-miterlimit:2;">
    <g transform="matrix(1.30547,0,0,1.30547,-212.689,-211.655)">
        <path d="M487.5,683.5C487.389,682.883 487.056,682.383 486.5,682C477.132,679.16 467.798,676.326 458.5,673.5C418.747,660.959 382.414,642.126 349.5,617C336.165,606.338 324.999,593.838 316,579.5C313.545,575.469 311.879,571.136 311,566.5C296.097,555.025 287.097,540.025 284,521.5C282.557,510.869 282.224,500.202 283,489.5C289.773,434.438 296.939,379.438 304.5,324.5C304.333,322.833 304.167,321.167 304,319.5C294.386,305.553 284.386,291.886 274,278.5C245.572,279.662 217.072,279.828 188.5,279C185.272,277.437 183.105,274.937 182,271.5C180.754,258.49 185.588,248.323 196.5,241C210.156,236.003 223.822,231.003 237.5,226C242.862,223.657 247.862,220.823 252.5,217.5C257.073,219.575 260.906,222.575 264,226.5C265.902,222.261 268.235,218.261 271,214.5C279.118,186.716 297.284,169.549 325.5,163C385.504,157.02 427.004,181.853 450,237.5C454.715,251.544 455.715,265.878 453,280.5C442.573,323.059 432.573,365.726 423,408.5C421.008,416.784 419.674,425.117 419,433.5C444.451,422.845 470.951,416.012 498.5,413C558.035,408.443 615.369,417.443 670.5,440C699.204,456.012 726.537,474.012 752.5,494C765.192,505.362 777.859,516.695 790.5,528C820.613,557.23 850.113,586.73 879,616.5C891.595,631.765 904.928,646.432 919,660.5C922.394,664.898 925.394,669.565 928,674.5C929.519,683.939 927.019,692.106 920.5,699C912.913,702.513 905.58,702.013 898.5,697.5C896.327,707.863 889.994,711.696 879.5,709C867.047,702.357 854.547,695.857 842,689.5C841.135,700.369 835.301,706.869 824.5,709C815.714,710.297 807.714,708.297 800.5,703C781.1,689.602 762.267,675.436 744,660.5C734.218,665.765 724.051,670.265 713.5,674C676.487,686.21 638.487,692.377 599.5,692.5L599.5,893.5C615.744,893.825 631.911,893.491 648,892.5C658.611,896.331 660.777,902.831 654.5,912C652.559,913.903 650.226,914.736 647.5,914.5C626.831,914.667 606.164,914.5 585.5,914C582.007,911.693 580.007,908.527 579.5,904.5C578.334,826.668 578.168,748.668 579,670.5C581.714,660.062 587.548,657.896 596.5,664C598.607,665.264 599.607,667.097 599.5,669.5C644.738,671.018 688.072,662.851 729.5,645C720.377,638.212 711.544,631.046 703,623.5C700.609,612.892 704.775,608.392 715.5,610C722.668,614.083 729.668,618.416 736.5,623C748.56,624.189 760.226,622.522 771.5,618C789.428,610.708 805.761,600.874 820.5,588.5C809.116,575.451 797.116,563.118 784.5,551.5C780.103,566.735 770.77,577.902 756.5,585C731.874,596.471 706.207,599.804 679.5,595C661.134,592.06 642.968,588.227 625,583.5C585.451,592.341 545.618,593.841 505.5,588C497.961,587.042 490.794,584.876 484,581.5C480.221,583.983 476.054,585.483 471.5,586C463.464,586.277 455.464,586.943 447.5,588C427.392,593.755 406.892,596.922 386,597.5C372.823,597.913 360.323,595.247 348.5,589.5C377.147,613.332 408.814,632.332 443.5,646.5C474.394,657.146 506.061,664.479 538.5,668.5C538.337,666.143 538.503,663.81 539,661.5C544.321,653.486 550.321,652.82 557,659.5C557.5,741.499 557.667,823.499 557.5,905.5C557.167,910.5 554.5,913.167 549.5,913.5C515.002,914.664 480.336,914.831 445.5,914C440.464,912.604 438.131,909.271 438.5,904C438.471,897.865 441.471,894.365 447.5,893.5C460.323,892.505 473.323,892.171 486.5,892.5C486.167,822.665 486.501,752.998 487.5,683.5ZM411.5,353.5C410.772,355.512 409.938,357.512 409,359.5C376.625,396.873 344.625,434.54 313,472.5C304.894,485.714 302.227,500.048 305,515.5C306.922,532.52 314.422,546.354 327.5,557C342.433,567.796 359.1,574.13 377.5,576C400.409,576.682 422.742,573.349 444.5,566C432.166,559.169 420.166,551.835 408.5,544C404.248,540.419 400.748,536.252 398,531.5C388.718,508.559 391.885,487.392 407.5,468C399.877,468.713 394.877,465.546 392.5,458.5C394.01,447.118 395.843,435.785 398,424.5C403.829,400.825 408.329,377.159 411.5,353.5ZM249.5,245.5C239.674,248.171 229.674,250.671 219.5,253C217,253.885 214.667,255.052 212.5,256.5C231.535,257.179 250.535,257.845 269.5,258.5C270.696,258.154 270.696,257.654 269.5,257C263.323,254.081 257.656,250.414 252.5,246C251.552,245.517 250.552,245.351 249.5,245.5ZM511.5,433.5C497.655,433.729 483.988,435.896 470.5,440C447.717,452.449 429.884,469.949 417,492.5C411.793,512.919 418.293,528.419 436.5,539C446.833,544 457.167,549 467.5,554C478.167,557.333 488.833,560.667 499.5,564C554.031,577.815 606.031,571.482 655.5,545C667.993,538.517 678.826,530.017 688,519.5C697.337,504.256 696.671,489.589 686,475.5C672.984,464.655 658.317,456.655 642,451.5C641.5,451.833 641,452.167 640.5,452.5C641.575,455.438 641.741,458.438 641,461.5C638.463,464.372 635.63,466.872 632.5,469C624.288,473.273 615.955,477.273 607.5,481C573.992,493.913 540.659,493.579 507.5,480C498.136,476.084 489.97,470.584 483,463.5C479.313,451.523 483.48,447.023 495.5,450C502.608,454.106 509.941,457.772 517.5,461C555.406,474.65 590.739,469.816 623.5,446.5C586.839,436.633 549.506,432.3 511.5,433.5ZM461.5,479.5C465.059,479.408 468.392,480.241 471.5,482C485.371,500.18 503.371,512.513 525.5,519C532.505,520.667 539.505,522.334 546.5,524C551.596,528.248 552.763,533.415 550,539.5C547.131,542.886 543.464,544.219 539,543.5C509.991,539.162 484.991,526.828 464,506.5C461.089,503.01 458.422,499.344 456,495.5C452.695,488.198 454.528,482.865 461.5,479.5ZM649.5,479.5C654.765,478.571 659.265,479.904 663,483.5C663.241,490.702 660.908,497.035 656,502.5C632.468,527.181 603.634,541.015 569.5,544C562.93,540.345 560.763,534.845 563,527.5L566.5,524C586.623,520.739 605.29,513.739 622.5,503C631.716,495.275 640.716,487.442 649.5,479.5ZM535.5,892.5L535.5,690.5C527.426,689.552 519.426,688.218 511.5,686.5C509.503,754.825 508.837,823.492 509.5,892.5L535.5,892.5ZM716.5,493.5C717.324,506.531 714.158,518.531 707,529.5C692.939,547.883 674.772,560.383 652.5,567C665.029,570.311 677.696,572.977 690.5,575C711.626,577.368 731.626,573.702 750.5,564C763.049,554.643 765.549,543.143 758,529.5C745.773,515.497 731.939,503.497 716.5,493.5ZM333.5,182.5C318.952,185.864 307.119,193.53 298,205.5C292.899,217.391 286.066,228.058 277.5,237.5C292.491,245.663 307.491,253.829 322.5,262C324.667,263.5 326.5,265.333 328,267.5C329.378,271.987 328.212,275.487 324.5,278C315.806,278.845 307.306,278.011 299,275.5C298.833,275.833 298.667,276.167 298.5,276.5C306.192,286.359 313.692,296.359 321,306.5C324.196,312.055 326.696,317.889 328.5,324C323.42,345.227 319.92,366.727 318,388.5C321.302,383.187 324.635,377.854 328,372.5C356.051,336.117 383.718,299.45 411,262.5C424.464,239.45 421.297,218.95 401.5,201C381.031,187.067 358.364,180.901 333.5,182.5ZM361.5,220.5C370.896,219.518 375.896,223.684 376.5,233C376.287,243.122 371.62,250.122 362.5,254C348.214,255.578 333.88,255.911 319.5,255C311.203,250.896 308.536,244.396 311.5,235.5C312.025,234.808 312.692,234.308 313.5,234C327.163,233.5 340.829,233.333 354.5,233.5C353.968,227.56 356.302,223.227 361.5,220.5ZM836.5,603.5C835.71,604.794 834.71,605.961 833.5,607C811.524,622.291 788.524,635.958 764.5,648C779.529,662.738 795.862,675.405 813.5,686C805.596,678.766 798.429,670.933 792,662.5C788.523,655.416 790.523,651.082 798,649.5C818.428,658.745 838.928,667.578 859.5,676C854.235,670.737 849.735,664.904 846,658.5C845.333,655.5 845.333,652.5 846,649.5C847.085,646.75 849.085,645.083 852,644.5C869.314,655.994 886.981,666.994 905,677.5C904.956,675.721 904.289,674.055 903,672.5C881.33,648.997 859.164,625.997 836.5,603.5ZM429.5,274.5C420.632,288.214 411.132,301.548 401,314.5L314,425.5C313.942,430.501 313.109,435.335 311.5,440C347.003,397.806 383.67,355.473 421.5,313C422.793,312.51 424.127,312.343 425.5,312.5C426.061,300.179 427.728,288.012 430.5,276C430.43,275.235 430.097,274.735 429.5,274.5ZM287.5,924.5C308.169,924.333 328.836,924.5 349.5,925C355.239,927.647 357.406,932.147 356,938.5C354.73,942.77 351.896,945.27 347.5,946C327.5,946.667 307.5,946.667 287.5,946C278.977,942.426 276.811,936.592 281,928.5C283.013,926.752 285.18,925.418 287.5,924.5ZM592.5,924.5C600.1,926.753 602.6,931.753 600,939.5C598.878,941.624 597.378,943.457 595.5,945C574.549,946.144 553.549,946.644 532.5,946.5C512.833,946.333 493.167,946.167 473.5,946C465.121,941.909 463.288,935.742 468,927.5C469.33,926.418 470.83,925.751 472.5,925.5C512.428,924.506 552.428,924.173 592.5,924.5ZM387.5,924.5C402.837,924.333 418.17,924.5 433.5,925C440.058,926.638 442.558,930.804 441,937.5C439.427,942.071 436.26,944.904 431.5,946C416.5,946.667 401.5,946.667 386.5,946C379.511,941.872 377.678,936.039 381,928.5C382.792,926.372 384.958,925.039 387.5,924.5ZM628.5,924.5C673.168,924.333 717.835,924.5 762.5,925C763.745,925.791 765.078,926.291 766.5,926.5C770.766,932.602 770.433,938.435 765.5,944C763.608,944.973 761.608,945.64 759.5,946C715.167,946.667 670.833,946.667 626.5,946C620.004,942.877 617.504,937.71 619,930.5C621.273,927.055 624.44,925.055 628.5,924.5Z"/>
    </g>
</svg>
