<?xml version="1.0" encoding="UTF-8" standalone="no"?>
<!DOCTYPE svg PUBLIC "-//W3C//DTD SVG 1.1//EN" "http://www.w3.org/Graphics/SVG/1.1/DTD/svg11.dtd">
<svg width="100%" height="100%" viewBox="0 0 1024 1024" version="1.1" xmlns="http://www.w3.org/2000/svg" xmlns:xlink="http://www.w3.org/1999/xlink" xml:space="preserve" xmlns:serif="http://www.serif.com/" style="fill-rule:evenodd;clip-rule:evenodd;stroke-linejoin:round;stroke-miterlimit:2;">
    <g transform="matrix(1.44049,0,0,1.44049,-241.218,-232.71)">
        <path d="M189.5,793.5C172.493,783.357 165.326,768.357 168,748.5C169.715,739.727 174.382,733.06 182,728.5C182.241,725.711 182.908,723.044 184,720.5C207.911,699.26 231.244,677.26 254,654.5C269.474,637.365 283.808,619.365 297,600.5C299.207,597.436 302.041,595.436 305.5,594.5C303.416,576.16 301.249,557.826 299,539.5C294.987,545.338 289.487,549.005 282.5,550.5C276.542,549.87 273.875,546.536 274.5,540.5C274.758,536.382 276.258,532.715 279,529.5C285.333,524.932 291.5,520.265 297.5,515.5C294.351,482.116 294.851,448.782 299,415.5C302.766,390.327 311.266,366.994 324.5,345.5C341.225,314.929 363.891,289.429 392.5,269C399.865,263.984 407.532,259.484 415.5,255.5C450.688,237.69 488.021,231.19 527.5,236C552.339,239.225 575.672,246.725 597.5,258.5C620.458,270.76 640.624,286.76 658,306.5C674.722,324.966 689.222,344.966 701.5,366.5C707.725,374.595 713.225,383.261 718,392.5C743.085,440.339 765.752,489.339 786,539.5C799.929,569.362 815.929,598.029 834,625.5C848.131,648.428 857.798,673.094 863,699.5C864.016,708.807 864.683,718.14 865,727.5C869.726,731.302 873.226,735.969 875.5,741.5C882.85,764.782 875.85,782.115 854.5,793.5C853.829,794.847 853.829,796.014 854.5,797C851.957,797.14 849.623,797.806 847.5,799C633.833,799.667 420.167,799.667 206.5,799C205.944,798.617 205.611,798.117 205.5,797.5C202.273,797.324 199.273,796.657 196.5,795.5C193.921,795.606 191.588,794.939 189.5,793.5ZM340.5,355.5C330.127,376.117 322.627,397.784 318,420.5C315.218,445.442 314.718,470.442 316.5,495.5L316.5,504.5C316.281,505.675 316.614,506.675 317.5,507.5C318.107,507.376 318.44,507.043 318.5,506.5C333.842,498.495 349.842,492.162 366.5,487.5C377.914,484.142 389.581,482.809 401.5,483.5C401.926,474.203 405.26,466.203 411.5,459.5C394.221,457.535 376.888,457.035 359.5,458C349.918,460.252 340.252,461.586 330.5,462C325.244,455.738 325.244,449.405 330.5,443C338.36,439.094 346.693,437.094 355.5,437C377.528,436.492 399.528,436.825 421.5,438C428.992,432.42 436.659,427.087 444.5,422C472.894,403.755 503.227,399.588 535.5,409.5C551.913,416.425 566.913,425.592 580.5,437C600.158,436.582 619.824,436.582 639.5,437C652.746,438.152 665.746,440.485 678.5,444C685.714,451.28 685.047,457.613 676.5,463C672.167,463.667 667.833,463.667 663.5,463C653.971,460.578 644.304,458.912 634.5,458C620.833,457.333 607.167,457.333 593.5,458C600.335,465.505 604.002,474.338 604.5,484.5C614.277,484.744 623.944,485.911 633.5,488C664.623,496.063 692.956,509.729 718.5,529C720.049,530.214 721.215,531.714 722,533.5C724.767,543.85 720.933,549.017 710.5,549C681.036,524.941 647.369,510.108 609.5,504.5C607.139,504.326 604.806,503.993 602.5,503.5C602.716,510.571 599.716,515.738 593.5,519C603.327,523.237 611.66,529.403 618.5,537.5C632.97,551.923 642.97,569.09 648.5,589C648.297,591.406 647.297,593.406 645.5,595C640.384,598.053 635.217,598.22 630,595.5C626.138,586.915 622.472,578.248 619,569.5C614.892,562.273 610.058,555.606 604.5,549.5C601.732,547.913 599.065,546.08 596.5,544C591.358,541.906 586.358,539.74 581.5,537.5C577.926,538.621 574.592,540.287 571.5,542.5C537.692,565.868 501.692,570.202 463.5,555.5C451.724,551.449 441.39,545.115 432.5,536.5C418.902,538.137 406.902,543.303 396.5,552C385.12,564.393 376.62,578.559 371,594.5C368.648,596.343 365.981,597.343 363,597.5C355.247,596.014 352.58,591.347 355,583.5C360.283,565.907 369.283,550.573 382,537.5C390.219,529.621 399.719,523.787 410.5,520C406.649,515.133 404.316,509.633 403.5,503.5C394.061,503.173 384.728,504.007 375.5,506C366.802,508.839 358.136,511.672 349.5,514.5C349.032,514.779 348.584,515.003 348.156,515.172C337.934,520.283 327.715,525.392 317.5,530.5C321.788,568.383 327.455,606.05 334.5,643.5C338.347,655.875 343.347,667.875 349.5,679.5C370.026,718.458 400.693,746.458 441.5,763.5C447.357,765.953 453.357,768.12 459.5,770C511.974,782.988 561.974,776.822 609.5,751.5C618.271,746.274 626.938,740.774 635.5,735C657.118,718.225 674.118,697.725 686.5,673.5C688.541,669.259 691.207,665.426 694.5,662C698.072,660.595 701.739,660.262 705.5,661C751.822,678.493 797.822,696.66 843.5,715.5C843.833,714.167 844.167,712.833 844.5,711.5C842.77,702.478 840.937,693.478 839,684.5C835.862,676.087 832.529,667.754 829,659.5C810.732,627.296 792.732,594.963 775,562.5C762.983,535.136 750.983,507.803 739,480.5C720.505,437.832 698.672,397.166 673.5,358.5C670.555,353.714 667.388,349.048 664,344.5C646.586,321.251 626.086,301.251 602.5,284.5C562.92,259.517 519.92,250.517 473.5,257.5C451.744,261.041 431.41,268.541 412.5,280C382.452,299.545 358.452,324.711 340.5,355.5ZM311.5,631.5C310.033,627.375 308.867,623.042 308,618.5C289.236,646.792 267.069,672.292 241.5,695C250.6,690.962 259.933,687.128 269.5,683.5C284.559,676.972 299.559,670.139 314.5,663C315.793,662.51 317.127,662.343 318.5,662.5C315.525,652.288 313.192,641.955 311.5,631.5ZM285.5,697.5C256.138,710.677 226.804,724.177 197.5,738C186.695,745.042 183.862,754.542 189,766.5C191.72,771.551 195.887,774.718 201.5,776C209.827,776.5 218.16,776.666 226.5,776.5C292.335,776.832 358.002,776.499 423.5,775.5C420.353,775.263 417.353,774.43 414.5,773C406.656,767.97 398.989,762.804 391.5,757.5C388.527,755.853 385.86,753.853 383.5,751.5C358.865,731.536 339.865,707.203 326.5,678.5C313.218,685.641 299.551,691.974 285.5,697.5ZM847.5,776.5C857.71,771.401 861.543,763.067 859,751.5C857.698,747.726 855.531,744.559 852.5,742C847.167,739.333 841.833,736.667 836.5,734C792.305,716.826 748.139,699.659 704,682.5C703.768,683.737 703.268,684.737 702.5,685.5C698.866,693.432 694.7,701.099 690,708.5C673.334,731.671 652.501,750.005 627.5,763.5C619.331,769.248 610.331,773.415 600.5,776C616.163,776.5 631.83,776.667 647.5,776.5L847.5,776.5ZM518.5,427.5C504.533,424.054 490.866,424.887 477.5,430C471.464,434.018 469.297,439.518 471,446.5C475.905,454.703 483.072,458.203 492.5,457C495.412,454.985 497.745,452.485 499.5,449.5C500.588,445.252 503.255,443.752 507.5,445C511.263,449.853 515.263,454.52 519.5,459C525.284,460.509 530.117,459.009 534,454.5C539.816,439.484 534.65,430.484 518.5,427.5ZM472.5,474.5C469.243,473.538 466.243,472.038 463.5,470C456.646,463.13 451.146,455.296 447,446.5C436.481,454.347 428.148,464.014 422,475.5C416.513,488.699 419.679,499.199 431.5,507C452.15,513.674 470.483,509.84 486.5,495.5C489.879,491.408 492.213,486.741 493.5,481.5C486.067,480.133 479.067,477.8 472.5,474.5ZM583.5,489.5C584.609,478.661 581.443,469.327 574,461.5C568.966,456.801 564.3,451.801 560,446.5C558.117,457.098 552.617,465.265 543.5,471C533.04,477.282 521.707,480.448 509.5,480.5C518.562,502.875 535.228,512.708 559.5,510C567.577,509.591 574.577,506.758 580.5,501.5C582.256,497.727 583.256,493.727 583.5,489.5ZM553.5,530.5C544.348,529.257 534.682,527.09 524.5,524C520.007,521.921 515.674,519.588 511.5,517L501,506.5C498.192,511.975 494.025,516.141 488.5,519C483.62,521.607 478.62,523.94 473.5,526C468.165,526.822 463.165,528.322 458.5,530.5C490.188,547.741 521.855,547.741 553.5,530.5ZM401.5,349.5C422.868,347.762 436.702,357.095 443,377.5C444.552,398.254 435.385,411.421 415.5,417C395.054,419.557 381.554,411.057 375,391.5C372.999,370.475 381.832,356.475 401.5,349.5ZM403.5,370.5C394.252,376.796 393.085,384.463 400,393.5C408.661,398.629 415.661,396.962 421,388.5C423.123,374.789 417.289,368.789 403.5,370.5ZM593.5,348.5C622.739,350.236 635.239,365.569 631,394.5C627.056,407.779 618.222,415.279 604.5,417C577.435,417.935 564.268,404.768 565,377.5C568.646,362.022 578.146,352.355 593.5,348.5ZM596.5,369.5C585.914,373.34 583.081,380.34 588,390.5C595.256,398.41 602.589,398.41 610,390.5C614.513,377.536 610.013,370.536 596.5,369.5Z"/>
    </g>
</svg>
