<?xml version="1.0" encoding="UTF-8" standalone="no"?>
<!DOCTYPE svg PUBLIC "-//W3C//DTD SVG 1.1//EN" "http://www.w3.org/Graphics/SVG/1.1/DTD/svg11.dtd">
<svg width="100%" height="100%" viewBox="0 0 1024 1024" version="1.1" xmlns="http://www.w3.org/2000/svg" xmlns:xlink="http://www.w3.org/1999/xlink" xml:space="preserve" xmlns:serif="http://www.serif.com/" style="fill-rule:evenodd;clip-rule:evenodd;stroke-linejoin:round;stroke-miterlimit:2;">
    <g transform="matrix(1.45955,0,0,1.45955,-229.069,-238.989)">
        <path d="M234.5,832.5C236.249,826.586 238.582,820.92 241.5,815.5C250.328,800.17 260.161,785.503 271,771.5C282.706,758.962 294.54,746.629 306.5,734.5C259.539,697.947 230.373,650.28 219,591.5C215.501,557.445 216.168,523.445 221,489.5C224.256,472.412 227.589,455.412 231,438.5C190.007,412.486 165.34,375.486 157,327.5C155.65,271.025 178.817,227.859 226.5,198C231.953,194.938 237.62,192.438 243.5,190.5C287.231,175.344 327.565,181.844 364.5,210C375.237,219.056 384.071,229.556 391,241.5C427.705,223.209 466.539,213.209 507.5,211.5C548.286,213.447 587.286,222.78 624.5,239.5C662.626,186.626 712.626,170.793 774.5,192C824.697,215.205 852.697,254.372 858.5,309.5C858.632,318.191 858.299,326.858 857.5,335.5L857.5,336.5C849.412,376.179 829.079,408.013 796.5,432C792.856,434.656 788.856,436.489 784.5,437.5C796.056,485.504 800.556,534.17 798,583.5C788.682,646.228 759.182,696.895 709.5,735.5C724.284,749.944 738.284,764.944 751.5,780.5C757.402,789.284 763.569,797.951 770,806.5C774.72,814.608 778.887,822.941 782.5,831.5C783.338,831.842 783.672,832.508 783.5,833.5C784.096,840.896 780.763,844.896 773.5,845.5C771.502,845.515 769.504,845.528 767.506,845.539C592.334,846.67 416.998,846.824 241.5,846C236.046,843.238 233.712,839.071 234.5,833.5L234.5,832.5ZM332.5,212.5C291.263,194.903 253.263,200.07 218.5,228C171.394,272.206 163.894,322.372 196,378.5C207.593,393.927 221.093,407.594 236.5,419.5C240.477,408.201 244.477,396.868 248.5,385.5C242.868,380.039 237.035,374.706 231,369.5C220.587,357.339 213.921,343.339 211,327.5C207.606,289.773 222.773,262.606 256.5,246C282.426,236.987 305.926,241.154 327,258.5C329.673,263.869 332.34,269.202 335,274.5C346.567,265.63 358.734,257.63 371.5,250.5C372.292,249.3 372.292,247.967 371.5,246.5C360.97,232.302 347.97,220.968 332.5,212.5ZM383.5,266.5C330.979,295.864 292.479,338.198 268,393.5C251.068,435.228 240.735,478.562 237,523.5C229.108,615.215 263.942,685.382 341.5,734C383.363,754.884 427.697,766.884 474.5,770C534.723,775.478 593.056,767.644 649.5,746.5C667.771,739.53 684.771,730.197 700.5,718.5C745.964,681.582 772.131,633.915 779,575.5C779.573,524.746 773.573,474.746 761,425.5C742.498,361.946 705.664,312.112 650.5,276C563.329,221.667 474.329,218.5 383.5,266.5ZM426.5,683.5C406.858,688.337 387.858,686.503 369.5,678C359.657,673.582 350.323,668.416 341.5,662.5C319.149,647.642 302.316,627.976 291,603.5C282.772,578.15 276.605,552.317 272.5,526C274.263,491.474 288.263,463.141 314.5,441C329.195,428.652 345.861,419.985 364.5,415C404.741,408.19 437.575,420.69 463,452.5C480.391,478.516 486.057,506.849 480,537.5C476.658,549.859 472.325,561.859 467,573.5C458.573,590.023 449.907,606.357 441,622.5C436.805,635.924 440.305,647.09 451.5,656C465.118,667.115 479.451,668.282 494.5,659.5C496.399,657.036 497.732,654.369 498.5,651.5L498.5,639.5C483.664,632.667 472.331,622 464.5,607.5C460.681,594.124 464.348,583.291 475.5,575C485.096,573.872 494.763,573.372 504.5,573.5C515.536,573.424 526.536,573.924 537.5,575C547.842,579.995 553.176,588.329 553.5,600C553.255,610.657 548.922,619.157 540.5,625.5C533.766,631.059 526.599,636.059 519,640.5C518.333,645.5 518.333,650.5 519,655.5C526.587,664.251 536.087,667.418 547.5,665C562.681,661.812 572.847,652.979 578,638.5C578.851,632.747 578.517,627.08 577,621.5C562.569,599.306 550.236,575.973 540,551.5C525.325,505.175 535.825,465.675 571.5,433C597.281,412.812 625.947,407.479 657.5,417C684.024,425.351 705.857,440.517 723,462.5C727.269,468.035 730.769,474.035 733.5,480.5C741.96,499.594 745.126,519.594 743,540.5C738.528,557.386 734.528,574.386 731,591.5C721.485,621.888 703.319,645.555 676.5,662.5C663.861,671.817 649.861,678.484 634.5,682.5C624.712,685.52 614.712,686.687 604.5,686C599.167,685 593.833,684 588.5,683C582.875,681.011 577.208,679.178 571.5,677.5C561.192,681.744 550.525,684.744 539.5,686.5C533.676,686.128 528.009,684.961 522.5,683C517.631,680.071 512.965,676.904 508.5,673.5C507.883,673.389 507.383,673.056 507,672.5C506.535,673.931 505.701,675.097 504.5,676C493.797,684.009 481.797,687.009 468.5,685C460.593,683.197 452.926,680.697 445.5,677.5C439.091,679.351 432.758,681.351 426.5,683.5ZM421.5,617.5C431.926,598.315 442.093,578.982 452,559.5C469.165,524.845 466.498,491.845 444,460.5C424.293,438.596 399.793,429.762 370.5,434C342.273,441.53 320.439,457.697 305,482.5C295.959,497.995 291.959,514.661 293,532.5C298.085,548.508 302.085,564.841 305,581.5C310.128,602.279 320.628,619.779 336.5,634C353.449,649.31 373.116,659.643 395.5,665C406.024,666.125 416.357,665.291 426.5,662.5C426.918,661.778 427.584,661.278 428.5,661C418.061,647.801 415.727,633.301 421.5,617.5ZM378.5,458.5C406.893,456.61 428.06,467.943 442,492.5C453.664,523.68 447.164,550.513 422.5,573C403.418,585.564 383.084,587.897 361.5,580C335.205,566.583 322.372,545.083 323,515.5C329.922,485.08 348.422,466.08 378.5,458.5ZM379.5,477.5C349.52,487.458 338.353,507.791 346,538.5C357.363,560.52 375.196,568.687 399.5,563C421.587,552.454 431.087,534.954 428,510.5C420.397,487.259 404.231,476.259 379.5,477.5ZM401.5,500.5C411.666,507.54 415.166,517.206 412,529.5C405.873,545.154 394.373,551.987 377.5,550C359.257,545.031 352.09,533.197 356,514.5C364.433,496.042 378.266,490.375 397.5,497.5C398.872,498.512 400.205,499.512 401.5,500.5ZM386.5,512.5C375.354,511.464 371.52,516.13 375,526.5C379.172,531.368 383.672,531.702 388.5,527.5C390.49,524.111 390.99,520.444 390,516.5C389.623,515.058 388.79,514.058 387.5,513.5C386.833,513.5 386.5,513.167 386.5,512.5ZM479.5,601.5C488.647,609.238 498.313,616.238 508.5,622.5C515.02,618.743 521.353,614.743 527.5,610.5C530.601,607.111 533.935,603.944 537.5,601C536.679,598.357 535.346,596.024 533.5,594C516.823,593.167 500.157,593.334 483.5,594.5C481.89,596.725 480.557,599.059 479.5,601.5ZM654.5,653.5C684.844,637.977 704.344,613.643 713,580.5C715.111,566.942 718.111,553.609 722,540.5C726.402,493.142 706.902,459.642 663.5,440C653.204,436.006 642.537,433.84 631.5,433.5C612.588,431.637 595.921,437.137 581.5,450C554.096,477.117 546.596,508.951 559,545.5C567.151,566.947 577.818,586.947 591,605.5C601.365,621.806 602.032,638.472 593,655.5C591.104,657.53 588.937,659.197 586.5,660.5C588.707,661.635 591.04,662.301 593.5,662.5C595.877,663.887 598.543,664.721 601.5,665C617.827,665.835 633.494,663.002 648.5,656.5C650.181,654.992 652.181,653.992 654.5,653.5ZM639.5,459.5C658.151,465.147 672.818,476.147 683.5,492.5C697.778,521.59 693.111,547.424 669.5,570C631.635,594.76 599.802,588.593 574,551.5C559.803,522.527 563.637,496.361 585.5,473C601.194,459.874 619.194,455.374 639.5,459.5ZM621.5,476.5C599.057,480.947 586.724,494.614 584.5,517.5C586.427,545.087 600.927,561.087 628,565.5C650.297,564.19 664.63,552.857 671,531.5C672.347,497.338 655.847,479.005 621.5,476.5ZM620.5,493.5C637.353,492.171 649.186,499.171 656,514.5C659.301,536.694 649.801,548.694 627.5,550.5C609.604,547.764 600.271,537.264 599.5,519C600.835,505.832 607.835,497.332 620.5,493.5ZM624.5,511.5C622.563,512.931 620.73,514.598 619,516.5C618.333,518.833 618.333,521.167 619,523.5C623.201,531.342 628.534,532.342 635,526.5C638.387,516.596 634.887,511.596 624.5,511.5ZM715.5,202.5C684.977,207.766 660.31,222.766 641.5,247.5C653.525,254.176 664.858,261.843 675.5,270.5C685.934,255.78 699.934,246.28 717.5,242C762.13,238.896 790.963,258.73 804,301.5C808.047,336.062 796.213,363.729 768.5,384.5C772.434,396.469 776.268,408.469 780,420.5C792.633,410.201 804.299,398.868 815,386.5C835.557,357.593 842.557,325.593 836,290.5C817.201,232.009 777.035,202.675 715.5,202.5ZM271.5,261.5C254.122,267.374 241.622,278.708 234,295.5C225.368,326.225 234.201,350.558 260.5,368.5C275.068,336.598 295.401,308.932 321.5,285.5C318.805,281.97 316.305,278.304 314,274.5C302.193,262.866 288.026,258.533 271.5,261.5ZM653.5,765.5C615.675,780.284 576.341,788.451 535.5,790C475.093,793.598 416.427,785.264 359.5,765C347.239,759.585 335.406,753.418 324,746.5C299.639,767.676 278.806,791.676 261.5,818.5C259.394,820.719 258.394,823.385 258.5,826.5L758.5,826.5C755.925,821.255 752.925,816.255 749.5,811.5C743.812,804.47 738.478,797.137 733.5,789.5C720.521,774.521 706.521,760.521 691.5,747.5C679.6,755.117 666.933,761.117 653.5,765.5ZM719.5,261.5C714.106,263.695 708.773,266.195 703.5,269C699.001,273.003 695.001,277.503 691.5,282.5C699.77,290.599 708.27,298.599 717,306.5C733.831,324.672 747.498,345.005 758,367.5C781.798,349.356 789.798,325.69 782,296.5C769.778,269.962 748.944,258.295 719.5,261.5Z"/>
    </g>
</svg>
