<?xml version="1.0" encoding="UTF-8" standalone="no"?>
<!DOCTYPE svg PUBLIC "-//W3C//DTD SVG 1.1//EN" "http://www.w3.org/Graphics/SVG/1.1/DTD/svg11.dtd">
<svg width="100%" height="100%" viewBox="0 0 1024 1024" version="1.1" xmlns="http://www.w3.org/2000/svg" xmlns:xlink="http://www.w3.org/1999/xlink" xml:space="preserve" xmlns:serif="http://www.serif.com/" style="fill-rule:evenodd;clip-rule:evenodd;stroke-linejoin:round;stroke-miterlimit:2;">
    <g transform="matrix(1.54964,0,0,1.54964,-268.698,-262.637)">
        <path d="M375.5,313.5C369.399,310.222 365.232,305.222 363,298.5C358.765,276.451 367.265,262.285 388.5,256C406.211,254.599 417.378,262.432 422,279.5C423.668,289.698 422.168,299.365 417.5,308.5C416.02,309.113 414.687,309.446 413.5,309.5C420.537,318.369 428.37,326.369 437,333.5C438.515,338.172 437.348,342.172 433.5,345.5C430.823,347.432 427.823,347.932 424.5,347C415.667,339.5 406.833,332 398,324.5C397.167,322.5 396.333,320.5 395.5,318.5C389.689,319.302 384.023,318.469 378.5,316C377.058,315.623 376.058,314.79 375.5,313.5ZM400.5,297.5C403.846,292.199 404.346,286.532 402,280.5C394.718,274.66 388.051,275.326 382,282.5C379.683,296.015 385.183,301.682 398.5,299.5C398.833,298.5 399.5,297.833 400.5,297.5ZM327.5,423.5C325.205,425.385 322.538,425.885 319.5,425C296.612,413.112 279.446,395.612 268,372.5C257.34,347.891 259.84,324.891 275.5,303.5C279.001,298.33 283.668,294.663 289.5,292.5C289.466,282.647 291.966,273.314 297,264.5C311.925,238.618 334.092,222.951 363.5,217.5C439.371,210.76 493.371,241.76 525.5,310.5C528.059,313.933 530.392,317.599 532.5,321.5C540.305,322.56 547.972,323.56 555.5,324.5C577.129,327.54 596.796,335.374 614.5,348C625.693,356.537 636.193,365.704 646,375.5C649.038,380.243 651.538,385.243 653.5,390.5C655.226,392.942 656.726,395.609 658,398.5C671.499,440.155 686.665,481.155 703.5,521.5L703.5,522.5C713.798,543.764 724.131,565.097 734.5,586.5C735.974,587.436 736.974,588.77 737.5,590.5C755.782,622.736 773.782,655.069 791.5,687.5C792.58,689.996 793.914,692.33 795.5,694.5C805.242,711.646 814.742,728.979 824,746.5C824.521,751.63 822.688,755.797 818.5,759C813.428,759.751 808.428,759.418 803.5,758C785.594,750.381 767.927,742.214 750.5,733.5C747.313,754.334 743.313,775 738.5,795.5C743.826,808.525 739.492,814.858 725.5,814.5C723.193,813.347 720.86,812.18 718.5,811C697.081,791.094 678.081,769.261 661.5,745.5C659.559,758.795 657.059,772.128 654,785.5C651.433,797.537 647.1,808.87 641,819.5C636.28,825.126 630.447,827.126 623.5,825.5C615.016,822.187 608.516,816.521 604,808.5C600.653,802.812 598.153,796.812 596.5,790.5C589.816,775.787 583.649,760.787 578,745.5C576.021,738.947 575.354,732.28 576,725.5C580.539,720.938 585.705,720.271 591.5,723.5C593.831,725.617 594.997,728.284 595,731.5C597.786,715.258 599.953,698.925 601.5,682.5C602.232,676.845 602.899,671.179 603.5,665.5C593.622,662.882 584.289,659.216 575.5,654.5C563.914,649.374 552.581,643.707 541.5,637.5C536.833,634.5 532.167,631.5 527.5,628.5C499.774,612.779 476.774,591.779 458.5,565.5C445.395,546.723 436.228,526.057 431,503.5C421.921,466.709 424.254,430.709 438,395.5C451.5,365.498 473.333,344.165 503.5,331.5C506.146,329.747 509.146,328.747 512.5,328.5C486.481,260.643 437.148,230.143 364.5,237C355.933,238.908 347.933,242.074 340.5,246.5C325.072,256.022 314.405,269.356 308.5,286.5C317.87,285.843 326.537,288.009 334.5,293C352.426,305.692 363.093,322.858 366.5,344.5C366.323,353.223 363.989,361.223 359.5,368.5C360.843,371.85 362.177,375.183 363.5,378.5C370.479,389.782 376.979,401.448 383,413.5C384.313,417.42 385.313,421.42 386,425.5C384.891,452.146 384.224,478.813 384,505.5C386.732,538.123 399.565,565.956 422.5,589C435.21,599.353 448.877,608.186 463.5,615.5C472.246,618.361 480.913,621.527 489.5,625C492.883,628.482 494.216,632.649 493.5,637.5C495.199,637.34 496.866,637.506 498.5,638C505.24,641.574 510.907,646.407 515.5,652.5C524.632,659.094 529.298,668.094 529.5,679.5C536.882,680.529 543.549,683.196 549.5,687.5C556.263,692.271 558.263,698.271 555.5,705.5C550.962,709.666 546.962,708.999 543.5,703.5C526.93,695.099 513.763,698.765 504,714.5C503.163,717.365 502.33,720.198 501.5,723C511.199,721.495 520.865,719.495 530.5,717C541.209,716.368 545.376,721.202 543,731.5L538.5,736C513.731,740.454 489.398,746.62 465.5,754.5C446.946,761.024 428.613,768.357 410.5,776.5C391.966,784.787 373.633,793.453 355.5,802.5C355.5,803.167 355.167,803.5 354.5,803.5C338.786,812.354 323.119,821.187 307.5,830C300.423,831.269 296.423,828.269 295.5,821C295.951,818.432 296.951,816.098 298.5,814C335.331,790.417 373.997,770.25 414.5,753.5C420.054,750.482 425.887,748.148 432,746.5C433.505,720.626 446.005,702.46 469.5,692C472.793,691.174 476.126,690.674 479.5,690.5C485.176,690.928 490.843,691.095 496.5,691C500.892,686.478 504.559,681.644 507.5,676.5C506.49,671.482 504.99,666.482 503,661.5C496.022,657.022 490.189,651.355 485.5,644.5C459.645,635.85 435.979,623.35 414.5,607C408.924,601.929 403.924,596.429 399.5,590.5C398.167,589.833 397.167,588.833 396.5,587.5C379.541,566.559 369.374,542.559 366,515.5C364.138,496.001 364.305,476.668 366.5,457.5C366.926,444.756 366.259,432.089 364.5,419.5C358.774,407.716 352.774,396.049 346.5,384.5C345.326,383.486 344.66,382.153 344.5,380.5C343.009,378.873 341.509,377.207 340,375.5C338.2,376.32 336.366,376.986 334.5,377.5C331.237,378.482 327.903,379.149 324.5,379.5C322.953,387.772 322.453,396.106 323,404.5C328.403,408.964 330.736,414.631 330,421.5C329.292,422.381 328.458,423.047 327.5,423.5ZM293.5,312.5C285.91,320.747 281.91,330.581 281.5,342C282.539,359.898 288.705,375.732 300,389.5C301.856,380.743 304.023,372.077 306.5,363.5C318.416,363.521 329.749,360.688 340.5,355C342.709,353.127 344.542,350.96 346,348.5C346.663,343.463 346.496,338.463 345.5,333.5C341.211,323.141 334.211,314.974 324.5,309C313.363,303.664 303.03,304.831 293.5,312.5ZM534.5,343.5C514.885,345.81 497.551,353.31 482.5,366C463.409,385.009 451.242,407.842 446,434.5C442.007,462.887 444.841,490.554 454.5,517.5C458.622,527.078 463.289,536.411 468.5,545.5C471.861,551.184 475.194,556.851 478.5,562.5C488.113,572.779 498.113,582.779 508.5,592.5C512.857,595.864 517.191,599.198 521.5,602.5C549.662,622.581 580.329,637.915 613.5,648.5C621.366,650.843 629.366,652.676 637.5,654C662.844,656.625 687.178,652.959 710.5,643C718.177,635.506 724.844,627.34 730.5,618.5C727.743,614.584 725.743,610.25 724.5,605.5C718.593,594.687 712.926,583.687 707.5,572.5C700.971,579.196 693.971,585.363 686.5,591C679.501,595.834 671.834,599.001 663.5,600.5C661.046,601.621 658.379,602.454 655.5,603C632.25,605.68 610.25,601.68 589.5,591C561.561,576.414 537.061,557.247 516,533.5C498.222,513.28 486.222,489.947 480,463.5C479.333,457.833 479.333,452.167 480,446.5C481.319,444.513 483.152,443.346 485.5,443C491.092,441.748 495.259,443.581 498,448.5C498.986,462.111 502.319,475.111 508,487.5C524.208,517.711 546.708,542.211 575.5,561C597.763,576.365 622.43,584.199 649.5,584.5C671.066,580.934 685.733,568.934 693.5,548.5C689.481,537.803 685.481,527.137 681.5,516.5C678.929,511.463 676.929,506.129 675.5,500.5C671.193,491.012 667.027,481.345 663,471.5C662.057,468.176 661.224,464.843 660.5,461.5C659.833,461.5 659.5,461.167 659.5,460.5C652.799,440.042 645.632,419.709 638,399.5C629.994,385.793 619.494,374.46 606.5,365.5C584.966,350.324 560.966,342.99 534.5,343.5ZM593.5,450.5C591.871,449.375 590.371,448.041 589,446.5C587.038,425.406 577.871,408.239 561.5,395C550.198,388.056 537.864,385.056 524.5,386C520.369,382.606 519.036,378.439 520.5,373.5C521.254,370.909 522.921,369.076 525.5,368C540.902,365.571 555.235,368.571 568.5,377C582.972,386.802 593.805,399.635 601,415.5C602.865,420.761 604.531,426.095 606,431.5C606.888,436.618 606.555,441.618 605,446.5C602.004,450.553 598.171,451.887 593.5,450.5ZM471.5,732.5C474.142,731.194 476.975,730.194 480,729.5C480.333,725.5 480.667,721.5 481,717.5C481.45,715.481 482.283,713.648 483.5,712C472.834,711.25 464.667,715.417 459,724.5C456.609,728.613 454.776,732.946 453.5,737.5C454.557,737.906 455.891,737.906 457.5,737.5C461.695,734.746 466.362,733.079 471.5,732.5ZM638.5,767.5C644.447,737.04 649.114,706.373 652.5,675.5C642.372,674.842 632.538,672.842 623,669.5C621.031,698.532 616.697,727.199 610,755.5C609.359,761.528 609.526,767.528 610.5,773.5C612.088,786.01 617.422,796.677 626.5,805.5C632.052,793.28 636.052,780.613 638.5,767.5ZM788.5,719.5C784.278,714.745 780.778,709.412 778,703.5C766.348,681.532 754.681,659.532 743,637.5C742.329,636.748 741.496,636.414 740.5,636.5C733.35,652.768 721.016,662.935 703.5,667C694.809,669.004 686.143,671.004 677.5,673C714.808,696.321 753.808,715.821 794.5,731.5C792.303,727.563 790.303,723.563 788.5,719.5ZM670.5,689.5C669.789,699.023 668.789,708.523 667.5,718C667.329,721.129 668.162,723.963 670,726.5C679.942,740.71 690.609,754.377 702,767.5C709.786,774.28 716.453,781.947 722,790.5C724.636,769.14 727.469,747.807 730.5,726.5L685.5,701C680.032,697.62 675.032,693.786 670.5,689.5ZM530.5,169.5C535.55,169.274 539.383,171.274 542,175.5C542.5,182.826 542.666,190.159 542.5,197.5C550.611,197.065 558.611,197.565 566.5,199C573.79,206.208 573.123,212.541 564.5,218C557.253,218.812 550.086,218.646 543,217.5C542.667,223.5 542.333,229.5 542,235.5C538.283,241.567 533.116,243.067 526.5,240C524.951,238.786 523.785,237.286 523,235.5C522.501,230.177 522.334,224.844 522.5,219.5C513.11,219.065 503.777,218.231 494.5,217C489.917,213.65 488.417,209.15 490,203.5C490.792,201.413 491.959,199.579 493.5,198C503.161,197.5 512.828,197.334 522.5,197.5C522.334,190.159 522.5,182.826 523,175.5C525.071,172.891 527.571,170.891 530.5,169.5ZM221.5,273.5C228.545,273.395 235.211,274.895 241.5,278C246.645,282.598 247.812,288.098 245,294.5C243.278,296.444 241.111,297.444 238.5,297.5C226.913,291.878 217.746,294.545 211,305.5C209.21,311.736 207.876,318.07 207,324.5C199.685,330.398 194.019,329.065 190,320.5C188.295,304.405 193.461,290.905 205.5,280C210.603,276.938 215.936,274.771 221.5,273.5ZM677.5,245.5C683.448,244.528 687.948,246.528 691,251.5C691.5,259.827 691.666,268.16 691.5,276.5C700.173,276.334 708.84,276.5 717.5,277C725.037,282.859 725.37,289.193 718.5,296C709.582,297.414 700.582,297.914 691.5,297.5C691.723,305.547 691.223,313.547 690,321.5C687.93,325 684.764,326.667 680.5,326.5C676.719,325.858 673.885,323.858 672,320.5C671.5,312.841 671.334,305.174 671.5,297.5C664.825,297.666 658.158,297.5 651.5,297C644.188,293.54 642.021,288.04 645,280.5C646.214,278.951 647.714,277.785 649.5,277C656.826,276.5 664.159,276.334 671.5,276.5C671.334,267.827 671.5,259.16 672,250.5C673.352,248.251 675.185,246.584 677.5,245.5ZM214.5,350.5C224.511,349.179 228.677,353.512 227,363.5C224.369,367.079 220.869,369.579 216.5,371C208.077,373.731 199.577,376.231 191,378.5C188.077,378.205 185.743,376.871 184,374.5C183.004,369.771 183.504,365.271 185.5,361C195.067,357.032 204.734,353.532 214.5,350.5Z"/>
    </g>
</svg>
