<?xml version="1.0" encoding="UTF-8" standalone="no"?>
<!DOCTYPE svg PUBLIC "-//W3C//DTD SVG 1.1//EN" "http://www.w3.org/Graphics/SVG/1.1/DTD/svg11.dtd">
<svg width="100%" height="100%" viewBox="0 0 1024 1024" version="1.1" xmlns="http://www.w3.org/2000/svg" xmlns:xlink="http://www.w3.org/1999/xlink" xml:space="preserve" xmlns:serif="http://www.serif.com/" style="fill-rule:evenodd;clip-rule:evenodd;stroke-linejoin:round;stroke-miterlimit:2;">
    <g transform="matrix(1.31022,0,0,1.31022,-156.818,-181.644)">
        <path d="M257.5,770.5C234.107,775.379 212.441,771.212 192.5,758C172.38,742.885 156.214,724.385 144,702.5C137.318,688.258 134.151,673.258 134.5,657.5C130.182,653.682 126.015,649.682 122,645.5C119.095,641.652 118.928,637.819 121.5,634C160.904,635.713 198.237,627.88 233.5,610.5C263.954,592.882 288.788,569.216 308,539.5C315.539,527.07 323.039,514.737 330.5,502.5C342.535,481.426 352.701,459.426 361,436.5C362.64,429.51 364.14,422.51 365.5,415.5C366.572,387.792 373.072,361.459 385,336.5C388.61,330.923 392.443,325.59 396.5,320.5C408.4,304.26 423.734,292.593 442.5,285.5C450.416,282.246 458.75,280.246 467.5,279.5C496.708,277.777 520.041,288.443 537.5,311.5C539.167,312.833 540.833,312.833 542.5,311.5C563.101,308.318 581.768,312.818 598.5,325C603.543,329.712 608.877,334.045 614.5,338C623.003,344.854 629.17,353.354 633,363.5C634.077,372.03 630.577,375.03 622.5,372.5C615.428,367.634 608.095,363.301 600.5,359.5C586.959,356.811 573.293,355.977 559.5,357C546.452,359.781 533.452,361.948 520.5,363.5C520.567,364.959 520.234,366.292 519.5,367.5C519.087,375.849 520.587,383.849 524,391.5C528.868,404.131 534.868,416.131 542,427.5C551.018,448.435 551.518,469.435 543.5,490.5C538.986,506.195 531.819,520.528 522,533.5C509.959,549.708 495.792,563.708 479.5,575.5C473.29,580.775 466.29,584.775 458.5,587.5C450.545,591.429 442.545,595.263 434.5,599C442.54,614.051 453.206,627.051 466.5,638C473.711,640.807 481.044,641.14 488.5,639C497.059,631.598 505.726,624.432 514.5,617.5C533.725,597.608 553.392,577.942 573.5,558.5C584.203,547.463 595.536,537.13 607.5,527.5C609.5,524.833 611.833,522.5 614.5,520.5C639.242,498.935 665.575,479.435 693.5,462C696.778,460.191 700.111,458.691 703.5,457.5C712.172,451.494 721.506,446.494 731.5,442.5C736.575,444.309 737.741,447.643 735,452.5C717.335,462.689 699.835,473.022 682.5,483.5C656.37,501.95 631.37,521.95 607.5,543.5C580.09,569.408 553.09,595.908 526.5,623C514.396,632.269 503.062,642.436 492.5,653.5C496.568,654.892 500.734,655.892 505,656.5C511.94,655.612 518.773,654.279 525.5,652.5C527.25,651.13 529.25,650.13 531.5,649.5C541.642,643.259 551.642,636.759 561.5,630C573.638,619.696 585.305,608.863 596.5,597.5C610.861,583.307 624.694,568.64 638,553.5C661.3,529.863 686.133,508.03 712.5,488C717.528,484.823 722.528,481.656 727.5,478.5C728.167,478.167 728.833,477.833 729.5,477.5C746.055,466.978 764.055,459.978 783.5,456.5C784.708,455.766 786.041,455.433 787.5,455.5C823.589,450.71 844.923,466.21 851.5,502C851.091,506.641 849.758,510.975 847.5,515C844.281,517.045 841.448,516.545 839,513.5C839.488,478.984 822.655,463.817 788.5,468C762.75,473.38 739.417,483.88 718.5,499.5C716.858,500.803 715.191,502.136 713.5,503.5C684.318,526.011 657.318,551.011 632.5,578.5C619.221,592.446 605.554,606.113 591.5,619.5C572.736,638.756 551.07,653.922 526.5,665C511.301,669.704 496.134,669.537 481,664.5C473.432,669.395 466.432,675.062 460,681.5C459.409,682.483 459.743,683.15 461,683.5C488.656,690.47 516.156,689.803 543.5,681.5C556.863,675.656 570.196,669.489 583.5,663C610.735,645.052 640.068,631.385 671.5,622C681.438,619.682 691.438,617.682 701.5,616C710.343,615.176 719.01,615.343 727.5,616.5C736.735,617.937 743.068,622.937 746.5,631.5C745.148,635.254 742.482,636.421 738.5,635C733.652,630.745 727.985,628.411 721.5,628C710.333,627.104 699.333,628.104 688.5,631C673.443,634.464 658.776,639.13 644.5,645C627.835,652.666 611.501,660.833 595.5,669.5C584.875,677.314 573.209,683.314 560.5,687.5C529.996,700.463 498.329,703.963 465.5,698C459.673,696.895 454.34,694.728 449.5,691.5C432.774,706.558 415.441,720.891 397.5,734.5C372.173,755.334 343.506,770.167 311.5,779C308.5,779.667 305.5,779.667 302.5,779C299.165,776.321 298.665,773.155 301,769.5C318.579,764.973 335.412,758.473 351.5,750C363.5,742.333 375.5,734.667 387.5,727C400.709,716.286 414.042,705.786 427.5,695.5C430.745,691.648 434.411,688.315 438.5,685.5C430.556,678.057 422.722,670.39 415,662.5C407.813,653.454 401.647,643.788 396.5,633.5C394.171,629.541 391.337,625.874 388,622.5C385.337,624.334 382.837,626.334 380.5,628.5C370.411,638.009 361.244,648.342 353,659.5C340.269,679.905 327.935,700.572 316,721.5C313.63,725.597 310.797,729.264 307.5,732.5C299.732,744.769 289.732,754.935 277.5,763C273.797,765.354 269.797,766.854 265.5,767.5C263.152,769.097 260.486,770.097 257.5,770.5ZM537.5,334.5C534.8,340.063 531.467,345.23 527.5,350C528,350.167 528.5,350.333 529,350.5C547.914,343.917 567.081,342.251 586.5,345.5C594.242,346.629 601.908,347.796 609.5,349C601.222,343.722 593.222,338.055 585.5,332C573.712,324.909 561.046,322.576 547.5,325C541.714,325.62 538.381,328.786 537.5,334.5ZM389.5,600.5C390.399,602.906 391.899,604.906 394,606.5C397.121,604.022 400.621,602.189 404.5,601C399.528,601.581 394.528,601.414 389.5,600.5ZM363.5,503.5C361.973,533.738 369.306,561.572 385.5,587C407.48,585.598 429.146,582.098 450.5,576.5C452.117,575.962 453.784,575.629 455.5,575.5C468.677,568.397 480.677,559.564 491.5,549C497,542.833 502.5,536.667 508,530.5C527.936,506.861 537.436,479.527 536.5,448.5C534.022,439.42 530.356,430.754 525.5,422.5C512.823,404.986 495.49,395.486 473.5,394C466.42,393.205 459.42,393.372 452.5,394.5C417.012,402.476 390.512,422.476 373,454.5C369.571,466.831 366.738,479.164 364.5,491.5C364.817,495.702 364.483,499.702 363.5,503.5ZM205.5,635.5C186.583,641.098 167.249,644.765 147.5,646.5C147.667,646.833 147.833,647.167 148,647.5C157.141,652.582 166.975,655.748 177.5,657C229.805,660.839 278.805,650.005 324.5,624.5C325.391,623.89 326.391,623.557 327.5,623.5C334.591,618.109 341.925,612.943 349.5,608C355.857,606.519 358.357,609.019 357,615.5C346.788,625.356 335.288,633.356 322.5,639.5C298.073,652.587 272.073,661.421 244.5,666C217.203,671.373 189.869,671.706 162.5,667C157.936,665.718 153.603,663.885 149.5,661.5C148.336,668.142 148.169,674.808 149,681.5C158.273,707.781 174.106,729.281 196.5,746C215.83,759.055 236.83,762.722 259.5,757C263.646,755.426 267.646,753.593 271.5,751.5C282.638,743.751 292.305,734.417 300.5,723.5C315.08,698.404 329.913,673.404 345,648.5C354.043,635.29 365.209,624.29 378.5,615.5C379.6,614.442 380.934,613.608 382.5,613C380.68,609.409 379.68,605.576 379.5,601.5C348.224,602.961 318.058,597.961 289,586.5C279.606,592.554 270.773,599.388 262.5,607C245.367,619.4 226.7,628.9 206.5,635.5L205.5,635.5ZM346.5,496.5C333.501,525.177 316.501,551.177 295.5,574.5C298.246,576.473 301.246,577.973 304.5,579C327.038,585.645 350.038,589.479 373.5,590.5C359.516,567.202 352.183,541.869 351.5,514.5C352.128,504.797 352.628,495.13 353,485.5C351.311,489.56 349.144,493.227 346.5,496.5ZM381.5,384.5C379.434,395.709 377.934,407.042 377,418.5C376.697,420.888 375.863,423.055 374.5,425C374.833,425.167 375.167,425.333 375.5,425.5C386.257,415.739 397.591,406.739 409.5,398.5C410.8,393.262 412.467,388.262 414.5,383.5C414.66,381.847 415.326,380.514 416.5,379.5C419.468,372.899 422.968,366.566 427,360.5C440.488,345.919 456.821,335.919 476,330.5C479.892,331.38 481.892,333.714 482,337.5L476.5,343C456.944,349.08 441.611,360.58 430.5,377.5C428.597,381.953 426.764,386.287 425,390.5C426.579,388.959 428.413,387.792 430.5,387C437.011,384.719 443.678,383.052 450.5,382C470.559,379.771 490.059,381.937 509,388.5C508.348,383.538 507.515,378.538 506.5,373.5C507.01,368.774 507.843,364.108 509,359.5C515.502,347.828 522.002,336.161 528.5,324.5C527.016,320.2 525.016,316.2 522.5,312.5C516.488,305.318 509.154,299.818 500.5,296C475.378,288.432 451.711,291.598 429.5,305.5C428.71,306.401 427.71,307.068 426.5,307.5C402.051,327.365 387.051,353.032 381.5,384.5ZM415.5,608.5C410.158,611.499 404.492,613.999 398.5,616C406.96,629.756 415.794,643.256 425,656.5C429.865,661.7 435.032,666.533 440.5,671C444.015,672.843 447.682,673.843 451.5,674C457.553,669.07 463.053,663.57 468,657.5C468.667,656.5 468.667,655.5 468,654.5C452.157,641.657 437.99,627.157 425.5,611C422.392,609.241 419.059,608.408 415.5,608.5ZM827.5,431.5C837.037,432.926 846.037,436.092 854.5,441C866.562,449.037 877.895,458.037 888.5,468C893.034,472.199 897.201,476.699 901,481.5C902.116,488.384 899.283,491.218 892.5,490C874.912,469.744 853.912,454.077 829.5,443C825.097,439.745 824.43,435.912 827.5,431.5Z"/>
    </g>
</svg>
