<?xml version="1.0" encoding="UTF-8" standalone="no"?>
<!DOCTYPE svg PUBLIC "-//W3C//DTD SVG 1.1//EN" "http://www.w3.org/Graphics/SVG/1.1/DTD/svg11.dtd">
<svg width="100%" height="100%" viewBox="0 0 1024 1024" version="1.1" xmlns="http://www.w3.org/2000/svg" xmlns:xlink="http://www.w3.org/1999/xlink" xml:space="preserve" xmlns:serif="http://www.serif.com/" style="fill-rule:evenodd;clip-rule:evenodd;stroke-linejoin:round;stroke-miterlimit:2;">
    <g transform="matrix(1.2143,0,0,1.2143,-102.395,-153.605)">
        <path d="M477.5,612.5C481.832,604.047 479.832,597.88 471.5,594C468.833,593.333 466.167,592.667 463.5,592C446.317,591.216 429.15,591.382 412,592.5C409.966,592.646 408.299,591.98 407,590.5C405.048,581.779 408.548,576.945 417.5,576C420.335,572.134 423.502,568.634 427,565.5C426.008,555.18 424.841,544.847 423.5,534.5C423.209,522.995 426.043,512.329 432,502.5C436.221,495.441 441.387,489.108 447.5,483.5C440.284,465.404 431.784,448.071 422,431.5C408.444,410.612 394.111,390.279 379,370.5C371.51,363.434 363.51,357.101 355,351.5C342.43,375.551 322.597,389.384 295.5,393C263.678,395.524 240.511,382.691 226,354.5C212.636,315.428 223.136,284.595 257.5,262C299.49,246.11 331.99,257.277 355,295.5C360.581,307.988 361.748,320.822 358.5,334C377.544,346.042 393.71,361.208 407,379.5C416.333,393.5 425.667,407.5 435,421.5C444.207,437.915 452.874,454.582 461,471.5C463.251,469.623 465.751,468.123 468.5,467C469.081,466.107 469.415,465.107 469.5,464C467.933,455.859 466.599,447.693 465.5,439.5C465.72,434.9 465.054,430.567 463.5,426.5C462.623,418.615 460.789,410.949 458,403.5C454.787,395.289 451.121,387.289 447,379.5C439.355,357.22 431.355,335.22 423,313.5C418.319,304.802 413.652,296.135 409,287.5C399.97,276.475 390.97,265.475 382,254.5C371.976,239.497 369.976,223.497 376,206.5C380.339,198.922 385.673,197.922 392,203.5C391.106,210.27 390.273,217.104 389.5,224C389.559,228.222 390.059,232.389 391,236.5C393.232,241.965 396.232,246.965 400,251.5C416.469,268.417 429.469,287.751 439,309.5C448.59,333.937 457.59,358.603 466,383.5C472.901,395.986 477.568,409.319 480,423.5C480.735,435.226 481.902,446.893 483.5,458.5C490.143,457.788 496.809,457.454 503.5,457.5L517.5,457.5L517.5,447.5C516.883,434.431 518.716,421.764 523,409.5C529.634,397.52 536.3,385.52 543,373.5C554.6,343.64 567.267,314.307 581,285.5C589.559,272.608 599.225,260.608 610,249.5C614.303,244.562 617.303,238.896 619,232.5C619.453,222.812 619.453,213.145 619,203.5C625.581,199.095 630.915,200.429 635,207.5C637.521,216.063 638.021,224.73 636.5,233.5C633.833,240.643 630.666,247.643 627,254.5C609.297,272.224 595.297,292.557 585,315.5C572.791,350.008 557.624,383.008 539.5,414.5C537.233,419.229 535.733,424.229 535,429.5C533.946,439.487 533.112,449.487 532.5,459.5C535.927,459.976 539.26,459.976 542.5,459.5C551.532,444.965 560.365,430.298 569,415.5C579.575,400.921 590.909,386.921 603,373.5C617.025,357.75 633.192,344.75 651.5,334.5C649.519,297.933 665.185,272.433 698.5,258C732.782,249.268 760.282,259.101 781,287.5C793.275,311.322 793.608,335.322 782,359.5C769.624,379.945 751.457,391.111 727.5,393C693.523,394.27 669.69,379.437 656,348.5C655.626,349.416 655.126,350.25 654.5,351C647.235,355.121 640.568,359.954 634.5,365.5C602.681,395.805 576.681,430.472 556.5,469.5C563.157,475.498 569.824,481.498 576.5,487.5C597.415,513.147 605.248,542.48 600,575.5C598.826,589.529 595.16,602.862 589,615.5C583.92,625.327 578.587,634.994 573,644.5C569.877,650.537 567.543,656.87 566,663.5C564.984,677.046 567.151,690.046 572.5,702.5C579.379,717.928 586.546,733.261 594,748.5C609.455,787.138 610.455,826.138 597,865.5C587.418,888.187 572.918,907.02 553.5,922C528.928,937.848 502.261,943.181 473.5,938C460.83,934.5 449.497,928.667 439.5,920.5C418.69,905.917 406.19,885.917 402,860.5C395.439,814.273 397.772,768.606 409,723.5C402.653,734.199 396.32,744.866 390,755.5C359.342,817.553 369.175,872.387 419.5,920C462.996,954.138 510.996,962.138 563.5,944C616.364,921.966 644.697,882.299 648.5,825C647.807,805.729 642.974,787.562 634,770.5C629.029,762.697 623.862,755.03 618.5,747.5C609.763,737.686 601.263,727.686 593,717.5C589.797,713.392 588.297,708.725 588.5,703.5C589.929,700.252 592.429,698.919 596,699.5C600.259,699.296 603.592,700.963 606,704.5C607.556,709.28 609.889,713.613 613,717.5C623.393,728.653 633.059,740.32 642,752.5C668.621,794.785 671.621,838.785 651,884.5C625.631,934.171 585.131,962.337 529.5,969C463.873,974.6 413.04,950.1 377,895.5C346.219,839.224 348.886,784.558 385,731.5C407.333,701.833 429.667,672.167 452,642.5C461.461,633.215 469.961,623.215 477.5,612.5ZM466.5,917.5C504.63,929.958 536.797,920.958 563,890.5C587.731,859.206 596.064,823.873 588,784.5C580.909,759.83 571.243,736.164 559,713.5C551.181,692.669 549.514,671.336 554,649.5C561.455,632.59 569.455,615.923 578,599.5C581.056,590.053 582.89,580.386 583.5,570.5C583.583,559.484 583.249,548.484 582.5,537.5C576.089,504.92 556.756,484.42 524.5,476C506.094,470.813 488.761,473.146 472.5,483C459.756,491.972 449.923,503.472 443,517.5C439.67,528.884 439.836,540.217 443.5,551.5C445.849,547.472 448.683,543.806 452,540.5C450.723,517.107 461.556,502.94 484.5,498C508.936,494.692 528.77,502.525 544,521.5C552.439,538.921 553.772,556.921 548,575.5C540.84,591.311 532.84,606.645 524,621.5C516.817,644.12 516.817,666.787 524,689.5C532.327,711.49 540.66,733.49 549,755.5C558.693,785.677 554.026,813.344 535,838.5C513.271,857.645 488.771,862.145 461.5,852C444.645,843.48 433.145,830.314 427,812.5C424.282,804.242 427.115,800.409 435.5,801C437.09,802.046 438.59,803.213 440,804.5C453.324,834.579 475.824,845.413 507.5,837C527.297,826.593 537.297,810.093 537.5,787.5C537.405,782.128 536.905,776.794 536,771.5C529.33,748.171 520.996,725.504 511,703.5C505.391,687.121 502.224,670.288 501.5,653C502.077,640.887 504.244,629.053 508,617.5C515.427,602.976 523.094,588.643 531,574.5C535.703,562.484 536.703,550.15 534,537.5C528.914,527.088 520.747,520.255 509.5,517C501.214,515.546 492.881,515.213 484.5,516C475.582,518.084 470.249,523.584 468.5,532.5C469.378,535.215 470.878,537.549 473,539.5C473.667,541.167 473.667,542.833 473,544.5C461.673,555.828 449.173,565.661 435.5,574C447.874,574.13 460.208,574.797 472.5,576C479.204,578.009 484.871,581.509 489.5,586.5C493.678,591.701 495.678,597.701 495.5,604.5C494.879,612.401 492.546,619.735 488.5,626.5C479.532,636.306 470.699,646.306 462,656.5C445.448,676.268 433.615,698.601 426.5,723.5C421.814,741.605 417.98,759.938 415,778.5C414.333,799.5 414.333,820.5 415,841.5C417.482,877.091 434.649,902.425 466.5,917.5ZM277.5,272.5C243.785,285.596 231.619,309.596 241,344.5C254.951,370.724 276.451,380.557 305.5,374C311.469,371.016 317.469,368.016 323.5,365C344.659,344.879 348.826,321.712 336,295.5C320.802,277.37 301.302,269.703 277.5,272.5ZM262.5,337.5C260.767,331.654 260.1,325.654 260.5,319.5C263.801,303.871 273.468,295.204 289.5,293.5C304.677,294.509 314.843,302.175 320,316.5C321.021,341.813 308.854,354.313 283.5,354C273.649,351.967 266.649,346.467 262.5,337.5ZM285.5,312.5C282.592,314.06 280.425,316.394 279,319.5C277.372,326.743 279.872,331.909 286.5,335C293.034,336.493 297.867,334.327 301,328.5C303.19,316.189 298.024,310.855 285.5,312.5ZM711.5,272.5C689.755,277.991 675.921,291.657 670,313.5C667.103,329.345 670.437,343.678 680,356.5C700.822,378.663 724.655,382.496 751.5,368C775.648,347.845 780.482,323.679 766,295.5C752.305,277.862 734.138,270.195 711.5,272.5ZM712.5,293.5C731.925,290.786 745.092,298.452 752,316.5C752.619,342.881 739.786,355.381 713.5,354C701.802,351.304 694.302,344.137 691,332.5C688.323,313.84 695.489,300.84 712.5,293.5ZM718.5,311.5C714.907,313.256 712.074,315.923 710,319.5C707.925,326.511 710.092,331.677 716.5,335C724.244,337.097 729.744,334.597 733,327.5C734.729,316.391 729.896,311.057 718.5,311.5ZM495.5,126.5C541.694,126.189 570.194,148.523 581,193.5C581.959,231.789 564.793,257.956 529.5,272C489.16,281.071 459.327,267.571 440,231.5C426.621,196.861 433.454,167.028 460.5,142C471.056,134.05 482.722,128.883 495.5,126.5ZM495.5,144.5C475.405,149.745 461.239,162.078 453,181.5C445.735,208.824 453.235,230.99 475.5,248C504.074,264.059 529.574,260.225 552,236.5C565.715,215.91 567.048,194.577 556,172.5C541.474,151.493 521.308,142.16 495.5,144.5ZM497.5,167.5C517.148,165.402 531.315,173.069 540,190.5C543.069,208.633 536.569,222.133 520.5,231C493.537,237.014 477.87,226.347 473.5,199C475.248,183.75 483.248,173.25 497.5,167.5ZM501.5,186.5C498.584,188.274 496.084,190.607 494,193.5C492.015,207.841 498.182,215.008 512.5,215C521.595,210.39 524.429,203.223 521,193.5C516.09,187.028 509.59,184.695 501.5,186.5ZM215.5,422.5C236.042,420.6 255.709,423.767 274.5,432C278.984,436.078 283.984,439.411 289.5,442C334.394,454.202 375.56,473.702 413,500.5C413.628,509.469 409.462,512.635 400.5,510C366.348,488.508 330.014,471.841 291.5,460C279.769,453.468 267.769,447.468 255.5,442C235.506,438.684 215.506,438.684 195.5,442C191.047,443.726 186.714,445.726 182.5,448C175.72,449.612 172.386,446.946 172.5,440C172.408,437.186 173.408,434.853 175.5,433C188.468,427.593 201.801,424.093 215.5,422.5ZM771.5,422.5C794.49,420.865 816.49,424.699 837.5,434C841.841,439.628 841.174,444.628 835.5,449C833.5,449.667 831.5,449.667 829.5,449C813.957,441.283 797.457,438.116 780,439.5C773.447,439.45 766.947,439.95 760.5,441C750.386,446.558 740.053,451.892 729.5,457C709.729,461.924 690.396,468.257 671.5,476C651.821,485.505 632.488,495.505 613.5,506C605.164,507.327 601.997,503.827 604,495.5L609.5,490C636.214,473.976 664.214,460.643 693.5,450C704.162,447.335 714.828,444.668 725.5,442C732.671,438.827 739.337,434.827 745.5,430C754.052,426.666 762.719,424.166 771.5,422.5ZM805.5,454.5C841.441,452.206 866.941,467.206 882,499.5C890.131,528.81 883.631,554.31 862.5,576C831.366,598.858 800.033,599.191 768.5,577C761.377,570.883 755.377,563.883 750.5,556C736.956,549.061 723.289,542.395 709.5,536C699.532,534.621 689.532,534.287 679.5,535C663.087,538.289 649.254,546.123 638,558.5L624.5,578C613.88,581.71 610.047,578.21 613,567.5C632.601,532.109 662.768,515.609 703.5,518C718.549,520.446 732.049,526.279 744,535.5C740.728,502.877 753.228,478.377 781.5,462C789.505,459.163 797.505,456.663 805.5,454.5ZM801.5,472.5C793.545,474.979 786.212,478.812 779.5,484C756.788,506.995 754.622,531.829 773,558.5C789.565,574.236 809.065,579.403 831.5,574C843.636,570.347 853.136,563.18 860,552.5C874.899,525.165 870.733,501.332 847.5,481C833.098,473.621 817.765,470.788 801.5,472.5ZM805.5,492.5C824.559,490.273 837.726,497.94 845,515.5C848.679,539.808 838.345,552.808 814,554.5C795.499,552.831 784.999,542.831 782.5,524.5C783.836,509.123 791.502,498.456 805.5,492.5ZM809.5,511.5C803.25,515.018 801.084,520.351 803,527.5C809.047,538.175 816.38,539.175 825,530.5C828.914,516.906 823.747,510.572 809.5,511.5ZM183.5,454.5C216.884,452.271 241.718,465.604 258,494.5C263.277,509.102 264.944,524.102 263,539.5C275.376,530.821 288.876,524.321 303.5,520C346.439,513.218 377.605,529.051 397,567.5C400.279,577.228 396.779,581.061 386.5,579C381.332,571.481 376.165,563.981 371,556.5C350.125,536.101 325.625,529.935 297.5,538C288.343,542.412 279.343,547.078 270.5,552C266.389,553.891 262.056,554.891 257.5,555C241.141,581.849 217.141,594.516 185.5,593C161.404,589.047 143.904,576.213 133,554.5C118.826,517.034 127.993,486.867 160.5,464C168.094,460.368 175.761,457.201 183.5,454.5ZM183.5,472.5C170.91,476.722 160.41,484.055 152,494.5C138.363,516.787 139.696,538.121 156,558.5C179.205,579.493 203.705,580.993 229.5,563C249.284,542.512 252.451,519.678 239,494.5C224.782,476.801 206.282,469.468 183.5,472.5ZM188.5,492.5C208.434,491.278 220.934,500.278 226,519.5C225.269,543.637 212.769,555.137 188.5,554C165.103,545.229 158.603,529.396 169,506.5C174.139,499.703 180.639,495.037 188.5,492.5ZM190.5,511.5C183.016,515.485 180.849,521.485 184,529.5C190.746,537.068 197.746,537.402 205,530.5C208.806,517.419 203.973,511.085 190.5,511.5Z"/>
    </g>
</svg>
