<?xml version="1.0" encoding="UTF-8" standalone="no"?>
<!DOCTYPE svg PUBLIC "-//W3C//DTD SVG 1.1//EN" "http://www.w3.org/Graphics/SVG/1.1/DTD/svg11.dtd">
<svg width="100%" height="100%" viewBox="0 0 1024 1024" version="1.1" xmlns="http://www.w3.org/2000/svg" xmlns:xlink="http://www.w3.org/1999/xlink" xml:space="preserve" xmlns:serif="http://www.serif.com/" style="fill-rule:evenodd;clip-rule:evenodd;stroke-linejoin:round;stroke-miterlimit:2;">
    <g transform="matrix(1.33501,0,0,1.33501,-161.947,-197.348)">
        <path d="M224.5,774.5C219.278,779.899 214.111,785.566 209,791.5C198.333,805.5 187.667,819.5 177,833.5C172.748,837.593 167.915,838.76 162.5,837C158.741,833.257 157.574,828.757 159,823.5C159.645,822.354 160.478,821.354 161.5,820.5C144.229,803.855 137.396,783.521 141,759.5C141.983,753.869 143.816,748.536 146.5,743.5C142.806,740.784 140.639,737.117 140,732.5C139.333,725.5 139.333,718.5 140,711.5C144.635,699.863 151.301,689.53 160,680.5C191.561,650.277 223.227,619.944 255,589.5C259.336,583.499 263.169,577.166 266.5,570.5C265.788,568.954 264.622,567.954 263,567.5C257.497,569.335 252.33,571.835 247.5,575C217.277,599.287 187.611,624.287 158.5,650C153.5,653.333 148.5,653.333 143.5,650C126.093,628.636 118.926,604.136 122,576.5C124.607,552.928 133.274,531.928 148,513.5C158.093,500.072 169.593,487.905 182.5,477C215.993,451.75 250.993,428.75 287.5,408C302.537,398.977 318.537,392.477 335.5,388.5C343.02,385.292 351.02,383.459 359.5,383C384.876,381.341 408.876,386.341 431.5,398C441.334,403.749 451.001,409.749 460.5,416C484.312,433.408 508.646,450.075 533.5,466C540.091,473.636 540.924,473.136 536,464.5C518.882,439.271 500.549,414.938 481,391.5C472.194,378.553 465.527,364.553 461,349.5C452.299,306.596 465.466,272.096 500.5,246C547.755,215.405 593.088,218.072 636.5,254C649.586,267.422 658.92,283.089 664.5,301C667.433,302.271 670.099,303.938 672.5,306C684.804,317.304 696.804,328.97 708.5,341C761.036,388.538 813.869,435.704 867,482.5C873.102,493.04 878.436,504.04 883,515.5C888.351,530.837 889.684,546.504 887,562.5C884.064,571.373 878.23,573.873 869.5,570C816.601,545.551 763.934,520.551 711.5,495C672.666,471.082 633.666,447.415 594.5,424C568.98,408.808 555.313,386.308 553.5,356.5C555.146,342.373 561.146,330.54 571.5,321C564.635,309.748 561.468,297.581 562,284.5C564.008,276.837 568.508,271.337 575.5,268C585.14,267.727 594.474,269.394 603.5,273C614.155,281.289 614.155,289.622 603.5,298C594.797,300.634 589.63,297.467 588,288.5C586.556,286.845 584.722,286.178 582.5,286.5C583.216,303.097 590.549,315.93 604.5,325C611.905,328.452 619.072,332.285 626,336.5C629.144,346.541 625.478,352.207 615,353.5C604.33,349.249 594.496,343.583 585.5,336.5C575.43,344.982 571.93,355.648 575,368.5C578.138,380.283 583.971,390.45 592.5,399C642.835,429.837 693.502,460.17 744.5,490C775.383,503.941 806.383,517.608 837.5,531C842.281,533.851 846.947,536.518 851.5,539C797.5,490.333 743.5,441.667 689.5,393C672.952,377.021 657.452,360.188 643,342.5C640.731,338.962 638.731,335.295 637,331.5C636.333,329.5 636.333,327.5 637,325.5C643.92,315.538 645.254,304.871 641,293.5C632.048,274.549 617.882,261.049 598.5,253C560.609,238.599 527.442,245.766 499,274.5C474.589,301.859 470.923,331.859 488,364.5C499.632,383.421 512.965,401.088 528,417.5C549.569,446.412 569.569,476.412 588,507.5C600.457,533.748 613.457,559.748 627,585.5C634.532,613.526 632.532,640.86 621,667.5C593.608,722.225 552.775,763.725 498.5,792C480.753,800.27 462.086,804.77 442.5,805.5C387.335,806.665 332.002,806.832 276.5,806C259.793,804.227 245.293,797.727 233,786.5C229.559,782.898 226.725,778.898 224.5,774.5ZM327.5,474.5C319.839,477.002 312.172,479.836 304.5,483C282.851,493.485 262.184,505.485 242.5,519C208.151,542.404 179.317,571.237 156,605.5C153.946,608.274 152.446,611.274 151.5,614.5C152.02,617.912 152.853,621.245 154,624.5C162.78,618.72 171.28,612.554 179.5,606C196.538,590.626 213.871,575.626 231.5,561C238.332,556.416 245.332,552.083 252.5,548C257.833,547.333 263.167,547.333 268.5,548C285.348,553.536 290.514,564.703 284,581.5C276.9,595.189 267.733,607.356 256.5,618C226.094,644.736 196.594,672.569 168,701.5C162.593,708.221 160.093,715.888 160.5,724.5C162.783,724.392 164.783,723.559 166.5,722C222.573,671.256 279.24,621.256 336.5,572C353.167,559.333 369.833,546.667 386.5,534C390.833,530.498 395.5,529.832 400.5,532C405.069,539.098 404.069,545.431 397.5,551C369.952,571.946 342.952,593.613 316.5,616C266.071,659.758 216.238,704.258 167,749.5C162.364,756.275 159.864,763.775 159.5,772C160.738,784.713 164.571,796.546 171,807.5C194.546,774.938 220.713,744.438 249.5,716C273.799,694.703 297.799,673.037 321.5,651C367.5,613.667 413.5,576.333 459.5,539C429.236,521.064 399.236,502.73 369.5,484C356.411,476.804 342.411,473.637 327.5,474.5ZM375.5,402.5C369.491,402.334 363.491,402.501 357.5,403C335.601,407.649 314.934,415.649 295.5,427C272.332,441.083 249.332,455.416 226.5,470C207.207,482.949 189.374,497.782 173,514.5C153.093,535.88 142.759,561.213 142,590.5C144.606,585.565 147.606,580.898 151,576.5C160.5,565.667 170,554.833 179.5,544C205.52,520.307 233.52,499.307 263.5,481C280.742,470.211 299.075,461.878 318.5,456C331.836,452.308 345.002,452.808 358,457.5C366.584,461.139 375.084,464.973 383.5,469L446.5,508C468.5,520.667 490.5,533.333 512.5,546C525.021,552.514 528.187,562.014 522,574.5C465.039,623.134 407.206,670.634 348.5,717C345.618,718.608 342.618,719.941 339.5,721C328.274,722.973 320.44,718.806 316,708.5C314.074,700.625 313.074,692.625 313,684.5C287.342,708.658 261.842,732.991 236.5,757.5C241.783,768.784 250.116,776.784 261.5,781.5C264.866,782.716 268.199,783.716 271.5,784.5C330.834,784.667 390.168,784.5 449.5,784C470.346,782.241 489.68,775.908 507.5,765C544.182,740.319 574.016,709.153 597,671.5C606.055,654.281 611.222,635.947 612.5,616.5C612.389,605.726 610.223,595.392 606,585.5C593.76,563.68 582.093,541.68 571,519.5C549.781,503.281 528.281,487.447 506.5,472C484.151,457.159 462.151,441.826 440.5,426C420.293,413.713 398.626,405.879 375.5,402.5ZM477.5,549.5C431.392,589.105 384.225,627.439 336,664.5C334.394,676.762 334.061,689.096 335,701.5C391.415,656.422 447.248,610.589 502.5,564C494.262,558.912 485.928,554.079 477.5,549.5ZM663.5,323.5C662.554,326.281 660.721,328.281 658,329.5C657.333,330.167 657.333,330.833 658,331.5C678.875,355.709 701.708,377.875 726.5,398C752.781,423.968 780.114,448.635 808.5,472C825.442,489.634 843.442,505.634 862.5,520C859.051,511.433 855.051,503.1 850.5,495C801.884,451.724 753.218,408.391 704.5,365C690.604,351.272 676.938,337.438 663.5,323.5ZM663.5,481.5C666.572,481.183 669.572,481.516 672.5,482.5C701.147,514.086 714.813,551.419 713.5,594.5C711.888,636.503 699.721,675.17 677,710.5C653.905,746.591 623.405,774.758 585.5,795C579.569,796.925 575.402,795.092 573,789.5C572.163,785.705 572.496,782.039 574,778.5C629.172,748.867 666.506,704.201 686,644.5C697.1,606.343 695.767,568.677 682,531.5C674.92,518.338 667.587,505.338 660,492.5C658.882,488.077 660.049,484.41 663.5,481.5Z"/>
    </g>
</svg>
