<?xml version="1.0" encoding="UTF-8" standalone="no"?>
<!DOCTYPE svg PUBLIC "-//W3C//DTD SVG 1.1//EN" "http://www.w3.org/Graphics/SVG/1.1/DTD/svg11.dtd">
<svg width="100%" height="100%" viewBox="0 0 1024 1024" version="1.1" xmlns="http://www.w3.org/2000/svg" xmlns:xlink="http://www.w3.org/1999/xlink" xml:space="preserve" xmlns:serif="http://www.serif.com/" style="fill-rule:evenodd;clip-rule:evenodd;stroke-linejoin:round;stroke-miterlimit:2;">
    <g transform="matrix(1.49711,0,0,1.49711,-291.406,-312.485)">
        <path d="M311.5,787.5C312.891,781.381 315.391,775.715 319,770.5C322.536,767.299 325.703,763.799 328.5,760C338.159,753.501 348.826,749.668 360.5,748.5C351.535,727.31 345.368,705.31 342,682.5C338.324,662.16 326.49,649.66 306.5,645C292.125,641.792 277.792,638.459 263.5,635C247.858,630.683 234.191,623.017 222.5,612C198.531,603.893 190.031,587.726 197,563.5C206.121,541.244 217.787,520.577 232,501.5C240.108,492.386 249.108,484.386 259,477.5C253.373,451.051 260.54,428.884 280.5,411C300.185,398.095 319.518,398.595 338.5,412.5C352.429,402.01 368.096,398.177 385.5,401C414.558,409.748 429.891,429.415 431.5,460C431.527,464.91 430.527,469.577 428.5,474C444.667,464.602 462,457.269 480.5,452C559.258,442.305 620.758,470.138 665,535.5C683.184,565.561 693.018,598.228 694.5,633.5C692.806,683.719 672.806,724.886 634.5,757C628.165,761.503 621.498,765.503 614.5,769C606.712,773.508 601.212,771.674 598,763.5C597.778,758.775 599.611,754.942 603.5,752C613.887,747.608 623.22,741.608 631.5,734C668.43,697.148 681.597,652.982 671,601.5C658.394,548.59 628.228,509.423 580.5,484C553.504,471.382 525.171,466.382 495.5,469C475.782,471.905 457.449,478.572 440.5,489C425.608,498.559 411.275,508.892 397.5,520C392.057,520.756 386.723,520.256 381.5,518.5C374.506,520.866 367.34,522.532 360,523.5C348.522,520.586 338.856,514.586 331,505.5C324.277,496.724 319.11,487.057 315.5,476.5C310.03,475.2 304.697,475.7 299.5,478C271.18,489.658 249.013,508.491 233,534.5C225.111,547.939 218.611,561.939 213.5,576.5C213.62,582.243 215.953,586.743 220.5,590C236.234,590.046 251.9,590.713 267.5,592C269.853,594.133 270.853,596.8 270.5,600C270.695,602.352 270.028,604.352 268.5,606C260.938,607.267 253.271,607.934 245.5,608C268.05,615.961 291.05,622.295 314.5,627C339.883,635.718 355.383,653.218 361,679.5C363.339,702.191 370.006,723.524 381,743.5C384.333,737.5 387.667,731.5 391,725.5C392.049,723.382 393.549,721.716 395.5,720.5L408.5,720.5C409.014,722.366 409.68,724.2 410.5,726C407.55,733.519 404.217,740.852 400.5,748C442.5,748.667 484.5,748.667 526.5,748C527.624,747.751 528.624,747.251 529.5,746.5C530.367,743.065 531.534,739.731 533,736.5C535.376,732.448 538.543,731.615 542.5,734C550.155,742.251 550.489,750.918 543.5,760C538.804,763.681 533.471,766.014 527.5,767C470.5,767.333 413.5,767.667 356.5,768C350.29,769.442 344.624,771.942 339.5,775.5C337.552,778.621 335.385,781.621 333,784.5C331.293,786.909 330.46,789.575 330.5,792.5C459.167,792.333 587.834,792.5 716.5,793C721.596,797.248 722.763,802.415 720,808.5C718.786,810.049 717.286,811.215 715.5,812C668.855,811.541 622.188,811.374 575.5,811.5L423.5,811.5C349.166,811.667 274.833,811.5 200.5,811C197.557,806.29 196.724,801.123 198,795.5C198.903,794.299 200.069,793.465 201.5,793C238.165,792.5 274.832,792.333 311.5,792.5L311.5,787.5ZM305.5,420.5C284.154,428.193 275.488,443.193 279.5,465.5C290.417,459.521 302.084,456.521 314.5,456.5C315.154,445.705 318.487,435.872 324.5,427C319.104,422.146 312.771,419.979 305.5,420.5ZM367.5,419.5C360.796,421.179 354.462,424.012 348.5,428C331.892,444.88 328.892,464.047 339.5,485.5C339.617,475.684 342.784,467.017 349,459.5C354.148,452.69 360.981,448.857 369.5,448C383.448,446.305 393.281,451.805 399,464.5C402.083,474.302 399.083,481.302 390,485.5C387.44,481.386 385.107,477.052 383,472.5C377.622,466.732 371.455,465.899 364.5,470C356.57,476.993 353.07,485.827 354,496.5C352.795,497.071 351.628,497.738 350.5,498.5C353.52,501.516 356.854,504.183 360.5,506.5C378.568,500.232 393.735,489.898 406,475.5C411.578,466.091 412.912,456.091 410,445.5C402.013,426.671 387.846,418.004 367.5,419.5ZM794.5,289.5C822.432,288.645 847.766,296.145 870.5,312L878,319.5C880.336,330.162 876.169,334.662 865.5,333C859.779,328.279 853.779,323.946 847.5,320C797.973,298.584 757.806,309.751 727,353.5C720.276,364.944 716.443,377.277 715.5,390.5C717.142,402.259 720.309,413.592 725,424.5C758.727,495.622 792.727,566.622 827,637.5C841.641,674.484 836.141,707.984 810.5,738C791.159,754.124 768.826,763.458 743.5,766C728.167,766.667 712.833,766.667 697.5,766C690.718,761.109 689.718,755.109 694.5,748C712.464,746.922 730.464,745.922 748.5,745C764.981,742.589 779.981,736.589 793.5,727C810.856,710.101 817.689,689.601 814,665.5C812.499,655.832 809.832,646.499 806,637.5C772.442,568.047 739.109,498.381 706,428.5C691.46,395.818 694.46,364.818 715,335.5C726.378,320.788 740.212,308.954 756.5,300C768.817,294.779 781.484,291.279 794.5,289.5ZM269.5,528.5C287.167,526.987 293.667,534.654 289,551.5C282.235,559.756 274.068,561.59 264.5,557C258.02,550.355 256.853,542.855 261,534.5C263.322,531.605 266.155,529.605 269.5,528.5ZM565.5,549.5C589.404,547.981 612.404,551.814 634.5,561C645.077,565.327 650.91,573.16 652,584.5C649.599,585.602 647.099,585.769 644.5,585C626.217,577.016 607.217,571.682 587.5,569C541.345,568.483 510.512,589.983 495,633.5C485.024,671.263 493.357,704.263 520,732.5C523.285,736.764 523.119,740.931 519.5,745C515.625,746.52 511.625,746.854 507.5,746C503.667,743.5 500.5,740.333 498,736.5C493.917,729.332 489.584,722.332 485,715.5C461.132,663.541 468.965,617.041 508.5,576C525.026,561.736 544.026,552.902 565.5,549.5ZM412.5,690.5C411.778,690.918 411.278,691.584 411,692.5C410.722,691.584 410.222,690.918 409.5,690.5C408.531,689.691 407.698,688.691 407,687.5C404.391,672.34 399.391,658.007 392,644.5C391.333,635.167 391.333,625.833 392,616.5C403.011,627.52 411.678,640.187 418,654.5C421.416,666.245 422.916,678.245 422.5,690.5L412.5,690.5Z"/>
    </g>
</svg>
