<?xml version="1.0" encoding="UTF-8" standalone="no"?>
<!DOCTYPE svg PUBLIC "-//W3C//DTD SVG 1.1//EN" "http://www.w3.org/Graphics/SVG/1.1/DTD/svg11.dtd">
<svg width="100%" height="100%" viewBox="0 0 1024 1024" version="1.1" xmlns="http://www.w3.org/2000/svg" xmlns:xlink="http://www.w3.org/1999/xlink" xml:space="preserve" xmlns:serif="http://www.serif.com/" style="fill-rule:evenodd;clip-rule:evenodd;stroke-linejoin:round;stroke-miterlimit:2;">
    <g transform="matrix(1.44207,0,0,1.44207,-247.496,-238.778)">
        <path d="M267.5,516.5C263.508,500.037 261.508,483.203 261.5,466C261.892,444.101 263.226,422.268 265.5,400.5C239.07,384.109 211.736,368.942 183.5,355C174.228,345.635 174.228,336.302 183.5,327C185.407,325.878 187.407,325.045 189.5,324.5C211.012,314.329 233.012,305.329 255.5,297.5C264.904,294.066 274.57,291.732 284.5,290.5C311.277,241.898 349.944,205.731 400.5,182C470.951,154.976 538.284,161.309 602.5,201C644.566,229.673 678.566,265.839 704.5,309.5C708.847,316.861 712.681,324.528 716,332.5C725.374,364.33 732.374,396.663 737,429.5C738.411,444.803 739.244,460.136 739.5,475.5C737.795,502.374 732.628,528.708 724,554.5C721.916,558.946 719.75,563.279 717.5,567.5C714.599,577.035 710.266,585.869 704.5,594C706.734,596.063 708.734,598.229 710.5,600.5C766.281,669.38 821.114,739.046 875,809.5C879.689,822.809 875.189,830.476 861.5,832.5C857.404,832.114 853.404,831.281 849.5,830C813.865,816.839 778.531,803.172 743.5,789C700.582,773.868 657.915,758.201 615.5,742C601.313,744.791 586.98,747.124 572.5,749C562.506,749.5 552.506,749.666 542.5,749.5L542.5,845.5C606.14,845.169 669.611,845.499 732.915,846.491C733.108,846.486 733.303,846.489 733.5,846.5C740.022,847.985 743.688,852.151 744.5,859C744.167,867.659 739.834,872.993 731.5,875C580.834,875.5 430.167,875.667 279.5,875.5C264.07,875.968 248.737,875.468 233.5,874C227.888,869.824 226.055,864.324 228,857.5C229.544,850.12 234.044,846.12 241.5,845.5L447.5,845.5L447.5,770.5C447.326,752.987 455.326,747.32 471.5,753.5C473.943,756.529 475.61,759.862 476.5,763.5L476.5,772.5C476.169,797.006 476.502,821.339 477.5,845.5L512.5,845.5C513.498,812.671 513.832,779.671 513.5,746.5C475.069,739.413 439.069,725.913 405.5,706C358.333,678.833 321.167,641.667 294,594.5C280.892,569.951 272.059,543.951 267.5,516.5ZM238.5,351.5L239.5,351.5L239.5,352.5C244.615,355.618 249.948,358.284 255.5,360.5C262.917,365.658 269.75,371.658 276,378.5C276.483,377.552 276.649,376.552 276.5,375.5C277.234,374.292 277.567,372.959 277.5,371.5C278.833,368.167 280.167,364.833 281.5,361.5C283.507,355.49 285.507,349.49 287.5,343.5L288.5,343.5C289.84,339.49 291.174,335.49 292.5,331.5C293.338,331.158 293.672,330.492 293.5,329.5C296.499,325.171 298.666,320.504 300,315.5C296.66,317.141 293.16,318.475 289.5,319.5L285.5,319.5C269.259,323.731 253.259,328.898 237.5,335C233.088,337.077 228.754,339.244 224.5,341.5C223.614,342.325 223.281,343.325 223.5,344.5C229.192,345.514 234.192,347.848 238.5,351.5ZM317.5,294.5C328.037,293.913 334.037,298.746 335.5,309C332.743,319.015 328.743,328.515 323.5,337.5C317.073,351.357 310.906,365.357 305,379.5C293.298,412.011 288.798,445.344 291.5,479.5C291.395,483.548 291.728,487.548 292.5,491.5C294.835,512.511 299.835,532.844 307.5,552.5C308.594,555.682 309.928,558.682 311.5,561.5C324.705,593.876 344.372,621.71 370.5,645C410.391,678.616 455.724,702.283 506.5,716C518.71,718.568 531.044,720.068 543.5,720.5C549.987,721.654 556.654,721.821 563.5,721C562.756,719.961 561.756,719.461 560.5,719.5C529.496,707.34 502.663,689.006 480,664.5C470.129,651.427 461.796,637.427 455,622.5C452.714,615.978 451.048,609.312 450,602.5C445.53,599.026 441.03,595.693 436.5,592.5C418.127,574.752 407.46,553.085 404.5,527.5C404.334,519.493 404.5,511.493 405,503.5C407.759,479.418 415.259,457.085 427.5,436.5C428.441,434.95 429.107,433.284 429.5,431.5C432.984,427.866 435.984,423.866 438.5,419.5C446.969,411.2 455.636,403.033 464.5,395C474.739,388.049 485.406,381.882 496.5,376.5C502.985,374.635 509.318,372.635 515.5,370.5C549.27,363.85 580.937,369.184 610.5,386.5C620.797,391.956 630.131,398.79 638.5,407C666.871,437.924 683.204,474.424 687.5,516.5C689.369,531.859 689.869,547.193 689,562.5C690.039,561.756 690.539,560.756 690.5,559.5C692.852,554.09 695.185,548.756 697.5,543.5C699.583,536.254 701.249,528.921 702.5,521.5C703.531,519.039 704.198,516.373 704.5,513.5C705.288,510.113 706.288,506.78 707.5,503.5C708.78,492.367 709.78,481.2 710.5,470C709.769,457.138 708.769,444.304 707.5,431.5C704.404,419.087 701.904,406.42 700,393.5C697.429,381.21 694.263,369.21 690.5,357.5C688.426,349.944 685.759,342.611 682.5,335.5C660.262,289.894 627.929,253.061 585.5,225C523.842,188.975 460.842,186.308 396.5,217C391.76,219.36 387.426,222.193 383.5,225.5C355.73,243.59 333.73,266.59 317.5,294.5ZM393.5,284.5C416.506,283.368 431.339,293.701 438,315.5C440.364,333.262 434.198,347.095 419.5,357C405.539,363.278 391.872,362.611 378.5,355C360.483,339.249 356.983,320.749 368,299.5C374.98,291.64 383.48,286.64 393.5,284.5ZM439.5,481.5C434.455,499.904 433.288,518.57 436,537.5C436.701,541.109 437.868,544.442 439.5,547.5C448.942,564.942 462.608,577.942 480.5,586.5C538.762,587.496 597.095,587.829 655.5,587.5C656.132,583.298 657.132,579.298 658.5,575.5C662.526,538.378 658.026,502.378 645,467.5C615.662,407.59 568.828,387.09 504.5,406C471.791,421.621 450.457,446.787 440.5,481.5L439.5,481.5ZM808.5,783.5C810.964,784.567 813.297,785.9 815.5,787.5C817.258,787.877 818.925,788.544 820.5,789.5L821.5,788.5C820.807,787.482 820.141,786.482 819.5,785.5C818.5,783.833 817.167,782.5 815.5,781.5L815.5,780.5C814.026,779.564 813.026,778.23 812.5,776.5C808.413,771.354 804.079,766.354 799.5,761.5C798.833,760.167 797.833,759.167 796.5,758.5C792.424,752.022 788.09,745.689 783.5,739.5C778.178,732.873 772.844,726.206 767.5,719.5C764.791,716.792 762.458,713.792 760.5,710.5C758.453,708.45 756.786,706.117 755.5,703.5C754.5,702.833 753.5,702.167 752.5,701.5C747.5,694.833 742.5,688.167 737.5,681.5C736.5,681.167 735.833,680.5 735.5,679.5C733.167,676.833 730.833,674.167 728.5,671.5C723.888,664.222 718.888,657.222 713.5,650.5C709.793,647.424 706.793,643.758 704.5,639.5L703.5,639.5L703.5,638.5C698.399,633.064 694.066,627.064 690.5,620.5L689.5,620.5C687.518,620.005 685.518,619.505 683.5,619C620.168,618.5 556.834,618.333 493.5,618.5C489.5,617.833 487.833,619.5 488.5,623.5C489.773,625.713 490.773,628.046 491.5,630.5C497.79,638.792 504.457,646.792 511.5,654.5L511.5,655.5L512.5,655.5C517.803,661.786 523.803,667.119 530.5,671.5C537.704,675.597 544.704,679.93 551.5,684.5C553.216,684.629 554.883,684.962 556.5,685.5C557.287,687.104 558.62,687.771 560.5,687.5C563.256,689.204 566.256,690.537 569.5,691.5C582.075,697.138 594.741,702.472 607.5,707.5C611.562,708.632 615.562,709.965 619.5,711.5C626.752,714.362 634.085,717.029 641.5,719.5C641.5,720.167 641.833,720.5 642.5,720.5C649.421,723.13 656.421,725.464 663.5,727.5C669.405,730.289 675.405,732.956 681.5,735.5L684.5,735.5C692.294,738.564 699.96,741.897 707.5,745.5C720.77,750.368 734.103,755.034 747.5,759.5C753.864,762.673 760.53,765.34 767.5,767.5L767.5,768.5C772.595,769.88 777.595,771.547 782.5,773.5C787.596,776.205 792.929,778.538 798.5,780.5C801.844,781.508 805.177,782.508 808.5,783.5Z"/>
    </g>
</svg>
