<?xml version="1.0" encoding="UTF-8" standalone="no"?>
<!DOCTYPE svg PUBLIC "-//W3C//DTD SVG 1.1//EN" "http://www.w3.org/Graphics/SVG/1.1/DTD/svg11.dtd">
<svg width="100%" height="100%" viewBox="0 0 1024 1024" version="1.1" xmlns="http://www.w3.org/2000/svg" xmlns:xlink="http://www.w3.org/1999/xlink" xml:space="preserve" xmlns:serif="http://www.serif.com/" style="fill-rule:evenodd;clip-rule:evenodd;stroke-linejoin:round;stroke-miterlimit:2;">
    <g transform="matrix(1.55427,0,0,1.55427,-302.436,-287.026)">
        <path d="M730.5,659.5C733.915,667.925 731.248,673.759 722.5,677C696.833,677.667 671.167,677.667 645.5,677C639.282,675.445 635.949,671.445 635.5,665C635.679,658.954 638.679,655.288 644.5,654C671.167,653.333 697.833,653.333 724.5,654C725.416,654.278 726.082,654.778 726.5,655.5C728.833,655.833 730.167,657.167 730.5,659.5ZM341.5,702.5C339.565,703.15 337.565,703.483 335.5,703.5C314.18,704.571 292.847,704.738 271.5,704C261.841,703.005 252.508,700.838 243.5,697.5C234.792,694.78 230.459,688.78 230.5,679.5C231.285,672.034 234.952,666.367 241.5,662.5C266.946,634.063 291.613,605.063 315.5,575.5C315.833,574.833 316.167,574.167 316.5,573.5C345.078,534.372 369.078,492.372 388.5,447.5C398.27,428.286 407.27,408.62 415.5,388.5C426.393,362.715 436.727,336.715 446.5,310.5C453.7,292.234 460.7,273.9 467.5,255.5C470.601,245.793 476.268,237.959 484.5,232C495.833,223 507.167,214 518.5,205C526.608,200.28 534.941,196.113 543.5,192.5C545.684,190.415 548.351,189.415 551.5,189.5C595.543,178.078 635.21,186.911 670.5,216C673.704,219.036 676.704,222.203 679.5,225.5C688.675,234.185 696.175,244.185 702,255.5C706.435,265.809 710.269,276.309 713.5,287C747.562,302.782 781.395,318.948 815,335.5C818.157,340.43 818.324,345.43 815.5,350.5L815.5,351.5C812.621,355.58 808.621,357.58 803.5,357.5L708.5,357.5C706.576,357.711 706.243,358.377 707.5,359.5L707.5,367.5C708.915,383.472 709.915,399.472 710.5,415.5C711.281,527.203 661.948,607.369 562.5,656C558.578,657.798 554.578,659.298 550.5,660.5C548.147,662.343 545.48,663.677 542.5,664.5C516.926,674.477 490.592,681.811 463.5,686.5C450.996,688.764 438.329,690.764 425.5,692.5C405.962,695.734 386.296,697.734 366.5,698.5C366.662,700.527 366.495,702.527 366,704.5C352.447,736.273 339.447,768.273 327,800.5C326.503,802.81 326.337,805.143 326.5,807.5C328.337,812.015 331.337,815.681 335.5,818.5C352.426,819.651 369.426,819.818 386.5,819C398.933,818.199 406.433,811.699 409,799.5C412.085,783.764 416.252,768.43 421.5,753.5L421.5,751.5C423.027,741.387 425.194,731.387 428,721.5C431.248,716.118 436.081,713.118 442.5,712.5C448.273,713.977 454.107,714.977 460,715.5C475.538,715.048 491.038,714.215 506.5,713C520.528,708.071 531.361,699.238 539,686.5C544.763,678.498 552.263,676.332 561.5,680C570.384,687.449 570.717,695.116 562.5,703C559.048,703.892 556.048,705.558 553.5,708C549.124,714.044 543.79,719.044 537.5,723C528.922,727.456 520.256,731.623 511.5,735.5C509.852,736.927 507.852,737.76 505.5,738C486.17,738.5 466.836,738.667 447.5,738.5C442.478,761.588 436.978,784.588 431,807.5C430.626,809.491 429.793,811.158 428.5,812.5C423.464,826.535 413.797,835.868 399.5,840.5C395.584,841.645 391.584,842.478 387.5,843C370.833,843.667 354.167,843.667 337.5,843C319.703,839.865 308.203,829.698 303,812.5C302.333,808.833 302.333,805.167 303,801.5C307.767,785.986 313.6,770.986 320.5,756.5C323.776,747.004 327.443,737.67 331.5,728.5C333.988,721.69 336.655,715.023 339.5,708.5C339.971,706.421 340.637,704.421 341.5,702.5ZM259.5,679.5C264.337,679.116 269.003,679.783 273.5,681.5C279.194,677.32 285.194,673.654 291.5,670.5C303.139,663.678 314.806,656.845 326.5,650C368.28,623.381 407.28,593.214 443.5,559.5C445.167,557.5 446.833,555.5 448.5,553.5C457.936,544.404 466.603,534.737 474.5,524.5C495.457,496.996 508.457,465.996 513.5,431.5C514.022,428.432 514.855,425.432 516,422.5C522.333,414.5 528.667,414.5 535,422.5C536.125,442.997 532.625,462.664 524.5,481.5C521.479,491.206 517.146,500.206 511.5,508.5C510.62,511.262 509.454,513.929 508,516.5C491.341,542.786 471.174,566.119 447.5,586.5C447.5,587.167 447.167,587.5 446.5,587.5C412.588,619.618 375.588,647.618 335.5,671.5C335.027,672.906 334.027,673.573 332.5,673.5C329.436,675.533 326.103,677.199 322.5,678.5C325,678.833 327.5,679.167 330,679.5C380.226,675.601 430.059,668.934 479.5,659.5L481.5,659.5C491.031,656.698 500.697,654.032 510.5,651.5C528.403,644.97 546.07,637.637 563.5,629.5C591.89,614.527 616.723,594.86 638,570.5C655.588,548.657 668.421,524.323 676.5,497.5C678.996,486.182 681.496,474.849 684,463.5C688.123,433.24 688.623,402.907 685.5,372.5C684.356,368.036 683.69,363.37 683.5,358.5C682.041,358.567 680.708,358.234 679.5,357.5C667.495,357.333 655.495,357.5 643.5,358C618.42,361.604 601.253,375.104 592,398.5C591.883,450.513 578.55,498.846 552,543.5C532.268,572.739 509.435,599.405 483.5,623.5C479.975,627.183 475.975,630.35 471.5,633C458.182,635.683 452.682,630.183 455,616.5C455.785,614.714 456.951,613.214 458.5,612C461.464,609.19 464.798,607.024 468.5,605.5C490.03,585.645 509.364,563.979 526.5,540.5C527.833,538.5 529.167,536.5 530.5,534.5C537.647,522.539 543.98,510.206 549.5,497.5C555.444,481.044 560.444,464.377 564.5,447.5C566.511,427.849 568.344,408.182 570,388.5C581.251,359.62 602.085,342.12 632.5,336C674.477,334.718 716.477,334.051 758.5,334C742.956,327.058 727.622,319.892 712.5,312.5C706.032,311.359 700.699,308.359 696.5,303.5C690.635,294.422 686.801,284.422 685,273.5C683.412,269.328 681.579,265.328 679.5,261.5C674.247,253.905 668.58,246.572 662.5,239.5C655.02,232.265 646.687,226.265 637.5,221.5C633.086,218.789 628.419,216.289 623.5,214C607.934,208.721 591.934,206.554 575.5,207.5C564.735,210.197 554.069,213.53 543.5,217.5L539.5,221.5C521.171,231.975 504.671,244.975 490,260.5C476.449,300.247 461.282,339.247 444.5,377.5C436.628,396.917 428.461,416.25 420,435.5C412.315,452.204 404.148,468.537 395.5,484.5C380.053,517.405 362.053,548.739 341.5,578.5C341.167,579.5 340.5,580.167 339.5,580.5C316.057,612.456 290.891,643.123 264,672.5C262.489,674.862 260.989,677.195 259.5,679.5ZM621.5,299.5C617.246,298.415 614.413,295.748 613,291.5C609.928,274.465 616.762,267.965 633.5,272C634.942,272.377 635.942,273.21 636.5,274.5C643.208,270.049 650.208,269.549 657.5,273C663.169,279.511 664.002,286.678 660,294.5C657.374,297.231 654.207,299.064 650.5,300C640.658,300.825 630.991,300.658 621.5,299.5Z"/>
    </g>
</svg>
