<?xml version="1.0" encoding="UTF-8" standalone="no"?>
<!DOCTYPE svg PUBLIC "-//W3C//DTD SVG 1.1//EN" "http://www.w3.org/Graphics/SVG/1.1/DTD/svg11.dtd">
<svg width="100%" height="100%" viewBox="0 0 1024 1024" version="1.1" xmlns="http://www.w3.org/2000/svg" xmlns:xlink="http://www.w3.org/1999/xlink" xml:space="preserve" xmlns:serif="http://www.serif.com/" style="fill-rule:evenodd;clip-rule:evenodd;stroke-linejoin:round;stroke-miterlimit:2;">
    <g transform="matrix(1.303,0,0,1.303,-111.566,-238.433)">
        <path d="M491.5,237.5C514.961,237.267 536.295,243.767 555.5,257C570.457,268.614 586.457,278.614 603.5,287C621.557,293.738 640.223,296.405 659.5,295C676.094,300.419 680.928,311.253 674,327.5C655.423,366.32 636.59,404.987 617.5,443.5C629.393,456.946 639.56,471.613 648,487.5C666.893,449.874 691.059,416.041 720.5,386C732.938,374.613 746.605,364.946 761.5,357C791.121,345.604 818.455,349.604 843.5,369C857.384,382.602 865.551,399.102 868,418.5C868.666,431.522 868.333,444.522 867,457.5C863.316,475.571 859.316,493.571 855,511.5C850.547,535.899 854.88,558.566 868,579.5C869.955,584.321 871.122,589.321 871.5,594.5C869.827,604.86 867.993,615.194 866,625.5C865.797,661.857 866.464,698.19 868,734.5C859.686,775.642 834.519,797.309 792.5,799.5C776.279,799.149 761.279,794.649 747.5,786C717.374,764.875 691.541,739.375 670,709.5C660.665,695.501 651.832,681.168 643.5,666.5C635.358,679.805 627.024,692.971 618.5,706C635.634,744.105 653.468,781.938 672,819.5C676.789,832.422 672.622,840.922 659.5,845C645.833,845.333 632.167,845.667 618.5,846C602.961,847.442 588.961,852.775 576.5,862C564.763,875.739 551.763,888.073 537.5,899C514.467,912.283 489.801,916.95 463.5,913C434.693,908.399 408.36,897.732 384.5,881C378.41,874.907 371.744,869.573 364.5,865C346.197,847.682 330.53,828.349 317.5,807C261.5,806.667 205.5,806.333 149.5,806C116.867,801.367 96.033,783.2 87,751.5C83.166,733.655 87.333,718.155 99.5,705C107.853,698.882 117.186,696.882 127.5,699C131.049,699.774 134.382,701.107 137.5,703C166.5,703.667 195.5,703.667 224.5,703C242.131,701.032 253.297,691.532 258,674.5C261.726,656.446 255.893,642.279 240.5,632C237.595,630.714 234.595,629.714 231.5,629C189.473,628.017 147.473,627.017 105.5,626C92.064,620.144 85.73,609.811 86.5,595C86.754,585.236 89.254,576.07 94,567.5C127.132,513.832 168.299,466.998 217.5,427C240.501,409.489 265.168,394.489 291.5,382C302.127,377.735 312.794,373.569 323.5,369.5C332.913,352.333 343.08,335.666 354,319.5C375.401,292.412 401.234,270.912 431.5,255C450.818,246.389 470.818,240.556 491.5,237.5ZM475.5,709.5C474.374,715.042 472.541,720.376 470,725.5C444.744,773.889 404.911,801.056 350.5,807C378.599,848.752 417.266,875.085 466.5,886C496.331,889.282 521.497,880.115 542,858.5C546.792,851.374 552.625,845.207 559.5,840C584.326,823.448 611.659,815.948 641.5,817.5C626.547,786.926 611.547,756.26 596.5,725.5C558.297,760.619 514.631,787.119 465.5,805C458.529,807.756 452.362,806.589 447,801.5C442.176,794.469 442.343,787.636 447.5,781C479.718,769.557 510.385,754.891 539.5,737C562.106,721.737 582.272,703.571 600,682.5C609.755,670.671 617.755,657.671 624,643.5C630.528,636.101 638.694,633.268 648.5,635C657.276,638.776 663.776,644.942 668,653.5C679.261,674.367 692.261,694.034 707,712.5C721.993,731.497 739.493,747.664 759.5,761C772.437,768.987 786.437,771.987 801.5,770C826.816,763.841 839.816,747.674 840.5,721.5C838.335,700.197 836.669,678.864 835.5,657.5C836.463,634.88 838.796,612.38 842.5,590C840.497,581.826 836.997,574.326 832,567.5C828.577,559.477 826.244,551.143 825,542.5C823.848,515.38 827.848,489.047 837,463.5C841.666,444.821 841.666,426.154 837,407.5C823.055,381.455 801.888,372.955 773.5,382C761.937,387.614 751.603,394.947 742.5,404C708.862,438.422 682.029,477.588 662,521.5C655.93,529.317 648.763,530.484 640.5,525C631.463,513.098 623.296,500.598 616,487.5C590.803,451.32 557.969,424.154 517.5,406C457.431,381.526 396.098,377.859 333.5,395C310.963,403.435 289.296,413.768 268.5,426C209.195,464.304 161.028,513.471 124,573.5C119.12,581.247 115.953,589.58 114.5,598.5C151.835,598.333 189.168,598.5 226.5,599C263.997,605.75 284.663,628.084 288.5,666C286.066,698.087 269.732,719.421 239.5,730C197.534,731.466 155.534,731.966 113.5,731.5C113.335,735.182 113.501,738.848 114,742.5C117.214,760.712 127.714,772.212 145.5,777C217.803,778.648 290.136,778.981 362.5,778C375.144,775.012 387.144,770.346 398.5,764C422.916,747.316 440.25,725.149 450.5,697.5C451.651,692.91 452.484,688.243 453,683.5C453.667,633.167 453.667,582.833 453,532.5C449.046,518.925 442.713,506.591 434,495.5L428,483.5C426.419,477.938 427.919,473.438 432.5,470C440.293,465.827 447.126,466.993 453,473.5C457.939,482.101 463.272,490.435 469,498.5C475.714,509.313 480.048,520.98 482,533.5C482.667,582.833 482.667,632.167 482,681.5C481.807,691.43 479.641,700.763 475.5,709.5ZM291.5,451.5C323.314,449.861 345.481,463.528 358,492.5C366.27,523.617 357.104,548.117 330.5,566C296.536,582.01 269.036,574.51 248,543.5C231.866,508.86 239.366,480.694 270.5,459C277.209,455.295 284.209,452.795 291.5,451.5ZM293.5,480.5C274.397,487.027 266.23,500.36 269,520.5C272.489,532.32 279.989,540.153 291.5,544C319.837,545.996 333.337,532.829 332,504.5C325.239,487.025 312.406,479.025 293.5,480.5ZM661.5,588.5C677.355,587.927 683.521,595.26 680,610.5C674.199,618.873 666.699,620.707 657.5,616C649.838,608.182 649.504,600.016 656.5,591.5C658.396,590.725 660.063,589.725 661.5,588.5ZM665.5,525.5C675.586,525.203 681.253,530.037 682.5,540C680.676,551.493 674.01,556.493 662.5,555C653.013,549.902 650.513,542.402 655,532.5C657.998,529.262 661.498,526.929 665.5,525.5ZM541.5,514.5C572.541,520.8 594.707,538.467 608,567.5C620.636,609.39 609.802,643.89 575.5,671C567.819,675.842 559.819,680.175 551.5,684C537.004,686.82 529.838,680.987 530,666.5C530.883,663.898 532.383,661.731 534.5,660C565.434,650.799 582.434,630.132 585.5,598C584.552,577.434 575.552,561.434 558.5,550C549.943,546.472 541.776,542.305 534,537.5C528.357,527.049 530.857,519.383 541.5,514.5ZM485.5,265.5C473.263,268.189 461.263,272.022 449.5,277C412.615,295.717 383.615,322.884 362.5,358.5C363,358.833 363.5,359.167 364,359.5C394.839,354.209 425.673,354.376 456.5,360C509.6,368.476 556.434,389.976 597,424.5C599.61,418.947 601.943,413.281 604,407.5C617.844,379.281 631.677,351.114 645.5,323C643.566,322.988 641.566,323.155 639.5,323.5C599.993,318.515 565.659,302.681 536.5,276C520.528,267.591 503.528,264.091 485.5,265.5Z"/>
    </g>
</svg>
