<?xml version="1.0" encoding="UTF-8" standalone="no"?>
<!DOCTYPE svg PUBLIC "-//W3C//DTD SVG 1.1//EN" "http://www.w3.org/Graphics/SVG/1.1/DTD/svg11.dtd">
<svg width="100%" height="100%" viewBox="0 0 1024 1024" version="1.1" xmlns="http://www.w3.org/2000/svg" xmlns:xlink="http://www.w3.org/1999/xlink" xml:space="preserve" xmlns:serif="http://www.serif.com/" style="fill-rule:evenodd;clip-rule:evenodd;stroke-linejoin:round;stroke-miterlimit:2;">
    <g transform="matrix(1.4219,0,0,1.4219,-248.226,-218.041)">
        <path d="M276.5,720.5C266.182,707.75 260.016,693.084 258,676.5C255.64,623.063 275.14,579.563 316.5,546C325.844,538.49 335.844,531.99 346.5,526.5C366.86,515.987 388.526,509.32 411.5,506.5C405.977,489.986 403.644,472.986 404.5,455.5C388.431,454.566 373.431,450.066 359.5,442C344.189,433.514 330.856,422.681 319.5,409.5C285.207,373.541 268.707,330.541 270,280.5C275.102,246.765 291.602,220.265 319.5,201C340.13,186.416 363.13,178.082 388.5,176C412.5,175.667 436.5,175.333 460.5,175C485.925,153.869 514.592,148.202 546.5,158C564.218,162.846 581.884,167.846 599.5,173C617.611,176.907 635.611,181.24 653.5,186C675.495,197.259 683.661,215.092 678,239.5C669.011,267.769 649.845,284.602 620.5,290C604.545,293.159 588.545,295.992 572.5,298.5C553.187,303.42 533.52,304.92 513.5,303C497.856,300.008 483.523,294.008 470.5,285C467,282.666 464,279.832 461.5,276.5C436.164,276.333 410.831,276.5 385.5,277C377.632,277.872 372.466,282.039 370,289.5C368.48,303.754 371.813,316.754 380,328.5C391.987,344.148 407.487,354.648 426.5,360C419.253,368.747 412.586,377.913 406.5,387.5C392.378,375.993 378.878,363.659 366,350.5C359.045,341.59 353.378,331.924 349,321.5C344.248,307.648 343.581,293.648 347,279.5C352.331,264.501 362.831,255.667 378.5,253C401.167,252.667 423.833,252.333 446.5,252C440.274,240.586 438.107,228.42 440,215.5C441.028,210.078 442.028,204.745 443,199.5C423.573,200.327 404.073,200.827 384.5,201C346.964,206.563 319.464,226.063 302,259.5C296.307,273.658 294.307,288.325 296,303.5C301.292,349.067 322.125,385.567 358.5,413C371.02,421.51 384.686,427.51 399.5,431C402.817,431.498 406.15,431.665 409.5,431.5C411.276,421.83 414.609,412.83 419.5,404.5C419.893,402.716 420.559,401.05 421.5,399.5C439.879,369.127 466.545,350.293 501.5,343C558.13,341.354 614.796,341.02 671.5,342C676.047,342.429 680.381,343.262 684.5,344.5C685.791,344.263 686.791,344.596 687.5,345.5C710.033,350.218 729.7,360.385 746.5,376C754.93,385.04 762.764,394.54 770,404.5C775.073,413.313 779.573,422.313 783.5,431.5C796.669,470.827 791.502,507.494 768,541.5C756.954,555.391 743.454,566.058 727.5,573.5C717.233,578.367 706.566,582.033 695.5,584.5C691.181,585.035 686.848,585.535 682.5,586C626.833,586.667 571.167,586.667 515.5,586C507.732,584.946 500.065,583.446 492.5,581.5C481.933,578.879 472.267,574.546 463.5,568.5C447.354,559.026 434.021,546.36 423.5,530.5C402.616,531.388 382.616,536.054 363.5,544.5C361.5,545.833 359.5,547.167 357.5,548.5C324.998,565.505 302.165,591.172 289,625.5C285.655,635.423 283.155,645.423 281.5,655.5C281.377,662.529 281.71,669.529 282.5,676.5C289.664,707.163 308.664,725.997 339.5,733C354.534,733.924 369.534,734.924 384.5,736C389.895,740.295 391.729,745.795 390,752.5C389.315,755.057 387.815,756.891 385.5,758C370.5,758.667 355.5,758.667 340.5,758C313.808,754.441 292.475,741.941 276.5,720.5ZM509.5,177.5C502.88,178.977 496.213,180.81 489.5,183C460.178,199.925 454.012,223.091 471,252.5C486.931,270.657 507.098,279.657 531.5,279.5C546.292,278.727 560.958,276.893 575.5,274C595.614,271.149 615.28,266.482 634.5,260C644.744,254.338 651.244,245.838 654,234.5C656.732,222.665 652.899,213.831 642.5,208C623.3,202.826 603.967,198.16 584.5,194C568.113,189.538 551.78,184.871 535.5,180C526.928,178.178 518.261,177.345 509.5,177.5ZM589.5,214.5C596.841,214.334 604.174,214.5 611.5,215C617.062,216.265 620.228,219.765 621,225.5C622.734,233.181 619.901,238.014 612.5,240C605.5,240.667 598.5,240.667 591.5,240C588.865,238.039 587.031,235.539 586,232.5C585.333,228.167 585.333,223.833 586,219.5C586.997,217.677 588.164,216.01 589.5,214.5ZM534.5,194.5C552.254,197.775 561.254,208.608 561.5,227C561.092,236.567 557.759,244.9 551.5,252C544.268,255.575 537.268,255.241 530.5,251C522.79,244.957 516.957,237.457 513,228.5C512.352,212.112 519.519,200.778 534.5,194.5ZM430.5,478.5C431.46,487.465 433.626,496.132 437,504.5C451.969,536.304 476.802,554.971 511.5,560.5C568.471,561.488 625.471,561.821 682.5,561.5C687.306,560.407 692.306,559.741 697.5,559.5C730.948,550.221 752.781,528.887 763,495.5C767.709,473.432 765.542,452.099 756.5,431.5C748.608,413.277 736.941,397.944 721.5,385.5C713.013,380.756 704.346,376.256 695.5,372C687.495,369.57 679.495,367.736 671.5,366.5C619.846,365.536 568.18,365.203 516.5,365.5C511.595,366.572 506.595,367.238 501.5,367.5C460.239,379.282 436.406,406.616 430,449.5C429.218,459.214 429.385,468.88 430.5,478.5ZM525.5,453.5C521.696,454.782 518.529,457.115 516,460.5C510.624,474.541 514.457,485.207 527.5,492.5C537.886,493.001 548.219,493.834 558.5,495C564.713,504.365 563.046,512.032 553.5,518C521.264,522.649 499.764,509.815 489,479.5C485.796,461.781 490.962,446.947 504.5,435L511.5,431.5C513.389,430.678 515.389,429.845 517.5,429C567.833,428.333 618.167,428.333 668.5,429C694.159,433.985 706.326,449.485 705,475.5C699.963,499.869 685.13,514.036 660.5,518C653.5,518.667 646.5,518.667 639.5,518C631.547,512.685 629.381,505.518 633,496.5L635.5,494C645.13,492.88 654.796,492.214 664.5,492C671.974,489.86 676.807,485.026 679,477.5C681.682,462.491 675.516,454.491 660.5,453.5L525.5,453.5ZM383.5,858.5C368.859,860.621 354.526,864.454 340.5,870C327.167,870.667 313.833,870.667 300.5,870C295.424,861.731 295.258,853.231 300,844.5C304.688,832.981 311.855,823.314 321.5,815.5C329.976,806.895 339.976,800.395 351.5,796C372.882,788.523 394.882,783.857 417.5,782C471.461,778.003 525.461,774.67 579.5,772C587.098,769.659 589.098,765.159 585.5,758.5C536.237,757.671 486.904,757.171 437.5,757C431.652,753.495 429.485,748.328 431,741.5C432.66,736.332 436.16,733.665 441.5,733.5C489.997,732.501 538.664,732.168 587.5,732.5C588.568,733.434 589.901,733.768 591.5,733.5C596.786,735.141 601.453,737.808 605.5,741.5C612.947,749.364 615.447,758.697 613,769.5C610.146,780.354 603.646,788.188 593.5,793C586.695,795.301 579.695,796.634 572.5,797C524.431,798.903 476.431,801.737 428.5,805.5C410.119,807.564 391.786,810.731 373.5,815C360.587,818.291 348.92,823.958 338.5,832C334.682,835.973 331.349,840.306 328.5,845C330,845.167 331.5,845.333 333,845.5C343.92,843.061 354.754,840.228 365.5,837C374.075,835.18 382.741,834.346 391.5,834.5C430.039,832.276 468.372,834.276 506.5,840.5C513.724,840.865 520.724,841.865 527.5,843.5C538.839,844.889 550.172,846.389 561.5,848C585.335,850.539 607.002,845.039 626.5,831.5C650.009,811.805 661.675,786.472 661.5,755.5C661.39,738.338 656.556,722.671 647,708.5C642.706,702.373 637.873,696.706 632.5,691.5C627.362,688.763 622.362,685.763 617.5,682.5C609.278,678.65 600.611,676.65 591.5,676.5C586.36,675.512 581.026,675.179 575.5,675.5C505.331,675.833 435.331,675.499 365.5,674.5C346.574,672.736 336.574,662.236 335.5,643C336.463,636.111 338.63,629.611 342,623.5C360.741,600.26 383.908,582.927 411.5,571.5C416.898,577.947 421.564,584.947 425.5,592.5C403.066,601.131 383.566,614.131 367,631.5C364.777,634.779 362.943,638.279 361.5,642C362.82,645.987 365.487,648.654 369.5,650C441.499,650.5 513.499,650.667 585.5,650.5C619.038,653.181 646.205,667.515 667,693.5C669.112,696.727 670.945,700.06 672.5,703.5C681.09,718.274 686.09,734.274 687.5,751.5C687.949,783.903 677.282,811.903 655.5,835.5C649.09,843.246 641.757,849.913 633.5,855.5C626.677,859.911 619.344,863.244 611.5,865.5C598.861,870.987 585.528,873.654 571.5,873.5C564.798,873.443 558.132,872.943 551.5,872C531.728,868.575 512.062,865.409 492.5,862.5C456.252,859.132 419.918,857.799 383.5,858.5ZM761.5,282.5L740.5,282.5C740.232,284.099 740.566,285.432 741.5,286.5C741.666,295.173 741.5,303.84 741,312.5C738.516,323.162 732.016,326.662 721.5,323C718.894,321.062 717.061,318.562 716,315.5C715.5,304.839 715.333,294.172 715.5,283.5C701.774,287.319 693.44,282.486 690.5,269C690.314,262.864 692.98,258.53 698.5,256C704.157,255.501 709.824,255.334 715.5,255.5C715.083,246.085 715.583,236.752 717,227.5C719.212,223.724 722.545,221.724 727,221.5C734.306,221.253 738.973,224.586 741,231.5C741.698,239.528 741.532,247.528 740.5,255.5C748.174,255.334 755.841,255.5 763.5,256C771.67,259.843 774.17,266.009 771,274.5C768.869,278.47 765.702,281.137 761.5,282.5ZM764.5,695.5C774.223,692.943 780.723,696.276 784,705.5C784.5,714.494 784.666,723.494 784.5,732.5C791.574,732.161 798.574,732.661 805.5,734C813.5,741.667 813.5,749.333 805.5,757C798.245,758.225 790.911,758.892 783.5,759C784.652,769.423 784.819,779.923 784,790.5C780.672,799.913 774.172,803.08 764.5,800C760.381,797.261 758.214,793.427 758,788.5C757.5,778.506 757.334,768.506 757.5,758.5C749.16,758.666 740.827,758.5 732.5,758C725.748,751.908 724.248,744.741 728,736.5L730.5,734C739.418,732.586 748.418,732.086 757.5,732.5C757.334,722.828 757.5,713.161 758,703.5C759.277,700.062 761.443,697.395 764.5,695.5Z"/>
    </g>
</svg>
