<?xml version="1.0" encoding="UTF-8" standalone="no"?>
<!DOCTYPE svg PUBLIC "-//W3C//DTD SVG 1.1//EN" "http://www.w3.org/Graphics/SVG/1.1/DTD/svg11.dtd">
<svg width="100%" height="100%" viewBox="0 0 1024 1024" version="1.1" xmlns="http://www.w3.org/2000/svg" xmlns:xlink="http://www.w3.org/1999/xlink" xml:space="preserve" xmlns:serif="http://www.serif.com/" style="fill-rule:evenodd;clip-rule:evenodd;stroke-linejoin:round;stroke-miterlimit:2;">
    <g transform="matrix(1.44199,0,0,1.44199,-251.109,-222.746)">
        <path d="M866.5,504.5C859.024,526.128 847.024,544.795 830.5,560.5C812.883,576.315 792.549,587.481 769.5,594C756.252,597.097 742.918,599.764 729.5,602C700.642,603.831 673.475,597.998 648,584.5C643.516,588.464 640.849,593.464 640,599.5C639.333,619.167 639.333,638.833 640,658.5C650.891,681.725 668.058,698.558 691.5,709C712.776,715.426 733.443,713.759 753.5,704C786.727,702.057 817.727,709.391 846.5,726C881.196,751.981 887.029,783.481 864,820.5C844.369,851.067 816.535,864.567 780.5,861C764.844,855.009 753.344,844.509 746,829.5C744.027,816.231 749.527,811.397 762.5,815C775.995,840.274 795.328,845.941 820.5,832C842.497,817.839 853.33,797.673 853,771.5C852.261,767.615 850.927,763.948 849,760.5C840.385,748.89 829.218,740.724 815.5,736C795.877,728.341 775.544,725.341 754.5,727C741.583,728.65 728.916,731.316 716.5,735C702.431,736.815 689.097,734.482 676.5,728C651.256,715.424 633.756,695.924 624,669.5C623.475,663.157 623.641,656.823 624.5,650.5C624.281,646.242 623.615,642.076 622.5,638C624.22,632.633 624.72,627.133 624,621.5C622.807,619.395 621.14,617.728 619,616.5C614.52,596.85 619.353,580.017 633.5,566C641.498,562.071 649.832,561.404 658.5,564C685.983,578.523 714.983,582.523 745.5,576C769.777,571.357 791.777,561.691 811.5,547C834.344,527.811 846.344,503.311 847.5,473.5C848.205,452.754 840.538,435.921 824.5,423C805.933,412.386 786.6,410.719 766.5,418C744.619,430.972 736.786,449.806 743,474.5C747.414,479.656 751.081,485.323 754,491.5C755.764,502.392 751.264,507.559 740.5,507C728.267,497.047 720.767,484.214 718,468.5C715.404,432.773 730.571,407.939 763.5,394C808.314,382.662 841.814,397.162 864,437.5C871.704,459.555 872.538,481.888 866.5,504.5ZM710.5,383.5C702.035,411.102 688.868,436.102 671,458.5C669.119,462.307 667.953,466.307 667.5,470.5C666.53,479.954 668.697,488.62 674,496.5C684.938,514.221 700.772,524.221 721.5,526.5C748.104,524.954 766.604,511.954 777,487.5C777.667,484.5 777.667,481.5 777,478.5C763.682,476.848 758.682,469.514 762,456.5C767.803,449.954 774.636,448.788 782.5,453C801.147,461.928 806.647,476.094 799,495.5C786.61,525.302 764.444,543.135 732.5,549C716.086,551.25 700.752,548.25 686.5,540C667.012,527.858 653.512,511.025 646,489.5C641.587,473.15 643.92,457.817 653,443.5C668.629,423.583 680.629,401.583 689,377.5C705.577,303.504 682.743,245.004 620.5,202C573.539,175.673 524.539,171.006 473.5,188C415.363,213.822 381.863,258.322 373,321.5C371.065,348.554 375.398,374.554 386,399.5C396.237,417.409 406.904,435.076 418,452.5C424.377,471.864 422.043,490.197 411,507.5C392.45,533.952 366.783,547.952 334,549.5C302.316,546.135 277.316,531.468 259,505.5C243.167,483.001 239.5,458.668 248,432.5C263.415,406.42 283.249,402.42 307.5,420.5C312.915,402.148 306.915,388.648 289.5,380C259.466,369.942 235.3,377.775 217,403.5C203.828,426.368 200.161,450.702 206,476.5C216.969,521.13 243.469,552.63 285.5,571C318.557,579.898 351.891,580.898 385.5,574C396.648,570.729 407.648,567.062 418.5,563C441.58,556.795 458.413,564.295 469,585.5C471.519,594.822 472.686,604.322 472.5,614C474.888,647.643 466.055,677.81 446,704.5C429.54,723.039 409.04,731.039 384.5,728.5C381.761,731.233 379.427,734.233 377.5,737.5C365.52,750.788 357.187,766.122 352.5,783.5C349.798,812.993 362.798,831.826 391.5,840C408.496,842.337 423.496,838.003 436.5,827C445.76,815.844 448.26,803.344 444,789.5C441.667,784.833 439.333,780.167 437,775.5C436.167,776.5 435.333,777.5 434.5,778.5C424.143,781.013 416.143,786.846 410.5,796C402.665,800.598 396.499,799.098 392,791.5C391.262,787.739 391.595,784.072 393,780.5C395.333,777.5 397.667,774.5 400,771.5C402.833,769.333 405.667,767.167 408.5,765C425.202,756.993 441.868,748.993 458.5,741C477.89,727.938 491.724,710.438 500,688.5C504.096,675.355 507.429,662.022 510,648.5C517.032,621.412 533.865,611.579 560.5,619C571.652,625.499 579.152,634.999 583,647.5C590.763,685.217 608.93,716.717 637.5,742C656.056,757.857 677.556,766.691 702,768.5C707.867,768.384 713.7,767.884 719.5,767C735.107,763.598 750.441,759.265 765.5,754C786.604,749.229 804.437,754.729 819,770.5C822.577,777.211 821.41,783.044 815.5,788C812.262,789.368 808.928,789.701 805.5,789C800.732,784.231 795.399,780.231 789.5,777C782.509,775.054 775.509,775.054 768.5,777C750.977,783.547 732.977,788.214 714.5,791C695.828,792.831 677.828,790.165 660.5,783C621.888,763.722 593.388,734.555 575,695.5C569.33,679.477 563.663,663.477 558,647.5C555.666,642.811 551.999,640.144 547,639.5C541.04,639.783 537.04,642.783 535,648.5C530.461,665.659 525.461,682.659 520,699.5C507.656,730.842 486.156,753.342 455.5,767C458.333,768.5 460.5,770.667 462,773.5C474.925,802.639 469.425,827.806 445.5,849C408.066,873.36 374.232,869.193 344,836.5C328.222,814.278 324.888,790.278 334,764.5C339.465,750.225 346.965,737.225 356.5,725.5C336.897,719.452 316.897,717.618 296.5,720C289.691,721.987 283.525,725.154 278,729.5C271.823,738.786 273.656,745.619 283.5,750C288.192,755.693 289.692,762.193 288,769.5C282.666,788.495 270.166,799.329 250.5,802C232.033,804.066 216.533,798.233 204,784.5C189.622,765.978 184.288,744.978 188,721.5C198.462,685.698 220.962,660.531 255.5,646C277.776,636.565 300.776,634.232 324.5,639C336.826,641.997 349.16,644.997 361.5,648C388.651,649.841 409.485,639.341 424,616.5C429.232,606.371 434.732,596.371 440.5,586.5C434.95,584.708 429.283,584.208 423.5,585C382.856,602.442 340.856,606.775 297.5,598C256.094,587.919 224.261,564.753 202,528.5C184.146,498.56 177.48,466.226 182,431.5C188.128,396.398 207.295,371.564 239.5,357C266.674,348.141 291.674,352.141 314.5,369C337.474,391.907 339.307,416.407 320,442.5C314.763,446.821 309.263,447.321 303.5,444C296.838,436.449 288.504,432.782 278.5,433C271.034,436.417 266.868,442.25 266,450.5C265.001,473.821 273.501,492.988 291.5,508C302.116,516.641 314.116,522.641 327.5,526C354.884,527.391 376.384,516.891 392,494.5C399.305,482.272 400.305,469.605 395,456.5C371.923,427.337 357.256,394.337 351,357.5C344.984,282.37 373.151,223.87 435.5,182C477.611,156.203 522.945,148.537 571.5,159C633.254,173.081 677.42,208.914 704,266.5C719.541,304.746 721.707,343.746 710.5,383.5ZM447.5,622.5C427.822,655.979 398.488,672.145 359.5,671C343.65,666.746 327.65,663.079 311.5,660C275.007,657.712 245.507,670.879 223,699.5C210.762,715.78 207.096,733.78 212,753.5C218.354,771.867 231.187,780.701 250.5,780C259.271,778.317 264.271,773.15 265.5,764.5C262.675,764.919 260.509,763.919 259,761.5C247.671,741.1 250.838,723.267 268.5,708C287.483,697.175 307.817,693.508 329.5,697C347.467,700.55 365.467,703.883 383.5,707C391.646,707.991 399.646,707.324 407.5,705C417.107,700.402 425.274,693.902 432,685.5C444.65,666.218 449.816,645.218 447.5,622.5ZM593.5,359.5C608.444,358.534 620.944,363.534 631,374.5C641.879,393.296 639.046,409.796 622.5,424C605.696,434.75 589.862,433.583 575,420.5C557.701,392.905 563.867,372.572 593.5,359.5ZM596.5,382.5C585.97,390.216 585.97,398.049 596.5,406C602.694,407.711 607.86,406.211 612,401.5C615.128,388.457 609.961,382.124 596.5,382.5ZM452.5,359.5C473.977,357.975 488.143,367.308 495,387.5C496.032,417.467 481.532,431.634 451.5,430C437.259,424.713 428.759,414.546 426,399.5C423.569,385.864 427.735,374.697 438.5,366C443.022,363.335 447.689,361.169 452.5,359.5ZM455.5,382.5C447.4,388.546 446.4,395.713 452.5,404C459.796,408.156 465.963,406.99 471,400.5C473.617,387.944 468.45,381.944 455.5,382.5Z"/>
    </g>
</svg>
