<?xml version="1.0" encoding="UTF-8" standalone="no"?>
<!DOCTYPE svg PUBLIC "-//W3C//DTD SVG 1.1//EN" "http://www.w3.org/Graphics/SVG/1.1/DTD/svg11.dtd">
<svg width="100%" height="100%" viewBox="0 0 1024 1024" version="1.1" xmlns="http://www.w3.org/2000/svg" xmlns:xlink="http://www.w3.org/1999/xlink" xml:space="preserve" xmlns:serif="http://www.serif.com/" style="fill-rule:evenodd;clip-rule:evenodd;stroke-linejoin:round;stroke-miterlimit:2;">
    <g transform="matrix(1.32698,0,0,1.32698,-184.495,-159.357)">
        <path d="M220.5,718.5C216.83,715.019 213.497,711.186 210.5,707C193.17,706.5 175.837,706.333 158.5,706.5C156.193,705.023 154.36,703.023 153,700.5C152.304,696.095 152.637,691.761 154,687.5C161.51,673.17 170.01,659.503 179.5,646.5C172.291,646.545 164.957,646.379 157.5,646C154.624,645.562 151.957,644.562 149.5,643C138.227,632.689 136.06,620.856 143,607.5C155.503,587.022 166.17,565.689 175,543.5C180.47,523.286 185.47,502.953 190,482.5C201.209,441.591 218.709,403.758 242.5,369C228.4,348.306 216.234,326.473 206,303.5C197.683,283.9 192.017,263.567 189,242.5C184.815,204.518 199.649,177.185 233.5,160.5C254.058,152.741 274.724,152.574 295.5,160C311.548,166.189 326.548,174.189 340.5,184C354.645,195.311 368.645,206.811 382.5,218.5C438.008,194.117 496.008,184.284 556.5,189C571.566,191.28 586.566,193.946 601.5,197C623.555,203.139 645.389,209.972 667,217.5C680.822,206.347 694.656,195.18 708.5,184C728.069,169.717 749.735,160.051 773.5,155C802.046,152.178 825.879,161.345 845,182.5C857.91,201.609 862.577,222.609 859,245.5C854.887,269.84 847.553,293.174 837,315.5C827.657,333.526 817.824,351.193 807.5,368.5C828.214,401.605 844.381,436.938 856,474.5C861.54,497.199 867.206,519.866 873,542.5C878.279,555.002 883.946,567.336 890,579.5C896.667,591.5 903.333,603.5 910,615.5C912.18,626.294 909.347,635.46 901.5,643C900.167,643.667 898.833,644.333 897.5,645C889.197,646.018 880.864,646.685 872.5,647C881.877,660.92 891.377,674.754 901,688.5C904.058,695.647 902.558,701.481 896.5,706C876.833,706.333 857.167,706.667 837.5,707C798.237,755.912 749.904,793.245 692.5,819C605.879,859.375 516.212,867.875 423.5,844.5C378.529,833.008 337.196,814.008 299.5,787.5C290.952,783.396 283.286,778.063 276.5,771.5C255.231,756.563 236.564,738.897 220.5,718.5ZM506.5,213.5C486.827,216.158 467.16,219.658 447.5,224C467.302,248.168 483.469,274.668 496,303.5C506.962,334.22 515.795,365.554 522.5,397.5C527.294,378.608 531.794,359.608 536,340.5C541.67,321.156 548.337,302.156 556,283.5C566.533,262.254 578.699,242.087 592.5,223C564.368,215.335 535.701,212.168 506.5,213.5ZM641.5,433.5C618.533,437.401 599.7,448.401 585,466.5C564.071,496.509 559.737,528.842 572,563.5C585.175,593.682 605.341,618.182 632.5,637C658.889,654.514 687.889,661.847 719.5,659C746.095,656.125 767.595,644.292 784,623.5C799.042,601.906 802.375,578.573 794,553.5C787.939,540.373 780.606,528.04 772,516.5C759.304,501.808 746.638,487.141 734,472.5C710.051,443.67 679.218,430.67 641.5,433.5ZM651.5,464.5C687.554,465.561 707.554,483.894 711.5,519.5C708.985,554.348 690.318,573.348 655.5,576.5C621.383,572.716 602.716,553.716 599.5,519.5C602.137,493.714 615.47,476.214 639.5,467C643.699,466.472 647.699,465.639 651.5,464.5ZM649.5,493.5C644.107,496.296 639.274,499.963 635,504.5C627.246,519.647 629.746,532.813 642.5,544C661.096,551.36 674.263,545.86 682,527.5C683.923,503.923 673.089,492.59 649.5,493.5ZM257.5,181.5C238.279,185.552 225.445,196.886 219,215.5C216.891,229.545 217.224,243.545 220,257.5C229.183,289.194 242.683,318.861 260.5,346.5C264.014,341.491 268.014,336.991 272.5,333C257.092,306.997 245.926,279.163 239,249.5C237.628,241.875 237.294,234.208 238,226.5C244.392,206.108 258.226,196.942 279.5,199C299.945,204.642 315.779,216.475 327,234.5C332.194,243.511 331.027,251.677 323.5,259C316.919,262.949 311.086,262.116 306,256.5C302.076,246.584 295.909,238.417 287.5,232C269.78,222.38 262.614,227.546 266,247.5C274.336,277.502 287.003,305.502 304,331.5C305.111,336.611 304.111,341.278 301,345.5C294.071,350.425 287.738,356.092 282,362.5C241.933,411.298 217.766,466.965 209.5,529.5C227.847,523.75 243.013,513.417 255,498.5C270.374,478.12 286.874,458.62 304.5,440C333.985,412.957 368.652,401.957 408.5,407C451.945,415.784 482.111,440.617 499,481.5C513.39,533.216 504.057,580.216 471,622.5C451.854,645.657 428.688,663.49 401.5,676C402.604,687.918 406.104,699.084 412,709.5C426.954,730.737 447.454,742.904 473.5,746C504.833,746.667 536.167,746.667 567.5,746C574.902,744.65 582.235,742.983 589.5,741C621.045,729.457 638.212,706.957 641,673.5C626.96,665.453 613.46,656.62 600.5,647C576.948,627.374 559.115,603.541 547,575.5C529.447,529.525 535.113,486.859 564,447.5C605.525,405.262 653.692,395.428 708.5,418C723.57,426.068 737.236,436.068 749.5,448C766.478,468.975 784.145,489.308 802.5,509C809.167,513.667 815.833,518.333 822.5,523C828.208,526.023 834.208,528.189 840.5,529.5C839.247,520.07 837.414,510.737 835,501.5C828.833,476.662 820.499,452.662 810,429.5C795.159,395.999 774.159,366.999 747,342.5C744.826,339.454 744.159,336.12 745,332.5C757.754,312.994 768.421,292.327 777,270.5C781.655,257.895 783.988,244.895 784,231.5C782.64,229.895 781.14,228.395 779.5,227C773.692,226.266 768.359,227.599 763.5,231C754.318,238.196 747.151,247.03 742,257.5C738.51,261.047 734.343,262.214 729.5,261C720.299,253.357 718.466,244.191 724,233.5C727.787,228.044 731.954,222.877 736.5,218C740.88,213.952 745.546,210.285 750.5,207C772.29,193.273 791.456,196.106 808,215.5C812.689,226.479 813.689,237.812 811,249.5C803.593,279.4 792.093,307.567 776.5,334C780.66,338.327 784.994,342.493 789.5,346.5C796.602,333.961 803.436,321.294 810,308.5C820.564,286.576 827.564,263.576 831,239.5C832.324,225.448 829.324,212.448 822,200.5C803.635,181.354 782.135,176.854 757.5,187C727.99,202.093 702.657,222.427 681.5,248C677.782,250.298 673.782,250.965 669.5,250C654.316,243.331 638.982,237.164 623.5,231.5C622.833,231.833 622.167,232.167 621.5,232.5C595.355,264.115 576.522,299.781 565,339.5C559.225,363.158 553.558,386.825 548,410.5C544.336,423.004 536.17,430.337 523.5,432.5C512.19,431.019 503.69,425.352 498,415.5C492.711,396.344 488.045,377.011 484,357.5C472.452,310.902 451.286,269.402 420.5,233C416.817,233.555 413.15,234.555 409.5,236C397.359,241.657 385.025,246.824 372.5,251.5C368.894,249.397 365.727,246.731 363,243.5C346.7,224.544 327.867,208.378 306.5,195C291.409,185.913 275.076,181.413 257.5,181.5ZM484.5,702.5C469.347,691.854 462.514,677.188 464,658.5C465.926,645.243 472.093,634.41 482.5,626C486.387,622.889 490.72,620.556 495.5,619C512.824,617.054 530.157,617.054 547.5,619C562.711,623.208 573.211,632.708 579,647.5C581.437,655.541 581.937,663.541 580.5,671.5C577.819,689.004 568.152,700.504 551.5,706C531.833,706.667 512.167,706.667 492.5,706C489.69,705.094 487.024,703.927 484.5,702.5ZM504.5,678.5C517.504,678.667 530.504,678.5 543.5,678C545.848,677.654 547.681,676.487 549,674.5C555.873,651.531 547.373,642.198 523.5,646.5C516.833,646.667 510.167,646.833 503.5,647C492.807,653.657 490.64,662.491 497,673.5C498.73,675.402 500.563,677.069 502.5,678.5L504.5,678.5ZM397.5,808.5C506.53,844.954 611.196,835.121 711.5,779C755.028,754.479 791.362,721.812 820.5,681C823.101,680.08 825.768,679.413 828.5,679C838.167,678.667 847.833,678.333 857.5,678C851.064,665.956 845.564,653.456 841,640.5C840.592,634.462 841.926,628.795 845,623.5C846.938,620.894 849.438,619.061 852.5,618C861.833,617.667 871.167,617.333 880.5,617C872.273,603.378 864.44,589.545 857,575.5C855,570.167 853,564.833 851,559.5C840.856,557.448 831.022,554.615 821.5,551C829.764,572.647 829.264,594.147 820,615.5C800.606,657.481 767.772,681.315 721.5,687C711.833,687.667 702.167,687.667 692.5,687C684.578,685.343 676.578,684.176 668.5,683.5C660.101,731.401 632.101,760.567 584.5,771C577.19,772.164 569.856,773.164 562.5,774C533.5,774.667 504.5,774.667 475.5,774C424.228,768.712 391.061,741.545 376,692.5C375.174,689.207 374.674,685.874 374.5,682.5C312.528,696.582 264.695,676.915 231,623.5C217.911,600.1 216.077,575.933 225.5,551C218.621,553.293 211.621,555.626 204.5,558C202.19,558.497 199.857,558.663 197.5,558.5C196.582,564.423 194.748,570.09 192,575.5C185.069,589.567 177.569,603.234 169.5,616.5C179.555,617.075 189.555,617.908 199.5,619C207.473,624.463 210.307,631.963 208,641.5C202.923,653.648 198.423,665.982 194.5,678.5C203.506,678.334 212.506,678.5 221.5,679C224.63,681.128 227.463,683.628 230,686.5C236.667,695.329 243.5,703.996 250.5,712.5C266.251,728.254 282.918,742.921 300.5,756.5C329.087,776.797 359.754,793.464 392.5,806.5C394.403,806.796 396.07,807.463 397.5,808.5ZM379.5,433.5C365.772,435.467 352.772,439.967 340.5,447C327.116,456.046 315.283,466.88 305,479.5C295.093,493.411 284.427,506.744 273,519.5C268.085,526.328 263.419,533.328 259,540.5C252.54,552.005 248.706,564.339 247.5,577.5C252.508,617.351 274.175,643.518 312.5,656C370.522,665.074 417.356,646.241 453,599.5C473.75,571.426 481.417,540.093 476,505.5C462.843,456.192 430.676,432.192 379.5,433.5ZM377.5,465.5C412.814,463.384 434.648,479.384 443,513.5C443.06,548.447 425.893,569.28 391.5,576C358.614,575.646 338.447,559.48 331,527.5C328.996,501.003 339.829,481.836 363.5,470C368.286,468.478 372.952,466.978 377.5,465.5ZM380.5,493.5C370.939,497.226 364.106,503.893 360,513.5C357.977,528.288 363.477,539.121 376.5,546C395.115,550.944 407.615,544.444 414,526.5C414.979,503.313 403.812,492.313 380.5,493.5Z"/>
    </g>
</svg>
