<?xml version="1.0" encoding="UTF-8" standalone="no"?>
<!DOCTYPE svg PUBLIC "-//W3C//DTD SVG 1.1//EN" "http://www.w3.org/Graphics/SVG/1.1/DTD/svg11.dtd">
<svg width="100%" height="100%" viewBox="0 0 1024 1024" version="1.1" xmlns="http://www.w3.org/2000/svg" xmlns:xlink="http://www.w3.org/1999/xlink" xml:space="preserve" xmlns:serif="http://www.serif.com/" style="fill-rule:evenodd;clip-rule:evenodd;stroke-linejoin:round;stroke-miterlimit:2;">
    <g transform="matrix(1.35642,0,0,1.35642,-229.923,-147.951)">
        <path d="M185.5,306.5C170.63,278.578 166.13,248.911 172,217.5C179.631,179.567 200.465,151.733 234.5,134C262.784,122.87 290.451,124.203 317.5,138C332.884,148.027 348.884,157.027 365.5,165C385.083,171.516 405.083,173.183 425.5,170C447.653,164.903 469.986,160.57 492.5,157C526.796,152.784 561.129,152.451 595.5,156C623.602,160.353 651.602,165.353 679.5,171C704.855,173.195 728.522,167.862 750.5,155C759.437,149.727 768.103,144.06 776.5,138C809.953,120.306 842.619,121.639 874.5,142C899.712,159.588 915.546,183.422 922,213.5C924.635,230.916 925.135,248.249 923.5,265.5C922.791,272.956 921.458,280.289 919.5,287.5C908.775,312.944 894.942,336.611 878,358.5C873.177,365.482 869.011,372.816 865.5,380.5C864.502,404.328 864.169,428.328 864.5,452.5L864.5,607.5C864.804,639.525 864.471,671.525 863.5,703.5C859.618,730.882 844.285,748.049 817.5,755C796.924,759.156 776.257,762.822 755.5,766C709.872,773.061 679.039,798.228 663,841.5C657.096,847.972 650.262,849.139 642.5,845C637.619,838.679 635.786,831.512 637,823.5C643.18,801.638 655.013,783.471 672.5,769C689.055,754.554 708.055,744.554 729.5,739C755.526,734.464 781.526,729.798 807.5,725C819.509,722.435 827.009,715.268 830,703.5C830.186,651.451 830.853,599.451 832,547.5C816.892,581.614 794.059,609.447 763.5,631C777.829,633.644 781.663,641.477 775,654.5C771.541,658.395 767.208,660.061 762,659.5C752.343,659.115 743.177,656.782 734.5,652.5C731.831,667.501 725.665,680.835 716,692.5C701.918,707.928 686.085,721.095 668.5,732C660.977,743.862 652.31,754.862 642.5,765C623.764,779.804 602.43,788.138 578.5,790C556.889,790.82 535.445,790.666 514.168,789.536C513.952,789.553 513.73,789.541 513.5,789.5C476.336,787.101 449.336,769.434 432.5,736.5C424.243,730.079 415.576,724.246 406.5,719C394.667,709.833 384.167,699.333 375,687.5C369.883,679.158 367.883,670.158 369,660.5C370.29,655.601 372.29,651.268 375,647.5C360.767,653.603 345.934,657.936 330.5,660.5C318.538,658.361 314.038,651.361 317,639.5C320.221,633.302 325.388,630.302 332.5,630.5C304.966,606.474 282.466,578.474 265,546.5C265.324,597.755 265.657,649.088 266,700.5C266.798,710.27 271.298,717.77 279.5,723C295.958,731.063 312.292,739.396 328.5,748C341.445,756.612 354.111,765.612 366.5,775C377.648,784.779 378.314,795.113 368.5,806C361.995,808.263 355.662,807.929 349.5,805C340.102,794.82 329.769,785.82 318.5,778C301.089,767.961 283.089,758.961 264.5,751C247.911,741.995 238.078,728.162 235,709.5C234.667,601.167 234.333,492.833 234,384.5C225.174,367.512 214.841,351.512 203,336.5C198.333,329.167 193.667,321.833 189,314.5C187.546,311.929 186.38,309.262 185.5,306.5ZM889.5,274.5C897.389,243.451 892.889,214.451 876,187.5C856.051,159.739 829.885,151.239 797.5,162C780.667,172.585 763.667,182.918 746.5,193C725.622,201.424 703.956,204.757 681.5,203C654.525,198.173 627.525,193.506 600.5,189C573.599,185.687 546.599,184.687 519.5,186C488.829,188.945 458.496,193.945 428.5,201C402.111,206.586 376.444,204.253 351.5,194C336.225,187.364 322.225,178.697 309.5,168C297.309,160.827 284.142,156.994 270,156.5C250.676,159.498 234.676,168.498 222,183.5C197.494,218.275 194.994,254.609 214.5,292.5C217.736,298.637 221.236,304.637 225,310.5C236.923,326.013 247.59,342.346 257,359.5C266.516,338.133 277.849,317.8 291,298.5C294.815,291.868 297.815,284.868 300,277.5C301.406,270.896 300.072,264.896 296,259.5C289.981,251.981 283.148,245.315 275.5,239.5C273.142,241.024 271.309,243.024 270,245.5C266.749,260.004 266.916,274.504 270.5,289C270.483,292.383 269.65,295.55 268,298.5C260.438,304.057 253.104,303.724 246,297.5C233.559,270.434 234.892,244.101 250,218.5C257.595,208.95 267.428,204.783 279.5,206C294.707,213.373 307.874,223.54 319,236.5C331.258,250.786 335.258,267.119 331,285.5C329.056,291.165 327.222,296.832 325.5,302.5C318.195,315.768 310.362,328.768 302,341.5C285.538,370.387 273.705,401.053 266.5,433.5C265.732,434.263 265.232,435.263 265,436.5C264.333,440.167 264.333,443.833 265,447.5C276.583,515.011 308.583,570.678 361,614.5C361.862,616.087 362.529,617.754 363,619.5C366.469,616.015 370.636,614.015 375.5,613.5C375.335,610.482 375.502,607.482 376,604.5C381.022,589.119 387.689,574.453 396,560.5C404.766,549.731 414.266,539.564 424.5,530C466.483,497.421 484.316,454.588 478,401.5C476.689,387.885 470.189,377.718 458.5,371C444.854,366.544 430.854,364.044 416.5,363.5C401.438,363.339 387.772,367.505 375.5,376L359.5,392C351.939,396.992 344.772,396.492 338,390.5C333.072,382.158 333.739,374.158 340,366.5C354.573,348.798 373.073,337.631 395.5,333C415.002,330.5 434.336,331.5 453.5,336C482.535,341.032 500.701,357.866 508,386.5C513.178,412.372 512.178,438.039 505,463.5C495.172,501.031 475.005,531.531 444.5,555C431.356,566.473 420.856,579.973 413,595.5C403.525,628.418 412.692,654.584 440.5,674C459.849,683.06 479.515,683.727 499.5,676C523.52,666.813 534.52,649.313 532.5,623.5C514.945,616.226 505.945,602.893 505.5,583.5C493.95,585.793 484.117,582.793 476,574.5C468.049,561.608 470.549,551.442 483.5,544C491.373,542.501 498.706,543.834 505.5,548C512.417,555.254 519.583,562.087 527,568.5C532.622,576.123 538.956,583.123 546,589.5C547.092,592.044 547.759,594.711 548,597.5C549.085,594.121 550.418,590.788 552,587.5C562.786,573.714 574.619,560.88 587.5,549C589.901,546.938 592.567,545.271 595.5,544C618.062,541.225 626.229,550.725 620,572.5C611.18,582.218 600.347,585.718 587.5,583C587.806,597.05 582.806,609.05 572.5,619C569.386,621.854 565.719,623.021 561.5,622.5C558.221,642.751 564.888,658.584 581.5,670C596.382,678.71 612.382,682.043 629.5,680C645.922,678.456 659.588,671.623 670.5,659.5C685.138,638.973 688.805,616.64 681.5,592.5C671.345,571.838 656.678,555.004 637.5,542C608.742,512.122 592.909,476.288 590,434.5C586.471,409.335 590.804,385.668 603,363.5C609.029,352.469 617.862,344.636 629.5,340C638.738,337.571 648.071,335.571 657.5,334C675.681,330.129 693.681,330.795 711.5,336C726.874,342.209 740.207,351.375 751.5,363.5C755.071,366.973 757.904,370.973 760,375.5C760.887,380.072 760.22,384.405 758,388.5C750.167,396.7 741.667,397.533 732.5,391C714.069,367.409 690.069,359.075 660.5,366C639.795,368.041 627.295,379.207 623,399.5C616.261,431.79 621.261,462.123 638,490.5C650.512,508.351 665.178,524.351 682,538.5C694.104,551.104 703.604,565.438 710.5,581.5C715.684,590.888 719.518,600.888 722,611.5C725.424,613.918 729.09,615.918 733,617.5C744.005,608.159 754.672,598.492 765,588.5C803.825,546.499 825.491,496.832 830,439.5C820.211,392.749 801.545,350.082 774,311.5C769.883,303.813 766.55,295.813 764,287.5C761.046,273.687 762.379,260.354 768,247.5C778.213,231.62 791.38,218.787 807.5,209C824.966,202.49 838.466,207.323 848,223.5C858.244,244.129 859.911,265.463 853,287.5C851.645,292.38 849.145,296.547 845.5,300C832.988,305.078 825.988,300.911 824.5,287.5C826.948,275.202 827.115,262.869 825,250.5C824.356,245.872 822.19,242.205 818.5,239.5C812.101,244.61 806.268,250.277 801,256.5C792.036,266.99 791.369,277.99 799,289.5C808.584,304.332 817.917,319.332 827,334.5C832.135,343.103 836.468,352.103 840,361.5C843.064,355.04 846.397,348.707 850,342.5C859.667,327.833 869.333,313.167 879,298.5C883.013,290.594 886.513,282.594 889.5,274.5ZM606.5,749.5C622.627,741.702 633.96,729.368 640.5,712.5C637.781,712.346 634.781,712.346 631.5,712.5C598.356,715.36 569.856,705.027 546,681.5C545.654,683.848 544.487,685.681 542.5,687C531.601,694.619 519.934,700.952 507.5,706C491.317,711.764 474.65,713.931 457.5,712.5C462.176,730.681 473.176,743.515 490.5,751C500.446,755.07 510.779,757.403 521.5,758C542.905,759.128 564.238,758.461 585.5,756C592.779,754.599 599.779,752.432 606.5,749.5ZM411.5,374.5C443.526,374.527 460.193,390.527 461.5,422.5C459.192,467.652 438.192,479.486 398.5,458C379.257,440.612 372.757,419.445 379,394.5C386.765,382.867 397.598,376.2 411.5,374.5ZM410.5,406.5C406.062,422.829 412.062,433.162 428.5,437.5C429.544,428.861 429.711,420.194 429,411.5C423.542,407.426 417.375,405.759 410.5,406.5ZM673.5,375.5C688.663,373.245 701.829,377.245 713,387.5C720.588,398.459 722.588,410.459 719,423.5C711.494,453.859 691.994,468.693 660.5,468C652.42,464.921 646.586,459.421 643,451.5C636.495,435.077 635.829,418.411 641,401.5C646.959,386.704 657.793,378.037 673.5,375.5ZM680.5,405.5C676.767,407.203 673.1,409.203 669.5,411.5C668.518,420.156 668.518,428.823 669.5,437.5C672.691,436.908 675.691,435.741 678.5,434C684.119,429.948 687.619,424.448 689,417.5C691.246,409.674 688.413,405.674 680.5,405.5Z"/>
    </g>
</svg>
