<?xml version="1.0" encoding="UTF-8" standalone="no"?>
<!DOCTYPE svg PUBLIC "-//W3C//DTD SVG 1.1//EN" "http://www.w3.org/Graphics/SVG/1.1/DTD/svg11.dtd">
<svg width="100%" height="100%" viewBox="0 0 1024 1024" version="1.1" xmlns="http://www.w3.org/2000/svg" xmlns:xlink="http://www.w3.org/1999/xlink" xml:space="preserve" xmlns:serif="http://www.serif.com/" style="fill-rule:evenodd;clip-rule:evenodd;stroke-linejoin:round;stroke-miterlimit:2;">
    <g transform="matrix(1.54404,0,0,1.54404,-309.753,-383.412)">
        <path d="M748.5,256.5C749.511,260.112 749.678,263.779 749,267.5C733.784,306.616 713.951,342.95 689.5,376.5C685.585,381.282 681.418,385.949 677,390.5C676.626,391.416 676.126,392.25 675.5,393C692.689,389.131 710.022,385.464 727.5,382C751.063,377.878 774.397,378.878 797.5,385C822.788,392.296 842.288,407.129 856,429.5C871.952,469.691 863.452,503.691 830.5,531.5C803.924,549.629 774.424,557.963 742,556.5C702.906,555.825 664.073,552.325 625.5,546C617.362,544.7 609.362,542.867 601.5,540.5C600.502,548.472 600.169,556.472 600.5,564.5C604.299,565.047 608.132,565.381 612,565.5C620.601,565.025 629.101,564.192 637.5,563C661.352,582.762 685.019,602.762 708.5,623C715.032,627.514 721.698,631.848 728.5,636C735.09,643.365 735.09,650.698 728.5,658C724.445,660.34 720.111,661.007 715.5,660C688.167,636.667 660.833,613.333 633.5,590C630.793,588.943 627.96,588.443 625,588.5C617.183,589.244 609.35,589.577 601.5,589.5C601.953,619.872 601.12,650.205 599,680.5C596.338,706.812 588.672,731.479 576,754.5C569.602,762.573 561.769,768.74 552.5,773C550.866,773.494 549.199,773.66 547.5,773.5C547.667,815.168 547.5,856.835 547,898.5C541.835,910.781 534.501,912.448 525,903.5C524.529,901.754 523.862,900.087 523,898.5C522.5,857.168 522.333,815.835 522.5,774.5C510.466,772.227 500.632,766.227 493,756.5C488.129,748.756 483.796,740.756 480,732.5C473.843,710.89 469.843,688.89 468,666.5C467.824,641.124 467.324,615.791 466.5,590.5C458.695,589.523 450.861,588.856 443,588.5C439.41,588.472 435.91,588.972 432.5,590C410.5,608.667 388.5,627.333 366.5,646C363.961,648.37 361.628,650.87 359.5,653.5C355.975,656.431 351.975,658.598 347.5,660C335.199,659.945 330.699,653.778 334,641.5C334.883,638.898 336.383,636.731 338.5,635C344.108,631.724 349.442,628.057 354.5,624C377.833,604.333 401.167,584.667 424.5,565C427.967,562.214 431.634,561.88 435.5,564C445.828,564.5 456.161,564.666 466.5,564.5L466.5,540.5C417.108,549.821 367.275,555.155 317,556.5C275.32,557.651 241.32,542.318 215,510.5C194.417,477.018 195.917,444.685 219.5,413.5C237.306,395.264 258.973,384.43 284.5,381C322.098,379.204 358.764,384.371 394.5,396.5L395.5,395.5C364.275,356.739 339.441,314.072 321,267.5C319.347,261.622 320.847,256.788 325.5,253C332.134,250.355 337.967,251.521 343,256.5C362.881,310.809 392.714,358.642 432.5,400C448.623,413.902 466.29,425.569 485.5,435C486.211,436.255 487.044,437.421 488,438.5C491.5,435.667 495,432.833 498.5,430C478.64,418.092 470.473,400.592 474,377.5C478.968,358.369 490.801,346.036 509.5,340.5C504.493,328.65 497.993,317.65 490,307.5C478.281,296.444 466.614,285.444 455,274.5C451.191,268.431 451.691,262.931 456.5,258C462.255,255.97 467.922,256.304 473.5,259C500.45,279.101 521.116,304.268 535.5,334.5C547.87,305.62 566.203,281.12 590.5,261C593.382,259.392 596.382,258.059 599.5,257C614.027,256.523 618.194,263.023 612,276.5C600.73,285.767 590.064,295.767 580,306.5C572.116,315.9 565.616,326.234 560.5,337.5C565.921,340.4 571.255,343.567 576.5,347C593.109,358.471 600.276,374.304 598,394.5C595.017,410.693 586.183,422.193 571.5,429C573.67,430.586 576.004,431.92 578.5,433C580.049,434.214 581.215,435.714 582,437.5C594.912,428.626 608.078,420.126 621.5,412C669.818,368.983 704.652,316.816 726,255.5C733.912,248.743 741.412,249.077 748.5,256.5ZM295.5,403.5C281.418,404.861 268.085,409.028 255.5,416C222.575,438.21 216.408,466.376 237,500.5C253.788,518.81 274.621,528.977 299.5,531C354.77,532.706 409.436,527.873 463.5,516.5C458.67,495.157 461.337,474.823 471.5,455.5C462.975,449.066 453.642,443.9 443.5,440C422.053,431.407 400.387,423.407 378.5,416C351.447,407.936 323.78,403.769 295.5,403.5ZM524.5,358.5C515.713,360.421 508.213,364.754 502,371.5C494.016,384.569 495.516,396.403 506.5,407C527.418,418.519 547.751,417.352 567.5,403.5C577.6,389.901 576.266,377.401 563.5,366C551.232,359.844 538.232,357.344 524.5,358.5ZM753.5,403.5C696.889,409.236 643.889,426.236 594.5,454.5C606.058,474.514 609.391,495.847 604.5,518.5C659.693,529.122 715.36,532.955 771.5,530C794.584,527.044 813.75,516.877 829,499.5C844.869,472.955 842.702,448.122 822.5,425C802.325,409.121 779.325,401.954 753.5,403.5ZM527.5,441.5C507.277,447.388 493.777,460.388 487,480.5C483.891,490.256 485.224,499.256 491,507.5C491.333,557.833 491.667,608.167 492,658.5C492.408,668.185 493.075,677.852 494,687.5C496.063,704.759 501.063,721.092 509,736.5C511.785,741.619 515.618,745.786 520.5,749C536.403,756.255 548.903,752.421 558,737.5C568.035,716.685 574.035,694.685 576,671.5C576.125,618.823 576.792,566.157 578,513.5C582.232,500.949 582.566,488.283 579,475.5C570.009,452.071 552.842,440.737 527.5,441.5ZM626.5,633.5C631.702,632.756 636.369,633.923 640.5,637C669.167,663 697.833,689 726.5,715C731.996,718.916 737.663,722.582 743.5,726C751.109,733.707 751.442,741.707 744.5,750C740.339,752.793 736.006,753.126 731.5,751C702.386,725.722 673.719,699.888 645.5,673.5C644.315,683.243 642.648,692.91 640.5,702.5C641.054,704.61 641.888,706.61 643,708.5C677.066,741.236 711.733,773.236 747,804.5C747.862,806.087 748.529,807.754 749,809.5C749.527,825.845 749.86,842.179 750,858.5C747.9,869.125 741.733,872.958 731.5,870C727.339,866.846 724.839,862.679 724,857.5C723.833,843.155 723.333,828.822 722.5,814.5C686.549,782.051 651.049,749.051 616,715.5C615.686,704.738 616.686,694.071 619,683.5C619.333,669.833 619.667,656.167 620,642.5C620.873,638.475 623.039,635.475 626.5,633.5ZM449.5,719.5C448.761,719.369 448.094,719.536 447.5,720C415.466,751.645 383.133,782.811 350.5,813.5C349.707,829.201 349.374,844.868 349.5,860.5C347.532,865.801 343.866,869.468 338.5,871.5C330.939,871.44 326.106,867.774 324,860.5C323.333,842.833 323.333,825.167 324,807.5C324.471,805.754 325.138,804.087 326,802.5C359.063,770.101 392.73,738.434 427,707.5C427.157,696.087 426.157,684.753 424,673.5C402.536,691.962 381.369,710.795 360.5,730C353.031,738.479 344.697,745.812 335.5,752C331.207,753.202 327.707,752.035 325,748.5C321.667,741.833 321.667,735.167 325,728.5C340.583,715.423 355.75,701.757 370.5,687.5C389.092,670.204 408.092,653.371 427.5,637L433.5,634C441.298,632.146 446.464,634.979 449,642.5C448.397,665.374 450.23,688.041 454.5,710.5C454.096,714.229 452.429,717.229 449.5,719.5Z"/>
    </g>
</svg>
