<?xml version="1.0" encoding="UTF-8" standalone="no"?>
<!DOCTYPE svg PUBLIC "-//W3C//DTD SVG 1.1//EN" "http://www.w3.org/Graphics/SVG/1.1/DTD/svg11.dtd">
<svg width="100%" height="100%" viewBox="0 0 1024 1024" version="1.1" xmlns="http://www.w3.org/2000/svg" xmlns:xlink="http://www.w3.org/1999/xlink" xml:space="preserve" xmlns:serif="http://www.serif.com/" style="fill-rule:evenodd;clip-rule:evenodd;stroke-linejoin:round;stroke-miterlimit:2;">
    <g transform="matrix(1.43327,0,0,1.43327,-216.1,-236.66)">
        <path d="M320.5,692.5C317.857,690.387 314.691,689.387 311,689.5C260.141,685.643 209.308,681.476 158.5,677C150.915,673.181 148.915,667.348 152.5,659.5C153.665,658.416 154.998,657.583 156.5,657C159.667,656.833 162.833,656.667 166,656.5C212.783,661.124 259.616,665.124 306.5,668.5C304.526,663.272 302.859,657.938 301.5,652.5C291.71,651.375 282.043,649.542 272.5,647C242.983,639.937 213.649,632.27 184.5,624C178.272,617.953 177.938,611.62 183.5,605C185,604.833 186.5,604.667 188,604.5C222.786,613.405 257.62,622.072 292.5,630.5C294.099,630.768 295.432,630.434 296.5,629.5C294.069,623.178 293.069,616.512 293.5,609.5C258.504,602.734 223.504,595.901 188.5,589C181.657,584.8 179.824,578.967 183,571.5C184.87,568.982 187.37,567.648 190.5,567.5C223.661,574.866 256.995,581.199 290.5,586.5C291.099,578.514 291.432,570.514 291.5,562.5C261.489,562.666 231.489,562.166 201.5,561C196.421,555.972 195.255,550.139 198,543.5C199.11,541.963 200.61,541.297 202.5,541.5C232.662,540.502 262.995,540.169 293.5,540.5C293.216,538.585 293.549,536.919 294.5,535.5C294.966,529.509 295.299,523.509 295.5,517.5C264.965,513.588 234.298,511.755 203.5,512C198.997,508.155 197.497,503.322 199,497.5C199.833,495.333 201.333,493.833 203.5,493C224.5,492.333 245.5,492.333 266.5,493C277.227,493.185 287.893,494.018 298.5,495.5C301.299,494.189 302.632,491.855 302.5,488.5C290.228,485.202 278.228,481.035 266.5,476C235.347,462.424 204.68,447.757 174.5,432C166.154,428.471 163.321,422.304 166,413.5C169.05,409.87 172.883,408.703 177.5,410C199.291,420.729 220.958,431.729 242.5,443C263.936,452.718 285.602,461.885 307.5,470.5C310.985,459.874 315.152,449.541 320,439.5C320.749,438.365 320.583,437.365 319.5,436.5C302.852,423.843 285.852,411.676 268.5,400C251.121,385.619 233.454,371.619 215.5,358L208,350.5C204.291,342.511 206.458,337.178 214.5,334.5C218.074,334.969 221.408,336.136 224.5,338C259.319,365.575 294.319,392.908 329.5,420C330.167,420.667 330.833,420.667 331.5,420C335.05,416.117 338.217,411.951 341,407.5C341.667,406.5 341.667,405.5 341,404.5C316.667,375.5 292.333,346.5 268,317.5C265.908,314.319 263.575,311.319 261,308.5C257.238,298.158 260.738,292.992 271.5,293C273.167,294 274.833,295 276.5,296C297.087,319.249 316.92,343.083 336,367.5C331.598,343.489 326.931,319.489 322,295.5C317.787,278.1 323.621,265.6 339.5,258C350.623,254.655 360.123,257.155 368,265.5C373.722,277.333 379.055,289.333 384,301.5C389.601,319.993 396.935,337.66 406,354.5C407.44,353.852 408.94,353.519 410.5,353.5C407.333,323.33 403.999,293.163 400.5,263C402.257,246.742 411.257,237.576 427.5,235.5C437.065,235.625 444.898,239.292 451,246.5C454.066,256.369 456.732,266.369 459,276.5C462.566,296.164 466.066,315.831 469.5,335.5L476.5,335.5C477.919,334.549 479.585,334.216 481.5,334.5C481.169,307.995 481.502,281.661 482.5,255.5C482.334,246.494 482.5,237.494 483,228.5C485.382,221.096 490.216,218.596 497.5,221C499.57,221.948 501.07,223.448 502,225.5C502.5,261.498 502.667,297.498 502.5,333.5L506.5,333.5C511.762,333.195 516.928,333.529 522,334.5C521.656,297.5 521.323,260.5 521,223.5C526.249,218.499 531.749,218.332 537.5,223C539.317,224.8 540.484,226.966 541,229.5C541.5,264.832 541.667,300.165 541.5,335.5C545.534,335.505 549.534,335.838 553.5,336.5C556.855,306.181 562.022,276.181 569,246.5C577.344,236.488 587.844,233.654 600.5,238C610.297,242.468 616.464,249.968 619,260.5C617.515,290.827 614.349,320.994 609.5,351C609.645,351.772 609.978,352.439 610.5,353C613.758,354.467 617.092,355.633 620.5,356.5C627.017,326.118 635.85,296.452 647,267.5C661.321,252.905 675.655,252.905 690,267.5C692.194,270.554 693.861,273.888 695,277.5C695.078,284.497 694.744,291.497 694,298.5C690.169,321.162 686.835,343.829 684,366.5C703.413,341.749 723.58,317.582 744.5,294C758.964,291.307 763.297,296.807 757.5,310.5C730.818,342.355 704.652,374.689 679,407.5C678.333,408.833 678.333,410.167 679,411.5C682.91,415.029 686.077,419.029 688.5,423.5C699.386,413.911 710.386,404.578 721.5,395.5C747.937,376.242 774.271,356.742 800.5,337C811.926,332.428 817.093,336.261 816,348.5C814.6,351.902 812.433,354.736 809.5,357C785.886,373.613 762.553,390.613 739.5,408C726,418.833 712.5,429.667 699,440.5C701.972,450.914 705.472,461.247 709.5,471.5C754.134,454.245 797.467,434.412 839.5,412C852.331,408.175 857.497,412.675 855,425.5L849.5,431C822.409,444.546 795.076,457.546 767.5,470C750.132,477.4 732.465,483.9 714.5,489.5C715.348,491.409 715.682,493.409 715.5,495.5C746.424,492.755 777.424,491.922 808.5,493C815.053,495.73 817.22,500.563 815,507.5C814.052,509.57 812.552,511.07 810.5,512C780.094,512.42 749.761,513.92 719.5,516.5C720.827,524.794 721.827,533.127 722.5,541.5C751.843,541.483 781.176,541.316 810.5,541C815.645,542.573 817.978,546.073 817.5,551.5C817.519,555.632 815.852,558.798 812.5,561C783.157,561.262 753.824,561.762 724.5,562.5L724.5,587.5C725.791,587.737 726.791,587.404 727.5,586.5C760.635,581.639 793.469,575.306 826,567.5C833.291,569.405 835.957,574.072 834,581.5C832.181,586.336 828.681,589.169 823.5,590C790.313,597.253 756.979,603.753 723.5,609.5C723.283,616.853 723.117,624.186 723,631.5C758.661,622.764 794.328,613.764 830,604.5C838.723,605.916 841.723,610.916 839,619.5C836.635,622.869 833.468,625.036 829.5,626C798.07,633.691 766.737,641.691 735.5,650C728.595,651.681 721.595,652.515 714.5,652.5C714.047,658.193 712.381,663.526 709.5,668.5C710.333,668.833 711.167,669.167 712,669.5C757.802,664.87 803.635,660.537 849.5,656.5C856.741,654.731 861.908,657.064 865,663.5C866.084,670.504 863.251,675.004 856.5,677C804.194,681.72 751.861,686.053 699.5,690C693.711,701.382 685.878,711.216 676,719.5C674.234,721.596 672.901,723.929 672,726.5C671.667,746.5 671.333,766.5 671,786.5C664.583,812.909 647.75,825.743 620.5,825C603.298,821.131 592.798,810.631 589,793.5C588.823,780.925 588.323,768.425 587.5,756C533.833,756.775 480.167,756.608 426.5,755.5C426.667,767.505 426.5,779.505 426,791.5C420.387,814.892 405.554,826.059 381.5,825C362.525,821.357 350.692,810.191 346,791.5C344.717,767.875 344.051,744.208 344,720.5C337.925,714.93 332.425,708.93 327.5,702.5C324.687,699.554 322.354,696.221 320.5,692.5ZM344.5,274.5C342.518,277.111 341.518,280.111 341.5,283.5L343,295.5C348.878,324.679 355.545,353.679 363,382.5C371.652,378.097 379.485,372.597 386.5,366C375.805,338.111 364.972,310.278 354,282.5C352.5,280.167 351,277.833 349.5,275.5C347.929,274.691 346.262,274.357 344.5,274.5ZM313.5,613.5C317.197,649.887 331.864,680.887 357.5,706.5C360.122,709.257 362.955,711.924 366,714.5C366.038,739.549 366.705,764.549 368,789.5C372.838,801.02 381.338,805.52 393.5,803C400.006,800.846 403.839,796.346 405,789.5C405.333,772.167 405.667,754.833 406,737.5L407.5,736C440.333,735.833 473.167,735.667 506,735.5C539.584,735.34 573.084,735.84 606.5,737C607.126,737.75 607.626,738.584 608,739.5C608.041,757.232 608.707,774.899 610,792.5C614.939,802.157 622.772,805.657 633.5,803C642.608,799.652 648.108,793.152 650,783.5C650.333,760.833 650.667,738.167 651,715.5C673.974,696.845 689.307,673.178 697,644.5C702.601,624.562 705.101,604.229 704.5,583.5C703.968,543.162 697.801,503.829 686,465.5C665.795,411.145 627.628,376.645 571.5,362C515.296,347.17 460.963,352.17 408.5,377C399.097,382.253 390.43,388.42 382.5,395.5C359.685,412.737 342.851,434.737 332,461.5C328.122,471.966 324.955,482.633 322.5,493.5C311.457,532.79 308.457,572.79 313.5,613.5ZM369.5,491.5C397.543,488.949 421.043,497.949 440,518.5C447.845,527.519 454.178,537.519 459,548.5C460.906,556.38 458.073,561.547 450.5,564C448.029,564.706 445.695,564.373 443.5,563C439.233,553.876 434.4,545.043 429,536.5C409.554,514.134 385.554,507.468 357,516.5C355.373,516.375 353.873,515.875 352.5,515C350.098,509.576 349.932,504.076 352,498.5C357.508,495.174 363.341,492.84 369.5,491.5ZM388.5,594.5C402.881,594.37 407.714,601.036 403,614.5C396.673,620.583 389.173,623.083 380.5,622C377.417,621.214 375.251,619.381 374,616.5C372.524,611.924 372.19,607.257 373,602.5C377.512,598.397 382.678,595.73 388.5,594.5ZM602.5,536.5C609.016,535.237 614.516,536.904 619,541.5C619.667,550.833 619.667,560.167 619,569.5C616.747,576.106 612.247,578.273 605.5,576C602.063,574.895 599.563,572.728 598,569.5C596.447,560.228 596.114,550.895 597,541.5C598.352,539.251 600.185,537.584 602.5,536.5ZM399.5,535.5C404.182,535.338 408.515,536.505 412.5,539C413.191,540.067 413.691,541.234 414,542.5C414.667,550.833 414.667,559.167 414,567.5C409.737,576.477 403.237,578.643 394.5,574C393.54,572.581 392.707,571.081 392,569.5C391.333,560.5 391.333,551.5 392,542.5C394.015,539.588 396.515,537.255 399.5,535.5ZM619.5,594.5C626.771,595.026 633.604,597.026 640,600.5C645.094,617.083 638.927,624.25 621.5,622C611.342,617.541 608.175,610.041 612,599.5C614.17,597.177 616.67,595.51 619.5,594.5ZM501.5,603.5C517.945,601.14 530.112,607.14 538,621.5C541.521,636.959 536.354,648.459 522.5,656C499.276,662.726 485.609,654.226 481.5,630.5C482.617,617.222 489.284,608.222 501.5,603.5ZM620.5,489.5C633.896,489.51 646.896,491.677 659.5,496C664.348,501.604 664.681,507.437 660.5,513.5C658.808,514.969 656.808,515.635 654.5,515.5C622.141,504.453 597.307,513.453 580,542.5C577.333,548.5 574.667,554.5 572,560.5C568.427,565.277 564.26,565.777 559.5,562C555.281,558.398 553.781,553.898 555,548.5C558.6,537.297 564.266,527.297 572,518.5C578.171,511.996 584.671,505.829 591.5,500C596.167,497.667 600.833,495.333 605.5,493C610.596,491.64 615.596,490.474 620.5,489.5ZM639.5,370.5C644.984,374.417 650.318,378.583 655.5,383C656.6,383.432 657.267,382.932 657.5,381.5C664.679,349.094 670.345,316.428 674.5,283.5C674.736,279.971 673.403,277.305 670.5,275.5C667.898,274.031 665.731,274.698 664,277.5C655.234,307.798 646.067,337.965 636.5,368C637.13,369.31 638.13,370.144 639.5,370.5ZM589.5,255.5C586.48,261.062 584.647,267.062 584,273.5C580.098,296.175 576.264,318.842 572.5,341.5C578.91,342.311 585.077,343.977 591,346.5C594.43,321.934 596.93,297.267 598.5,272.5C598.609,267.722 598.109,263.056 597,258.5C595.005,256.253 592.505,255.253 589.5,255.5ZM426.5,255.5C424.693,256.836 423.193,258.503 422,260.5C422.801,289.041 425.801,317.374 431,345.5C436.912,342.98 443.079,341.313 449.5,340.5C444.989,314.114 440.156,287.78 435,261.5C433.513,257.667 430.68,255.667 426.5,255.5ZM829.5,385.5C843.981,382.811 849.147,388.478 845,402.5C843.745,403.211 842.579,404.044 841.5,405C812.523,412.048 783.856,420.214 755.5,429.5C753.303,429.152 751.47,428.152 750,426.5C747.149,419.781 748.315,413.947 753.5,409C778.643,400.22 803.977,392.386 829.5,385.5ZM181.5,384.5C189.027,384.381 196.36,385.547 203.5,388C223.439,394.535 243.439,400.868 263.5,407C272.093,412.29 273.759,419.29 268.5,428C266.305,429.373 263.971,429.706 261.5,429C235.229,419.432 208.562,411.098 181.5,404C176.206,400.565 174.373,395.732 176,389.5C177.73,387.598 179.563,385.931 181.5,384.5ZM273.5,702.5C296.818,701.302 304.651,711.636 297,733.5C294.463,736.372 291.63,738.872 288.5,741C266.92,751.859 245.254,762.526 223.5,773C219.571,774.468 215.571,775.635 211.5,776.5C209.366,776.485 207.366,775.985 205.5,775C200.167,769.333 200.167,763.667 205.5,758C229.319,746.923 252.986,735.59 276.5,724C249.633,727.548 222.966,732.381 196.5,738.5C187.49,734.64 185.324,728.307 190,719.5C191.41,718.213 192.91,717.046 194.5,716C220.943,711.26 247.276,706.76 273.5,702.5ZM727.5,702.5C742.567,703.677 757.567,705.511 772.5,708C790.543,711.576 808.543,715.243 826.5,719C832.112,725.367 831.779,731.367 825.5,737C823.13,738.036 820.63,738.536 818,738.5C791.038,733.699 764.205,728.532 737.5,723C760.414,733.791 783.081,745.124 805.5,757C812.43,764.368 811.763,771.034 803.5,777C801.5,777.667 799.5,777.667 797.5,777C773.852,764.131 750.185,751.465 726.5,739C716.015,730.226 713.849,719.726 720,707.5C722.479,705.686 724.979,704.019 727.5,702.5Z"/>
    </g>
</svg>
