<?xml version="1.0" encoding="UTF-8" standalone="no"?>
<!DOCTYPE svg PUBLIC "-//W3C//DTD SVG 1.1//EN" "http://www.w3.org/Graphics/SVG/1.1/DTD/svg11.dtd">
<svg width="100%" height="100%" viewBox="0 0 1024 1024" version="1.1" xmlns="http://www.w3.org/2000/svg" xmlns:xlink="http://www.w3.org/1999/xlink" xml:space="preserve" xmlns:serif="http://www.serif.com/" style="fill-rule:evenodd;clip-rule:evenodd;stroke-linejoin:round;stroke-miterlimit:2;">
    <g transform="matrix(1.4136,0,0,1.4136,-236.992,-216.437)">
        <path d="M519.5,730.5C504.549,732.297 489.549,732.797 474.5,732C454.965,730.257 435.632,727.59 416.5,724C389.289,755.549 356.289,778.882 317.5,794C275.654,807.375 239.821,798.208 210,766.5C203.098,756.863 197.931,746.363 194.5,735C195.195,730.953 197.195,727.619 200.5,725C248.406,704.972 288.239,674.472 320,633.5C333.201,611.947 344.201,589.28 353,565.5C361.705,533.351 371.038,501.351 381,469.5C399.925,417.709 423.258,368.042 451,320.5C469.504,290.162 487.504,259.495 505,228.5C515.99,212.169 528.49,197.002 542.5,183C575.716,155.885 613.383,147.218 655.5,157C676.923,162.541 694.59,173.874 708.5,191C728.953,190.739 749.286,192.073 769.5,195C775.883,196.35 781.883,198.683 787.5,202C794.167,206.667 794.167,211.333 787.5,216C768.845,225.659 750.511,235.826 732.5,246.5C732.427,267.661 730.594,288.661 727,309.5C726.333,312.833 726.333,316.167 727,319.5C739.153,335.805 748.153,353.805 754,373.5C783.302,469.354 768.635,557.688 710,638.5C677.896,674.981 638.396,699.981 591.5,713.5L591.5,816.5C623.502,816.333 655.502,816.5 687.5,817C689.667,817.833 691.167,819.333 692,821.5C692.667,824.833 692.667,828.167 692,831.5C691.097,832.701 689.931,833.535 688.5,834C652.167,834.667 615.833,834.667 579.5,834C578.333,832.5 577.167,831 576,829.5C575.5,790.168 575.333,750.835 575.5,711.5C575.708,709.08 575.374,706.747 574.5,704.5C575.748,702.541 577.415,701.041 579.5,700C609.213,690.642 636.88,677.308 662.5,660C682.508,645.328 699.008,627.495 712,606.5C757.771,526.683 764.105,443.683 731,357.5C727.353,345.686 720.853,335.853 711.5,328C694.694,319.041 679.528,321.208 666,334.5C657.953,347.288 656.286,360.954 661,375.5C663.541,382.788 665.874,390.121 668,397.5C668.972,430.81 662.472,462.477 648.5,492.5C635.891,534.09 612.224,567.757 577.5,593.5C541.327,620.875 500.661,630.708 455.5,623C429.92,615.087 412.42,598.587 403,573.5C393.139,513.138 405.139,457.471 439,406.5C484.419,344.559 544.586,322.726 619.5,341C627.11,343.803 634.11,347.636 640.5,352.5C645.761,326.405 661.428,310.905 687.5,306C695.302,305.522 702.969,306.356 710.5,308.5C712.775,292.76 714.108,276.927 714.5,261C714.468,235.231 705.968,212.731 689,193.5C675.728,181.732 660.228,174.566 642.5,172C602.63,165.898 569.296,177.732 542.5,207.5C534.814,216.363 527.647,225.697 521,235.5C498.268,273.24 475.935,311.24 454,349.5C448.946,358.274 444.446,367.274 440.5,376.5C413.006,428.848 392.173,483.848 378,541.5C373.798,556.773 368.798,571.773 363,586.5C355.203,604.761 346.37,622.427 336.5,639.5C345.137,657.441 354.304,675.107 364,692.5C380.301,693.829 396.634,694.829 413,695.5C429.844,695.026 446.677,694.359 463.5,693.5C478.54,692.451 493.54,690.951 508.5,689C543.039,684.456 575.373,673.623 605.5,656.5C627.912,642.101 648.912,625.768 668.5,607.5C673.292,611.791 677.959,616.291 682.5,621C681.167,621.333 679.833,621.667 678.5,622C658.59,640.25 637.257,656.583 614.5,671C603.315,677.593 591.648,683.093 579.5,687.5C537.153,703.632 493.153,711.298 447.5,710.5C460.64,712.573 473.974,714.24 487.5,715.5C498.801,714.261 510.134,713.428 521.5,713C532.506,711.166 543.506,709.332 554.5,707.5C556.167,707.833 557.833,708.167 559.5,708.5C562.654,713.141 564.988,718.141 566.5,723.5C558.748,724.355 551.081,725.688 543.5,727.5L543.5,817.5C549.364,818.867 553.031,822.367 554.5,828C553.772,833.38 550.606,835.88 545,835.5C534.901,833.569 529.068,827.569 527.5,817.5C526.502,788.671 526.169,759.671 526.5,730.5L519.5,730.5ZM612.5,531.5C634.711,493.074 647.711,451.741 651.5,407.5C651.756,393.685 647.256,381.685 638,371.5C621.508,357.572 602.342,350.739 580.5,351C526.664,350.334 484.164,371.834 453,415.5C432.804,448.084 420.138,483.418 415,521.5C413.936,535.601 414.603,549.601 417,563.5C424.701,588.614 441.534,603.447 467.5,608C492.865,610.29 517.199,606.456 540.5,596.5C570.158,581.178 594.158,559.512 612.5,531.5ZM719.5,209.5C722.345,216.519 725.178,223.519 728,230.5C732.907,226.629 738.074,223.129 743.5,220C749.293,217.27 754.96,214.27 760.5,211C746.879,209.615 733.212,209.115 719.5,209.5ZM323.5,655.5C322.588,657.595 321.421,659.595 320,661.5C299.548,683.297 276.715,702.13 251.5,718C238.642,724.594 225.976,731.427 213.5,738.5C216.43,746.867 220.764,754.367 226.5,761C247.855,779.445 272.522,786.112 300.5,781C319.914,776.088 337.914,768.088 354.5,757C372.051,743.789 388.718,729.456 404.5,714C388.091,712.926 371.757,711.259 355.5,709C351.555,705.054 348.389,700.554 346,695.5C340.148,684.289 334.481,672.956 329,661.5C327.618,658.957 325.785,656.957 323.5,655.5ZM784.5,875.5C783.737,876.268 782.737,876.768 781.5,877C584.5,877.667 387.5,877.667 190.5,877C185.268,871.701 185.268,866.368 190.5,861C199.752,859.583 209.085,859.083 218.5,859.5C406.834,859.333 595.167,859.5 783.5,860C789.735,864.808 790.069,869.974 784.5,875.5ZM829.5,197.5C860.079,197.671 874.579,213.004 873,243.5C869.948,259.552 860.448,269.385 844.5,273C819.037,275.849 803.871,264.683 799,239.5C798.967,218.04 809.134,204.04 829.5,197.5ZM833.5,214.5C824.728,216.328 819.228,221.662 817,230.5C814.771,245.595 821.104,254.595 836,257.5C849.411,256.255 856.578,248.922 857.5,235.5C855.738,221.406 847.738,214.406 833.5,214.5ZM620.5,198.5C634.456,196.875 647.122,200.041 658.5,208C664.051,211.845 666.218,217.011 665,223.5C662.045,227.277 658.212,228.443 653.5,227C649.207,221.353 643.54,218.019 636.5,217C614.322,213.757 597.656,221.757 586.5,241C576.243,243.636 572.076,239.802 574,229.5C584.63,211.774 600.13,201.441 620.5,198.5Z"/>
    </g>
</svg>
