<?xml version="1.0" encoding="UTF-8" standalone="no"?>
<!DOCTYPE svg PUBLIC "-//W3C//DTD SVG 1.1//EN" "http://www.w3.org/Graphics/SVG/1.1/DTD/svg11.dtd">
<svg width="100%" height="100%" viewBox="0 0 1024 1024" version="1.1" xmlns="http://www.w3.org/2000/svg" xmlns:xlink="http://www.w3.org/1999/xlink" xml:space="preserve" xmlns:serif="http://www.serif.com/" style="fill-rule:evenodd;clip-rule:evenodd;stroke-linejoin:round;stroke-miterlimit:2;">
    <g transform="matrix(1.18426,0,0,1.18426,-62.5765,-106.378)">
        <path d="M303.5,583.5C302.496,582.317 301.662,580.984 301,579.5C316.982,632.761 337.315,684.428 362,734.5C379.046,766.551 402.212,793.384 431.5,815C458.292,831.984 487.625,840.817 519.5,841.5C543.605,839.987 567.605,837.487 591.5,834C606.631,830.122 611.464,835.288 606,849.5C604.53,850.267 603.03,850.933 601.5,851.5C584.856,853.774 568.189,855.94 551.5,858C490.095,866.171 437.428,848.838 393.5,806C364.96,774.747 342.626,739.581 326.5,700.5C313.118,667.065 300.285,633.399 288,599.5C275.2,563.167 266.867,525.834 263,487.5C261.99,461.43 262.824,435.43 265.5,409.5C261.276,408.478 257.609,406.311 254.5,403C224.736,387.627 193.069,379.627 159.5,379C138.426,378.207 117.426,377.207 96.5,376C95.874,375.25 95.374,374.416 95,373.5C94.198,366.597 96.698,361.097 102.5,357C115.87,345.982 130.87,338.149 147.5,333.5C184.965,326.404 222.298,327.071 259.5,335.5C273.762,319.402 289.429,304.902 306.5,292C331.658,278.3 358.658,271.967 387.5,273C405.001,254.496 423.001,236.162 441.5,218C452.507,208 464.84,200 478.5,194C512.966,184.133 547.3,173.8 581.5,163C584.167,162.333 586.833,162.333 589.5,163C596.4,167.852 597.233,173.686 592,180.5C548.455,218.892 503.621,255.559 457.5,290.5C457.389,291.117 457.056,291.617 456.5,292C454.5,292.333 452.5,292.667 450.5,293C473.271,308.216 484.104,329.716 483,357.5L486,351.5C494.963,340.868 504.297,330.535 514,320.5C545.376,291.447 578.209,264.28 612.5,239C652.113,211.054 691.446,182.721 730.5,154C700.545,160.909 670.879,169.242 641.5,179C633.972,183.264 626.972,188.264 620.5,194C612.272,202.396 603.938,210.563 595.5,218.5C579.338,234.32 564.671,251.32 551.5,269.5C538.059,285.113 522.392,297.947 504.5,308C492.987,307.796 489.487,302.296 494,291.5C505.877,281.288 518.044,271.454 530.5,262C543.74,248.764 556.24,234.931 568,220.5C583.507,204.8 599.007,189.134 614.5,173.5C617.297,171.205 619.964,168.705 622.5,166C666.891,151.318 711.891,138.651 757.5,128C770.648,127.436 774.482,133.269 769,145.5C709.065,191.437 648.565,236.603 587.5,281C567.106,296.889 547.773,314.056 529.5,332.5C501.451,358.708 477.284,388.041 457,420.5C446.583,437.589 439.416,455.923 435.5,475.5C432.727,495.017 438.393,511.517 452.5,525C463.338,532.061 475.005,537.394 487.5,541C514.799,547.63 542.466,549.963 570.5,548C591.896,546.987 611.896,541.32 630.5,531C661.595,508.442 691.595,484.442 720.5,459C741.117,444.051 761.45,428.718 781.5,413C740.5,412.667 699.5,412.333 658.5,412C654.728,407.442 654.728,402.775 658.5,398C688.393,377.44 717.727,356.107 746.5,334C711.152,336.187 675.985,340.354 641,346.5C633.09,344.015 630.423,338.682 633,330.5C633.772,329.151 634.939,328.318 636.5,328C678.656,321.605 720.989,316.939 763.5,314C780.411,300.588 797.744,287.755 815.5,275.5C816.521,274.998 816.688,274.332 816,273.5C811.354,275.297 806.52,276.464 801.5,277C746.778,284.843 692.111,293.009 637.5,301.5C635.833,301.333 634.167,301.167 632.5,301C626.648,294.464 627.314,288.797 634.5,284C709.98,271.947 785.48,260.114 861,248.5C869.139,252.558 869.639,257.725 862.5,264C831.419,285.201 801.086,307.368 771.5,330.5C800.763,333.614 830.097,336.114 859.5,338C860.766,338.309 861.933,338.809 863,339.5C865.61,345.608 864.776,351.108 860.5,356C855.167,356.667 849.833,356.667 844.5,356C815.155,353.444 785.821,351.111 756.5,349C752.833,351.333 749.167,353.667 745.5,356C730.681,367.908 715.681,379.575 700.5,391C699.663,392.011 699.33,393.178 699.5,394.5C734.176,394.778 768.842,394.444 803.5,393.5C817.152,393.561 820.319,399.561 813,411.5C797.494,422.824 782.327,434.49 767.5,446.5C754.683,456.083 742.016,465.916 729.5,476C733.802,474.113 738.302,472.279 743,470.5L747.5,472C753.211,478.242 752.544,483.742 745.5,488.5C691.923,524.893 640.756,564.56 592,607.5C591.409,608.483 591.743,609.15 593,609.5C616.65,620.079 640.15,630.746 663.5,641.5C680.22,648.357 696.886,655.524 713.5,663C754.62,681.726 795.62,700.726 836.5,720L839,722.5C840.257,727.383 839.424,731.716 836.5,735.5C831.716,736.843 827.049,736.343 822.5,734C763.226,706.527 703.893,679.36 644.5,652.5C620.166,642.501 596.166,631.668 572.5,620C568.224,615.108 567.39,609.608 570,603.5C589.203,585.961 608.703,568.795 628.5,552C612.502,559.345 595.502,563.678 577.5,565C546.14,568.441 515.14,566.441 484.5,559C462.816,553.914 444.65,543.081 430,526.5C419.407,507.449 416.074,487.116 420,465.5C421.399,456.57 423.732,447.903 427,439.5C433.017,427.968 439.184,416.468 445.5,405C442.121,386.97 432.121,374.303 415.5,367C390.031,355.632 363.365,349.966 335.5,350C332.007,350.942 328.674,352.275 325.5,354C312.723,362.278 301.723,372.445 292.5,384.5C289.77,389.605 287.937,394.938 287,400.5C302.919,410.876 318.753,421.376 334.5,432C346.329,441.35 357.496,451.516 368,462.5C377.15,489.466 388.484,515.466 402,540.5C414.097,558.648 428.097,575.315 444,590.5C445.036,601.132 440.536,604.632 430.5,601C406.583,578.024 387.416,551.524 373,521.5C366.105,505.044 359.772,488.377 354,471.5C333.814,451.636 311.147,435.302 286,422.5C285.228,422.645 284.561,422.978 284,423.5C273.927,467.85 279.26,510.184 300,550.5C305.767,558.384 311.267,566.384 316.5,574.5C326.696,585.863 337.696,596.363 349.5,606C369.278,620.561 390.611,632.561 413.5,642C466.023,662.005 520.356,673.505 576.5,676.5C568.604,666.07 559.438,656.07 549,646.5C548,644.833 547,643.167 546,641.5C545.571,632.454 549.737,629.287 558.5,632C585.726,658.557 613.06,685.224 640.5,712C664.002,732.67 687.335,753.503 710.5,774.5C750.666,808.824 789.5,844.824 827,882.5C831.306,887.217 831.472,891.883 827.5,896.5C821.685,898.078 816.018,897.578 810.5,895C785.893,883.031 761.893,870.031 738.5,856C733.37,851.782 732.204,846.616 735,840.5C736.47,838.848 738.303,837.848 740.5,837.5C750.426,841.592 759.76,846.759 768.5,853C769.167,853.667 769.833,853.667 770.5,853C752.802,835.634 734.802,818.634 716.5,802C690.874,778.862 664.874,756.195 638.5,734C624.862,721.363 611.529,708.363 598.5,695C595.635,694.817 592.969,694.317 590.5,693.5C589.761,693.369 589.094,693.536 588.5,694C599.366,712.224 609.866,730.724 620,749.5C620.443,743.685 623.61,740.685 629.5,740.5C632.542,741.773 635.376,743.439 638,745.5C655.667,766.5 673.333,787.5 691,808.5C707.692,833.894 723.858,859.56 739.5,885.5C741.388,889.606 743.554,893.606 746,897.5C757.163,913.156 767.83,929.156 778,945.5C778.552,948.419 777.885,951.086 776,953.5C774.769,954.108 773.436,954.441 772,954.5C766.958,953.633 763.125,950.967 760.5,946.5C748.292,930.45 735.125,915.116 721,900.5C681.261,859.086 638.761,820.919 593.5,786C583.215,775.375 572.048,765.875 560,757.5C559.837,759.676 559.004,761.509 557.5,763C554.134,764.879 550.8,764.879 547.5,763C521.224,740.877 494.557,719.377 467.5,698.5C455.395,689.573 443.395,680.407 431.5,671C392.953,656.384 357.953,636.051 326.5,610C318.009,601.83 310.342,592.996 303.5,583.5ZM391.5,291.5C384.159,291.334 376.826,291.5 369.5,292C351.907,292.866 335.241,297.199 319.5,305C305.095,315.9 291.428,327.733 278.5,340.5C283.619,341.557 287.953,343.89 291.5,347.5C294.056,348.543 296.223,350.21 298,352.5C308.255,340.79 321.088,333.956 336.5,332C360.47,332.106 383.804,336.106 406.5,344C423.039,349.178 437.205,358.011 449,370.5C452.721,375.607 455.054,381.274 456,387.5C459.082,384.341 461.416,380.675 463,376.5C467.295,363.964 467.628,351.297 464,338.5C462.091,327.18 456.925,317.68 448.5,310C430.948,299.093 411.948,292.926 391.5,291.5ZM279.5,359.5C261.607,355.221 243.607,351.388 225.5,348C215.028,346.989 204.528,346.489 194,346.5C173.281,345.245 153.448,348.745 134.5,357C154.222,358.872 173.889,361.206 193.5,364C220.919,368.527 246.586,377.693 270.5,391.5C271.784,385.61 274.117,380.276 277.5,375.5C279.836,370.651 283.169,366.484 287.5,363C284.401,362.613 281.734,361.446 279.5,359.5ZM596.5,743.5C587,727.013 577.333,710.513 567.5,694C534.629,692.632 502.296,687.799 470.5,679.5C492.337,694.822 513.504,711.155 534,728.5C534.333,727.5 534.667,726.5 535,725.5C539.546,721.251 544.713,720.418 550.5,723C559.084,730.58 567.417,738.58 575.5,747C589.62,758.12 602.787,770.286 615,783.5C609.701,769.894 603.534,756.56 596.5,743.5ZM454.5,271.5C487.268,245.243 519.935,218.743 552.5,192C537.321,197.376 521.655,201.376 505.5,204C497.511,206.663 489.511,209.33 481.5,212C475.323,214.919 469.656,218.586 464.5,223C444.82,240.016 425.82,257.683 407.5,276C417.505,278.501 427.505,281.001 437.5,283.5C439.073,283.248 440.406,282.582 441.5,281.5C445.644,277.927 449.978,274.594 454.5,271.5ZM623.5,756.5C624.772,759.348 625.605,762.348 626,765.5C631.609,777.717 636.942,790.05 642,802.5C650.167,809.333 658.333,816.167 666.5,823C677.029,833.863 687.863,844.363 699,854.5C696.672,849.52 694.005,844.52 691,839.5C671.355,809.562 648.855,781.896 623.5,756.5ZM625.5,122.5C602.446,127.739 579.779,134.406 557.5,142.5C556.205,141.902 554.872,141.402 553.5,141C550.372,136.583 549.706,131.749 551.5,126.5C557.132,123.257 563.132,120.924 569.5,119.5C629.285,98.203 690.952,88.37 754.5,90C762.898,90.592 766.065,95.092 764,103.5C763.5,105.333 762.333,106.5 760.5,107C735.128,107.602 709.794,108.935 684.5,111C664.403,113.346 644.736,117.179 625.5,122.5ZM853.5,203.5C859.842,203.334 866.175,203.5 872.5,204L875,206.5C875.667,210.167 875.667,213.833 875,217.5C873.681,219.487 871.848,220.654 869.5,221C831.966,224.193 794.466,227.693 757,231.5C752.8,231.902 749.8,230.235 748,226.5C747.333,222.833 747.333,219.167 748,215.5L749.5,214C784.251,209.892 818.918,206.392 853.5,203.5ZM721.5,425.5C726.844,425.334 732.177,425.501 737.5,426C743.747,430.514 744.08,435.514 738.5,441C737.5,441.333 736.5,441.667 735.5,442C705.801,444.451 676.134,447.285 646.5,450.5C636.268,449.452 632.768,444.119 636,434.5C637.491,432.996 639.324,432.163 641.5,432C668.386,430.603 695.052,428.436 721.5,425.5ZM345.5,364.5C362.196,366.549 367.696,375.549 362,391.5C353.977,400.035 345.311,400.702 336,393.5C331.739,386.022 331.405,378.355 335,370.5C338.069,367.554 341.569,365.554 345.5,364.5ZM260.5,683.5C253.23,686.653 247.564,684.653 243.5,677.5C211.171,630.666 195.671,578.666 197,521.5C197.785,519.714 198.951,518.214 200.5,517C206.691,514.347 210.858,516.181 213,522.5C213.492,578.192 229.826,628.525 262,673.5C262.691,677.021 262.191,680.355 260.5,683.5ZM727.5,712.5C735.434,718.143 743.767,723.309 752.5,728C773.372,739.602 794.372,750.936 815.5,762C817.837,768.003 816.503,772.836 811.5,776.5C809.473,776.662 807.473,776.495 805.5,776C752.755,748.235 700.755,719.235 649.5,689C646.669,684.559 645.836,679.726 647,674.5C648.864,671.793 651.364,670.959 654.5,672C678.92,685.539 703.253,699.039 727.5,712.5Z"/>
    </g>
</svg>
