<?xml version="1.0" encoding="UTF-8" standalone="no"?>
<!DOCTYPE svg PUBLIC "-//W3C//DTD SVG 1.1//EN" "http://www.w3.org/Graphics/SVG/1.1/DTD/svg11.dtd">
<svg width="100%" height="100%" viewBox="0 0 1024 1024" version="1.1" xmlns="http://www.w3.org/2000/svg" xmlns:xlink="http://www.w3.org/1999/xlink" xml:space="preserve" xmlns:serif="http://www.serif.com/" style="fill-rule:evenodd;clip-rule:evenodd;stroke-linejoin:round;stroke-miterlimit:2;">
    <g transform="matrix(1.60393,0,0,1.60393,-299.317,-383.43)">
        <path d="M266.5,712.5L237.5,712.5C237.667,738.169 237.5,763.835 237,789.5C231.575,797.367 226.242,797.367 221,789.5C220.667,765.833 220.333,742.167 220,718.5C210.562,722.552 201.229,726.885 192,731.5C191.055,731.095 190.388,730.428 190,729.5C189.201,722.723 189.701,716.057 191.5,709.5C200.763,685.42 218.097,670.253 243.5,664C306.13,662.685 368.797,662.018 431.5,662C446.44,658.613 459.273,651.447 470,640.5C475.303,633.364 481.137,626.697 487.5,620.5C488.547,606.498 488.38,592.498 487,578.5C482.213,585.288 476.713,591.454 470.5,597C465.266,597.977 460.266,597.31 455.5,595C450.208,589.635 447.541,583.135 447.5,575.5C427.67,562.417 407.67,549.584 387.5,537C376.086,528.924 365.253,520.09 355,510.5C346.813,498.33 344.313,484.997 347.5,470.5C341.528,469.336 335.528,469.17 329.5,470C313.311,474.182 304.311,484.515 302.5,501C303.485,509.256 304.985,517.423 307,525.5C311.576,538.895 316.743,552.062 322.5,565C322.144,567.859 320.477,569.359 317.5,569.5C292.164,569.333 266.831,569.5 241.5,570C240.255,570.791 238.922,571.291 237.5,571.5C236.844,573.484 236.178,575.484 235.5,577.5C235.529,579.029 236.196,580.196 237.5,581C288.167,581.667 338.833,581.667 389.5,581C369.186,559.356 350.353,536.523 333,512.5C328.996,507.443 327.662,501.776 329,495.5C333.458,490.233 337.958,490.233 342.5,495.5C346.416,502.335 350.583,509.002 355,515.5C371.043,533.874 386.709,552.541 402,571.5C403.864,574.592 405.031,577.926 405.5,581.5C405.306,590.857 400.639,596.357 391.5,598C339.833,598.667 288.167,598.667 236.5,598C228.948,595.978 223.448,591.478 220,584.5C218.409,568.081 225.576,557.581 241.5,553C260.5,552.667 279.5,552.333 298.5,552C293.051,538.313 289.218,524.147 287,509.5C283.858,492.259 288.691,477.759 301.5,466C315.961,454.936 332.294,450.769 350.5,453.5C350.405,448.113 350.905,442.78 352,437.5C357.026,411.402 366.026,386.735 379,363.5C380.733,358.135 382.566,352.801 384.5,347.5C378.778,339.928 373.611,331.928 369,323.5C367.198,318.625 365.865,313.625 365,308.5C360.75,274.155 374.917,251.321 407.5,240C435.64,235.738 456.64,245.905 470.5,270.5C482.986,266.503 495.819,264.503 509,264.5C522.855,265.671 536.689,267.004 550.5,268.5C550.929,264.976 552.429,261.976 555,259.5C559.775,254.553 564.942,250.22 570.5,246.5C575.265,243.854 580.265,241.687 585.5,240C614.09,235.712 635.257,246.212 649,271.5C659.282,299.31 654.449,324.143 634.5,346C642.862,366.557 651.362,387.057 660,407.5C662.874,419.789 665.541,432.122 668,444.5C668.498,447.817 668.665,451.15 668.5,454.5C675.798,453.441 683.131,453.274 690.5,454C713.319,460.314 726.319,475.148 729.5,498.5C728.04,516.811 724.04,534.478 717.5,551.5C735.824,552.333 754.158,552.833 772.5,553C777.574,554.371 782.24,556.538 786.5,559.5C791.711,563.753 794.711,569.253 795.5,576C794.416,588.417 787.75,595.75 775.5,598C740.502,598.5 705.502,598.667 670.5,598.5L655.5,598.5C644.495,598.667 633.495,598.5 622.5,598C614.101,593.702 610.601,586.869 612,577.5C613.746,573.673 615.746,570.007 618,566.5C633.333,549.167 648.667,531.833 664,514.5C668.75,508.673 672.75,502.34 676,495.5C680.667,490.167 685.333,490.167 690,495.5C690.291,503.63 687.957,510.963 683,517.5C666.457,539.546 648.29,560.213 628.5,579.5C627.711,579.783 627.044,580.283 626.5,581C676.5,581.667 726.5,581.667 776.5,581C779.749,575.811 778.416,572.145 772.5,570C747.5,569.667 722.5,569.333 697.5,569C695.556,566.847 695.056,564.347 696,561.5C703.047,545.4 708.38,528.733 712,511.5C715.219,494.796 709.719,481.962 695.5,473C692.904,471.864 690.237,471.031 687.5,470.5C681.987,469.184 676.32,469.184 670.5,470.5C670.624,471.107 670.957,471.44 671.5,471.5C675.699,492.273 669.366,509.106 652.5,522C625.775,540.687 598.775,558.854 571.5,576.5C573.548,589.128 568.215,596.461 555.5,598.5C553.077,598.406 550.744,597.906 548.5,597C544,591.167 539.5,585.333 535,579.5C534.826,584.684 534.326,589.684 533.5,594.5C533.334,602.84 533.5,611.173 534,619.5C541.039,628.243 548.539,636.576 556.5,644.5C565.096,652.564 575.096,658.398 586.5,662C646.198,662.023 705.864,662.69 765.5,664C782.797,666.644 797.13,674.477 808.5,687.5C820.547,699.861 824.547,714.361 820.5,731C818.833,731.667 817.167,731.667 815.5,731C804.884,725.799 794.217,720.799 783.5,716C775.022,713.373 766.356,711.873 757.5,711.5C757.667,747.168 757.5,782.835 757,818.5C756.215,820.286 755.049,821.786 753.5,823C748.18,825.702 744.013,824.535 741,819.5C740.5,807.505 740.333,795.505 740.5,783.5C740.833,759.491 740.5,735.491 739.5,711.5C738.893,711.624 738.56,711.957 738.5,712.5L711.5,712.5C711.667,759.501 711.5,806.501 711,853.5C709.878,855.624 708.378,857.457 706.5,859C700.814,860.739 696.98,858.906 695,853.5C694.5,806.501 694.333,759.501 694.5,712.5C681.323,712.171 668.323,712.505 655.5,713.5C655.667,766.168 655.5,818.834 655,871.5C649.982,878.934 644.649,879.267 639,872.5C638.5,821.168 638.333,769.834 638.5,718.5L638.5,712.5C625.254,712.823 612.087,712.489 599,711.5C598.667,764.833 598.333,818.167 598,871.5C592.284,879.481 586.617,879.481 581,871.5C580.501,867.179 580.334,862.846 580.5,858.5C581.831,809.665 581.831,760.665 580.5,711.5C579.893,711.624 579.56,711.957 579.5,712.5L543.5,712.5C543.667,763.501 543.5,814.501 543,865.5C542.759,868.289 542.092,870.956 541,873.5C535.186,879.205 530.186,878.538 526,871.5C525.5,818.501 525.333,765.501 525.5,712.5L484.5,712.5L484.5,714.5C483.761,714.369 483.094,714.536 482.5,715C483.497,766.095 483.831,817.262 483.5,868.5L483.5,869.5C483.649,870.552 483.483,871.552 483,872.5C478.045,877.811 473.212,877.811 468.5,872.5C467.71,871.391 467.21,870.058 467,868.5C466.5,816.168 466.333,763.834 466.5,711.5C454.247,712.479 441.913,712.813 429.5,712.5C429.44,711.957 429.107,711.624 428.5,711.5C427.501,722.146 427.168,732.813 427.5,743.5C427.667,786.501 427.5,829.501 427,872.5C425.786,874.049 424.286,875.215 422.5,876C416.298,877.82 412.465,875.653 411,869.5C410.667,816.833 410.333,764.167 410,711.5C398.247,712.488 386.414,712.821 374.5,712.5C374.44,711.957 374.107,711.624 373.5,711.5C372.5,765.163 372.167,818.829 372.5,872.5C366.819,878.008 361.319,877.674 356,871.5C355.833,818.164 355.333,764.83 354.5,711.5C346.556,712.469 338.556,712.802 330.5,712.5C330.667,750.501 330.5,788.501 330,826.5C325.079,833.9 319.745,834.233 314,827.5C313.667,788.833 313.333,750.167 313,711.5C303.917,712.485 294.751,712.818 285.5,712.5C285.667,747.502 285.5,782.502 285,817.5C283.833,820 282,821.833 279.5,823C275.013,824.378 271.513,823.212 269,819.5C269.162,783.486 268.328,747.819 266.5,712.5ZM537.5,556.5C544.133,564.409 550.3,572.743 556,581.5C551.857,572.31 546.357,563.81 539.5,556C538.563,555.308 537.897,555.475 537.5,556.5ZM473.5,568.5C469.127,571.934 466.294,576.268 465,581.5C468.082,577.266 470.916,572.933 473.5,568.5ZM476.5,564.5C479.801,562.519 481.468,559.852 481.5,556.5C479.311,558.887 477.644,561.553 476.5,564.5ZM473.5,568.5C475.262,567.738 476.262,566.404 476.5,564.5C474.738,565.262 473.738,566.596 473.5,568.5ZM413.5,255.5C387.982,263.829 377.148,281.496 381,308.5C384.14,320.293 390.973,329.126 401.5,335C426.609,344.196 444.109,336.363 454,311.5C457.793,307.566 461.626,307.566 465.5,311.5C466.614,321.662 463.781,330.662 457,338.5C440.413,354.097 421.413,358.097 400,350.5C399.919,355.187 399.085,359.687 397.5,364C472.5,364.667 547.5,364.667 622.5,364C620.256,359.391 618.589,354.558 617.5,349.5C587.846,360.459 566.346,351.793 553,323.5C551.349,319.342 551.183,315.175 552.5,311C555.12,308.729 558.12,308.062 561.5,309C565.797,318.252 571.797,326.252 579.5,333C597.536,342.204 613.702,339.704 628,325.5C639.561,308.221 640.227,290.554 630,272.5C621.989,261.816 611.323,256.482 598,256.5C575.833,257.518 561.999,268.851 556.5,290.5C555.833,290.833 555.167,291.167 554.5,291.5C524.229,278.186 493.896,278.186 463.5,291.5C462.833,291.167 462.167,290.833 461.5,290.5C454.547,266.56 438.547,254.893 413.5,255.5ZM493.5,336.5C503.935,336.082 507.769,340.749 505,350.5C498.059,357.642 492.059,356.975 487,348.5C486.299,342.9 488.465,338.9 493.5,336.5ZM412.5,267.5C428.389,267.235 438.889,274.569 444,289.5C446.127,303.131 441.96,314.298 431.5,323C411.811,330.662 398.644,324.496 392,304.5C389.884,290.833 394.051,279.666 404.5,271C407.309,269.907 409.976,268.74 412.5,267.5ZM414.5,282.5C413.152,283.601 411.652,284.601 410,285.5C407.556,290.908 406.89,296.574 408,302.5C411.905,311.485 417.572,312.818 425,306.5C427.142,302.03 427.809,297.363 427,292.5C425.897,285.264 421.73,281.931 414.5,282.5ZM590.5,268.5C611.049,266.714 622.716,276.048 625.5,296.5C624.148,316.692 613.481,326.526 593.5,326C574.62,318.074 568.453,304.241 575,284.5C578.619,277.533 583.786,272.2 590.5,268.5ZM596.5,282.5C595.152,283.601 593.652,284.601 592,285.5C586.466,294.621 587.632,302.788 595.5,310C601.693,311.654 605.86,309.487 608,303.5C608.692,298.109 608.359,292.775 607,287.5C604.45,283.808 600.95,282.142 596.5,282.5ZM518.5,336.5C528.232,335.068 532.398,339.068 531,348.5C528.549,354.089 524.383,355.922 518.5,354C511.932,347.919 511.932,342.086 518.5,336.5ZM528.5,663.5C521.717,672.147 513.05,674.647 502.5,671C492.558,664.619 487.724,655.453 488,643.5C473.357,664.077 453.524,676.41 428.5,680.5L249.5,680.5C235.552,683.151 223.885,689.984 214.5,701C220.794,698.604 227.461,697.437 234.5,697.5C237.962,696.518 241.629,696.185 245.5,696.5C423.167,696.333 600.834,696.5 778.5,697C785.481,698.079 792.148,699.745 798.5,702C794.549,696.21 789.549,691.71 783.5,688.5C777.172,685.415 770.506,683.249 763.5,682C705.48,681.959 647.48,681.293 589.5,680C566.169,675.192 547.835,663.025 534.5,643.5C533.676,647.312 533.176,651.312 533,655.5C531.755,658.324 530.255,660.991 528.5,663.5ZM520.5,588.5C520.333,577.828 520.5,567.161 521,556.5C522.449,551.601 524.449,546.935 527,542.5C549.299,515.71 575.299,493.377 605,475.5C605.667,473.167 605.667,470.833 605,468.5C601.5,454.338 598.833,440.004 597,425.5C596.133,421.044 596.466,416.711 598,412.5C603.121,408.125 607.455,408.791 611,414.5C616.081,437.736 620.581,461.07 624.5,484.5C621.689,484.826 619.022,485.659 616.5,487C591.367,504.13 568.034,523.463 546.5,545L559.5,558C561.365,559.301 563.365,559.635 565.5,559C591.337,542.582 617.004,525.916 642.5,509C653.977,501.153 658.477,490.32 656,476.5C652.885,453.901 648.552,431.568 643,409.5C639.45,399.234 634.95,389.4 629.5,380C619.514,380.113 609.514,380.279 599.5,380.5L401.5,380.5C397.401,380.142 393.401,380.142 389.5,380.5C378.973,399.912 371.806,420.579 368,442.5C366.612,453.216 364.945,463.882 363,474.5C359.998,489.325 364.831,500.825 377.5,509C404.159,526.998 431.159,544.498 458.5,561.5C464.219,556.111 469.886,550.778 475.5,545.5C452.933,522.723 428.267,502.556 401.5,485C400.207,484.51 398.873,484.343 397.5,484.5C397.335,480.818 397.501,477.152 398,473.5C402.051,454.91 405.718,436.243 409,417.5C412.842,408.935 417.842,408.268 424,415.5C424.167,416.667 424.333,417.833 424.5,419C421.844,437.6 419.01,456.1 416,474.5C441.87,490.962 465.537,510.295 487,532.5C491.487,537.476 495.487,542.809 499,548.5C500.408,552.057 501.408,555.724 502,559.5C502.497,589.171 503.163,618.837 504,648.5C506.146,656.418 510.479,658.085 517,653.5C517.862,651.913 518.529,650.246 519,648.5C519.169,631.995 519.669,615.662 520.5,599.5L520.5,588.5Z"/>
    </g>
</svg>
