<?xml version="1.0" encoding="UTF-8" standalone="no"?>
<!DOCTYPE svg PUBLIC "-//W3C//DTD SVG 1.1//EN" "http://www.w3.org/Graphics/SVG/1.1/DTD/svg11.dtd">
<svg width="100%" height="100%" viewBox="0 0 1024 1024" version="1.1" xmlns="http://www.w3.org/2000/svg" xmlns:xlink="http://www.w3.org/1999/xlink" xml:space="preserve" xmlns:serif="http://www.serif.com/" style="fill-rule:evenodd;clip-rule:evenodd;stroke-linejoin:round;stroke-miterlimit:2;">
    <g transform="matrix(1.39989,0,0,1.39989,-205.209,-217.109)">
        <path d="M154.5,561.5C152.905,558.443 151.738,555.11 151,551.5C145.886,519.926 145.219,488.259 149,456.5C160.199,395.342 193.366,350.842 248.5,323C261.083,318.104 274.083,314.937 287.5,313.5C332.768,310.656 367.935,327.989 393,365.5C398.776,375.165 402.776,385.498 405,396.5C407.844,412.994 402.677,426.16 389.5,436C376.299,439.803 366.466,435.636 360,423.5C355.719,408.606 349.052,394.939 340,382.5C330.069,371.456 317.903,364.456 303.5,361.5C294.209,360.68 285.209,361.847 276.5,365C243.468,381.048 223.634,407.214 217,443.5C211.809,487.553 221.143,528.22 245,565.5C267.34,595.863 294.506,600.696 326.5,580C355.842,561.325 385.842,543.658 416.5,527C454.647,506.396 495.314,494.062 538.5,490C560.436,489.198 582.269,490.364 604,493.5C614.16,493.842 619.327,488.842 619.5,478.5C616.727,462.925 614.561,447.258 613,431.5C607.806,371.707 627.306,321.874 671.5,282C701.232,258.153 733.899,252.986 769.5,266.5C788.291,275.059 805.624,285.892 821.5,299C829.667,306.5 837.833,314 846,321.5C852.445,328.1 858.278,335.1 863.5,342.5C878.357,355.937 881.857,371.937 874,390.5C858.206,410.99 838.039,425.49 813.5,434C794.074,440.704 774.074,444.204 753.5,444.5C753.667,472.835 753.5,501.169 753,529.5C752.26,560.498 742.927,588.498 725,613.5C713.926,625.784 701.092,635.784 686.5,643.5C686.167,644.167 685.833,644.833 685.5,645.5C686.404,653.689 688.071,661.689 690.5,669.5C694.858,670.543 698.692,672.543 702,675.5C706.292,684.462 712.126,692.295 719.5,699C736.808,710.822 755.141,720.822 774.5,729C788.84,739.846 791.34,753.012 782,768.5C775.413,776.544 766.913,781.044 756.5,782C726.167,782.667 695.833,782.667 665.5,782C635.301,775.801 617.135,757.635 611,727.5C610.021,713.374 608.188,699.374 605.5,685.5C574.359,704.381 541.025,717.881 505.5,726C497.232,727.545 488.898,728.545 480.5,729C490.586,738.602 492.753,749.768 487,762.5C480.726,774.234 470.893,780.9 457.5,782.5L335.5,782.5C309.853,782.021 297.353,769.021 298,743.5C303.454,728.128 310.621,713.628 319.5,700C290.589,702.121 263.589,696.287 238.5,682.5C194.957,653.121 166.957,612.788 154.5,561.5ZM748.5,287.5C724.57,283.092 703.57,288.925 685.5,305C650.649,337.904 635.149,378.404 639,426.5C641.493,443.792 643.66,461.125 645.5,478.5C645.01,492.646 639.343,504.146 628.5,513C623.768,515.466 618.768,517.133 613.5,518C594.818,518.232 576.151,517.732 557.5,516.5C520.163,516.734 484.496,524.567 450.5,540C410.999,559.908 372.666,581.575 335.5,605C296.908,628.586 262.408,623.753 232,590.5C191.852,538.43 179.852,480.43 196,416.5C202.799,397.075 213.966,380.575 229.5,367C233.653,363.425 237.986,360.091 242.5,357C240.193,357.642 237.859,358.642 235.5,360C188.351,400.17 167.518,451.337 173,513.5C175.657,556.327 189.824,594.661 215.5,628.5C224.877,639.211 235.21,648.877 246.5,657.5C257.231,664.19 268.898,668.69 281.5,671C302.804,672.238 324.137,672.904 345.5,673C353.295,676.11 355.462,681.61 352,689.5C342.44,710.288 332.606,730.955 322.5,751.5C323.364,753.197 324.697,754.363 326.5,755C368.833,755.667 411.167,755.667 453.5,755C440.24,751.685 426.907,748.685 413.5,746C408.96,744.126 406.793,740.626 407,735.5C406.511,718.47 405.511,701.47 404,684.5C403.424,671.669 400.09,659.669 394,648.5L377,631.5C373.291,618.541 378.124,613.041 391.5,615C399.756,617.721 406.589,622.554 412,629.5C418.222,637.274 422.889,645.94 426,655.5C428.972,667.996 430.638,680.663 431,693.5C451.849,701.055 473.349,703.555 495.5,701C527.062,695.146 556.729,684.146 584.5,668C588.564,662.891 593.897,661.058 600.5,662.5C599.997,654.138 599.164,645.805 598,637.5C595.33,630.156 592.663,622.822 590,615.5C585.494,604.809 585.494,594.142 590,583.5C602.375,560.79 621.541,551.623 647.5,556C651.722,554.974 655.222,552.807 658,549.5C664.437,534.884 667.437,519.551 667,503.5C668.122,501.376 669.622,499.543 671.5,498C677.167,496 682.833,496 688.5,498C690.57,498.948 692.07,500.448 693,502.5C692.659,515.571 691.326,528.571 689,541.5C687.042,554.449 681.208,565.282 671.5,574C657.029,582.562 641.362,585.895 624.5,584C616.976,587.189 612.976,592.856 612.5,601C616.999,614.498 621.499,627.998 626,641.5C632.21,670.18 635.877,699.18 637,728.5C641.568,741.401 650.401,749.901 663.5,754C694.466,755.62 725.466,755.954 756.5,755C758.286,754.804 759.619,753.971 760.5,752.5C735.807,745.994 710.807,740.828 685.5,737C681.791,736.367 678.291,735.2 675,733.5C674.667,727.833 674.333,722.167 674,716.5C670.322,695.459 666.489,674.459 662.5,653.5C656.941,654.769 653.108,652.769 651,647.5C648.246,638.28 651.08,631.446 659.5,627C673.496,620.006 686.83,612.006 699.5,603C703.714,598.454 707.547,593.621 711,588.5C720.617,569.312 725.95,548.979 727,527.5C727.808,499.803 727.641,472.137 726.5,444.5C724.473,444.662 722.473,444.495 720.5,444C713.251,436.497 712.917,428.831 719.5,421C733.786,419.817 748.12,418.817 762.5,418C790.561,416.316 815.894,407.316 838.5,391C851.095,383.071 853.429,372.905 845.5,360.5C825.795,336.623 803.128,316.123 777.5,299C768.174,293.992 758.507,290.159 748.5,287.5ZM732.5,321.5C752.995,320.497 763.161,330.164 763,350.5C758.201,365.932 747.701,372.432 731.5,370C715.92,363.282 710.754,351.782 716,335.5C719.685,328.591 725.185,323.924 732.5,321.5ZM739.5,336.5C734.352,339.605 733.186,343.938 736,349.5C741.979,352.924 746.146,351.424 748.5,345C748.21,339.23 745.21,336.397 739.5,336.5ZM689.5,380.5C702.113,379.796 710.113,385.462 713.5,397.5C709.184,410.065 701.184,412.898 689.5,406C681.325,400.37 679.491,393.203 684,384.5C685.5,382.531 687.333,381.198 689.5,380.5Z"/>
    </g>
</svg>
