<?xml version="1.0" encoding="UTF-8" standalone="no"?>
<!DOCTYPE svg PUBLIC "-//W3C//DTD SVG 1.1//EN" "http://www.w3.org/Graphics/SVG/1.1/DTD/svg11.dtd">
<svg width="100%" height="100%" viewBox="0 0 1024 1024" version="1.1" xmlns="http://www.w3.org/2000/svg" xmlns:xlink="http://www.w3.org/1999/xlink" xml:space="preserve" xmlns:serif="http://www.serif.com/" style="fill-rule:evenodd;clip-rule:evenodd;stroke-linejoin:round;stroke-miterlimit:2;">
    <g transform="matrix(1.31225,0,0,1.31225,-197.049,-263.687)">
        <path d="M930.5,649.5C927.502,661.626 919.835,666.126 907.5,663C902.333,661.167 898.833,657.667 897,652.5C895.844,599.703 895.344,546.869 895.5,494C895.667,442.833 895.833,391.667 896,340.5C899.315,332.919 905.148,328.919 913.5,328.5C922.218,329.558 927.884,334.225 930.5,342.5L930.5,649.5ZM469.5,742.5C465.395,735.362 465.562,728.362 470,721.5C470.903,720.299 472.069,719.465 473.5,719C526.176,722.992 574.843,710.992 619.5,683C694.899,629.7 731.065,556.533 728,463.5C729.98,455.861 734.48,450.361 741.5,447C769.457,443.608 792.624,431.442 811,410.5C832.649,378.142 832.982,345.475 812,312.5C785.314,276.919 749.814,263.085 705.5,271C686.035,275.067 668.702,283.4 653.5,296C646.009,302.791 638.842,309.957 632,317.5C606.833,350.667 581.667,383.833 556.5,417C591.86,422.941 626.86,421.274 661.5,412C670.867,407.992 680.201,403.992 689.5,400C702.773,397.113 710.106,402.28 711.5,415.5C692.51,476.333 656.843,524.833 604.5,561C542.545,600.106 476.878,607.773 407.5,584C404.209,582.403 400.875,580.903 397.5,579.5C394.636,593.436 398.803,604.769 410,613.5C417.775,629.162 413.275,639.662 396.5,645C386.798,654.37 376.798,663.37 366.5,672C310.799,716.855 255.466,762.188 200.5,808C190.352,815.64 184.018,825.64 181.5,838C183.228,847.12 187.561,854.787 194.5,861C225.771,876.969 257.104,892.969 288.5,909C308.402,917.154 324.569,912.654 337,895.5C373.183,818.8 410.183,742.467 448,666.5C456.626,657.567 465.626,657.234 475,665.5C478.575,670.855 479.242,676.522 477,682.5C468.798,697.522 461.298,712.855 454.5,728.5C426.714,786.742 398.881,845.076 371,903.5C357.81,929.77 336.476,943.77 307,945.5C297.59,944.793 288.423,942.96 279.5,940C246.521,925.338 214.188,909.338 182.5,892C151.026,871.285 142.526,843.451 157,808.5C163.987,796.174 173.154,785.674 184.5,777C211.749,755.755 238.416,733.755 264.5,711C301.199,682.314 337.532,653.147 373.5,623.5C369.455,616.668 366.621,609.335 365,601.5C363.407,588.542 362.24,575.542 361.5,562.5C309.436,526.27 265.603,481.936 230,429.5C211.14,401.608 196.473,371.608 186,339.5C179.969,319.771 178.636,299.771 182,279.5C192.127,254.782 209.96,246.615 235.5,255C279.333,281.416 323,308.082 366.5,335C379.078,341.536 391.245,348.703 403,356.5C400.938,339.511 398.605,322.511 396,305.5C393.136,281.388 402.636,264.221 424.5,254C436.977,251.113 448.977,252.446 460.5,258C500.344,282.516 540.177,307.016 580,331.5C593.965,311.522 609.465,292.689 626.5,275C647.977,257.429 672.31,245.429 699.5,239C763.264,229.144 812.097,251.311 846,305.5C860.734,334.391 864.734,364.725 858,396.5C867.5,414.167 877,431.833 886.5,449.5C867.726,447.773 848.726,445.44 829.5,442.5C827.833,442.833 826.167,443.167 824.5,443.5C806.25,460.293 784.917,471.293 760.5,476.5C761.095,557.45 732.429,625.95 674.5,682C644.428,709.02 610.094,729.02 571.5,742C540.996,750.06 509.996,752.727 478.5,750C474.238,748.888 471.238,746.388 469.5,742.5ZM218.5,283.5C213.505,287.504 211.172,292.837 211.5,299.5C213.879,312.681 217.045,325.681 221,338.5C253.224,419.053 305.058,483.886 376.5,533C419.333,559.633 465.666,568.967 515.5,561C582.152,546.169 630.818,508.335 661.5,447.5C616.963,456.186 572.297,455.353 527.5,445C502.203,437.352 477.536,428.019 453.5,417C374.793,378.161 299.126,334.494 226.5,286C224.091,284.293 221.425,283.46 218.5,283.5ZM434.5,285.5C429.417,288.872 427.084,293.705 427.5,300C430.793,318.133 433.96,336.3 437,354.5C438.513,360.888 440.18,367.221 442,373.5C451.979,379.907 462.479,385.407 473.5,390C489.618,397.06 505.952,403.56 522.5,409.5C535.078,392.677 547.411,375.677 559.5,358.5C522.7,335.531 486.033,312.364 449.5,289C444.947,285.992 439.947,284.826 434.5,285.5ZM774.5,323.5C793.27,322.039 802.103,330.706 801,349.5C798.547,361.119 791.38,367.119 779.5,367.5C766.642,365.305 759.642,357.638 758.5,344.5C759.762,334.275 765.095,327.275 774.5,323.5ZM800.5,638.5C826.502,638.333 852.502,638.5 878.5,639C885.462,641.709 889.462,646.875 890.5,654.5C889.216,662.28 884.883,667.446 877.5,670C856.503,670.5 835.503,670.667 814.5,670.5C814.667,698.502 814.5,726.502 814,754.5C811.283,765.1 804.45,769.266 793.5,767C785.425,762.868 781.091,756.202 780.5,747C781.628,717.496 781.795,687.996 781,658.5C783.646,648.021 790.146,641.354 800.5,638.5Z"/>
    </g>
</svg>
