<?xml version="1.0" encoding="UTF-8" standalone="no"?>
<!DOCTYPE svg PUBLIC "-//W3C//DTD SVG 1.1//EN" "http://www.w3.org/Graphics/SVG/1.1/DTD/svg11.dtd">
<svg width="100%" height="100%" viewBox="0 0 1024 1024" version="1.1" xmlns="http://www.w3.org/2000/svg" xmlns:xlink="http://www.w3.org/1999/xlink" xml:space="preserve" xmlns:serif="http://www.serif.com/" style="fill-rule:evenodd;clip-rule:evenodd;stroke-linejoin:round;stroke-miterlimit:2;">
    <g transform="matrix(1.25347,0,0,1.25347,-90.9647,-132.049)">
        <path d="M577.5,271.5C615.827,268.71 647.827,281.376 673.5,309.5C701.005,290.382 730.338,287.216 761.5,300C793.469,315.569 810.469,341.236 812.5,377C812.991,394.026 807.991,409.192 797.5,422.5C820.938,442.813 827.771,467.813 818,497.5C808.963,516.723 795.797,532.556 778.5,545C756.843,560.166 734.51,574.333 711.5,587.5C719.874,604.126 727.374,621.126 734,638.5C734.612,650.892 728.612,657.225 716,657.5C712.871,657.671 710.037,656.838 707.5,655C704.067,651.958 701.234,648.458 699,644.5C692.343,630.518 685.177,616.851 677.5,603.5C664.374,609.819 651.04,615.653 637.5,621C636.484,621.519 635.818,622.353 635.5,623.5C639.215,636.77 645.882,648.27 655.5,658L661.5,661C679.768,662.294 698.101,662.961 716.5,663C718.246,663.471 719.913,664.138 721.5,665C731.144,675.442 730.811,685.442 720.5,695C716.58,696.313 712.58,697.313 708.5,698C694.167,698.667 679.833,698.667 665.5,698C641.233,693.723 623.066,680.89 611,659.5C606.27,650.709 602.103,641.709 598.5,632.5C572.292,642.147 545.292,648.48 517.5,651.5C516.335,639.516 515.335,627.516 514.5,615.5C545.343,612.456 575.343,605.623 604.5,595C634.663,584.749 663.997,572.582 692.5,558.5C644.17,557.667 595.837,557.167 547.5,557C541.279,555.077 537.446,550.91 536,544.5C534.175,535.965 536.675,529.132 543.5,524C612.456,522.68 681.456,522.013 750.5,522C763.301,513.864 774.134,503.697 783,491.5C788.624,478.696 787.291,466.696 779,455.5C770.665,446.753 761.165,439.587 750.5,434C711.663,405.162 677.496,371.662 648,333.5C631.737,316.011 611.57,306.677 587.5,305.5C558.106,307.606 535.94,321.273 521,346.5C516.629,355.316 514.463,364.65 514.5,374.5C516.029,385.933 517.863,397.267 520,408.5C517.004,419.006 511.171,427.506 502.5,434C500.5,434.667 498.5,434.667 496.5,434C464.251,415.27 429.584,407.604 392.5,411C350.67,420.174 319.836,443.674 300,481.5C291.638,498.695 289.305,516.695 293,535.5C308.106,568.381 324.773,600.381 343,631.5C347.613,645.539 342.613,653.206 328,654.5C324.617,654.483 321.45,653.65 318.5,652C311.028,644.899 305.695,636.399 302.5,626.5C297.5,625.667 292.5,624.833 287.5,624C250.401,610.723 213.067,598.056 175.5,586C149.502,581.886 129.668,591.053 116,613.5C104.935,634.999 106.268,655.666 120,675.5C137.732,693.235 156.065,710.235 175,726.5C184.044,742.921 179.544,752.921 161.5,756.5C157.387,756.111 153.72,754.611 150.5,752C131,733.833 111.5,715.667 92,697.5C71.037,668.797 67.037,637.797 80,604.5C98.311,566.757 128.478,548.59 170.5,550C180.328,551.207 189.995,553.207 199.5,556C223.735,564.37 247.902,572.87 272,581.5C246.214,527.2 252.548,476.867 291,430.5C343.806,376.259 405.973,361.926 477.5,387.5C477.756,334.791 502.09,298.291 550.5,278C559.513,275.329 568.513,273.162 577.5,271.5ZM717.5,326.5C710.596,328.443 703.93,331.276 697.5,335C696.549,335.718 696.383,336.551 697,337.5C706.434,348.937 716.601,359.77 727.5,370C741.096,382.788 755.43,394.622 770.5,405.5C776.108,395.186 778.275,384.186 777,372.5C769.29,341.636 749.456,326.302 717.5,326.5ZM575.5,334.5C604.368,331.173 624.201,342.839 635,369.5C640.303,398.737 629.136,418.571 601.5,429C570.829,435.293 549.996,423.793 539,394.5C534.113,363.916 546.28,343.916 575.5,334.5ZM583.5,368.5C580.645,370.506 578.479,373.172 577,376.5C575.779,383.891 578.612,389.058 585.5,392C595.583,391.908 600.083,386.741 599,376.5C596.168,369.5 591.001,366.833 583.5,368.5ZM335.5,487.5C339.846,487.334 344.179,487.501 348.5,488C351.102,488.883 353.269,490.383 355,492.5C371.317,527.136 387.65,561.803 404,596.5C405.881,600.307 407.047,604.307 407.5,608.5C419.436,608.388 431.269,609.388 443,611.5C441.936,589.981 439.269,568.315 435,546.5C432.448,524.721 441.614,517.221 462.5,524C466.949,527.397 469.449,531.897 470,537.5C475.951,584.153 481.618,630.82 487,677.5C492.106,691.606 501.939,700.44 516.5,704C635.833,704.333 755.167,704.667 874.5,705C883.612,707.677 888.612,713.844 889.5,723.5C888.24,730.912 884.24,736.078 877.5,739C754.833,739.667 632.167,739.667 509.5,739C475.474,730.639 455.641,709.139 450,674.5C449.252,665.465 449.419,656.465 450.5,647.5C440.903,645.941 431.236,644.941 421.5,644.5C423.335,676.007 410.668,699.507 383.5,715C375.778,718.264 367.778,720.597 359.5,722C318.5,722.667 277.5,722.667 236.5,722C220.603,720.052 205.937,714.718 192.5,706C172.333,689.833 152.167,673.667 132,657.5C125.282,647.19 126.115,637.69 134.5,629C143.377,626.288 151.377,627.955 158.5,634C176.26,649.097 194.594,663.43 213.5,677C222.137,681.323 231.137,684.657 240.5,687C278.167,687.667 315.833,687.667 353.5,687C379.2,682.449 389.7,667.282 385,641.5C382.228,632.622 378.895,623.955 375,615.5C358.667,580.833 342.333,546.167 326,511.5C323.245,500.897 326.411,492.897 335.5,487.5ZM805.5,623.5C820.643,621.814 827.809,628.48 827,643.5C824.58,650.302 819.747,654.136 812.5,655C826.23,656.146 839.897,657.813 853.5,660C861.167,660.333 868.833,660.667 876.5,661C883.445,664.871 887.111,670.871 887.5,679C886.824,689.009 881.491,694.343 871.5,695C844.889,695.049 818.555,692.382 792.5,687C773.837,674.344 770.003,658.177 781,638.5C787.755,631.046 795.921,626.046 805.5,623.5Z"/>
    </g>
</svg>
