<?xml version="1.0" encoding="UTF-8" standalone="no"?>
<!DOCTYPE svg PUBLIC "-//W3C//DTD SVG 1.1//EN" "http://www.w3.org/Graphics/SVG/1.1/DTD/svg11.dtd">
<svg width="100%" height="100%" viewBox="0 0 1024 1024" version="1.1" xmlns="http://www.w3.org/2000/svg" xmlns:xlink="http://www.w3.org/1999/xlink" xml:space="preserve" xmlns:serif="http://www.serif.com/" style="fill-rule:evenodd;clip-rule:evenodd;stroke-linejoin:round;stroke-miterlimit:2;">
    <g transform="matrix(1.30265,0,0,1.30265,-147.182,-183.212)">
        <path d="M338.5,828.5C324.416,831.755 310.416,831.089 296.5,826.5C269.967,810.734 262.8,788.734 275,760.5C281.32,751.009 289.82,744.343 300.5,740.5C304.833,738.498 309.5,737.498 314.5,737.5C435.834,737.333 557.167,737.5 678.5,738C685.085,742.468 687.252,748.635 685,756.5C684.214,759.583 682.381,761.749 679.5,763C675.152,764.583 670.818,765.749 666.5,766.5L523.5,766.5C452.833,766.333 382.166,766.5 311.5,767C301.311,770.532 297.145,777.698 299,788.5C300.328,795.497 304.495,799.331 311.5,800C420.833,800.333 530.167,800.667 639.5,801C649.179,804.672 652.346,811.506 649,821.5C647.542,823.96 645.709,826.127 643.5,828C636.896,829.082 630.229,829.582 623.5,829.5C617.989,829.499 612.656,829.166 607.5,828.5L338.5,828.5ZM463.5,304.5C495.458,303.954 517.958,318.287 531,347.5C538.976,387.712 524.81,417.212 488.5,436C461.911,446.748 438.411,442.248 418,422.5C400.974,400.364 396.974,376.031 406,349.5C417.696,324.759 436.863,309.759 463.5,304.5ZM465.5,334.5C457.486,336.762 450.319,340.762 444,346.5C437.431,354.642 432.764,363.642 430,373.5C440.272,365.958 451.439,364.125 463.5,368C470.689,375.044 471.356,382.711 465.5,391C456.897,397.2 447.23,400.2 436.5,400C440.199,406.691 445.865,410.691 453.5,412C479.712,412.657 496.545,400.49 504,375.5C506.136,347.802 493.303,334.136 465.5,334.5ZM279.5,401.5C300.279,400.875 312.612,410.709 316.5,431C313.506,450.328 302.339,461.162 283,463.5C258.798,458.277 249.798,443.61 256,419.5C260.866,409.498 268.699,403.498 279.5,401.5ZM641.5,326.5C695.093,325.153 743.093,340.653 785.5,373C830.539,407.545 859.039,452.712 871,508.5C877.159,534.869 879.159,561.536 877,588.5C888.407,603.715 895.741,620.715 899,639.5C900.439,693.196 881.272,738.029 841.5,774C798.283,808.297 749.283,822.964 694.5,818C688.939,812.636 687.105,806.136 689,798.5C690.832,795.639 692.999,793.139 695.5,791C742.406,792.365 784.739,779.365 822.5,752C853.765,724.216 869.598,689.383 870,647.5C869.303,638.076 866.97,629.076 863,620.5C857.268,611.761 851.935,602.761 847,593.5C851.723,548.554 844.723,505.554 826,464.5C795.166,407.643 747.999,372.477 684.5,359C660.22,354.092 636.553,356.092 613.5,365C598.244,370.863 582.91,376.53 567.5,382C555.771,383.115 549.771,377.615 549.5,365.5C549.871,360.259 552.205,356.092 556.5,353C576.642,347.764 596.309,341.097 615.5,333C624.257,330.622 632.924,328.455 641.5,326.5ZM533.5,461.5C543.431,461.853 553.097,463.686 562.5,467C580.211,475.105 595.711,486.271 609,500.5C613.996,510.218 611.83,517.718 602.5,523C597.889,524.007 593.555,523.34 589.5,521C579.611,509.069 567.611,500.069 553.5,494C545.809,492.414 538.142,490.748 530.5,489C523.957,482.402 522.791,474.902 527,466.5C529.326,464.934 531.492,463.268 533.5,461.5ZM221.5,423.5C208.274,439.737 196.607,457.07 186.5,475.5C183.997,477.833 181.331,479.999 178.5,482C168.492,483.165 163.158,478.665 162.5,468.5C149.663,469.838 142.663,477.005 141.5,490C143.422,507.593 153.089,514.926 170.5,512C176.076,516.155 180.743,521.155 184.5,527C193.117,535.946 203.117,542.946 214.5,548C219.375,549.802 224.375,551.135 229.5,552C260.681,553.087 291.348,557.421 321.5,565C350.44,575.468 378.44,588.134 405.5,603C418.228,607.098 431.228,610.098 444.5,612C453.7,616.541 460.2,623.708 464,633.5C469.35,647.023 468.35,660.023 461,672.5C453.473,681.36 445.306,689.527 436.5,697C422.546,704.905 407.546,708.572 391.5,708C375.477,715.328 363.644,711.161 356,695.5C353.056,686.122 354.389,677.455 360,669.5C363.757,666.414 366.757,662.748 369,658.5C373.996,647.005 377.83,635.171 380.5,623C351.973,604.568 320.973,592.568 287.5,587C265.515,584.584 243.515,582.251 221.5,580C197.002,573.425 176.336,560.759 159.5,542C127.967,534.791 112.467,514.958 113,482.5C116.589,462.246 128.089,448.746 147.5,442C156.03,439.992 164.364,440.325 172.5,443C190.56,408.946 215.56,381.279 247.5,360C265.094,350.036 283.094,340.869 301.5,332.5C290.725,311.136 289.892,289.469 299,267.5C317.311,237.203 342.811,229.369 375.5,244C400.437,260.748 411.603,284.248 409,314.5C408.667,316.167 408.333,317.833 408,319.5C401.624,324.209 396.291,329.875 392,336.5C388.679,341.474 386.179,346.807 384.5,352.5C325.854,349.603 275.521,368.603 233.5,409.5C229.103,413.892 225.103,418.558 221.5,423.5ZM341.5,265.5C331.951,270.882 325.451,278.882 322,289.5C320.791,300.999 322.624,311.999 327.5,322.5C328,322.833 328.5,323.167 329,323.5C345.805,321.318 362.638,319.318 379.5,317.5C381.992,309.904 382.159,302.237 380,294.5C373.325,276.658 360.491,266.991 341.5,265.5ZM410.5,633.5C406.021,650.294 398.021,665.127 386.5,678C415.345,681.606 433.012,669.44 439.5,641.5C432.18,640.004 424.846,638.504 417.5,637C414.97,636.109 412.637,634.942 410.5,633.5ZM515.5,534.5C521.605,533.651 527.105,534.984 532,538.5C538.589,555.682 547.256,571.682 558,586.5C575.356,606.189 593.69,624.856 613,642.5C618.883,649.483 621.55,657.483 621,666.5C619.637,672.866 615.804,677.032 609.5,679C633.484,680.071 657.484,680.571 681.5,680.5C702.861,680.619 724.195,680.119 745.5,679C768.837,674.33 789.504,664.33 807.5,649C820.01,644.055 830.51,646.888 839,657.5C848.388,673.274 850.388,689.941 845,707.5C835.917,730.251 820.751,747.751 799.5,760C765.843,778.237 730.343,783.403 693,775.5C687.839,766.974 688.672,759.14 695.5,752C727.739,753.183 758.406,746.85 787.5,733C799.435,725.733 808.601,715.899 815,703.5C818.36,694.735 819.194,685.735 817.5,676.5C816.772,678.193 815.772,679.693 814.5,681C793.413,695.81 770.08,705.143 744.5,709C680.488,709.181 616.488,709.681 552.5,710.5C540.996,708.184 536.496,701.184 539,689.5C540.406,684.427 543.572,680.927 548.5,679C553.201,678.607 557.868,678.607 562.5,679C557.54,676.853 552.873,674.186 548.5,671C544,665.833 539.5,660.667 535,655.5C529.658,678.503 516.491,695.336 495.5,706C486.809,709.539 477.809,710.873 468.5,710C456.783,705.732 452.616,697.566 456,685.5C458.592,682.238 461.759,679.738 465.5,678C473.548,677.299 481.548,676.299 489.5,675C496.67,669.169 501.17,661.669 503,652.5C505.699,640.308 506.866,627.974 506.5,615.5C518.245,615.768 529.912,614.934 541.5,613C528.642,597.124 518.475,579.624 511,560.5C508.229,553.258 507.896,545.924 510,538.5C511.812,537.023 513.645,535.69 515.5,534.5ZM564.5,639.5C564.297,641.39 564.963,642.89 566.5,644C570.027,646.591 573.694,648.591 577.5,650C573.273,646.263 568.94,642.763 564.5,639.5Z"/>
    </g>
</svg>
