<?xml version="1.0" encoding="UTF-8" standalone="no"?>
<!DOCTYPE svg PUBLIC "-//W3C//DTD SVG 1.1//EN" "http://www.w3.org/Graphics/SVG/1.1/DTD/svg11.dtd">
<svg width="100%" height="100%" viewBox="0 0 1024 1024" version="1.1" xmlns="http://www.w3.org/2000/svg" xmlns:xlink="http://www.w3.org/1999/xlink" xml:space="preserve" xmlns:serif="http://www.serif.com/" style="fill-rule:evenodd;clip-rule:evenodd;stroke-linejoin:round;stroke-miterlimit:2;">
    <g transform="matrix(1.42114,0,0,1.42114,-250.12,-306.508)">
        <path d="M859.5,371.5C860.842,370.207 862.509,369.374 864.5,369C859.094,368.385 853.761,367.385 848.5,366C779.382,345.068 709.716,326.402 639.5,310C528.924,286.359 417.258,274.526 304.5,274.5C325.496,311.163 346.996,347.496 369,383.5C374.42,390.654 374.753,397.988 370,405.5C361.953,414.043 354.12,422.71 346.5,431.5C325.706,451.284 305.706,471.784 286.5,493C278.022,496.058 272.522,493.224 270,484.5C268.993,479.889 269.66,475.555 272,471.5C295.65,445.683 319.483,420.016 343.5,394.5C317.99,352.821 293.49,310.488 270,267.5C267.956,262.369 268.289,257.369 271,252.5C272.214,250.951 273.714,249.785 275.5,249C301.003,248.17 326.337,248.337 351.5,249.5C400.335,250.514 449.002,253.848 497.5,259.5C503.021,259.782 508.354,260.449 513.5,261.5C602.81,274.218 690.81,293.052 777.5,318C813.372,328.348 849.039,339.181 884.5,350.5C897.47,357.663 899.97,367.663 892,380.5C882.581,391.42 872.415,401.42 861.5,410.5C820.823,449.18 775.823,482.014 726.5,509C716.538,514.375 706.205,518.875 695.5,522.5C681.445,545.394 665.279,566.728 647,586.5C624.417,610.751 600.25,633.251 574.5,654C567.731,659.706 560.898,659.872 554,654.5C549.25,647.44 549.417,640.607 554.5,634C593.215,606.286 627.048,573.453 656,535.5C661.974,525.049 667.808,514.549 673.5,504C693.544,496.646 712.878,487.646 731.5,477C761.607,458.224 790.607,437.89 818.5,416C798.798,421.9 779.131,428.233 759.5,435C746.213,438.214 732.88,441.214 719.5,444C704.524,445.424 689.524,445.757 674.5,445C666.615,444.853 658.949,443.519 651.5,441C650.069,440.535 648.903,439.701 648,438.5C643.758,430.029 644.925,422.529 651.5,416C636.828,408.653 628.328,396.819 626,380.5C623.546,353.557 635.046,335.724 660.5,327C672.349,324.1 683.683,325.434 694.5,331C710.518,339.182 718.851,352.349 719.5,370.5C717.775,395.061 705.108,410.894 681.5,418C691.822,419.876 702.156,419.876 712.5,418C725.66,416.085 738.66,413.418 751.5,410C787.931,398.246 823.931,385.413 859.5,371.5ZM668.5,350.5C665.766,351.705 663.099,353.205 660.5,355C647.285,366.975 647.285,378.975 660.5,391C680.81,396.42 690.644,388.587 690,367.5C687.047,356.446 679.88,350.78 668.5,350.5ZM244.5,764.5C242.323,764.414 240.323,763.747 238.5,762.5C232.923,782.547 228.423,802.881 225,823.5C219.231,826.311 213.565,825.978 208,822.5C206.249,820.51 205.249,818.177 205,815.5C204.153,809.186 203.487,802.853 203,796.5C203.273,821.017 205.606,845.351 210,869.5C211.667,867.167 213.333,864.833 215,862.5C226.348,851.319 237.514,839.986 248.5,828.5C251.221,826.473 254.221,824.973 257.5,824C291.482,822.251 325.482,821.251 359.5,821C369.411,825.006 371.911,831.839 367,841.5C365.269,843.617 363.102,845.117 360.5,846C328.196,848.027 295.863,849.527 263.5,850.5C246.869,865.824 230.536,881.658 214.5,898C206.433,904.883 198.099,905.217 189.5,899C187.014,895.863 185.181,892.363 184,888.5C179.507,846.604 176.84,804.604 176,762.5C177.124,757.221 179.958,753.221 184.5,750.5C179.885,661.837 206.385,584.17 264,517.5C279.195,501.971 294.695,486.804 310.5,472C349.68,438.738 394.347,415.405 444.5,402C460.627,398.464 467.127,404.631 464,420.5C462.5,423.333 460.333,425.5 457.5,427C430.195,431.769 404.528,441.102 380.5,455C357.506,468.319 336.172,483.819 316.5,501.5C292.63,521.87 272.13,545.203 255,571.5C222.818,621.384 208.484,676.05 212,735.5C213.556,725.873 216.056,716.54 219.5,707.5C239.63,667.534 267.296,633.7 302.5,606C358.257,563.134 420.924,534.801 490.5,521C532.427,512.645 574.761,508.312 617.5,508C625.576,512.577 627.41,519.077 623,527.5C621.363,529.81 619.196,531.31 616.5,532C559.444,534.769 503.444,543.769 448.5,559C380.559,578.53 323.059,614.363 276,666.5C265.163,679.674 255.496,693.674 247,708.5C243.372,716.052 240.538,723.886 238.5,732C238.833,732.833 239.167,733.667 239.5,734.5C273.634,748.069 307.634,761.902 341.5,776C346.18,781.791 346.68,787.958 343,794.5C337.371,799.144 331.204,799.811 324.5,796.5C297.531,786.34 270.864,775.673 244.5,764.5ZM544.5,330.5C551.152,329.618 556.985,331.285 562,335.5C565.333,340.167 565.333,344.833 562,349.5C545.066,368.767 541.4,390.433 551,414.5C555.33,423.836 560.664,432.502 567,440.5C574.364,448.198 582.03,455.531 590,462.5C593.042,472.049 590.208,479.216 581.5,484C576.928,484.887 572.595,484.22 568.5,482C561,473.833 553.5,465.667 546,457.5C522.102,428.693 514.769,396.026 524,359.5C525.945,350.109 530.111,341.942 536.5,335C539.099,333.205 541.766,331.705 544.5,330.5Z"/>
    </g>
</svg>
