<?xml version="1.0" encoding="UTF-8" standalone="no"?>
<!DOCTYPE svg PUBLIC "-//W3C//DTD SVG 1.1//EN" "http://www.w3.org/Graphics/SVG/1.1/DTD/svg11.dtd">
<svg width="100%" height="100%" viewBox="0 0 1024 1024" version="1.1" xmlns="http://www.w3.org/2000/svg" xmlns:xlink="http://www.w3.org/1999/xlink" xml:space="preserve" xmlns:serif="http://www.serif.com/" style="fill-rule:evenodd;clip-rule:evenodd;stroke-linejoin:round;stroke-miterlimit:2;">
    <g transform="matrix(1.19873,0,0,1.19873,-141.508,-82.6266)">
        <path d="M267.5,692.5C258.724,687.282 249.391,682.782 239.5,679C236.061,676.861 232.894,674.361 230,671.5C228.485,667.103 226.818,662.77 225,658.5C214.773,654.379 212.106,647.379 217,637.5C222.6,631.949 229.1,627.782 236.5,625C229.611,622.307 223.444,618.473 218,613.5C214.751,608.029 215.084,602.696 219,597.5C232.184,585.986 245.684,574.819 259.5,564C252.317,558.573 245.317,552.906 238.5,547C234.938,543.942 231.938,540.442 229.5,536.5C209.18,535.207 189.18,537.207 169.5,542.5C185.449,554.148 201.782,565.315 218.5,576C222.259,579.743 223.426,584.243 222,589.5C215.084,594.595 207.584,598.761 199.5,602C183.283,609.127 166.95,615.961 150.5,622.5C174.172,638.007 198.505,652.507 223.5,666C227.982,669.705 228.649,674.038 225.5,679C220.57,678.955 215.903,679.955 211.5,682C189.662,696.085 167.995,710.418 146.5,725C142.207,726.202 138.707,725.035 136,721.5C134.582,716.572 134.249,711.572 135,706.5L139.5,702C155.106,692.058 170.44,681.725 185.5,671C164.961,657.897 143.961,645.563 122.5,634C120.683,632.2 119.516,630.034 119,627.5C116.59,619.759 118.757,613.925 125.5,610C146.336,600.61 167.336,591.61 188.5,583C173.167,572.333 157.833,561.667 142.5,551C135.046,545.641 132.546,538.474 135,529.5C136.637,527.19 138.804,525.69 141.5,525C161.695,520.534 182.028,516.868 202.5,514C187.008,500.507 172.174,486.341 158,471.5C153.124,464.886 153.624,458.72 159.5,453C164.223,451.888 169.056,451.388 174,451.5C198.881,452.742 223.715,454.242 248.5,456C230.724,439.894 213.224,423.394 196,406.5C193.324,403.141 191.824,399.308 191.5,395C191.739,389.261 194.739,386.428 200.5,386.5C233.335,392.294 265.668,399.794 297.5,409C281.575,390.309 266.741,370.809 253,350.5C247.86,342.47 248.36,334.97 254.5,328C258.167,327.333 261.833,327.333 265.5,328C287.571,335.08 309.571,342.246 331.5,349.5C328.643,328.592 326.643,307.592 325.5,286.5C322.467,273.373 327.467,267.873 340.5,270C344.544,270.856 348.211,272.522 351.5,275C362.146,285.468 371.813,296.634 380.5,308.5C381.117,308.611 381.617,308.944 382,309.5C382.651,286.152 383.651,262.819 385,239.5C388.424,231.9 394.258,229.4 402.5,232C404.96,233.458 407.127,235.291 409,237.5C421.83,255.824 434.163,274.49 446,293.5C444.245,279.933 443.412,266.266 443.5,252.5C444.147,243.853 444.147,235.186 443.5,226.5C444.001,221.684 446.668,218.85 451.5,218C455.782,217.035 459.782,217.702 463.5,220C481.096,240.927 497.93,262.427 514,284.5C515.705,286.577 516.872,288.91 517.5,291.5C525.581,269.597 534.747,247.264 545,224.5C558.444,216.215 567.11,219.881 571,235.5C579.401,262.768 586.067,290.435 591,318.5C602.062,285.206 618.228,254.706 639.5,227C648.99,222.781 655.157,225.614 658,235.5C659.875,266.205 662.208,296.871 665,327.5C683.884,297.953 703.551,268.953 724,240.5C731,235.167 738,235.167 745,240.5C747.204,255.058 748.371,269.725 748.5,284.5C747.501,301.162 746.501,317.829 745.5,334.5C745.833,336.833 746.167,339.167 746.5,341.5C768.976,327.26 792.643,315.094 817.5,305C824.744,302.197 832.077,299.697 839.5,297.5C846.876,299.24 850.043,303.906 849,311.5C839.091,337.643 828.924,363.643 818.5,389.5C823.493,389.084 828.493,388.751 833.5,388.5C855.212,383.696 877.212,382.53 899.5,385C904.555,390.93 904.722,397.097 900,403.5L840.5,463C847.171,465.843 852.838,470.01 857.5,475.5C881.7,494.87 897.033,519.87 903.5,550.5C921.503,550.333 939.503,550.5 957.5,551C964.038,551.346 968.538,554.513 971,560.5C974.66,576.694 970.493,590.527 958.5,602C949.339,607.806 939.339,610.306 928.5,609.5C895.162,662.617 847.496,695.117 785.5,707C760.664,710.198 735.83,710.032 711,706.5C691.279,707.889 679.279,718.222 675,737.5C674.501,742.823 674.334,748.156 674.5,753.5C734.834,753.333 795.168,753.5 855.5,754C856.931,754.465 858.097,755.299 859,756.5C862.611,764.652 860.444,770.486 852.5,774C621.167,774.667 389.833,774.667 158.5,774C155.458,773.445 153.625,771.612 153,768.5C152.333,764.5 152.333,760.5 153,756.5C153.903,755.299 155.069,754.465 156.5,754C179.167,753.667 201.833,753.333 224.5,753C207.028,747.065 189.361,741.732 171.5,737C165.032,732.023 164.032,726.19 168.5,719.5C201.505,710.391 234.505,701.391 267.5,692.5ZM363.5,321.5C358.103,316.597 353.603,310.93 350,304.5C350.2,322.571 351.533,340.571 354,358.5C358.853,362.172 364.019,365.172 369.5,367.5C377.757,370.962 385.757,374.962 393.5,379.5C393.32,372.759 391.82,366.092 389,359.5C385.599,354.423 382.599,349.089 380,343.5C374.239,336.286 368.739,328.953 363.5,321.5ZM912.5,573.5C914.926,577.762 918.26,581.262 922.5,584C934.817,589.284 944.15,586.117 950.5,574.5C938.135,573.815 925.802,573.148 913.5,572.5C912.893,572.624 912.56,572.957 912.5,573.5ZM445.5,680.5C440.814,682.339 436.147,684.506 431.5,687C407.399,703.136 398.733,725.303 405.5,753.5L518.5,753.5C518.87,743.111 518.37,732.777 517,722.5C515.529,718.419 513.862,714.419 512,710.5C496.371,686.611 474.204,676.611 445.5,680.5ZM489.5,289.5C487.537,288.04 485.704,286.373 484,284.5C477.613,276.446 471.613,268.112 466,259.5C465.346,258.304 464.846,258.304 464.5,259.5C470.797,303.355 479.631,346.688 491,389.5C492.128,387.655 492.628,385.655 492.5,383.5C498.342,362.469 504.342,341.469 510.5,320.5C503.727,309.936 496.727,299.603 489.5,289.5ZM416.5,431.5C414.457,426.226 412.291,420.893 410,415.5C406.448,412.281 402.615,409.448 398.5,407C361.954,387.476 324.121,370.643 285,356.5C285.044,358.279 285.711,359.945 287,361.5C303.368,383.541 320.868,404.708 339.5,425C359.727,433.446 379.727,442.446 399.5,452C402,453.167 403.833,455 405,457.5C407.16,467.999 402.993,472.832 392.5,472C366.313,460.409 339.98,449.075 313.5,438C288.601,430.03 263.601,422.697 238.5,416C268.622,449.458 301.289,480.125 336.5,508C341.167,510.667 345.833,513.333 350.5,516C353.628,517.788 354.961,520.455 354.5,524C354.901,531.766 351.234,535.266 343.5,534.5C331.615,531.957 319.615,530.123 307.5,529C289.158,528.167 270.824,528.334 252.5,529.5C277.671,550.816 305.337,568.316 335.5,582C337.592,583.853 338.592,586.186 338.5,589C337.387,598.126 332.387,601.792 323.5,600C308.742,593.121 294.075,585.955 279.5,578.5C267.339,585.571 256.339,594.071 246.5,604C267.308,615.905 288.974,625.905 311.5,634C318.067,638.21 319.234,643.71 315,650.5C309.845,653.305 304.345,654.138 298.5,653C287.652,650.269 276.652,648.436 265.5,647.5C256.489,647.783 247.823,649.616 239.5,653C246.312,656.091 252.979,659.258 259.5,662.5C270.962,666.709 282.296,671.209 293.5,676C301.323,678.941 309.323,681.274 317.5,683C320.333,684.5 322.5,686.667 324,689.5C325.018,695.965 322.518,700.465 316.5,703C284.005,710.932 251.671,719.432 219.5,728.5C240.159,736.495 260.826,744.495 281.5,752.5C315.002,753.83 348.669,753.83 382.5,752.5C382.376,751.893 382.043,751.56 381.5,751.5C381.034,746.182 380.701,740.849 380.5,735.5C382.347,700.835 399.014,676.335 430.5,662C459.385,652.925 486.052,657.259 510.5,675C534.766,695.194 544.433,720.861 539.5,752C540.448,752.483 541.448,752.649 542.5,752.5C578.996,753.498 615.663,753.832 652.5,753.5L652.5,743.5C653.616,712.748 668.949,693.248 698.5,685C716.504,685 734.504,685.5 752.5,686.5C818.95,684.784 870.283,656.284 906.5,601C896.975,593.124 890.141,583.291 886,571.5C882.642,558.732 878.975,546.065 875,533.5C871.262,525.019 866.762,517.019 861.5,509.5C854.698,501.865 847.365,494.699 839.5,488C815.593,471.381 789.593,459.048 761.5,451C734.51,444.543 707.177,440.209 679.5,438C656.096,438.24 632.763,439.74 609.5,442.5C604.411,443.238 600.911,441.238 599,436.5C597.287,430.263 598.787,425.096 603.5,421C618.07,418.92 632.737,417.254 647.5,416C664.173,415.667 680.84,416 697.5,417C721.129,417.969 744.129,422.136 766.5,429.5C768.827,429.665 770.993,430.331 773,431.5L774,430.5C788.791,397.958 803.291,365.292 817.5,332.5L816.5,331.5C791.236,340.629 767.903,353.129 746.5,369C744.975,370.009 743.308,370.509 741.5,370.5C740.001,383.487 738.501,396.487 737,409.5C736.786,413.438 734.953,416.272 731.5,418C725.11,419.942 720.277,418.109 717,412.5C716.333,407.167 716.333,401.833 717,396.5C722.185,356.576 725.185,316.576 726,276.5C705.667,306.833 685.333,337.167 665,367.5C664.667,374.833 664.333,382.167 664,389.5C663.529,391.246 662.862,392.913 662,394.5C654.983,400.609 649.317,399.609 645,391.5C642.891,366.213 641.557,340.88 641,315.5C640.233,300.727 638.566,286.061 636,271.5C613.309,316.225 595.642,362.891 583,411.5C579.473,416.472 574.973,417.638 569.5,415C564.854,409.689 563.354,403.523 565,396.5C568.769,381.861 572.936,367.361 577.5,353C571.682,320.56 564.516,288.394 556,256.5C548.087,275.901 540.753,295.568 534,315.5C522.994,354.194 511.994,392.861 501,431.5C497.229,435.788 492.729,436.621 487.5,434C481.323,427.317 477.323,419.484 475.5,410.5C455.765,362.03 432.598,315.363 406,270.5C405.372,297.51 405.705,324.51 407,351.5C416.403,375.637 425.237,399.971 433.5,424.5C432.575,429.267 429.908,432.767 425.5,435C421.438,436.336 418.438,435.169 416.5,431.5ZM607.5,453.5C633.892,451.624 656.392,459.957 675,478.5C679.748,484.613 679.582,490.446 674.5,496C669.131,498.233 664.131,497.567 659.5,494C645.869,479.789 629.202,474.122 609.5,477C594.601,480.898 584.435,490.064 579,504.5C570.904,535.642 582.404,555.309 613.5,563.5C619.057,569.99 618.724,576.156 612.5,582C610.466,583.006 608.3,583.506 606,583.5C579.007,578.175 562.007,562.175 555,535.5C550.07,504.886 559.904,480.386 584.5,462C592.023,458.441 599.689,455.607 607.5,453.5ZM743.5,526.5C770.411,526.911 783.578,540.578 783,567.5C773.055,596.565 754.555,604.065 727.5,590C716.825,579.302 712.992,566.469 716,551.5C720.623,538.038 729.79,529.705 743.5,526.5ZM746.5,549.5C734.977,555.99 733.644,564.157 742.5,574C753.094,577.227 759.094,573.394 760.5,562.5C760.343,553.344 755.676,549.011 746.5,549.5ZM849.5,409.5C834.344,410.38 819.344,412.38 804.5,415.5C801.951,422.303 799.284,429.137 796.5,436C798.957,438.399 801.623,440.566 804.5,442.5C811.14,444.57 817.307,447.57 823,451.5C834.944,437.053 847.444,423.053 860.5,409.5C859.667,409.167 858.833,408.833 858,408.5C855.208,409.216 852.374,409.549 849.5,409.5ZM196.5,476.5C207.506,486.506 218.506,496.506 229.5,506.5C230.5,506.833 231.5,507.167 232.5,507.5C254.483,506.699 276.483,506.199 298.5,506L275.5,483C254.846,480.668 234.179,478.334 213.5,476C207.651,475.182 201.985,475.348 196.5,476.5ZM913.5,753.5C920.704,752.945 927.704,753.778 934.5,756C938.326,760.971 938.493,766.138 935,771.5C934.25,772.126 933.416,772.626 932.5,773C925.5,773.667 918.5,773.667 911.5,773C906.846,767.588 906.346,761.754 910,755.5C911.302,754.915 912.469,754.249 913.5,753.5ZM951.5,753.5C963.437,753.612 967.271,759.279 963,770.5C956.789,776.175 951.122,775.841 946,769.5C944.791,762.95 946.625,757.616 951.5,753.5Z"/>
    </g>
</svg>
