<?xml version="1.0" encoding="UTF-8" standalone="no"?>
<!DOCTYPE svg PUBLIC "-//W3C//DTD SVG 1.1//EN" "http://www.w3.org/Graphics/SVG/1.1/DTD/svg11.dtd">
<svg width="100%" height="100%" viewBox="0 0 1024 1024" version="1.1" xmlns="http://www.w3.org/2000/svg" xmlns:xlink="http://www.w3.org/1999/xlink" xml:space="preserve" xmlns:serif="http://www.serif.com/" style="fill-rule:evenodd;clip-rule:evenodd;stroke-linejoin:round;stroke-miterlimit:2;">
    <g transform="matrix(1.44121,0,0,1.44121,-226.498,-232.975)">
        <path d="M548.5,652.5C528.615,664.54 510.615,679.04 494.5,696C511.699,707.364 529.032,718.53 546.5,729.5C555.754,715.999 564.254,701.999 572,687.5C576.47,683.163 581.637,682.33 587.5,685C590.844,688.184 592.011,692.018 591,696.5C582.761,711.23 573.928,725.564 564.5,739.5C587.833,754.167 611.167,768.833 634.5,783.5C638.751,787.486 639.585,792.153 637,797.5C631.965,802.232 626.465,802.732 620.5,799C600.835,786.165 580.835,773.832 560.5,762C558.983,760.315 557.316,758.815 555.5,757.5C550.51,767.483 545.01,777.149 539,786.5C532.779,794.302 526.779,794.302 521,786.5C520.333,783.5 520.333,780.5 521,777.5C526.12,767.424 531.62,757.591 537.5,748C516.098,734.27 494.431,720.937 472.5,708C376.167,707.667 279.833,707.333 183.5,707C175.808,704.642 172.975,699.475 175,691.5C175.948,689.43 177.448,687.93 179.5,687C245.5,686.667 311.5,686.333 377.5,686C396.018,658.147 419.685,635.813 448.5,619C457.339,613.746 466.339,608.746 475.5,604C465.986,599.077 456.32,594.41 446.5,590C445.874,589.25 445.374,588.416 445,587.5C444.79,589.058 444.29,590.391 443.5,591.5C442.444,598.627 439.111,604.293 433.5,608.5C405.86,595.019 380.194,578.519 356.5,559C319.272,524.042 295.106,481.542 284,431.5C278.295,388.748 290.461,351.915 320.5,321C328.755,312.707 338.422,306.707 349.5,303C352.432,302.047 355.432,301.547 358.5,301.5C358.808,294.959 360.142,288.626 362.5,282.5C357.196,274.696 352.529,266.529 348.5,258C316.483,252.496 285.15,244.496 254.5,234C241.143,226.557 240.143,217.89 251.5,208C270.788,200.512 290.788,196.179 311.5,195C329.497,194.5 347.497,194.333 365.5,194.5C365.608,192.217 366.441,190.217 368,188.5C393.596,165.307 423.43,157.141 457.5,164C477.874,169.021 496.208,178.021 512.5,191C545.062,218.631 567.729,252.797 580.5,293.5C587.891,296.694 595.225,300.194 602.5,304C628.29,322.491 650.457,344.658 669,370.5C722.187,454.854 772.854,540.854 821,628.5C831.151,647.634 840.818,666.968 850,686.5C851.15,693.19 850.15,699.524 847,705.5C842.117,710.204 836.283,711.704 829.5,710C824.055,708.112 819.055,705.445 814.5,702C799.168,689.87 783.502,678.536 767.5,668C788.263,715.692 809.43,763.192 831,810.5C838.093,830.465 833.926,847.631 818.5,862C793.399,877.958 770.566,875.124 750,853.5C745.936,847.764 742.27,841.764 739,835.5C710.635,766.938 682.135,698.271 653.5,629.5C640.158,626.161 627.492,621.161 615.5,614.5C593.924,628.456 571.591,641.123 548.5,652.5ZM451.5,568.5C460.296,574.403 469.629,579.57 479.5,584C501.596,591.085 524.263,595.085 547.5,596C549.286,596.785 550.786,597.951 552,599.5C555.202,611.806 550.369,617.14 537.5,615.5C526.176,614.2 514.842,613.367 503.5,613C476.709,625.22 451.709,640.22 428.5,658C418.463,666.369 409.463,675.703 401.5,686C426.5,686.667 451.5,686.667 476.5,686C481.483,679.019 487.149,672.686 493.5,667C511.974,651.261 531.974,637.761 553.5,626.5C568.3,619.014 582.3,610.348 595.5,600.5C552.546,567.379 514.379,529.379 481,486.5C466.042,465.596 453.375,443.263 443,419.5C433.868,398.116 431.868,376.116 437,353.5C458.849,300.482 498.349,277.815 555.5,285.5C556.583,284.635 556.749,283.635 556,282.5C543.695,253.732 525.861,228.899 502.5,208C486.495,194.66 468.162,186.327 447.5,183C425.198,179.741 405.198,184.908 387.5,198.5C391.363,211.316 392.197,224.316 390,237.5C387.876,248.121 381.709,255.121 371.5,258.5C375.667,264.833 379.833,271.167 384,277.5C388.014,282.417 392.848,286.25 398.5,289C406.102,294.081 407.102,300.081 401.5,307C395.866,308.747 390.199,308.914 384.5,307.5C372.56,343.563 368.393,380.563 372,418.5C377.843,479.87 404.343,529.87 451.5,568.5ZM436.5,227.5C450.306,228.785 455.473,236.118 452,249.5C442.849,258.062 434.516,257.396 427,247.5C424.119,237.899 427.286,231.233 436.5,227.5ZM358.5,319.5C353.232,323.476 347.566,326.976 341.5,330C313.76,353.321 300.593,383.154 302,419.5C314.514,483.639 348.014,533.473 402.5,569C409.555,572.186 415.889,576.353 421.5,581.5C422.389,578.054 424.056,575.054 426.5,572.5C422.894,570.397 419.727,567.731 417,564.5C389.131,535.108 369.798,500.774 359,461.5C348.863,414.422 349.029,367.422 359.5,320.5C359.376,319.893 359.043,319.56 358.5,319.5ZM523.5,304.5C493.577,309.572 472.077,325.906 459,353.5C454.102,363.656 452.436,374.322 454,385.5C458.589,406.349 466.256,426.015 477,444.5C487,459.167 497,473.833 507,488.5C545.088,533.937 589.255,572.104 639.5,603C649.362,606.115 658.695,610.282 667.5,615.5C697.569,684.966 727.069,754.633 756,824.5C759.165,830.834 762.831,836.834 767,842.5C772.029,846.851 777.863,849.684 784.5,851C806.202,851.629 815.702,841.129 813,819.5C795.433,781.151 778.433,742.484 762,703.5C752.115,684.075 743.115,664.408 735,644.5C700.5,621.333 666,598.167 631.5,575C607.546,556.714 583.879,538.048 560.5,519C535.312,497.479 511.812,474.312 490,449.5C488.392,446.618 487.059,443.618 486,440.5C485.153,437.412 485.653,434.579 487.5,432C492.68,428.629 497.68,428.962 502.5,433C510.42,443.591 519.086,453.591 528.5,463C570.566,502.348 615.233,538.348 662.5,571C718.048,606.886 772.215,644.719 825,684.5C822.954,677.719 820.287,671.052 817,664.5C813.806,659.446 811.139,654.112 809,648.5C805.68,646.359 803.846,643.359 803.5,639.5C800.484,639.159 797.818,637.993 795.5,636C753.737,604.25 713.737,570.25 675.5,534C652.77,509.613 631.937,483.78 613,456.5C587.689,430.187 562.689,403.521 538,376.5C536.541,373.253 535.374,369.92 534.5,366.5C534.577,364.701 535.077,363.034 536,361.5C540.705,357.744 545.538,357.577 550.5,361C572.602,385.771 595.435,409.938 619,433.5C639,458.833 659,484.167 679,509.5C711.48,540.655 745.146,570.321 780,598.5C778.207,593.944 776.207,589.277 774,584.5C736.195,517.718 697.195,451.718 657,386.5C641.288,363.786 622.455,343.952 600.5,327C577.553,310.297 551.887,302.797 523.5,304.5ZM369.5,215.5C347.004,216.332 324.337,216.832 301.5,217C294.537,218.259 287.537,219.259 280.5,220C306.289,229.239 332.789,235.406 360,238.5C363.276,238.442 366.276,237.776 369,236.5C371.981,229.305 372.147,222.305 369.5,215.5Z"/>
    </g>
</svg>
