<?xml version="1.0" encoding="UTF-8" standalone="no"?>
<!DOCTYPE svg PUBLIC "-//W3C//DTD SVG 1.1//EN" "http://www.w3.org/Graphics/SVG/1.1/DTD/svg11.dtd">
<svg width="100%" height="100%" viewBox="0 0 1024 1024" version="1.1" xmlns="http://www.w3.org/2000/svg" xmlns:xlink="http://www.w3.org/1999/xlink" xml:space="preserve" xmlns:serif="http://www.serif.com/" style="fill-rule:evenodd;clip-rule:evenodd;stroke-linejoin:round;stroke-miterlimit:2;">
    <g transform="matrix(1.28325,0,0,1.28325,-136.702,-146.353)">
        <path d="M618.5,656.5C616.234,663.037 613.4,669.371 610,675.5C604.634,684.853 599.301,694.187 594,703.5C593.5,720.163 593.333,736.83 593.5,753.5C600.175,753.334 606.842,753.5 613.5,754C615.519,754.45 617.352,755.283 619,756.5C622.893,765.537 620.393,772.037 611.5,776C445.167,776.667 278.833,776.667 112.5,776C106.231,770.165 104.897,763.332 108.5,755.5C113.132,754.672 117.798,754.172 122.5,754C123.146,750.919 123.479,747.752 123.5,744.5C118.677,707.875 114.177,671.209 110,634.5C105.236,581.044 115.902,531.044 142,484.5C158.595,457.904 180.429,436.738 207.5,421C216.846,416.494 226.513,412.827 236.5,410C307.554,393.922 378.554,377.589 449.5,361C458.868,358.364 467.868,359.197 476.5,363.5C493.991,343.84 511.324,324.007 528.5,304C535.548,297.951 542.881,292.284 550.5,287C563.33,279.944 576.996,277.61 591.5,280C613.621,286.207 635.288,293.707 656.5,302.5C664.267,286.066 671.767,269.399 679,252.5C684.18,249.797 689.68,248.964 695.5,250C704.676,252.138 713.676,254.805 722.5,258C725.384,259.884 727.551,262.384 729,265.5C730.152,271.77 730.818,278.103 731,284.5C732.065,277.724 734.565,271.557 738.5,266C743.57,263.576 748.903,262.909 754.5,264C758.966,267.099 760.466,271.265 759,276.5C748.433,298.469 738.266,320.636 728.5,343C729.988,348.472 732.154,353.639 735,358.5C742.841,371.512 750.174,384.846 757,398.5C759.626,401.231 762.793,403.064 766.5,404C782.396,410.132 798.396,415.965 814.5,421.5C821.599,407.362 825.766,392.362 827,376.5C827.813,360.131 828.813,343.798 830,327.5C838.472,320.684 846.139,321.684 853,330.5C875.147,356.123 890.481,385.456 899,418.5C901.403,430.06 903.07,441.726 904,453.5C904.667,496.833 904.667,540.167 904,583.5C899.295,601.866 887.462,612.033 868.5,614C834.168,614.5 799.835,614.667 765.5,614.5C741.234,612.1 718.567,604.767 697.5,592.5C690.435,588.214 683.602,583.547 677,578.5C667.47,588.364 657.637,597.864 647.5,607C642.417,610.292 637.25,613.459 632,616.5C629.164,630.508 624.664,643.842 618.5,656.5ZM836.5,591.5C849.178,591.333 861.844,590.833 874.5,590C878.75,587.439 880.583,583.606 880,578.5C880.667,560.833 880.667,543.167 880,525.5C873.168,528.668 866.001,530.835 858.5,532C837.293,533.883 819.626,527.049 805.5,511.5C801.131,507.763 797.465,503.43 794.5,498.5C781.49,478.106 782.823,458.606 798.5,440C778.79,434.708 759.79,427.541 741.5,418.5C734.9,406.966 728.567,395.299 722.5,383.5C716.59,371.853 710.256,360.353 703.5,349C690.771,348.899 678.438,346.732 666.5,342.5C666.402,355.308 667.235,367.975 669,380.5C663.242,388.096 656.576,389.096 649,383.5C638.233,364.205 638.066,344.872 648.5,325.5C630.162,318.33 611.828,311.164 593.5,304C579.359,299.919 566.692,302.585 555.5,312C531.437,336.065 508.77,361.398 487.5,388C478.516,392.945 472.183,390.778 468.5,381.5C388.763,399.347 309.096,417.514 229.5,436C220.893,439.302 212.893,443.635 205.5,449C174.864,472.409 153.698,502.576 142,539.5C131.067,585.874 129.734,632.54 138,679.5C143.778,703.831 146.611,728.498 146.5,753.5L220.5,753.5C220.333,735.497 220.5,717.497 221,699.5C230.036,658.618 236.036,617.285 239,575.5C240.5,572.667 242.667,570.5 245.5,569C254.869,566.01 260.536,569.176 262.5,578.5C261.223,592.488 260.056,606.488 259,620.5C255.895,640.402 252.728,660.069 249.5,679.5C310.799,680.774 372.132,680.774 433.5,679.5C429.735,655.505 425.902,631.505 422,607.5C421.333,600.833 421.333,594.167 422,587.5C422.785,585.714 423.951,584.214 425.5,583C433.296,579.74 439.463,581.574 444,588.5C448.823,631.774 455.49,674.774 464,717.5C465.122,729.475 465.622,741.475 465.5,753.5L533.5,753.5C533.333,736.83 533.5,720.163 534,703.5C543.39,682.985 553.723,662.985 565,643.5C566.938,634.901 568.438,626.234 569.5,617.5C571.403,607.939 572.57,598.273 573,588.5C573.333,570.833 573.667,553.167 574,535.5C575.415,531.749 577.915,528.916 581.5,527C587.732,525.373 592.565,527.206 596,532.5C596.655,557.841 596.489,583.174 595.5,608.5C620.002,600.406 639.669,585.739 654.5,564.5C644.111,555.777 635.111,545.777 627.5,534.5C619.515,524.553 613.015,513.553 608,501.5C607.333,498.167 607.333,494.833 608,491.5C613.949,483.464 620.949,482.464 629,488.5C631.333,494.5 633.667,500.5 636,506.5C640.982,513.974 646.482,520.974 652.5,527.5C664.266,540.267 677.266,551.6 691.5,561.5C726.453,586.6 765.453,596.433 808.5,591C804.301,586.101 800.468,580.934 797,575.5C794.301,570.959 793.968,566.292 796,561.5C802.009,555.309 808.342,554.976 815,560.5C822.176,570.862 829.343,581.196 836.5,591.5ZM738.5,489.5C746.943,489.062 755.277,489.562 763.5,491C768.607,495.998 769.773,501.832 767,508.5C765.269,510.617 763.102,512.117 760.5,513C753.167,513.667 745.833,513.667 738.5,513C730.569,505.035 730.569,497.202 738.5,489.5ZM588.5,648.5C587.64,651.911 586.474,655.244 585,658.5C575.746,674.673 566.746,691.006 558,707.5C557.5,722.83 557.333,738.163 557.5,753.5L570.5,753.5C570.333,736.163 570.5,718.83 571,701.5C573.302,693.752 576.468,686.419 580.5,679.5C588.374,663.997 595.54,648.33 602,632.5C598.587,635.014 594.753,636.014 590.5,635.5C590.72,640.1 590.054,644.433 588.5,648.5ZM319.5,702.5C313.734,718.809 308.734,735.476 304.5,752.5C350.162,753.5 395.828,753.833 441.5,753.5C441.666,744.161 441.5,734.827 441,725.5C439.621,718.893 438.787,712.227 438.5,705.5C398.883,703.845 359.216,702.845 319.5,702.5ZM293.5,703.5L245.5,703.5L245.5,753.5L281.5,753.5C285.098,736.868 289.098,720.202 293.5,703.5ZM853.5,367.5C850.239,405.338 836.072,438.338 811,466.5C808.63,473.468 809.297,480.135 813,486.5C821.613,500.118 833.947,507.451 850,508.5C862.518,508.743 872.184,503.743 879,493.5C884.5,448.5 876,406.5 853.5,367.5ZM695.5,272.5C689.006,287.663 682.339,302.829 675.5,318C676.093,319.882 677.427,320.882 679.5,321C690.252,322.85 700.918,325.017 711.5,327.5C708.516,309.626 706.849,291.626 706.5,273.5C702.802,273.448 699.135,273.114 695.5,272.5Z"/>
    </g>
</svg>
