<?xml version="1.0" encoding="UTF-8" standalone="no"?>
<!DOCTYPE svg PUBLIC "-//W3C//DTD SVG 1.1//EN" "http://www.w3.org/Graphics/SVG/1.1/DTD/svg11.dtd">
<svg width="100%" height="100%" viewBox="0 0 1024 1024" version="1.1" xmlns="http://www.w3.org/2000/svg" xmlns:xlink="http://www.w3.org/1999/xlink" xml:space="preserve" xmlns:serif="http://www.serif.com/" style="fill-rule:evenodd;clip-rule:evenodd;stroke-linejoin:round;stroke-miterlimit:2;">
    <g transform="matrix(1.35625,0,0,1.35625,-178.347,-206.915)">
        <path d="M294.5,845.5C292.501,830.843 290.501,816.177 288.5,801.5C282.761,798.59 277.428,795.09 272.5,791C267,784.833 261.5,778.667 256,772.5C258.191,781.655 259.524,790.988 260,800.5C257.821,804.578 254.321,806.411 249.5,806C225.5,806.333 201.5,806.667 177.5,807C168.978,808.851 161.978,813.184 156.5,820C142.243,830.195 133.91,826.695 131.5,809.5C132.852,801.303 137.185,795.136 144.5,791C153.222,784.804 162.889,781.137 173.5,780C192.164,779.5 210.83,779.333 229.5,779.5C226.418,762.934 222.251,746.601 217,730.5C212.083,720.994 206.417,711.994 200,703.5C191.317,689.773 186.817,674.773 186.5,658.5C187.389,641.445 195.389,628.945 210.5,621C222.257,614.914 234.59,613.247 247.5,616C261.145,619.938 274.812,623.771 288.5,627.5C288.357,619.323 290.024,611.656 293.5,604.5C297.384,593.11 304.717,584.61 315.5,579C294.22,571.945 275.72,560.445 260,544.5C227.129,496.448 234.629,455.948 282.5,423L290.5,415C278.138,385.539 278.638,356.372 292,327.5C294.448,323.385 297.281,319.552 300.5,316C270.765,304.386 255.431,282.553 254.5,250.5C255.917,217.24 272.25,194.74 303.5,183C326.068,176.367 347.068,179.7 366.5,193C389.611,213.27 396.278,238.103 386.5,267.5C415.694,271.421 439.027,285.088 456.5,308.5C477.844,300.731 499.844,297.564 522.5,299C525.695,299.181 528.695,299.681 531.5,300.5C544.946,301.874 558.28,303.874 571.5,306.5C574.751,299.726 579.418,293.893 585.5,289C599.499,276.669 615.833,269.836 634.5,268.5C624.024,236.55 632.024,210.383 658.5,190C687.126,174.697 714.793,176.364 741.5,195C769.601,218.579 776.435,247.413 762,281.5C757.833,289.658 752.333,296.824 745.5,303C739.13,307.18 732.797,311.347 726.5,315.5C741.864,336.814 747.364,360.48 743,386.5C740.875,396.24 738.041,405.74 734.5,415C745,424.833 755.5,434.667 766,444.5C784.38,466.933 788.713,491.933 779,519.5C766.045,549.783 743.545,568.949 711.5,577C715.774,581.274 719.274,586.107 722,591.5C725.935,602.575 728.935,613.908 731,625.5C731.519,626.516 732.353,627.182 733.5,627.5C743.853,624.438 754.186,621.272 764.5,618C783.937,611.357 801.937,614.023 818.5,626C831.4,637.322 836.233,651.488 833,668.5C831.263,675.208 829.43,681.875 827.5,688.5C820.422,702.761 812.256,716.428 803,729.5C799.978,735.207 797.811,741.207 796.5,747.5C792.291,757.799 789.291,768.465 787.5,779.5C805.836,779.333 824.17,779.5 842.5,780C855.387,781.737 867.053,786.404 877.5,794C887.273,801.532 889.106,810.699 883,821.5C878.827,825.191 873.993,826.358 868.5,825C861.55,820.385 854.884,815.385 848.5,810C846.5,809.333 844.5,808.667 842.5,808C816.167,807.667 789.833,807.333 763.5,807C758.743,804.654 756.743,800.821 757.5,795.5C758.465,788.376 759.632,781.376 761,774.5C752.145,785.191 741.645,793.858 729.5,800.5C727.612,815.499 725.612,830.499 723.5,845.5L727.5,845.5C768.835,845.667 810.168,845.5 851.5,845C862.017,839.682 869.184,842.515 873,853.5C874.292,862.419 870.792,868.586 862.5,872C810.833,872.667 759.167,872.667 707.5,872C701.508,869.341 697.675,864.841 696,858.5C695.453,852.616 695.953,846.949 697.5,841.5C698.816,830.191 699.983,818.858 701,807.5C702.53,805.774 703.53,803.774 704,801.5C704.973,741.139 704.64,680.806 703,620.5C700.687,612.184 695.52,606.351 687.5,603C668.647,598.59 655.98,605.424 649.5,623.5L649.5,628.5C649.667,707.834 649.5,787.167 649,866.5C647.266,874.29 642.432,878.79 634.5,880C621.5,880.667 608.5,880.667 595.5,880C586.427,874.109 584.26,866.276 589,856.5C590.637,854.19 592.804,852.69 595.5,852C604.494,851.5 613.494,851.334 622.5,851.5C622.667,834.83 622.5,818.163 622,801.5C595.244,822.7 564.744,834.367 530.5,836.5C529.339,836.552 528.179,836.571 527.021,836.557C486.028,836.953 447.188,827.434 410.5,808C405.737,805.202 401.237,802.036 397,798.5C396.5,809.495 396.333,820.495 396.5,831.5L396.5,851.5C406.233,851.109 415.9,851.609 425.5,853C433.655,858.477 435.488,865.643 431,874.5C428.658,877.754 425.491,879.588 421.5,880C407.833,880.667 394.167,880.667 380.5,880C376.333,878.5 373.5,875.667 372,871.5C370.994,786.847 369.994,702.18 369,617.5C362.255,605.045 351.755,599.878 337.5,602C333.095,603.037 329.095,604.871 325.5,607.5C319.359,612.776 315.525,619.443 314,627.5C313.5,683.832 313.333,740.166 313.5,796.5C317.666,815.172 320.666,834.172 322.5,853.5C322.789,862.873 318.456,868.873 309.5,871.5C257.905,872.495 206.238,872.829 154.5,872.5C143.29,867.377 140.124,859.044 145,847.5C147.925,844.204 151.592,842.537 156,842.5C161.008,844.25 166.175,845.25 171.5,845.5L294.5,845.5ZM229.5,643.5C222.184,645.984 217.351,650.984 215,658.5C214.014,668.895 216.347,678.562 222,687.5C236.895,707.729 253.229,726.729 271,744.5C276,750.833 281,757.167 286,763.5C286.833,729.162 286.667,694.828 285.5,660.5C268.148,650.382 249.481,644.715 229.5,643.5ZM687.5,208.5C668.347,213.679 658.347,226.346 657.5,246.5C657.721,261.472 664.721,271.638 678.5,277C686.446,283.808 695.446,288.808 705.5,292C713.982,292.263 721.316,289.43 727.5,283.5C745.072,263.889 745.905,243.556 730,222.5C718.1,211.36 703.933,206.693 687.5,208.5ZM775.5,643.5C766.65,647.067 757.65,650.567 748.5,654C742.163,656.497 736.497,659.997 731.5,664.5C730.333,698.162 730.167,731.828 731,765.5C732.252,763.999 733.252,762.332 734,760.5C752.369,741.133 770.369,721.466 788,701.5C794.001,694.173 799.001,686.173 803,677.5C810.786,652.768 801.619,641.435 775.5,643.5ZM531.5,327.5C508.717,324.431 486.717,327.264 465.5,336C471.585,357.468 470.751,378.635 463,399.5C457.587,409.994 451.921,420.327 446,430.5C439.324,437.483 432.158,438.149 424.5,432.5C420.391,424.418 420.557,416.418 425,408.5C435.662,398.536 441.328,386.203 442,371.5C445.021,346.22 437.187,325.053 418.5,308C391.828,290.544 365.828,291.544 340.5,311C309.847,335.297 301.347,365.797 315,402.5C324.414,421.96 339.581,434.46 360.5,440C368.396,440.624 376.229,440.124 384,438.5C395.669,439.465 400.336,445.799 398,457.5C395.08,462.22 390.913,465.387 385.5,467C357.572,471.856 333.572,464.356 313.5,444.5C298.831,447.748 286.331,454.748 276,465.5C267.503,476.942 265.169,489.609 269,503.5C272.632,515.273 279.132,525.106 288.5,533C299.293,541.723 310.96,548.89 323.5,554.5C341.798,560.742 360.464,565.742 379.5,569.5C383.299,567.578 387.299,567.078 391.5,568C396.662,569.834 401.328,572.501 405.5,576C414.224,578.13 422.89,580.464 431.5,583C470.807,584.285 510.141,584.951 549.5,585C551.081,585.707 552.581,586.54 554,587.5C561.039,600.252 557.539,608.418 543.5,612C509.833,612.667 476.167,612.667 442.5,612C431.019,610.338 420.019,607.171 409.5,602.5C406.487,605.089 402.987,606.422 399,606.5C395.504,606.301 392.338,605.468 389.5,604C393.684,607.865 395.851,612.699 396,618.5C396.167,667.503 396.667,716.503 397.5,765.5C402.543,769.554 407.543,773.554 412.5,777.5C451.433,801.441 493.766,811.441 539.5,807.5C567.386,803.385 591.719,792.052 612.5,773.5C615.146,770.188 618.146,767.188 621.5,764.5C622.19,715.819 622.857,667.152 623.5,618.5C624.791,611.295 627.458,604.629 631.5,598.5C622.324,592.654 619.99,584.654 624.5,574.5C627.199,572.152 630.199,570.318 633.5,569C657.98,564.88 681.98,558.88 705.5,551C718.948,545.858 731.115,538.691 742,529.5C754.407,514.952 759.074,498.285 756,479.5C750.534,466.368 741.367,456.868 728.5,451C722.715,449.523 717.215,447.356 712,444.5C691.557,463.536 667.39,471.369 639.5,468C630.392,466.203 623.558,461.369 619,453.5C616.346,446.141 617.179,439.308 621.5,433C629.112,429.917 635.445,431.583 640.5,438C666.375,443.04 687.542,435.207 704,414.5C721.419,386.563 721.752,358.563 705,330.5C696.201,319.363 685.368,310.863 672.5,305C638.909,287.022 611.743,293.856 591,325.5C587.543,332.538 584.876,339.872 583,347.5C581.615,357.85 580.282,368.183 579,378.5C574.874,388.153 568.04,390.986 558.5,387C556.263,384.97 554.763,382.47 554,379.5C552.156,364.016 553.989,349.016 559.5,334.5C550.474,330.936 541.141,328.602 531.5,327.5ZM368.5,322.5C400.907,322.4 419.74,338.4 425,370.5C426.022,385.722 422.355,399.722 414,412.5C395.837,431.364 375.337,434.53 352.5,422C331.9,404.182 325.4,382.015 333,355.5C340.251,339.41 352.085,328.41 368.5,322.5ZM373.5,349.5C369.44,351.297 365.94,353.963 363,357.5C354.212,370.683 354.545,383.683 364,396.5C369.436,403.44 376.269,405.274 384.5,402C396.218,392.478 400.052,380.312 396,365.5C392.22,354.866 384.72,349.532 373.5,349.5ZM578.5,578.5C594.136,576.97 601.302,583.97 600,599.5C594.882,610.539 586.715,613.706 575.5,609C568.446,602.906 566.612,595.406 570,586.5C572.074,582.923 574.907,580.256 578.5,578.5ZM639.5,322.5C660.774,321.884 676.941,330.551 688,348.5C698.303,372.356 695.636,394.69 680,415.5C660.056,434.043 639.223,435.209 617.5,419C608.125,409.752 602.291,398.585 600,385.5C596.841,353.899 610.008,332.899 639.5,322.5ZM643.5,349.5C638.629,351.862 634.462,355.196 631,359.5C624.772,371.655 625.105,383.655 632,395.5C640.141,404.849 649.141,405.849 659,398.5C665.947,388.382 667.947,377.382 665,365.5C661.638,354.962 654.471,349.629 643.5,349.5ZM335.5,543.5C315.827,541.332 303.327,530.665 298,511.5C295.877,501.8 299.71,496.466 309.5,495.5C312.86,495.509 315.86,496.509 318.5,498.5C321.585,503 324.418,507.667 327,512.5C328.579,514.041 330.413,515.208 332.5,516C342.833,516.333 353.167,516.667 363.5,517C470.833,517.667 578.167,517.667 685.5,517C688.754,516.75 691.754,515.75 694.5,514C697.833,509 701.167,504 704.5,499C720.215,493.378 727.048,498.878 725,515.5C718.616,533.053 706.116,542.387 687.5,543.5L335.5,543.5ZM319.5,208.5C303.536,211.614 292.036,220.614 285,235.5C277.071,258.721 283.571,276.554 304.5,289C310.231,292.487 316.231,293.153 322.5,291C332.243,284.933 342.243,279.266 352.5,274C363.486,261.543 366.319,247.377 361,231.5C352.588,214.371 338.755,206.704 319.5,208.5Z"/>
    </g>
</svg>
