<?xml version="1.0" encoding="UTF-8" standalone="no"?>
<!DOCTYPE svg PUBLIC "-//W3C//DTD SVG 1.1//EN" "http://www.w3.org/Graphics/SVG/1.1/DTD/svg11.dtd">
<svg width="100%" height="100%" viewBox="0 0 1024 1024" version="1.1" xmlns="http://www.w3.org/2000/svg" xmlns:xlink="http://www.w3.org/1999/xlink" xml:space="preserve" xmlns:serif="http://www.serif.com/" style="fill-rule:evenodd;clip-rule:evenodd;stroke-linejoin:round;stroke-miterlimit:2;">
    <g transform="matrix(1.39919,0,0,1.39919,-183.993,-204.87)">
        <path d="M198.5,262.5C178.05,254.303 157.05,247.803 135.5,243C134,242.167 132.833,241 132,239.5C131.333,236.167 131.333,232.833 132,229.5C133.986,227.258 136.486,226.258 139.5,226.5C156.038,230.218 172.372,234.718 188.5,240C197.446,243.806 206.112,248.139 214.5,253C218.975,255.65 222.975,258.817 226.5,262.5C233.43,267.926 239.93,273.926 246,280.5C255.826,293.484 265.159,306.817 274,320.5C278.337,325.669 282.837,330.669 287.5,335.5C309.34,350.14 333.006,353.973 358.5,347C367.387,343.891 376.054,340.224 384.5,336C393.489,335.123 396.322,338.956 393,347.5C388.799,352.183 383.632,355.183 377.5,356.5C351.779,368.466 325.446,369.633 298.5,360C284.69,353.862 272.857,345.029 263,333.5C253.827,319.152 244.16,305.152 234,291.5C223.429,280.077 211.596,270.411 198.5,262.5ZM364.5,399.5C328.977,406.798 295.31,401.631 263.5,384C250.252,375.296 239.086,364.463 230,351.5C224.439,340.042 218.105,329.042 211,318.5C208.116,315.315 204.949,312.482 201.5,310C197.333,308.464 193.333,306.63 189.5,304.5C186.012,293.937 189.679,289.437 200.5,291C210.37,296.033 218.87,302.866 226,311.5C231.775,320.048 236.775,329.048 241,338.5C248.692,351.358 258.859,361.691 271.5,369.5C299.55,385.568 329.55,390.401 361.5,384C372.227,381.571 382.56,378.071 392.5,373.5C407.511,363.819 419.511,351.152 428.5,335.5C433.967,322.856 441.967,312.023 452.5,303C455.833,301.333 459.167,299.667 462.5,298C474,295.581 485.333,292.581 496.5,289C501.128,287.663 504.795,288.83 507.5,292.5C507.802,295.059 507.468,297.393 506.5,299.5C504.929,302.231 502.595,304.065 499.5,305C489.433,307.413 479.433,310.08 469.5,313C462.865,315.63 457.365,319.797 453,325.5C446.501,337.168 439.501,348.502 432,359.5C418.08,377.602 400.247,389.935 378.5,396.5C373.922,397.915 369.255,398.915 364.5,399.5ZM263.5,471.5C243.86,469.176 226.527,461.676 211.5,449C198.079,434.909 184.079,421.576 169.5,409C157.703,403.509 145.536,399.009 133,395.5C130.968,390.919 131.135,386.419 133.5,382C134.873,381.125 136.373,380.625 138,380.5C150.682,383.283 162.849,387.449 174.5,393C196.337,394.251 218.004,396.917 239.5,401C253.142,402.544 266.475,401.211 279.5,397C285.827,394.989 289.161,397.322 289.5,404C289.297,406.406 288.297,408.406 286.5,410C269.897,417.031 252.564,419.365 234.5,417C220.07,414.418 205.737,411.752 191.5,409C194.167,410.667 196.833,412.333 199.5,414C209.214,424.681 219.548,434.681 230.5,444C236.869,447.354 243.536,449.854 250.5,451.5C267.833,456.417 285.499,458.084 303.5,456.5C306.86,456.384 310.193,456.051 313.5,455.5C339.533,451.151 362.533,440.317 382.5,423C386.402,420.881 390.402,419.048 394.5,417.5C395.391,416.89 396.391,416.557 397.5,416.5C399.764,415.781 402.097,415.448 404.5,415.5C421.353,414.837 438.353,414.004 455.5,413C470.609,410.863 483.442,404.363 494,393.5C502,382.167 510,370.833 518,359.5C529.5,347.832 543.334,340.499 559.5,337.5C563.042,336.325 566.709,335.659 570.5,335.5C571.952,334.698 573.618,334.198 575.5,334C581.167,333.333 586.833,333.333 592.5,334C593.701,334.903 594.535,336.069 595,337.5C596.378,341.987 595.212,345.487 591.5,348C582.168,349.611 572.835,351.111 563.5,352.5C563.158,353.338 562.492,353.672 561.5,353.5C547.459,355.378 536.293,362.045 528,373.5C519.186,388.631 508.353,402.131 495.5,414C484.225,422.47 471.559,427.303 457.5,428.5C453.688,429.324 449.688,429.824 445.5,430C450.362,433.697 454.696,437.864 458.5,442.5C463.894,443.114 468.394,445.447 472,449.5C473.139,453.421 472.305,456.754 469.5,459.5C463.385,461.991 457.385,461.491 451.5,458C442.795,450.963 435.129,442.963 428.5,434C424.248,430.694 419.415,429.194 414,429.5C404.014,430.288 394.848,433.455 386.5,439C374.659,449.923 360.993,457.757 345.5,462.5C345.5,463.167 345.167,463.5 344.5,463.5C321.213,471.854 297.213,474.854 272.5,472.5C269.518,472.037 266.518,471.704 263.5,471.5ZM185.5,556.5C184.21,555.942 183.377,554.942 183,553.5C182.24,549.775 182.407,546.108 183.5,542.5C188.005,540.353 192.672,538.519 197.5,537C207.868,526.964 218.534,517.297 229.5,508C247.556,498.153 266.889,493.319 287.5,493.5C306.66,493.998 323.993,499.665 339.5,510.5C342.286,512.113 344.953,513.946 347.5,516C357.503,526.336 367.836,536.336 378.5,546C393.296,555.192 407.63,554.525 421.5,544C427.57,537.694 431.404,530.194 433,521.5C435.096,507.492 433.096,494.159 427,481.5C419.815,471.107 410.648,468.941 399.5,475L390.5,484C380.848,487.614 376.681,484.448 378,474.5C383.951,467.542 390.785,461.709 398.5,457C413.937,452.37 426.77,456.203 437,468.5C441.606,475.045 445.106,482.045 447.5,489.5C452.345,510.015 449.512,529.348 439,547.5C435.221,553.118 430.387,557.451 424.5,560.5C420.439,563.7 415.772,565.867 410.5,567C393.984,570.43 378.984,567.097 365.5,557C356.803,548.637 348.469,539.97 340.5,531C321.118,515.043 298.785,508.21 273.5,510.5C262.3,512.386 251.3,515.386 240.5,519.5C237.833,521.833 235.167,524.167 232.5,526.5C226.702,531.797 221.035,537.297 215.5,543C211.776,545.52 208.109,548.02 204.5,550.5C199.143,555.683 192.809,557.683 185.5,556.5ZM191.5,613.5C173.732,621.441 155.066,625.941 135.5,627C130.712,622.11 130.379,616.943 134.5,611.5C143.557,610.539 152.557,609.206 161.5,607.5C180.238,601.965 197.571,593.465 213.5,582C224.863,570.971 235.863,559.637 246.5,548C247.094,547.536 247.761,547.369 248.5,547.5C250.004,545.164 252.004,543.331 254.5,542C260.697,538.562 267.031,535.729 273.5,533.5C278.984,533.024 284.484,532.691 290,532.5C295.743,532.358 301.243,533.025 306.5,534.5C310.945,535.195 315.278,536.362 319.5,538C330.456,543.945 339.956,551.778 348,561.5C366.528,586.236 391.028,595.403 421.5,589C433.947,585.551 445.28,579.884 455.5,572C459.97,569.858 464.637,569.191 469.5,570C471.357,571.182 472.357,572.849 472.5,575C472.007,577.819 470.84,580.319 469,582.5C464.39,585.887 459.557,588.887 454.5,591.5C450.167,594.669 445.5,597.336 440.5,599.5C447.292,620.748 444.125,640.415 431,658.5C428.333,661.833 425.667,665.167 423,668.5C420.694,670.832 418.194,672.832 415.5,674.5C407.221,682.651 397.554,688.818 386.5,693C379.423,695.345 372.423,697.512 365.5,699.5L361.5,699.5C332.774,704.882 304.441,702.882 276.5,693.5C272.704,689.337 272.538,685.004 276,680.5C277.473,678.993 279.307,678.326 281.5,678.5C292.705,681.301 304.038,683.468 315.5,685C329.179,685.645 342.846,685.479 356.5,684.5C379.526,680.903 399.026,670.57 415,653.5C426.186,639.754 430.019,624.088 426.5,606.5C426.179,604.952 425.179,604.285 423.5,604.5C392.432,612.022 365.598,604.355 343,581.5C338.313,574.988 333.146,568.988 327.5,563.5C326.167,562.833 325.167,561.833 324.5,560.5C309.158,548.941 292.158,545.775 273.5,551C268.055,552.888 263.055,555.555 258.5,559C248.937,568.395 239.604,577.895 230.5,587.5C219.134,598.517 206.134,607.184 191.5,613.5ZM351.5,739.5C330.892,741.804 310.226,742.971 289.5,743C284.845,740.103 283.345,735.937 285,730.5C285.374,729.584 285.874,728.75 286.5,728C315.907,726.351 345.24,723.518 374.5,719.5L375.5,719.5C382.253,717.811 388.92,715.811 395.5,713.5C422.043,705.988 443.209,690.988 459,668.5C463.281,657.38 466.948,646.046 470,634.5C476.66,618.174 487.827,606.007 503.5,598C509.684,595.832 516.017,595.165 522.5,596C528.178,597.857 530.345,601.691 529,607.5C528.167,609.667 526.667,611.167 524.5,612C512.29,612.024 502.124,616.524 494,625.5C490.828,629.841 488.161,634.508 486,639.5C482.821,649.881 479.488,660.214 476,670.5C472.144,678.225 467.31,685.225 461.5,691.5C451.336,702.919 439.336,711.919 425.5,718.5C402.375,730.452 377.709,737.452 351.5,739.5ZM758.5,596.5C757.286,599.93 755.786,603.264 754,606.5C730.974,641.95 698.474,663.284 656.5,670.5C648.501,668.682 646.334,664.015 650,656.5C651.171,655.107 652.671,654.273 654.5,654C658.87,653.263 663.204,652.43 667.5,651.5C667.842,650.662 668.508,650.328 669.5,650.5C709.599,637.731 736.932,611.731 751.5,572.5C751.629,570.784 751.962,569.117 752.5,567.5C754.986,556.287 756.819,544.953 758,533.5C759.5,531.531 761.333,530.198 763.5,529.5C767.061,529.365 769.895,530.698 772,533.5C773.28,555.849 768.78,576.849 758.5,596.5ZM546.5,541.5C543.707,526.091 544.207,510.758 548,495.5C549.804,489.856 553.638,487.189 559.5,487.5C563.303,489.305 564.969,492.305 564.5,496.5C553.954,536.904 566.288,567.904 601.5,589.5C615.03,596.013 629.363,600.013 644.5,601.5C648.702,602.293 653.035,603.126 657.5,604C659.049,605.214 660.215,606.714 661,608.5C662.724,613.731 661.224,617.565 656.5,620C648.814,619.915 641.147,619.249 633.5,618C613.398,614.609 595.731,606.442 580.5,593.5C567.881,584.88 558.547,573.547 552.5,559.5C549.593,553.902 547.593,547.902 546.5,541.5ZM492.5,546.5C489.707,534.13 488.373,521.464 488.5,508.5C488.806,464.19 505.139,427.19 537.5,397.5C539.88,394.119 542.88,391.453 546.5,389.5C546.833,388.5 547.5,387.833 548.5,387.5C573.537,367.434 602.203,358.267 634.5,360C636.16,361.488 637.16,363.321 637.5,365.5C637.795,367.735 637.461,369.735 636.5,371.5C635.547,373.61 633.881,374.777 631.5,375C617.468,375.64 603.801,378.14 590.5,382.5C578.566,386.461 567.9,392.461 558.5,400.5C557.317,401.504 555.984,402.338 554.5,403C518.697,435.12 502.03,475.286 504.5,523.5C505.11,524.391 505.443,525.391 505.5,526.5C506.687,544.215 510.854,561.215 518,577.5C518.667,579.5 518.667,581.5 518,583.5C513.39,591.313 508.724,591.313 504,583.5C498.426,571.691 494.593,559.358 492.5,546.5ZM735.5,487.5C740.313,514.215 731.979,536.048 710.5,553C679.446,569.516 651.946,565.016 628,539.5C608.238,507.237 612.404,478.404 640.5,453C645.248,449.959 650.248,447.459 655.5,445.5C691.687,436.263 717.854,448.263 734,481.5C734.813,483.436 735.313,485.436 735.5,487.5ZM631.5,495.5C631.71,530.086 649.043,546.92 683.5,546C707.03,540.624 719.697,525.791 721.5,501.5C720.608,494.932 718.942,488.598 716.5,482.5C704.835,462.485 687.501,454.819 664.5,459.5C646.889,464.779 636.223,476.445 632.5,494.5C632.5,495.167 632.167,495.5 631.5,495.5ZM660.5,526.5C643.284,510.893 643.284,495.06 660.5,479C680.728,469.534 695.228,475.034 704,495.5C704.995,504.523 702.995,512.856 698,520.5C695.044,523.722 691.544,526.056 687.5,527.5C678.42,532.917 669.42,532.583 660.5,526.5ZM672.5,490.5C660.883,497.778 660.55,505.611 671.5,514C681.086,515.909 686.753,512.076 688.5,502.5C687.48,492.819 682.147,488.819 672.5,490.5ZM716.5,424.5C714.5,423.167 712.5,421.833 710.5,420.5C705.899,417.076 701.399,413.409 697,409.5C696.015,407.634 695.515,405.634 695.5,403.5C694.984,400.185 696.317,398.018 699.5,397C704.181,396.335 708.514,397.335 712.5,400C722,408.167 731.5,416.333 741,424.5C757.258,441.683 767.091,462.016 770.5,485.5C771.001,496.349 766.335,499.683 756.5,495.5C754.241,478.052 748.241,462.052 738.5,447.5C731.813,439.148 724.48,431.481 716.5,424.5ZM633.5,413.5C615.874,414.264 599.874,419.598 585.5,429.5C560.656,448.504 545.489,473.504 540,504.5C539.171,508.161 537.671,511.495 535.5,514.5C530.775,516.387 527.275,515.054 525,510.5C524.458,493.653 528.291,477.987 536.5,463.5C540.993,453.176 546.993,443.842 554.5,435.5C555.833,433.5 557.5,431.833 559.5,430.5C560.833,428.5 562.5,426.833 564.5,425.5C583.66,406.927 606.66,397.76 633.5,398C634.056,398.383 634.389,398.883 634.5,399.5C635.79,400.058 636.623,401.058 637,402.5C638.337,407.084 637.171,410.751 633.5,413.5ZM563.5,735.5C557.87,742.465 551.87,749.132 545.5,755.5C534.185,765.811 522.185,775.144 509.5,783.5C506.15,783.665 502.817,783.498 499.5,783C496.398,777.478 497.065,772.478 501.5,768C507.223,764.478 512.889,760.978 518.5,757.5C549.448,731.911 573.948,701.244 592,665.5C593.777,663.21 595.944,661.543 598.5,660.5C605.869,658.765 609.036,661.765 608,669.5C600.242,686.038 590.742,701.372 579.5,715.5C574.516,722.48 569.183,729.146 563.5,735.5ZM490.5,721.5C483.018,728.072 475.351,734.405 467.5,740.5C454.528,749.487 440.528,756.654 425.5,762C419.462,763.131 416.129,760.631 415.5,754.5C415.98,750.707 417.647,747.54 420.5,745C426.942,742.945 433.275,740.612 439.5,738C449.604,732.373 459.27,726.206 468.5,719.5C485.439,705.562 501.106,690.229 515.5,673.5C521.167,668.167 526.833,662.833 532.5,657.5C532.833,656.5 533.5,655.833 534.5,655.5C537.558,650.265 542.058,647.265 548,646.5C554.393,646.89 557.059,650.223 556,656.5C545.019,667.315 534.186,678.315 523.5,689.5C523.167,690.5 522.5,691.167 521.5,691.5C511.801,702.2 501.468,712.2 490.5,721.5ZM687.5,341.5C691.927,343.212 696.26,345.212 700.5,347.5C702.244,332.9 697.577,320.734 686.5,311C676.993,306.624 666.993,304.457 656.5,304.5C621.33,307.271 586.33,311.438 551.5,317C534.964,320.283 519.631,326.283 505.5,335C500,339.167 495.167,344 491,349.5C485.667,358.167 480.333,366.833 475,375.5C470.135,380.7 464.968,385.533 459.5,390C454.603,393.586 449.269,394.753 443.5,393.5C440.278,389.836 439.778,385.836 442,381.5C446.582,378.124 451.415,375.124 456.5,372.5C464.745,361.681 472.245,350.348 479,338.5C482.536,335.299 485.703,331.799 488.5,328C491.464,325.19 494.798,323.024 498.5,321.5C500.253,319.777 502.253,318.277 504.5,317C511.893,313.383 519.227,309.883 526.5,306.5C535.369,303.866 544.369,301.7 553.5,300C579.466,296.407 605.466,293.074 631.5,290C645.146,288.68 658.813,288.346 672.5,289C697.333,293.833 712.167,308.667 717,333.5C717.304,341.243 717.471,348.91 717.5,356.5C727.014,363.424 736.347,370.591 745.5,378C764.089,396.422 782.423,414.922 800.5,433.5C820.913,443.265 840.58,454.265 859.5,466.5C864.074,472.837 864.574,479.503 861,486.5C846.589,500.461 831.089,513.128 814.5,524.5C815.687,559.405 808.52,592.405 793,623.5C787.879,632.099 782.046,640.099 775.5,647.5C773.157,650.207 770.823,652.874 768.5,655.5C757.255,666.777 745.255,677.111 732.5,686.5C729.681,689.075 726.681,691.408 723.5,693.5C712.201,701.488 700.535,708.988 688.5,716C688.071,719.047 688.071,722.214 688.5,725.5C689.966,748.455 687.799,771.121 682,793.5C677.254,799.45 672.254,799.784 667,794.5C666.833,793 666.667,791.5 666.5,790C670.189,773.697 672.523,757.197 673.5,740.5C672.75,732.835 672.083,725.168 671.5,717.5C671.335,714.482 671.502,711.482 672,708.5C684.748,699.876 697.581,691.376 710.5,683C727.922,670.738 744.255,657.238 759.5,642.5C761.122,639.545 763.122,636.878 765.5,634.5C790.79,600.018 801.123,561.351 796.5,518.5C803.438,511.732 811.104,505.898 819.5,501C828.526,493.634 837.193,485.968 845.5,478C840.702,474.429 835.702,471.096 830.5,468C816.167,460.333 801.833,452.667 787.5,445C774.694,430.36 761.361,416.193 747.5,402.5C746.167,401.5 744.833,400.5 743.5,399.5C732.295,387.626 719.628,377.626 705.5,369.5C692.463,361.317 678.463,355.317 663.5,351.5L661.5,351.5C654.317,349.492 646.984,347.658 639.5,346C634.335,341.329 634.335,336.663 639.5,332C656.136,331.972 672.136,335.138 687.5,341.5ZM543.5,584.5C546.607,584.351 549.607,584.851 552.5,586C570.198,609.014 593.198,624.014 621.5,631C625.769,635.99 625.436,640.656 620.5,645C609.162,645.225 598.496,642.558 588.5,637C570.348,627.854 554.848,615.354 542,599.5C539.159,595.71 538.492,591.71 540,587.5C541.145,586.364 542.312,585.364 543.5,584.5ZM643.5,728.5C630.631,749.885 615.964,770.052 599.5,789C588.474,794.288 584.307,791.121 587,779.5C600.644,762.876 613.311,745.543 625,727.5C629.066,720.039 632.566,712.373 635.5,704.5C638.091,698.822 641.091,693.322 644.5,688C646.695,686.627 649.029,686.294 651.5,687C656.76,690.666 657.927,695.499 655,701.5C651.154,710.521 647.321,719.521 643.5,728.5Z"/>
    </g>
</svg>
