<?xml version="1.0" encoding="UTF-8" standalone="no"?>
<!DOCTYPE svg PUBLIC "-//W3C//DTD SVG 1.1//EN" "http://www.w3.org/Graphics/SVG/1.1/DTD/svg11.dtd">
<svg width="100%" height="100%" viewBox="0 0 1024 1024" version="1.1" xmlns="http://www.w3.org/2000/svg" xmlns:xlink="http://www.w3.org/1999/xlink" xml:space="preserve" xmlns:serif="http://www.serif.com/" style="fill-rule:evenodd;clip-rule:evenodd;stroke-linejoin:round;stroke-miterlimit:2;">
    <g transform="matrix(1.43643,0,0,1.43643,-187.017,-295.745)">
        <path d="M647.5,290.5C646.549,291.919 646.216,293.585 646.5,295.5L639.5,295.5C619.908,292.98 600.241,292.147 580.5,293C557.845,294.905 539.678,304.738 526,322.5C517.474,337.13 519.308,350.297 531.5,362C544.4,370.065 558.4,375.398 573.5,378C615.052,383.296 654.052,395.963 690.5,416C724.238,435.737 751.404,462.237 772,495.5C787.959,533.498 780.125,565.665 748.5,592C715.727,614.195 681.06,617.528 644.5,602C623.35,592.59 602.35,582.924 581.5,573C552.673,562.984 523.007,559.317 492.5,562C477.443,564.01 462.443,566.343 447.5,569C434.174,570.114 421.84,567.114 410.5,560C397.986,551.152 387.153,540.652 378,528.5C368.061,512.231 357.727,496.231 347,480.5C301.654,431.601 249.821,423.434 191.5,456C176.19,470.171 174.69,485.671 187,502.5C202.913,518.879 222.079,529.712 244.5,535C259.254,537.231 273.921,539.898 288.5,543C298.744,546.575 306.577,553.075 312,562.5C319.928,576.115 324.095,590.782 324.5,606.5C325.105,623.131 318.105,635.298 303.5,643C287.831,649.767 271.498,653.934 254.5,655.5C243.411,656.759 234.911,652.759 229,643.5C225.045,635.924 221.378,628.257 218,620.5C214.046,618.964 210.546,619.631 207.5,622.5C212.854,632.201 216.187,642.534 217.5,653.5C216.71,664.603 211.044,671.769 200.5,675C191.464,675.717 182.464,675.384 173.5,674C165.418,672.351 157.418,670.518 149.5,668.5L149.5,675.5C164.025,675.81 178.358,677.643 192.5,681C198.864,685.34 200.031,690.84 196,697.5C186.369,705.057 176.869,712.724 167.5,720.5C168.002,721.521 168.668,721.688 169.5,721C178.325,714.421 187.325,708.087 196.5,702C202.724,700.939 208.724,701.606 214.5,704C218.092,707.016 220.258,710.849 221,715.5C222.203,727.792 222.87,740.126 223,752.5C225.55,756.125 228.05,756.292 230.5,753C226.093,736.332 226.593,719.832 232,703.5C236.013,692.73 243.846,687.23 255.5,687C270.702,686.96 285.702,685.293 300.5,682C312.73,676.717 325.063,671.717 337.5,667C349.079,664.782 360.746,664.115 372.5,665C376.525,668.198 379.192,672.364 380.5,677.5C379.731,680.872 378.065,683.705 375.5,686C364.178,685.653 352.845,685.653 341.5,686C333.586,688.75 325.919,692.083 318.5,696C296.77,705.319 274.103,708.819 250.5,706.5C249.781,711.593 248.614,716.593 247,721.5C246.921,734.223 246.254,746.889 245,759.5C237.905,774.319 227.072,777.819 212.5,770C209.707,766.919 207.54,763.419 206,759.5C205.074,746.486 203.907,733.486 202.5,720.5C192.388,728.782 181.388,735.616 169.5,741C162.991,742.759 157.491,741.259 153,736.5C145.238,726.224 145.738,716.39 154.5,707C160.257,702.905 166.257,699.238 172.5,696C167.694,695.989 162.861,696.156 158,696.5C143.606,697.105 134.606,690.438 131,676.5C128.453,665.122 131.953,656.289 141.5,650C143.953,649.262 146.453,648.762 149,648.5C160.09,651.064 171.256,653.231 182.5,655C187.5,655.667 192.5,655.667 197.5,655C198.022,654.439 198.355,653.772 198.5,653C195.805,645.777 192.972,638.611 190,631.5C186.705,617.924 191.538,608.424 204.5,603C218.205,598.962 229.038,602.795 237,614.5C240.666,620.83 243.499,627.497 245.5,634.5C247.078,635.298 248.744,635.798 250.5,636C268.273,635.411 284.939,630.744 300.5,622C303.756,617.566 305.423,612.566 305.5,607C304.519,590.707 298.852,576.374 288.5,564C285.595,562.714 282.595,561.714 279.5,561C235.922,560.272 199.422,544.105 170,512.5C151.037,478.719 158.203,451.886 191.5,432C255.296,402.412 311.129,413.246 359,464.5C373,485.167 387,505.833 401,526.5C412.053,540.194 426.387,547.527 444,548.5C459.246,546.897 474.413,544.73 489.5,542C523.763,538.283 557.096,542.283 589.5,554C606.715,560.942 623.382,568.942 639.5,578C652.815,584.496 666.815,588.83 681.5,591C704.877,592.541 725.377,585.708 743,570.5C764.401,546.603 766.068,521.27 748,494.5C716.22,452.335 674.72,424.168 623.5,410C602.914,405.283 582.247,400.949 561.5,397C546.664,393.505 532.997,387.505 520.5,379C497.268,355.393 495.435,330.226 515,303.5C531.539,286.314 551.705,276.147 575.5,273C599.969,271.635 624.302,272.801 648.5,276.5C647.557,281.1 647.223,285.767 647.5,290.5ZM266.5,446.5C289.287,446.11 297.454,456.777 291,478.5C282.679,488.93 272.513,491.43 260.5,486C249.658,477.103 247.824,466.603 255,454.5C258.498,451.183 262.331,448.516 266.5,446.5ZM269.5,464.5C267.9,466.571 267.4,468.905 268,471.5C271.32,474.299 274.154,473.799 276.5,470C275.161,466.82 272.827,464.986 269.5,464.5ZM560.5,325.5C569.951,325.704 578.951,327.871 587.5,332C645.647,341.486 699.314,362.153 748.5,394C773.271,411.771 795.104,432.605 814,456.5C834.35,484.898 844.017,516.565 843,551.5C838.07,589.199 821.237,620.365 792.5,645C773.271,660.541 752.438,673.708 730,684.5C729.333,685.833 729.333,687.167 730,688.5C741.003,708.183 745.336,729.183 743,751.5C738.303,772.761 726.136,787.927 706.5,797C704.322,810.429 702.822,823.929 702,837.5C696.092,851.882 686.259,855.716 672.5,849C666.426,843.577 663.259,836.743 663,828.5C662.181,820.847 661.514,813.18 661,805.5C654.468,811.698 648.301,818.198 642.5,825C630.253,832.361 621.42,829.528 616,816.5C613.345,806.62 615.845,798.454 623.5,792C627.873,788.814 632.54,786.147 637.5,784C626.278,785.656 614.944,786.323 603.5,786C589.2,779.293 585.367,768.793 592,754.5C596.385,748.056 602.552,744.89 610.5,745C622.833,744.667 635.167,744.333 647.5,744C652.897,743.773 658.231,743.106 663.5,742C670.728,729.525 669.061,718.191 658.5,708C655.066,705.565 651.4,703.565 647.5,702C624.621,693.929 601.621,686.263 578.5,679C566.509,676.305 554.843,677.305 543.5,682C524.009,692.663 503.342,699.83 481.5,703.5C477.214,740.262 458.881,767.429 426.5,785C419.569,787.642 412.735,790.476 406,793.5C401.516,807.765 397.183,822.098 393,836.5C387.107,849.79 377.607,853.623 364.5,848C360.449,844.279 357.616,839.779 356,834.5C355.395,825.989 355.562,817.489 356.5,809C357.529,800.359 353.862,797.025 345.5,799C337.787,801.178 330.12,803.512 322.5,806C308.303,808.567 299.97,802.733 297.5,788.5C299.169,776.497 305.836,768.831 317.5,765.5C313.906,760.649 310.072,755.983 306,751.5C294.902,735.534 298.402,724.034 316.5,717C333.128,715.093 346.461,720.76 356.5,734C362.592,738.241 368.925,738.574 375.5,735C384.428,726.745 390.928,716.912 395,705.5C397.071,694.548 400.071,683.882 404,673.5C409.902,669.361 415.569,669.695 421,674.5C421.923,676.034 422.423,677.701 422.5,679.5C419.302,691.926 415.802,704.259 412,716.5C404.728,734.437 392.562,747.937 375.5,757C367.858,759.457 360.525,758.79 353.5,755C344.553,749.053 335.886,742.72 327.5,736C324.584,733.657 322.25,733.99 320.5,737C321.272,738.221 322.272,739.221 323.5,740C331.393,745.114 339.726,749.447 348.5,753C355.594,758.741 356.26,765.074 350.5,772C344.921,773.917 339.254,775.584 333.5,777C328.259,779.233 323.259,781.733 318.5,784.5C319,784.833 319.5,785.167 320,785.5C330.563,782.359 341.23,779.693 352,777.5C363.307,779.135 370.641,785.469 374,796.5C375.24,808.149 375.74,819.815 375.5,831.5C378.172,819.143 381.006,806.81 384,794.5C385.467,789.571 387.467,784.904 390,780.5C403.662,773.717 417.162,766.551 430.5,759C453.833,739.511 464.333,714.678 462,684.5C456.814,658.299 440.98,646.132 414.5,648C410.016,649.743 405.683,651.743 401.5,654C396.083,654.43 392.75,651.93 391.5,646.5C393.967,636.534 400.301,630.368 410.5,628C443.587,624.39 466.087,638.224 478,669.5C479.569,673.703 480.402,678.036 480.5,682.5C491.144,681.342 501.478,678.842 511.5,675C521.933,669.783 532.599,665.117 543.5,661C560.251,656.179 576.918,656.513 593.5,662C610.843,668.007 628.176,674.007 645.5,680C659.471,684.321 670.971,692.154 680,703.5C690.318,720.488 689.985,737.155 679,753.5C674.652,757.758 669.486,760.592 663.5,762C645.191,763.293 626.858,763.793 608.5,763.5L608.5,766.5C618.49,766 628.49,765.667 638.5,765.5C646.241,765.384 653.907,765.884 661.5,767C662.893,768.171 663.727,769.671 664,771.5C664.333,774.833 664.667,778.167 665,781.5C673.582,785.301 678.248,791.968 679,801.5C679.333,810.5 679.667,819.5 680,828.5C680.219,829.938 680.719,831.271 681.5,832.5C682.609,833.59 683.609,833.59 684.5,832.5C684.433,821.591 684.6,810.591 685,799.5C687.434,785.066 695.601,775.566 709.5,771C719.653,762.357 724.32,751.357 723.5,738C723.677,731.04 722.843,724.207 721,717.5C709.956,689.126 691.123,667.626 664.5,653C651.396,649.409 638.396,649.742 625.5,654C616.117,655.107 612.283,650.94 614,641.5C615.765,638.527 618.265,636.36 621.5,635C654.46,624.367 682.293,632.2 705,658.5C708.333,662.5 711.667,666.5 715,670.5C726.095,663.367 737.595,656.867 749.5,651C777.052,635.782 798.219,614.282 813,586.5C824.498,558.551 825.498,530.218 816,501.5C803.198,472.745 784.698,448.245 760.5,428C726.513,401.501 688.846,381.501 647.5,368C620.382,361.65 593.382,354.983 566.5,348C551.72,343.563 549.72,336.063 560.5,325.5ZM644.5,793.5C641.204,797.298 637.704,800.964 634,804.5C633.333,805.167 633.333,805.833 634,806.5L646.5,794C645.906,793.536 645.239,793.369 644.5,793.5Z"/>
    </g>
</svg>
