<?xml version="1.0" encoding="UTF-8" standalone="no"?>
<!DOCTYPE svg PUBLIC "-//W3C//DTD SVG 1.1//EN" "http://www.w3.org/Graphics/SVG/1.1/DTD/svg11.dtd">
<svg width="100%" height="100%" viewBox="0 0 1024 1024" version="1.1" xmlns="http://www.w3.org/2000/svg" xmlns:xlink="http://www.w3.org/1999/xlink" xml:space="preserve" xmlns:serif="http://www.serif.com/" style="fill-rule:evenodd;clip-rule:evenodd;stroke-linejoin:round;stroke-miterlimit:2;">
    <g transform="matrix(1.44825,0,0,1.44825,-180.307,-112.432)">
        <path d="M239.5,531.5C227.527,527.896 215.86,523.396 204.5,518C190.078,510.858 175.745,503.525 161.5,496C154.579,494.781 147.579,494.114 140.5,494C134.768,491.201 131.768,486.534 131.5,480C131.595,476.145 133.262,473.145 136.5,471C141.25,469.923 146.083,469.423 151,469.5C158.177,469.957 165.343,470.124 172.5,470C161.149,460.312 150.149,450.312 139.5,440C130.233,438.901 125.233,433.734 124.5,424.5C124.531,421.074 125.531,418.074 127.5,415.5C146.257,398.099 166.257,382.099 187.5,367.5C207.803,352.337 229.47,339.17 252.5,328C272.497,320.367 293.164,315.867 314.5,314.5C315.434,313.432 315.768,312.099 315.5,310.5C347.952,296.717 381.285,285.383 415.5,276.5C427.496,271.745 439.829,267.745 452.5,264.5C464.089,260.72 475.756,256.887 487.5,253C497.826,250.881 507.16,252.881 515.5,259C519.333,263.5 523.167,268 527,272.5C533.828,285.494 541.162,298.161 549,310.5C556.311,318.143 563.977,325.476 572,332.5C573.815,344.103 573.982,355.77 572.5,367.5C581.61,369.55 590.61,371.55 599.5,373.5L605.5,373.5C627.77,375.233 649.77,373.567 671.5,368.5C672.568,367.566 673.901,367.232 675.5,367.5C715.588,356.134 749.588,335.134 777.5,304.5C778.833,302.5 780.5,300.833 782.5,299.5C791.777,287.291 799.277,273.958 805,259.5C806.415,252.504 807.749,245.504 809,238.5C813.694,231.86 819.527,230.194 826.5,233.5C829.682,235.193 831.348,237.859 831.5,241.5L831.5,249.5C831.667,375.167 831.5,500.834 831,626.5L827.5,630C822.748,630.773 818.081,630.607 813.5,629.5C803.663,620.829 794.663,611.329 786.5,601C775.229,590.551 763.562,580.717 751.5,571.5C712.425,546.398 669.758,531.731 623.5,527.5L599.5,527.5C592.737,528.023 586.07,529.19 579.5,531C577.893,532.049 577.227,533.549 577.5,535.5C575.596,567.383 560.93,591.383 533.5,607.5C521.936,616.453 509.269,623.62 495.5,629C492.183,629.498 488.85,629.665 485.5,629.5C480.41,627.788 475.744,625.288 471.5,622C453.296,603.295 434.629,585.128 415.5,567.5L385.5,567.5C384.431,581.805 378.431,593.638 367.5,603C354.248,610.645 341.248,610.312 328.5,602C318.871,594.543 310.871,585.71 304.5,575.5C298.871,566.905 294.871,557.572 292.5,547.5C287.298,546.617 282.298,545.284 277.5,543.5C269.386,541.853 261.386,539.686 253.5,537C248.536,535.629 243.869,533.796 239.5,531.5ZM165.5,411.5C162.108,415.213 158.108,418.213 153.5,420.5C152.614,421.325 152.281,422.325 152.5,423.5C155.714,424.44 158.714,425.94 161.5,428C176.21,440.767 191.377,452.934 207,464.5C208.701,466.9 209.534,469.567 209.5,472.5C209.79,478.875 206.79,482.542 200.5,483.5C198.031,484.317 195.365,484.817 192.5,485L193.5,486C203.415,491.435 213.415,496.601 223.5,501.5C236.4,507.412 249.734,512.246 263.5,516C268.775,517.359 274.109,517.692 279.5,517C293.412,512.623 304.579,504.457 313,492.5C315.966,486.169 317.466,479.503 317.5,472.5C316.737,448.175 316.237,423.842 316,399.5C313.971,389.446 309.805,380.446 303.5,372.5C297.961,364.417 291.294,357.417 283.5,351.5C281.246,350.585 279.246,349.252 277.5,347.5C275.579,346.359 273.579,346.192 271.5,347C253.517,352.325 236.85,360.325 221.5,371C202.981,384.754 184.314,398.254 165.5,411.5ZM372.5,313.5C404.309,315.19 435.643,320.024 466.5,328C494.633,334.653 521.633,344.153 547.5,356.5L548.5,356.5C548.56,357.043 548.893,357.376 549.5,357.5C550.815,352.014 550.815,346.68 549.5,341.5C547.745,340.928 546.078,340.094 544.5,339C538.216,332.261 532.05,325.428 526,318.5C520.169,307.505 514.336,296.505 508.5,285.5C506.42,281.914 503.754,278.747 500.5,276C497.5,275.333 494.5,275.333 491.5,276C453.338,288.222 415.005,299.722 376.5,310.5C374.495,311.039 372.495,311.705 370.5,312.5C370.957,313.298 371.624,313.631 372.5,313.5ZM467.5,351.5C421.475,340.747 374.808,335.08 327.5,334.5C318.716,334.848 310.05,336.015 301.5,338C305.343,341.676 309.009,345.509 312.5,349.5C314.371,349.859 315.871,350.859 317,352.5C322.159,358.817 326.826,365.484 331,372.5C336,380.834 339,389.834 340,399.5C340.667,427.167 340.667,454.833 340,482.5C335.88,505.281 323.047,520.781 301.5,529C308.686,530.711 315.686,532.877 322.5,535.5C363.761,544.566 405.427,547.233 447.5,543.5C450.167,543.167 452.833,542.833 455.5,542.5C473.328,540.301 490.995,537.135 508.5,533C528.378,526.652 548.044,519.819 567.5,512.5C571.378,509.987 575.711,508.654 580.5,508.5C585.499,506.398 590.832,505.231 596.5,505C623.967,503.756 650.967,506.756 677.5,514C715.78,523.806 750.113,540.973 780.5,565.5C781.492,565.328 782.158,565.662 782.5,566.5C790.462,573.292 798.296,580.292 806,587.5C806.167,494.666 806.667,401.999 807.5,309.5C807.768,307.901 807.434,306.568 806.5,305.5C795.215,320.786 782.215,334.452 767.5,346.5C765.445,348.555 763.112,350.221 760.5,351.5C741.168,365.453 720.168,376.453 697.5,384.5C686.95,387.638 676.283,390.471 665.5,393C631.148,400.39 597.481,398.557 564.5,387.5C546.506,380.17 528.506,372.837 510.5,365.5C496.433,359.964 482.1,355.297 467.5,351.5ZM540.5,572.5C546.454,563.833 550.787,554.333 553.5,544C552.906,543.536 552.239,543.369 551.5,543.5C538.381,547.533 525.048,551.2 511.5,554.5C503.7,556.952 495.7,559.119 487.5,561C473.523,563.104 459.856,565.271 446.5,567.5C457.293,576.792 467.627,586.625 477.5,597C481.438,600.78 485.771,603.947 490.5,606.5C503.286,599.94 515.62,592.606 527.5,584.5C531.807,580.528 536.141,576.528 540.5,572.5ZM356.5,582.5C360.452,577.266 361.452,571.766 359.5,566C345.797,562.501 332.131,559.667 318.5,557.5C321.014,560.53 323.014,563.863 324.5,567.5C328.269,571.771 332.269,575.938 336.5,580C342.813,584.623 349.48,585.456 356.5,582.5ZM229.5,369.5C248.898,367.937 261.731,376.271 268,394.5C269.917,421.917 257.083,434.75 229.5,433C211.362,426.516 203.529,413.683 206,394.5C209.927,382.409 217.76,374.075 229.5,369.5ZM234.5,392.5C230.925,392.906 228.758,394.906 228,398.5C227.635,404.683 230.468,409.016 236.5,411.5C238.79,410.533 240.79,409.2 242.5,407.5C243.575,405.843 244.242,404.009 244.5,402C244.083,395.611 240.75,392.445 234.5,392.5ZM663.5,463.5C660.127,476.382 652.46,485.882 640.5,492C628.577,494.411 623.41,489.577 625,477.5C629.048,473.12 632.715,468.454 636,463.5C639.577,455.735 640.243,447.735 638,439.5C635.091,432.676 631.424,426.342 627,420.5C626.278,417.739 626.445,415.073 627.5,412.5C629.141,409.339 631.807,407.672 635.5,407.5C645.331,409.154 652.498,414.487 657,423.5C659.364,427.219 660.864,431.219 661.5,435.5C679.347,434.724 697.013,436.057 714.5,439.5C724.412,442.569 728.912,449.236 728,459.5C725.27,466.053 720.437,468.22 713.5,466C710.567,464.729 707.901,463.062 705.5,461C696.843,460.263 688.177,459.763 679.5,459.5L664.5,459.5C664.768,461.099 664.434,462.432 663.5,463.5ZM553.5,486.5C545.138,479.45 540.138,470.45 538.5,459.5C524.81,459.347 511.143,459.847 497.5,461C494.691,465.236 490.691,467.069 485.5,466.5C477.217,466.884 473.217,462.884 473.5,454.5C473.473,447.359 476.806,442.525 483.5,440C501.944,435.97 520.61,434.47 539.5,435.5C539.433,434.041 539.766,432.708 540.5,431.5C542.942,422.556 547.942,415.389 555.5,410C560.292,407.968 564.959,408.301 569.5,411C572.736,414.844 573.236,419.01 571,423.5C565.587,430.99 562.421,439.323 561.5,448.5C561.528,452.236 562.028,455.903 563,459.5L572,474.5C572.792,489.207 566.625,493.207 553.5,486.5ZM591.5,461.5C584.986,455.405 583.986,448.405 588.5,440.5C597.894,432.431 607.06,432.765 616,441.5C620.623,455.252 615.623,463.252 601,465.5C599.408,465.395 597.908,465.061 596.5,464.5C594.435,464.047 592.768,463.047 591.5,461.5ZM415.5,510.5C394.23,518.559 375.73,514.226 360,497.5L357,491.5C355.379,470.218 355.045,448.884 356,427.5C357.077,424.087 359.244,421.587 362.5,420C366.77,418.925 371.103,418.425 375.5,418.5C399.233,416.122 421.566,420.622 442.5,432C447.333,435.5 451.5,439.667 455,444.5C456.806,450.801 456.806,457.135 455,463.5C448.521,484.81 435.355,500.477 415.5,510.5ZM428.5,469.5C430.304,463.95 431.638,458.283 432.5,452.5C419.695,445.881 406.028,442.214 391.5,441.5L380.326,441.5C380.01,443.367 379.734,445.256 379.5,447.167L379.5,487.5C383.482,488.663 387.482,489.829 391.5,491C396.257,491.81 400.924,491.476 405.5,490C414.868,484.997 422.535,478.164 428.5,469.5Z"/>
    </g>
</svg>
