<?xml version="1.0" encoding="UTF-8" standalone="no"?>
<!DOCTYPE svg PUBLIC "-//W3C//DTD SVG 1.1//EN" "http://www.w3.org/Graphics/SVG/1.1/DTD/svg11.dtd">
<svg width="100%" height="100%" viewBox="0 0 1024 1024" version="1.1" xmlns="http://www.w3.org/2000/svg" xmlns:xlink="http://www.w3.org/1999/xlink" xml:space="preserve" xmlns:serif="http://www.serif.com/" style="fill-rule:evenodd;clip-rule:evenodd;stroke-linejoin:round;stroke-miterlimit:2;">
    <g transform="matrix(1.43992,0,0,1.43992,-213.392,-302.751)">
        <path d="M835.5,431.5C836.477,402.554 825.81,379.054 803.5,361L779.5,349C773.198,344.099 771.365,337.932 774,330.5C777.338,327.682 781.171,326.849 785.5,328C805.843,333.871 822.51,345.038 835.5,361.5C847.226,375.299 854.393,391.299 857,409.5C859.171,420.413 859.837,431.413 859,442.5C854.777,453.686 847.777,456.019 838,449.5C835.772,443.732 834.939,437.732 835.5,431.5ZM153.5,629.5C143.767,585.037 147.433,541.703 164.5,499.5C165.108,496.673 166.108,494.007 167.5,491.5C188.929,441.757 221.929,401.757 266.5,371.5C266.833,370.5 267.5,369.833 268.5,369.5C278.516,362.733 288.683,356.066 299,349.5C299.821,342.873 301.321,336.54 303.5,330.5L303.5,329.5C309.137,302.483 314.971,275.483 321,248.5C322.916,244.915 325.749,242.415 329.5,241C334.925,240.515 340.258,241.015 345.5,242.5C347.698,242.875 349.698,243.542 351.5,244.5C398.17,250.839 438.503,270.006 472.5,302C534.42,299.487 595.42,305.82 655.5,321C683.05,327.951 709.05,338.451 733.5,352.5C744.321,357.997 754.321,364.664 763.5,372.5C771.67,378.496 778.837,385.496 785,393.5C788.731,400.203 789.397,407.203 787,414.5C783.897,418.607 780.397,422.44 776.5,426C760.21,438.621 744.21,451.621 728.5,465C723.931,469.73 719.597,474.563 715.5,479.5C714.641,483.447 714.808,487.447 716,491.5C731.64,483.93 747.473,476.764 763.5,470C770.976,469.133 775.309,472.467 776.5,480C775.911,484.177 774.244,487.843 771.5,491C734.263,509.859 695.596,525.192 655.5,537C644.909,539.618 634.243,541.785 623.5,543.5C609.814,546.778 595.814,548.778 581.5,549.5C578.252,574.986 568.252,597.319 551.5,616.5C542.825,627.509 532.492,636.676 520.5,644C510.04,646.353 502.207,642.853 497,633.5C485.374,610.118 483.54,586.118 491.5,561.5C491.631,560.624 491.298,559.957 490.5,559.5C480.534,560.662 470.534,561.662 460.5,562.5C460.403,562.515 460.306,562.527 460.21,562.536C440.022,565.072 419.785,568.227 399.5,572C383.661,576.001 367.661,579.168 351.5,581.5C344.626,583.638 337.626,585.638 330.5,587.5C339.959,616.563 339.792,645.563 330,674.5C327.317,680.52 322.817,684.353 316.5,686C309.123,686.229 301.79,685.729 294.5,684.5C291.015,683.41 287.681,683.41 284.5,684.5C292.121,704.233 304.454,720.4 321.5,733C328.865,738.016 336.532,742.516 344.5,746.5C345.807,747.153 347.14,747.82 348.5,748.5C349.86,747.82 351.193,747.153 352.5,746.5C367.331,735.022 382.997,724.688 399.5,715.5C399.833,714.5 400.5,713.833 401.5,713.5C418.121,704.025 435.454,695.859 453.5,689C462.514,686.501 468.181,689.668 470.5,698.5C460.905,728.952 450.905,759.286 440.5,789.5C444.287,800.552 445.787,811.886 445,823.5C440.019,843.425 435.352,863.425 431,883.5C428.27,890.053 423.437,892.22 416.5,890C413.798,888.988 411.465,887.488 409.5,885.5C391.35,871.918 373.35,858.084 355.5,844C345.274,834.94 335.608,825.44 326.5,815.5C313.826,808.831 300.826,802.665 287.5,797C281.594,792.909 275.594,789.076 269.5,785.5C264.693,783.597 260.36,780.93 256.5,777.5C222.56,754.56 195.56,725.227 175.5,689.5C165.952,672.197 158.952,653.863 154.5,634.5C153.549,633.081 153.216,631.415 153.5,629.5ZM186.5,501.5C185.64,504.911 184.474,508.244 183,511.5C182.633,521.269 186.467,529.102 194.5,535C199.891,536.653 204.058,535.153 207,530.5C212.437,518.259 209.937,508.259 199.5,500.5C195.476,499.962 191.476,499.295 187.5,498.5C187.737,499.791 187.404,500.791 186.5,501.5ZM182.5,645.5C195.019,631.885 195.686,617.718 184.5,603C180.122,600.596 175.455,599.096 170.5,598.5C171.583,614.674 174.917,630.34 180.5,645.5L182.5,645.5ZM307.5,597.5C302.438,605.278 297.604,613.278 293,621.5C287.328,633.845 282.494,646.512 278.5,659.5C289.092,661.324 299.759,662.324 310.5,662.5C315.949,641.758 315.782,621.091 310,600.5C309.764,598.881 308.931,597.881 307.5,597.5ZM763.5,405.5C763.611,404.883 763.944,404.383 764.5,404C753.285,391.774 740.618,381.441 726.5,373C687.308,352.082 645.641,338.582 601.5,332.5C599.03,333.237 596.696,334.237 594.5,335.5C583.025,342.792 572.525,351.459 563,361.5C544.266,387.736 534.433,417.07 533.5,449.5C532.781,476.867 542.114,500.033 561.5,519C566.022,523.261 571.355,525.928 577.5,527C607.389,525.123 636.722,519.956 665.5,511.5C676.541,507.401 687.875,503.901 699.5,501C687.719,493.33 685.385,483.496 692.5,471.5C693.82,468.194 695.653,465.194 698,462.5C716.033,444.123 735.533,427.623 756.5,413C758.502,410.14 760.835,407.64 763.5,405.5ZM661.5,422.5C652.247,408.088 653.914,394.921 666.5,383C682.382,374.31 695.882,377.143 707,391.5C714.246,406.598 711.079,419.098 697.5,429C690.837,432.587 683.837,433.754 676.5,432.5C669.988,431.412 664.988,428.079 661.5,422.5ZM679.5,400.5C676.61,407.75 678.944,411.25 686.5,411C690.2,403.831 687.867,400.331 679.5,400.5ZM353.5,803.5C352.319,805.067 350.653,805.901 348.5,806C366.084,824.264 385.418,840.264 406.5,854C409.055,855.555 410.888,857.722 412,860.5C413.27,856.579 414.437,852.579 415.5,848.5C418.477,836.64 420.81,824.64 422.5,812.5C421.626,804.378 419.626,796.544 416.5,789C424.253,765.028 432.087,741.195 440,717.5C437.603,719.782 434.769,721.116 431.5,721.5C419.729,728.892 407.729,736.059 395.5,743C383.886,750.947 372.552,759.281 361.5,768C362.525,770.071 363.358,772.238 364,774.5C366.504,786.498 363.004,796.165 353.5,803.5ZM557.5,555.5C555.952,554.206 553.952,553.539 551.5,553.5C544.16,554.167 536.827,554.834 529.5,555.5C525.119,555.372 520.785,555.705 516.5,556.5C514.987,563.884 513.154,571.217 511,578.5C507.677,592.932 509.51,606.598 516.5,619.5C530.04,608.79 540.873,595.79 549,580.5C552.422,572.332 555.256,563.999 557.5,555.5ZM356.5,326.5C357.209,325.596 358.209,325.263 359.5,325.5C386.426,316.353 414.093,310.52 442.5,308C440.959,306.629 439.625,305.129 438.5,303.5C422.65,290.863 404.984,281.363 385.5,275C373.523,271.972 361.523,269.139 349.5,266.5C346.426,266.127 343.426,265.461 340.5,264.5C335.676,288.956 330.342,313.289 324.5,337.5C324.667,337.833 324.833,338.167 325,338.5C335.235,333.811 345.735,329.811 356.5,326.5ZM222.5,490.5C223.794,491.29 224.961,492.29 226,493.5C237.887,511.38 237.22,528.713 224,545.5C208.116,561.491 191.449,562.491 174,548.5C171.967,557.349 171.133,566.349 171.5,575.5C192.64,578.805 206.806,590.472 214,610.5C219.393,632.993 212.893,650.993 194.5,664.5C193.517,665.85 192.184,666.85 190.5,667.5C191.127,668.417 191.461,669.417 191.5,670.5C217.178,721.009 255.845,758.175 307.5,782C317.531,787.29 328.198,789.79 339.5,789.5C342.219,785.111 342.052,780.778 339,776.5C333.765,769.312 327.265,763.645 319.5,759.5C317.46,757.823 315.46,756.156 313.5,754.5C298.855,744.521 286.521,732.188 276.5,717.5C274.336,715.178 272.669,712.511 271.5,709.5C265.566,700.289 261.233,690.289 258.5,679.5C257.379,677.046 256.546,674.379 256,671.5C256.681,653.773 260.681,636.773 268,620.5C278.258,599.257 291.258,579.924 307,562.5C327.618,540.196 351.785,523.029 379.5,511C393.028,505.634 407.028,503.301 421.5,504C424.333,505.5 426.5,507.667 428,510.5C430.393,518.561 427.56,523.394 419.5,525C412.057,525.231 404.724,526.231 397.5,528C376.535,535.312 357.535,545.979 340.5,560C344.079,559.663 347.746,559.496 351.5,559.5C375.345,554.33 399.345,549.997 423.5,546.5C462.482,540.077 501.815,535.411 541.5,532.5C540.388,531.735 539.721,530.735 539.5,529.5C537.11,528.109 535.443,526.109 534.5,523.5C533.236,521.73 531.736,520.063 530,518.5C511.471,486.007 506.638,451.673 515.5,415.5C518.247,400.02 523.247,385.353 530.5,371.5C538.089,354.24 549.422,339.907 564.5,328.5L565.5,328.5C559.38,326.922 553.046,325.755 546.5,325C514.754,322.813 483.087,323.646 451.5,327.5C450.432,328.434 449.099,328.768 447.5,328.5C423.251,331.896 399.251,336.562 375.5,342.5C361.6,347.026 347.933,352.36 334.5,358.5C276.041,383.3 230.708,422.967 198.5,477.5C208.232,478.698 216.232,483.031 222.5,490.5ZM301.5,390.5C314.1,390.915 322.266,397.249 326,409.5C331.029,424.716 330.362,439.716 324,454.5C312.186,481.973 291.853,499.973 263,508.5C257.47,507.971 254.136,504.971 253,499.5C251.574,494.243 252.741,489.743 256.5,486C283.77,478.731 299.936,461.231 305,433.5C305.667,427.5 305.667,421.5 305,415.5C300.645,410.45 297.811,404.617 296.5,398C296.831,394.52 298.498,392.02 301.5,390.5ZM838.5,581.5C848.532,581.532 853.532,586.532 853.5,596.5C852.323,614.832 846.156,631.165 835,645.5C820.785,662.035 802.952,669.202 781.5,667C774.348,663.923 767.348,660.59 760.5,657C754.596,657.38 750.096,660.213 747,665.5C743.174,672.152 740.174,679.152 738,686.5C723.484,715.314 699.984,729.814 667.5,730C658.118,729.225 650.285,725.392 644,718.5C642.566,714.594 642.233,710.594 643,706.5C644.109,704.185 645.943,702.685 648.5,702C653.963,702.029 659.297,703.029 664.5,705C683.769,707.469 699.602,701.302 712,686.5C716.561,674.825 721.894,663.492 728,652.5C734.227,643.307 742.727,637.473 753.5,635C764.846,634.656 775.512,637.323 785.5,643C804.745,643.449 817.911,634.616 825,616.5C827.315,607.241 829.315,597.908 831,588.5C832.742,585.254 835.242,582.921 838.5,581.5ZM843.5,685.5C853.86,685.356 858.36,690.356 857,700.5C848.272,723.952 831.772,738.785 807.5,745C790.274,747.369 775.607,742.369 763.5,730C750.987,721.408 740.154,723.241 731,735.5C724.121,746.799 718.788,758.799 715,771.5C699.109,797.474 675.943,808.974 645.5,806C638.609,799.797 637.942,793.13 643.5,786C675.468,786.02 694.968,770.52 702,739.5C709.586,722.247 722.086,710.08 739.5,703C749.24,701.096 758.573,702.429 767.5,707C774.833,711.667 782.167,716.333 789.5,721C804.727,724.256 817.227,719.756 827,707.5C830.433,702.403 833.433,697.069 836,691.5C838.134,688.847 840.634,686.847 843.5,685.5Z"/>
    </g>
</svg>
