<?xml version="1.0" encoding="UTF-8" standalone="no"?>
<!DOCTYPE svg PUBLIC "-//W3C//DTD SVG 1.1//EN" "http://www.w3.org/Graphics/SVG/1.1/DTD/svg11.dtd">
<svg width="100%" height="100%" viewBox="0 0 1024 1024" version="1.1" xmlns="http://www.w3.org/2000/svg" xmlns:xlink="http://www.w3.org/1999/xlink" xml:space="preserve" xmlns:serif="http://www.serif.com/" style="fill-rule:evenodd;clip-rule:evenodd;stroke-linejoin:round;stroke-miterlimit:2;">
    <g transform="matrix(1.26739,0,0,1.26739,-118.237,-165.715)">
        <path d="M191.5,294.5C179.829,294.667 168.162,294.5 156.5,294C150.388,290.707 148.888,285.873 152,279.5C153.518,278.837 154.685,277.837 155.5,276.5L551.5,276.5C631.501,276.333 711.501,276.5 791.5,277C805.27,277.987 818.603,280.82 831.5,285.5C862.492,300.102 883.325,323.769 894,356.5C900.388,375.714 902.555,395.381 900.5,415.5C894.123,454.757 876.789,488.257 848.5,516C836.124,526.712 823.457,537.045 810.5,547C809.167,547.333 807.833,547.667 806.5,548C813.167,552.667 819.833,557.333 826.5,562C832.705,567.709 839.039,573.209 845.5,578.5C894.384,625.148 900.884,677.148 865,734.5C851.445,753.396 834.778,768.729 815,780.5C809.248,779.411 806.415,775.911 806.5,770C806.542,768.033 807.042,766.199 808,764.5C821.619,753.881 834.286,742.215 846,729.5C877.582,687.172 877.249,645.172 845,603.5C828.792,586.948 811.125,572.281 792,559.5C790.954,561.09 789.787,562.59 788.5,564C773.317,575.76 758.317,587.76 743.5,600C737.432,603.044 732.932,601.544 730,595.5C728.811,591.291 729.644,587.624 732.5,584.5C747.597,573.572 762.264,562.072 776.5,550C762.894,541.392 749.56,532.392 736.5,523C728.584,517.578 727.584,511.244 733.5,504C736.167,503.333 738.833,503.333 741.5,504C757.899,516.287 775.066,527.454 793,537.5C807.746,526.758 821.913,515.258 835.5,503C877.282,462.667 890.782,414.5 876,358.5C866.466,332.636 849.299,313.803 824.5,302C816.121,299.395 807.787,297.228 799.5,295.5C788.852,294.723 778.185,294.39 767.5,294.5L191.5,294.5ZM282.5,335.5C320.893,333.932 356.893,342.432 390.5,361C401.813,367.635 413.146,374.301 424.5,381C429.838,384.509 431.672,389.342 430,395.5C385.538,438.225 332.705,453.392 271.5,441C231.659,434.789 193.326,423.456 156.5,407C153.639,405.168 151.139,403.001 149,400.5C147.207,403.295 145.04,405.795 142.5,408C130.919,416.244 119.919,425.244 109.5,435C96.436,441.721 91.269,437.888 94,423.5C107.777,412.691 121.277,401.525 134.5,390C121.638,376.804 108.471,363.97 95,351.5C90.653,338.513 95.153,334.013 108.5,338C121.415,352.917 135.581,366.417 151,378.5C155.674,373.495 161.174,369.661 167.5,367C179.652,364.629 191.652,361.629 203.5,358C228.823,346.589 255.156,339.089 282.5,335.5ZM322.5,356.5C311.44,373.793 311.94,390.793 324,407.5C329.019,414.02 334.853,419.686 341.5,424.5C366.293,418.77 388.293,407.77 407.5,391.5C394.852,384.678 382.186,378.178 369.5,372C372.333,373.5 374.5,375.667 376,378.5C377.65,384.926 376.15,390.426 371.5,395C364.948,398.955 359.115,398.121 354,392.5C349.129,379.411 353.629,371.911 367.5,370C353.015,363.795 338.015,359.295 322.5,356.5ZM287.5,354.5C280.116,354.84 272.783,355.673 265.5,357C245.106,362.098 225.106,368.432 205.5,376C190.614,379.708 175.947,384.041 161.5,389C174.419,394.529 187.419,399.862 200.5,405C237.4,418.181 275.4,424.515 314.5,424C296.064,403.546 292.064,380.712 302.5,355.5C297.695,354.513 292.695,354.179 287.5,354.5ZM468.5,337.5C473.05,336.884 477.05,338.051 480.5,341C491.047,352.89 502.381,364.057 514.5,374.5C555.953,346.12 601.286,337.62 650.5,349C682.048,358.189 710.548,373.022 736,393.5C738.276,401.832 735.776,408.665 728.5,414C700.807,436.181 669.14,445.847 633.5,443C595.33,440.609 559.663,429.942 526.5,411C521.733,408.069 517.399,404.569 513.5,400.5C501.63,408.27 490.297,416.77 479.5,426C467.375,429.545 462.541,425.045 465,412.5C476.986,404.429 488.486,395.763 499.5,386.5C488.514,375.014 477.348,363.681 466,352.5C461.977,346.462 462.81,341.462 468.5,337.5ZM594.5,362.5C569.231,364.91 546.231,373.577 525.5,388.5C554.484,407.323 586.151,418.823 620.5,423C618.3,420.766 616.467,418.266 615,415.5C606.421,397.011 607.921,379.511 619.5,363C611.173,362.5 602.84,362.334 594.5,362.5ZM639.5,365.5C634.709,371.413 631.209,378.08 629,385.5C626.356,409.222 636.856,422.555 660.5,425.5C681.121,422.184 699.454,414.017 715.5,401C705.698,395.263 696.032,389.263 686.5,383C671.722,374.686 656.055,368.853 639.5,365.5ZM666.5,383.5C670.182,383.335 673.848,383.501 677.5,384C683.396,385.441 686.396,389.274 686.5,395.5C683.977,406.094 677.31,409.928 666.5,407C659.93,403.345 657.763,397.845 660,390.5C661.356,387.314 663.522,384.981 666.5,383.5ZM277.5,484.5C317.36,482.579 354.36,491.746 388.5,512C404.498,521.586 419.331,532.753 433,545.5C435.991,549.618 435.658,553.618 432,557.5C382.464,608.854 322.631,626.687 252.5,611C241.47,607.825 230.47,604.492 219.5,601C197.048,591.274 174.715,581.274 152.5,571L147,565.5C134.149,578.35 120.649,590.516 106.5,602C96.354,603.854 92.187,599.687 94,589.5C107.447,577.207 120.947,565.04 134.5,553C121.7,541.868 109.2,530.368 97,518.5C92.121,510.426 94.288,505.426 103.5,503.5C105.942,504.036 108.275,504.869 110.5,506C122.349,517.35 134.349,528.517 146.5,539.5C185.373,509.901 229.039,491.568 277.5,484.5ZM330.5,507.5C329.955,509.593 329.122,511.593 328,513.5C318.705,523.034 313.871,534.534 313.5,548C315.26,567.021 323.26,582.854 337.5,595.5C366.041,586.424 391.207,571.758 413,551.5C398.567,541.318 383.733,531.151 368.5,521C356.355,515.007 343.689,510.507 330.5,507.5ZM353.5,525.5C369.748,524.106 378.748,531.44 380.5,547.5C379.113,562.707 370.78,571.04 355.5,572.5C347.198,572.097 340.698,568.431 336,561.5C329.744,543.678 335.577,531.678 353.5,525.5ZM355.5,542.5C351.877,544.412 350.377,547.412 351,551.5C354.854,556.757 358.521,556.757 362,551.5C363.218,545.911 361.052,542.911 355.5,542.5ZM281.5,502.5C260.621,504.97 240.288,510.137 220.5,518C198.571,527.964 177.238,538.964 156.5,551C184.55,566.905 213.884,579.905 244.5,590C267.666,597.596 291.333,599.929 315.5,597C309.275,590.055 304.442,582.221 301,573.5C291.786,547.988 295.619,524.821 312.5,504C302.203,502.774 291.87,502.274 281.5,502.5ZM562.5,485.5C595.893,484.177 628.226,489.343 659.5,501C668.661,505.746 677.661,510.746 686.5,516C698.556,525.056 710.89,533.722 723.5,542C729.907,547.685 730.074,553.519 724,559.5C703.968,578.774 681.135,593.941 655.5,605C623.38,615.764 590.713,617.764 557.5,611C519.882,603.351 484.882,589.351 452.5,569C450.011,566.023 448.345,562.689 447.5,559C447.466,554.202 449.8,551.368 454.5,550.5C461.687,552.427 468.02,555.927 473.5,561C507.385,579.143 543.385,591.143 581.5,597C589.833,597.667 598.167,597.667 606.5,597C579.054,572.777 573.887,544.61 591,512.5C593.285,510.093 595.451,507.593 597.5,505C561.374,501.799 526.707,507.466 493.5,522C480.517,528.157 467.851,534.824 455.5,542C447.982,541.813 444.816,537.979 446,530.5C446.69,527.804 448.19,525.637 450.5,524C484.865,502.574 522.198,489.741 562.5,485.5ZM616.5,506.5C616.108,508.179 615.608,509.846 615,511.5C595.712,529.859 593.378,550.193 608,572.5C615.169,580.169 622.669,587.502 630.5,594.5C637.375,591.708 644.375,589.208 651.5,587C671.849,577.807 690.183,565.641 706.5,550.5C699.004,546.586 691.671,542.42 684.5,538C664.743,521.458 642.076,510.958 616.5,506.5ZM645.5,525.5C662.292,524.46 671.626,532.293 673.5,549C670.803,563.028 662.303,570.861 648,572.5C644.237,572.135 640.737,570.968 637.5,569C625.809,559.985 623.309,548.818 630,535.5C634.533,530.995 639.7,527.662 645.5,525.5ZM648.5,542.5C644.433,545.323 643.6,548.99 646,553.5C650.519,555.323 653.686,553.99 655.5,549.5C654.266,546.004 651.933,543.671 648.5,542.5ZM663.5,663.5C692.16,661.916 720.16,665.416 747.5,674C758.058,677.946 768.058,682.946 777.5,689C794.42,700.537 810.253,713.37 825,727.5C826.885,729.914 827.552,732.581 827,735.5C805.125,760.358 778.292,777.524 746.5,787C714.173,794.333 681.84,794.333 649.5,787C633.772,784.49 618.438,780.49 603.5,775C592.167,769 580.833,763 569.5,757C558.705,755.052 548.372,751.719 538.5,747L535,743.5C523.438,755.731 511.271,767.231 498.5,778C490.036,782.434 485.036,779.934 483.5,770.5C483.763,767.972 484.596,765.639 486,763.5C490.077,760.212 494.244,757.045 498.5,754C506.766,745.228 515.433,737.062 524.5,729.5C516.1,722.606 508.1,715.106 500.5,707C494.333,701.5 488.167,696 482,690.5C482.204,680.286 487.371,676.786 497.5,680C498.328,680.915 499.328,681.581 500.5,682L535,716.5C566.873,697.649 600.373,682.149 635.5,670C644.921,667.62 654.254,665.453 663.5,663.5ZM664.5,681.5C649.884,684.242 635.551,688.409 621.5,694C595.953,706.186 570.287,718.186 544.5,730C553.004,732.959 561.671,735.293 570.5,737C577.167,741 583.833,745 590.5,749C631.118,767.724 673.785,776.057 718.5,774C713.57,766.742 709.07,759.242 705,751.5C699.029,734.486 699.029,717.486 705,700.5C706.803,694.374 709.97,689.207 714.5,685C697.974,681.987 681.307,680.821 664.5,681.5ZM731.5,688.5C727.771,694.955 724.271,701.622 721,708.5C716.931,718.718 716.597,729.052 720,739.5C724.411,751.331 731.078,761.664 740,770.5C745.74,768.417 751.574,766.584 757.5,765C775.353,756.241 791.687,745.241 806.5,732C793.324,722.912 780.324,713.579 767.5,704C761.178,701.174 755.178,697.841 749.5,694C743.561,691.853 737.561,690.02 731.5,688.5ZM753.5,704.5C768.279,703.283 776.945,709.95 779.5,724.5C777.349,735.002 771.683,742.835 762.5,748C745.51,751.669 736.177,744.835 734.5,727.5C734.986,714.799 741.32,707.132 753.5,704.5ZM755.5,721.5C754.207,723.296 752.707,724.963 751,726.5C750.333,727.167 750.333,727.833 751,728.5C753.709,731.368 756.876,732.035 760.5,730.5C763.695,724.998 762.029,721.998 755.5,721.5ZM269.5,663.5C307.061,660.648 342.727,667.481 376.5,684C392.775,694.61 408.775,705.61 424.5,717C430.156,720.807 432.656,725.973 432,732.5L429,738.5C389.326,779.841 340.826,797.674 283.5,792C234.616,786.046 189.949,769.212 149.5,741.5C136.106,754.694 122.106,767.194 107.5,779C99.255,782.045 94.589,779.211 93.5,770.5C93.763,767.972 94.596,765.639 96,763.5C110.518,753.821 123.685,742.487 135.5,729.5C121.792,715.957 107.959,702.624 94,689.5C93.965,678.749 99.131,675.249 109.5,679C122.34,691.506 135.507,703.673 149,715.5C154.799,709.837 161.299,705.004 168.5,701C190.841,688.498 214.174,678.164 238.5,670C248.894,667.5 259.227,665.333 269.5,663.5ZM332.5,686.5C327.771,693.61 323.271,700.944 319,708.5C314.334,720.505 314.334,732.505 319,744.5C324.496,754.664 331.496,763.664 340,771.5C366.981,763.848 390.648,750.515 411,731.5C411.667,730.833 411.667,730.167 411,729.5C392.593,715.706 373.093,703.539 352.5,693C345.585,691.441 338.918,689.275 332.5,686.5ZM351.5,704.5C365.399,702.916 374.899,708.583 380,721.5C381.049,734.566 375.549,743.733 363.5,749C344.853,751.347 335.019,743.181 334,724.5C335.916,714.293 341.75,707.626 351.5,704.5ZM355.5,721.5C354.542,722.962 353.376,724.295 352,725.5C351.333,726.833 351.333,728.167 352,729.5C355.275,734.044 358.775,734.377 362.5,730.5C364.253,724.343 361.919,721.343 355.5,721.5ZM271.5,681.5C262.865,682.814 254.198,684.648 245.5,687C215.27,697.448 186.27,710.615 158.5,726.5C164.969,730.47 171.302,734.637 177.5,739C198.817,749.658 220.817,758.658 243.5,766C267.411,772.709 291.744,775.375 316.5,774C300.153,755.29 294.653,733.79 300,709.5C302.133,699.231 306.967,690.564 314.5,683.5C312.922,682.702 311.256,682.202 309.5,682C296.838,681.5 284.171,681.333 271.5,681.5Z"/>
    </g>
</svg>
