<?xml version="1.0" encoding="UTF-8" standalone="no"?>
<!DOCTYPE svg PUBLIC "-//W3C//DTD SVG 1.1//EN" "http://www.w3.org/Graphics/SVG/1.1/DTD/svg11.dtd">
<svg width="100%" height="100%" viewBox="0 0 1024 1024" version="1.1" xmlns="http://www.w3.org/2000/svg" xmlns:xlink="http://www.w3.org/1999/xlink" xml:space="preserve" xmlns:serif="http://www.serif.com/" style="fill-rule:evenodd;clip-rule:evenodd;stroke-linejoin:round;stroke-miterlimit:2;">
    <g transform="matrix(1.53941,0,0,1.53941,-262.924,-305.573)">
        <path d="M614.5,517.5C609.478,503.431 604.811,489.098 600.5,474.5C603.339,468.082 607.506,467.082 613,471.5C622.505,496.362 630.505,521.695 637,547.5C638.325,551.428 638.658,555.428 638,559.5C634.119,563.996 630.119,564.33 626,560.5C623.723,554.272 621.89,547.938 620.5,541.5C617.887,533.658 615.887,525.658 614.5,517.5ZM311.5,695.5C296.673,648.242 291.839,599.909 297,550.5C287.893,554.631 279.393,559.631 271.5,565.5C266.866,569.156 261.866,572.322 256.5,575C257.81,581.391 258.643,587.891 259,594.5C259.461,618.191 260.127,641.858 261,665.5C254.311,670.698 247.811,676.031 241.5,681.5C235.712,684.896 229.712,688.063 223.5,691C210.189,692.687 204.689,686.854 207,673.5C209.901,665.355 214.068,658.022 219.5,651.5C223.077,643.938 224.41,635.938 223.5,627.5C223.81,624.287 223.477,621.287 222.5,618.5C222.462,599 220.795,579.666 217.5,560.5L216.5,560.5C216.933,556.062 219.267,553.062 223.5,551.5C233.602,545.774 242.602,538.607 250.5,530C252.67,528.414 255.004,527.08 257.5,526C270.94,521.974 284.273,517.64 297.5,513C299.473,512.505 301.473,512.338 303.5,512.5C305.654,501.045 308.988,490.045 313.5,479.5C314.287,474.304 315.787,469.304 318,464.5C326.419,447.321 335.585,430.655 345.5,414.5C347.081,411.413 349.581,409.747 353,409.5C360.838,410.542 368.671,411.542 376.5,412.5C374.54,408.581 372.374,404.247 370,399.5C366.12,386.226 367.287,373.392 373.5,361C373.167,360.5 372.833,360 372.5,359.5C359.126,354.098 345.793,348.598 332.5,343C329.761,341.974 327.428,340.474 325.5,338.5C323.745,336.239 322.578,333.572 322,330.5C321.5,312.503 321.333,294.503 321.5,276.5C320.448,276.649 319.448,276.483 318.5,276C313.288,271.948 307.955,268.115 302.5,264.5C296.356,259.197 290.022,254.031 283.5,249C276.049,244.805 268.383,241.305 260.5,238.5L245.5,238.5C238.627,236.776 236.127,232.443 238,225.5C240.172,215.99 244.338,207.49 250.5,200C252.034,199.077 253.701,198.577 255.5,198.5C273.869,202.344 291.202,208.844 307.5,218C311.235,220.853 314.902,223.687 318.5,226.5C335.287,237.087 341.287,252.087 336.5,271.5C336.821,277.026 336.488,282.36 335.5,287.5C335.333,301.504 335.5,315.504 336,329.5L337.5,331C352.055,335.945 366.388,341.445 380.5,347.5C384.657,343.174 388.657,338.674 392.5,334C396.449,330.204 400.783,327.037 405.5,324.5C408.125,321.185 411.458,318.851 415.5,317.5C420.797,314.505 426.13,311.505 431.5,308.5C433.764,307.781 436.097,307.448 438.5,307.5L438.5,303.5C438.333,288.163 438.5,272.83 439,257.5C440.871,250.755 444.038,244.755 448.5,239.5C453.398,236.219 458.732,233.719 464.5,232C469.61,231.43 474.61,231.93 479.5,233.5C488.527,238.525 495.027,245.859 499,255.5C499.5,268.829 499.667,282.163 499.5,295.5L512.5,295.5C511.518,283.181 511.351,270.848 512,258.5C515.838,243.495 525.338,234.495 540.5,231.5C545.913,231.229 551.246,231.729 556.5,233C559.239,234.026 561.572,235.526 563.5,237.5C566.112,238.779 568.445,240.445 570.5,242.5C574.503,247.507 577.169,253.173 578.5,259.5C578.462,276.414 578.462,293.08 578.5,309.5C585.555,312.195 592.222,315.695 598.5,320C608.684,328.684 618.017,338.184 626.5,348.5C642.707,342.473 658.54,335.806 674,328.5C674.333,302.167 674.667,275.833 675,249.5C677.433,241.383 681.933,234.549 688.5,229C694.123,225.045 699.457,220.712 704.5,216C710.577,212.479 716.911,209.646 723.5,207.5C734.45,202.013 746.117,199.18 758.5,199C759.942,199.377 760.942,200.21 761.5,201.5C766.047,206.053 769.38,211.386 771.5,217.5C774.482,223.505 774.148,229.339 770.5,235C762.268,236.947 753.935,238.447 745.5,239.5C736.073,244.049 727.073,249.383 718.5,255.5C712.649,259.928 706.983,264.594 701.5,269.5C697.419,272.235 693.085,274.569 688.5,276.5L688.5,325.5C688.187,331.617 685.853,336.784 681.5,341C666.057,347.721 650.39,353.888 634.5,359.5C642.13,373.953 642.464,388.62 635.5,403.5C633.99,407.026 631.656,409.86 628.5,412C629.448,412.483 630.448,412.649 631.5,412.5C639.641,411.068 647.974,410.568 656.5,411C678.087,441.353 692.754,474.853 700.5,511.5C718.695,515.299 736.361,520.799 753.5,528C761.742,538.951 772.076,547.284 784.5,553C786.734,554.638 788.067,556.805 788.5,559.5C786.458,575.463 784.791,591.463 783.5,607.5C782.014,617.977 781.514,628.643 782,639.5C786.989,649.97 792.155,660.303 797.5,670.5C801.382,675.77 801.215,681.103 797,686.5C792.689,690.825 787.523,692.325 781.5,691C770.516,685.818 760.516,679.318 751.5,671.5C748.87,669.372 746.37,667.039 744,664.5C746.291,635.889 748.125,607.222 749.5,578.5C748.17,575.17 745.837,572.837 742.5,571.5C740.142,569.471 737.808,567.471 735.5,565.5C726.701,559.262 717.701,553.262 708.5,547.5L707.5,548.5C708.921,552.028 709.588,555.694 709.5,559.5C710.142,589.641 708.475,619.641 704.5,649.5C700.46,674.981 693.293,699.647 683,723.5C682.075,724.047 681.242,724.713 680.5,725.5C700.81,736.301 718.31,750.634 733,768.5C733.781,769.729 734.281,771.062 734.5,772.5C731.061,791.814 726.394,810.814 720.5,829.5C726.943,835.228 733.609,840.728 740.5,846C742.79,847.777 744.457,849.944 745.5,852.5C748.002,860.65 745.002,864.15 736.5,863C732.234,859.381 728.234,855.548 724.5,851.5C718.052,845.435 710.719,840.601 702.5,837C698.4,834.533 694.566,831.699 691,828.5C689.162,825.963 688.329,823.129 688.5,820C689.674,806.465 690.84,792.965 692,779.5C681.622,770.623 672.122,760.956 663.5,750.5C649.01,768.329 631.343,781.996 610.5,791.5C609.71,792.401 608.71,793.068 607.5,793.5C602.332,796.222 596.999,798.556 591.5,800.5C576.169,806.134 560.335,809.801 544,811.5C540.408,811.226 536.908,810.559 533.5,809.5C528.318,807.992 523.818,805.325 520,801.5C518.902,797.495 519.735,793.995 522.5,791C524.167,790.333 525.833,790.333 527.5,791C531.167,792.667 534.833,794.333 538.5,796C557.931,795.976 576.597,792.143 594.5,784.5C595.671,783.655 597.005,782.989 598.5,782.5C608.627,777.604 618.294,771.937 627.5,765.5C628.795,764.512 630.128,763.512 631.5,762.5C650.57,747.349 665.07,728.683 675,706.5C686.652,672.072 693.486,636.739 695.5,600.5L695.5,567.5C692.726,536.55 686.392,506.217 676.5,476.5C671.045,463.383 664.711,450.716 657.5,438.5C655.09,433.574 652.424,428.74 649.5,424C637.525,425.114 625.525,426.281 613.5,427.5C607.033,428.974 600.366,429.974 593.5,430.5C591.901,430.232 590.568,430.566 589.5,431.5C577.577,432.685 565.91,435.018 554.5,438.5C544.515,440.994 535.515,445.328 527.5,451.5C525.357,453.131 523.69,455.131 522.5,457.5L522.5,759.5C523.879,768.456 521.879,776.456 516.5,783.5C511.12,788.527 504.786,790.693 497.5,790C496.619,789.292 495.953,788.458 495.5,787.5C492.806,785.473 490.473,783.139 488.5,780.5C487.766,779.292 487.433,777.959 487.5,776.5C486.732,775.737 486.232,774.737 486,773.5C484.199,668.502 484.032,563.502 485.5,458.5C484.737,456.632 483.737,454.965 482.5,453.5C476.301,446.492 468.634,441.658 459.5,439C445.026,435.31 430.359,432.81 415.5,431.5L415.5,430.5C396.711,429.151 378.044,426.818 359.5,423.5C357.9,423.551 356.4,423.884 355,424.5C353.82,426.86 352.653,429.193 351.5,431.5C349.108,434.598 346.942,437.931 345,441.5C334.076,462.796 325.243,484.796 318.5,507.5C316.514,517.446 314.847,527.446 313.5,537.5C312.723,538.389 312.361,539.461 312.416,540.717C312.445,540.968 312.473,541.229 312.5,541.5C307.958,570.702 307.291,600.036 310.5,629.5C311.011,635.049 312.011,640.383 313.5,645.5C317.775,679.508 329.609,710.508 349,738.5C375.851,769.011 409.351,787.678 449.5,794.5C455.919,796.201 462.585,796.867 469.5,796.5C474.176,794.712 478.843,792.712 483.5,790.5C491.052,794.612 491.385,799.445 484.5,805C478.069,808.875 471.069,811.042 463.5,811.5C446.922,810.119 430.922,806.452 415.5,800.5C392.763,791.972 372.43,779.639 354.5,763.5C352.5,761.167 350.5,758.833 348.5,756.5C346.164,754.996 344.331,752.996 343,750.5C334.316,760.684 324.816,770.017 314.5,778.5C316.683,791.725 318.017,805.058 318.5,818.5C318.702,822.393 318.035,826.06 316.5,829.5C315.5,830.167 314.5,830.833 313.5,831.5C308.781,836.357 303.114,839.857 296.5,842C288.906,848.282 281.573,854.782 274.5,861.5C267.36,865.694 263.36,863.86 262.5,856C262.542,854.033 263.042,852.199 264,850.5C269.209,845.622 274.709,841.122 280.5,837C282.888,834.95 284.888,832.616 286.5,830C282.168,811.002 277.834,792.002 273.5,773C275.129,767.546 278.129,763.046 282.5,759.5C284.5,757.329 286.334,754.996 288,752.5C290.663,750.666 293.163,748.666 295.5,746.5C296.167,745.167 297.167,744.167 298.5,743.5C299.833,742.5 301.167,741.5 302.5,740.5C309.501,735.666 316.501,730.833 323.5,726C318.612,716.166 314.612,705.999 311.5,695.5ZM563.5,303.5C563.667,288.163 563.5,272.83 563,257.5C562.065,254.405 560.231,252.071 557.5,250.5C545.929,242.592 535.929,244.258 527.5,255.5C527.011,256.995 526.345,258.329 525.5,259.5L525.5,295.5C538.494,296.723 551.16,299.389 563.5,303.5ZM302.5,825.5C303.261,824.609 304.261,823.942 305.5,823.5C306.182,810.062 305.015,796.729 302,783.5C301.333,779.833 301.333,776.167 302,772.5C312.279,762.711 322.279,752.711 332,742.5C332.783,740.681 332.283,739.348 330.5,738.5C329.431,739.91 328.097,740.91 326.5,741.5C311.987,750.023 298.987,760.356 287.5,772.5C287.018,773.416 286.685,774.416 286.5,775.5C288.632,781.063 290.465,786.729 292,792.5C292.76,800.913 293.926,809.246 295.5,817.5C296.761,820.258 297.594,823.258 298,826.5C299.711,827.581 301.211,827.248 302.5,825.5ZM785.5,674.5C781.833,668.5 778.167,662.5 774.5,656.5C772.975,654.784 771.975,652.784 771.5,650.5L770.5,650.5C767.939,622.051 769.272,593.718 774.5,565.5C772.217,562.697 769.55,560.364 766.5,558.5C763.978,556.828 761.312,555.328 758.5,554C752.93,548.599 747.597,543.099 742.5,537.5C730.091,534.03 717.758,530.363 705.5,526.5C704.334,528.167 704.334,529.834 705.5,531.5C713.983,536.242 722.649,540.742 731.5,545C737.11,550.456 743.11,555.29 749.5,559.5C753.951,562.635 758.618,565.302 763.5,567.5C764.16,568.964 764.493,570.631 764.5,572.5C762.994,578.73 762.327,585.064 762.5,591.5C761.056,606.154 759.723,620.82 758.5,635.5C758.154,643.601 757.154,651.601 755.5,659.5C757.655,659.372 759.655,659.872 761.5,661C764.162,663.985 767.162,666.485 770.5,668.5C775.643,671.575 780.643,674.908 785.5,678.5C786.292,677.3 786.292,675.967 785.5,674.5ZM671.5,737.5C671.491,739.308 671.991,740.975 673,742.5C683.397,753.566 694.397,763.899 706,773.5C706.667,777.5 706.667,781.5 706,785.5C704.071,797.288 702.571,809.121 701.5,821C703.032,823.117 705.032,824.784 707.5,826C708.5,826.667 709.5,826.667 710.5,826C712.948,813.933 715.115,801.766 717,789.5C718.3,785.268 719.8,781.102 721.5,777C708.043,759.771 691.376,746.605 671.5,737.5ZM221.5,672.5C219.891,674.601 219.391,676.935 220,679.5C228.887,671.972 238.387,665.305 248.5,659.5C249.363,657.229 249.363,654.895 248.5,652.5C248.007,650.194 247.674,647.861 247.5,645.5C246.201,621.615 244.534,597.615 242.5,573.5C242.833,571.5 243.167,569.5 243.5,567.5L253.5,562.5C257.284,558.443 261.617,555.109 266.5,552.5C268.237,550.45 270.237,548.617 272.5,547C280.681,542.743 289.014,538.743 297.5,535C299.498,532.561 299.831,530.061 298.5,527.5C288.619,530.905 278.619,533.905 268.5,536.5C266.123,537.887 263.457,538.721 260.5,539C253.129,549.364 243.463,556.864 231.5,561.5C231.833,565.5 232.167,569.5 232.5,573.5C235.819,597.39 236.986,621.39 236,645.5C232.698,655.444 227.865,664.444 221.5,672.5ZM719.5,224.5C711.2,228.656 703.534,233.822 696.5,240C692.422,243.337 689.755,247.503 688.5,252.5C688.405,256.225 688.238,259.891 688,263.5C693.221,257.165 699.387,252.165 706.5,248.5C707.579,246.457 709.246,245.124 711.5,244.5C713.913,242.113 716.58,239.946 719.5,238C732.031,229.901 745.698,224.901 760.5,223C757.552,219.89 755.219,216.39 753.5,212.5C741.671,215.11 730.337,219.11 719.5,224.5ZM486.5,288.5C486.666,279.494 486.5,270.494 486,261.5C483.965,252.632 478.465,247.299 469.5,245.5C463.825,246.505 458.825,248.839 454.5,252.5C454.539,253.756 454.039,254.756 453,255.5C452.5,269.163 452.333,282.829 452.5,296.5L452.5,299.5C452.369,300.376 452.702,301.043 453.5,301.5C462.62,298.425 471.953,296.425 481.5,295.5C482.919,294.549 484.585,294.216 486.5,294.5L486.5,288.5ZM385.5,400.5C387.55,406.718 391.55,411.218 397.5,414C419.025,416.587 440.358,420.254 461.5,425C474.996,428.905 486.329,436.072 495.5,446.5C497.663,449.834 498.996,453.5 499.5,457.5L499.5,770.5C500.038,772.117 500.371,773.784 500.5,775.5C503.383,776.873 505.717,776.207 507.5,773.5C508.11,772.609 508.443,771.609 508.5,770.5L508.5,495.5C508.174,487.316 508.508,479.316 509.5,471.5C509.334,465.491 509.501,459.491 510,453.5C510.232,452.263 510.732,451.263 511.5,450.5C512.812,446.996 514.812,443.83 517.5,441C535.07,429.267 554.404,422.1 575.5,419.5L577.5,419.5C588.597,416.814 599.93,414.647 611.5,413C615.411,409.684 618.745,405.85 621.5,401.5C626.617,389.933 626.784,378.266 622,366.5C609.016,344.123 590.516,328.456 566.5,319.5C561.833,317.833 557.167,316.167 552.5,314.5C512.669,303.317 473.669,305.65 435.5,321.5C434.167,322.5 432.833,323.5 431.5,324.5C415.124,331.881 401.791,342.881 391.5,357.5C389.425,360.646 387.592,363.979 386,367.5C380.235,378.452 380.069,389.452 385.5,400.5ZM285.5,234.5C288.301,235.735 290.968,237.235 293.5,239C302.015,246.083 310.682,252.916 319.5,259.5C320.976,261.5 322.809,263.167 325,264.5C325.156,260.445 324.656,256.445 323.5,252.5C314.911,239.918 303.578,230.585 289.5,224.5L288.5,224.5C278.403,218.651 267.57,215.651 256,215.5C254.533,218.266 252.7,220.766 250.5,223C252.81,223.497 255.143,223.663 257.5,223.5C267.285,225.985 276.619,229.651 285.5,234.5ZM390.5,460.5C396.974,461.447 399.474,465.113 398,471.5C389.266,501.038 380.932,530.705 373,560.5C369.685,564.105 366.018,564.439 362,561.5C361.077,559.966 360.577,558.299 360.5,556.5C368.095,525.22 376.595,494.22 386,463.5C387.652,462.601 389.152,461.601 390.5,460.5Z"/>
    </g>
</svg>
