<?xml version="1.0" encoding="UTF-8" standalone="no"?>
<!DOCTYPE svg PUBLIC "-//W3C//DTD SVG 1.1//EN" "http://www.w3.org/Graphics/SVG/1.1/DTD/svg11.dtd">
<svg width="100%" height="100%" viewBox="0 0 1024 1024" version="1.1" xmlns="http://www.w3.org/2000/svg" xmlns:xlink="http://www.w3.org/1999/xlink" xml:space="preserve" xmlns:serif="http://www.serif.com/" style="fill-rule:evenodd;clip-rule:evenodd;stroke-linejoin:round;stroke-miterlimit:2;">
    <g transform="matrix(1.35564,0,0,1.35564,-187.059,-184.395)">
        <path d="M580.5,493.5C570.843,500.494 560.176,505.66 548.5,509C496.657,522.187 454.157,508.021 421,466.5C411.414,454.183 406.081,440.183 405,424.5C400.252,421.209 395.419,418.042 390.5,415C368.317,392.799 350.817,367.299 338,338.5C333.939,328.868 332.606,318.868 334,308.5C337.946,293.488 344.112,279.488 352.5,266.5C343.635,262.3 334.301,260.8 324.5,262C304.395,267.438 291.562,280.272 286,300.5C281.583,339.599 299.083,361.265 338.5,365.5C344.04,373.776 348.04,382.776 350.5,392.5C311.553,412.949 283.053,443.283 265,483.5C249.011,520.559 248.345,557.892 263,595.5C264.704,588.259 267.871,581.759 272.5,576C274.9,574.299 277.567,573.466 280.5,573.5C287.202,573.694 290.035,577.027 289,583.5C282.104,593.626 277.104,604.626 274,616.5C271.923,650.602 280.256,681.935 299,710.5C314.16,732.165 331.327,752.165 350.5,770.5C354.686,776.68 355.52,783.347 353,790.5C349.547,793.769 345.714,794.269 341.5,792C337.505,786.485 333.172,781.318 328.5,776.5C313.349,760.548 299.183,743.882 286,726.5C263.945,695.335 252.945,660.668 253,622.5C224.7,569.299 224.367,515.966 252,462.5C269.204,429.961 293.37,403.794 324.5,384C303.059,380.795 286.393,370.295 274.5,352.5C260.14,326.611 259.973,300.611 274,274.5C295.471,242.088 324.304,233.088 360.5,247.5C381.143,204.691 412.476,172.191 454.5,150C482.969,136.031 512.636,132.531 543.5,139.5C551.68,141.379 559.68,143.879 567.5,147C614.751,168.718 649.751,202.885 672.5,249.5C674.028,248.139 675.695,246.972 677.5,246C697.308,237.688 716.308,239.355 734.5,251C761.283,270.413 772.283,296.579 767.5,329.5C759.669,360.994 739.669,379.328 707.5,384.5C747.836,410.844 775.836,446.844 791.5,492.5C806.019,537.779 801.519,581.113 778,622.5C777.574,655.88 768.907,686.88 752,715.5C736.815,737.852 720.315,759.185 702.5,779.5C698.972,784.022 695.305,788.522 691.5,793C685.643,795.95 681.477,794.45 679,788.5C677.136,780.57 678.803,773.57 684,767.5C703.496,747.476 720.829,725.809 736,702.5C752.935,673.494 758.935,642.494 754,609.5C736.885,558.01 701.385,536.843 647.5,546C621.876,552.307 600.543,565.474 583.5,585.5C575.619,594.904 568.453,604.904 562,615.5C550.821,636.527 539.654,657.527 528.5,678.5L528.5,679.5C525.369,682.129 522.369,684.962 519.5,688C514.987,690.754 510.32,691.087 505.5,689C499.595,684.091 494.762,678.258 491,671.5C482.59,653.015 473.923,634.682 465,616.5C460.667,609.833 456.333,603.167 452,596.5C443.626,584.915 433.793,574.749 422.5,566C395.588,546.682 365.922,540.349 333.5,547C326.298,548.767 319.965,551.934 314.5,556.5C310.525,561.121 305.525,562.621 299.5,561C294.756,555.622 294.256,549.789 298,543.5C303.358,538.407 309.524,534.74 316.5,532.5C312.961,509.123 319.628,489.289 336.5,473C344.055,468.479 349.722,470.146 353.5,478C348.88,486.07 344.38,494.237 340,502.5C338.063,509.626 336.563,516.793 335.5,524C347.468,523.443 359.468,523.443 371.5,524C410.619,531.96 442.452,551.46 467,582.5C484.898,609.962 499.898,638.962 512,669.5C516.92,658.661 522.087,647.994 527.5,637.5C532.601,624.631 538.768,612.298 546,600.5C559.403,577.096 577.57,558.263 600.5,544C629.589,524.724 661.256,518.558 695.5,525.5C694.965,517.325 693.465,509.325 691,501.5C687.746,493.332 684.246,485.332 680.5,477.5C682.595,470.792 686.928,468.959 693.5,472C696.965,474.463 700.131,477.296 703,480.5C712.818,496.439 716.985,513.773 715.5,532.5C716.873,532.343 718.207,532.51 719.5,533C722.557,535.723 725.89,538.056 729.5,540C748.097,554.755 761.431,573.255 769.5,595.5C778.526,569.434 780.859,542.768 776.5,515.5C763.473,460.296 731.807,419.463 681.5,393C685.855,383.121 690.855,373.621 696.5,364.5C709.205,364.543 720.538,360.71 730.5,353C747.226,336.051 751.726,316.218 744,293.5C730.528,266.511 709.362,257.178 680.5,265.5C685.258,276.689 689.758,288.022 694,299.5C695.424,305.288 696.591,311.121 697.5,317C693.9,338.353 685.567,357.52 672.5,374.5C662.123,394.551 647.456,410.884 628.5,423.5C625.831,432.672 622.665,441.672 619,450.5C610.283,468.66 597.45,482.993 580.5,493.5ZM656.5,363.5C661.563,354.377 666.396,345.044 671,335.5C673.632,328.635 675.799,321.635 677.5,314.5C665.39,278.944 648.557,245.944 627,215.5C607.778,193.936 584.945,177.436 558.5,166C547.878,161.624 536.878,158.791 525.5,157.5C508.658,155.992 492.324,158.158 476.5,164C439.171,177.993 410.338,202.159 390,236.5C376.395,261.045 364.395,286.379 354,312.5C353.824,319.437 355.157,326.104 358,332.5C368.946,356.437 383.446,377.937 401.5,397C409.229,401.781 417.396,405.615 426,408.5C427.273,416.731 427.94,425.064 428,433.5C429.906,442.909 433.906,451.243 440,458.5C446.444,465.785 453.611,472.119 461.5,477.5C494.344,497.551 528.011,498.717 562.5,481C571.904,475.096 580.57,468.262 588.5,460.5C600.007,445.162 605.674,427.829 605.5,408.5C613.422,404.577 621.422,400.744 629.5,397C639.599,386.587 648.599,375.42 656.5,363.5ZM433.5,317.5C451.881,317.922 457.381,326.589 450,343.5C443.22,349.824 435.72,350.991 427.5,347C418,334.615 420,324.782 433.5,317.5ZM600.5,348.5C586.165,351.17 579.165,345.17 579.5,330.5C583.493,317.679 591.493,314.513 603.5,321C612.02,331.192 611.02,340.359 600.5,348.5ZM570.5,367.5C574.758,376.773 577.924,386.44 580,396.5C582.937,416.559 576.437,432.559 560.5,444.5C534.273,455.09 507.607,456.257 480.5,448C459.988,438.442 450.822,422.276 453,399.5C456.217,375.232 466.717,354.732 484.5,338C496.249,328.729 509.583,325.396 524.5,328C532.003,329.295 539.003,331.961 545.5,336C556.301,344.624 564.634,355.124 570.5,367.5ZM508.5,348.5C504.434,350.369 500.434,352.536 496.5,355C483.532,367.77 476.032,383.27 474,401.5C472.023,418.88 479.857,428.713 497.5,431C514.744,432.526 531.744,431.193 548.5,427C553.05,424.117 556.55,420.284 559,415.5C560.606,391.073 552.439,370.573 534.5,354C526.45,349.321 517.783,347.488 508.5,348.5ZM533.5,390.5C541.326,389.329 545.66,392.662 546.5,400.5C545.211,410.305 539.878,413.805 530.5,411C524.433,403.026 525.433,396.192 533.5,390.5ZM492.5,390.5C503.649,389.491 508.482,394.491 507,405.5C503.723,411.109 498.89,412.942 492.5,411C485.87,404.168 485.87,397.335 492.5,390.5ZM637.5,315.5C635.693,314.164 634.193,312.497 633,310.5C630.419,305.111 628.753,299.444 628,293.5C622.755,281.955 613.921,274.788 601.5,272C583.402,269.46 566.069,272.127 549.5,280C535.333,286.167 525.167,296.333 519,310.5C516.075,313.059 513.075,313.059 510,310.5C506.961,306.055 504.294,301.388 502,296.5C482.744,281.013 460.744,272.346 436,270.5C422.097,271.619 411.764,278.286 405,290.5C402.512,297.452 400.179,304.452 398,311.5C396.269,313.617 394.102,315.117 391.5,316C382.961,317.468 378.627,313.802 378.5,305C382.214,285.384 391.88,269.551 407.5,257.5C413.77,253.131 420.77,250.631 428.5,250C460.079,249.722 488.246,259.222 513,278.5C530.81,264.349 550.976,255.182 573.5,251C614.416,244.615 640.916,261.115 653,300.5C655.831,313.836 650.665,318.836 637.5,315.5ZM545.492,829.501C525.025,833.102 504.36,833.436 483.5,830.5C442.873,822.783 410.706,802.116 387,768.5C372.329,742.491 357.663,716.491 343,690.5C338.414,681.076 334.414,671.409 331,661.5C326.856,647.91 326.522,634.243 330,620.5C340.879,598.144 358.379,589.977 382.5,596C395.844,602.343 406.344,611.843 414,624.5C429.375,657.586 446.042,689.919 464,721.5C489.943,750.291 519.11,754.125 551.5,733C560.543,723.959 568.043,713.792 574,702.5C588.966,673.52 603.966,644.52 619,615.5C628.156,603.172 640.323,595.838 655.5,593.5C662.01,593.07 668.344,593.903 674.5,596C698.778,608.732 707.778,628.566 701.5,655.5C688.105,686.961 672.105,716.961 653.5,745.5C645.139,762.839 634.472,778.506 621.5,792.5C599.938,812.28 574.604,824.613 545.5,829.5C545.497,829.5 545.495,829.501 545.492,829.501ZM628.5,749.5C645.082,721.343 660.916,692.676 676,663.5C679.682,655.924 681.515,647.924 681.5,639.5C682.196,630.057 678.529,622.89 670.5,618C654.882,611.639 642.882,615.805 634.5,630.5C619.312,658.208 604.645,686.208 590.5,714.5C580.462,734.04 565.795,749.207 546.5,760C505.971,775.165 472.471,765.665 446,731.5C438.227,719.622 431.227,707.289 425,694.5C416.989,677.146 408.989,659.813 401,642.5C398.746,638.993 396.746,635.327 395,631.5C389.372,623.437 381.872,617.937 372.5,615C362.176,613.973 354.676,618.14 350,627.5C348.485,634.767 348.152,642.101 349,649.5C351.953,661.358 356.286,672.692 362,683.5C375.427,708.027 389.094,732.36 403,756.5C414.741,773.911 429.907,787.411 448.5,797C500.664,819.677 550.664,815.844 598.5,785.5C610.324,775.01 620.324,763.01 628.5,749.5ZM577.5,859.5C586.722,856.593 595.889,853.593 605,850.5C608.129,850.329 610.963,851.162 613.5,853C616.349,858.046 616.015,862.879 612.5,867.5C595.656,875.917 577.99,882.084 559.5,886C535.707,891.713 511.707,892.88 487.5,889.5C467.253,886.017 447.587,880.183 428.5,872C425,869.833 422.167,867 420,863.5C418.841,852.791 423.674,848.624 434.5,851C441.93,854.92 449.597,858.253 457.5,861C497.645,872.696 537.645,872.196 577.5,859.5Z"/>
    </g>
</svg>
