<?xml version="1.0" encoding="UTF-8" standalone="no"?>
<!DOCTYPE svg PUBLIC "-//W3C//DTD SVG 1.1//EN" "http://www.w3.org/Graphics/SVG/1.1/DTD/svg11.dtd">
<svg width="100%" height="100%" viewBox="0 0 1024 1024" version="1.1" xmlns="http://www.w3.org/2000/svg" xmlns:xlink="http://www.w3.org/1999/xlink" xml:space="preserve" xmlns:serif="http://www.serif.com/" style="fill-rule:evenodd;clip-rule:evenodd;stroke-linejoin:round;stroke-miterlimit:2;">
    <g transform="matrix(1.6048,0,0,1.6048,-350.037,-329.747)">
        <path d="M362.5,609.5C361.504,593.675 361.17,577.675 361.5,561.5C330.823,561.754 303.156,552.921 278.5,535C264.167,524 249.833,513 235.5,502C230.278,495.964 229.111,489.131 232,481.5C240.939,463.956 249.605,446.29 258,428.5C265.845,413.468 275.178,399.468 286,386.5C305.128,365.369 328.628,351.869 356.5,346C361.155,345.501 365.821,345.334 370.5,345.5C372.324,317.561 387.157,301.561 415,297.5C428.215,299.59 432.381,306.923 427.5,319.5C422.336,325.58 415.669,328.747 407.5,329C401.66,332.675 398.66,338.008 398.5,345C399.048,349.648 400.215,354.148 402,358.5C403.995,373.504 397.495,380.337 382.5,379C379.638,378.07 377.305,376.403 375.5,374C346.703,374.566 323.369,386.066 305.5,408.5C298.42,416.43 292.253,425.097 287,434.5C278.983,449.529 271.816,464.862 265.5,480.5C263.891,481.898 263.058,483.565 263,485.5C279.835,502.332 299.001,515.832 320.5,526C333.927,529.699 347.594,531.366 361.5,531C369.83,524.012 378.163,523.845 386.5,530.5C388.06,532.954 389.06,535.62 389.5,538.5C389.667,565.835 389.5,593.169 389,620.5C388.722,621.416 388.222,622.082 387.5,622.5C385.107,626.402 382.107,629.902 378.5,633C366.37,642.63 354.703,652.796 343.5,663.5C336.993,669.166 330.826,675.166 325,681.5C323.556,684.055 322.389,686.721 321.5,689.5C321.543,690.416 321.876,691.083 322.5,691.5C322.604,693.703 323.27,695.703 324.5,697.5C330.622,703.617 337.622,705.117 345.5,702C373.952,674.21 403.619,647.877 434.5,623C441.869,616.632 448.536,609.632 454.5,602C461.568,599.081 467.735,600.247 473,605.5C475.665,613.832 474.332,621.499 469,628.5C449.159,647.34 428.993,665.84 408.5,684C415.132,684.636 419.298,688.136 421,694.5C420.615,716.204 428.115,734.537 443.5,749.5C444.043,749.44 444.376,749.107 444.5,748.5C429.274,716.996 431.774,686.996 452,658.5C474.994,632.278 503.161,624.111 536.5,634L540,637.5C544.997,650.491 540.497,657.824 526.5,659.5C515.779,656.67 505.113,656.837 494.5,660C474.416,670.279 463.749,686.779 462.5,709.5C464.373,731.912 473.706,750.578 490.5,765.5C494.965,768.904 499.631,772.071 504.5,775C506.378,776.543 507.878,778.376 509,780.5C510.894,790.544 506.727,795.711 496.5,796C461.833,796.333 427.167,796.667 392.5,797C390.291,798.873 388.458,801.04 387,803.5C385.075,809.431 386.908,813.598 392.5,816C448.166,816.5 503.832,816.667 559.5,816.5C570.352,817.604 580.018,814.771 588.5,808C601.414,795.266 611.747,780.766 619.5,764.5C631.656,739.572 636.489,713.239 634,685.5C630.897,662.42 625.897,639.753 619,617.5C610.313,589.662 594.146,567.329 570.5,550.5C533.646,525.551 495.312,523.051 455.5,543C444.336,544.514 438.67,539.514 438.5,528C437.9,523.869 439.234,520.536 442.5,518C449.094,516.143 454.927,512.977 460,508.5C479.118,480.224 479.285,451.89 460.5,423.5C456.845,418.179 452.512,413.513 447.5,409.5C445.871,408.375 444.371,407.041 443,405.5C442.739,418.38 436.239,423.88 423.5,422C419.806,419.313 417.306,415.813 416,411.5C414.894,389.801 418.228,368.801 426,348.5C428.178,344.145 430.344,339.811 432.5,335.5C440.318,326.853 449.651,320.353 460.5,316C471.173,312.085 481.506,312.751 491.5,318C498.766,326.738 497.766,334.405 488.5,341C481.875,342.045 475.208,342.711 468.5,343C461.231,344.606 456.065,348.773 453,355.5C450.7,361.661 449.7,367.995 450,374.5C459.682,382.52 469.016,390.853 478,399.5C485.453,409.404 491.62,420.071 496.5,431.5C501.465,445.25 503.132,459.25 501.5,473.5C501.176,482.939 499.509,492.106 496.5,501C510.299,501.6 523.966,503.267 537.5,506C540.476,506.705 543.142,507.871 545.5,509.5C546.376,509.631 547.043,509.298 547.5,508.5C509.92,469.61 493.42,422.943 498,368.5C507.029,302.215 540.862,253.381 599.5,222C664.021,194.383 724.354,201.383 780.5,243C800.854,260.177 816.854,280.677 828.5,304.5C834.506,316.851 838.506,329.851 840.5,343.5C847.543,379.449 843.543,414.115 828.5,447.5C823.317,459.188 816.317,469.688 807.5,479C804.924,480.456 802.258,481.623 799.5,482.5C790.611,480.414 786.278,474.747 786.5,465.5C786.667,463.5 786.833,461.5 787,459.5C800.104,444.62 808.438,427.287 812,407.5C823.139,343.524 802.639,292.69 750.5,255C747.929,253.546 745.262,252.38 742.5,251.5C729.269,243.697 714.935,238.53 699.5,236C634.769,227.289 584.602,250.122 549,304.5C526.92,341.578 520.587,381.245 530,423.5C534.043,440.488 540.876,456.155 550.5,470.5C551.728,471.306 552.728,472.306 553.5,473.5C561.758,483.935 570.258,494.268 579,504.5C583.618,507.45 587.952,510.784 592,514.5C594.571,520.306 595.238,526.306 594,532.5C608.805,545.831 621.472,560.831 632,577.5C634.452,582.068 636.618,586.735 638.5,591.5C642.443,599.075 645.61,607.075 648,615.5C651.607,628.818 655.107,642.151 658.5,655.5C669.602,701.207 663.269,744.207 639.5,784.5C635.401,793.195 630.401,801.362 624.5,809C636.126,807.068 647.126,803.235 657.5,797.5C658.167,797.167 658.833,796.833 659.5,796.5C700.248,767.067 725.414,727.4 735,677.5C735.952,670.864 736.452,664.197 736.5,657.5C727.445,658.235 721.945,654.235 720,645.5C719.333,642.167 719.333,638.833 720,635.5C732.97,605.33 733.97,574.663 723,543.5C714.09,521.923 700.59,503.756 682.5,489C665.75,476.252 650.25,462.085 636,446.5C618.757,421.812 613.757,394.812 621,365.5C632.994,332.842 656.327,315.509 691,313.5C706.244,314.432 720.078,319.265 732.5,328C736.141,331.126 739.141,334.626 741.5,338.5C743.029,352.136 737.029,358.303 723.5,357C718.277,354.443 713.61,351.109 709.5,347C687.171,336.29 669.005,341.124 655,361.5C644.275,378.528 642.775,396.195 650.5,414.5C653.799,423.089 658.632,430.756 665,437.5C682.806,453.656 700.806,469.323 719,484.5C756.388,527.059 768.221,576.059 754.5,631.5C754.833,633.167 755.167,634.833 755.5,636.5C764.139,640.774 767.806,647.774 766.5,657.5C766.249,662.18 765.916,666.846 765.5,671.5C756.186,728.98 729.186,776.147 684.5,813C675.77,819.028 666.77,824.528 657.5,829.5C656.508,829.328 655.842,829.662 655.5,830.5C648.628,832.901 641.628,834.901 634.5,836.5C627.404,838.656 620.07,840.323 612.5,841.5C608.165,841.917 603.832,842.417 599.5,843C529.501,843.5 459.501,843.667 389.5,843.5C380.824,842.331 373.824,838.331 368.5,831.5L367.5,831.5C352.199,810.162 354.866,791.329 375.5,775C379.281,772.775 383.281,771.109 387.5,770C398.182,769.832 408.849,769.332 419.5,768.5C402.825,747.157 393.825,722.823 392.5,695.5C383.282,705.429 373.949,715.262 364.5,725C349.029,734.529 333.363,734.863 317.5,726C313.607,722.61 310.273,718.777 307.5,714.5C305.955,713.548 304.288,713.215 302.5,713.5C294.339,712.173 289.172,707.507 287,699.5C286.501,695.514 286.334,691.514 286.5,687.5C286.955,684.797 287.622,682.13 288.5,679.5C283.733,668.5 284.9,658.167 292,648.5C304.502,636.331 316.669,623.831 328.5,611C336.452,605.156 344.452,605.156 352.5,611C353.772,612.307 354.772,613.807 355.5,615.5C356.524,614.147 357.857,613.48 359.5,613.5C360.209,612.596 361.209,612.263 362.5,612.5L362.5,609.5ZM351.5,409.5C372.894,408.939 386.394,418.939 392,439.5C393.053,469.446 378.553,483.613 348.5,482C333.13,477.963 323.964,468.13 321,452.5C318.911,429.429 329.077,415.096 351.5,409.5ZM355.5,434.5C346.75,437.906 344.583,443.906 349,452.5C354.958,457.98 360.624,457.647 366,451.5C370.033,440.87 366.533,435.203 355.5,434.5Z"/>
    </g>
</svg>
