<?xml version="1.0" encoding="UTF-8" standalone="no"?>
<!DOCTYPE svg PUBLIC "-//W3C//DTD SVG 1.1//EN" "http://www.w3.org/Graphics/SVG/1.1/DTD/svg11.dtd">
<svg width="100%" height="100%" viewBox="0 0 1024 1024" version="1.1" xmlns="http://www.w3.org/2000/svg" xmlns:xlink="http://www.w3.org/1999/xlink" xml:space="preserve" xmlns:serif="http://www.serif.com/" style="fill-rule:evenodd;clip-rule:evenodd;stroke-linejoin:round;stroke-miterlimit:2;">
    <g transform="matrix(1.41597,0,0,1.41597,-239.803,-222.74)">
        <path d="M212.5,675.5C210.292,674.106 208.792,672.106 208,669.5C206.909,663.903 207.576,658.57 210,653.5C218.734,644.263 227.9,635.596 237.5,627.5C253.841,611.827 270.507,596.493 287.5,581.5C295.218,574.285 302.885,566.785 310.5,559C313.155,557.559 315.988,556.726 319,556.5C352.575,563.383 386.408,568.383 420.5,571.5C421.532,564.878 422.199,558.212 422.5,551.5C403.315,544.729 384.315,537.729 365.5,530.5C364.391,530.443 363.391,530.11 362.5,529.5C337.029,520.283 312.029,509.783 287.5,498C283.362,495.685 279.695,492.852 276.5,489.5C273.467,487.984 270.8,485.984 268.5,483.5C248.804,463.238 240.97,438.905 245,410.5C246.201,404.232 248.201,398.232 251,392.5C269.79,364.214 287.957,335.547 305.5,306.5C304.807,305.482 304.141,304.482 303.5,303.5C295.454,283.479 294.454,263.145 300.5,242.5C307.01,223.325 319.01,208.658 336.5,198.5C337.29,197.599 338.29,196.932 339.5,196.5C356.19,183.85 374.19,173.183 393.5,164.5C399.909,161.898 406.576,160.231 413.5,159.5C427.327,158.339 441.327,158.173 455.5,159C462.995,158.33 469.328,160.497 474.5,165.5C475.981,170.323 475.481,174.99 473,179.5C453.981,224.73 434.481,269.73 414.5,314.5C411.917,319.726 409.417,325.06 407,330.5C405.482,331.163 404.315,332.163 403.5,333.5C399.8,334.758 396.134,334.758 392.5,333.5C385.61,329.531 383.777,323.865 387,316.5C405.719,273.063 423.885,229.396 441.5,185.5C440.975,184.808 440.308,184.308 439.5,184C432.5,183.333 425.5,183.333 418.5,184C412.812,185.848 407.146,187.681 401.5,189.5C379.758,200.024 359.758,213.024 341.5,228.5C323.976,242.581 318.143,260.581 324,282.5C326.165,288.825 329.998,293.825 335.5,297.5L335.5,298.5C337.5,299.833 339.167,301.5 340.5,303.5C354.521,313.604 368.687,323.604 383,333.5C384.84,335.681 386.007,338.181 386.5,341C385.557,344.379 384.224,347.546 382.5,350.5C368.356,370.767 354.189,391.1 340,411.5C336.374,417.836 335.207,424.502 336.5,431.5L337.5,431.5C345.06,435.083 352.727,438.583 360.5,442C380.033,449.278 399.366,456.778 418.5,464.5C428.626,467.948 438.959,470.615 449.5,472.5C449.833,472.333 450.167,472.167 450.5,472C449.29,470.961 448.29,469.794 447.5,468.5C445.122,466.122 443.122,463.455 441.5,460.5C440.542,460.047 439.708,459.381 439,458.5C425.911,429.438 433.077,406.938 460.5,391C483.601,383.148 502.768,388.648 518,407.5C528.281,425.352 527.947,443.018 517,460.5C511.04,467.304 503.873,472.304 495.5,475.5C492.548,476.654 489.548,477.654 486.5,478.5L479.5,478.5C474.968,487.894 470.135,497.228 465,506.5C456.692,524.399 450.859,543.065 447.5,562.5C446.059,569.482 444.725,576.482 443.5,583.5C441.023,617.869 443.523,651.869 451,685.5C460.049,719.962 482.216,740.129 517.5,746C526.186,746.632 534.852,746.466 543.5,745.5C543.842,744.662 544.508,744.328 545.5,744.5C560.727,740.053 574.727,733.219 587.5,724C593.118,717.938 597.618,711.104 601,703.5C617.165,653.861 621.331,603.194 613.5,551.5C609.835,537.521 605.835,523.521 601.5,509.5C596.592,500.016 591.925,490.349 587.5,480.5C577.198,479.34 567.532,476.173 558.5,471C556.271,468.6 553.937,466.433 551.5,464.5C541.325,453.302 537.991,440.302 541.5,425.5C545.719,406.778 557.053,394.612 575.5,389C581.445,387.838 587.445,387.338 593.5,387.5C607.165,390.667 617.998,398.001 626,409.5C636.765,431.329 633.932,451.163 617.5,469C651.716,458.815 685.383,446.815 718.5,433C719.685,431.647 721.019,430.48 722.5,429.5C724.046,424.204 723.38,419.204 720.5,414.5C714.579,404.327 708.913,393.994 703.5,383.5C695.762,370.563 688.595,357.23 682,343.5C681.333,340.167 681.333,336.833 682,333.5L688.5,327C703.363,317.402 717.697,307.068 731.5,296C735.732,291.675 739.065,286.842 741.5,281.5C745.813,264.561 742.646,249.228 732,235.5C711.814,218.155 689.647,203.822 665.5,192.5C651.254,185.626 636.254,182.959 620.5,184.5C639.425,229.437 658.258,274.437 677,319.5C678.464,329.376 674.131,334.376 664,334.5C655.105,333.439 649.938,328.439 648.5,319.5C643.937,308.689 639.604,297.689 635.5,286.5C624.723,262.596 614.723,238.263 605.5,213.5C604.662,213.158 604.328,212.492 604.5,211.5C599.595,199.974 594.761,188.307 590,176.5C587.474,164.019 592.641,157.852 605.5,158C624.905,156.155 643.905,157.988 662.5,163.5C687.853,174.34 711.853,187.507 734.5,203C735.71,204.039 736.71,205.206 737.5,206.5C744.767,210.765 750.767,216.432 755.5,223.5C765.035,236.455 769.368,251.121 768.5,267.5C768.905,282.328 765.571,296.161 758.5,309C771.93,328.767 785.764,348.267 800,367.5C806.943,379.996 811.276,393.329 813,407.5C812.957,432.339 806.957,455.672 795,477.5C792.045,482.621 788.211,486.955 783.5,490.5C777.764,496.215 771.097,500.715 763.5,504C733.514,514.939 703.514,525.773 673.5,536.5C673.5,537.167 673.167,537.5 672.5,537.5C660.949,541.941 649.616,546.941 638.5,552.5C640.04,558.743 641.04,565.076 641.5,571.5C645.514,571.666 649.514,571.499 653.5,571C680.819,566.391 708.152,561.891 735.5,557.5L738.5,557.5C742.889,556.088 747.222,556.588 751.5,559L783.5,591C804.526,610.028 825.526,629.028 846.5,648C849.35,650.855 851.85,654.022 854,657.5C854.849,662.026 854.349,666.36 852.5,670.5C848.673,676.15 843.34,677.984 836.5,676C826.298,665.631 815.965,655.465 805.5,645.5C798.187,638.521 790.854,631.521 783.5,624.5C782.209,626.959 780.209,628.459 777.5,629C767.957,631.542 758.29,633.375 748.5,634.5C712.436,641.656 676.103,647.989 639.5,653.5C638.082,663.02 636.082,672.52 633.5,682C665.537,677.231 697.537,671.898 729.5,666C744.416,662.456 752.749,668.29 754.5,683.5C751.353,718.74 743.187,752.74 730,785.5C721.54,793.118 714.707,791.952 709.5,782C708.464,778.879 708.297,775.713 709,772.5C715.125,754.31 720.292,735.977 724.5,717.5C725.276,709.731 726.61,702.065 728.5,694.5C727.833,694.167 727.167,693.833 726.5,693.5C702.813,697.392 679.146,701.392 655.5,705.5C645.424,708.258 635.09,710.424 624.5,712C618.037,727.937 608.37,741.437 595.5,752.5C596.5,752.833 597.167,753.5 597.5,754.5C620.564,783.707 621.397,813.707 600,844.5C583.538,863.818 562.705,875.485 537.5,879.5L535.5,879.5C522.556,881.709 509.889,880.209 497.5,875C483.65,870.253 471.65,862.753 461.5,852.5C455.1,846.713 450.433,839.713 447.5,831.5C433.749,801.917 438.083,775.25 460.5,751.5C450.567,742.397 442.734,731.73 437,719.5C436.023,717.26 435.523,714.927 435.5,712.5C432.43,712.632 429.43,712.299 426.5,711.5C396.551,706.229 366.884,700.229 337.5,693.5C335.379,693.675 333.379,693.341 331.5,692.5C334.77,718.925 340.936,744.925 350,770.5C352.364,785.47 346.197,791.637 331.5,789L328,785.5C320.252,766.085 314.418,746.085 310.5,725.5L310.5,720.5C308.372,708.539 306.705,696.372 305.5,684C305.495,669.015 312.829,663.349 327.5,667C360.596,672.592 393.596,678.258 426.5,684C423.661,677.475 421.994,670.642 421.5,663.5C420.566,660.344 419.899,657.011 419.5,653.5C416.15,653.665 412.817,653.498 409.5,653C389.898,648.912 370.231,645.412 350.5,642.5C334.646,640.157 318.98,637.49 303.5,634.5C293.811,633.411 284.478,631.078 275.5,627.5C258.077,642.42 241.41,658.253 225.5,675C221.205,676.764 216.871,676.931 212.5,675.5ZM306.5,598.5C304.194,601.054 301.861,603.721 299.5,606.5C300.5,606.833 301.5,607.167 302.5,607.5C340.516,614.503 378.516,621.503 416.5,628.5C417.499,618.522 417.832,608.522 417.5,598.5L413.5,598.5C398.703,596.155 384.036,593.821 369.5,591.5C367.585,591.784 365.919,591.451 364.5,590.5C352.071,589.381 339.737,587.548 327.5,585C324.5,584.333 321.5,584.333 318.5,585C313.892,589.099 309.892,593.599 306.5,598.5ZM274.5,447.5C276.746,452.727 279.746,457.394 283.5,461.5C285.962,464.464 288.629,467.297 291.5,470C299.212,474.856 307.212,479.19 315.5,483C352.958,498.56 390.958,512.727 429.5,525.5C430.647,525.182 431.481,524.516 432,523.5C434.348,515.618 437.182,507.952 440.5,500.5C409.061,488.154 377.727,475.821 346.5,463.5L345.5,463.5C334.613,459.39 324.613,453.723 315.5,446.5C309.666,436.888 307.999,426.555 310.5,415.5C317.064,400.696 325.397,387.029 335.5,374.5C341.11,364.787 347.11,355.287 353.5,346C347.57,339.905 340.903,334.739 333.5,330.5C331.063,328.567 328.729,326.4 326.5,324C325.551,323.383 324.718,323.549 324,324.5C309.166,348.839 293.832,372.839 278,396.5C269.084,410.689 267.251,425.689 272.5,441.5C273.167,443.5 273.833,445.5 274.5,447.5ZM569.5,425.5C567.544,439.568 573.544,448.235 587.5,451.5C601.358,449.476 607.191,441.476 605,427.5C601.678,418.338 595.178,413.671 585.5,413.5C582.673,413.584 580.006,414.25 577.5,415.5C575.194,417.139 573.194,419.139 571.5,421.5C570.4,422.605 569.733,423.938 569.5,425.5ZM553.5,768.5C548.231,771.024 542.564,772.357 536.5,772.5C519.405,774.453 502.905,771.787 487,764.5C485.385,765.386 483.885,766.386 482.5,767.5C463.073,785.375 460.24,805.709 474,828.5C481.209,836.227 489.376,842.56 498.5,847.5L499.5,847.5C504.91,850.025 510.577,851.859 516.5,853C541.405,855.812 562.239,847.978 579,829.5C592.955,807.671 591.455,787.005 574.5,767.5C572.871,766.375 571.371,765.041 570,763.5C564.859,766.269 559.359,767.935 553.5,768.5ZM487.5,415.5C483.057,413.534 478.39,413.034 473.5,414C468.469,416.196 464.135,419.363 460.5,423.5C458.606,430.841 459.44,437.841 463,444.5C472.746,454.745 482.746,455.078 493,445.5C499.136,436.608 498.969,427.941 492.5,419.5C490.833,418.167 489.167,416.833 487.5,415.5ZM631.5,519.5C632.341,521.379 632.675,523.379 632.5,525.5C636.485,524.512 640.485,523.512 644.5,522.5C653.409,518.382 662.409,514.215 671.5,510C698.245,499.863 724.912,489.529 751.5,479C760.031,475.752 767.031,470.585 772.5,463.5C789.25,436.325 790.75,408.325 777,379.5C768.736,367.295 760.236,355.295 751.5,343.5C746.509,336.863 741.509,330.196 736.5,323.5C727.977,330.254 719.311,336.754 710.5,343C723.637,366.104 736.137,389.604 748,413.5C750.863,429.247 746.363,442.414 734.5,453C714.339,463.554 693.339,472.054 671.5,478.5C656.225,484.464 640.892,490.464 625.5,496.5C625.167,497 624.833,497.5 624.5,498C626.806,504.417 628.806,510.917 630.5,517.5C631.338,517.842 631.672,518.508 631.5,519.5ZM685.5,592.5C671.246,594.822 656.912,596.489 642.5,597.5L642.5,615.5C641.517,619.298 641.183,623.298 641.5,627.5C642.791,627.737 643.791,627.404 644.5,626.5C665.167,623.167 685.834,619.833 706.5,616.5C722.679,613.263 739.012,610.263 755.5,607.5C756.978,607.762 758.311,607.429 759.5,606.5C754.087,599.342 748.921,592.009 744,584.5C742.644,583.62 741.144,583.286 739.5,583.5C735.5,583.833 731.5,584.167 727.5,584.5C713.692,587.582 699.692,590.248 685.5,592.5Z"/>
    </g>
</svg>
