<?xml version="1.0" encoding="UTF-8" standalone="no"?>
<!DOCTYPE svg PUBLIC "-//W3C//DTD SVG 1.1//EN" "http://www.w3.org/Graphics/SVG/1.1/DTD/svg11.dtd">
<svg width="100%" height="100%" viewBox="0 0 1024 1024" version="1.1" xmlns="http://www.w3.org/2000/svg" xmlns:xlink="http://www.w3.org/1999/xlink" xml:space="preserve" xmlns:serif="http://www.serif.com/" style="fill-rule:evenodd;clip-rule:evenodd;stroke-linejoin:round;stroke-miterlimit:2;">
    <g transform="matrix(1.69043,0,0,1.69043,-346.794,-303.174)">
        <path d="M427.5,719.5C422.446,712.371 419.28,704.371 418,695.5C417.099,674.803 417.433,654.136 419,633.5C420.361,624.498 422.527,615.831 425.5,607.5C426.566,599.903 428.566,592.57 431.5,585.5C433.562,580.375 435.896,575.375 438.5,570.5C445.317,560.095 453.65,550.928 463.5,543C470.061,539.008 476.728,538.675 483.5,542C488.753,547.265 489.919,553.432 487,560.5C484.451,564.196 480.951,566.529 476.5,567.5C475.83,569.291 475.163,570.958 474.5,572.5C474.333,597.169 474.5,621.836 475,646.5C487.356,658.556 495.523,672.889 499.5,689.5C501.002,704.806 497.502,718.806 489,731.5C481.438,739.078 472.271,742.411 461.5,741.5C446.832,739.175 435.499,731.842 427.5,719.5ZM446.5,652.5C446.092,661.66 445.758,670.827 445.5,680C445.421,686.563 445.921,693.063 447,699.5C450.507,709.723 457.507,715.056 468,715.5C473.483,701.261 472.483,687.595 465,674.5C458.969,666.976 452.802,659.643 446.5,652.5ZM223.5,547.5C220.384,541.301 218.551,534.634 218,527.5C217.333,497.5 217.333,467.5 218,437.5C219.703,421.737 227.203,409.737 240.5,401.5C244.403,400.191 248.403,399.191 252.5,398.5C258.004,398.358 262.504,400.358 266,404.5C270.708,416.755 266.541,423.422 253.5,424.5C250.318,427.18 248.152,430.513 247,434.5C246.832,463.67 246.332,492.67 245.5,521.5L245.5,523.5C253.611,523.935 261.611,523.435 269.5,522C276.216,514.036 282.549,505.869 288.5,497.5C288.738,495.596 289.738,494.262 291.5,493.5C298.726,481.279 306.726,469.612 315.5,458.5C331.313,434.891 347.146,411.224 363,387.5C364.333,384.833 365.667,382.167 367,379.5C368.612,365.047 370.945,350.713 374,336.5C376.3,325.446 379.467,314.78 383.5,304.5C387.581,291.674 393.248,279.674 400.5,268.5C402.102,264.905 404.102,261.571 406.5,258.5C410.602,252.615 414.936,246.948 419.5,241.5C425.221,235.113 431.221,229.113 437.5,223.5C443.705,217.055 450.705,211.555 458.5,207C464.964,202.435 471.964,198.935 479.5,196.5C483.534,194.263 487.868,192.596 492.5,191.5C527.92,178.957 564.253,176.124 601.5,183C656.504,193.671 704.838,217.338 746.5,254C777.986,284.477 795.32,321.644 798.5,365.5C798.916,382.34 797.416,399.006 794,415.5C793.095,419.837 791.595,423.837 789.5,427.5C788.103,433.692 786.103,439.692 783.5,445.5C770.032,474.636 749.032,496.636 720.5,511.5C706.874,519.152 692.207,523.819 676.5,525.5C654.17,527.749 633.503,523.082 614.5,511.5C610.267,509.549 605.934,507.883 601.5,506.5C577.758,499.246 558.258,505.58 543,525.5C536.718,536.191 532.552,547.524 530.5,559.5C530.187,594.531 530.52,629.531 531.5,664.5C534.029,670.871 538.029,676.205 543.5,680.5C545.927,682.558 548.593,684.391 551.5,686C557.454,687.548 563.454,688.881 569.5,690C571.286,690.785 572.786,691.951 574,693.5C577.99,700.588 577.156,706.922 571.5,712.5C556.775,715.703 543.442,712.703 531.5,703.5C524.233,699.235 518.233,693.568 513.5,686.5C507.839,677.348 504.672,667.348 504,656.5C503.084,620.814 503.418,585.147 505,549.5C507.626,536.257 512.459,523.924 519.5,512.5C524.101,506.23 529.434,500.563 535.5,495.5C538.952,492.601 542.618,489.934 546.5,487.5C556.43,482.414 566.763,478.748 577.5,476.5C576.545,474.254 575.878,471.921 575.5,469.5C573.204,465.131 571.371,460.464 570,455.5C568.183,444.481 568.183,433.481 570,422.5C570.7,418.934 572.533,416.1 575.5,414C584.603,409.153 591.436,411.32 596,420.5C592.58,441.825 597.413,460.825 610.5,477.5C614.833,480.833 619.167,484.167 623.5,487.5C633.551,493.404 644.218,497.738 655.5,500.5C686.265,501.105 712.932,491.105 735.5,470.5C751.784,453.269 762.284,432.936 767,409.5C771.643,370.543 757.143,341.21 723.5,321.5C717.088,317.295 710.421,313.629 703.5,310.5C667.133,296.55 629.466,290.383 590.5,292C574.356,293.453 558.69,296.953 543.5,302.5C537.453,307.133 530.619,310.133 523,311.5C519.362,311.597 516.195,310.43 513.5,308C512.418,306.67 511.751,305.17 511.5,303.5C509.917,298.416 510.417,293.416 513,288.5C516.863,285.435 521.03,283.102 525.5,281.5C540.058,275.609 555.058,271.109 570.5,268C611.646,262.65 651.979,266.316 691.5,279C707.626,284.065 722.626,291.232 736.5,300.5C746.34,305.837 754.84,312.837 762,321.5C760.242,315.094 757.409,309.094 753.5,303.5C738.597,280.432 719.264,261.932 695.5,248C691.932,246.382 688.265,245.049 684.5,244C655.475,237.931 626.142,235.097 596.5,235.5C578.341,235.81 560.675,238.81 543.5,244.5C531.176,248.497 519.509,253.831 508.5,260.5C475.509,282.008 453.842,311.841 443.5,350C445.38,355.881 449.38,359.881 455.5,362C463.95,365.317 472.283,364.984 480.5,361C487.79,358.353 494.79,355.186 501.5,351.5C520.487,339.343 540.82,329.843 562.5,323C566.816,322.004 571.149,321.17 575.5,320.5C586.197,319.188 596.863,319.188 607.5,320.5C651.22,325.785 690.72,341.452 726,367.5C731.386,380.028 727.386,387.361 714,389.5C707.502,387.688 702.002,384.188 697.5,379C691.103,375.141 684.77,371.308 678.5,367.5C654.935,355.593 629.935,348.426 603.5,346C585.885,344.658 568.885,347.325 552.5,354C534.145,363.178 515.811,372.344 497.5,381.5C475.726,392.497 454.059,392.163 432.5,380.5C431.833,380.167 431.167,379.833 430.5,379.5C418.93,370.3 414.764,358.3 418,343.5C420.739,329.1 425.905,315.766 433.5,303.5C446.216,280.112 463.55,260.779 485.5,245.5C514.113,225.178 546.113,213.512 581.5,210.5L603.5,210.5C605.379,210.607 605.712,210.107 604.5,209C603.207,208.51 601.873,208.343 600.5,208.5C578.87,206.675 557.203,206.175 535.5,207C526.719,207.963 518.052,209.463 509.5,211.5C499.362,214.893 489.362,218.893 479.5,223.5C465.682,232.751 453.015,243.417 441.5,255.5C418.689,283.474 404.189,315.474 398,351.5C396.367,366.252 393.033,380.585 388,394.5C378.656,410.532 368.823,426.198 358.5,441.5C357.386,442.885 356.386,444.385 355.5,446C366.875,447.197 376.875,451.363 385.5,458.5C392.107,463.054 394.94,469.387 394,477.5C391.627,484.115 387.127,486.448 380.5,484.5C375.473,482.317 370.807,479.483 366.5,476C362.947,473.879 359.28,472.379 355.5,471.5C349.238,470.872 343.238,471.705 337.5,474C333.964,477.201 330.797,480.701 328,484.5C317.39,500.775 306.39,516.775 295,532.5C290.52,537.827 285.353,542.16 279.5,545.5C278.167,545.833 276.833,546.167 275.5,546.5C270.116,548.349 264.449,549.516 258.5,550C260.221,551.527 262.221,552.527 264.5,553C271.547,554.243 278.547,555.577 285.5,557C290.152,561.536 291.652,567.036 290,573.5C285.647,579.627 279.647,582.293 272,581.5C248.999,579.608 232.832,568.274 223.5,547.5ZM264.5,741.5C261.603,732.876 264.603,727.376 273.5,725C290.012,728.003 301.179,721.836 307,706.5C307.5,658.501 307.667,610.501 307.5,562.5C307.776,555.505 309.943,549.172 314,543.5C322.021,534.806 331.187,527.64 341.5,522C347.193,520.051 352.86,520.051 358.5,522C360.141,523.129 361.141,524.629 361.5,526.5C362.345,527.671 363.011,529.005 363.5,530.5C364.564,536.204 362.564,540.371 357.5,543C356.101,543.595 354.768,543.428 353.5,542.5C352.793,548.194 351.96,553.861 351,559.5C346.667,570.167 342.333,580.833 338,591.5C337.667,627.5 337.333,663.5 337,699.5C332.988,724.263 319.488,741.263 296.5,750.5C294.194,750.993 291.861,751.326 289.5,751.5C283.595,752.878 277.595,752.712 271.5,751C267.357,749.043 265.024,745.876 264.5,741.5ZM322.5,778.5C320.286,774.422 319.953,770.088 321.5,765.5C322.686,762.66 324.686,760.494 327.5,759C333.449,757.927 339.449,757.26 345.5,757C347.246,756.529 348.913,755.862 350.5,755C356.482,749.518 360.815,743.018 363.5,735.5L363.5,729.5C364.499,691.337 364.832,653.004 364.5,614.5L364.5,601.5C365.67,598.149 367.17,594.815 369,591.5C374.422,584.313 379.589,576.979 384.5,569.5C386.689,565.781 388.355,561.781 389.5,557.5C387.56,551.102 388.56,545.269 392.5,540C400.042,535.986 406.876,536.819 413,542.5C417.876,553.961 417.542,565.294 412,576.5C405.333,585.833 398.667,595.167 392,604.5C391.667,645.833 391.333,687.167 391,728.5C389.312,743.199 383.812,756.199 374.5,767.5C373.5,768.167 372.5,768.833 371.5,769.5C360.239,780.788 346.573,785.955 330.5,785C326.455,784.449 323.788,782.282 322.5,778.5ZM464.5,404.5C472.125,405.728 476.959,410.061 479,417.5C481.444,430.622 476.611,439.622 464.5,444.5C455.114,445.938 445.78,445.771 436.5,444C428.397,439.472 424.397,432.472 424.5,423C424.047,415.465 427.047,409.799 433.5,406C443.754,404.574 454.088,404.074 464.5,404.5Z"/>
    </g>
</svg>
