<?xml version="1.0" encoding="UTF-8" standalone="no"?>
<!DOCTYPE svg PUBLIC "-//W3C//DTD SVG 1.1//EN" "http://www.w3.org/Graphics/SVG/1.1/DTD/svg11.dtd">
<svg width="100%" height="100%" viewBox="0 0 1024 1024" version="1.1" xmlns="http://www.w3.org/2000/svg" xmlns:xlink="http://www.w3.org/1999/xlink" xml:space="preserve" xmlns:serif="http://www.serif.com/" style="fill-rule:evenodd;clip-rule:evenodd;stroke-linejoin:round;stroke-miterlimit:2;">
    <g transform="matrix(1.28491,0,0,1.28491,-126.677,-110.699)">
        <path d="M229.5,505.5C228.833,508.833 228.167,512.167 227.5,515.5C225.731,530.358 230.231,543.024 241,553.5C244.821,556.743 248.821,559.743 253,562.5C254.129,568.539 251.629,571.873 245.5,572.5C242.567,572.534 239.9,571.701 237.5,570C211.472,550.054 205.139,525.221 218.5,495.5C228.826,475.345 244.493,460.845 265.5,452C272.685,449.858 280.018,448.691 287.5,448.5C305.526,451.072 323.193,455.239 340.5,461C348.138,462.717 355.805,464.217 363.5,465.5C376.615,468.471 388.282,465.638 398.5,457C402.4,453.19 406.066,449.19 409.5,445C415.818,441.793 420.152,443.46 422.5,450C420.987,454.191 418.821,458.024 416,461.5C410.458,466.711 404.625,471.544 398.5,476C388.949,481.97 378.616,483.97 367.5,482C345.436,478.365 323.769,473.198 302.5,466.5C284.304,461.148 267.97,464.481 253.5,476.5C251.833,477.833 250.167,479.167 248.5,480.5C240.984,488.005 234.651,496.339 229.5,505.5ZM100.5,552.5C91.629,487.933 113.629,436.933 166.5,399.5C193.685,379.198 224.352,370.364 258.5,373C287.743,375.249 316.076,381.582 343.5,392C348.945,394.11 350.778,397.944 349,403.5C347.257,405.871 344.923,407.205 342,407.5C321.477,400.823 300.643,395.49 279.5,391.5C267.645,388.982 255.645,387.982 243.5,388.5C217.419,389.597 193.752,397.597 172.5,412.5C167.062,417.725 161.395,422.725 155.5,427.5C136.538,446.784 123.538,469.45 116.5,495.5C108.65,542.102 119.483,583.769 149,620.5C184.677,662.42 230.177,684.754 285.5,687.5C326.713,685.968 363.046,672.135 394.5,646C405.419,636.246 415.753,626.079 425.5,615.5C443.324,594.005 463.657,575.339 486.5,559.5C506.557,543.23 529.557,535.73 555.5,537C581.093,542.094 597.093,557.261 603.5,582.5C603.101,589.451 599.601,591.784 593,589.5C578.3,553.925 553.133,543.758 517.5,559C511.483,561.672 505.816,564.839 500.5,568.5C495.024,571.741 489.691,575.241 484.5,579C463.669,596.331 444.336,615.165 426.5,635.5C397.27,669.959 360.27,691.293 315.5,699.5C302.09,701.972 288.423,702.972 274.5,702.5C195.198,693.322 139.698,652.322 108,579.5C104.72,570.713 102.22,561.713 100.5,552.5ZM600.5,607.5C618.554,589.611 635.387,570.611 651,550.5C659.681,541.652 668.514,532.986 677.5,524.5C674.606,517.712 671.44,511.045 668,504.5C633.647,451.41 584.813,427.91 521.5,434C496.876,439.647 474.209,449.647 453.5,464C412.344,496.157 370.344,527.157 327.5,557C315.06,563.136 302.227,568.303 289,572.5C282.98,570.448 281.313,566.448 284,560.5C299.06,554.554 313.56,547.387 327.5,539C345.656,525.422 363.99,512.089 382.5,499C408.15,476.681 435.483,456.681 464.5,439C495.057,421.019 527.724,414.186 562.5,418.5C567.049,418.624 571.382,419.291 575.5,420.5C590.7,423.179 605.034,428.345 618.5,436C638.062,447.554 655.229,462.054 670,479.5C678.347,491.531 686.18,503.865 693.5,516.5C695.234,513.099 697.901,510.766 701.5,509.5C689.078,476.285 693.245,445.285 714,416.5C723.256,404.573 733.256,393.24 744,382.5C748.603,376.296 752.437,369.629 755.5,362.5C756.487,359.854 757.487,357.188 758.5,354.5C756.604,353.534 754.604,353.201 752.5,353.5C743.069,352.608 734.735,349.274 727.5,343.5C712.841,333.523 705.508,319.523 705.5,301.5C706.632,276.387 719.299,260.553 743.5,254C771.167,253.333 798.833,253.333 826.5,254C828.382,254.198 830.048,254.698 831.5,255.5L834.5,255.5C838.373,256.434 842.039,257.934 845.5,260C860.486,269.968 868.486,283.968 869.5,302C869.283,316.865 863.617,329.031 852.5,338.5C851.04,340.463 849.373,342.296 847.5,344C841.411,347.252 835.078,349.918 828.5,352C809.834,353.759 791.167,353.926 772.5,352.5C770.512,368.631 764.345,382.964 754,395.5C743.452,405.67 733.618,416.337 724.5,427.5C717.817,439.372 712.983,452.038 710,465.5C708.125,478.099 709.958,490.099 715.5,501.5C725.37,496.378 735.37,491.544 745.5,487C769.588,479.49 793.588,479.823 817.5,488C850.168,501.81 873.668,524.977 888,557.5C903.697,600.714 894.864,637.881 861.5,669C843.007,682.413 823.007,692.913 801.5,700.5C796.149,701.838 790.816,703.171 785.5,704.5C772.595,708.721 759.261,711.387 745.5,712.5C723.735,713.806 702.735,710.473 682.5,702.5C659.652,690.673 639.652,675.007 622.5,655.5C611.58,668.097 598.913,678.431 584.5,686.5C549.889,707.81 512.222,717.477 471.5,715.5C457.734,714.078 445.068,709.578 433.5,702C421.62,693.077 416.12,681.244 417,666.5C423.333,645.172 435.166,627.506 452.5,613.5L453.5,613.5C479.925,589.964 510.925,576.131 546.5,572C560.871,569.009 563.871,573.342 555.5,585C544.183,587.665 532.85,590.332 521.5,593C498.238,600.459 477.572,612.293 459.5,628.5C459.167,629.5 458.5,630.167 457.5,630.5C446.412,640.093 438.246,651.76 433,665.5C431.448,673.676 433.615,680.676 439.5,686.5C449.463,694.215 460.797,698.715 473.5,700C535.657,701.167 586.157,677.667 625,629.5C637.333,612.833 649.667,596.167 662,579.5C671.951,567.212 683.451,556.712 696.5,548C707.433,542.005 718.767,540.505 730.5,543.5C732.415,543.216 734.081,543.549 735.5,544.5C749.152,548.412 760.652,555.745 770,566.5C774.853,573.532 780.186,580.198 786,586.5C786.667,589.167 786.667,591.833 786,594.5C777.795,599.082 768.962,601.915 759.5,603C745.943,605.056 733.609,602.056 722.5,594C713.233,586.736 704.566,578.736 696.5,570C695.5,569.333 694.5,569.333 693.5,570C690.938,572.733 688.271,575.233 685.5,577.5C682.925,578.568 680.758,580.235 679,582.5C664.333,602.5 649.667,622.5 635,642.5C634.097,643.701 632.931,644.535 631.5,645C636.002,648.67 640.335,652.503 644.5,656.5C655.705,667.774 668.372,677.107 682.5,684.5C683.167,684.5 683.5,684.833 683.5,685.5C707.829,696.208 733.162,699.374 759.5,695C781.596,690.745 802.93,684.079 823.5,675C844.467,665.106 860.967,650.272 873,630.5C884.424,598.956 880.757,569.289 862,541.5C836.706,507.107 802.872,492.94 760.5,499C742.24,504.533 724.907,512.199 708.5,522C697.547,529.952 686.88,538.285 676.5,547C658.94,564.99 642.44,583.824 627,603.5C622.594,608.411 617.76,612.745 612.5,616.5C602.301,625.774 590.634,632.774 577.5,637.5C575.372,638.629 573.039,638.796 570.5,638C567.085,633.936 566.585,629.436 569,624.5C580.33,620.253 590.83,614.587 600.5,607.5ZM818.5,338.5C819.209,337.596 820.209,337.263 821.5,337.5C834.066,336.103 843.232,329.77 849,318.5C857.982,295.165 851.149,278.832 828.5,269.5L823.5,269.5C800.661,269.831 777.994,269.497 755.5,268.5C752.15,268.335 748.817,268.502 745.5,269C742.516,270.271 739.516,271.438 736.5,272.5C729.212,277.722 724.379,284.722 722,293.5C719.489,319.348 730.989,334.181 756.5,338C777.164,338.5 797.831,338.667 818.5,338.5ZM712.5,564.5C720.817,572.983 730.151,580.15 740.5,586C749.418,587.414 758.418,587.914 767.5,587.5C767.649,586.448 767.483,585.448 767,584.5C755.49,571.013 741.323,562.013 724.5,557.5C718.738,557.149 713.072,557.649 707.5,559C709.373,560.704 711.04,562.537 712.5,564.5ZM736.5,299.5C740.944,292.978 746.61,291.812 753.5,296C757.764,300.168 758.597,305.002 756,310.5C749.991,316.691 743.658,317.024 737,311.5C734.624,308.266 734.124,304.933 735.5,301.5C735.328,300.508 735.662,299.842 736.5,299.5ZM822.5,293.5C834.78,293.261 839.28,298.928 836,310.5C830.833,316 825,316.833 818.5,313C812.088,304.732 813.421,298.232 822.5,293.5Z"/>
    </g>
</svg>
