<?xml version="1.0" encoding="UTF-8" standalone="no"?>
<!DOCTYPE svg PUBLIC "-//W3C//DTD SVG 1.1//EN" "http://www.w3.org/Graphics/SVG/1.1/DTD/svg11.dtd">
<svg width="100%" height="100%" viewBox="0 0 1024 1024" version="1.1" xmlns="http://www.w3.org/2000/svg" xmlns:xlink="http://www.w3.org/1999/xlink" xml:space="preserve" xmlns:serif="http://www.serif.com/" style="fill-rule:evenodd;clip-rule:evenodd;stroke-linejoin:round;stroke-miterlimit:2;">
    <g transform="matrix(1.37462,0,0,1.37462,-175.217,-168.481)">
        <path d="M723.5,415.5C721.511,409.385 720.345,403.052 720,396.5C722.435,391.776 726.269,390.276 731.5,392C735.533,396.751 738.033,402.251 739,408.5C747.507,441.86 756.007,475.194 764.5,508.5C763.703,512.964 761.036,515.297 756.5,515.5C753.809,515.321 751.475,514.321 749.5,512.5C746.091,502.607 743.091,492.607 740.5,482.5C734.672,460.188 729.005,437.855 723.5,415.5ZM187.5,806.5C167.246,802.709 151.246,792.376 139.5,775.5C127.448,753.549 124.448,730.549 130.5,706.5C130.433,705.041 130.766,703.708 131.5,702.5C138.236,678.025 146.403,654.025 156,630.5C168.41,607.206 186.91,590.706 211.5,581C224.175,577.054 236.842,576.554 249.5,579.5C251.786,579.595 253.786,580.262 255.5,581.5C260.358,582.596 264.691,584.762 268.5,588C281.925,598.587 284.759,611.42 277,626.5C268.27,636.064 257.437,639.897 244.5,638C238.91,636.581 233.243,635.748 227.5,635.5C223.386,635.386 220.386,637.052 218.5,640.5C214.494,643.173 211.161,646.506 208.5,650.5C200.279,666.314 193.113,682.647 187,699.5C183.048,708.427 181.215,717.761 181.5,727.5C182.728,732.859 184.395,738.192 186.5,743.5C187.728,744.306 188.728,745.306 189.5,746.5C195.012,754.253 202.679,758.253 212.5,758.5C230.369,755.463 244.869,746.796 256,732.5C257.316,716.048 262.483,701.048 271.5,687.5C278.587,677.577 286.92,668.744 296.5,661C320.385,644.565 344.385,628.399 368.5,612.5C379.943,603.394 391.943,595.061 404.5,587.5C404.5,586.833 404.833,586.5 405.5,586.5C413.149,580.342 421.149,574.675 429.5,569.5C447.132,557.857 464.465,545.857 481.5,533.5C482.721,532.972 483.887,532.305 485,531.5C485.918,525.411 487.252,519.411 489,513.5C496.895,460.215 505.728,407.215 515.5,354.5L515.5,353.5C520.008,320.439 526.008,287.772 533.5,255.5C533.415,252.253 534.415,249.419 536.5,247L587.5,214C596.53,207.158 605.53,200.324 614.5,193.5C616.806,191.861 618.806,189.861 620.5,187.5C623.549,184.058 627.382,182.058 632,181.5C637.225,182.795 642.392,183.795 647.5,184.5L687.5,184.5C705.17,184.333 722.836,184.5 740.5,185C778.09,191.42 798.423,213.587 801.5,251.5C806.196,251.671 810.863,252.171 815.5,253C818.174,253.67 820.507,254.837 822.5,256.5C834.371,264.528 845.537,273.528 856,283.5C856.667,317.167 856.667,350.833 856,384.5C854.789,391.935 851.289,397.935 845.5,402.5C845.158,403.338 844.492,403.672 843.5,403.5C840.299,406.937 836.299,409.104 831.5,410C812.835,412.334 799.168,405.168 790.5,388.5C789.295,386.862 787.962,386.529 786.5,387.5C782.888,388.422 779.221,389.089 775.5,389.5C783.683,427.414 791.349,465.414 798.5,503.5C802.721,517.786 805.221,532.453 806,547.5C804.5,550.333 802.333,552.5 799.5,554C794.23,555.817 788.897,557.317 783.5,558.5C783.158,559.338 782.492,559.672 781.5,559.5C779.574,560.486 777.574,561.486 775.5,562.5C773.841,621.787 772.841,681.12 772.5,740.5L772.5,741.5C771.227,742.077 771.227,742.743 772.5,743.5C778.094,745.863 783.427,748.696 788.5,752C801.694,761.889 807.694,775.055 806.5,791.5C826.836,791.333 847.169,791.5 867.5,792C873.276,795.715 873.942,800.215 869.5,805.5C868.527,805.987 867.527,806.487 866.5,807C810.501,807.5 754.501,807.667 698.5,807.5C660.336,808.664 622.002,808.831 583.5,808C575.382,806.608 568.382,803.108 562.5,797.5C561.89,796.609 561.557,795.609 561.5,794.5C560.833,794.5 560.5,794.167 560.5,793.5C556.875,788.134 554.709,782.134 554,775.5C553.333,710.5 553.333,645.5 554,580.5C555.049,578.382 556.549,576.716 558.5,575.5L559.5,575.5C562.504,574.354 565.504,574.687 568.5,576.5C569.504,577.683 570.338,579.016 571,580.5C571.5,642.832 571.667,705.166 571.5,767.5L571.5,776.5C572.401,777.29 573.068,778.29 573.5,779.5C575.656,785.154 579.656,788.988 585.5,791C653.668,791.832 721.668,791.665 789.5,790.5L789.5,785.5C786.663,773.486 779.329,765.32 767.5,761C744.833,760.667 722.167,760.333 699.5,760C693.359,757.859 689.193,753.693 687,747.5C685.359,711.547 685.026,675.547 686,639.5C689.884,617.386 699.717,598.719 715.5,583.5C718.96,578.872 722.96,574.706 727.5,571C744.366,557.734 763.033,547.9 783.5,541.5C785.455,541.201 786.789,540.201 787.5,538.5C782.503,511.175 777.503,483.842 772.5,456.5C771.549,455.081 771.216,453.415 771.5,451.5C766.415,431.925 763.081,411.925 761.5,391.5C754.5,393.141 747.833,392.474 741.5,389.5C732.849,386.845 725.515,382.178 719.5,375.5C713.369,369.921 708.702,363.254 705.5,355.5C702.641,349.09 700.475,342.424 699,335.5C697.689,315.857 697.189,296.191 697.5,276.5C694.167,272.167 690.833,267.833 687.5,263.5C675.161,250.658 663.327,237.325 652,223.5C648.22,218.377 648.72,213.877 653.5,210C659.951,208.972 665.118,211.139 669,216.5C683.256,234.094 698.256,251.094 714,267.5C714.333,287.5 714.667,307.5 715,327.5C716.491,337.473 719.657,346.807 724.5,355.5C735.13,370.141 749.464,375.974 767.5,373C777.929,369.579 788.596,368.246 799.5,369C801.101,369.273 802.601,369.773 804,370.5C804.601,380.218 809.101,387.385 817.5,392C824.49,393.528 830.657,392.028 836,387.5C836.862,385.913 837.529,384.246 838,382.5C838.667,351.833 838.667,321.167 838,290.5C827.76,281.637 816.927,273.637 805.5,266.5C804.085,265.711 802.585,265.044 801,264.5C797.959,267.103 794.459,268.77 790.5,269.5C787.786,269.06 785.62,267.726 784,265.5C786.175,249.521 782.841,234.854 774,221.5C765.371,210.768 754.205,204.602 740.5,203C719.996,202.832 699.663,202.332 679.5,201.5C663.471,201.804 647.471,201.47 631.5,200.5C628.891,202.767 626.225,205.101 623.5,207.5C615.393,215.282 606.726,222.282 597.5,228.5C596.507,237.318 596.173,246.318 596.5,255.5C596.333,308.501 596.5,361.501 597,414.5C631.333,434.833 665.667,455.167 700,475.5C695.702,459.308 691.535,442.975 687.5,426.5L687.5,425.5C680.566,403.11 674.233,380.443 668.5,357.5L668.5,355.5C662.392,334.742 656.725,313.742 651.5,292.5C652.247,284.26 656.58,281.427 664.5,284C666.049,285.214 667.215,286.714 668,288.5C682.846,346.374 698.513,404.041 715,461.5C717.215,470.125 719.215,478.791 721,487.5C723.667,488.833 725.667,490.833 727,493.5C728.612,507.076 723.446,510.243 711.5,503C680.44,484.808 649.44,466.642 618.5,448.5C605.265,441.633 592.765,433.633 581,424.5C579.851,421.607 579.351,418.607 579.5,415.5L579.5,402.5C578.833,348.167 578.167,293.833 577.5,239.5C571.229,244.975 564.563,249.975 557.5,254.5C555.437,257.726 552.604,260.059 549,261.5C537.486,325.588 526.32,389.588 515.5,453.5C511.867,473.566 509.201,493.566 507.5,513.5C536.341,493.913 565.008,474.08 593.5,454C601.653,453.498 604.82,457.331 603,465.5C599.229,470.8 594.396,474.8 588.5,477.5C588.158,478.338 587.492,478.672 586.5,478.5C563.468,495.523 540.135,512.189 516.5,528.5C509.205,533.821 501.871,539.155 494.5,544.5C484.167,551.833 473.833,559.167 463.5,566.5C450.833,575.167 438.167,583.833 425.5,592.5C422.057,594.104 418.723,595.938 415.5,598C426.468,597.455 437.468,597.455 448.5,598C476.109,601.545 494.609,616.379 504,642.5C509.135,664.294 505.968,684.627 494.5,703.5C486.882,716.785 476.548,727.452 463.5,735.5C460.194,738.158 456.527,740.324 452.5,742C466.811,741.224 481.144,740.891 495.5,741C499.872,741.421 504.205,742.088 508.5,743C535.741,751.655 547.741,770.155 544.5,798.5C542.767,804.388 538.767,807.555 532.5,808C464.167,808.5 395.834,808.667 327.5,808.5C283.165,808.667 238.832,808.5 194.5,808C191.964,807.814 189.631,807.314 187.5,806.5ZM196.5,608.5C188.116,615.386 180.949,623.386 175,632.5C163.353,658.773 153.686,685.773 146,713.5C144,723.5 144,733.5 146,743.5C148.956,760.759 157.789,773.925 172.5,783C207.641,800.302 235.308,792.302 255.5,759C254.135,759.143 252.802,759.643 251.5,760.5C235.012,774.431 216.345,778.598 195.5,773C193.121,772.284 191.121,771.117 189.5,769.5C182.63,766.633 177.297,761.966 173.5,755.5C171.759,753.023 170.259,750.356 169,747.5C164.945,733.291 164.445,718.958 167.5,704.5C172.576,687.774 178.743,671.441 186,655.5C191.093,642.732 198.927,631.898 209.5,623C216.588,617.561 224.588,615.561 233.5,617C238.817,618.321 244.151,619.654 249.5,621C259.986,622.678 264.32,618.178 262.5,607.5C254.696,598.55 244.696,594.217 232.5,594.5C219.153,595.836 207.153,600.502 196.5,608.5ZM279.5,708.5C272.018,727.685 270.518,747.352 275,767.5C277.214,775.969 279.714,784.303 282.5,792.5C364.17,792.671 445.836,792.338 527.5,791.5L527.5,783.5C527.063,778.292 525.23,773.625 522,769.5C515.362,763.433 507.529,759.933 498.5,759C486.838,758.5 475.171,758.333 463.5,758.5C461.052,759.473 458.385,759.806 455.5,759.5C443.495,759.333 431.495,759.5 419.5,760C412.915,762.461 406.248,764.628 399.5,766.5C398.791,767.404 397.791,767.737 396.5,767.5C378.565,774.247 359.899,777.081 340.5,776C338.408,774.147 337.408,771.814 337.5,769C338.176,760.175 342.843,757.009 351.5,759.5L355.5,759.5C389.532,755.046 421.199,744.046 450.5,726.5C450.5,725.833 450.833,725.5 451.5,725.5C460.133,718.535 468.133,710.868 475.5,702.5C481.292,693.578 485.459,683.911 488,673.5C490.886,658.491 488.052,644.825 479.5,632.5C476.349,629.737 473.349,626.737 470.5,623.5C465.017,620.722 459.35,618.222 453.5,616C446.868,615.057 440.202,614.557 433.5,614.5C419.167,614.889 405.167,617.222 391.5,621.5C363.455,635.693 336.788,652.193 311.5,671C304.863,675.913 298.696,681.413 293,687.5C287.977,694.225 283.477,701.225 279.5,708.5ZM263.5,787.5C262.641,784.788 261.475,782.122 260,779.5C255.252,784.454 249.752,788.287 243.5,791C246.833,791.167 250.167,791.333 253.5,791.5C257.239,791.486 260.572,790.82 263.5,789.5L263.5,787.5ZM753.5,572.5C752.5,573.833 751.5,575.167 750.5,576.5C735.899,585.267 724.066,596.933 715,611.5C706.772,625.018 702.938,639.685 703.5,655.5C703.017,683.922 703.517,712.255 705,740.5L706.5,742C722.574,742.182 738.574,742.682 754.5,743.5C754.832,686.331 754.499,629.331 753.5,572.5Z"/>
    </g>
</svg>
