<?xml version="1.0" encoding="UTF-8" standalone="no"?>
<!DOCTYPE svg PUBLIC "-//W3C//DTD SVG 1.1//EN" "http://www.w3.org/Graphics/SVG/1.1/DTD/svg11.dtd">
<svg width="100%" height="100%" viewBox="0 0 1024 1024" version="1.1" xmlns="http://www.w3.org/2000/svg" xmlns:xlink="http://www.w3.org/1999/xlink" xml:space="preserve" xmlns:serif="http://www.serif.com/" style="fill-rule:evenodd;clip-rule:evenodd;stroke-linejoin:round;stroke-miterlimit:2;">
    <g transform="matrix(1.30024,0,0,1.30024,-207.859,-97.5702)">
        <path d="M162.5,511.5C154.37,457.697 165.037,408.03 194.5,362.5C206.822,342.323 221.656,323.99 239,307.5C239.333,257.5 239.667,207.5 240,157.5C241.792,150.692 245.959,148.859 252.5,152C275.632,169.45 293.132,191.283 305,217.5C308.944,228.999 311.111,240.832 311.5,253C310.08,271.164 309.247,289.331 309,307.5C315.001,305.559 321.168,305.059 327.5,306C346.411,310.749 365.411,315.082 384.5,319C396.5,319.333 408.5,319.667 420.5,320C423.667,323.837 424.167,328.004 422,332.5C410.88,348.292 396.713,360.459 379.5,369C372.824,371.007 366.157,373.007 359.5,375C344.187,377.131 328.854,379.131 313.5,381C294.815,384.367 282.315,394.867 276,412.5C275.86,430.167 276.193,447.834 277,465.5C277.823,479.987 283.99,491.487 295.5,500C299.833,500.667 304.167,500.667 308.5,500C351.229,493.434 393.895,486.434 436.5,479C457.422,475.76 478.422,473.26 499.5,471.5C490.246,444.073 480.579,416.74 470.5,389.5C470.515,384.818 472.848,382.485 477.5,382.5C480.111,382.556 482.278,383.556 484,385.5C494.808,413.406 505.308,441.406 515.5,469.5C522.822,468.962 530.155,468.629 537.5,468.5C564.101,467.439 590.767,468.273 617.5,471C597.491,463.163 577.824,454.497 558.5,445C539.749,434.022 522.916,420.522 508,404.5C503.141,396.394 505.308,392.561 514.5,393L520.5,396C533.572,408.696 547.905,419.696 563.5,429C610.379,451.606 657.379,473.94 704.5,496C779.513,533.444 846.346,582.277 905,642.5C918.57,657.981 931.904,673.647 945,689.5C949.698,698.74 947.531,705.907 938.5,711C922.914,718.932 907.581,727.265 892.5,736C881.511,740.605 870.511,745.105 859.5,749.5C825.556,761.257 790.556,768.757 754.5,772C706.867,777.033 659.2,781.7 611.5,786C541.281,790.132 472.281,782.798 404.5,764C369.034,753.763 335.7,738.93 304.5,719.5C246.415,683.711 203.915,634.377 177,571.5C169.429,552.139 164.595,532.139 162.5,511.5ZM203.5,374.5L203.5,375.5C196.913,387.948 190.913,400.615 185.5,413.5C172.183,455.104 171.016,497.104 182,539.5C199.995,598.997 233.495,647.83 282.5,686C296.13,696.145 310.13,705.645 324.5,714.5C359.521,733.332 396.521,747.165 435.5,756C515.268,773.22 595.601,776.22 676.5,765C649.145,749.657 630.645,727.157 621,697.5C610.776,654.482 623.609,620.315 659.5,595C674.715,583.741 691.049,581.741 708.5,589C711.71,591.217 712.71,594.051 711.5,597.5C702.389,607.037 694.223,617.37 687,628.5C677.504,643.482 673.504,659.815 675,677.5C675.615,684.383 678.115,690.383 682.5,695.5C684.413,699.262 686.579,702.929 689,706.5C697.034,714.424 705.534,721.758 714.5,728.5C715.592,730.183 716.259,732.016 716.5,734C716.67,739.833 714.004,741.833 708.5,740C669.984,720.802 654.484,689.968 662,647.5C667.749,629.832 676.249,613.666 687.5,599C646.716,613.846 628.883,643.012 634,686.5C639.235,707.133 649.735,724.633 665.5,739C675.785,746.284 685.785,753.95 695.5,762C724.835,759.424 754.169,756.424 783.5,753C819.968,747.953 854.635,737.287 887.5,721C886.906,720.536 886.239,720.369 885.5,720.5C855.858,720.282 826.525,717.116 797.5,711C789.457,708.397 787.457,703.397 791.5,696C795.167,695.333 798.833,695.333 802.5,696C824.778,700.597 847.278,703.431 870,704.5C890.911,703.705 911.744,702.038 932.5,699.5C932.649,698.448 932.483,697.448 932,696.5C907.336,665.165 879.836,636.331 849.5,610C804.105,572.631 755.438,539.964 703.5,512C662.37,495.215 619.703,485.715 575.5,483.5C531.882,482.766 488.548,485.932 445.5,493C398.311,501.717 350.977,509.551 303.5,516.5C292.337,516.835 283.503,512.501 277,503.5C270.485,494.802 265.819,485.135 263,474.5C261.847,457.337 260.681,440.171 259.5,423C260.85,397.653 273.183,379.986 296.5,370C302.332,367.723 308.332,366.056 314.5,365C326.798,363.336 339.131,362.003 351.5,361C370.276,358.312 385.943,349.979 398.5,336C386.067,335.095 373.734,333.428 361.5,331C349.112,326.704 336.445,323.537 323.5,321.5C306.14,324.182 290.806,331.182 277.5,342.5C255.898,359.091 239.564,379.758 228.5,404.5C226.775,410.844 224.942,417.178 223,423.5C222.064,427.114 221.564,430.78 221.5,434.5C221.784,436.415 221.451,438.081 220.5,439.5C221.011,498.172 249.678,534.672 306.5,549C342.631,554.58 378.965,558.246 415.5,560C473.485,566.466 530.985,575.633 588,587.5C588.667,588.833 589.333,590.167 590,591.5C592.275,598.06 590.108,601.727 583.5,602.5C506.279,585.931 428.279,575.764 349.5,572C355.167,573.667 360.833,575.333 366.5,577C430.686,603.283 496.686,623.95 564.5,639C565.931,639.465 567.097,640.299 568,641.5C570.039,647.685 568.205,652.018 562.5,654.5C537.475,648.494 512.475,642.327 487.5,636C437.701,620.845 388.701,603.512 340.5,584C335.053,580.731 333.053,575.898 334.5,569.5C315.714,567.387 297.381,563.221 279.5,557C241.937,541.012 218.604,513.179 209.5,473.5C201.456,434.439 209.289,398.772 233,366.5C249.352,344.642 269.519,327.309 293.5,314.5C295.035,290.52 295.535,266.52 295,242.5C292.265,224.036 284.932,207.703 273,193.5C267.351,187.017 261.517,180.683 255.5,174.5C255.826,219.061 255.493,263.727 254.5,308.5C254.663,310.857 254.497,313.19 254,315.5C253.617,316.056 253.117,316.389 252.5,316.5C251.5,317.833 250.5,319.167 249.5,320.5C241.367,327.009 233.867,334.343 227,342.5C218.917,353.068 211.084,363.735 203.5,374.5ZM756.5,661.5C747.293,640.258 751.293,621.758 768.5,606C784.838,596.759 801.505,596.092 818.5,604C834.489,614.932 840.989,630.099 838,649.5C836.521,661.155 831.021,670.155 821.5,676.5C819.747,678.223 817.747,679.723 815.5,681C794.758,689.92 776.591,686.42 761,670.5C759.239,667.589 757.739,664.589 756.5,661.5ZM803.5,669.5C820.543,662.41 826.71,649.743 822,631.5C813.113,615.137 799.947,610.137 782.5,616.5C778.918,618.214 775.752,620.547 773,623.5C766.268,632.832 764.935,642.832 769,653.5C776.696,666.762 788.196,672.095 803.5,669.5ZM790.5,629.5C801.602,629.771 806.435,635.438 805,646.5C802.185,652.169 797.685,654.002 791.5,652C785.41,648.652 782.91,643.485 784,636.5C785.694,633.642 787.861,631.309 790.5,629.5ZM247.5,591.5C250.978,591.184 254.312,591.684 257.5,593C302.57,627.523 353.237,650.189 409.5,661C463.104,670.162 517.104,675.162 571.5,676C576.069,678.541 577.569,682.375 576,687.5C574.118,691.897 570.785,693.564 566,692.5C518.954,690.674 472.121,686.508 425.5,680C359.225,670.264 299.725,645.097 247,604.5C243.534,599.961 243.701,595.628 247.5,591.5Z"/>
    </g>
</svg>
