<?xml version="1.0" encoding="UTF-8" standalone="no"?>
<!DOCTYPE svg PUBLIC "-//W3C//DTD SVG 1.1//EN" "http://www.w3.org/Graphics/SVG/1.1/DTD/svg11.dtd">
<svg width="100%" height="100%" viewBox="0 0 1024 1024" version="1.1" xmlns="http://www.w3.org/2000/svg" xmlns:xlink="http://www.w3.org/1999/xlink" xml:space="preserve" xmlns:serif="http://www.serif.com/" style="fill-rule:evenodd;clip-rule:evenodd;stroke-linejoin:round;stroke-miterlimit:2;">
    <g transform="matrix(1.52135,0,0,1.52135,-282.904,-347.13)">
        <path d="M517.5,834.5C511.567,834.691 505.9,833.524 500.5,831C482.184,820.687 467.017,806.853 455,789.5C437.667,764.836 424,738.169 414,709.5C411.718,699.821 408.552,690.488 404.5,681.5C383.571,696.448 362.571,711.115 341.5,725.5C341.334,731.509 341.501,737.509 342,743.5C351.22,791.986 360.387,840.486 369.5,889C367.059,899.39 360.726,902.723 350.5,899C348.383,897.269 346.883,895.102 346,892.5C337.823,841.282 328.49,790.282 318,739.5C317.333,733.5 317.333,727.5 318,721.5C322.373,714.12 327.873,707.62 334.5,702L388.5,663C392.327,661.21 396.327,660.044 400.5,659.5C398.445,642.165 396.278,624.832 394,607.5C392.647,581.043 393.814,554.71 397.5,528.5C391.748,526.793 386.081,524.793 380.5,522.5C344.699,536.736 308.699,550.403 272.5,563.5C271.086,598.536 269.252,633.536 267,668.5C265.6,671.902 263.433,674.736 260.5,677C250.5,684.667 240.5,692.333 230.5,700C215.912,708.258 209.412,704.091 211,687.5C212.061,684.438 213.894,681.938 216.5,680C225.421,673.956 234.254,667.79 243,661.5C245.21,630.85 247.21,600.183 249,569.5C249.521,564.148 250.187,558.815 251,553.5C251.957,547.873 255.124,544.04 260.5,542C297.809,529.511 334.809,516.178 371.5,502C374.107,501.182 376.774,500.682 379.5,500.5C388.03,502.739 396.697,504.073 405.5,504.5C405.852,498.278 407.519,492.444 410.5,487C389.02,478.95 367.853,470.117 347,460.5C335.114,463.43 323.28,466.597 311.5,470C298.168,471.666 292.668,465.833 295,452.5C297.04,448.06 300.54,446.06 305.5,446.5C318.724,443.53 332.057,440.53 345.5,437.5C348.592,437.507 351.592,438.007 354.5,439C376.057,448.13 397.724,456.963 419.5,465.5C421.891,462.125 424.224,458.792 426.5,455.5C428.246,453.748 430.246,452.415 432.5,451.5C426.548,445.617 421.548,438.951 417.5,431.5C409.72,413.773 411.22,396.773 422,380.5C434.981,367.342 450.481,363.009 468.5,367.5C470.956,364.542 473.622,361.709 476.5,359C478.217,357.441 480.217,356.608 482.5,356.5C476.589,336.519 472.089,316.186 469,295.5C466.584,290.999 463.917,286.666 461,282.5C454.991,276.658 449.158,270.658 443.5,264.5C426.264,254.274 407.598,250.44 387.5,253C382.111,248.833 380.277,243.333 382,236.5C382.883,233.898 384.383,231.731 386.5,230C430.426,224.463 463.759,240.63 486.5,278.5C494.32,289.09 497.82,301.09 497,314.5C498.876,325.335 501.376,336.002 504.5,346.5C514.507,343.835 524.507,343.835 534.5,346.5C535.086,346.291 535.586,345.957 536,345.5C541.188,327.853 544.521,309.853 546,291.5C557.699,267.134 575.532,248.634 599.5,236C616.164,229.083 633.498,226.75 651.5,229C661.137,235.541 661.804,242.874 653.5,251C652.167,251.667 650.833,252.333 649.5,253C640.167,253.333 630.833,253.667 621.5,254C609.767,257.696 599.434,263.696 590.5,272C584.292,278.539 578.459,285.373 573,292.5C571.803,295.089 570.803,297.756 570,300.5C566.64,318.274 562.806,335.94 558.5,353.5C564.259,357.424 569.259,362.257 573.5,368C575.831,367.843 578.164,367.343 580.5,366.5C602.197,365.723 617.697,375.056 627,394.5C631.527,412.27 628.861,428.937 619,444.5C616.78,447.021 614.28,449.188 611.5,451C616.761,455.424 621.094,460.591 624.5,466.5C625.167,466.5 625.5,466.833 625.5,467.5C646.488,457.212 667.822,447.379 689.5,438C693.167,437.333 696.833,437.333 700.5,438C715.396,441.807 730.396,445.141 745.5,448C751.488,453.047 752.988,459.214 750,466.5C748.786,468.049 747.286,469.215 745.5,470C740.12,470.596 734.787,470.262 729.5,469C717.892,466.015 706.226,463.182 694.5,460.5C676.218,468.972 657.885,477.472 639.5,486C637.212,486.822 634.878,487.489 632.5,488C634.73,493.636 636.397,499.469 637.5,505.5C646.006,502.898 654.673,501.398 663.5,501C700.81,515.326 738.477,528.659 776.5,541C783.333,542.5 787.5,546.667 789,553.5C791.369,588.52 793.869,623.52 796.5,658.5C806.366,666.517 816.7,674.017 827.5,681C835.748,687.778 836.414,695.111 829.5,703C824.348,705.122 819.348,704.789 814.5,702C801.937,691.803 789.104,681.97 776,672.5C775.252,670.668 774.252,669.001 773,667.5C770.921,632.49 768.754,597.49 766.5,562.5C730.499,551.058 695.166,538.058 660.5,523.5L656.5,523.5C652.697,525.434 648.697,526.768 644.5,527.5C646.156,539.13 647.656,550.797 649,562.5C650.915,591.401 649.248,620.068 644,648.5C643.333,651.833 643.333,655.167 644,658.5C652.167,662.001 660,666.167 667.5,671C684.114,682.614 700.448,694.614 716.5,707C723.115,712.436 727.448,719.269 729.5,727.5C722.499,781.511 715.332,835.511 708,889.5C706.703,898.495 701.536,902.328 692.5,901C688.572,899.407 686.072,896.573 685,892.5C684.919,883.468 685.586,874.468 687,865.5C693.563,821.765 699.397,777.932 704.5,734C704.333,731.833 704.167,729.667 704,727.5L696.5,720C677.768,706.216 658.601,693.049 639,680.5C633.002,705.338 624.169,729.005 612.5,751.5C600.408,778.843 583.075,802.343 560.5,822C555.358,825.904 549.691,828.738 543.5,830.5C535.137,834.309 526.47,835.643 517.5,834.5ZM593.5,477.5C543.166,477.333 492.832,477.5 442.5,478C434.805,484.535 431.472,492.702 432.5,502.5C439.629,512.43 449.296,518.597 461.5,521C500.167,521.667 538.833,521.667 577.5,521C589.36,519.238 599.36,514.072 607.5,505.5C609.624,495.672 607.29,486.839 600.5,479C598.26,478.023 595.927,477.523 593.5,477.5ZM507.5,547.5C489.163,545.899 470.496,544.732 451.5,544C439.429,541.224 429.595,535.057 422,525.5C415.838,566.196 416.171,606.863 423,647.5C430.994,694.129 448.328,736.796 475,775.5C483.695,788.027 494.195,798.694 506.5,807.5C507.499,721.002 507.833,634.335 507.5,547.5ZM623.5,613.5C625.896,583.617 624.396,553.95 619,524.5C614.453,531.362 608.287,536.195 600.5,539C595.909,540.864 591.243,542.53 586.5,544C568.022,545.036 549.689,545.869 531.5,546.5L531.5,548.5C532.167,634.833 532.833,721.167 533.5,807.5C536.237,806.969 538.904,806.136 541.5,805C553.319,796.014 563.653,785.514 572.5,773.5C577.823,766.199 582.656,758.532 587,750.5C608.38,707.315 620.547,661.648 623.5,613.5ZM439.5,400.5C436.413,411.833 438.58,422.166 446,431.5C456.64,442.737 469.474,450.237 484.5,454C509.875,454.952 535.208,454.619 560.5,453C578.837,447.465 592.837,436.632 602.5,420.5C605.705,409.806 603.371,400.64 595.5,393C589.441,390.268 584.608,391.768 581,397.5C578.528,403.915 575.862,410.248 573,416.5L569.5,420C562.415,422.04 555.415,424.374 548.5,427C543.109,428.653 538.942,427.153 536,422.5C533.238,410.255 538.072,403.089 550.5,401C558.682,392.441 558.349,384.108 549.5,376C530.719,366.153 512.052,366.153 493.5,376C486.002,381.818 484.835,388.651 490,396.5C493.734,399.952 497.9,402.785 502.5,405C507.525,409.409 509.358,414.909 508,421.5C507.426,423.492 506.259,424.992 504.5,426C493.596,428.257 484.096,425.424 476,417.5C472.671,409.318 468.505,401.651 463.5,394.5C459.118,390.278 454.118,389.444 448.5,392C444.973,394.362 441.973,397.196 439.5,400.5Z"/>
    </g>
</svg>
