<?xml version="1.0" encoding="UTF-8" standalone="no"?>
<!DOCTYPE svg PUBLIC "-//W3C//DTD SVG 1.1//EN" "http://www.w3.org/Graphics/SVG/1.1/DTD/svg11.dtd">
<svg width="100%" height="100%" viewBox="0 0 1024 1024" version="1.1" xmlns="http://www.w3.org/2000/svg" xmlns:xlink="http://www.w3.org/1999/xlink" xml:space="preserve" xmlns:serif="http://www.serif.com/" style="fill-rule:evenodd;clip-rule:evenodd;stroke-linejoin:round;stroke-miterlimit:2;">
    <g transform="matrix(1.24749,0,0,1.24749,-137.975,-171.972)">
        <path d="M861.5,611.5C836.789,608.549 812.789,602.716 789.5,594C741.11,573.901 697.11,546.901 657.5,513C634.138,489.982 612.638,465.482 593,439.5C572.551,411.047 552.884,382.047 534,352.5C530.296,348.405 526.129,344.905 521.5,342C511.251,337.139 500.917,332.473 490.5,328C459.676,315.508 428.676,303.842 397.5,293C405.854,311.553 416.354,328.719 429,344.5C450.232,369.403 472.565,393.403 496,416.5C518.61,445.109 541.943,473.109 566,500.5C583.963,519.802 603.129,537.635 623.5,554C626.339,555.92 629.339,557.587 632.5,559C638.781,560.942 644.948,563.109 651,565.5C653.012,572.597 651.512,578.931 646.5,584.5C644.817,585.592 642.984,586.259 641,586.5C629.659,581.245 618.825,575.079 608.5,568C589.131,552.637 570.964,535.804 554,517.5C529.295,489.093 505.295,460.093 482,430.5C455.901,404.738 430.901,378.071 407,350.5C395.798,334.103 386.131,316.77 378,298.5C374.002,289.231 373.669,279.898 377,270.5C380.184,267.156 384.018,265.989 388.5,267C427.991,281.941 467.324,297.275 506.5,313C523.79,319.221 538.623,329.055 551,342.5C563.726,360.896 576.059,379.562 588,398.5C602.949,419.117 618.282,439.45 634,459.5C651.867,480.368 671.367,499.534 692.5,517C731.696,545.267 774.362,567.267 820.5,583C835.693,587.538 851.027,590.704 866.5,592.5L877.5,592.5C878.195,588.055 879.362,583.722 881,579.5C890.426,558.319 900.093,537.319 910,516.5C910.689,509.377 907.856,504.211 901.5,501C887.204,495.539 872.537,494.206 857.5,497C815.897,508.355 774.231,519.521 732.5,530.5C724.425,529.373 720.925,524.706 722,516.5C724.401,512.709 727.901,510.542 732.5,510C775.043,498.265 817.709,486.931 860.5,476C881.119,474.123 900.452,478.123 918.5,488C923.108,492.099 927.108,496.599 930.5,501.5C931.567,506.782 931.733,512.115 931,517.5C927.885,526.398 924.218,535.064 920,543.5C910.174,561.147 902.007,579.48 895.5,598.5C895.283,604.232 895.783,609.899 897,615.5C905.667,638.167 914.333,660.833 923,683.5C923.664,719.342 909.164,747.175 879.5,767C850.94,784.296 819.94,792.629 786.5,792C755.164,786.994 735.664,769.16 728,738.5C727.667,723.167 727.333,707.833 727,692.5C724.506,680.864 722.339,669.198 720.5,657.5C695.1,652.453 669.767,646.953 644.5,641C637.334,638.166 634.834,632.999 637,625.5C639.38,622.06 642.713,620.727 647,621.5C676.512,627.869 706.012,634.369 735.5,641C756.726,645.315 778.06,648.982 799.5,652C807.485,654.089 809.652,658.923 806,666.5C804.363,668.81 802.196,670.31 799.5,671C780.684,669.921 762.018,667.421 743.5,663.5C742.833,663.833 742.167,664.167 741.5,664.5C744.133,672.032 746.3,679.699 748,687.5C748.511,702.54 748.178,717.54 747,732.5C749.72,748.227 758.22,759.727 772.5,767C790.015,772.593 807.681,772.926 825.5,768C842.279,763.772 857.946,757.106 872.5,748C888.761,736.074 898.927,720.241 903,700.5C903.717,694.775 903.384,689.109 902,683.5C893.29,662.715 884.957,641.715 877,620.5C876.503,617.854 876.336,615.187 876.5,612.5C871.493,612.249 866.493,611.916 861.5,611.5ZM788.5,345.5C810.643,342.996 828.143,350.663 841,368.5C849.866,386.321 849.533,403.988 840,421.5C825.377,439.888 806.544,446.555 783.5,441.5C757.442,430.908 746.276,411.575 750,383.5C755.461,363.205 768.294,350.538 788.5,345.5ZM793.5,365.5C785.843,367.971 779.343,372.304 774,378.5C765.705,395.158 769.205,408.658 784.5,419C806.12,427.252 820.286,420.418 827,398.5C826.689,376.69 815.522,365.69 793.5,365.5ZM193.5,254.5C171.616,272.907 155.616,295.573 145.5,322.5C137.936,339.917 132.936,358.084 130.5,377C132.86,385.219 136.693,392.719 142,399.5C162.775,425.604 188.275,445.771 218.5,460C235.75,467.861 253.083,475.528 270.5,483C391.075,530.746 514.409,570.08 640.5,601C642.286,601.785 643.786,602.951 645,604.5C647.35,611.541 645.183,616.374 638.5,619C635.167,619.667 631.833,619.667 628.5,619C531.454,594.428 435.788,565.428 341.5,532C306.765,518.532 272.099,504.866 237.5,491C209.897,479.489 184.231,464.823 160.5,447C142.361,432.539 127.528,415.373 116,395.5C111.423,388.444 109.757,380.777 111,372.5C127.769,271.199 186.603,211.032 287.5,192C311.348,190.085 334.681,192.752 357.5,200C394.379,213.271 430.712,227.938 466.5,244C497.154,256.827 526.821,271.494 555.5,288C564.5,294.333 573.5,300.667 582.5,307C594.333,317.5 605.5,328.667 616,340.5C645.458,382.584 674.291,425.084 702.5,468C701.216,476.284 696.382,480.784 688,481.5C685.497,481.01 683.497,479.677 682,477.5C678.508,469.847 674.508,462.513 670,455.5C654.169,432.509 638.836,409.176 624,385.5C614.577,372.322 604.91,359.322 595,346.5C573.6,324.093 549.1,305.926 521.5,292C478.403,272.118 435.069,252.784 391.5,234C368.601,224.382 344.934,217.382 320.5,213C301.154,211.094 282.154,212.76 263.5,218C237.714,225.724 214.381,237.891 193.5,254.5ZM308.5,322.5C313.382,322.193 318.049,323.026 322.5,325C332.671,344.873 335.171,365.707 330,387.5C325.183,408.126 316.85,427.126 305,444.5C299.122,451.046 292.622,456.879 285.5,462C282.084,462.893 278.917,462.393 276,460.5C275.233,456.406 275.566,452.406 277,448.5C292.644,430.883 303.311,410.549 309,387.5C311.16,378.267 311.827,368.934 311,359.5C309.211,349.773 306.711,340.273 303.5,331C303.667,329.5 303.833,328 304,326.5C305.992,325.672 307.492,324.339 308.5,322.5ZM216.5,291.5C249.854,290.002 261.354,305.002 251,336.5C235.519,352.693 219.519,353.359 203,338.5C192.257,318.246 196.757,302.579 216.5,291.5ZM222.5,312.5C219.049,315.41 217.882,319.077 219,323.5C224.333,330.167 229.667,330.167 235,323.5C235.825,314.501 231.658,310.835 222.5,312.5ZM346.5,391.5C350.182,391.335 353.848,391.501 357.5,392C358.416,392.374 359.25,392.874 360,393.5C364,400.833 368,408.167 372,415.5C389.05,436.882 405.716,458.548 422,480.5C427.39,489.506 430.89,499.173 432.5,509.5C432.149,515.063 430.149,519.896 426.5,524C420.834,526.615 415.834,525.782 411.5,521.5C412.808,511.292 410.975,501.625 406,492.5C394.297,475.772 381.63,459.772 368,444.5C362,435.833 356,427.167 350,418.5C345.585,411.37 343.251,403.703 343,395.5C344.032,393.973 345.199,392.64 346.5,391.5ZM175.5,579.5C209.737,578.95 232.57,594.617 244,626.5C248.053,647.238 244.053,666.238 232,683.5C203.861,711.137 173.695,713.637 141.5,691C117.956,666.246 114.123,638.746 130,608.5C141.296,592.61 156.463,582.944 175.5,579.5ZM176.5,600.5C155.287,606.048 143.287,619.715 140.5,641.5C142.093,664.219 153.759,678.719 175.5,685C199.694,688 215.861,678.166 224,655.5C228.501,619.823 212.667,601.49 176.5,600.5ZM473.5,631.5C498.315,630.987 512.315,642.987 515.5,667.5C512.253,689.455 499.586,701.455 477.5,703.5C456.263,700.092 444.93,687.592 443.5,666C443.705,652.474 449.705,642.474 461.5,636C465.496,634.18 469.496,632.68 473.5,631.5ZM474.5,653.5C461.222,662.63 461.222,671.797 474.5,681C483.089,683.699 489.089,681.033 492.5,673C494.996,658.663 488.996,652.163 474.5,653.5ZM576.5,631.5C599.722,630.357 614.222,641.024 620,663.5C621.146,694.354 606.313,709.187 575.5,708C558.226,704.392 548.059,693.892 545,676.5C542.915,652.453 553.415,637.453 576.5,631.5ZM577.5,653.5C572.463,656.044 568.963,660.044 567,665.5C565.565,676.474 570.065,683.64 580.5,687C589.195,688.145 595.029,684.645 598,676.5C600.832,660.167 593.998,652.5 577.5,653.5ZM293.5,724.5C323.967,721.761 352.967,726.928 380.5,740C383.428,743.257 384.262,747.091 383,751.5C381.321,755.517 378.321,757.517 374,757.5C363.785,754.873 353.618,752.04 343.5,749C315.348,742.36 288.014,744.693 261.5,756C251.534,757.615 247.034,753.448 248,743.5C248.465,742.069 249.299,740.903 250.5,740C264.328,733.07 278.662,727.903 293.5,724.5ZM194.5,767.5C211.503,767.333 228.503,767.5 245.5,768C247,768.833 248.167,770 249,771.5C250.091,777.097 249.424,782.43 247,787.5C245.581,788.46 244.081,789.293 242.5,790C227.167,790.667 211.833,790.667 196.5,790C188.02,783.264 187.353,775.764 194.5,767.5ZM389.5,767.5C405.837,767.333 422.17,767.5 438.5,768C440.348,769.518 441.848,771.351 443,773.5C443.865,779.179 442.699,784.346 439.5,789C438.167,789.333 436.833,789.667 435.5,790C420.833,790.667 406.167,790.667 391.5,790C384.926,786.392 382.759,780.892 385,773.5C385.804,770.854 387.304,768.854 389.5,767.5ZM313.5,798.5C322.096,797.875 330.43,799.042 338.5,802C354.5,810.333 370.5,818.667 386.5,827C406.453,836.816 426.786,837.816 447.5,830C457.129,826.264 465.295,820.431 472,812.5C477.359,819.36 483.526,825.36 490.5,830.5C470.297,845.598 447.631,854.598 422.5,857.5C406.561,855.515 391.228,851.349 376.5,845C361.341,837.255 346.341,829.255 331.5,821C320.86,817.193 310.527,817.859 300.5,823C283.582,833.293 265.916,842.293 247.5,850C239.598,852.412 231.598,854.412 223.5,856C195.658,855.581 170.658,846.915 148.5,830C155.355,825.811 160.855,820.311 165,813.5C172.91,819.077 181.077,824.244 189.5,829C209.735,836.673 229.735,836.006 249.5,827C264.346,819.41 279.346,812.077 294.5,805C300.935,802.765 307.268,800.598 313.5,798.5ZM617.5,796.5C638.771,796.054 658.771,800.888 677.5,811C689.839,818.168 701.839,825.834 713.5,834C731.655,847.91 749.988,861.577 768.5,875C784.355,884.389 800.355,884.722 816.5,876C823.015,871.241 829.348,866.241 835.5,861C841.941,859.742 848.275,858.075 854.5,856C862.911,853.108 866.411,855.941 865,864.5C851.674,876.085 837.507,886.585 822.5,896C798.802,906.174 776.135,904.174 754.5,890C734.167,875 713.833,860 693.5,845C677.561,833.697 660.228,825.031 641.5,819C624.868,814.536 609.201,816.87 594.5,826C568.89,843.277 543.557,860.944 518.5,879C471.069,908.803 421.403,913.137 369.5,892C356.653,885.41 343.653,879.077 330.5,873C320.718,869.509 311.051,869.842 301.5,874C284.228,883.636 266.228,891.636 247.5,898C211.596,909.005 176.929,906.005 143.5,889C138.714,885.882 134.214,882.382 130,878.5C127.37,874.868 124.37,871.535 121,868.5C119.445,866.557 118.278,864.39 117.5,862C117.979,859.023 119.646,857.19 122.5,856.5C126.674,857.101 130.674,858.267 134.5,860C137.538,862.703 140.205,865.703 142.5,869C159.474,874.911 176.807,879.577 194.5,883C219.637,884.239 243.637,879.573 266.5,869C275.626,864.604 284.626,859.937 293.5,855C307.21,848.51 321.21,847.843 335.5,853C348.167,859 360.833,865 373.5,871C416.145,888.829 458.145,887.495 499.5,867C528.833,847 558.167,827 587.5,807C597.035,801.768 607.035,798.268 617.5,796.5ZM620.5,848.5C652.281,848.978 680.115,859.645 704,880.5C704.667,884.167 704.667,887.833 704,891.5C701.647,896.426 697.814,898.26 692.5,897C677.571,884.369 660.571,875.702 641.5,871C627.41,868.11 613.743,869.443 600.5,875C587.327,881.414 574.994,889.081 563.5,898C555.844,900.733 551.344,897.9 550,889.5C548.924,884.928 549.757,880.761 552.5,877C560.849,874.325 568.516,870.325 575.5,865C582.608,860.894 589.941,857.228 597.5,854C605.249,851.955 612.915,850.122 620.5,848.5Z"/>
    </g>
</svg>
