<?xml version="1.0" encoding="UTF-8" standalone="no"?>
<!DOCTYPE svg PUBLIC "-//W3C//DTD SVG 1.1//EN" "http://www.w3.org/Graphics/SVG/1.1/DTD/svg11.dtd">
<svg width="100%" height="100%" viewBox="0 0 1024 1024" version="1.1" xmlns="http://www.w3.org/2000/svg" xmlns:xlink="http://www.w3.org/1999/xlink" xml:space="preserve" xmlns:serif="http://www.serif.com/" style="fill-rule:evenodd;clip-rule:evenodd;stroke-linejoin:round;stroke-miterlimit:2;">
    <g transform="matrix(1.17295,0,0,1.17295,-132.747,-121.4)">
        <path d="M520.5,902.5L520.5,746.5C480.035,736.87 451.201,713.203 434,675.5C420.519,630.61 432.019,593.443 468.5,564C477.692,558.763 486.192,559.596 494,566.5C498.068,572.913 501.735,579.579 505,586.5C505.667,611.833 505.667,637.167 505,662.5C499.636,666.423 494.303,666.423 489,662.5C488.333,661.167 487.667,659.833 487,658.5C486.667,636.167 486.333,613.833 486,591.5C484.099,586.698 481.432,582.364 478,578.5C466.193,590.118 456.86,603.452 450,618.5C442.43,641.085 445.096,662.418 458,682.5C468.48,698.982 482.647,711.149 500.5,719C509.092,722.197 517.758,725.197 526.5,728C528.31,730.644 530.31,733.144 532.5,735.5C534.958,733.545 537.291,731.378 539.5,729C551.729,724.552 563.729,719.552 575.5,714C609.977,691.694 623.477,660.194 616,619.5C609.168,602.989 598.835,588.989 585,577.5C581.493,582.51 578.493,587.843 576,593.5C575.667,615.167 575.333,636.833 575,658.5C572.193,665.392 567.36,667.225 560.5,664C559.299,663.097 558.465,661.931 558,660.5C557.333,636.5 557.333,612.5 558,588.5C571.56,553.389 590.227,550.389 614,579.5C644.617,619.812 645.284,660.812 616,702.5C599.244,724.297 577.411,738.131 550.5,744C546.391,745.709 542.725,747.876 539.5,750.5L539.5,902.5C546.342,902.039 553.009,902.872 559.5,905C562.433,907.264 564.6,910.098 566,913.5C566.667,930.167 566.667,946.833 566,963.5C564.257,968.91 560.757,972.744 555.5,975C546.558,976.108 537.558,976.608 528.5,976.5C520.833,976.333 513.167,976.167 505.5,976C499.508,973.341 495.675,968.841 494,962.5C493.044,945.767 493.377,929.1 495,912.5C496.833,908 500,904.833 504.5,903C509.823,902.501 515.156,902.334 520.5,902.5ZM511.5,921.5L511.5,957.5L548.5,957.5L548.5,921.5L511.5,921.5ZM409.5,444.5C412.591,461.184 420.258,475.351 432.5,487C447.631,500.564 465.298,508.731 485.5,511.5C490.294,512.73 495.294,513.563 500.5,514C532.821,516.001 564.821,513.668 596.5,507C634.697,496.377 673.03,486.377 711.5,477C723.39,474.407 735.39,472.574 747.5,471.5C761.156,470.481 774.823,470.314 788.5,471C774.705,456.888 760.371,443.388 745.5,430.5C714.162,404.653 679.495,384.153 641.5,369C612.413,360.323 582.746,357.323 552.5,360C514.946,365.246 487.779,384.746 471,418.5C468.379,425.319 466.546,432.319 465.5,439.5C463.314,453.721 465.48,467.388 472,480.5C476.274,483.587 479.107,487.587 480.5,492.5C479.46,502.557 474.46,505.391 465.5,501C455.2,490.566 449.033,478.066 447,463.5C446.5,455.841 446.334,448.174 446.5,440.5C452.686,399.628 474.352,370.128 511.5,352C537.084,341.066 563.751,337.066 591.5,340C633.646,343.381 672.312,356.715 707.5,380C749.513,405.663 785.679,438.163 816,477.5C817.858,483.581 816.025,488.081 810.5,491C787.507,490.587 764.507,490.587 741.5,491C730.4,492.461 719.4,494.461 708.5,497C677.451,505.179 646.451,513.512 615.5,522C585.801,529.589 555.634,533.756 525,534.5C503.447,534.462 482.281,531.628 461.5,526C422.948,511.123 399.114,483.623 390,443.5C387.339,406.156 393.006,370.156 407,335.5C420.575,308.588 440.408,287.421 466.5,272C473.52,265.127 478.353,256.961 481,247.5C485.134,228.44 483.8,209.773 477,191.5C463.754,165.729 442.587,154.229 413.5,157C403.456,159.61 393.956,163.443 385,168.5C383.342,171.924 383.675,175.258 386,178.5C389.114,181.296 392.281,183.962 395.5,186.5C391.384,190.457 392.217,191.457 398,189.5C408.677,192.162 410.844,197.828 404.5,206.5C376.561,221.452 361.561,244.786 359.5,276.5C360.001,287.506 362.834,297.84 368,307.5C368.667,310.167 368.667,312.833 368,315.5C367.5,317.333 366.333,318.5 364.5,319C355.353,320.509 347.02,318.509 339.5,313C313.205,297.383 295.039,275.217 285,246.5C280.006,227.131 283.006,209.131 294,192.5L303,180.5C306.521,177.791 310.354,175.791 314.5,174.5C316.389,163.055 321.223,153.055 329,144.5C353.043,118.151 383.043,104.484 419,103.5C466.558,104.434 500.891,126.101 522,168.5C541.904,213.712 539.571,257.712 515,300.5C512.203,304.299 509.036,307.799 505.5,311C489.142,322.513 473.142,334.513 457.5,347C436.563,365.59 420.73,387.757 410,413.5C406.836,423.787 406.67,434.121 409.5,444.5ZM376.5,193.5C373.958,199.398 370.292,204.565 365.5,209C356.304,214.766 346.638,219.766 336.5,224C330.151,229.189 325.651,235.689 323,243.5C320.264,264.33 327.097,280.996 343.5,293.5C339.779,280.581 339.612,267.248 343,253.5C346.837,241.995 351.837,230.995 358,220.5C364.834,211.161 373.334,203.828 383.5,198.5C381.408,196.395 379.075,194.728 376.5,193.5ZM411.5,122.5C400.246,124.301 389.246,127.468 378.5,132C353.758,142.408 336.924,160.241 328,185.5C325.736,188.433 322.902,190.6 319.5,192C308.144,201.712 302.144,214.046 301.5,229C302.187,239.915 304.687,250.415 309,260.5C308.478,252.873 308.478,245.206 309,237.5C310.19,232.787 312.19,228.453 315,224.5C324.189,213.301 335.689,205.134 349.5,200C354.947,195.854 360.114,191.354 365,186.5C366.219,179.579 366.886,172.579 367,165.5C367.36,163.392 368.027,161.392 369,159.5C379.952,147.774 393.452,140.941 409.5,139C448.337,134.927 476.504,150.094 494,184.5C507.617,218.203 504.617,250.203 485,280.5C472.925,290.453 460.758,300.287 448.5,310C435.913,322.687 427.079,337.52 422,354.5C439.503,334.656 459.669,318.156 482.5,305C494.463,296.919 502.963,286.085 508,272.5C517.111,244.377 517.778,216.044 510,187.5C492.699,142.425 459.866,120.759 411.5,122.5ZM512.5,440.5C508.349,446.737 506.183,453.737 506,461.5C503.794,468.854 498.961,471.354 491.5,469L488,465.5C486.979,457.919 487.813,450.585 490.5,443.5C506.555,402.294 535.722,388.294 578,401.5C581.589,409.154 579.089,413.987 570.5,416C561.517,415.616 552.517,415.616 543.5,416C529.148,419.196 518.815,427.363 512.5,440.5ZM705.5,429.5C703.452,434.36 699.785,437.027 694.5,437.5C690.737,436.299 687.07,434.799 683.5,433C674.665,427.415 665.665,422.081 656.5,417L651,411.5C649.474,403.533 652.641,398.867 660.5,397.5C673.91,404.709 687.243,412.209 700.5,420C703.892,422.285 705.559,425.452 705.5,429.5ZM683.5,463.5C682.723,466.112 681.056,467.945 678.5,469C660.5,476 642.167,482 623.5,487C606.057,488.939 589.057,487.106 572.5,481.5C570.897,480.404 569.397,479.07 568,477.5C565.167,465.667 569.667,461.167 581.5,464C598.446,469.31 615.446,469.643 632.5,465C646.158,460.339 659.824,455.839 673.5,451.5C681.507,451.512 684.84,455.512 683.5,463.5ZM528.5,559.5C533.55,559.274 537.383,561.274 540,565.5C540.667,585.833 540.667,606.167 540,626.5C536.221,633.778 530.721,635.278 523.5,631C522.874,630.25 522.374,629.416 522,628.5C521.333,607.5 521.333,586.5 522,565.5C523.494,562.686 525.66,560.686 528.5,559.5Z"/>
    </g>
</svg>
