<?xml version="1.0" encoding="UTF-8" standalone="no"?>
<!DOCTYPE svg PUBLIC "-//W3C//DTD SVG 1.1//EN" "http://www.w3.org/Graphics/SVG/1.1/DTD/svg11.dtd">
<svg width="100%" height="100%" viewBox="0 0 1024 1024" version="1.1" xmlns="http://www.w3.org/2000/svg" xmlns:xlink="http://www.w3.org/1999/xlink" xml:space="preserve" xmlns:serif="http://www.serif.com/" style="fill-rule:evenodd;clip-rule:evenodd;stroke-linejoin:round;stroke-miterlimit:2;">
    <g transform="matrix(1.32643,0,0,1.32643,-167.797,-193.754)">
        <path d="M131.5,555.5C120.425,524.088 127.758,497.588 153.5,476C180.53,455.482 207.197,434.482 233.5,413C270.854,383.669 313.187,365.169 360.5,357.5C366.484,347.872 373.651,339.205 382,331.5C385.363,326.65 388.863,321.983 392.5,317.5C394.82,311.674 398.82,307.507 404.5,305C458.927,305.728 512.26,313.728 564.5,329C625.313,349.135 675.813,383.968 716,433.5C721.323,448.228 717.823,460.394 705.5,470C700.228,472.941 695.228,476.274 690.5,480C691.901,480.41 693.234,480.91 694.5,481.5C703.055,481.723 711.389,480.556 719.5,478C751.205,463.568 779.372,444.068 804,419.5C814.578,406.02 823.911,391.686 832,376.5C845.094,367.798 855.094,370.465 862,384.5C867.143,410.739 873.976,436.406 882.5,461.5C888.457,482.659 893.79,503.993 898.5,525.5C897.301,534.296 895.468,542.963 893,551.5C881.286,584.354 871.119,617.687 862.5,651.5C858.702,668.623 856.535,685.956 856,703.5C850.14,714.005 841.974,716.172 831.5,710L826,704.5C810.876,664.386 784.709,633.886 747.5,613C736.979,608.067 725.979,604.901 714.5,603.5C706.813,604.448 699.147,605.614 691.5,607C698.573,617.41 706.406,627.243 715,636.5C720.94,646.968 720.606,657.301 714,667.5C649.511,727.181 573.011,757.181 484.5,757.5C447.848,762.13 412.514,756.963 378.5,742C373.711,736.044 367.378,733.377 359.5,734C333.979,724.739 309.645,713.072 286.5,699C250.772,676.272 216.439,651.605 183.5,625C165.396,608.573 149.896,590.073 137,569.5C134.866,564.928 133.033,560.261 131.5,555.5ZM411.5,326.5C404.947,336.061 397.614,345.061 389.5,353.5C394.12,354.493 398.786,354.827 403.5,354.5C448.35,351.889 492.35,357.389 535.5,371C554.757,378.197 574.09,385.197 593.5,392C596.772,393.608 599.772,395.608 602.5,398C607.801,404.302 613.468,410.302 619.5,416C626.262,420.758 632.429,426.258 638,432.5C639.783,438.067 642.117,443.401 645,448.5C650.371,457.871 657.704,465.204 667,470.5C677.676,465.665 687.343,459.332 696,451.5C698.076,448.783 698.743,445.783 698,442.5L672.5,417C634.295,380.892 589.628,356.225 538.5,343C496.668,333.619 454.335,328.119 411.5,326.5ZM705.5,501.5C681.728,503.804 661.395,496.47 644.5,479.5C625.522,458.022 605.689,437.355 585,417.5C584.088,415.341 583.255,413.175 582.5,411C528.006,385.501 470.672,373.168 410.5,374C424.85,387.343 437.35,402.177 448,418.5C477.781,472.657 487.615,530.323 477.5,591.5C471.208,620.425 457.875,645.425 437.5,666.5C411.907,690.001 381.574,700.834 346.5,699C354.748,702.457 362.748,706.457 370.5,711C375.091,712.864 379.757,714.53 384.5,716C429.803,723.242 474.47,720.409 518.5,707.5C542.612,699.281 565.946,689.114 588.5,677C611.562,663.372 632.062,646.539 650,626.5C651.368,621.601 652.368,616.601 653,611.5C653.561,609.275 654.561,607.275 656,605.5C670.167,593.032 686.667,585.532 705.5,583C734.112,582.723 759.279,591.89 781,610.5L782,609.5C789.939,587.87 794.439,565.537 795.5,542.5C796.222,515.647 787.722,492.313 770,472.5C763.574,476.295 757.407,480.462 751.5,485C737.476,494.174 722.143,499.674 705.5,501.5ZM499.5,562.5C491.314,558.093 489.481,551.76 494,543.5C494.816,542.177 495.983,541.511 497.5,541.5L687.5,541.5C693.653,540.347 699.986,540.18 706.5,541C713.526,542.878 716.026,547.378 714,554.5C712.609,558.725 709.776,561.392 705.5,562.5C636.776,563.814 568.109,563.814 499.5,562.5ZM392.5,383.5C388.589,380.624 384.755,377.624 381,374.5C348.187,379.26 316.687,388.427 286.5,402C261.811,416.686 238.811,433.686 217.5,453C201.167,465.333 184.833,477.667 168.5,490C157.679,498.492 150.512,509.325 147,522.5C146.075,532.139 147.408,541.472 151,550.5C153.119,554.402 154.952,558.402 156.5,562.5C186.373,604.712 224.706,636.712 271.5,658.5C291.905,666.411 312.571,667.244 333.5,661C382.31,643.531 404.143,609.031 399,557.5C396.667,548.167 394.333,538.833 392,529.5C390.738,506.176 395.905,484.342 407.5,464C414.401,460.024 420.568,460.858 426,466.5C425.792,473.471 424.126,480.137 421,486.5C417.168,493.162 414.168,500.162 412,507.5C411.333,514.167 411.333,520.833 412,527.5C420.692,549.199 422.858,571.533 418.5,594.5C412.872,617.759 401.538,637.759 384.5,654.5C378.709,659.234 372.709,663.734 366.5,668C361.964,671.268 356.964,673.435 351.5,674.5C348.442,676.132 345.109,677.299 341.5,678C391.845,681.755 427.679,660.921 449,615.5C457.316,592.769 461.15,569.269 460.5,545C461.236,480.973 438.57,427.14 392.5,383.5ZM245.5,463.5C272.318,462.496 290.484,474.496 300,499.5C304.12,520.478 297.62,537.311 280.5,550C253.283,563.9 230.117,559.067 211,535.5C196.777,509.461 201.61,487.961 225.5,471C231.878,467.379 238.545,464.879 245.5,463.5ZM243.5,484.5C234.184,487.651 228.017,493.984 225,503.5C222.985,520.981 230.485,531.815 247.5,536C269.058,538.431 279.891,528.931 280,507.5C274.52,489.561 262.354,481.895 243.5,484.5ZM248.5,495.5C258.568,494.734 263.735,499.401 264,509.5C261.623,518.084 256.123,520.918 247.5,518C241.823,514.364 239.99,509.197 242,502.5C243.694,499.642 245.861,497.309 248.5,495.5ZM476.5,735.5C473.359,736.321 470.025,736.821 466.5,737C472.016,737.817 477.35,737.651 482.5,736.5L503.5,736.5C557.555,733.65 607.555,717.816 653.5,689C668.667,677.833 683.833,666.667 699,655.5C699.257,652.983 698.59,650.65 697,648.5C692.312,641.114 687.145,634.114 681.5,627.5C679.066,624.303 676.399,621.303 673.5,618.5C670.006,626.834 665.839,634.834 661,642.5C652.634,652.032 643.801,661.032 634.5,669.5C588.96,705.425 537.293,727.425 479.5,735.5L476.5,735.5ZM794.5,469.5C805.159,485.308 811.992,502.642 815,521.5C817.897,556.723 812.73,590.723 799.5,623.5C807.81,634.311 816.31,644.977 825,655.5C829.333,662.833 833.667,670.167 838,677.5C838.866,667.768 840.2,658.101 842,648.5C850.476,616.411 860.142,584.744 871,553.5C872.481,548.226 873.648,542.893 874.5,537.5C876.241,534.518 877.241,531.185 877.5,527.5C870.915,498.494 863.082,469.827 854,441.5C850.137,426.178 846.804,410.845 844,395.5C830.641,422.356 811.475,444.022 786.5,460.5C789.409,463.344 792.076,466.344 794.5,469.5Z"/>
    </g>
</svg>
