<?xml version="1.0" encoding="UTF-8" standalone="no"?>
<!DOCTYPE svg PUBLIC "-//W3C//DTD SVG 1.1//EN" "http://www.w3.org/Graphics/SVG/1.1/DTD/svg11.dtd">
<svg width="100%" height="100%" viewBox="0 0 1024 1024" version="1.1" xmlns="http://www.w3.org/2000/svg" xmlns:xlink="http://www.w3.org/1999/xlink" xml:space="preserve" xmlns:serif="http://www.serif.com/" style="fill-rule:evenodd;clip-rule:evenodd;stroke-linejoin:round;stroke-miterlimit:2;">
    <g transform="matrix(1.37269,0,0,1.37269,-175.053,-166.015)">
        <path d="M630.5,581.5C608.884,585.723 587.051,588.056 565,588.5C496.733,586.833 447.066,555.833 416,495.5C401.087,459.647 395.421,422.314 399,383.5C401.76,377.703 406.26,375.537 412.5,377C415.333,378.5 417.5,380.667 419,383.5C414.962,423.303 421.962,460.97 440,496.5C464.533,536.636 500.366,559.47 547.5,565C601.855,567.33 653.521,556.663 702.5,533C708.36,530.576 713.693,527.409 718.5,523.5C710.016,507.865 701.016,492.532 691.5,477.5C686.686,479.771 681.686,481.438 676.5,482.5C645.788,493.941 613.955,499.941 581,500.5C549.473,501.803 520.973,493.303 495.5,475C484.756,466.262 476.256,455.762 470,443.5C468.639,429.338 474.305,425.671 487,432.5C499.07,452.813 516.57,466.313 539.5,473C564.587,479.236 589.92,480.236 615.5,476C636.262,471.143 656.928,465.976 677.5,460.5C679.09,460.372 680.423,459.705 681.5,458.5C669.486,436.468 657.486,414.468 645.5,392.5C645.043,391.702 644.376,391.369 643.5,391.5C613.526,401.877 582.859,409.711 551.5,415C526.664,417.419 503.33,412.752 481.5,401C463.044,389.594 452.544,373.094 450,351.5C449.333,338.167 449.333,324.833 450,311.5C451.981,301.932 457.481,298.765 466.5,302C468.049,303.214 469.215,304.714 470,306.5C470.333,321.5 470.667,336.5 471,351.5C474.323,369.16 484.49,380.993 501.5,387C516.629,393.008 532.295,395.008 548.5,393C556.885,391.991 565.218,390.658 573.5,389C593.984,383.963 614.317,378.463 634.5,372.5C616.847,337.172 596.681,303.505 574,271.5C559.5,253 543,236.5 524.5,222C520.102,218.606 515.435,215.606 510.5,213C504.676,207.416 504.009,201.25 508.5,194.5C513.584,191.759 518.584,191.926 523.5,195C558.875,220.374 588.041,251.541 611,288.5C618.252,300.001 625.252,311.668 632,323.5C660,374.833 688,426.167 716,477.5C724.748,492.666 733.748,507.666 743,522.5C785.478,581.044 828.978,638.544 873.5,695C873.6,698.804 871.934,701.471 868.5,703C863.5,703.667 858.5,703.667 853.5,703C825.974,696.703 798.974,688.703 772.5,679C757.183,671.679 742.517,663.346 728.5,654C695.65,629.97 662.984,605.803 630.5,581.5ZM746.5,561.5C740.815,555.305 735.648,548.638 731,541.5L727.5,545C704.153,556.719 680.153,566.552 655.5,574.5C682.569,593.396 709.236,612.896 735.5,633C744.833,639 754.167,645 763.5,651C784.435,661.729 806.435,669.062 829.5,673C800.821,636.502 773.155,599.335 746.5,561.5ZM759.5,808.5C727.549,773.95 696.049,738.95 665,703.5C662.333,699.5 659.667,695.5 657,691.5C657.264,679.281 663.098,675.448 674.5,680C684.616,693.614 695.616,706.448 707.5,718.5C709.087,721.268 710.92,723.935 713,726.5C732.112,746.112 750.279,766.445 767.5,787.5C772.825,794.157 778.491,800.49 784.5,806.5C796.457,824.125 812.124,828.291 831.5,819C841.943,809.06 844.776,797.226 840,783.5C837.81,779.778 835.644,776.111 833.5,772.5C814.919,751.051 796.086,729.718 777,708.5C774.495,704.989 772.661,701.156 771.5,697C772.397,691.936 775.397,689.103 780.5,688.5C783.865,688.787 786.865,689.954 789.5,692C811.519,714.839 832.185,738.672 851.5,763.5C861.899,775.553 865.733,789.553 863,805.5C858.269,825.898 845.769,838.731 825.5,844C807.673,847.39 792.006,843.057 778.5,831C771.557,823.901 765.224,816.401 759.5,808.5ZM278.5,550.5C254.113,495.628 245.613,438.295 253,378.5C256.148,354.409 260.648,330.575 266.5,307C265.701,302.9 264.201,299.066 262,295.5C256.034,285.215 249.701,275.215 243,265.5C213.623,276.126 184.123,286.459 154.5,296.5C183.291,315.736 212.624,334.236 242.5,352C250.697,362.009 248.53,368.509 236,371.5C227.205,368.712 219.372,364.212 212.5,358C190.5,344.667 168.5,331.333 146.5,318C139.942,313.981 134.108,309.147 129,303.5C126.508,297.083 127.174,291.083 131,285.5C142.832,279.671 154.999,274.504 167.5,270C191.88,260.763 216.38,251.929 241,243.5C246,243.628 250.5,245.128 254.5,248C261.548,257.275 268.215,266.775 274.5,276.5C300.572,214.932 345.238,173.099 408.5,151C452.326,138.016 495.326,140.349 537.5,158C542.796,168.232 539.629,174.066 528,175.5C436.465,150.119 363.465,176.119 309,253.5C302.991,263.516 297.491,273.849 292.5,284.5C334.163,285.333 375.829,285.833 417.5,286C426.812,290.933 427.812,297.266 420.5,305C418.913,305.862 417.246,306.529 415.5,307C373.501,307.5 331.501,307.667 289.5,307.5C275.727,351.135 269.894,395.802 272,441.5C273.24,457.665 275.574,473.665 279,489.5C283.002,503.672 287.502,517.672 292.5,531.5C330.322,620.643 395.988,678.309 489.5,704.5C515.058,711.175 541.058,715.008 567.5,716C597.87,716.441 628.203,715.775 658.5,714C665.652,719.223 666.319,725.223 660.5,732C658.913,732.862 657.246,733.529 655.5,734C622.561,737.404 589.561,738.238 556.5,736.5C556.667,753.837 556.5,771.17 556,788.5C546.01,799.99 535.177,810.656 523.5,820.5C525.045,821.452 526.712,821.785 528.5,821.5C542.837,821.333 557.171,821.5 571.5,822C576.085,825.31 577.585,829.81 576,835.5C574.719,839.237 572.219,841.737 568.5,843C488.999,843.832 409.666,843.666 330.5,842.5L329.5,842.5C323.565,838.071 322.065,832.404 325,825.5C326.214,823.951 327.714,822.785 329.5,822C355.498,821.5 381.498,821.333 407.5,821.5C419.629,807.537 432.629,794.37 446.5,782C447.448,781.517 448.448,781.351 449.5,781.5C449.333,766.83 449.5,752.163 450,737.5C453.04,731.397 457.874,729.231 464.5,731C467.428,732.26 469.261,734.427 470,737.5C470.667,754.833 470.667,772.167 470,789.5C468.262,793.241 465.762,796.408 462.5,799C453.602,806.075 445.269,813.575 437.5,821.5L492.5,821.5C499.709,815.121 506.543,808.121 513,800.5C519.382,793.615 526.216,787.282 533.5,781.5C534.499,765.848 534.833,750.181 534.5,734.5C494.628,731.539 457.294,720.539 422.5,701.5C374.588,678.429 335.755,644.763 306,600.5C295.537,584.577 286.371,567.911 278.5,550.5ZM792.5,803.5C789.575,803.54 786.909,802.707 784.5,801C762.424,777.939 741.424,754.106 721.5,729.5C717.686,723.568 717.686,717.735 721.5,712C724.366,710.543 727.366,710.21 730.5,711C733.63,713.128 736.463,715.628 739,718.5C758.667,740.833 778.333,763.167 798,785.5C801.053,790.616 801.22,795.783 798.5,801C796.593,802.122 794.593,802.955 792.5,803.5Z"/>
    </g>
</svg>
