<?xml version="1.0" encoding="UTF-8" standalone="no"?>
<!DOCTYPE svg PUBLIC "-//W3C//DTD SVG 1.1//EN" "http://www.w3.org/Graphics/SVG/1.1/DTD/svg11.dtd">
<svg width="100%" height="100%" viewBox="0 0 1024 1024" version="1.1" xmlns="http://www.w3.org/2000/svg" xmlns:xlink="http://www.w3.org/1999/xlink" xml:space="preserve" xmlns:serif="http://www.serif.com/" style="fill-rule:evenodd;clip-rule:evenodd;stroke-linejoin:round;stroke-miterlimit:2;">
    <g transform="matrix(1.16087,0,0,1.16087,-50.4614,-79.4651)">
        <path d="M695.5,607.5C693.408,610.681 691.075,613.681 688.5,616.5C677.138,627.199 666.805,638.865 657.5,651.5C654,654.831 650.334,657.998 646.5,661C641.643,663.21 636.976,662.877 632.5,660C622.64,646.974 612.974,633.807 603.5,620.5C601.833,620.167 600.167,619.833 598.5,619.5C574.451,622.964 550.451,625.297 526.5,626.5C511.959,643.585 496.959,660.252 481.5,676.5C475.292,678.205 469.292,677.705 463.5,675C448.468,660.3 433.135,645.967 417.5,632C412.972,629.858 408.305,629.358 403.5,630.5C398.917,638.485 393.251,645.652 386.5,652C379.49,656.114 373.323,655.28 368,649.5C362.291,640.581 356.458,631.748 350.5,623C250.5,622.667 150.5,622.333 50.5,622C45.498,619.824 43.165,615.991 43.5,610.5C44.139,607.677 45.473,605.177 47.5,603C108.167,602.667 168.833,602.333 229.5,602C212.576,597.47 195.909,592.136 179.5,586C170.726,582.447 162.393,578.114 154.5,573C132.833,572.667 111.167,572.333 89.5,572C71.691,566.938 60.191,555.438 55,537.5C53.747,519.752 61.247,507.252 77.5,500C80.793,499.174 84.126,498.674 87.5,498.5C123.04,501.004 158.04,497.838 192.5,489C201.951,486.606 210.951,483.106 219.5,478.5C253.412,454.743 291.079,439.909 332.5,434C345.121,432.11 357.787,430.61 370.5,429.5C377.515,421.154 384.848,413.154 392.5,405.5C416.712,378.127 441.045,350.961 465.5,324C470.938,319.557 476.938,318.557 483.5,321C485.81,322.637 487.31,324.804 488,327.5C484.977,361.079 493.311,391.412 513,418.5C518.198,424.033 523.698,429.2 529.5,434C538.088,435.82 546.755,437.32 555.5,438.5C590.925,444.785 626.258,451.452 661.5,458.5C662.242,455.191 663.909,452.357 666.5,450C674.897,443.94 683.563,438.273 692.5,433C701.115,430.52 706.948,433.354 710,441.5C713.308,454.418 716.808,467.251 720.5,480C738.941,487.925 757.941,494.258 777.5,499C795.518,500.831 812.851,498.331 829.5,491.5C839.682,484.828 848.849,476.828 857,467.5C873.947,448.897 890.78,430.397 907.5,412C912.944,409.716 918.11,410.216 923,413.5C924.044,415.715 924.71,418.048 925,420.5C925.5,427.492 925.666,434.492 925.5,441.5C925.667,524.501 925.5,607.501 925,690.5C924.768,691.737 924.268,692.737 923.5,693.5C923.548,696.292 922.215,698.125 919.5,699C911.187,700.343 905.187,697.176 901.5,689.5C875.377,660.542 848.71,632.042 821.5,604C809.226,595.37 795.559,590.37 780.5,589C754.781,586.689 730.115,590.689 706.5,601C703.135,603.682 699.469,605.849 695.5,607.5ZM690.5,457.5C686.742,460.557 682.742,463.39 678.5,466C684.176,466.947 689.51,468.781 694.5,471.5L695.5,470.5C693.814,467.262 692.814,463.762 692.5,460C692.316,458.624 691.649,457.791 690.5,457.5ZM453.5,575.5C444.478,587.7 434.478,599.2 423.5,610C440.635,625.467 457.469,641.3 474,657.5C476.248,654.672 478.248,651.672 480,648.5C487.932,640.575 495.098,632.075 501.5,623C485.581,606.913 469.581,591.08 453.5,575.5ZM377.5,623.5C378.891,625.921 379.725,628.588 380,631.5C381.001,628.827 382.501,626.493 384.5,624.5C382.415,624.528 380.081,624.195 377.5,623.5ZM167.5,513.5C159.73,515.497 151.73,516.997 143.5,518C123.124,518.06 102.791,518.727 82.5,520C79.228,521.693 76.728,524.193 75,527.5C75.085,538.952 80.251,547.452 90.5,553C109.342,553.731 128.176,553.564 147,552.5C151.222,552.559 155.389,553.059 159.5,554C236.778,591.397 318.444,608.397 404.5,605C415.623,590.875 427.123,577.041 439,563.5C445.116,554.521 453.282,552.021 463.5,556C479.478,573.644 496.478,590.311 514.5,606C541.167,605.056 567.833,603.889 594.5,602.5C592.858,596.967 593.358,591.633 596,586.5C602.635,580.659 607.968,581.659 612,589.5C612.189,594.346 613.189,599.012 615,603.5C624.008,614.671 633.175,625.671 642.5,636.5C653.124,625.24 662.791,613.24 671.5,600.5C670.417,600.539 669.417,600.873 668.5,601.5C660.545,595.625 660.545,589.792 668.5,584C674.161,583.157 679.161,584.657 683.5,588.5C684.75,584.254 685.583,579.921 686,575.5C686.833,573.333 688.333,571.833 690.5,571C698.163,570.995 702.329,574.828 703,582.5C716.415,575.936 730.581,571.769 745.5,570C780.062,564.057 811.062,571.724 838.5,593C855.373,611.037 872.039,629.204 888.5,647.5C893.5,652.833 898.5,658.167 903.5,663.5C904.167,591.5 904.833,519.5 905.5,447.5C905.657,446.127 905.49,444.793 905,443.5C887.95,464.219 869.117,483.385 848.5,501L841.5,504.5C833.712,510.225 825.046,514.059 815.5,516C796.416,520.838 777.416,520.505 758.5,515C726.254,503.375 693.92,492.041 661.5,481C566.185,455.294 469.185,444.628 370.5,449C341.522,450.996 313.189,456.329 285.5,465C275.065,468.366 265.065,472.699 255.5,478C243.834,485.835 231.834,493.169 219.5,500C204.404,505.107 189.071,509.274 173.5,512.5C171.735,513.461 169.735,513.795 167.5,513.5ZM356.5,513.5C365.714,526.35 368.88,540.684 366,556.5C363.917,566.831 359.084,575.665 351.5,583C344.706,585.936 340.039,583.936 337.5,577C340.12,572.261 342.62,567.427 345,562.5C348.462,549.113 348.295,535.78 344.5,522.5C342.839,518.557 341.173,514.557 339.5,510.5C340.502,506.329 342.002,502.329 344,498.5C344.903,497.299 346.069,496.465 347.5,496C364.427,493.973 381.427,493.139 398.5,493.5C511.574,494.217 622.907,508.384 732.5,536C736.305,540.091 737.472,544.924 736,550.5C732.692,554.327 728.526,555.494 723.5,554C602.889,523.892 480.555,510.392 356.5,513.5ZM305.5,505.5C312.165,505.295 316.998,508.295 320,514.5C330.788,533.395 331.122,552.395 321,571.5C317.579,576.615 312.912,579.615 307,580.5C302.318,581.479 299.484,579.646 298.5,575C299.783,570.93 301.95,567.43 305,564.5C309.997,556.843 311.664,548.51 310,539.5C307.322,530.63 304.155,521.963 300.5,513.5C300.672,509.807 302.339,507.141 305.5,505.5ZM265.5,506.5C283.627,505.795 292.794,514.462 293,532.5C289.033,546.24 279.867,552.74 265.5,552C246.13,544.89 241.63,532.39 252,514.5C255.897,510.641 260.397,507.975 265.5,506.5ZM267.5,521.5C264.964,524.007 264.131,527.007 265,530.5C269.128,535.944 272.795,535.611 276,529.5C275.964,523.966 273.131,521.299 267.5,521.5ZM410.5,413.5C406.833,417.5 403.167,421.5 399.5,425.5C398.064,426.429 396.731,427.595 395.5,429C421.708,428.171 447.789,428.653 473.742,430.447C473.991,430.446 474.244,430.464 474.5,430.5C482.178,430.848 489.845,431.015 497.5,431C493.301,426.101 489.468,420.934 486,415.5C475.166,394.496 469.499,372.163 469,348.5C463.825,354.864 458.658,361.197 453.5,367.5C439.139,382.859 424.805,398.193 410.5,413.5Z"/>
    </g>
</svg>
