<?xml version="1.0" encoding="UTF-8" standalone="no"?>
<!DOCTYPE svg PUBLIC "-//W3C//DTD SVG 1.1//EN" "http://www.w3.org/Graphics/SVG/1.1/DTD/svg11.dtd">
<svg width="100%" height="100%" viewBox="0 0 1024 1024" version="1.1" xmlns="http://www.w3.org/2000/svg" xmlns:xlink="http://www.w3.org/1999/xlink" xml:space="preserve" xmlns:serif="http://www.serif.com/" style="fill-rule:evenodd;clip-rule:evenodd;stroke-linejoin:round;stroke-miterlimit:2;">
    <g transform="matrix(1.35912,0,0,1.35912,-181.247,-266.385)">
        <path d="M600.5,698.5C571.163,714.165 539.83,723.831 506.5,727.5C506.829,778.542 506.495,829.542 505.5,880.5C514.482,881.332 523.482,881.832 532.5,882C545.493,884.995 553.993,892.828 558,905.5C558.5,913.159 558.666,920.826 558.5,928.5C577.836,928.333 597.17,928.5 616.5,929C617.931,929.465 619.097,930.299 620,931.5C626.602,928.234 633.435,927.734 640.5,930C644.575,935.896 644.242,941.562 639.5,947C634.618,948.555 629.618,948.888 624.5,948C622.695,947.028 621.028,945.861 619.5,944.5C617.869,946.297 615.869,947.464 613.5,948C492.833,948.667 372.167,948.667 251.5,948C246.605,945.899 244.272,942.066 244.5,936.5C244.549,932.896 246.216,930.396 249.5,929C303.166,928.5 356.832,928.333 410.5,928.5C409.182,861.614 409.182,794.781 410.5,728C369.278,720.038 330.611,705.371 294.5,684C283.418,676.709 272.252,669.542 261,662.5C250.733,669.383 239.566,674.216 227.5,677C203.957,678.454 191.291,667.454 189.5,644C193.792,618.663 202.292,594.83 215,572.5C260.557,497.269 326.39,449.769 412.5,430C486.876,416.548 552.709,434.048 610,482.5C617.728,490.391 624.894,498.725 631.5,507.5C632.243,506.092 633.077,504.759 634,503.5C634.5,450.501 634.667,397.501 634.5,344.5C624.66,339.999 616.994,332.999 611.5,323.5C598.538,304.428 594.372,283.428 599,260.5C613.63,217.263 643.797,195.763 689.5,196C714.864,198.264 735.697,209.097 752,228.5C755.887,233.939 758.387,239.939 759.5,246.5C774.17,246.333 788.837,246.5 803.5,247C812.03,248.394 819.53,251.894 826,257.5C834.864,273.908 831.031,286.408 814.5,295C810.58,296.313 806.58,297.313 802.5,298C789.833,298.667 777.167,298.667 764.5,298C762.444,297.689 760.444,297.189 758.5,296.5C750.158,317.011 735.825,331.844 715.5,341C707.027,344.214 698.361,346.714 689.5,348.5L683.5,348.5C683.333,399.501 683.5,450.501 684,501.5C689.111,510.06 693.944,518.726 698.5,527.5C701.268,533.576 702.601,540.076 702.5,547C698.069,591.853 680.402,630.52 649.5,663C641.463,670.705 633.13,678.039 624.5,685C616.931,690.284 608.931,694.784 600.5,698.5ZM637.5,321.5C643.393,325.702 649.226,330.036 655,334.5C655.5,345.495 655.667,356.495 655.5,367.5L655.5,391.5C655.667,429.501 655.5,467.501 655,505.5C653.151,514.019 648.651,520.853 641.5,526C634.878,531.037 627.878,531.704 620.5,528C614.4,521.624 608.9,514.79 604,507.5C572.33,474.14 533.496,454.64 487.5,449C420.964,443.245 361.297,460.412 308.5,500.5C303.841,503.168 299.508,506.335 295.5,510C273.441,529.386 254.275,551.219 238,575.5C225.68,595.289 217.18,616.622 212.5,639.5C211.411,643.078 211.245,646.745 212,650.5C212.5,652.333 213.667,653.5 215.5,654C221.558,654.739 227.558,654.406 233.5,653C240.167,649.667 246.833,646.333 253.5,643C259.962,640.829 266.295,641.162 272.5,644C282.896,651.393 293.563,658.393 304.5,665C308.066,667.201 311.9,668.701 316,669.5C324.289,665.273 332.789,661.44 341.5,658C357.13,657.668 372.463,659.168 387.5,662.5C425.798,664.047 463.131,658.88 499.5,647C506.167,646.667 512.833,646.333 519.5,646C554.105,638.223 576.105,617.389 585.5,583.5C586.518,570.273 583.685,557.939 577,546.5C564.658,526.657 547.825,511.99 526.5,502.5C519.632,493.071 521.799,486.737 533,483.5C537.739,484.286 542.239,485.786 546.5,488C560.989,496.834 573.823,507.668 585,520.5C591.95,528.956 597.45,538.29 601.5,548.5C608.277,567.866 608.111,587.199 601,606.5C579.207,648.155 544.707,668.988 497.5,669C491.036,671.898 484.37,674.231 477.5,676C442.535,683.985 407.202,686.152 371.5,682.5C364.535,681.375 357.535,680.375 350.5,679.5C345.622,679.553 340.956,680.553 336.5,682.5C381.977,702.828 429.644,711.661 479.5,709C525.508,706.673 568.175,693.84 607.5,670.5C646.539,643.552 670.705,606.552 680,559.5C683.419,543.825 679.419,530.491 668,519.5C665.842,514.841 664.009,510.175 662.5,505.5L662.5,343.5C662.972,338.305 663.972,333.138 665.5,328C672.755,326.775 680.089,326.108 687.5,326C709.585,323.726 725.752,312.893 736,293.5C736.059,286.519 738.559,280.686 743.5,276C765.174,275.833 786.841,275.333 808.5,274.5C807.652,272.591 807.318,270.591 807.5,268.5C788.463,268.906 769.463,268.406 750.5,267C748.714,266.215 747.214,265.049 746,263.5C742.78,255.392 738.78,247.726 734,240.5C729.569,235.194 724.403,230.694 718.5,227C677.665,208.058 645.831,217.891 623,256.5C614.132,281.283 618.965,302.95 637.5,321.5ZM431.5,460.5C435.182,460.335 438.848,460.501 442.5,461C449.709,466.146 450.376,472.146 444.5,479C423.195,482.768 403.195,490.102 384.5,501C374.239,507.926 366.073,516.76 360,527.5C349.221,534.362 343.054,531.362 341.5,518.5C341.51,513.635 343.01,509.302 346,505.5C369.689,481.405 398.189,466.405 431.5,460.5ZM694.5,240.5C707.958,238.546 716.291,244.046 719.5,257C718.993,265.175 714.659,269.842 706.5,271C690.075,273.242 682.908,266.075 685,249.5C686.167,247.667 687.333,245.833 688.5,244C690.727,243.059 692.727,241.892 694.5,240.5ZM485.5,897.5L485.5,729.5C483.139,729.326 480.806,728.993 478.5,728.5L478.5,903.5L431.5,903.5L431.5,928.5L537.5,928.5C537.666,921.825 537.5,915.158 537,908.5C536.293,906.919 535.46,905.419 534.5,904C519.833,903.667 505.167,903.333 490.5,903C487.887,901.893 486.22,900.06 485.5,897.5ZM431.5,729.5L431.5,881.5L457.5,881.5L457.5,731.5C448.861,730.503 440.194,729.837 431.5,729.5ZM702.5,928.5C708.621,928.09 714.621,928.59 720.5,930C724.104,935.229 724.437,940.729 721.5,946.5C720.975,947.192 720.308,947.692 719.5,948C701.2,951.885 695.533,945.385 702.5,928.5ZM732.5,928.5C748.17,928.333 763.837,928.5 779.5,929C785.166,932.507 786.666,937.341 784,943.5C782.457,945.378 780.624,946.878 778.5,948C763.223,948.051 747.89,948.051 732.5,948C729.405,945.636 728.071,942.469 728.5,938.5C728.112,934.301 729.446,930.967 732.5,928.5ZM660.5,928.5C666.509,928.334 672.509,928.501 678.5,929C683.232,934.035 683.732,939.535 680,945.5C678.829,946.893 677.329,947.727 675.5,948C661.843,952.129 655.343,947.295 656,933.5C657.059,931.341 658.559,929.674 660.5,928.5ZM202.5,928.5C210.611,928.065 218.611,928.565 226.5,930C229.909,934.447 230.409,939.281 228,944.5C226.786,946.049 225.286,947.215 223.5,948C216.833,948.667 210.167,948.667 203.5,948C196.07,941.602 195.737,935.102 202.5,928.5Z"/>
    </g>
</svg>
