<?xml version="1.0" encoding="UTF-8" standalone="no"?>
<!DOCTYPE svg PUBLIC "-//W3C//DTD SVG 1.1//EN" "http://www.w3.org/Graphics/SVG/1.1/DTD/svg11.dtd">
<svg width="100%" height="100%" viewBox="0 0 1024 1024" version="1.1" xmlns="http://www.w3.org/2000/svg" xmlns:xlink="http://www.w3.org/1999/xlink" xml:space="preserve" xmlns:serif="http://www.serif.com/" style="fill-rule:evenodd;clip-rule:evenodd;stroke-linejoin:round;stroke-miterlimit:2;">
    <g transform="matrix(1.49608,0,0,1.49608,-184.599,-202.171)">
        <path d="M567.5,135.5C614.175,132.742 655.841,145.575 692.5,174L711,192.5C713.527,196.221 715.527,200.221 717,204.5C730.144,214.646 742.311,225.813 753.5,238C762.274,244.473 770.774,251.307 779,258.5C782.565,264.59 781.399,269.757 775.5,274C762.516,283.826 749.183,293.159 735.5,302C724.118,308.024 712.118,312.357 699.5,315C710.578,328.76 720.078,343.594 728,359.5C736.044,379.072 738.711,399.405 736,420.5C730.025,461.751 718.025,501.084 700,538.5C674.16,583.002 637.993,616.502 591.5,639C586.681,641.329 581.681,643.162 576.5,644.5C598.407,655.953 620.407,667.12 642.5,678C646.167,680.333 649.833,682.667 653.5,685C660.277,692.59 659.944,699.923 652.5,707C647.382,707.888 642.382,707.555 637.5,706C634.377,702.387 631.044,699.054 627.5,696C600.072,683.785 573.072,670.785 546.5,657C537.011,652.855 533.178,645.688 535,635.5C535.785,633.714 536.951,632.214 538.5,631C568.267,625.941 595.267,614.608 619.5,597C644.645,577.524 665.145,554.024 681,526.5C698.213,489.184 708.713,450.017 712.5,409C713.819,391.118 710.319,374.284 702,358.5C693.982,345.13 684.982,332.464 675,320.5C672.746,316.993 670.746,313.327 669,309.5C668.667,286.167 668.333,262.833 668,239.5C666.693,228.722 662.526,219.222 655.5,211C650.655,207.578 645.322,205.245 639.5,204C621.067,201.962 602.567,200.795 584,200.5C575.067,199.775 566.9,201.942 559.5,207C523.3,232.404 503.3,267.237 499.5,311.5C562.803,298.985 614.303,317.985 654,368.5C679.699,408.263 684.699,450.597 669,495.5C653.643,536.524 626.143,566.357 586.5,585C550.519,600.963 512.852,608.796 473.5,608.5C473.658,618.813 477.158,627.813 484,635.5C501.088,652.917 517.755,670.584 534,688.5C537.849,695.566 536.683,701.733 530.5,707C519.894,710.28 512.728,706.78 509,696.5C493.262,678.768 477.262,661.101 461,643.5C455.185,632.574 452.018,620.907 451.5,608.5C444.767,608.156 438.101,607.656 431.5,607C424.609,622.673 419.109,638.84 415,655.5C406.098,699.439 396.098,743.106 385,786.5C373.502,811.503 354.002,822.337 326.5,819C307.045,813.737 296.711,801.237 295.5,781.5C275.875,783.936 259.708,777.602 247,762.5C235.673,744.556 235.673,726.556 247,708.5C270.583,673.751 294.75,639.418 319.5,605.5C290.759,613.421 261.426,619.921 231.5,625C215.199,626.536 198.866,626.869 182.5,626C169.818,624.55 157.818,620.884 146.5,615C139.307,611.759 136.474,606.259 138,598.5C194.958,565.54 249.791,529.374 302.5,490C335.866,461.974 368.033,432.474 399,401.5C415.089,383.415 430.422,364.748 445,345.5C451.779,338.55 459.279,332.55 467.5,327.5C468.067,298.145 468.9,268.812 470,239.5C475.149,215.014 485.816,193.348 502,174.5C509.863,166.302 518.03,158.469 526.5,151C539.15,142.953 552.817,137.786 567.5,135.5ZM572.5,157.5C567.596,158.474 562.596,159.64 557.5,161C543.155,166.763 530.989,175.596 521,187.5C503.991,205.855 494.324,227.522 492,252.5C494.466,246.783 497.133,241.116 500,235.5C509.349,222.143 520.182,209.977 532.5,199C542.346,190.075 553.679,183.742 566.5,180C596.612,176.727 626.279,179.06 655.5,187C664.738,190.969 674.071,194.302 683.5,197C651.977,169.099 614.977,155.932 572.5,157.5ZM679.5,213.5C682.075,214.568 684.242,216.235 686,218.5C690.884,227.206 692.717,236.539 691.5,246.5C705.249,246.371 718.916,246.537 732.5,247C720.919,238.756 709.919,229.756 699.5,220C693.03,218.179 686.863,215.679 681,212.5C680.235,212.57 679.735,212.903 679.5,213.5ZM517.5,329.5C493.848,334.945 474.014,346.945 458,365.5C447.333,378.833 436.667,392.167 426,405.5C392.191,440.149 357.024,473.149 320.5,504.5C340.249,519.54 362.249,530.04 386.5,536C438.773,546.569 490.44,544.235 541.5,529C567.364,521.793 586.697,506.459 599.5,483C602.205,481.128 605.205,480.295 608.5,480.5C617.83,480.659 621.996,485.326 621,494.5C605.452,519.522 583.952,537.355 556.5,548C515.948,561.69 474.281,567.023 431.5,564C382.585,563.919 339.085,548.753 301,518.5C261.452,548.362 220.285,575.862 177.5,601C179.285,602.163 181.285,602.83 183.5,603C189.632,603.911 195.799,604.411 202,604.5C235.038,601.784 267.538,595.95 299.5,587C321.564,579.534 343.564,571.867 365.5,564C367.5,563.333 369.5,563.333 371.5,564C377.443,568.957 377.943,574.457 373,580.5C363.325,590.509 353.992,600.842 345,611.5C318.453,644.713 293.453,679.046 270,714.5C266.806,719.554 264.139,724.888 262,730.5C260.169,744.347 265.669,753.847 278.5,759C288.375,761.269 295.875,758.102 301,749.5C307.48,734.382 314.147,719.382 321,704.5C324.016,700.908 327.849,698.742 332.5,698C338.54,697.189 342.54,699.689 344.5,705.5C336.499,725.838 327.666,745.838 318,765.5C313.088,776.674 315.255,786.174 324.5,794C336.157,799.534 346.823,798.034 356.5,789.5C363.657,780.839 367.824,770.839 369,759.5C377.916,717.416 387.249,675.416 397,633.5C401.432,619.967 406.432,606.634 412,593.5C413.302,589.726 415.469,586.559 418.5,584C430.211,583.64 441.878,584.307 453.5,586C497.035,589.092 538.701,581.759 578.5,564C607.333,549.833 628.833,528.333 643,499.5C660.591,458.388 657.924,418.721 635,380.5C605.074,342.891 565.907,325.891 517.5,329.5ZM691.5,267.5L691.5,293.5C695.553,292.987 699.553,292.154 703.5,291C718.527,285.656 732.193,277.989 744.5,268C726.836,267.5 709.17,267.333 691.5,267.5ZM609.5,222.5C627.242,222.927 636.409,231.927 637,249.5C632.635,264.187 622.801,270.687 607.5,269C594.733,264.308 588.899,255.141 590,241.5C593.086,231.579 599.586,225.246 609.5,222.5ZM487.5,709.5C506.208,709.081 524.875,709.581 543.5,711C551.444,714.514 553.611,720.348 550,728.5C548.681,730.487 546.848,731.654 544.5,732C510.833,732.667 477.167,732.667 443.5,732C437.467,728.593 435.301,723.427 437,716.5C437.707,714.919 438.54,713.419 439.5,712C455.58,710.863 471.58,710.03 487.5,709.5ZM623.5,709.5C662.497,710.093 701.497,710.593 740.5,711C742.667,711.833 744.167,713.333 745,715.5C745.791,719.926 745.457,724.259 744,728.5C742.786,730.049 741.286,731.215 739.5,732C688.833,732.667 638.167,732.667 587.5,732C580.134,729.442 577.301,724.275 579,716.5C580.122,714.376 581.622,712.543 583.5,711C597.006,710.831 610.34,710.331 623.5,709.5ZM780.5,712.5C791.176,712.328 795.343,717.328 793,727.5C786.819,735.436 780.819,735.436 775,727.5C772.958,720.873 774.792,715.873 780.5,712.5Z"/>
    </g>
</svg>
