<?xml version="1.0" encoding="UTF-8" standalone="no"?>
<!DOCTYPE svg PUBLIC "-//W3C//DTD SVG 1.1//EN" "http://www.w3.org/Graphics/SVG/1.1/DTD/svg11.dtd">
<svg width="100%" height="100%" viewBox="0 0 1024 1024" version="1.1" xmlns="http://www.w3.org/2000/svg" xmlns:xlink="http://www.w3.org/1999/xlink" xml:space="preserve" xmlns:serif="http://www.serif.com/" style="fill-rule:evenodd;clip-rule:evenodd;stroke-linejoin:round;stroke-miterlimit:2;">
    <g transform="matrix(1.2186,0,0,1.2186,-126.8,-84.5989)">
        <path d="M235.5,555.5C216.864,570.637 200.03,587.637 185,606.5C181.567,611.597 178.567,616.931 176,622.5C175.667,629.167 175.333,635.833 175,642.5C173.675,651.003 168.842,656.17 160.5,658C146.833,658.667 133.167,658.667 119.5,658C111.427,655.928 106.927,650.761 106,642.5C99.445,567.136 109.445,494.136 136,423.5C176.359,323.042 250.859,272.376 359.5,271.5C410.354,272.622 456.687,287.455 498.5,316C502.611,316.465 506.611,315.965 510.5,314.5C583.11,294.599 652.11,303.433 717.5,341C757.545,365.7 792.711,396.2 823,432.5C828.684,437.865 828.85,443.365 823.5,449C820.366,449.79 817.366,449.457 814.5,448C785.096,411.593 750.43,381.259 710.5,357C647.693,320.858 581.36,312.358 511.5,331.5C508.762,333.732 506.095,336.232 503.5,339C500.167,339.667 496.833,339.667 493.5,339C478.288,328.141 462.288,318.474 445.5,310C381.925,285.502 318.925,286.836 256.5,314C236.413,323.92 218.747,337.087 203.5,353.5C186.02,370.842 172.186,390.842 162,413.5C147.522,444.08 137.689,476.08 132.5,509.5C129.166,523.855 126.999,538.522 126,553.5C125.5,581.498 125.333,609.498 125.5,637.5L154.5,637.5C151.736,599.154 158.903,562.821 176,528.5C185.509,512.306 197.675,498.473 212.5,487C229.5,477.333 246.5,467.667 263.5,458C282.509,444.656 297.676,427.823 309,407.5C311.535,397.694 314.535,388.027 318,378.5C324.667,371.833 331.333,371.833 338,378.5C339.132,387.282 337.632,395.615 333.5,403.5C360.462,400.308 370.628,385.308 364,358.5C355.644,339.569 341.144,331.402 320.5,334C315.628,335.103 310.962,336.77 306.5,339C296.596,339.403 292.763,334.569 295,324.5C295.667,323.167 296.333,321.833 297,320.5C318.838,310.466 340.338,311.299 361.5,323C388.218,344.147 394.051,369.98 379,400.5C370.905,411.924 360.072,419.424 346.5,423C337.894,425.152 329.228,426.985 320.5,428.5C307.645,447.522 291.645,463.355 272.5,476C256.842,484.16 241.509,492.827 226.5,502C198.84,523.477 182.673,551.643 178,586.5C196.685,560.652 220.185,540.318 248.5,525.5C272.501,512.333 297.167,500.5 322.5,490C338.29,482.185 353.957,474.185 369.5,466C374.44,462.896 379.774,461.896 385.5,463C389.998,469.147 388.998,474.48 382.5,479C353.814,494.843 324.481,509.343 294.5,522.5C318.059,548.26 332.559,578.594 338,613.5C339.304,623.789 339.804,634.122 339.5,644.5C344.898,643.8 349.731,645.467 354,649.5C354.896,657.246 354.563,664.913 353,672.5C344.238,689.251 333.905,704.917 322,719.5C311.752,733.083 299.585,744.583 285.5,754C280.909,755.864 276.243,757.53 271.5,759C248.167,759.667 224.833,759.667 201.5,759C196.333,756.5 192.5,752.667 190,747.5C187.149,711.849 203.649,693.849 239.5,693.5C250.611,673.329 258.445,651.995 263,629.5C263.5,619.506 263.666,609.506 263.5,599.5C263.129,591.456 262.296,583.456 261,575.5C258.333,565.168 255.833,554.835 253.5,544.5C247.017,547.303 241.017,550.97 235.5,555.5ZM328.5,672.5C324.425,672.601 321.925,670.601 321,666.5C328.106,614.38 314.273,568.88 279.5,530C275.087,532.369 270.42,534.535 265.5,536.5C272.473,550.752 276.807,565.752 278.5,581.5C282.12,600.671 282.287,620.004 279,639.5C274.518,662.279 266.851,683.946 256,704.5C255.927,715.84 256.427,727.173 257.5,738.5C259.717,739.572 262.05,740.239 264.5,740.5C271.607,738.947 277.94,735.78 283.5,731C295.076,719.428 305.909,707.262 316,694.5C320.95,687.599 325.116,680.266 328.5,672.5ZM222.5,715.5C214.012,721.481 210.012,729.814 210.5,740.5C219.208,740.745 227.874,740.411 236.5,739.5C236.264,731.458 236.597,723.458 237.5,715.5L222.5,715.5ZM347.5,751.5C344.899,748.202 343.566,744.368 343.5,740C344.834,719.804 354.501,705.304 372.5,696.5C373.766,695.91 375.099,695.41 376.5,695C384.833,694.667 393.167,694.333 401.5,694C411.662,680.012 421.329,665.679 430.5,651C420.31,641.809 410.476,632.309 401,622.5C385.333,604.833 369.667,587.167 354,569.5C349.744,565.33 348.077,560.33 349,554.5C352.435,550.346 356.602,549.513 361.5,552C376.96,570.463 392.794,588.629 409,606.5C418.988,615.422 428.321,625.088 437,635.5C446.902,605.183 446.902,574.85 437,544.5C432.496,534.147 426.496,524.814 419,516.5C417.674,514.017 416.507,511.517 415.5,509C416.043,506.119 417.709,504.119 420.5,503C424.053,502.402 427.386,503.069 430.5,505C450.109,525.462 460.609,549.962 462,578.5C465.428,610.446 459.428,640.446 444,668.5C433.408,683.36 423.075,698.36 413,713.5C412.501,718.155 412.334,722.821 412.5,727.5L412.5,739.5C421.173,739.666 429.84,739.5 438.5,739C463.386,731.396 485.719,719.396 505.5,703C524.003,683.147 538.503,660.647 549,635.5C557.824,613.54 564.157,590.874 568,567.5C568.998,559.529 569.665,551.529 570,543.5C573.834,538.664 578.001,538.33 582.5,542.5C583.969,544.192 584.635,546.192 584.5,548.5C583.421,578.398 577.421,607.231 566.5,635C569.424,635.988 572.424,636.654 575.5,637C582.667,637.167 589.833,637.333 597,637.5C623.529,636.488 650.029,635.322 676.5,634C683.606,640.905 682.606,646.238 673.5,650C654.237,652.354 634.904,653.687 615.5,654C626.406,680.071 645.072,698.238 671.5,708.5C675.134,704.2 679.134,700.2 683.5,696.5C692.7,690.049 702.867,687.715 714,689.5C719.979,682.02 726.145,674.687 732.5,667.5C712.219,654.631 695.219,638.298 681.5,618.5C677.404,617.643 673.404,616.476 669.5,615C656.019,597.61 650.019,577.776 651.5,555.5C654.81,495.981 683.476,454.148 737.5,430C750.515,425.849 754.848,430.016 750.5,442.5C686.654,472.525 661.988,522.192 676.5,591.5C679.656,590.129 682.656,590.462 685.5,592.5C698.836,612.672 714.836,630.505 733.5,646C745.869,654.434 759.369,660.267 774,663.5C775.574,673.594 771.241,678.26 761,677.5C757.431,677.714 754.098,677.047 751,675.5C744.626,682.206 738.626,689.206 733,696.5C729.679,702.134 727.345,708.134 726,714.5C725.5,723.16 725.334,731.827 725.5,740.5C759.168,740.667 792.835,740.5 826.5,740C846.748,741.875 858.748,733.041 862.5,713.5C866.953,652.507 859.12,593.173 839,535.5C838.72,525.355 843.22,522.522 852.5,527C854.038,528.932 855.205,531.099 856,533.5C867.574,567.945 874.741,603.278 877.5,639.5C878.979,647.31 880.146,655.31 881,663.5C881.708,662.619 882.542,661.953 883.5,661.5C912.73,619.948 925.897,573.615 923,522.5C920.313,484.748 910.313,449.082 893,415.5C836.074,317.347 750.908,261.514 637.5,248C615.556,245.727 593.556,244.56 571.5,244.5C550.124,244.782 528.791,245.616 507.5,247C505.061,246.226 503.227,244.726 502,242.5C500.524,237.924 500.19,233.257 501,228.5C502.543,226.622 504.376,225.122 506.5,224C559.72,217.088 612.72,218.421 665.5,228C777.051,250.586 859.884,311.753 914,411.5C939.254,462.358 948.754,516.024 942.5,572.5C936.435,606.372 924.102,637.706 905.5,666.5C898.918,677.683 890.918,687.683 881.5,696.5C880.333,705.836 879.167,715.169 878,724.5C875.874,731.418 872.708,737.751 868.5,743.5C858.59,752.423 846.923,757.589 833.5,759C675.167,759.667 516.833,759.667 358.5,759C354.073,757.465 350.406,754.965 347.5,751.5ZM367.5,739.5L391.5,739.5C391.334,732.159 391.5,724.826 392,717.5C394.096,716.285 393.929,715.451 391.5,715C382.59,713.09 375.757,715.923 371,723.5C368.549,727.717 366.715,732.05 365.5,736.5C365.285,738.179 365.952,739.179 367.5,739.5ZM683.5,740.5L704.5,740.5L704.5,735.5C704.831,726.808 704.498,718.141 703.5,709.5C687.556,713.699 680.889,724.033 683.5,740.5ZM559.5,652.5C545.122,689.375 521.122,718.209 487.5,739C498.161,739.5 508.828,739.667 519.5,739.5C524.023,710.482 541.023,695.982 570.5,696C574.44,700.931 574.44,705.931 570.5,711C565.833,713 561.167,715 556.5,717C548.121,722.588 543.454,730.421 542.5,740.5C582.187,740.804 621.853,740.471 661.5,739.5C661.828,734.125 661.495,728.792 660.5,723.5C655.928,722.146 651.595,720.312 647.5,718C623.07,703.416 606.737,682.582 598.5,655.5C585.466,654.971 572.466,653.971 559.5,652.5ZM212.5,425.5C219.257,425.123 225.924,425.623 232.5,427C236.662,430.478 237.496,434.644 235,439.5C233.487,442.524 231.487,445.191 229,447.5C229.643,465.199 221.809,470.699 205.5,464C203.622,462.457 202.122,460.624 201,458.5C199.95,450.337 200.617,442.337 203,434.5C205.406,430.592 208.572,427.592 212.5,425.5Z"/>
    </g>
</svg>
