<?xml version="1.0" encoding="UTF-8" standalone="no"?>
<!DOCTYPE svg PUBLIC "-//W3C//DTD SVG 1.1//EN" "http://www.w3.org/Graphics/SVG/1.1/DTD/svg11.dtd">
<svg width="100%" height="100%" viewBox="0 0 1024 1024" version="1.1" xmlns="http://www.w3.org/2000/svg" xmlns:xlink="http://www.w3.org/1999/xlink" xml:space="preserve" xmlns:serif="http://www.serif.com/" style="fill-rule:evenodd;clip-rule:evenodd;stroke-linejoin:round;stroke-miterlimit:2;">
    <g transform="matrix(1.66755,0,0,1.66755,-384.44,-326.799)">
        <path d="M319.5,511.5C316.992,503.968 314.658,496.302 312.5,488.5C309.767,474.97 307.934,461.303 307,447.5C306.833,428.491 306.333,409.491 305.5,390.5C290.726,384.28 276.059,377.78 261.5,371C253.652,367.581 246.318,363.414 239.5,358.5C238.167,357.833 237.167,356.833 236.5,355.5C230.562,349.504 229.062,342.504 232,334.5C235.894,332.516 239.394,330.016 242.5,327C245.464,323.034 248.797,319.367 252.5,316C254.407,314.878 256.407,314.045 258.5,313.5C278.148,312.167 297.814,312.167 317.5,313.5C324.264,306.234 331.264,299.068 338.5,292C347.324,284.586 357.324,279.253 368.5,276C417.337,265.989 456.003,281.155 484.5,321.5C490.172,331.356 495.672,341.356 501,351.5C531.805,346.09 561.305,336.59 589.5,323C605.22,314.112 618.22,302.279 628.5,287.5C644.264,263.855 649.764,237.855 645,209.5C648.725,201.895 654.558,199.728 662.5,203C664.96,204.458 667.127,206.291 669,208.5C677.066,221.575 684.733,234.909 692,248.5C700.276,264.995 705.943,282.328 709,300.5C709.607,309.578 709.607,318.578 709,327.5C717.02,311.099 722.02,293.766 724,275.5C724.949,273.907 726.115,272.574 727.5,271.5C732.908,267.698 738.574,267.531 744.5,271C746.317,272.8 747.484,274.966 748,277.5C748.667,306.5 748.667,335.5 748,364.5C746.16,391.16 737.327,415.16 721.5,436.5C711.991,447.26 700.658,455.594 687.5,461.5C683.538,464.148 679.204,466.315 674.5,468C644.389,479.123 613.389,482.957 581.5,479.5L575.5,479.5C563.607,478.091 558.774,471.425 561,459.5C561.948,457.43 563.448,455.93 565.5,455C572.28,454.354 578.947,455.021 585.5,457C612.506,459.166 638.839,455.999 664.5,447.5C699.422,434.571 719.088,409.571 723.5,372.5C724.315,362.843 724.482,353.176 724,343.5C721.097,349.407 717.764,355.073 714,360.5C693.098,387.413 667.931,409.246 638.5,426C611.483,438.84 583.15,443.506 553.5,440C539.992,437.078 527.992,431.245 517.5,422.5C515.833,421.5 514.5,420.167 513.5,418.5C506.33,410.174 500.663,400.84 496.5,390.5C489.769,377.372 482.769,364.372 475.5,351.5C475.068,350.29 474.401,349.29 473.5,348.5C466.902,331.628 456.236,317.961 441.5,307.5C431.861,303.087 421.861,299.587 411.5,297C370.836,290.741 343.67,306.907 330,345.5C328.962,384.868 329.462,424.202 331.5,463.5C332.447,470.514 333.613,477.514 335,484.5C337.68,492.372 339.847,500.372 341.5,508.5C341.409,499.529 342.243,490.529 344,481.5C349.23,453.642 362.73,430.808 384.5,413C405.917,398.133 429.584,388.633 455.5,384.5C459.897,383.947 463.063,385.614 465,389.5C465.623,395.6 465.123,401.6 463.5,407.5C462.049,463.326 487.382,500.659 539.5,519.5C562.149,526.011 585.149,527.678 608.5,524.5C612.8,524.245 616.8,523.245 620.5,521.5C648.403,515.546 673.403,503.712 695.5,486C709.04,478.671 715.207,482.505 714,497.5C709.699,505.607 704.866,513.274 699.5,520.5C692.554,531.799 685.554,543.132 678.5,554.5C682.804,561.303 687.304,567.97 692,574.5C700.699,584.362 709.533,594.029 718.5,603.5C722.817,606.486 726.817,609.82 730.5,613.5C738.139,618.323 745.805,623.156 753.5,628C781.262,641.365 809.595,653.365 838.5,664C844.318,669.004 845.984,675.17 843.5,682.5C833.806,695.209 822.473,706.376 809.5,716C807.975,717.009 806.308,717.509 804.5,717.5C804.667,735.503 804.5,753.503 804,771.5C800.146,778.179 794.312,781.346 786.5,781C768.661,783.123 751.328,781.123 734.5,775C732.413,774.208 730.579,773.041 729,771.5C723.376,786.125 713.543,796.959 699.5,804C694.833,804.667 690.167,804.667 685.5,804C682.743,803.062 680.41,801.562 678.5,799.5C676.938,799.267 675.605,798.6 674.5,797.5C657.238,782.74 640.738,767.074 625,750.5C605.585,726.025 588.918,699.692 575,671.5C573.902,667.495 574.735,663.995 577.5,661C584.56,655.858 591.06,656.358 597,662.5C613.23,699.387 635.73,731.887 664.5,760C673.635,768.726 683.635,776.226 694.5,782.5C695.496,782.586 696.329,782.252 697,781.5C700.493,774.687 702.993,767.521 704.5,760C702.649,758.317 700.983,756.484 699.5,754.5C697.99,753.164 696.323,751.997 694.5,751C676.151,733.425 660.318,713.925 647,692.5C642.043,686.187 641.376,679.52 645,672.5C651.15,668.517 657.15,668.85 663,673.5C666.932,681.247 671.432,688.58 676.5,695.5C690.263,716.43 707.596,733.93 728.5,748C745.118,756.737 762.785,760.237 781.5,758.5L781.5,721.5C773.3,720.617 765.3,718.784 757.5,716C744.419,710.293 732.085,703.293 720.5,695C704.068,681.903 688.902,667.403 675,651.5C671.121,645.924 670.621,640.091 673.5,634C677.218,631.702 681.218,631.035 685.5,632C693.971,636.638 700.638,643.138 705.5,651.5C722.8,669.62 742.8,684.12 765.5,695C787.101,702.518 804.101,696.684 816.5,677.5C796.497,671.943 777.163,664.61 758.5,655.5C730.583,643.101 706.417,625.434 686,602.5C677.636,591.977 669.136,581.644 660.5,571.5C657.864,577.435 654.698,583.102 651,588.5C637.206,605.562 622.373,621.728 606.5,637C598.138,642.843 589.804,648.676 581.5,654.5C562.245,666.25 541.579,674.25 519.5,678.5C498.728,681.622 478.061,681.122 457.5,677C451.909,675.637 446.575,673.804 441.5,671.5C406.86,658.037 380.36,635.037 362,602.5C356.947,592.395 352.447,582.062 348.5,571.5C346.742,570.872 345.242,569.872 344,568.5C335.083,550.896 327.25,532.896 320.5,514.5C319.596,513.791 319.263,512.791 319.5,511.5ZM306.5,335.5C291.163,335.333 275.83,335.5 260.5,336C259.034,339.535 256.367,341.368 252.5,341.5C269.888,349.844 287.221,358.178 304.5,366.5C304.56,367.043 304.893,367.376 305.5,367.5C306.429,366.311 306.762,364.978 306.5,363.5L306.5,351.5C306.688,345.943 306.688,340.61 306.5,335.5ZM655.5,287.5C652.106,294.615 647.939,301.282 643,307.5C632.688,319.154 621.188,329.321 608.5,338C580.148,354.285 549.814,365.118 517.5,370.5C516.957,380.648 519.457,389.982 525,398.5C537.881,413.139 554.215,419.805 574,418.5C588.132,417.907 601.966,415.573 615.5,411.5C674.826,386.514 696.659,342.514 681,279.5C677.779,269.838 673.779,260.505 669,251.5C667.276,259.672 664.943,267.672 662,275.5C660.582,280.01 658.415,284.01 655.5,287.5ZM440.5,411.5C396.615,422.557 371.449,450.557 365,495.5C362.675,515.922 363.175,536.255 366.5,556.5C367.284,560.466 368.117,564.466 369,568.5C373.765,576.365 378.265,584.365 382.5,592.5C408.959,639.17 449.292,661.17 503.5,658.5C520.681,655.991 537.347,651.324 553.5,644.5C559.367,641.404 565.033,638.071 570.5,634.5C592.412,620.589 610.745,602.922 625.5,581.5C635.858,567.13 645.858,552.464 655.5,537.5C655.953,536.542 656.619,535.708 657.5,535C648.954,537.623 640.287,540.29 631.5,543C588.374,553.862 547.041,549.362 507.5,529.5C503.817,527.659 500.484,525.326 497.5,522.5C494.556,520.689 491.556,518.856 488.5,517C455.598,489.437 439.598,454.27 440.5,411.5ZM373.5,327.5C388.755,324.948 398.088,331.115 401.5,346C399.65,361.522 390.983,368.522 375.5,367C365.389,362.05 360.889,353.883 362,342.5C363.466,335.551 367.3,330.551 373.5,327.5Z"/>
    </g>
</svg>
