<?xml version="1.0" encoding="UTF-8" standalone="no"?>
<!DOCTYPE svg PUBLIC "-//W3C//DTD SVG 1.1//EN" "http://www.w3.org/Graphics/SVG/1.1/DTD/svg11.dtd">
<svg width="100%" height="100%" viewBox="0 0 1024 1024" version="1.1" xmlns="http://www.w3.org/2000/svg" xmlns:xlink="http://www.w3.org/1999/xlink" xml:space="preserve" xmlns:serif="http://www.serif.com/" style="fill-rule:evenodd;clip-rule:evenodd;stroke-linejoin:round;stroke-miterlimit:2;">
    <g transform="matrix(1.38367,0,0,1.38367,-234.514,-195.091)">
        <path d="M470.5,333.5C465.558,330.693 462.725,326.36 462,320.5C460.986,309.365 461.486,298.365 463.5,287.5C466.723,273.961 474.389,263.961 486.5,257.5C488.297,256.27 490.297,255.604 492.5,255.5C510.397,251.52 525.564,256.52 538,270.5C540.157,272.817 541.657,275.484 542.5,278.5C543.5,278.833 544.167,279.5 544.5,280.5C551.886,295.897 552.386,311.563 546,327.5C535.981,342.656 521.814,350.323 503.5,350.5C501.227,350.043 499.894,348.71 499.5,346.5C496.776,342.718 497.109,339.051 500.5,335.5C506.124,332.423 512.124,330.256 518.5,329C531.211,320.89 535.711,309.39 532,294.5C529.672,290.02 527.172,285.687 524.5,281.5C514.988,272.127 503.988,269.961 491.5,275C485.597,279.293 482.097,285.126 481,292.5C480.501,298.157 480.334,303.824 480.5,309.5C480.81,310.738 481.31,310.738 482,309.5C483.357,306.102 485.19,303.102 487.5,300.5C489.14,296.559 491.306,292.892 494,289.5C501.379,285.169 507.712,286.503 513,293.5C513.652,296.594 513.318,299.594 512,302.5C504.98,313.858 496.813,324.358 487.5,334C481.601,336.148 475.934,335.981 470.5,333.5ZM372.5,416.5C369.103,410.3 370.437,405.134 376.5,401C389.79,396.968 395.957,401.801 395,415.5C390.486,422.839 384.319,424.839 376.5,421.5C374.413,420.415 373.08,418.749 372.5,416.5ZM175.5,572.5C172.793,566.193 170.959,559.526 170,552.5C167.87,525.553 172.37,499.887 183.5,475.5C191.465,454.881 202.465,436.214 216.5,419.5C233.421,395.912 253.421,375.245 276.5,357.5C280.241,353.782 284.241,350.282 288.5,347C295.234,342.634 302.234,338.801 309.5,335.5C315.193,330.139 320.86,324.805 326.5,319.5C348.899,298.96 374.899,284.627 404.5,276.5C414.078,274.251 423.744,272.251 433.5,270.5C435.608,265.946 437.941,261.612 440.5,257.5C447.926,246.576 457.259,237.409 468.5,230C470.743,228.864 473.076,228.03 475.5,227.5C475.5,226.833 475.833,226.5 476.5,226.5C496.482,219.126 516.149,219.959 535.5,229C539.3,230.979 542.634,233.479 545.5,236.5C566.106,251.373 574.939,271.373 572,296.5C569.503,298.478 566.669,298.978 563.5,298C561.393,296.736 560.393,294.903 560.5,292.5C559.662,292.158 559.328,291.492 559.5,290.5C556.781,278.727 551.614,268.06 544,258.5C540.077,254.798 535.91,251.464 531.5,248.5C520.246,242.688 508.246,240.021 495.5,240.5C492.689,241.475 489.689,242.142 486.5,242.5C475.888,246.433 466.555,252.433 458.5,260.5C452.796,270.071 447.462,279.905 442.5,290C436.275,291.251 429.942,291.917 423.5,292C415.48,293.839 407.48,295.672 399.5,297.5C396.46,299.346 393.127,300.679 389.5,301.5C370.904,309.8 353.904,320.633 338.5,334C332.597,340.407 326.263,346.241 319.5,351.5C310.855,356.464 302.189,361.464 293.5,366.5C293.5,367.167 293.167,367.5 292.5,367.5C272.843,382.824 255.176,400.157 239.5,419.5C233.78,426.553 228.447,433.887 223.5,441.5C212.658,457.518 203.658,474.518 196.5,492.5C196.737,493.791 196.404,494.791 195.5,495.5C191.059,509.647 188.726,524.147 188.5,539C187.515,553.215 190.515,566.382 197.5,578.5C203.179,591.348 212.179,601.181 224.5,608C237.811,615.715 252.144,619.882 267.5,620.5C268.167,620.5 268.5,620.167 268.5,619.5C269.296,606.992 271.963,594.992 276.5,583.5C279.074,573.652 279.907,563.652 279,553.5C277.258,544.44 274.424,535.774 270.5,527.5C265.927,519.586 260.927,511.92 255.5,504.5C252.203,501.704 249.036,498.704 246,495.5C243.931,488.435 246.431,484.435 253.5,483.5C257.114,483.804 260.448,484.971 263.5,487C276.316,498.798 285.483,512.964 291,529.5C291.72,531.112 291.554,532.612 290.5,534C302.959,534.654 315.292,533.654 327.5,531C339.356,527.991 351.022,524.491 362.5,520.5C364.832,518.667 367.498,517.334 370.5,516.5C366.939,515.102 363.772,513.102 361,510.5C359.047,507.745 357.88,504.745 357.5,501.5C359.382,494.858 363.715,492.692 370.5,495C374.447,497.28 378.113,499.947 381.5,503C399.077,510.524 417.077,511.524 435.5,506C448.535,503.842 460.202,506.842 470.5,515C495.03,534.899 512.53,559.733 523,589.5C524.807,595.392 525.974,601.392 526.5,607.5C527.317,609.969 527.817,612.635 528,615.5C528.5,669.832 528.667,724.166 528.5,778.5C540.314,779.832 552.481,780.499 565,780.5C577.167,780.333 589.333,780.167 601.5,780C602.977,776.88 604.311,773.714 605.5,770.5C608.538,762.813 610.372,754.813 611,746.5C611.333,704.167 611.667,661.833 612,619.5C616.53,612.412 621.863,611.745 628,617.5C629.302,632.407 629.968,647.407 630,662.5C637.877,665.622 645.71,668.622 653.5,671.5C672.815,679.329 692.815,684.662 713.5,687.5C715.435,688.15 717.435,688.483 719.5,688.5C735.113,688.398 750.447,686.231 765.5,682C766.308,681.692 766.975,681.192 767.5,680.5C766.162,676.154 764.829,671.821 763.5,667.5C755.92,655.646 744.92,650.479 730.5,652C723.745,648.321 721.578,642.821 724,635.5C724.903,634.299 726.069,633.465 727.5,633C743.033,631.774 757.033,635.774 769.5,645C776.621,651.738 781.287,659.905 783.5,669.5L783.5,671.5C785.295,675.52 786.462,679.853 787,684.5C787.5,716.498 787.667,748.498 787.5,780.5C813.2,780.933 838.867,780.433 864.5,779C868.066,778.3 870.9,776.467 873,773.5C877.237,768.353 880.404,762.686 882.5,756.5C882.833,755.167 883.167,753.833 883.5,752.5C886.95,742.478 889.116,732.145 890,721.5C890.667,641.5 890.667,561.5 890,481.5C889.301,475.511 888.801,469.511 888.5,463.5C884.757,447.221 879.757,431.221 873.5,415.5C858.392,386.049 838.058,360.716 812.5,339.5C810.223,338.551 808.223,337.218 806.5,335.5C789.264,322.382 770.264,312.716 749.5,306.5C734.375,302.692 719.042,300.026 703.5,298.5C665.185,297.697 626.852,297.197 588.5,297C583.985,294.87 581.652,291.203 581.5,286C581.331,282.149 582.997,279.649 586.5,278.5C624.167,277.167 661.833,277.167 699.5,278.5C717.353,279.207 734.686,282.207 751.5,287.5C771.259,292.882 789.592,301.216 806.5,312.5C827.356,326.354 845.689,343.021 861.5,362.5C876.142,380.099 887.475,399.766 895.5,421.5C905.408,445.045 910.074,469.712 909.5,495.5L909.5,714.5C908.099,738.78 901.433,761.447 889.5,782.5C882.393,792.394 872.727,798.228 860.5,800C668.333,800.833 476.333,800.666 284.5,799.5L283.5,799.5C276.27,797.042 273.77,792.042 276,784.5C276.717,783.956 277.217,783.289 277.5,782.5C278.473,782.013 279.473,781.513 280.5,781C343.195,780.822 405.862,780.322 468.5,779.5C468.667,718.832 468.5,658.166 468,597.5C461.292,590.295 454.792,582.962 448.5,575.5C441.492,568.492 434.826,561.158 428.5,553.5C426.142,551.471 423.808,549.471 421.5,547.5C411.855,542.009 402.522,536.009 393.5,529.5C392.262,528.588 390.928,528.421 389.5,529C382.266,532.464 374.933,535.631 367.5,538.5C367.158,539.338 366.492,539.672 365.5,539.5C350.591,545.061 335.258,549.061 319.5,551.5C314.417,553.078 309.084,553.745 303.5,553.5L303.5,559.5C294.201,582.694 287.701,606.694 284,631.5C283.067,635.395 280.567,637.562 276.5,638C253.798,641.253 233.131,636.42 214.5,623.5C213.833,623.5 213.5,623.167 213.5,622.5C201.235,616.069 191.735,606.736 185,594.5C180.989,587.484 177.822,580.15 175.5,572.5ZM460.5,531.5C458.251,530.92 456.585,529.587 455.5,527.5C449.222,526.21 442.888,526.21 436.5,527.5C440.402,535.557 444.902,543.223 450,550.5C460.079,560.74 469.579,571.407 478.5,582.5C487.872,591.207 497.538,599.541 507.5,607.5C506.053,599.654 503.886,591.988 501,584.5C491.084,564.085 477.584,546.419 460.5,531.5ZM502.5,625.5C496.95,623.266 492.284,619.932 488.5,615.5C487.833,620.833 487.167,626.167 486.5,631.5L486.5,780.38C486.63,780.42 486.76,780.46 486.89,780.5L503.5,780.5C505.735,780.795 507.735,780.461 509.5,779.5L509.5,630.5C508.7,628.259 507.034,627.259 504.5,627.5L502.5,625.5ZM667.5,714.5C665.656,710.136 663.323,706.136 660.5,702.5C660.296,700.315 659.63,698.315 658.5,696.5C656.488,693.181 653.488,691.014 649.5,690C642.922,688.042 636.589,685.542 630.5,682.5C629.702,682.957 629.369,683.624 629.5,684.5C629.667,707.502 629.5,730.502 629,753.5C627.608,762.837 625.108,771.837 621.5,780.5L670.5,780.5L670.5,777.5C670.5,776.833 670.833,776.5 671.5,776.5C672.429,770.868 673.262,765.202 674,759.5C676.228,743.783 674.061,728.783 667.5,714.5ZM759.5,703.5L757.5,703.5L757.5,704.5C735.613,708.818 713.946,708.485 692.5,703.5C689.572,703.148 686.738,702.482 684,701.5C683.536,702.094 683.369,702.761 683.5,703.5C685.405,707.216 686.739,711.216 687.5,715.5C692.391,725.835 694.391,736.835 693.5,748.5C692.203,758.11 690.536,767.776 688.5,777.5L687.5,777.5L687.5,780.5L769.5,780.5L769.5,702.5C769.44,701.957 769.107,701.624 768.5,701.5C765.667,702.933 762.667,703.6 759.5,703.5Z"/>
    </g>
</svg>
