<?xml version="1.0" encoding="UTF-8" standalone="no"?>
<!DOCTYPE svg PUBLIC "-//W3C//DTD SVG 1.1//EN" "http://www.w3.org/Graphics/SVG/1.1/DTD/svg11.dtd">
<svg width="100%" height="100%" viewBox="0 0 1024 1024" version="1.1" xmlns="http://www.w3.org/2000/svg" xmlns:xlink="http://www.w3.org/1999/xlink" xml:space="preserve" xmlns:serif="http://www.serif.com/" style="fill-rule:evenodd;clip-rule:evenodd;stroke-linejoin:round;stroke-miterlimit:2;">
    <g transform="matrix(1.36868,0,0,1.36868,-106.072,-207.372)">
        <path d="M127.5,526.5C122.869,522.37 118.369,518.037 114,513.5C102.065,497.633 92.731,480.3 86,461.5C80.289,458.793 77.456,454.293 77.5,448C81.551,438.676 85.384,429.176 89,419.5C96.706,402.302 108.206,388.302 123.5,377.5C150.979,358.485 180.313,355.319 211.5,368C242.338,382.515 261.672,406.348 269.5,439.5C278.179,436.774 286.846,433.94 295.5,431C302.147,430.057 308.814,429.223 315.5,428.5C319.751,418.989 324.751,409.989 330.5,401.5C336.525,393.148 342.525,384.815 348.5,376.5C365.438,357.221 384.771,340.887 406.5,327.5C460.074,296.014 517.074,288.181 577.5,304C641.372,324.851 689.539,364.685 722,423.5C722.813,425.436 723.313,427.436 723.5,429.5C747.438,427.421 767.605,435.088 784,452.5C796.836,470.847 801.669,491.18 798.5,513.5C797.419,516.627 796.753,519.96 796.5,523.5C790.143,544.548 780.81,564.215 768.5,582.5C767.836,584.487 766.669,586.154 765,587.5C764.333,588.5 764.333,589.5 765,590.5C775.478,599.636 785.978,608.636 796.5,617.5C803.945,623.944 811.945,629.61 820.5,634.5C825.182,638.824 826.682,644.158 825,650.5C815.988,678.537 805.988,706.204 795,733.5C791.212,738.153 786.378,739.653 780.5,738C754.946,727.39 729.28,717.057 703.5,707C690.372,700.269 677.372,693.269 664.5,686C657.882,684.622 651.215,684.289 644.5,685C599.678,697.478 554.011,703.978 507.5,704.5C464.296,704.996 422.296,698.329 381.5,684.5C377.226,683.13 373.059,681.464 369,679.5C356.006,702.824 342.506,725.824 328.5,748.5C325.986,753.533 321.986,755.7 316.5,755C296.377,748.102 276.377,740.935 256.5,733.5C249.676,731.171 243.176,728.171 237,724.5C237.232,701.499 237.898,678.499 239,655.5C240.272,644.413 243.105,633.747 247.5,623.5C251.414,615.85 255.747,608.35 260.5,601C256.074,600.044 251.74,598.877 247.5,597.5C226.182,590.353 210.182,576.853 199.5,557C171.765,555.267 147.765,545.1 127.5,526.5ZM272.5,462.5C264.274,489.573 264.774,516.573 274,543.5C298.61,607.44 343.777,649.274 409.5,669C468.426,683.799 527.759,685.465 587.5,674C620.358,668.222 650.692,656.389 678.5,638.5C711.025,615.142 737.859,586.475 759,552.5C765.987,539.535 770.987,525.869 774,511.5C775.078,500.368 774.412,489.368 772,478.5C765.676,463.963 754.843,455.963 739.5,454.5C747.22,481.321 745.72,507.654 735,533.5C713.935,584.398 677.435,619.064 625.5,637.5C607.85,643.079 589.85,647.079 571.5,649.5C529.334,655.973 487.001,656.14 444.5,650C403.816,644.795 368.649,628.295 339,600.5C305.597,565.965 290.597,524.632 294,476.5C294.87,471.196 296.37,466.196 298.5,461.5C298.924,458.646 299.924,455.979 301.5,453.5C293.758,453.844 286.091,455.344 278.5,458C275.894,458.792 273.894,460.292 272.5,462.5ZM704.5,649.5C696.749,655.889 688.749,662.055 680.5,668C691.063,673.781 701.73,679.281 712.5,684.5C734.829,693.413 756.995,702.747 779,712.5C785.845,692.135 793.012,671.802 800.5,651.5C799.643,650.575 798.643,649.908 797.5,649.5C789.204,641.692 780.538,634.358 771.5,627.5C765.203,622.538 759.203,617.205 753.5,611.5C751.211,609.994 748.877,608.827 746.5,608C739.93,615.147 733.597,622.48 727.5,630C721.684,635.093 716.017,640.426 710.5,646C708.308,646.926 706.308,648.093 704.5,649.5ZM316.5,495.5C316.551,505.474 318.218,515.141 321.5,524.5C330.844,556.68 349.178,582.514 376.5,602C395.635,613.426 415.968,620.926 437.5,624.5C431.152,606.717 428.485,588.383 429.5,569.5C426.484,569.159 423.818,567.993 421.5,566C411.167,558.333 400.833,550.667 390.5,543C365.727,523.861 341.227,504.361 317,484.5C316.501,488.152 316.335,491.818 316.5,495.5ZM422.5,348.5C408.529,354.799 396.196,363.466 385.5,374.5C358.916,398.305 339.25,426.972 326.5,460.5C326.453,462.038 327.12,463.038 328.5,463.5C331.808,466.471 335.141,469.471 338.5,472.5C347.77,478.772 356.437,485.772 364.5,493.5C385.272,509.094 405.938,524.927 426.5,541C429.164,538.492 431.831,535.659 434.5,532.5C437.249,526.852 439.082,520.852 440,514.5C440.5,481.502 440.667,448.502 440.5,415.5C440.667,401.163 440.5,386.829 440,372.5C439.817,369.635 439.317,366.969 438.5,364.5C437.395,354.728 432.062,349.395 422.5,348.5ZM249.5,573.5C253.994,573.995 258.16,575.328 262,577.5C262.167,577.167 262.333,576.833 262.5,576.5C245.799,546.311 239.632,513.977 244,479.5C248.523,464.129 248.523,448.796 244,433.5C226.044,394.272 195.877,379.105 153.5,388C131.063,398.437 115.563,415.27 107,438.5C105.056,442.318 104.389,446.318 105,450.5L108,453.5C115.425,475.025 126.925,494.025 142.5,510.5C147.994,514.478 153.661,518.311 159.5,522C167.949,526.556 176.949,529.389 186.5,530.5C191.042,529.313 195.542,527.98 200,526.5C202.956,526.947 205.789,527.78 208.5,529C214.458,537.748 220.291,546.581 226,555.5C232.333,563.693 240.167,569.693 249.5,573.5ZM162.5,407.5C183.926,408.799 195.76,420.133 198,441.5C199.456,449.045 198.123,456.045 194,462.5C192.786,464.049 191.286,465.215 189.5,466C174.902,467.616 160.235,467.949 145.5,467C139.753,464.921 135.586,461.088 133,455.5C128.384,430.368 138.217,414.368 162.5,407.5ZM166.5,432.5C162.359,434.073 158.026,435.407 153.5,436.5C150.971,440.549 149.304,444.882 148.5,449.5C158.522,449.832 168.522,449.499 178.5,448.5C176.173,443.175 173.34,438.175 170,433.5C168.989,432.663 167.822,432.33 166.5,432.5ZM625.5,613.5C674.095,592.677 705.261,556.677 719,505.5C720.742,497.235 721.409,488.901 721,480.5C690.514,501.655 660.681,523.655 631.5,546.5C624.583,551.243 618.083,556.576 612,562.5C611.098,580.868 611.431,599.201 613,617.5C616.98,615.629 621.147,614.296 625.5,613.5ZM622.5,523.5C649.909,501.623 678.242,480.956 707.5,461.5C708.391,460.739 709.058,459.739 709.5,458.5C707.831,452.326 705.664,446.326 703,440.5C687.228,407.558 664.394,380.558 634.5,359.5C627.798,354.899 620.632,351.233 613,348.5C609.145,348.595 606.145,350.262 604,353.5C602.121,357.259 600.287,360.925 598.5,364.5C598.333,415.168 598.5,465.834 599,516.5C601.377,522.92 604.543,528.92 608.5,534.5C613.185,530.81 617.852,527.143 622.5,523.5ZM453.5,593.5C454.954,603.312 457.954,612.646 462.5,621.5C463.578,624.402 464.244,627.402 464.5,630.5C504.71,631.953 544.71,629.953 584.5,624.5L587.5,624.5L587.5,565.5C543.003,564.501 498.336,564.168 453.5,564.5L453.5,593.5ZM576.5,351.5C579.677,345.149 583.843,339.483 589,334.5C589.432,333.4 588.932,332.733 587.5,332.5C540.846,315.899 494.512,316.565 448.5,334.5C453.232,339.062 457.398,344.062 461,349.5C463.279,354.949 464.446,360.616 464.5,366.5L464.5,515.5C463.514,524.795 460.181,533.128 454.5,540.5C496.495,541.5 538.495,541.833 580.5,541.5C581.376,541.631 582.043,541.298 582.5,540.5C577.541,533.252 574.874,525.252 574.5,516.5C574.333,462.832 574.5,409.166 575,355.5C575.21,353.942 575.71,352.609 576.5,351.5ZM277.5,715.5C288.735,720.304 300.235,724.637 312,728.5L315,725.5C326.167,706.333 337.333,687.167 348.5,668C340.658,663.914 333.324,659.081 326.5,653.5C310.899,641.067 296.732,627.067 284,611.5C275.596,621.637 269.263,632.97 265,645.5C263.278,666.824 262.778,688.157 263.5,709.5C267.967,712.069 272.633,714.069 277.5,715.5Z"/>
    </g>
</svg>
