<?xml version="1.0" encoding="UTF-8" standalone="no"?>
<!DOCTYPE svg PUBLIC "-//W3C//DTD SVG 1.1//EN" "http://www.w3.org/Graphics/SVG/1.1/DTD/svg11.dtd">
<svg width="100%" height="100%" viewBox="0 0 1024 1024" version="1.1" xmlns="http://www.w3.org/2000/svg" xmlns:xlink="http://www.w3.org/1999/xlink" xml:space="preserve" xmlns:serif="http://www.serif.com/" style="fill-rule:evenodd;clip-rule:evenodd;stroke-linejoin:round;stroke-miterlimit:2;">
    <g transform="matrix(1.44455,0,0,1.44455,-204.899,-305.638)">
        <path d="M345.5,861.5C340.45,861.726 336.617,859.726 334,855.5C331.519,848.509 332.353,842.009 336.5,836C339.569,834.154 342.902,833.154 346.5,833C361.521,832.251 376.521,832.417 391.5,833.5C386.512,815.065 382.345,796.398 379,777.5C375.674,752.904 373.007,728.238 371,703.5C365.611,653.944 353.944,605.944 336,559.5C327.218,537.585 315.385,517.585 300.5,499.5C244.576,508.035 198.41,491.035 162,448.5C152.392,435.281 146.059,420.614 143,404.5C139.301,386.113 144.467,370.947 158.5,359C165.487,355.737 172.82,354.737 180.5,356C191.816,358.94 203.15,361.773 214.5,364.5C224.152,361.841 232.818,357.341 240.5,351C251.048,340.954 261.048,330.454 270.5,319.5C287.679,300.823 308.012,286.657 331.5,277C346.149,272.46 361.149,269.96 376.5,269.5C389.478,270.737 402.478,271.737 415.5,272.5C457.785,267.651 495.451,278.484 528.5,305C551.776,324.604 570.776,347.604 585.5,374C608.725,382.112 630.392,393.112 650.5,407C697.299,438.521 738.465,476.354 774,520.5C800.139,554.105 819.472,591.438 832,632.5C835.377,646.439 838.21,660.439 840.5,674.5C846.793,728.742 838.793,780.742 816.5,830.5C816.389,831.117 816.056,831.617 815.5,832C825.549,832.135 835.549,832.802 845.5,834C850.259,838.491 851.759,843.991 850,850.5C849.157,854.2 847.324,857.2 844.5,859.5C843.234,860.09 841.901,860.59 840.5,861C675.5,861.5 510.5,861.667 345.5,861.5ZM175.5,383.5C173.171,391.787 173.004,400.12 175,408.5C177.923,402.985 180.59,397.318 183,391.5C184.353,390.315 185.52,388.981 186.5,387.5C182.663,386.555 178.996,385.222 175.5,383.5ZM367.5,559.5C385.571,605.123 396.738,652.456 401,701.5C401.616,738.141 406.616,774.141 416,809.5C416.973,807.608 417.64,805.608 418,803.5C427.976,791.885 435.642,778.885 441,764.5C461.583,679.734 437.083,611.4 367.5,559.5ZM518.5,781.5L518.5,708.5C519.313,687.223 524.147,666.89 533,647.5C556.263,598.567 594.43,568.734 647.5,558C704.559,554.606 745.059,578.773 769,630.5C774.558,643.286 776.891,656.619 776,670.5C774.885,675.245 772.052,678.412 767.5,680C756.475,682.575 749.642,678.409 747,667.5C745.826,658.644 743.826,649.977 741,641.5C736.501,633.164 731.501,625.164 726,617.5C705.767,594.307 680.267,584.473 649.5,588C616.236,594.792 590.236,612.292 571.5,640.5C558.253,660.064 550.419,681.731 548,705.5C547.5,730.831 547.333,756.164 547.5,781.5C610.336,781.832 673.002,781.499 735.5,780.5C743.507,780.334 751.507,780.5 759.5,781C764.681,781.831 768.181,784.664 770,789.5C771.618,796.676 770.118,803.009 765.5,808.5C764.527,808.987 763.527,809.487 762.5,810C657.501,810.5 552.501,810.667 447.5,810.5L447.5,832.5L784.5,832.5C784.34,830.801 784.506,829.134 785,827.5C815.259,763.388 819.926,697.388 799,629.5C787.269,595.696 770.602,564.696 749,536.5C718.666,500.163 684.499,467.997 646.5,440C620.53,421.679 592.53,407.013 562.5,396C551.02,373.726 536.354,353.726 518.5,336C500.915,320.039 480.581,309.039 457.5,303C428.825,303.004 400.158,302.171 371.5,300.5C348.211,300.761 327.877,308.595 310.5,324C292.475,341.026 274.808,358.359 257.5,376C244.601,385.448 230.267,391.615 214.5,394.5L214.5,398.5C208.75,410.26 201.75,421.26 193.5,431.5C191.891,432.898 191.058,434.565 191,436.5C213.243,459.608 240.577,470.941 273,470.5C294.475,468.799 315.975,468.299 337.5,469C359.896,471.946 382.23,475.28 404.5,479C424.81,480.186 445.144,480.853 465.5,481C470.595,483.337 472.928,487.337 472.5,493C472.145,501.679 467.811,507.012 459.5,509C439.482,509.757 419.482,509.424 399.5,508C379.081,505.095 358.748,502.095 338.5,499L348.5,509C366.116,521.615 383.45,534.615 400.5,548C472.024,611.424 494.691,689.257 468.5,781.5L518.5,781.5ZM448.5,309.5C470.13,306.91 487.297,314.243 500,331.5C509.379,351.013 508.379,370.013 497,388.5C490.429,396.41 482.262,398.576 472.5,395C466.103,390.273 459.436,385.94 452.5,382C431.462,378.228 411.129,380.561 391.5,389C382.853,393.633 374.187,398.3 365.5,403C345.805,416.179 325.805,428.846 305.5,441C293.491,442.671 287.158,437.338 286.5,425C286.733,419.534 289.066,415.2 293.5,412C299.954,409.273 306.288,406.273 312.5,403C330.331,390.915 348.664,379.581 367.5,369C380.754,362.304 394.754,358.137 409.5,356.5C411.696,340.28 419.029,326.78 431.5,316C436.888,312.752 442.554,310.585 448.5,309.5ZM454.5,339.5C451.371,343.131 448.037,346.631 444.5,350C452.074,350.048 459.407,351.382 466.5,354C470.415,356.246 473.248,359.412 475,363.5C476.235,348.57 469.402,340.57 454.5,339.5ZM280.5,833.5C294.837,833.333 309.171,833.5 323.5,834C333.015,841.122 334.015,849.455 326.5,859C324.283,860.275 321.949,861.275 319.5,862C306.763,862.941 294.096,862.607 281.5,861C275.645,858.464 272.978,853.964 273.5,847.5C273.207,841.42 275.54,836.753 280.5,833.5ZM213.5,833.5C230.503,833.333 247.503,833.5 264.5,834C267.667,835.167 269.833,837.333 271,840.5C271.839,845.921 271.506,851.254 270,856.5C266.888,859.806 263.055,861.639 258.5,862C243.099,862.952 227.765,862.619 212.5,861C210,859.833 208.167,858 207,855.5C204.69,849.326 205.023,843.326 208,837.5C209.812,836.023 211.645,834.69 213.5,833.5Z"/>
    </g>
</svg>
