<?xml version="1.0" encoding="UTF-8" standalone="no"?>
<!DOCTYPE svg PUBLIC "-//W3C//DTD SVG 1.1//EN" "http://www.w3.org/Graphics/SVG/1.1/DTD/svg11.dtd">
<svg width="100%" height="100%" viewBox="0 0 1024 1024" version="1.1" xmlns="http://www.w3.org/2000/svg" xmlns:xlink="http://www.w3.org/1999/xlink" xml:space="preserve" xmlns:serif="http://www.serif.com/" style="fill-rule:evenodd;clip-rule:evenodd;stroke-linejoin:round;stroke-miterlimit:2;">
    <g transform="matrix(1.57106,0,0,1.57106,-293.098,-269.877)">
        <path d="M825.5,288.5C822.157,299.201 817.657,309.534 812,319.5C803.451,331.887 793.618,343.22 782.5,353.5C776.921,357.067 771.587,361.067 766.5,365.5C774.365,383.928 780.531,402.928 785,422.5C789.72,445.766 794.053,469.099 798,492.5C804.068,538.979 811.068,585.312 819,631.5C821.739,637.643 823.905,643.976 825.5,650.5C823.783,658.701 818.783,661.868 810.5,660C793.068,651.245 774.735,645.411 755.5,642.5C754.77,654.021 751.437,664.687 745.5,674.5C765.128,682.973 783.461,693.473 800.5,706C812.107,716.601 822.607,728.101 832,740.5C834.377,744.29 836.377,748.29 838,752.5C839.614,761.894 835.614,766.894 826,767.5C823.268,767.385 820.768,766.552 818.5,765C811.667,755.5 804.833,746 798,736.5C777.896,715.865 753.729,702.698 725.5,697C713.178,707.495 699.178,714.828 683.5,719C718.601,734.801 749.434,756.634 776,784.5C780.667,789.833 785.333,795.167 790,800.5C795.118,808.506 793.951,815.34 786.5,821C781.597,821.937 776.93,821.27 772.5,819C739.589,774.858 696.256,746.192 642.5,733C636.5,732.333 630.5,732.333 624.5,733C600.089,769.389 565.756,789.056 521.5,792C485.863,794.336 453.53,785.336 424.5,765C413.542,755.544 404.209,744.711 396.5,732.5C384.654,730.219 373.321,731.719 362.5,737C332.328,748.075 304.995,763.741 280.5,784C268.768,795.063 257.768,806.729 247.5,819C232.644,824.487 226.477,819.32 229,803.5C257.816,765.363 294.649,737.863 339.5,721C323.519,715.509 309.186,707.176 296.5,696C294.833,695.333 293.167,695.333 291.5,696C266.77,703.607 245.27,716.441 227,734.5C219.288,744.757 211.454,754.924 203.5,765C190.387,768.388 184.887,763.221 187,749.5C202.605,721.228 224.772,699.728 253.5,685C261.864,681.15 270.197,677.317 278.5,673.5C274.858,667.883 272.025,661.883 270,655.5C269.265,651.187 268.765,646.853 268.5,642.5C247.275,645.189 227.108,651.189 208,660.5C202.085,660.419 198.919,657.419 198.5,651.5C204.505,635.642 209.005,619.308 212,602.5C217.431,565.374 223.431,528.374 230,491.5L234.5,487C233.409,484.936 233.242,482.769 234,480.5C238.786,454.448 243.786,428.448 249,402.5C251.726,390.593 255.226,378.926 259.5,367.5C246.633,357.141 234.466,345.807 223,333.5C197.926,303.206 190.926,269.206 202,231.5C216.806,198.691 241.972,179.524 277.5,174C302.345,173.212 325.011,179.878 345.5,194C359.231,203.894 371.897,215.06 383.5,227.5C387.969,225.177 392.636,223.343 397.5,222C474.167,221.333 550.833,221.333 627.5,222C633.656,222.83 639.489,224.664 645,227.5C657.914,213.479 672.08,200.979 687.5,190C737.785,161.961 780.285,170.794 815,216.5C821.312,227.453 825.645,239.12 828,251.5C829.088,263.992 828.255,276.326 825.5,288.5ZM320.5,540.5C317.045,549.363 313.879,558.363 311,567.5C309.751,574.591 310.917,581.258 314.5,587.5C324.144,588.498 333.81,588.832 343.5,588.5C343.666,578.161 343.5,567.828 343,557.5C335.907,551.233 328.407,545.566 320.5,540.5ZM513.5,673.5C509.35,675.737 505.016,677.903 500.5,680C493.86,685.989 486.527,690.989 478.5,695C465.427,702.436 451.427,705.436 436.5,704C414.53,699.431 395.03,689.931 378,675.5C359.422,678.63 340.922,682.13 322.5,686C337.255,694.807 352.922,701.474 369.5,706C379.237,706.812 388.904,706.312 398.5,704.5C400.965,704.478 403.298,704.978 405.5,706C414.663,719.838 425.33,732.505 437.5,744C462.891,762.099 491.224,769.432 522.5,766C544.607,764.744 564.607,757.744 582.5,745C595.334,732.842 606.667,719.508 616.5,705C626.221,705.2 635.888,705.866 645.5,707C663.977,702.507 681.644,695.841 698.5,687C681.15,682.454 663.65,678.621 646,675.5C644.833,675.833 643.667,676.167 642.5,676.5C622.679,695.388 599.013,704.555 571.5,704C561.52,702.011 552.187,698.344 543.5,693C533.572,686.209 523.572,679.709 513.5,673.5ZM500.5,273.5C499.657,275.173 498.324,276.34 496.5,277C488.938,279.967 483.438,277.8 480,270.5C479.5,262.507 479.334,254.507 479.5,246.5L455.5,246.5C455.715,283.592 450.549,319.925 440,355.5C437.632,365.376 431.465,370.71 421.5,371.5C402.558,366.101 384.225,358.934 366.5,350C360.532,346.572 357.199,341.405 356.5,334.5C357.035,325.463 361.702,321.963 370.5,324C374.235,327.714 378.569,330.714 383.5,333C394.46,337.598 405.46,342.098 416.5,346.5C425.183,313.734 430.183,280.4 431.5,246.5C421.494,246.334 411.494,246.5 401.5,247C398.405,247.714 395.405,248.714 392.5,250C375.498,259.832 358.831,270.166 342.5,281C336.5,285.667 330.5,290.333 324.5,295C318.896,299.826 312.896,300.493 306.5,297C300.985,290.395 300.152,283.228 304,275.5C322.92,264.626 341.42,253.126 359.5,241C354.867,235.365 349.867,230.032 344.5,225C329.105,210.97 311.105,202.303 290.5,199C257.419,199.073 234.919,214.573 223,245.5C218.762,265.645 221.762,284.645 232,302.5C246.142,324.309 264.475,341.643 287,354.5C288.233,356.866 289.066,359.366 289.5,362C285.757,372.987 281.59,383.821 277,394.5C271.896,411.915 267.896,429.582 265,447.5C261.994,459.518 257.994,471.185 253,482.5C251.442,484.359 249.609,485.859 247.5,487C252.028,492.343 253.528,498.51 252,505.5C246.363,545.321 239.863,584.987 232.5,624.5C243.372,622.877 254.372,620.711 265.5,618C271.585,617.139 277.585,617.473 283.5,619L289,624.5C289.053,640.352 293.886,654.685 303.5,667.5C321.307,662.382 339.307,657.882 357.5,654C347.971,642.248 343.304,628.748 343.5,613.5C334.827,613.666 326.16,613.5 317.5,613C296.476,609.5 285.809,597 285.5,575.5C287.915,557.689 292.915,540.689 300.5,524.5C296.833,518.65 293.333,512.65 290,506.5C281.516,481.116 279.182,455.116 283,428.5C283.144,420.734 285.644,413.9 290.5,408C298.119,402.539 303.952,404.039 308,412.5C308.127,419.215 307.46,425.882 306,432.5C305.013,448.241 305.68,463.908 308,479.5C311.338,491.182 317.005,501.515 325,510.5C336.63,521.803 349.13,531.969 362.5,541C365.106,542.938 366.939,545.438 368,548.5C368.5,561.829 368.667,575.163 368.5,588.5C382.171,588.333 395.837,588.5 409.5,589C413.36,590.193 415.86,592.693 417,596.5C419.33,605.201 416.163,610.201 407.5,611.5C394.677,612.495 381.677,612.829 368.5,612.5L368.5,624.5C383.597,624.033 398.597,624.533 413.5,626C415.444,627.722 416.444,629.889 416.5,632.5C415.942,641.891 410.942,646.724 401.5,647C396.5,647.333 391.5,647.667 386.5,648C425.211,689.763 462.378,688.597 498,644.5C498.832,635.482 498.665,626.482 497.5,617.5C478.917,603.417 459.917,589.917 440.5,577C429.919,569.088 422.419,558.922 418,546.5C415.732,531.388 416.399,516.388 420,501.5C420.667,497.5 420.667,493.5 420,489.5C410.885,492.405 401.718,495.239 392.5,498C386.442,498.739 380.442,498.406 374.5,497C368.221,494.527 362.221,491.527 356.5,488C344.177,477.313 335.344,464.147 330,448.5C326.667,440.833 326.667,433.167 330,425.5C335.066,415.511 341.899,407.011 350.5,400C367.482,392.706 384.482,392.706 401.5,400C408.667,403.167 413.833,408.333 417,415.5C420.299,436.526 411.465,446.359 390.5,445C381.463,438.727 378.463,430.227 381.5,419.5C371.028,417.335 362.528,420.335 356,428.5C351.815,452.748 361.815,468.081 386,474.5C397.089,470.859 408.255,467.526 419.5,464.5C419.333,445.497 419.5,426.497 420,407.5C420.739,403.938 422.239,400.772 424.5,398C433.54,393.088 440.04,395.254 444,404.5C444.667,438.167 444.667,471.833 444,505.5C442.694,513.862 441.194,522.195 439.5,530.5C440.726,539.786 444.726,547.62 451.5,554C471.677,568.255 491.677,582.755 511.5,597.5C530.849,584.827 549.849,571.66 568.5,558C577.466,550.731 582.466,541.397 583.5,530C582.083,521.829 580.583,513.663 579,505.5C578.333,473.5 578.333,441.5 579,409.5C579.483,405.533 580.816,401.866 583,398.5C592.539,392.77 599.206,395.103 603,405.5C603.167,425.175 603.667,444.842 604.5,464.5C614.188,467.562 623.854,470.729 633.5,474C636.521,474.673 639.521,475.007 642.5,475C651.123,471.045 658.623,465.545 665,458.5C681.948,431.571 674.448,418.737 642.5,420C643.701,420.903 644.535,422.069 645,423.5C644.864,441.298 636.031,448.464 618.5,445C606.675,437.526 603.175,427.026 608,413.5C612.547,406.638 618.713,401.805 626.5,399C654.208,389.551 677.375,396.051 696,418.5C701.9,426.235 702.9,434.568 699,443.5C694.582,456.337 688.582,468.337 681,479.5C668.979,491.009 654.646,497.675 638,499.5C626.157,497.166 614.657,493.833 603.5,489.5C604.644,502.89 606.311,516.223 608.5,529.5C608.368,547.597 601.368,562.43 587.5,574C567.519,588.991 547.185,603.491 526.5,617.5C525.335,626.147 525.168,634.814 526,643.5C535.533,658.192 548.366,669.025 564.5,676C572.337,678.383 580.337,679.05 588.5,678C607.725,673.059 623.725,663.059 636.5,648C630.167,647.667 623.833,647.333 617.5,647C608.853,645.856 604.187,641.022 603.5,632.5C602.769,628.248 604.435,625.581 608.5,624.5C622.99,623.504 637.657,623.171 652.5,623.5L652.5,612.5C638.339,611.669 624.006,611.169 609.5,611C601.232,603.228 601.565,595.895 610.5,589C624.829,588.5 639.163,588.333 653.5,588.5C653.333,574.829 653.5,561.163 654,547.5C655.449,544.384 657.616,541.884 660.5,540C676.439,530.403 690.939,518.903 704,505.5C714.631,493.563 720.298,479.563 721,463.5C721.814,446.415 721.481,429.415 720,412.5C723.872,404.482 729.706,402.649 737.5,407C742.15,412.609 744.65,419.109 745,426.5C751.324,462.553 744.49,495.72 724.5,526C728.671,536.183 731.838,546.683 734,557.5C735.959,567.171 735.959,576.838 734,586.5C731.78,597.827 725.613,605.993 715.5,611C703.242,612.439 690.909,612.939 678.5,612.5C679.264,627.707 674.93,641.207 665.5,653C684.254,658.522 702.921,664.356 721.5,670.5C723.146,669.221 724.313,667.555 725,665.5C730.783,652.472 733.45,638.805 733,624.5C733.786,621.417 735.619,619.251 738.5,618C744.5,617.333 750.5,617.333 756.5,618C768.803,620.792 780.97,623.958 793,627.5C785.786,581.673 779.12,535.673 773,489.5C768.793,468.544 764.793,447.544 761,426.5C756.488,404.961 748.821,384.628 738,365.5C736.993,360.889 737.66,356.555 740,352.5C760.53,340.304 777.53,324.304 791,304.5C803.844,282.406 805.844,259.406 797,235.5C777.979,203.374 750.479,192.874 714.5,204C696.493,212.849 680.826,224.849 667.5,240C672.558,244.057 677.892,247.724 683.5,251C698.121,259.893 712.954,268.393 728,276.5C728.419,277.672 729.085,278.672 730,279.5C732.102,295.07 725.602,301.237 710.5,298C685.341,279.913 659.007,263.58 631.5,249C618.613,246.733 605.613,245.9 592.5,246.5C594.036,263.144 595.536,279.811 597,296.5C600.055,312.941 603.555,329.274 607.5,345.5C618.737,342.031 629.737,337.864 640.5,333C645.167,329.667 649.833,326.333 654.5,323C660.267,321.918 664.767,323.751 668,328.5C670.697,335.446 669.53,341.612 664.5,347C647.447,356.025 629.78,363.692 611.5,370C600.384,374.185 592.217,371.019 587,360.5C574.798,323.57 568.965,285.57 569.5,246.5C562.457,246.72 555.457,246.386 548.5,245.5C548.666,254.173 548.5,262.84 548,271.5C547.215,273.286 546.049,274.786 544.5,276C536.884,280.296 530.717,278.796 526,271.5C524.67,263.227 524.17,254.893 524.5,246.5L503.5,246.5C503.666,254.174 503.5,261.841 503,269.5C502.392,271.066 501.558,272.4 500.5,273.5ZM284.5,238.5C294.954,236.217 301.287,240.217 303.5,250.5C303.308,252.577 302.808,254.577 302,256.5C289.221,267.946 277.054,280.113 265.5,293C259.66,295.378 254.16,294.878 249,291.5C245.52,285.324 245.853,279.324 250,273.5C260.337,260.663 271.837,248.997 284.5,238.5ZM733.5,238.5C738.08,238.113 742.414,238.947 746.5,241C756.614,250.783 766.448,260.95 776,271.5C778.424,276.57 779.091,281.903 778,287.5C773.045,295.187 766.879,296.353 759.5,291C749.674,278.841 738.841,267.674 727,257.5C723.355,248.98 725.521,242.647 733.5,238.5ZM699.5,539.5C698.797,541.716 697.464,543.549 695.5,545C689.974,549.36 684.307,553.526 678.5,557.5C677.501,567.812 677.168,578.145 677.5,588.5C687.416,588.819 697.25,588.486 707,587.5C709.363,578.977 710.029,570.31 709,561.5C706.298,553.871 703.132,546.538 699.5,539.5Z"/>
    </g>
</svg>
