<?xml version="1.0" encoding="UTF-8" standalone="no"?>
<!DOCTYPE svg PUBLIC "-//W3C//DTD SVG 1.1//EN" "http://www.w3.org/Graphics/SVG/1.1/DTD/svg11.dtd">
<svg width="100%" height="100%" viewBox="0 0 1024 1024" version="1.1" xmlns="http://www.w3.org/2000/svg" xmlns:xlink="http://www.w3.org/1999/xlink" xml:space="preserve" xmlns:serif="http://www.serif.com/" style="fill-rule:evenodd;clip-rule:evenodd;stroke-linejoin:round;stroke-miterlimit:2;">
    <g transform="matrix(1.19906,0,0,1.19906,-101.321,-130.173)">
        <path d="M175.5,681.5C142.809,646.783 113.975,609.116 89,568.5C86.796,564.386 85.296,560.053 84.5,555.5C85.184,548.181 85.684,540.848 86,533.5C87.959,526.923 92.459,523.923 99.5,524.5C132.94,527.42 163.274,538.42 190.5,557.5C199.765,562.598 207.265,569.598 213,578.5C239.692,527.951 274.525,483.618 317.5,445.5C296.508,425.008 275.674,404.341 255,383.5C252.355,372.659 256.521,367.325 267.5,367.5C271.45,367.207 275.116,368.04 278.5,370C283.669,374.337 288.669,378.837 293.5,383.5C308.399,398.404 323.066,413.737 337.5,429.5C383.534,392.888 433.367,362.221 487,337.5C484.11,322.488 479.777,307.822 474,293.5L457,259.5C450.333,248.833 443.667,238.167 437,227.5C436.146,223.375 436.48,219.375 438,215.5C440.409,213.418 443.243,212.418 446.5,212.5C487.453,218.924 527.786,228.091 567.5,240C595.24,249.925 618.407,266.092 637,288.5C641.511,295.33 646.344,301.83 651.5,308C750.94,310.648 834.44,348.148 902,420.5C910.624,431.46 919.624,442.126 929,452.5C933.93,458.192 937.097,464.692 938.5,472C936.503,484.503 929.503,488.503 917.5,484C894.334,446.501 864.667,415.168 828.5,390C819.445,384.306 809.779,379.973 799.5,377C765.477,375.446 732.477,380.446 700.5,392C682.224,400.3 665.557,410.966 650.5,424C602.125,476.931 599.958,531.764 644,588.5C661.705,608.765 682.872,624.265 707.5,635C713.908,638.323 716.075,643.489 714,650.5C711.002,656.001 706.335,658.668 700,658.5C695.962,658.208 692.128,657.208 688.5,655.5C657.984,639.559 632.65,617.559 612.5,589.5C579.682,539.103 578.182,487.769 608,435.5C639.858,391.049 683.025,364.549 737.5,356C744.475,355.079 751.475,354.412 758.5,354C727.963,342.187 696.296,335.854 663.5,335C589.86,329.996 520.86,345.33 456.5,381C423.056,399.371 391.389,420.205 361.5,443.5C346.591,454.406 332.591,466.406 319.5,479.5C297.952,499.874 278.786,522.207 262,546.5C245.05,572.056 229.884,598.723 216.5,626.5C214.043,632.59 210.709,638.09 206.5,643C197.846,645.759 191.68,642.925 188,634.5C187.333,632.167 187.333,629.833 188,627.5C191.215,619.347 194.715,611.347 198.5,603.5C193.541,593.365 186.208,585.199 176.5,579C156.714,566.408 135.381,557.741 112.5,553C125.813,576.791 140.48,599.624 156.5,621.5C165.124,630.725 173.29,640.391 181,650.5C185.708,655.376 190.541,660.043 195.5,664.5C217.162,661.747 238.829,661.913 260.5,665C280.859,667.426 297.692,676.26 311,691.5C321.878,708.538 327.211,727.204 327,747.5C334.87,737.963 343.703,729.463 353.5,722C361.966,718.542 368.299,720.709 372.5,728.5C374.063,732.123 373.563,735.456 371,738.5L280.5,829C275.334,832.354 269.668,833.354 263.5,832C260.898,831.117 258.731,829.617 257,827.5C254.409,807.774 251.409,788.107 248,768.5C242.626,738.5 230.792,711.5 212.5,687.5C211.646,688.522 210.646,689.355 209.5,690C206.266,690.711 203.099,691.545 200,692.5C183.266,721.632 166.266,750.632 149,779.5C141.791,792.586 135.124,805.919 129,819.5C119.312,825.153 112.312,822.82 108,812.5C107.077,806.189 108.077,800.189 111,794.5C131.105,757.407 152.438,721.074 175,685.5C176.298,684.054 176.465,682.721 175.5,681.5ZM246.5,689.5C264.752,723.154 275.585,759.154 279,797.5C286.024,789.477 293.357,781.811 301,774.5C301.667,762.5 301.667,750.5 301,738.5C296.641,706.98 278.474,690.647 246.5,689.5ZM478.5,244.5C494.374,270.274 505.874,297.941 513,327.5C547.286,316.477 582.452,310.144 618.5,308.5C600.48,283.145 576.146,267.312 545.5,261C523.008,255.937 500.674,250.437 478.5,244.5ZM780.5,401.5C801.652,400.166 818.485,407.833 831,424.5C843.746,451.35 838.58,474.183 815.5,493C794.573,504.107 774.573,502.774 755.5,489C739.89,472.388 735.724,453.221 743,431.5C750.552,415.161 763.052,405.161 780.5,401.5ZM781.5,428.5C777.283,430.877 773.449,433.877 770,437.5C763.264,449.733 765.097,460.566 775.5,470C788.253,476.577 798.753,474.077 807,462.5C813.507,439.846 805.007,428.513 781.5,428.5ZM516.5,468.5C520.105,468.799 523.439,469.965 526.5,472C527.77,475.203 529.77,477.87 532.5,480C540.172,485.171 548.172,489.838 556.5,494C563.076,500.981 563.076,507.981 556.5,515C551.67,517.86 546.67,518.194 541.5,516C529.72,511.034 519.22,504.2 510,495.5C501.088,483.572 503.255,474.572 516.5,468.5ZM434.5,501.5C435.268,504.401 436.268,507.234 437.5,510C443.002,513.585 448.669,516.919 454.5,520C459.895,524.295 461.729,529.795 460,536.5C454.611,543.179 447.778,545.012 439.5,542C427.832,536.485 418.165,528.652 410.5,518.5C406.877,510.344 408.21,503.177 414.5,497C422.292,494.129 428.959,495.629 434.5,501.5ZM385.5,505.5C387.27,507.113 388.436,509.113 389,511.5C389.436,518.917 389.102,526.25 388,533.5C390.392,536.228 392.392,539.228 394,542.5C396.591,547.639 395.758,551.972 391.5,555.5C388.296,556.96 384.962,557.46 381.5,557C355.389,546.444 351.055,530.111 368.5,508C373.711,504.41 379.378,503.577 385.5,505.5ZM484.5,488.5C495.009,486.071 501.009,490.071 502.5,500.5C499.148,507.89 496.314,515.557 494,523.5C489.909,527.305 485.076,528.472 479.5,527C472.974,523.955 469.974,518.788 470.5,511.5C470.971,505.219 473.137,499.552 477,494.5C479.114,491.879 481.614,489.879 484.5,488.5ZM324.5,514.5C337.786,513.288 343.286,519.288 341,532.5C335.915,539.373 330.582,546.04 325,552.5C322.138,558.752 319.472,565.085 317,571.5C312.196,574.898 307.029,575.398 301.5,573C299,571.833 297.167,570 296,567.5C293.211,558.536 294.544,550.203 300,542.5C304.889,534.556 310.389,527.056 316.5,520C319.07,517.913 321.737,516.08 324.5,514.5ZM541.5,620.5C531.861,623.081 524.861,620.081 520.5,611.5C520.134,606.295 520.967,601.295 523,596.5C528.975,583.015 537.475,571.515 548.5,562C563.702,557.879 569.868,563.379 567,578.5C562.424,583.987 558.091,589.653 554,595.5C549.787,603.925 545.621,612.259 541.5,620.5ZM490.5,621.5C488.872,632.151 482.872,636.485 472.5,634.5C464.222,629.919 461.389,622.919 464,613.5C469.579,599.482 477.746,587.315 488.5,577C505.641,571.807 512.141,577.973 508,595.5C504.702,599.8 501.035,603.8 497,607.5C494.128,611.862 491.961,616.529 490.5,621.5ZM361.5,593.5C374.97,591.47 380.47,597.136 378,610.5C373.667,616.167 369.333,621.833 365,627.5C361.014,635.123 358.014,643.123 356,651.5C355.097,652.701 353.931,653.535 352.5,654C337.635,656.659 330.801,650.492 332,635.5C336.992,620.861 344.825,608.028 355.5,597C357.432,595.541 359.432,594.375 361.5,593.5ZM305.5,610.5C315.638,609.47 321.638,613.97 323.5,624C321.343,630.813 318.509,637.313 315,643.5C313.333,648.833 311.667,654.167 310,659.5C300.917,665.718 292.917,664.384 286,655.5C283.937,648.268 284.603,641.268 288,634.5C290.412,629.341 293.079,624.341 296,619.5C298.43,615.566 301.597,612.566 305.5,610.5ZM417.5,645.5C405.916,648.542 398.916,644.209 396.5,632.5C398.741,621.021 403.408,610.688 410.5,601.5C414.621,594.212 420.287,588.379 427.5,584C443.308,581.801 449.141,588.301 445,603.5C439.966,608.199 435.3,613.199 431,618.5C426.645,627.633 422.145,636.633 417.5,645.5ZM933.5,530.5C907.509,574.844 875.509,614.511 837.5,649.5C798.165,682.585 754.165,708.085 705.5,726C681.806,734.009 657.806,741.009 633.5,747C587.549,786.293 539.882,823.293 490.5,858C481.373,860.182 475.873,856.682 474,847.5C471.544,812.603 477.044,778.936 490.5,746.5C463.884,741.262 437.55,734.929 411.5,727.5C407.715,725.734 403.715,724.234 399.5,723C395.011,719.529 393.178,715.029 394,709.5C395.681,702.98 399.848,699.646 406.5,699.5C433.586,706.938 460.92,713.438 488.5,719C556.233,731.055 622.567,726.221 687.5,704.5C736.442,689.206 780.108,664.873 818.5,631.5C811.358,632.31 804.025,633.476 796.5,635C728.446,641.897 680.946,614.064 654,551.5C644.022,522.158 644.022,492.825 654,463.5C658.309,453.039 664.475,443.872 672.5,436C678.76,432.409 684.593,432.909 690,437.5C693.419,443.014 693.086,448.347 689,453.5C675.532,472.704 670.199,494.038 673,517.5C678.444,558.281 699.944,587.114 737.5,604C765.906,612.804 794.24,612.47 822.5,603C836.152,598.45 849.485,593.116 862.5,587C878.972,567.056 893.972,546.056 907.5,524C892.5,523.333 877.5,523.333 862.5,524C849.496,531.331 841.83,527.664 839.5,513C839.72,506.562 842.72,501.896 848.5,499C861.767,497.86 875.101,497.36 888.5,497.5C901.899,497.36 915.233,497.86 928.5,499C934.468,502.428 937.801,507.595 938.5,514.5C937.4,520.028 935.733,525.361 933.5,530.5ZM518.5,749.5C508.264,771.778 502.431,795.111 501,819.5C530.453,797.048 559.62,774.215 588.5,751C565.182,751.926 541.849,751.426 518.5,749.5Z"/>
    </g>
</svg>
