<?xml version="1.0" encoding="UTF-8" standalone="no"?>
<!DOCTYPE svg PUBLIC "-//W3C//DTD SVG 1.1//EN" "http://www.w3.org/Graphics/SVG/1.1/DTD/svg11.dtd">
<svg width="100%" height="100%" viewBox="0 0 1024 1024" version="1.1" xmlns="http://www.w3.org/2000/svg" xmlns:xlink="http://www.w3.org/1999/xlink" xml:space="preserve" xmlns:serif="http://www.serif.com/" style="fill-rule:evenodd;clip-rule:evenodd;stroke-linejoin:round;stroke-miterlimit:2;">
    <g transform="matrix(1.38588,0,0,1.38588,-208.633,-181.65)">
        <path d="M171.5,783.5C230.172,783.723 288.839,783.39 347.5,782.5C351.494,771.673 356.994,761.673 364,752.5C378.728,737.269 395.561,724.936 414.5,715.5C415.376,683.084 402.376,657.917 375.5,640C365.896,635.945 356.396,631.778 347,627.5C350.431,638.796 354.098,650.129 358,661.5C359.337,667.507 360.67,673.507 362,679.5C364.946,719.811 348.113,747.978 311.5,764C297.514,767.348 292.014,761.848 295,747.5L298.5,744C329.27,732.525 342.77,710.359 339,677.5C335.4,664.7 331.4,652.033 327,639.5C325.869,633.888 325.369,628.221 325.5,622.5C283.137,609.816 243.137,591.982 205.5,569C183.138,554.64 165.638,535.807 153,512.5C149.417,503.998 149.751,495.665 154,487.5C168.701,466.775 184.368,446.775 201,427.5C223.638,400.928 251.471,381.928 284.5,370.5C281.294,362.381 278.794,354.048 277,345.5C270.118,318.498 271.118,291.831 280,265.5C295.46,229.542 322.294,207.209 360.5,198.5C368.373,196.908 376.373,196.241 384.5,196.5C409.712,198.401 432.378,206.901 452.5,222C454.345,223.128 456.345,223.628 458.5,223.5C468.952,224.964 479.285,226.964 489.5,229.5C531.414,244.249 558.914,272.916 572,315.5C580.292,363.623 566.792,404.457 531.5,438C565.863,436.385 599.197,441.385 631.5,453C696.095,483.644 734.262,534.477 746,605.5C755.002,654.842 747.669,701.509 724,745.5C715.242,759.922 704.076,772.089 690.5,782C706.81,783.45 723.143,783.783 739.5,783C796.152,780.996 833.319,753.163 851,699.5C860.652,661.036 855.652,624.703 836,590.5C818.557,567.723 801.891,544.39 786,520.5C759.674,474.193 751.674,424.859 762,372.5C777.923,314.752 814.09,276.418 870.5,257.5L879.5,257.5C882.425,257.46 885.091,258.293 887.5,260C890.22,265.217 890.053,270.384 887,275.5C878.09,278.3 869.257,281.467 860.5,285C821.909,303.928 796.742,334.095 785,375.5C775.213,423.109 782.213,468.109 806,510.5C821.264,533.362 837.264,555.695 854,577.5C881.416,622.072 886.082,669.072 868,718.5C852.92,756.114 826.753,782.447 789.5,797.5C778.754,800.983 767.754,803.316 756.5,804.5L173.5,804.5C171.278,804.822 169.444,804.155 168,802.5C166.541,799.331 165.708,795.998 165.5,792.5C165.269,787.952 167.269,784.952 171.5,783.5ZM432.5,782.5C442.078,754.067 459.745,731.9 485.5,716C494.474,706.892 500.474,696.058 503.5,683.5C498.463,669.847 497.296,655.847 500,641.5C503.721,628.055 510.055,616.055 519,605.5C541.993,584.822 568.826,577.655 599.5,584C616.147,587.991 632.813,591.991 649.5,596C652.583,596.786 654.749,598.619 656,601.5C658.508,610.495 655.341,616.161 646.5,618.5C629.616,614.196 612.616,610.363 595.5,607C585.196,605.652 574.863,605.319 564.5,606C561.107,606.798 557.774,607.798 554.5,609C525.669,623.458 515.835,646.291 525,677.5C536.02,706.865 553.687,731.531 578,751.5C579.404,753.639 580.237,755.972 580.5,758.5C579.418,767.387 574.418,770.887 565.5,769C544.658,753.133 528.158,733.633 516,710.5C513.014,715.801 510.014,721.135 507,726.5C498.789,733.713 490.289,740.546 481.5,747C471.989,757.191 463.822,768.357 457,780.5C456.568,781.6 457.068,782.267 458.5,782.5C512.478,783.658 566.478,783.825 620.5,783C638.676,782.5 655.676,777.834 671.5,769C697.312,750.907 713.812,726.407 721,695.5C729.996,652.123 727.33,609.456 713,567.5C687.663,505.743 641.83,470.91 575.5,463C550.519,461.487 525.519,461.153 500.5,462C471.363,482.367 439.029,492.367 403.5,492C400.461,490.969 397.961,489.135 396,486.5C393.155,480.024 394.322,474.524 399.5,470C408.167,469.667 416.833,469.333 425.5,469C455.762,463.033 482.762,450.366 506.5,431C524.742,416.038 538.242,397.538 547,375.5C560.556,329.468 548.056,292.302 509.5,264C465.036,237.941 422.703,240.941 382.5,273C364.672,290.808 351.505,311.641 343,335.5C338.325,350.855 333.659,366.188 329,381.5C327.2,383.317 325.034,384.484 322.5,385C309.726,385.61 297.393,388.277 285.5,393C260.027,404.125 238.193,420.291 220,441.5C207.333,456.833 194.667,472.167 182,487.5C178.934,491.722 176.101,496.056 173.5,500.5C175.057,504.614 176.89,508.614 179,512.5C190.94,529.44 205.773,543.273 223.5,554C265.723,577.857 310.39,595.857 357.5,608C378.106,614.381 395.939,625.215 411,640.5C430.279,665.428 439.612,693.761 439,725.5C437.542,727.96 435.709,730.127 433.5,732C406.955,741.064 386.621,757.564 372.5,781.5C392.326,782.497 412.326,782.83 432.5,782.5ZM409.5,305.5C453.428,306.929 478.094,329.429 483.5,373C479.784,411.364 459.784,436.697 423.5,449C410.014,451.682 397.014,450.349 384.5,445C381.215,439.429 380.715,433.596 383,427.5C385.247,426.02 387.747,425.353 390.5,425.5C417.354,430.982 438.187,422.315 453,399.5C462.535,380.52 461.535,362.186 450,344.5C436.342,329.294 419.842,325.127 400.5,332C381.069,342.518 370.736,358.852 369.5,381C370.372,389.158 370.539,397.325 370,405.5C366.07,414.699 360.07,416.366 352,410.5C339.878,371.2 350.378,339.367 383.5,315C391.61,309.912 400.277,306.745 409.5,305.5ZM287.5,448.5C302.651,446.829 310.484,453.496 311,468.5C308.116,481.716 299.95,487.549 286.5,486C273.431,479.008 270.264,468.841 277,455.5C279.998,452.262 283.498,449.929 287.5,448.5ZM369.5,219.5C337.997,225.523 315.497,243.19 302,272.5C292.729,301.797 293.729,330.797 305,359.5C306.696,362.909 309.529,364.242 313.5,363.5C313.335,360.15 313.502,356.817 314,353.5C318.481,336.217 324.481,319.551 332,303.5C350.668,265.59 380.168,240.423 420.5,228C404.156,221.331 387.156,218.498 369.5,219.5Z"/>
    </g>
</svg>
