<?xml version="1.0" encoding="UTF-8" standalone="no"?>
<!DOCTYPE svg PUBLIC "-//W3C//DTD SVG 1.1//EN" "http://www.w3.org/Graphics/SVG/1.1/DTD/svg11.dtd">
<svg width="100%" height="100%" viewBox="0 0 1024 1024" version="1.1" xmlns="http://www.w3.org/2000/svg" xmlns:xlink="http://www.w3.org/1999/xlink" xml:space="preserve" xmlns:serif="http://www.serif.com/" style="fill-rule:evenodd;clip-rule:evenodd;stroke-linejoin:round;stroke-miterlimit:2;">
    <g transform="matrix(1.3323,0,0,1.3323,-184.524,-186.817)">
        <path d="M143.5,590.5C141.317,589.15 139.65,587.316 138.5,585C141.567,578.449 145.567,572.616 150.5,567.5C153.085,562.909 156.085,558.576 159.5,554.5C163.815,548.19 168.482,542.19 173.5,536.5C180.126,526.91 187.459,517.91 195.5,509.5C198.792,504.54 202.792,500.207 207.5,496.5C212.833,490.5 218.5,484.833 224.5,479.5C230.608,473.939 236.941,468.606 243.5,463.5L244.5,463.5C250.476,458.174 257.143,453.841 264.5,450.5C263.579,438.907 264.579,427.574 267.5,416.5L267.5,415.5C269.758,407.162 272.758,399.162 276.5,391.5C277.769,388.243 279.436,385.243 281.5,382.5C284.06,377.723 286.893,373.056 290,368.5C291.039,367.29 292.206,366.29 293.5,365.5C295.709,360.619 299.043,356.619 303.5,353.5L303.5,351.5L305.5,351.5C310.51,345.49 316.177,340.157 322.5,335.5C326.001,331.338 330.335,328.338 335.5,326.5C340.664,322.34 346.331,319.007 352.5,316.5C357.105,313.704 362.105,311.704 367.5,310.5C372.525,307.932 377.859,305.932 383.5,304.5L383.5,303.5C389.551,302.756 395.551,301.756 401.5,300.5C405.919,299.028 410.586,298.362 415.5,298.5C421.991,297.834 428.658,297.5 435.5,297.5C445.711,297.332 455.711,297.999 465.5,299.5L469.5,299.5C474.77,300.653 480.103,301.487 485.5,302C486.416,302.278 487.082,302.778 487.5,303.5C491.8,303.719 495.8,304.719 499.5,306.5C503.901,307.406 507.901,309.072 511.5,311.5C517.36,312.766 522.693,315.1 527.5,318.5L527.5,319.5C529.292,319.366 530.958,319.699 532.5,320.5C536.201,322.012 539.534,324.012 542.5,326.5C554.263,332.59 564.93,340.257 574.5,349.5C575.74,350.659 577.074,351.659 578.5,352.5C583.46,355.792 587.793,359.792 591.5,364.5C592.833,365.167 593.833,366.167 594.5,367.5C601.536,373.535 607.869,380.202 613.5,387.5C617.203,391.202 620.537,395.202 623.5,399.5C626.479,403.432 629.479,407.432 632.5,411.5C629.996,414.252 626.996,416.252 623.5,417.5C618.232,423.131 612.232,427.797 605.5,431.5C591.035,443.959 575.702,455.292 559.5,465.5C557.727,466.892 555.727,468.059 553.5,469C556.718,469.9 559.718,471.067 562.5,472.5C567.994,473.674 573.327,475.007 578.5,476.5L579.5,476.5C594.276,478.162 608.943,477.495 623.5,474.5C643.99,469.334 662.656,460.334 679.5,447.5C687.167,440.5 694.5,433.167 701.5,425.5C703.794,421.873 706.46,418.539 709.5,415.5C711.458,412.208 713.791,409.208 716.5,406.5C717.806,404.184 719.139,401.85 720.5,399.5C724.863,394.142 729.197,388.809 733.5,383.5C735.048,383.179 735.715,382.179 735.5,380.5C739.196,376.142 742.863,371.808 746.5,367.5C748.167,365.5 749.833,363.5 751.5,361.5C754.167,358.167 757.167,355.167 760.5,352.5C760.5,351.833 760.833,351.5 761.5,351.5C765.278,346.383 769.945,342.383 775.5,339.5C777.579,337.127 780.246,335.794 783.5,335.5C783.611,334.883 783.944,334.383 784.5,334C789.428,332.582 794.428,332.249 799.5,333C801.32,333.2 802.653,334.034 803.5,335.5L805.5,335.5C807.546,338.784 807.879,342.117 806.5,345.5C805.99,349.68 803.656,351.68 799.5,351.5C795.657,354.12 791.324,355.787 786.5,356.5L786.5,407.5C788.067,418.87 791.067,429.87 795.5,440.5C795.833,441.833 796.167,443.167 796.5,444.5C798.722,447.885 800.389,451.551 801.5,455.5C805.237,459.302 808.237,463.635 810.5,468.5C814.759,472.651 819.092,476.818 823.5,481C831.388,486.107 839.388,490.94 847.5,495.5C853.112,496.924 858.445,498.924 863.5,501.5C878.301,504.484 891.468,510.818 903,520.5L906.5,527.5C908.648,538.02 904.982,546.02 895.5,551.5C890.753,555.207 885.419,557.874 879.5,559.5C862.874,566.314 846.874,574.48 831.5,584C826.429,588.949 821.262,593.783 816,598.5C812.303,603.685 808.47,608.685 804.5,613.5C798.742,623.682 794.076,634.349 790.5,645.5C788.927,653.305 787.26,660.972 785.5,668.5L785.5,671.5C785.334,678.508 785.5,685.508 786,692.5C791.725,697.945 798.559,701.111 806.5,702C808.645,705.784 808.979,709.618 807.5,713.5C806.797,715.716 805.464,717.549 803.5,719C798.177,719.499 792.844,719.666 787.5,719.5C781.926,718.101 776.926,715.768 772.5,712.5C770.326,712.25 768.659,711.25 767.5,709.5C747.416,695.426 732.083,677.426 721.5,655.5C719.896,654.713 719.229,653.38 719.5,651.5C715.837,645.508 712.17,639.508 708.5,633.5C706.1,631.704 704.433,629.37 703.5,626.5C698.807,622.139 694.141,617.805 689.5,613.5C679.248,606.461 667.914,601.627 655.5,599C645.506,597.727 635.84,598.894 626.5,602.5C618.163,608.004 609.497,613.004 600.5,617.5L600.5,618.5C602.797,620.294 604.963,622.294 607,624.5C609.356,628.34 611.856,632.006 614.5,635.5C617.101,638.604 619.934,641.604 623,644.5C633.509,658.863 644.009,673.196 654.5,687.5C659.49,693.46 664.49,699.46 669.5,705.5C672.79,710.536 672.124,714.536 667.5,717.5C663.48,719.203 659.48,720.87 655.5,722.5C647.334,726.908 638.667,730.241 629.5,732.5C627.491,734.065 625.157,735.065 622.5,735.5C605.51,742.164 587.843,746.497 569.5,748.5C562.324,749.649 554.991,750.649 547.5,751.5C532.83,751.667 518.163,751.5 503.5,751C498.253,750.818 493.253,749.984 488.5,748.5C483.586,748.638 478.919,747.972 474.5,746.5C470.768,746.016 467.101,745.349 463.5,744.5C458.842,743.911 454.509,742.578 450.5,740.5C429.183,734.675 409.183,725.842 390.5,714C385.586,710.723 380.92,707.223 376.5,703.5C375.317,702.496 373.984,701.662 372.5,701C358.327,700.831 344.327,700.331 330.5,699.5C321.91,699.508 313.577,698.508 305.5,696.5C304.508,696.672 303.842,696.338 303.5,695.5C292.622,694.531 282.289,691.865 272.5,687.5L271.5,687.5C249.555,680.7 229.888,670.033 212.5,655.5C207.153,651.817 202.486,647.484 198.5,642.5C194.9,640.57 191.9,637.903 189.5,634.5C180.165,626.796 171.498,618.463 163.5,609.5C160.885,608.55 158.885,606.883 157.5,604.5C152.833,600.5 148.5,596.167 144.5,591.5C143.833,591.5 143.5,591.167 143.5,590.5ZM393.5,347.5L392.5,347.5C388.392,351.394 384.059,355.061 379.5,358.5C376.337,362.156 373.671,366.156 371.5,370.5C362.077,385.954 359.077,402.621 362.5,420.5L383.5,420.5C385.508,404.51 390.842,389.843 399.5,376.5C402.669,369.338 407.002,363.005 412.5,357.5C414.094,354.236 416.427,351.569 419.5,349.5C420.906,346.586 422.906,344.086 425.5,342C432.044,336.245 438.711,330.745 445.5,325.5C447.237,323.45 449.237,321.617 451.5,320L450.5,319C440.811,318.307 431.144,318.473 421.5,319.5C414.877,320.558 408.21,321.224 401.5,321.5C401.666,326.844 401.499,332.177 401,337.5C399.787,341.869 397.287,345.203 393.5,347.5ZM591.5,416.5C594.813,413.522 598.147,410.522 601.5,407.5C598.141,404.471 594.808,401.471 591.5,398.5C589.799,399.554 588.132,400.554 586.5,401.5C579.457,406.527 572.124,411.194 564.5,415.5C561.86,416.82 559.193,418.153 556.5,419.5C547.037,425.736 537.37,431.736 527.5,437.5C521.043,441.395 514.377,444.728 507.5,447.5C507.082,448.222 506.416,448.722 505.5,449C512.681,452.757 520.014,456.257 527.5,459.5C529.91,457.628 532.577,456.295 535.5,455.5C539.463,452.846 543.463,450.18 547.5,447.5L548.5,447.5C551.65,444.421 555.317,442.087 559.5,440.5C562.851,437.152 566.518,434.152 570.5,431.5C573.518,429.474 576.518,427.474 579.5,425.5C583.104,422.025 587.104,419.025 591.5,416.5ZM495.5,432.5C500.489,428.669 505.822,425.336 511.5,422.5C517.989,417.418 524.989,413.085 532.5,409.5C546.659,400.585 560.992,391.919 575.5,383.5C576.303,382.577 576.47,381.577 576,380.5C569.238,373.233 562.072,366.566 554.5,360.5C553.2,359.892 551.867,359.225 550.5,358.5C548.297,359.767 545.963,360.767 543.5,361.5C532.645,364.384 521.979,367.718 511.5,371.5C507.584,374.257 503.25,376.257 498.5,377.5C495.669,379.417 492.669,381.083 489.5,382.5C472.992,392.504 459.158,405.504 448,421.5C446.864,424.096 446.031,426.763 445.5,429.5C451.869,430.256 457.869,431.923 463.5,434.5C466.673,435.042 469.673,436.042 472.5,437.5C475.821,438.495 479.154,439.495 482.5,440.5C486.851,437.806 491.184,435.14 495.5,432.5ZM433.5,447.5C432.508,447.672 431.842,447.338 431.5,446.5C418.032,444.487 404.699,442.487 391.5,440.5L359.5,440.5C356.5,441.093 353.5,441.926 350.5,443C356.108,446.276 361.442,449.943 366.5,454C367.252,454.671 367.586,455.504 367.5,456.5C373.917,461.257 378.917,467.257 382.5,474.5C383.167,476.167 383.833,477.833 384.5,479.5C386.506,482.86 388.006,486.526 389,490.5C390.163,497.453 390.663,504.453 390.5,511.5C391.317,513.969 391.817,516.635 392,519.5C395.941,516.448 400.107,513.782 404.5,511.5C407.961,509.872 411.628,508.872 415.5,508.5C428.385,506.565 441.052,507.565 453.5,511.5C457.702,512.132 461.702,513.132 465.5,514.5C474.086,516.723 482.419,519.389 490.5,522.5C502.911,525.644 515.244,528.644 527.5,531.5C540.767,533.212 554.1,533.879 567.5,533.5L575.5,533.5C580.616,532.194 585.949,531.527 591.5,531.5C596.591,529.871 601.924,528.871 607.5,528.5C613.018,527.399 618.685,526.399 624.5,525.5L629.5,525.5L629.5,495.5C611.401,498.922 593.401,499.255 575.5,496.5C564.326,495.315 553.659,492.648 543.5,488.5C538.074,486.899 532.74,485.066 527.5,483C512.929,476.766 498.596,470.266 484.5,463.5C476.481,461.606 468.814,458.939 461.5,455.5C456.466,454.602 451.799,452.935 447.5,450.5C442.5,450.502 437.833,449.502 433.5,447.5ZM303.5,454.5C297.971,456.737 292.305,458.903 286.5,461C281.445,463.857 276.445,466.691 271.5,469.5C265.908,473.084 260.574,477.084 255.5,481.5C255.158,482.338 254.492,482.672 253.5,482.5C249.153,486.845 244.486,490.845 239.5,494.5C239.158,495.338 238.492,495.672 237.5,495.5C231.472,501.86 225.472,508.193 219.5,514.5C215.707,519.138 211.707,523.472 207.5,527.5C202.892,535.048 197.559,542.048 191.5,548.5C189.196,552.797 186.196,556.464 182.5,559.5C180.93,563.638 178.596,567.304 175.5,570.5C175.297,572.044 174.63,573.378 173.5,574.5C173.957,575.298 174.624,575.631 175.5,575.5C189.837,575.333 204.171,575.5 218.5,576C219.056,576.383 219.389,576.883 219.5,577.5C221.229,578.117 222.729,579.117 224,580.5C225.607,584.259 225.774,587.926 224.5,591.5L223.5,591.5C222.409,594.428 220.409,596.594 217.5,598C209.661,598.456 201.828,598.289 194,597.5C191.167,597.833 188.333,598.167 185.5,598.5C186.193,599.518 186.859,600.518 187.5,601.5C189.894,602.894 191.561,604.894 192.5,607.5C197.109,612.372 201.943,617.038 207,621.5C207.464,622.094 207.631,622.761 207.5,623.5C213.839,628.84 220.172,634.173 226.5,639.5C231.132,642.143 235.465,645.143 239.5,648.5C243.405,650.61 247.072,652.943 250.5,655.5C254.354,656.93 258.021,658.597 261.5,660.5C265.127,661.321 268.46,662.654 271.5,664.5C273.292,664.366 274.958,664.699 276.5,665.5C285.429,667.661 294.429,667.994 303.5,666.5C308.376,663.654 313.709,661.987 319.5,661.5C326.127,657.851 332.794,654.185 339.5,650.5C343.183,646.82 347.183,643.486 351.5,640.5C351.5,639.833 351.833,639.5 352.5,639.5C361.515,630.496 367.515,619.829 370.5,607.5C370.667,571.832 370.5,536.165 370,500.5C369.442,497.066 368.609,493.733 367.5,490.5C365.36,486.897 363.193,483.23 361,479.5C357.629,476.297 354.462,472.964 351.5,469.5C337.577,458.223 321.577,453.223 303.5,454.5ZM524.5,341.5C508.488,331.498 491.154,324.831 472.5,321.5C473.411,329.769 470.411,336.269 463.5,341C457.996,344.356 452.663,347.856 447.5,351.5C439.467,359.366 431.967,367.699 425,376.5C418.939,385.968 413.439,395.635 408.5,405.5C407.87,409.048 406.87,412.381 405.5,415.5L405.5,421.5C411.184,422.473 416.85,422.473 422.5,421.5C426.04,413.06 431.04,405.727 437.5,399.5C440.101,395.229 443.434,391.563 447.5,388.5C464.412,371.274 484.412,358.94 507.5,351.5C513.52,348.5 519.854,346 526.5,344C525.619,343.292 524.953,342.458 524.5,341.5ZM660.5,484.5L659.5,484.5C658.167,485.5 656.833,486.5 655.5,487.5C653.254,488.455 650.921,489.122 648.5,489.5L648.5,575.5L653.5,575.5C659.814,576.387 665.814,578.054 671.5,580.5L674.5,580.5C675.641,581.339 676.974,582.006 678.5,582.5C679.474,580.257 679.808,577.924 679.5,575.5C679.168,542.662 679.502,509.996 680.5,477.5L680.5,472.5L679.5,472.5C676.319,474.592 673.319,476.925 670.5,479.5C667.193,481.153 663.86,482.82 660.5,484.5ZM613.5,548.5L612.5,548.5C608.361,549.563 604.028,550.23 599.5,550.5C596.67,550.963 594.003,551.629 591.5,552.5L580.5,552.5C568.38,554.248 556.047,554.915 543.5,554.5C533.243,553.64 523.243,551.973 513.5,549.5C507.136,548.745 501.136,547.079 495.5,544.5C486.442,542.654 477.442,540.488 468.5,538C452.852,531.265 436.519,528.098 419.5,528.5C414.313,530.767 409.313,533.6 404.5,537C402.21,538.777 400.543,540.944 399.5,543.5L398.5,543.5C392.822,551.568 392.155,559.901 396.5,568.5C397.242,570.98 398.242,573.313 399.5,575.5C404.378,579.865 409.712,583.698 415.5,587C422.295,590.429 429.295,592.929 436.5,594.5C445.487,595.657 454.487,595.657 463.5,594.5C470.006,593.331 476.673,592.331 483.5,591.5C487.702,591.817 491.702,591.483 495.5,590.5C506.167,589.167 516.833,587.833 527.5,586.5C538.156,585.901 548.823,585.567 559.5,585.5C564.64,584.512 569.974,584.179 575.5,584.5C580.833,583.833 586.167,583.167 591.5,582.5L629.5,582.5L629.5,546.5C628.508,546.328 627.842,546.662 627.5,547.5C622.797,547.437 618.13,547.771 613.5,548.5ZM742.5,406.5C735.569,417.094 727.902,427.094 719.5,436.5C713.609,444.568 707.109,452.235 700,459.5C699.825,462.157 699.992,464.824 700.5,467.5C700.865,472.094 701.865,476.427 703.5,480.5C707.497,479.5 711.497,478.5 715.5,477.5C721.901,474.986 728.568,472.986 735.5,471.5C739.203,469.321 743.203,467.655 747.5,466.5C750.331,464.583 753.331,462.917 756.5,461.5C759.256,458.611 762.589,456.444 766.5,455L774.5,447C770.828,436.801 768.494,426.301 767.5,415.5C766.025,403.539 765.025,391.539 764.5,379.5C763.974,381.23 762.974,382.564 761.5,383.5C758.138,387.192 754.805,390.859 751.5,394.5C748.497,398.509 745.497,402.509 742.5,406.5ZM815.5,500.5C808.987,497.582 803.654,493.249 799.5,487.5C798.504,487.586 797.671,487.252 797,486.5C795.25,484.266 793.75,481.932 792.5,479.5C791.504,479.586 790.671,479.252 790,478.5C788.382,474.926 786.049,471.926 783,469.5C780.532,471.803 777.699,473.47 774.5,474.5C752.386,489.208 728.052,498.208 701.5,501.5C701.175,509.019 701.508,516.352 702.5,523.5C720.674,523.17 738.674,523.503 756.5,524.5C765.533,525.225 774.533,526.225 783.5,527.5C789.098,528.214 794.431,529.548 799.5,531.5C807.39,532.222 815.057,534.055 822.5,537C827.432,540.9 828.766,545.733 826.5,551.5C823.711,554.883 820.045,556.55 815.5,556.5C809.914,555.741 804.581,554.407 799.5,552.5C791.325,551.066 783.325,549.399 775.5,547.5L767.5,547.5C765.833,546.833 764.167,546.167 762.5,545.5L701.5,545.5L701.5,562.5L705.5,562.5C708.983,563.01 712.316,563.677 715.5,564.5L719.5,564.5C730.107,566.65 740.773,569.15 751.5,572C753.727,572.941 755.727,574.108 757.5,575.5C761.42,576.127 764.753,577.793 767.5,580.5C773.47,582.818 778.803,586.151 783.5,590.5C786.141,592.128 788.808,593.794 791.5,595.5C793.4,591.268 796.067,587.601 799.5,584.5C802.474,581.862 805.474,579.195 808.5,576.5C810.219,573.781 812.553,571.781 815.5,570.5C819.765,566.362 824.431,562.695 829.5,559.5C840.639,553.86 851.972,548.527 863.5,543.5C870.263,540.284 876.93,536.784 883.5,533C880.051,531.251 876.717,529.417 873.5,527.5C862.778,524.264 852.444,520.264 842.5,515.5C841.833,515.5 841.5,515.167 841.5,514.5C831.992,511.413 823.326,506.746 815.5,500.5ZM767.5,655.5L767.5,652.5C768.518,644.797 770.518,637.464 773.5,630.5C774.088,627.937 775.088,625.604 776.5,623.5C776.647,620.557 777.313,617.724 778.5,615C776.982,613.649 775.649,612.149 774.5,610.5C768.495,606.16 762.495,601.826 756.5,597.5C755.508,597.672 754.842,597.338 754.5,596.5C749.856,595.401 745.522,593.734 741.5,591.5L739.5,591.5C726.753,587.731 713.753,585.064 700.5,583.5C700.335,586.518 700.502,589.518 701,592.5C703.705,595.036 706.205,597.703 708.5,600.5C715.936,607.268 722.269,614.935 727.5,623.5C729.417,626.331 731.083,629.331 732.5,632.5C736.59,638.342 739.923,644.676 742.5,651.5C748.092,660.329 754.425,668.662 761.5,676.5C762.315,677.429 763.148,678.429 764,679.5C764.333,678.833 764.667,678.167 765,677.5C765.035,669.923 765.869,662.59 767.5,655.5ZM569.5,604.5L559.5,604.5C550.809,605.252 542.142,606.252 533.5,607.5L527.5,607.5C523.081,608.972 518.414,609.638 513.5,609.5C505.896,610.646 498.229,611.312 490.5,611.5C484.395,612.996 478.062,613.663 471.5,613.5C470.081,614.451 468.415,614.784 466.5,614.5C456.042,616.307 445.375,616.807 434.5,616C425.451,614.818 417.118,611.985 409.5,607.5C404.593,605.261 399.926,602.594 395.5,599.5C394.542,598.038 393.376,596.705 392,595.5C391.315,604.988 389.815,614.322 387.5,623.5C386.715,626.404 385.381,629.07 383.5,631.5C377.336,645.331 367.67,655.997 354.5,663.5L354.5,664.5C350.628,666.597 346.961,668.931 343.5,671.5C339.44,672.908 335.44,674.408 331.5,676C329.875,676.853 329.542,677.853 330.5,679C341.495,679.5 352.495,679.667 363.5,679.5C363.335,676.15 363.502,672.817 364,669.5C364.583,663.674 367.083,662.341 371.5,665.5L372.5,665.5C386.899,665.408 401.233,664.408 415.5,662.5C426.046,660.181 436.713,657.847 447.5,655.5L449.5,655.5C455.572,653.261 461.905,651.594 468.5,650.5C489.964,643.119 511.297,635.119 532.5,626.5C534.426,625.514 536.426,624.514 538.5,623.5C540.05,622.559 541.716,621.893 543.5,621.5C547.93,618.952 552.597,616.952 557.5,615.5C562.516,612.326 567.849,609.659 573.5,607.5L575.5,607.5C575.577,606.25 576.244,605.417 577.5,605C574.854,604.503 572.187,604.336 569.5,604.5ZM582.5,627.5L581.5,627.5C568.912,633.695 556.245,639.695 543.5,645.5C546.408,651.591 549.574,657.591 553,663.5C563.864,677.872 576.697,689.872 591.5,699.5C594.754,699.794 597.421,701.127 599.5,703.5C602.485,704.326 605.151,705.659 607.5,707.5C613.454,708.487 619.454,709.154 625.5,709.5C630.517,709.902 635.183,708.902 639.5,706.5C639.737,705.209 639.404,704.209 638.5,703.5C633.025,697.229 628.025,690.563 623.5,683.5C614.824,671.471 606.157,659.471 597.5,647.5C594.313,645.656 592.313,642.989 591.5,639.5C590.504,639.586 589.671,639.252 589,638.5C586.822,634.806 584.655,631.139 582.5,627.5ZM510.5,678.5C511.11,679.391 511.443,680.391 511.5,681.5C514.414,685.658 517.081,689.991 519.5,694.5L519.5,695.5C521.587,696.585 522.92,698.251 523.5,700.5C526.2,702.234 528.2,704.568 529.5,707.5C536.996,714.828 544.662,721.995 552.5,729C565.395,728.972 578.062,727.305 590.5,724C589.584,723.722 588.918,723.222 588.5,722.5C584.184,719.86 579.851,717.194 575.5,714.5C563.958,706.963 553.625,697.963 544.5,687.5C537.693,680.011 532.026,671.678 527.5,662.5C525.939,659.703 524.606,656.703 523.5,653.5C522.14,654.18 520.807,654.847 519.5,655.5L517.5,655.5C513.183,657.94 508.517,659.607 503.5,660.5C505.808,666.459 508.142,672.459 510.5,678.5ZM511.5,719.5C508.791,716.792 506.458,713.792 504.5,710.5C501.143,706.465 498.143,702.132 495.5,697.5L495.5,696.5C493.177,693.865 491.344,690.865 490,687.5C489.495,685.482 488.995,683.482 488.5,681.5C486.263,677.466 484.596,673.132 483.5,668.5C476.494,670.169 469.494,672.002 462.5,674C461.978,674.561 461.645,675.228 461.5,676C462.32,677.8 462.986,679.634 463.5,681.5L463.5,682.5C466.619,690.739 470.286,698.739 474.5,706.5C478.064,710.614 481.397,714.948 484.5,719.5C486.9,721.296 488.567,723.63 489.5,726.5C496.541,728.512 503.875,729.512 511.5,729.5L511.5,730.5C514.572,730.817 517.572,730.484 520.5,729.5C520.376,728.893 520.043,728.56 519.5,728.5C516.833,725.5 514.167,722.5 511.5,719.5ZM453.5,711.5C450.31,706.453 447.643,701.12 445.5,695.5C442.545,691.321 440.545,686.654 439.5,681.5C439.5,680.833 439.167,680.5 438.5,680.5C432.5,681.167 426.5,681.833 420.5,682.5C413.73,684.075 406.73,684.741 399.5,684.5C395.979,685.166 392.313,685.833 388.5,686.5C393.121,688.465 396.788,691.465 399.5,695.5C403.578,697.057 407.578,698.89 411.5,701C412.381,701.708 413.047,702.542 413.5,703.5C421.14,706.323 428.473,709.656 435.5,713.5C440.05,714.463 444.383,715.797 448.5,717.5C451.477,718.071 454.31,719.071 457,720.5C457.105,717.325 455.938,714.659 453.5,712.5L453.5,711.5ZM294.5,403.5L294.5,404.5C292.91,408.098 291.41,411.764 290,415.5C287.88,423.425 286.547,431.425 286,439.5C291.448,436.293 297.281,433.96 303.5,432.5C304.568,431.566 305.901,431.232 307.5,431.5C316.31,427.101 325.643,424.434 335.5,423.5C336.99,421.72 338.99,421.054 341.5,421.5C338.336,402.499 341.002,384.499 349.5,367.5C349.402,365.447 350.069,363.78 351.5,362.5C351.328,361.508 351.662,360.842 352.5,360.5C354.108,357.2 355.697,353.826 357.5,350.5C357.938,349.692 358.624,349.369 359.5,349.5C364.288,341.544 370.622,335.044 378.5,330C375.826,330.153 373.16,330.653 370.5,331.5C370.158,332.338 369.492,332.672 368.5,332.5C362.259,335.621 355.925,338.787 349.5,342C344.934,345.414 340.268,348.58 335.5,351.5C324.44,360.991 314.774,371.658 306.5,383.5C301.982,389.871 297.982,396.538 294.5,403.5ZM239.5,555.5C238.883,555.389 238.383,555.056 238,554.5C235.629,545.198 236.129,536.198 239.5,527.5C239.328,526.508 239.662,525.842 240.5,525.5C243.782,518.663 248.782,513.33 255.5,509.5C261.356,505.739 267.856,503.739 275,503.5C279.802,504.267 284.635,505.101 289.5,506C291.727,506.941 293.727,508.108 295.5,509.5C297.062,509.733 298.395,510.4 299.5,511.5C303.98,514.129 307.313,517.796 309.5,522.5C310.87,524.25 311.87,526.25 312.5,528.5C316.692,539.119 316.025,549.453 310.5,559.5C307.61,566.39 302.943,571.724 296.5,575.5C293.992,577.924 290.992,579.59 287.5,580.5C276.733,583.898 266.4,582.898 256.5,577.5C255.662,577.158 255.328,576.492 255.5,575.5C252.041,574.564 249.207,572.564 247,569.5C244.574,566.309 242.407,562.975 240.5,559.5C239.566,558.432 239.232,557.099 239.5,555.5ZM271.5,526.5C270.791,527.404 269.791,527.737 268.5,527.5C265.196,529.973 262.362,532.973 260,536.5C258.244,541.126 258.077,545.793 259.5,550.5C261.934,553.438 264.601,556.271 267.5,559C273.74,560.019 279.74,559.519 285.5,557.5C291.957,550.343 293.124,542.343 289,533.5C284.466,528.068 278.633,525.735 271.5,526.5Z"/>
    </g>
</svg>
