<?xml version="1.0" encoding="UTF-8" standalone="no"?>
<!DOCTYPE svg PUBLIC "-//W3C//DTD SVG 1.1//EN" "http://www.w3.org/Graphics/SVG/1.1/DTD/svg11.dtd">
<svg width="100%" height="100%" viewBox="0 0 1024 1024" version="1.1" xmlns="http://www.w3.org/2000/svg" xmlns:xlink="http://www.w3.org/1999/xlink" xml:space="preserve" xmlns:serif="http://www.serif.com/" style="fill-rule:evenodd;clip-rule:evenodd;stroke-linejoin:round;stroke-miterlimit:2;">
    <g transform="matrix(1.39751,0,0,1.39751,-176.907,-203.486)">
        <path d="M200.5,328.5C193.124,332.074 187.624,330.074 184,322.5C183.333,302.5 183.333,282.5 184,262.5C185.65,256.692 188.15,251.358 191.5,246.5C198.891,233.464 209.557,224.131 223.5,218.5C231.003,214.962 239.003,213.295 247.5,213.5C247.263,212.209 247.596,211.209 248.5,210.5C250.087,206.317 252.421,202.65 255.5,199.5C262.561,190.104 270.895,182.104 280.5,175.5C288.199,168.648 296.866,163.314 306.5,159.5C314.007,155.606 322.007,152.773 330.5,151C337.349,148.863 344.349,147.697 351.5,147.5C352.263,146.732 353.263,146.232 354.5,146C374.153,144.561 393.153,147.061 411.5,153.5C412.959,153.433 414.292,153.766 415.5,154.5C430.457,159.144 444.124,166.144 456.5,175.5C472.996,187.155 487.829,200.821 501,216.5C502.92,219.339 504.587,222.339 506,225.5C506.781,228.817 506.281,231.817 504.5,234.5L504.5,235.5C499.273,242.698 492.939,244.031 485.5,239.5C483.284,238.797 481.451,237.464 480,235.5C477.336,231.343 474.503,227.343 471.5,223.5C463.774,215.77 455.774,208.437 447.5,201.5C432.338,191.782 416.338,183.782 399.5,177.5C390.901,175.734 382.235,174.4 373.5,173.5C369.702,172.517 365.702,172.183 361.5,172.5C355.678,173.489 349.678,174.156 343.5,174.5L343.5,175.5C328.288,177.9 314.288,183.233 301.5,191.5C296.872,195.156 292.206,198.822 287.5,202.5C286.167,204.5 284.5,206.167 282.5,207.5C280.251,211.754 277.585,215.754 274.5,219.5C277.848,220.287 281.182,221.121 284.5,222C285.942,222.377 286.942,223.21 287.5,224.5C295.23,229.392 301.896,235.558 307.5,243C309.082,242.807 310.416,241.974 311.5,240.5C317.145,230.188 325.145,222.188 335.5,216.5C342.17,211.993 349.504,208.993 357.5,207.5C383.505,200.565 408.171,203.898 431.5,217.5C437.587,220.539 442.921,224.539 447.5,229.5C460.905,239.741 472.071,252.075 481,266.5C482.741,269.309 483.908,272.309 484.5,275.5C496.158,277.939 507.158,281.939 517.5,287.5L518.5,287.5C551.081,304.964 578.748,328.298 601.5,357.5C608.647,364.646 614.647,372.646 619.5,381.5C622.241,383.975 624.241,386.975 625.5,390.5C630.917,397.659 635.583,405.325 639.5,413.5C642.418,418.333 645.084,423.333 647.5,428.5C655.84,443.518 662.84,459.185 668.5,475.5C670.293,477.426 671.293,479.759 671.5,482.5C677.631,496.449 682.965,510.782 687.5,525.5C696.723,552.376 704.723,579.709 711.5,607.5L711.5,608.5C714.786,620.249 717.452,632.249 719.5,644.5C722.614,654.8 724.114,665.466 724,676.5C726.372,679.91 728.205,683.577 729.5,687.5C730.167,687.5 730.5,687.833 730.5,688.5C733.2,693.52 735.867,698.52 738.5,703.5L738.5,704.5C742.665,710.158 746.332,716.158 749.5,722.5C750.906,722.973 751.573,723.973 751.5,725.5C764.153,744.797 776.82,764.13 789.5,783.5C793.331,788.489 796.664,793.822 799.5,799.5L799.5,801.5C800.927,803.148 801.76,805.148 802,807.5C802.675,814.528 802.508,821.528 801.5,828.5C800.833,829.5 800.167,830.5 799.5,831.5C796.069,843.93 788.403,852.596 776.5,857.5C765.427,864.374 753.427,866.207 740.5,863C735.326,861.249 730.659,858.749 726.5,855.5C724.214,854.684 722.214,853.35 720.5,851.5C716.171,861.153 709.504,868.487 700.5,873.5C698.254,874.455 695.921,875.122 693.5,875.5C693.5,876.167 693.167,876.5 692.5,876.5C679.751,877.806 668.751,874.139 659.5,865.5C656.674,862.516 654.341,859.183 652.5,855.5C650.654,857.655 648.654,860.322 646.5,863.5C643.341,868.08 639.341,871.747 634.5,874.5L632.5,874.5C620.904,880.472 609.904,879.472 599.5,871.5C598.391,871.443 597.391,871.11 596.5,870.5C590.548,864.617 585.548,857.951 581.5,850.5C564.928,866.623 546.928,868.623 527.5,856.5C517.832,850.839 511.832,842.506 509.5,831.5C508.113,829.123 507.279,826.457 507,823.5C506.177,815.323 506.344,807.323 507.5,799.5C509.35,783.288 511.683,767.288 514.5,751.5C514.949,746.137 515.616,740.804 516.5,735.5C519.115,715.977 521.615,696.311 524,676.5C524.847,674.807 525.68,673.14 526.5,671.5C528.517,670.471 530.517,669.471 532.5,668.5C543.817,667.301 549.484,672.301 549.5,683.5C549.019,689.198 548.352,694.864 547.5,700.5L547.5,701.5C547.672,702.492 547.338,703.158 546.5,703.5C546.304,711.077 545.304,718.411 543.5,725.5L543.5,735.5L542.5,735.5C541.167,747.162 539.834,758.829 538.5,770.5C536.024,786.985 534.191,803.651 533,820.5C534.927,830.932 541.094,836.599 551.5,837.5C552.833,836.833 554.167,836.167 555.5,835.5C558.326,835.002 560.66,833.669 562.5,831.5C566.438,828.565 568.605,824.565 569,819.5C569.358,807.488 569.858,795.488 570.5,783.5C570.8,744.822 570.8,706.155 570.5,667.5C567.262,665.725 564.262,663.725 561.5,661.5L559.5,661.5C559.5,660.833 559.167,660.5 558.5,660.5C556.469,658.478 554.135,656.811 551.5,655.5C547.538,652.512 543.538,649.512 539.5,646.5C536.19,644.518 533.19,642.185 530.5,639.5C528.973,639.573 527.973,638.906 527.5,637.5C513.263,628.221 499.596,618.221 486.5,607.5C478.926,602.927 471.926,597.594 465.5,591.5C452.01,580.583 438.343,569.75 424.5,559C421.51,555.835 418.51,552.668 415.5,549.5C407.148,542.813 399.481,535.48 392.5,527.5C391.833,527.5 391.5,527.167 391.5,526.5C386.127,522.129 381.461,517.129 377.5,511.5C372.439,506.771 368.106,501.438 364.5,495.5C356.747,485.397 349.747,474.731 343.5,463.5C339.767,458.03 337.101,452.03 335.5,445.5C330.374,434.104 327.04,422.104 325.5,409.5C325.171,396.323 325.505,383.323 326.5,370.5L326.5,367.5C327.5,362.165 328.5,356.832 329.5,351.5L335.5,336.5C335.5,335.833 335.833,335.5 336.5,335.5C337.03,333.076 337.864,330.743 339,328.5C341.583,325.003 343.916,321.336 346,317.5C352.633,309.033 359.8,301.033 367.5,293.5C375.008,288.579 382.675,283.912 390.5,279.5C398.595,276.392 406.928,274.059 415.5,272.5C418.258,271.239 421.258,270.406 424.5,270C432.833,269.667 441.167,269.333 449.5,269C445.385,264.603 441.385,260.103 437.5,255.5C435.475,253.804 433.475,252.137 431.5,250.5C427.657,247.497 423.657,244.664 419.5,242C414.623,240.058 409.956,237.892 405.5,235.5L403.5,235.5C398.727,233.424 393.727,232.091 388.5,231.5C387.584,231.543 386.917,231.876 386.5,232.5C388.735,233.228 390.568,234.561 392,236.5C397.478,244.932 397.978,253.598 393.5,262.5C393.107,264.284 392.441,265.95 391.5,267.5C389.477,270.52 386.81,272.854 383.5,274.5C371.992,282.061 361.326,281.061 351.5,271.5C349.759,269.023 348.259,266.356 347,263.5C346.333,257.5 346.333,251.5 347,245.5C347.655,243.372 348.489,241.372 349.5,239.5C345.5,243.167 341.5,246.833 337.5,250.5C330.779,256.982 324.779,263.982 319.5,271.5C316.382,280.746 311.048,288.413 303.5,294.5C301.45,296.547 299.117,298.214 296.5,299.5C292.516,303.496 287.85,306.496 282.5,308.5L282.5,309.5C284.199,312.899 285.866,316.232 287.5,319.5L287.5,323.5C289.894,333.223 291.227,343.223 291.5,353.5C290.765,368.856 289.765,384.19 288.5,399.5L287.5,399.5L287.5,434.5C289,444.007 290.334,453.673 291.5,463.5C293.521,472.25 295.854,480.916 298.5,489.5C300.147,493.424 301.814,497.424 303.5,501.5C310.636,516.437 319.303,530.437 329.5,543.5C340.509,556.842 352.843,568.842 366.5,579.5C367.167,579.5 367.5,579.833 367.5,580.5C372.191,584.197 376.858,587.864 381.5,591.5C382.167,591.833 382.833,592.167 383.5,592.5C390.205,597.512 396.872,602.512 403.5,607.5C404.492,607.328 405.158,607.662 405.5,608.5C412.473,612.321 419.473,616.154 426.5,620C431.654,625.344 432.82,631.511 430,638.5C426.789,644.946 422.622,650.612 417.5,655.5C413.83,660.842 410.164,666.175 406.5,671.5C404.167,674.833 401.833,678.167 399.5,681.5C398.609,682.261 397.942,683.261 397.5,684.5C408.993,685.824 420.326,685.824 431.5,684.5L431.5,683.5L440.5,671.5C444.147,665.86 448.147,660.527 452.5,655.5C454.485,651.544 456.985,647.878 460,644.5C471.306,638.111 478.806,641.111 482.5,653.5C480.752,659.892 477.752,665.559 473.5,670.5C472.833,671.5 472.167,672.5 471.5,673.5C467.828,676.849 465.161,680.849 463.5,685.5L468.5,685.5C479.505,685.333 490.505,685.5 501.5,686C505.391,687.057 507.724,689.557 508.5,693.5C509.162,695.304 509.495,697.304 509.5,699.5C510.016,707.255 506.35,711.089 498.5,711C474.833,711.667 451.167,711.667 427.5,711C425.392,710.64 423.392,709.973 421.5,709C420.075,706.275 418.742,706.108 417.5,708.5C416.833,708.833 416.167,709.167 415.5,709.5C413.958,710.301 412.292,710.634 410.5,710.5C388.004,711.663 365.337,711.83 342.5,711C340.04,709.542 337.873,707.709 336,705.5C334.828,699.508 335.495,693.841 338,688.5C339.419,687.54 340.919,686.707 342.5,686C349.158,685.5 355.825,685.334 362.5,685.5C369.531,676.143 376.531,666.81 383.5,657.5C383.328,656.508 383.662,655.842 384.5,655.5C389.512,648.795 394.512,642.128 399.5,635.5C396.673,634.581 394.34,632.914 392.5,630.5C377.24,620.186 362.24,609.353 347.5,598C339.329,590.995 331.662,583.495 324.5,575.5C318.434,570.437 313.101,564.77 308.5,558.5C304.479,553.804 300.812,548.804 297.5,543.5C286.227,527.621 277.561,510.288 271.5,491.5C267.936,482.579 265.603,473.245 264.5,463.5L264.5,459.5C263.383,455.705 262.717,451.705 262.5,447.5C262.214,434.001 261.881,420.501 261.5,407C261.458,394.731 262.125,382.565 263.5,370.5C263.827,361.318 263.493,352.318 262.5,343.5C262.533,338.273 261.533,333.273 259.5,328.5C256.428,323.365 253.095,318.365 249.5,313.5C243.023,308.019 236.023,303.352 228.5,299.5C222.094,296.964 215.427,295.964 208.5,296.5C208.881,305.568 208.381,314.568 207,323.5C205.223,325.79 203.056,327.457 200.5,328.5ZM228.5,244.5C224.5,247.833 220.833,251.5 217.5,255.5C215.549,259.733 213.883,264.066 212.5,268.5C226.37,266.455 238.37,270.121 248.5,279.5C252.07,281.281 254.737,283.948 256.5,287.5C259.091,288.254 260.924,289.921 262,292.5L266.5,288C276.507,283.156 284.84,276.322 291.5,267.5C290.533,265.21 289.2,263.21 287.5,261.5C279.774,250.124 269.107,242.958 255.5,240C250.845,239.501 246.179,239.334 241.5,239.5C237.175,240.946 232.842,242.613 228.5,244.5ZM666.5,543.5C658.037,520.558 649.537,497.558 641,474.5C632.587,454.076 622.754,434.409 611.5,415.5C591.368,382.528 566.368,353.695 536.5,329C528.438,323.307 520.105,318.14 511.5,313.5C503.51,309.953 495.51,306.62 487.5,303.5C482.045,302.28 476.711,300.947 471.5,299.5C466.18,298.74 460.847,298.073 455.5,297.5C447.684,296.508 439.684,296.174 431.5,296.5L428.5,296.5C423.675,297.207 419.009,298.54 414.5,300.5C407.948,302.24 401.614,304.573 395.5,307.5C386.882,313.784 378.882,320.784 371.5,328.5C367.83,334.508 364.163,340.508 360.5,346.5C357.074,355.113 354.074,363.78 351.5,372.5C350.291,384.171 350.291,395.838 351.5,407.5C352.531,409.961 353.198,412.627 353.5,415.5L353.5,416.5C355.072,421.327 356.406,426.327 357.5,431.5C358.338,431.842 358.672,432.508 358.5,433.5C361.68,440.864 365.18,448.197 369,455.5C373.439,462.055 377.605,468.721 381.5,475.5C388.489,484.127 395.489,492.794 402.5,501.5C406.499,505.33 410.665,508.997 415,512.5C418.365,516.693 421.865,520.693 425.5,524.5C432.859,530.862 440.192,537.196 447.5,543.5L447.5,544.5C462.328,556.411 477.328,568.077 492.5,579.5C493.833,580.167 494.833,581.167 495.5,582.5C503.048,587.108 510.048,592.441 516.5,598.5C517.922,598.709 519.255,599.209 520.5,600C526.354,604.364 532.021,608.864 537.5,613.5C541.646,615.073 545.313,617.407 548.5,620.5C557.8,626.477 566.8,632.81 575.5,639.5C601.614,657.263 628.28,674.263 655.5,690.5C673.191,699.675 690.524,709.342 707.5,719.5C711.741,720.954 715.741,722.954 719.5,725.5C719.443,724.391 719.11,723.391 718.5,722.5C711.907,707.98 704.74,693.646 697,679.5C696.501,673.484 696.668,667.484 697.5,661.5C695.364,653.91 692.697,646.577 689.5,639.5L688.5,639.5C688.126,644.869 685.459,648.536 680.5,650.5C676.6,653.038 672.266,653.872 667.5,653C626.113,631.808 586.447,607.808 548.5,581C542.242,576.052 536.242,570.885 530.5,565.5C515.863,555.008 502.196,543.342 489.5,530.5C476.817,520.816 465.483,509.816 455.5,497.5C449.795,492.796 444.795,487.463 440.5,481.5C434.707,475.917 429.373,469.917 424.5,463.5C412.164,448.836 401.83,432.836 393.5,415.5C387.584,406.864 384.584,397.197 384.5,386.5C385.167,385.5 385.833,384.5 386.5,383.5C389.924,377.917 394.924,376.084 401.5,378C403.949,378.725 406.283,379.725 408.5,381C411.366,386.966 413.7,393.132 415.5,399.5C416.817,402.428 418.15,405.428 419.5,408.5C420.475,410.795 421.808,412.795 423.5,414.5C425.403,419.307 428.07,423.64 431.5,427.5L431.5,428.5C436.73,434.613 441.73,440.946 446.5,447.5C447.338,447.842 447.672,448.508 447.5,449.5C467.499,472.865 488.832,494.865 511.5,515.5C522.581,524.288 533.247,533.622 543.5,543.5C556.167,552.5 568.833,561.5 581.5,570.5C595.375,579.265 609.041,588.265 622.5,597.5L623.5,597.5C629.122,600.472 634.455,603.805 639.5,607.5C640.492,607.328 641.158,607.662 641.5,608.5C644.595,609.483 647.595,610.316 650.5,611C643.869,596.903 636.869,583.07 629.5,569.5C627.833,564.833 626.167,560.167 624.5,555.5C623.662,555.158 623.328,554.492 623.5,553.5C617.673,542.508 612.34,531.175 607.5,519.5C599.677,506.527 592.344,493.194 585.5,479.5C582.181,474.203 578.847,468.869 575.5,463.5C571.805,458.455 568.472,453.122 565.5,447.5C555.281,430.95 544.281,414.95 532.5,399.5C524.833,388.833 517.167,378.167 509.5,367.5C505.898,363.395 502.065,359.395 498,355.5C497.209,354.255 496.709,352.922 496.5,351.5L495.5,351.5L495.5,338.5C496.072,336.745 496.906,335.078 498,333.5C505.889,328.72 512.889,329.72 519,336.5C522.017,341.879 525.517,346.879 529.5,351.5C532.167,354.5 534.833,357.5 537.5,360.5C541.833,366.5 546.167,372.5 550.5,378.5C555.601,383.936 559.934,389.936 563.5,396.5C564.906,396.973 565.573,397.973 565.5,399.5C572.322,407.812 578.656,416.479 584.5,425.5L584.5,427.5C588.831,432.152 592.165,437.486 594.5,443.5C604.957,459.644 614.624,476.311 623.5,493.5C628.438,500.948 632.438,508.948 635.5,517.5C637.083,519.663 638.416,521.996 639.5,524.5C645.801,537.101 652.134,549.768 658.5,562.5C659.499,565.162 660.499,567.828 661.5,570.5C662.167,570.5 662.5,570.833 662.5,571.5C670.728,587.288 678.395,603.288 685.5,619.5C686.167,619.5 686.5,619.167 686.5,618.5C683.637,609.672 681.303,600.672 679.5,591.5C678.612,586.928 677.279,582.595 675.5,578.5C675.737,577.209 675.404,576.209 674.5,575.5C673.119,567.89 671.119,560.557 668.5,553.5C667.626,550.211 666.959,546.877 666.5,543.5ZM744.5,760.5C739.089,752.693 733.422,745.027 727.5,737.5C727.5,736.833 727.167,736.5 726.5,736.5C725.105,739.733 722.772,742.233 719.5,744C714.344,745.962 709.011,746.795 703.5,746.5C702.791,745.596 701.791,745.263 700.5,745.5C693.342,742.088 686.342,738.422 679.5,734.5L678.5,734.5C678.833,735.833 679.167,737.167 679.5,738.5C684.076,747.991 688.409,757.657 692.5,767.5C693.5,767.833 694.167,768.5 694.5,769.5C697.262,775.36 700.262,781.026 703.5,786.5C708.423,796.014 713.09,805.68 717.5,815.5C718.5,815.833 719.167,816.5 719.5,817.5C727.374,822.036 734.374,827.703 740.5,834.5C747.424,837.415 754.424,838.082 761.5,836.5C765.952,835.377 769.619,833.044 772.5,829.5C776.579,823.301 777.412,816.634 775,809.5C768.141,798.435 761.308,787.435 754.5,776.5C751.777,773.414 749.277,770.08 747,766.5C745.878,764.593 745.045,762.593 744.5,760.5ZM695.5,834.5C690.481,822.308 684.481,810.642 677.5,799.5C676.242,796.228 675.075,792.894 674,789.5C668.018,777.9 662.185,766.233 656.5,754.5C654.021,751.656 652.354,748.322 651.5,744.5C649.252,741.672 647.252,738.672 645.5,735.5C642.071,728.968 638.404,722.634 634.5,716.5C635.677,721.543 637.011,726.543 638.5,731.5C638.833,732.833 639.167,734.167 639.5,735.5L639.5,737.5C643.831,752.155 648.164,766.822 652.5,781.5C653.833,787.5 655.167,793.5 656.5,799.5C657.404,800.209 657.737,801.209 657.5,802.5C660.672,812.022 663.672,821.689 666.5,831.5C668.167,834.167 669.833,836.833 671.5,839.5C671.328,840.492 671.662,841.158 672.5,841.5C675.952,846.452 680.452,850.118 686,852.5C694.539,849.435 697.705,843.435 695.5,834.5ZM605.5,838.5C607.518,843.189 610.518,847.189 614.5,850.5C617.276,852.13 620.276,852.797 623.5,852.5C623.5,851.833 623.833,851.5 624.5,851.5C627.19,849.807 629.19,847.473 630.5,844.5C632.912,840.524 634.245,836.191 634.5,831.5C635.484,829.402 635.151,827.402 633.5,825.5L633.5,820.5C632.699,818.958 632.366,817.292 632.5,815.5C629.977,804.911 627.31,794.244 624.5,783.5C623.85,781.565 623.517,779.565 623.5,777.5C620.808,768.735 617.808,760.069 614.5,751.5C611.949,738.677 608.283,726.343 603.5,714.5C601.881,709.481 600.381,704.481 599,699.5C598.5,712.829 598.333,726.163 598.5,739.5C598.154,767.523 597.487,795.523 596.5,823.5C597.772,826.44 599.772,828.773 602.5,830.5C604.043,832.928 605.043,835.594 605.5,838.5ZM367.5,245.5C367.672,246.492 367.338,247.158 366.5,247.5C366.22,250.272 366.887,252.772 368.5,255C371.879,257.278 374.712,256.778 377,253.5C378.555,244.681 375.388,242.015 367.5,245.5Z"/>
    </g>
</svg>
