<?xml version="1.0" encoding="UTF-8" standalone="no"?>
<!DOCTYPE svg PUBLIC "-//W3C//DTD SVG 1.1//EN" "http://www.w3.org/Graphics/SVG/1.1/DTD/svg11.dtd">
<svg width="100%" height="100%" viewBox="0 0 1024 1024" version="1.1" xmlns="http://www.w3.org/2000/svg" xmlns:xlink="http://www.w3.org/1999/xlink" xml:space="preserve" xmlns:serif="http://www.serif.com/" style="fill-rule:evenodd;clip-rule:evenodd;stroke-linejoin:round;stroke-miterlimit:2;">
    <g transform="matrix(1.28319,0,0,1.28319,-177.651,-123.362)">
        <path d="M551.5,448.5C565.262,449.085 578.929,450.585 592.5,453C611.263,458.107 630.263,462.107 649.5,465C665.889,466.537 680.223,461.87 692.5,451C706.242,433.923 721.909,418.923 739.5,406C749.175,399.827 759.175,394.16 769.5,389C779.136,386.758 788.469,387.758 797.5,392C847.048,413.567 891.215,443.067 930,480.5C937.877,494.122 938.544,508.122 932,522.5C926.413,534.425 918.246,544.259 907.5,552C885.399,568.884 861.399,582.384 835.5,592.5C839.166,607.665 842,622.999 844,638.5C846.097,684.23 830.93,723.063 798.5,755C750.548,794.2 699.881,797.867 646.5,766C629.818,755.653 615.318,742.82 603,727.5C599.1,712.823 604.6,707.657 619.5,712C635.978,732.087 656.311,747.087 680.5,757C728.047,771.816 767.547,759.983 799,721.5C812.654,700.226 819.487,676.893 819.5,651.5C819.033,636.366 817.367,621.366 814.5,606.5C806.287,608.162 797.953,608.996 789.5,609C675.941,641.014 562.274,641.514 448.5,610.5C448.66,612.199 448.494,613.866 448,615.5C438.777,635.835 429.944,656.335 421.5,677C429.8,689.808 431.3,703.308 426,717.5C424.314,720.883 422.147,723.883 419.5,726.5C409.484,736.177 397.484,739.677 383.5,737C378.829,735.836 374.496,734.003 370.5,731.5C355.784,716.195 353.617,699.195 364,680.5C373.708,668.868 385.875,664.868 400.5,668.5C408.544,647.408 416.877,626.408 425.5,605.5C424.335,604.416 423.002,603.583 421.5,603C385.342,592.74 351.175,578.24 319,559.5C267.605,584.447 216.772,610.28 166.5,637C152.458,642.563 143.291,638.063 139,623.5C138.01,533.79 138.344,444.123 140,354.5C144.029,346.409 150.529,343.576 159.5,346C162.993,346.942 166.326,348.275 169.5,350C215.069,381.37 261.236,411.87 308,441.5C347.082,416.125 388.915,396.292 433.5,382C442.738,378.857 452.071,376.024 461.5,373.5C462.411,369.002 463.911,364.668 466,360.5C487.63,324.235 511.964,289.901 539,257.5C593.216,206.156 656.382,190.99 728.5,212C761.751,223.21 789.917,242.044 813,268.5C816.779,273.401 817.446,278.734 815,284.5C810.509,289.259 805.009,290.759 798.5,289C796.919,288.293 795.419,287.46 794,286.5C789.986,278.816 784.819,271.983 778.5,266C738.694,232.96 693.027,220.294 641.5,228C623.096,230.708 606.096,237.041 590.5,247C608.923,253.449 625.923,262.449 641.5,274C667.745,294.244 690.579,317.744 710,344.5C717.42,355.675 725.087,366.675 733,377.5C739.455,388.105 736.622,392.939 724.5,392C596.093,362.897 473.426,378.563 356.5,439C337.826,449.333 319.826,460.666 302.5,473C288.607,484.406 286.774,497.572 297,512.5L304.5,520C311.532,524.18 318.532,528.347 325.5,532.5C366.977,496.615 414.31,471.115 467.5,456C483.928,451.867 500.595,449.367 517.5,448.5C528.833,447.167 540.167,447.167 551.5,448.5ZM162.5,609.5C163.158,610.398 163.824,611.398 164.5,612.5C208.737,588.548 253.404,565.381 298.5,543C291.12,538.627 284.62,533.127 279,526.5C262.862,501.451 265.362,478.451 286.5,457.5C245.246,429.29 204.08,400.957 163,372.5C162.536,373.094 162.369,373.761 162.5,374.5L162.5,609.5ZM513.5,472.5C497.787,474.232 482.121,477.065 466.5,481C421.379,495.554 380.379,517.388 343.5,546.5C347.824,548.996 352.157,551.496 356.5,554C387.78,568.24 420.114,579.573 453.5,588C554.318,615.649 655.652,617.649 757.5,594C747.594,590.047 738.26,585.047 729.5,579C696.878,555.587 681.545,523.753 683.5,483.5C671.078,487.055 658.411,488.222 645.5,487C625.802,483.492 606.135,479.825 586.5,476C562.277,472.828 537.944,471.662 513.5,472.5ZM585.5,526.5C583.016,524.88 581.516,522.547 581,519.5C580.333,515.833 580.333,512.167 581,508.5C581.465,507.069 582.299,505.903 583.5,505C596,504.833 608.5,504.667 621,504.5C634.258,504.351 647.424,504.851 660.5,506C667.005,512.946 667.005,519.78 660.5,526.5C635.5,527.833 610.5,527.833 585.5,526.5ZM438.5,501.5C454.39,501.332 459.223,508.332 453,522.5C448.23,526.645 442.73,528.145 436.5,527C434,525.833 432.167,524 431,521.5C427.671,512.513 430.171,505.846 438.5,501.5ZM520.5,538.5C533.994,538.154 539.16,544.487 536,557.5C531.902,565.372 525.735,567.539 517.5,564C511.031,558.135 509.864,551.302 514,543.5C515.965,541.45 518.132,539.783 520.5,538.5ZM420.5,524.5C431.441,523.121 437.775,527.788 439.5,538.5C437.998,548.263 432.331,552.097 422.5,550C415.097,546.485 412.263,540.652 414,532.5C415.305,529.039 417.471,526.372 420.5,524.5ZM523.5,483.5C535.877,484.256 540.377,490.59 537,502.5C532.965,509.607 527.131,511.44 519.5,508C514.415,502.27 513.248,495.77 516,488.5C518.17,486.177 520.67,484.51 523.5,483.5ZM775.5,411.5C769.47,414.012 763.47,416.846 757.5,420C741.375,431.125 727.541,444.625 716,460.5C712.703,465.385 710.369,470.718 709,476.5C704.02,500.643 708.687,522.643 723,542.5C744.524,565.68 771.024,578.18 802.5,580C841.723,568.98 876.223,549.813 906,522.5C911.619,514.359 913.952,505.359 913,495.5C882.867,468.217 850.033,444.55 814.5,424.5C813.307,426.527 811.64,428.027 809.5,429C795.073,431.476 781.407,436.142 768.5,443C747.986,455.846 738.486,474.346 740,498.5C748.301,527.803 767.634,543.469 798,545.5C809.314,544.142 820.481,542.309 831.5,540C833.667,540.833 835.167,542.333 836,544.5C836.839,549.921 836.506,555.254 835,560.5C830.973,563.596 826.473,565.763 821.5,567C794.32,574.028 769.654,569.028 747.5,552C718.728,528.76 710.561,499.593 723,464.5C734.901,438.602 754.401,421.102 781.5,412C779.527,411.505 777.527,411.338 775.5,411.5ZM818.5,444.5C845.135,443.302 857.302,455.968 855,482.5C849.425,501.049 836.925,509.216 817.5,507C804.717,503.214 797.217,494.714 795,481.5C794.549,463.805 802.382,451.472 818.5,444.5ZM822.5,468.5C819.833,470.173 817.833,472.507 816.5,475.5C818.802,483.67 823.802,486.17 831.5,483C836.3,473.6 833.3,468.766 822.5,468.5ZM388.5,690.5C379.492,695.68 378.158,702.513 384.5,711C392.039,715.041 398.206,713.541 403,706.5C404.571,695.241 399.737,689.908 388.5,690.5ZM571.5,269.5C561.262,272.375 552.428,277.708 545,285.5C526.497,309.673 509.164,334.673 493,360.5C491.699,362.402 491.032,364.402 491,366.5C506.367,363.188 521.867,360.355 537.5,358C589.386,352.493 641.052,353.493 692.5,361C670.41,327.576 642.41,300.243 608.5,279C597.151,272.051 584.818,268.885 571.5,269.5ZM825.5,300.5C832.304,299.822 837.804,302.155 842,307.5C849.374,317.666 852.707,328.999 852,341.5C849.409,349.965 843.742,353.298 835,351.5C831.859,350.431 829.526,348.431 828,345.5C826.974,340.215 826.307,334.882 826,329.5C824.056,325.89 821.723,322.557 819,319.5C814.055,310.521 816.222,304.188 825.5,300.5ZM421.5,430.5C435.759,432.345 440.259,440.011 435,453.5C427.882,458.578 420.882,458.578 414,453.5C409.705,447.725 409.371,441.725 413,435.5C415.398,432.892 418.231,431.225 421.5,430.5ZM528.5,406.5C541.642,404.814 547.809,410.481 547,423.5C542.614,432.739 535.781,435.239 526.5,431C518.337,422.135 519.004,413.968 528.5,406.5ZM340.5,481.5C351.833,480.998 356.667,486.332 355,497.5C350.328,509.25 342.828,511.583 332.5,504.5C327.017,493.828 329.684,486.162 340.5,481.5Z"/>
    </g>
</svg>
