<?xml version="1.0" encoding="UTF-8" standalone="no"?>
<!DOCTYPE svg PUBLIC "-//W3C//DTD SVG 1.1//EN" "http://www.w3.org/Graphics/SVG/1.1/DTD/svg11.dtd">
<svg width="100%" height="100%" viewBox="0 0 1024 1024" version="1.1" xmlns="http://www.w3.org/2000/svg" xmlns:xlink="http://www.w3.org/1999/xlink" xml:space="preserve" xmlns:serif="http://www.serif.com/" style="fill-rule:evenodd;clip-rule:evenodd;stroke-linejoin:round;stroke-miterlimit:2;">
    <g transform="matrix(1.47272,0,0,1.47272,-320.835,-311.265)">
        <path d="M620.5,572.5C611.505,599.828 597.839,624.495 579.5,646.5C569.917,656.62 559.917,666.286 549.5,675.5C580.568,685.392 598.402,706.392 603,738.5C601.56,744.939 597.56,748.606 591,749.5C588.402,748.699 586.069,747.366 584,745.5C579.805,735.914 575.805,726.248 572,716.5C560.042,701.299 544.542,695.799 525.5,700C509.71,705.893 494.377,712.893 479.5,721C475.712,722.15 472.046,723.483 468.5,725C480.866,725.185 493.199,725.852 505.5,727C513.528,728.264 520.361,731.764 526,737.5C529.658,744.217 528.491,750.05 522.5,755C515.569,756.462 509.236,755.128 503.5,751C465.835,750.5 428.168,750.333 390.5,750.5C386.341,776.438 382.507,802.438 379,828.5C376.724,849.369 369.224,868.035 356.5,884.5C332.31,908.517 304.976,913.017 274.5,898C249.175,879.36 241.009,854.86 250,824.5C263.629,796.619 276.296,768.286 288,739.5C291.593,725.994 295.093,712.494 298.5,699C293.924,679.294 296.757,660.794 307,643.5C316.848,610.734 328.514,578.734 342,547.5C355.406,518.508 374.239,493.675 398.5,473C407.981,465.926 418.315,460.426 429.5,456.5C401.22,427.095 385.887,391.928 383.5,351C385.129,305.742 403.462,269.075 438.5,241C469.176,218.331 503.176,210.998 540.5,219C551.952,222.207 563.285,225.707 574.5,229.5C628.651,210.655 683.984,206.488 740.5,217C802.741,230.033 848.908,264.533 879,320.5C886.327,335.47 891.661,351.137 895,367.5C895.667,371.167 895.667,374.833 895,378.5C893.833,381 892,382.833 889.5,384C874.145,385.571 859.145,384.071 844.5,379.5L843.5,380.5C847.814,391.178 844.147,396.511 832.5,396.5C808.247,392.55 783.914,389.05 759.5,386C711.747,386.362 666.414,397.028 623.5,418C617.824,421.504 612.157,425.004 606.5,428.5C605.359,438.119 605.193,447.786 606,457.5C621.563,482.638 628.23,509.971 626,539.5C624.597,550.587 622.763,561.587 620.5,572.5ZM440.5,271.5C420.84,292.166 409.84,316.832 407.5,345.5C407.752,389.837 425.418,425.337 460.5,452C475.643,452.619 489.643,456.953 502.5,465C525.941,482.719 536.108,506.219 533,535.5C526.346,560.825 512.513,581.325 491.5,597C472.689,610.074 452.689,621.074 431.5,630C400.067,642.589 368.4,654.589 336.5,666C331.012,668.016 325.345,668.849 319.5,668.5C319.334,674.176 319.501,679.843 320,685.5C327.04,712.711 344.54,727.377 372.5,729.5C383.829,728.835 394.829,726.668 405.5,723C422.006,712.248 438.339,701.248 454.5,690C461.083,689.975 466.749,692.309 471.5,697C472.833,697.667 474.167,697.667 475.5,697C514.36,676.816 547.193,649.316 574,614.5C593.096,588.543 602.596,559.377 602.5,527C603.123,502.53 595.623,481.03 580,462.5C563.386,446.213 545.886,431.046 527.5,417C516.694,406.86 506.194,396.36 496,385.5C495.333,381.5 495.333,377.5 496,373.5C499.9,368.467 504.733,367.3 510.5,370C532.946,391.452 556.279,411.786 580.5,431C582.378,432.543 583.878,434.376 585,436.5C585.333,430.5 585.667,424.5 586,418.5C586.914,416.336 588.081,414.336 589.5,412.5C574.082,381.422 559.916,349.756 547,317.5C541.444,300.604 539.444,283.27 541,265.5C541.468,258.598 543.634,252.264 547.5,246.5C540.063,243.557 532.396,241.39 524.5,240C491.181,236.846 463.181,247.346 440.5,271.5ZM507.5,307.5C523.199,305.698 530.699,312.698 530,328.5C527.297,338.519 520.797,342.686 510.5,341C500.004,337.187 495.838,329.687 498,318.5C499.654,313.358 502.821,309.691 507.5,307.5ZM655.5,235.5C632.015,237.952 609.015,243.118 586.5,251C578.971,253.679 572.137,257.512 566,262.5C562.344,276.676 563.011,290.676 568,304.5C579.661,336.659 593.161,367.992 608.5,398.5C659.005,374.208 712.339,361.541 768.5,360.5C769.748,358.541 771.415,357.041 773.5,356C787.423,354.169 801.423,353.169 815.5,353C777.703,321.446 734.037,304.612 684.5,302.5C662.578,301.88 645.078,310.213 632,327.5C628.273,335.349 624.94,343.349 622,351.5C614.995,358.306 608.662,357.639 603,349.5C602.242,343.109 602.576,336.776 604,330.5C616.242,301.261 638.075,284.428 669.5,280C726.93,278.255 778.263,294.922 823.5,330C836.781,342.278 851.448,352.611 867.5,361C868.635,361.749 869.635,361.583 870.5,360.5C866.284,349.677 861.784,339.01 857,328.5C835.638,287.815 803.138,259.981 759.5,245C725.299,237.125 690.632,233.958 655.5,235.5ZM393.5,510.5C388.781,515.577 384.281,520.91 380,526.5C362.488,554.842 349.322,585.175 340.5,617.5C337.5,625.333 335,633.333 333,641.5C364.627,630.068 396.127,618.234 427.5,606C439.323,600.255 450.99,594.255 462.5,588C475.165,580.594 486.332,571.427 496,560.5C507.336,546.828 511.669,531.161 509,513.5C500.123,487.534 481.79,474.867 454,475.5C429.273,479.28 409.106,490.947 393.5,510.5ZM313.5,739.5C300.749,769.33 287.749,798.997 274.5,828.5C265.726,847.13 269.059,863.297 284.5,877C307.02,886.995 326.52,882.829 343,864.5C349.172,854.319 353.172,843.319 355,831.5C359.327,804.877 362.994,778.211 366,751.5C346.749,751.545 330.749,744.212 318,729.5C316.396,732.821 314.896,736.154 313.5,739.5ZM266.5,553.5C270.637,553.146 274.637,553.646 278.5,555C281.018,556.87 282.352,559.37 282.5,562.5C279.787,572.595 275.954,582.262 271,591.5C257.872,630.709 254.872,670.709 262,711.5C264.282,720.411 266.115,729.411 267.5,738.5C267.2,748.3 262.2,752.466 252.5,751C250.91,749.954 249.41,748.787 248,747.5C230.712,691.284 231.379,635.284 250,579.5C253.333,572.833 256.667,566.167 260,559.5C261.494,556.686 263.66,554.686 266.5,553.5Z"/>
    </g>
</svg>
