<?xml version="1.0" encoding="UTF-8" standalone="no"?>
<!DOCTYPE svg PUBLIC "-//W3C//DTD SVG 1.1//EN" "http://www.w3.org/Graphics/SVG/1.1/DTD/svg11.dtd">
<svg width="100%" height="100%" viewBox="0 0 1024 1024" version="1.1" xmlns="http://www.w3.org/2000/svg" xmlns:xlink="http://www.w3.org/1999/xlink" xml:space="preserve" xmlns:serif="http://www.serif.com/" style="fill-rule:evenodd;clip-rule:evenodd;stroke-linejoin:round;stroke-miterlimit:2;">
    <g transform="matrix(1.31912,0,0,1.31912,-121.422,-200.478)">
        <path d="M361.5,897.5C358.245,902.602 354.745,907.602 351,912.5C333.598,931.262 314.598,933.262 294,918.5C288.888,912.387 285.055,905.554 282.5,898C269.609,894.56 259.609,887.226 252.5,876C238.485,872.324 225.151,866.991 212.5,860C197.285,847.125 194.451,831.958 204,814.5C205.896,812.47 208.063,810.803 210.5,809.5C193.544,797.057 181.378,781.057 174,761.5C169.704,741.708 176.538,727.208 194.5,718C231.623,699.938 268.623,681.605 305.5,663C322.091,653.878 337.424,643.045 351.5,630.5C354.797,627.704 357.964,624.704 361,621.5C377.164,595.673 394.497,570.673 413,546.5C421.803,536.696 430.97,527.196 440.5,518C450.7,510.293 460.033,501.793 468.5,492.5C464.97,486.104 461.97,479.437 459.5,472.5C450.892,475.455 442.058,477.455 433,478.5C430.497,478.01 428.497,476.677 427,474.5C422.67,443.136 427.17,413.136 440.5,384.5C438.577,383.692 436.577,383.192 434.5,383C415.557,362.665 409.39,338.832 416,311.5C421.454,294.257 429.787,278.59 441,264.5C450.054,254.113 459.721,244.446 470,235.5C469.544,229.87 469.544,224.204 470,218.5C471.061,215.438 472.894,212.938 475.5,211C488.544,203.145 501.877,195.811 515.5,189C527.5,180.667 539.5,172.333 551.5,164C568.224,153.649 586.224,149.982 605.5,153C612.107,156.384 614.774,161.551 613.5,168.5C629.049,159.816 645.716,155.316 663.5,155C669.84,159.084 670.173,163.75 664.5,169C650.656,172.392 636.989,176.392 623.5,181C619.242,181.745 615.242,181.412 611.5,180C593.856,193.821 575.856,207.154 557.5,220C544,229.5 532.5,241 523,254.5C514.766,268.238 514.433,282.238 522,296.5C524.782,301.742 528.282,306.408 532.5,310.5C534.742,308.461 537.242,306.795 540,305.5C541.097,260.461 562.264,228.961 603.5,211C633.749,201.11 664.416,199.777 695.5,207C710.042,209.885 724.375,213.552 738.5,218C740,218.833 741.167,220 742,221.5C742.192,224.947 741.525,228.28 740,231.5C723.801,263.864 700.968,290.531 671.5,311.5C691.737,328.968 707.903,349.635 720,373.5C724.602,385.806 729.102,398.139 733.5,410.5C760.184,428.16 776.684,452.826 783,484.5C792.082,534.685 787.748,583.685 770,631.5C760.975,652.55 750.642,672.884 739,692.5C715.65,728.647 688.817,762.147 658.5,793C648.089,800.955 637.589,808.788 627,816.5C626.028,818.305 624.861,819.972 623.5,821.5C624.374,823.747 624.708,826.08 624.5,828.5C637.504,828.333 650.504,828.5 663.5,829C681.527,828.586 694.36,836.419 702,852.5C702.92,855.101 703.587,857.768 704,860.5C704.667,871.5 704.667,882.5 704,893.5C701.459,898.069 697.625,899.569 692.5,898C690.951,896.786 689.785,895.286 689,893.5C688.766,882.467 688.266,871.467 687.5,860.5C684.008,852.012 677.675,847.345 668.5,846.5C610.826,846.235 553.159,846.568 495.5,847.5L489.5,850.5C487.095,853.634 484.928,856.968 483,860.5C481.807,870.117 481.141,879.784 481,889.5C479.492,896.353 475.325,899.186 468.5,898C466.383,896.269 464.883,894.102 464,891.5C463.333,860.833 463.333,830.167 464,799.5C466.813,795.511 470.646,793.844 475.5,794.5C504.313,797.803 532.98,796.636 561.5,791C588.039,783.652 610.539,769.818 629,749.5L644,731.5C648.174,724.484 652.841,717.817 658,711.5C679.932,670.299 698.598,627.633 714,583.5C718.278,568.147 722.111,552.814 725.5,537.5C735.94,471.201 723.773,409.534 689,352.5C681.531,344.03 673.698,335.863 665.5,328C631.233,299.823 594.233,295.823 554.5,316C536.636,324.871 521.469,337.037 509,352.5C507.034,355.601 505.2,358.768 503.5,362C513.468,370.305 521.635,380.138 528,391.5C530.275,398.326 532.942,404.993 536,411.5C546.752,424.646 557.752,437.646 569,450.5C584.243,470.746 582.743,489.579 564.5,507C560.056,509.648 555.389,511.815 550.5,513.5C525.673,520.068 502.673,516.068 481.5,501.5C472.648,512.519 462.648,522.352 451.5,531C435.878,546.949 421.378,563.782 408,581.5C398.913,594.404 390.079,607.404 381.5,620.5C368.021,640.776 354.521,661.11 341,681.5C332.666,695.853 324.666,710.186 317,724.5C321.801,720.701 326.301,716.534 330.5,712C360.019,691.832 387.185,668.665 412,642.5C418.72,634.114 425.053,625.447 431,616.5C440.333,600.5 449.667,584.5 459,568.5C469.433,553.401 482.933,541.901 499.5,534C513.685,530.412 527.685,531.079 541.5,536C563.439,544.886 581.606,558.719 596,577.5C618.42,606.69 628.42,639.69 626,676.5C619.118,719.048 594.951,746.215 553.5,758C495.397,768.849 442.897,756.349 396,720.5C391.114,709.707 394.614,705.207 406.5,707C408.344,708.182 410.177,709.349 412,710.5C426.414,704.377 439.247,695.877 450.5,685C464.649,671.372 476.649,656.205 486.5,639.5C491.259,630.315 495.759,620.982 500,611.5C503.199,601.968 505.865,592.302 508,582.5C512.24,576.704 517.24,576.037 523,580.5C520.48,611.522 509.646,639.189 490.5,663.5C474.544,687.955 453.877,707.455 428.5,722C470.081,745.156 513.747,750.49 559.5,738C585.821,727.005 601.988,707.505 608,679.5C611.944,636.228 598.111,599.728 566.5,570C554.428,559.297 540.428,552.297 524.5,549C518.118,548.311 511.785,548.645 505.5,550C494.541,554.969 485.374,562.136 478,571.5C466.251,591.333 454.251,611 442,630.5C428.029,650.812 411.529,668.979 392.5,685C376.602,698.409 360.602,711.575 344.5,724.5C316.997,747.166 289.331,769.666 261.5,792C248.676,801.579 235.676,810.912 222.5,820L215,827.5C214.13,833.211 215.13,838.545 218,843.5L227.5,834C252.038,815.802 275.705,796.468 298.5,776C316.236,762.147 333.902,748.314 351.5,734.5C356.55,734.218 359.55,736.552 360.5,741.5C359.312,748.04 355.979,753.207 350.5,757C313.317,786.76 276.317,816.76 239.5,847C236.676,849.613 233.342,851.279 229.5,852C238.736,855.636 248.07,858.636 257.5,861C289.143,829.692 321.143,798.692 353.5,768C359.772,763.755 364.438,764.921 367.5,771.5C366.945,775.054 365.779,778.387 364,781.5C332.678,811.655 301.178,841.655 269.5,871.5C277.758,880.94 288.092,884.107 300.5,881C307.872,877.453 314.205,872.62 319.5,866.5C342.887,843.446 366.22,820.446 389.5,797.5C399.205,785.862 409.372,785.529 420,796.5C422.201,802.938 421.201,808.938 417,814.5C398.973,842.577 380.473,870.243 361.5,897.5ZM607.5,828.5C606.132,816.881 610.132,807.881 619.5,801.5C626.471,795.68 633.804,790.347 641.5,785.5C656.481,772.016 670.314,757.349 683,741.5C705.273,712.609 725.273,682.275 743,650.5C769.432,596.712 776.765,540.379 765,481.5C759.62,464.738 751.62,449.405 741,435.5C748.782,482.949 746.615,529.949 734.5,576.5C723.251,611.673 709.751,646.006 694,679.5C678.402,714.209 657.235,745.043 630.5,772C608.135,792.015 582.135,804.849 552.5,810.5C552.808,816.425 552.475,822.259 551.5,828C566.163,828.5 580.83,828.667 595.5,828.5L607.5,828.5ZM593.5,167.5C587.031,169.297 580.364,170.797 573.5,172C570.833,173.333 568.167,174.667 565.5,176C549.833,186.333 534.167,196.667 518.5,207C509.167,211.667 499.833,216.333 490.5,221C486.172,223.653 485.339,227.153 488,231.5C490.173,234.346 491.673,237.512 492.5,241C489.66,246.188 487.494,251.688 486,257.5C482.737,283.99 490.571,306.49 509.5,325C510.635,325.749 511.635,325.583 512.5,324.5C513.441,322.228 514.774,320.228 516.5,318.5C511.811,311.121 507.644,303.455 504,295.5C496.455,272.218 500.789,251.552 517,233.5C541.841,210.025 568.675,189.358 597.5,171.5L597.5,167.5L593.5,167.5ZM344.5,865.5C336.005,873.828 327.338,881.995 318.5,890C312.561,893.468 306.561,896.634 300.5,899.5C308.129,912.057 318.462,914.89 331.5,908C338.544,900.039 345.211,891.872 351.5,883.5C363.953,863.268 376.453,843.268 389,823.5C379.995,831.672 371.162,840.005 362.5,848.5C356.526,854.139 350.526,859.805 344.5,865.5ZM480.5,465.5C479.325,465.281 478.325,465.614 477.5,466.5C479.57,471.209 481.737,475.876 484,480.5C498.718,495.314 516.552,501.481 537.5,499C545.979,498.255 553.313,495.088 559.5,489.5C563.246,482.27 563.413,474.937 560,467.5C558.066,463.241 555.732,459.241 553,455.5C545.117,447.386 537.951,438.72 531.5,429.5C525.975,443.858 515.975,453.691 501.5,459C494.573,461.476 487.573,463.643 480.5,465.5ZM636.5,219.5C612.547,222.895 592.38,233.561 576,251.5C566.058,262.993 561.058,276.327 561,291.5C572.614,274.223 588.114,261.723 607.5,254C640.198,243.949 672.864,244.115 705.5,254.5C712.048,247.29 717.381,239.29 721.5,230.5C703.703,226.033 685.703,222.533 667.5,220C657.172,219.5 646.839,219.334 636.5,219.5ZM477.5,374.5C467.317,379.072 459.484,386.405 454,396.5C446.018,417.93 441.518,439.93 440.5,462.5C457.239,455.976 474.239,450.142 491.5,445C516.859,434.436 523.026,416.936 510,392.5C503.092,379.428 492.259,373.428 477.5,374.5ZM642.5,263.5C620.827,265.28 601.493,272.946 584.5,286.5C597.465,286.023 610.465,286.523 623.5,288C636.136,291.435 648.469,295.435 660.5,300C672.759,291.076 683.759,280.743 693.5,269C676.798,264.629 659.798,262.795 642.5,263.5ZM326.5,669.5C324.996,671.836 322.996,673.669 320.5,675C280.746,695.21 240.746,714.877 200.5,734C189.155,741.221 186.322,751.054 192,763.5C199.773,777.614 210.107,789.614 223,799.5C235.077,790.212 247.244,781.045 259.5,772C272.946,759.905 284.112,746.072 293,730.5C303.242,711.009 314.242,692.009 326,673.5C327.298,672.054 327.465,670.721 326.5,669.5ZM466.5,262.5C453.799,276.204 443.299,291.538 435,308.5C425.48,333.416 430.313,355.083 449.5,373.5C459.805,361.681 472.805,355.848 488.5,356C491.322,350.02 494.656,344.354 498.5,339C477.589,317.762 466.922,292.262 466.5,262.5ZM490.5,830.5C505.754,828.185 521.087,827.852 536.5,829.5L536.5,813.5C518.341,812.503 500.008,812.17 481.5,812.5C481.334,820.174 481.5,827.841 482,835.5C484.029,832.404 486.862,830.738 490.5,830.5ZM571.5,362.5C590.65,361.486 600.15,370.486 600,389.5C597.634,402.196 589.967,408.863 577,409.5C560.722,407.22 553.389,397.886 555,381.5C557.502,372.502 563.002,366.169 571.5,362.5ZM573.5,379.5C570.193,382.727 569.36,386.394 571,390.5C576.92,393.959 581.086,392.459 583.5,386C582.698,380.121 579.364,377.955 573.5,379.5Z"/>
    </g>
</svg>
