<?xml version="1.0" encoding="UTF-8" standalone="no"?>
<!DOCTYPE svg PUBLIC "-//W3C//DTD SVG 1.1//EN" "http://www.w3.org/Graphics/SVG/1.1/DTD/svg11.dtd">
<svg width="100%" height="100%" viewBox="0 0 1024 1024" version="1.1" xmlns="http://www.w3.org/2000/svg" xmlns:xlink="http://www.w3.org/1999/xlink" xml:space="preserve" xmlns:serif="http://www.serif.com/" style="fill-rule:evenodd;clip-rule:evenodd;stroke-linejoin:round;stroke-miterlimit:2;">
    <g transform="matrix(1.68997,0,0,1.68997,-347.459,-370.753)">
        <path d="M415.5,501.5C413.407,500.955 411.407,500.122 409.5,499C382.293,480.808 357.126,459.974 334,436.5C314.029,413.192 294.029,389.858 274,366.5C268.145,359.452 263.312,351.785 259.5,343.5C258.704,339.361 260.037,336.195 263.5,334C326.5,333.333 389.5,333.333 452.5,334C454.608,334.36 456.608,335.027 458.5,336C476.533,351.993 494.867,367.493 513.5,382.5C515.735,383.228 517.568,384.561 519,386.5C525.345,326.203 554.845,281.37 607.5,252C612.65,249.759 617.983,248.093 623.5,247C652.901,245.139 681.567,248.806 709.5,258C718.485,262.158 727.152,266.825 735.5,272C743.636,279.135 751.47,286.635 759,294.5C776,314.833 793,335.167 810,355.5C813.042,362.085 811.542,367.252 805.5,371C780.836,371.5 756.169,371.667 731.5,371.5C731.667,395.502 731.5,419.502 731,443.5C727.367,464.302 723.201,484.968 718.5,505.5C710.262,538.637 696.596,569.304 677.5,597.5C654.329,620.099 627.996,638.266 598.5,652C587.701,656.211 576.701,659.711 565.5,662.5C565.667,698.835 565.5,735.168 565,771.5C562.771,778.032 558.271,780.532 551.5,779C549.622,777.457 548.122,775.624 547,773.5C546.5,737.835 546.333,702.168 546.5,666.5C541.436,666.795 536.436,667.462 531.5,668.5L522.5,668.5C521.791,669.404 520.791,669.737 519.5,669.5L519.5,751.5C519.667,765.837 519.5,780.171 519,794.5C517.871,796.141 516.371,797.141 514.5,797.5C506.773,799.635 502.273,796.635 501,788.5C500.5,749.168 500.333,709.835 500.5,670.5C482.038,670.922 464.038,668.422 446.5,663C441.664,658.067 441.33,652.733 445.5,647C456.896,647.341 468.23,648.507 479.5,650.5C553.643,657.408 616.143,634.075 667,580.5C680.288,558.984 690.288,535.984 697,511.5C702.9,487.663 707.9,463.663 712,439.5C712.242,403.158 712.908,366.824 714,330.5C714.69,327.804 716.19,325.637 718.5,324C728.38,320.142 737.88,315.642 747,310.5C736.584,295.101 722.751,283.601 705.5,276C682.545,269.025 659.045,265.192 635,264.5C622.111,265.463 610.611,269.963 600.5,278C585.958,288.375 573.624,300.875 563.5,315.5C556.018,325.462 550.351,336.462 546.5,348.5C541.07,364.239 537.403,380.406 535.5,397C541.631,402.8 547.464,408.966 553,415.5C554.53,419.09 555.864,422.757 557,426.5C560.763,456.809 549.596,479.976 523.5,496C493.745,512.404 462.412,516.404 429.5,508C424.351,506.588 419.684,504.422 415.5,501.5ZM516.5,405.5C494.942,392.12 474.942,376.62 456.5,359C452.96,357.069 449.626,354.902 446.5,352.5C392.796,351.65 339.129,351.15 285.5,351C304.741,374.632 324.575,397.799 345,420.5C367.518,444.699 392.685,465.532 420.5,483C429.043,488.008 438.043,491.508 447.5,493.5C471.257,495.097 493.591,490.264 514.5,479C532.04,468.418 540.54,452.918 540,432.5C538.821,429.481 537.487,426.481 536,423.5C529.904,416.898 523.404,410.898 516.5,405.5ZM759.5,326.5C751.469,330.013 743.469,333.846 735.5,338C734.207,338.49 732.873,338.657 731.5,338.5L731.5,352.5C748.856,352.455 766.19,352.622 783.5,353C775.583,343.926 767.583,335.093 759.5,326.5ZM271.5,266.5C288.837,266.333 306.17,266.5 323.5,267C329.701,270.575 331.201,275.742 328,282.5C326.829,283.893 325.329,284.727 323.5,285C306.833,285.667 290.167,285.667 273.5,285C269.765,283.2 268.098,280.2 268.5,276C268.414,272.427 269.414,269.26 271.5,266.5ZM344.5,265.5C355.988,263.496 361.155,268.162 360,279.5C359.208,281.587 358.041,283.421 356.5,285C352.289,286.534 347.956,286.867 343.5,286C338.918,282.606 337.418,278.106 339,272.5C339.967,269.379 341.8,267.046 344.5,265.5ZM636.5,321.5C651.399,321.598 656.899,328.931 653,343.5C648.067,350.491 641.567,352.325 633.5,349C626.189,342.69 624.689,335.19 629,326.5C631.273,324.372 633.773,322.705 636.5,321.5ZM251.5,375.5C290.003,426.171 336.003,468.671 389.5,503C395.095,506.198 401.095,508.198 407.5,509C411.913,513.651 412.58,518.817 409.5,524.5C396.933,541.955 384.6,559.621 372.5,577.5C359.878,590.293 346.211,601.793 331.5,612C311.338,622.911 291.672,634.578 272.5,647C260.368,653.368 248.202,659.535 236,665.5C235.333,666.167 235.333,666.833 236,667.5C255.422,686.427 275.589,704.427 296.5,721.5C316.627,700.54 337.294,680.04 358.5,660C379.986,642.178 402.319,625.511 425.5,610C436.553,609.22 440.219,614.053 436.5,624.5C416.581,638.815 396.915,653.648 377.5,669C351.53,693.302 325.863,717.969 300.5,743C296.88,743.841 293.546,743.174 290.5,741C260.73,716.896 232.563,691.063 206,663.5C205.153,660.412 205.653,657.579 207.5,655C215.699,652.95 223.699,650.283 231.5,647C258.443,632.368 285.109,617.368 311.5,602C329.747,591.423 345.913,578.256 360,562.5C368.824,550.496 376.657,537.829 383.5,524.5C361.453,508.956 340.119,492.456 319.5,475C285.184,445.685 254.684,412.852 228,376.5C226.333,369.158 229.166,364.825 236.5,363.5C243.264,365.26 248.264,369.26 251.5,375.5Z"/>
    </g>
</svg>
