<?xml version="1.0" encoding="UTF-8" standalone="no"?>
<!DOCTYPE svg PUBLIC "-//W3C//DTD SVG 1.1//EN" "http://www.w3.org/Graphics/SVG/1.1/DTD/svg11.dtd">
<svg width="100%" height="100%" viewBox="0 0 1024 1024" version="1.1" xmlns="http://www.w3.org/2000/svg" xmlns:xlink="http://www.w3.org/1999/xlink" xml:space="preserve" xmlns:serif="http://www.serif.com/" style="fill-rule:evenodd;clip-rule:evenodd;stroke-linejoin:round;stroke-miterlimit:2;">
    <g transform="matrix(1.42043,0,0,1.42043,-213.991,-230.326)">
        <path d="M160.5,340.5C157.892,328.222 155.058,315.889 152,303.5C150.388,294.174 150.222,284.84 151.5,275.5C152.728,272.044 154.228,268.71 156,265.5C156.816,264.177 157.983,263.511 159.5,263.5C160.574,262.115 161.907,260.949 163.5,260C178.351,256.056 192.351,257.889 205.5,265.5C210.894,266.692 216.227,268.192 221.5,270C245.956,281.056 269.289,293.889 291.5,308.5C301.631,313.751 310.964,320.084 319.5,327.5C326.644,331.489 333.644,335.656 340.5,340C344.359,343.032 348.026,346.198 351.5,349.5C366.36,359.026 380.36,369.692 393.5,381.5C394.5,382.167 395.5,382.833 396.5,383.5C399.667,386.498 403,389.331 406.5,392C419.651,404.652 432.318,417.819 444.5,431.5C448.138,435.474 451.805,439.474 455.5,443.5C464.381,455.055 472.048,467.388 478.5,480.5C480.351,476.098 482.351,471.765 484.5,467.5C485.98,463.016 488.314,459.016 491.5,455.5C489.42,453.427 487.754,451.093 486.5,448.5C484.027,445.147 483.027,441.314 483.5,437C483.309,433.302 483.976,429.802 485.5,426.5C483.221,422.939 481.221,419.273 479.5,415.5C478.833,415.5 478.5,415.167 478.5,414.5C472.455,407.12 466.788,399.454 461.5,391.5C456.777,385.747 452.277,379.747 448,373.5C446.878,371.593 446.045,369.593 445.5,367.5C437.508,357.526 430.508,346.859 424.5,335.5C416.964,327.758 413.464,318.425 414,307.5C418.432,301.701 424.266,299.368 431.5,300.5C431.285,302.179 431.952,303.179 433.5,303.5C436.17,309.035 438.504,314.869 440.5,321C446.066,331.06 451.399,341.227 456.5,351.5C457.496,351.414 458.329,351.748 459,352.5C460.259,355.356 461.759,358.023 463.5,360.5C473.385,375.734 483.718,390.734 494.5,405.5C503.007,400.038 512.007,399.205 521.5,403C523.527,404.879 525.86,406.046 528.5,406.5C528.992,404.181 529.992,402.181 531.5,400.5C532.209,399.596 533.209,399.263 534.5,399.5C534.755,396.984 535.589,394.65 537,392.5C539.188,389.433 541.355,386.433 543.5,383.5C545.147,380.527 547.147,377.86 549.5,375.5C558.183,362.122 566.85,348.789 575.5,335.5C575.704,333.315 576.37,331.315 577.5,329.5C579.435,326.629 581.101,323.629 582.5,320.5C584.363,314.908 586.03,309.242 587.5,303.5C591.37,302.201 595.37,301.534 599.5,301.5C600.833,302.167 602.167,302.833 603.5,303.5L604.5,303.5C606.92,306.293 607.92,309.626 607.5,313.5C607.92,317.374 606.92,320.707 604.5,323.5C601.38,331.741 597.213,339.407 592,346.5C591.506,348.134 591.34,349.801 591.5,351.5C590.178,351.33 589.011,351.663 588,352.5C584.607,357.72 581.44,363.053 578.5,368.5C568.822,381.868 559.156,395.201 549.5,408.5C547.902,410.698 546.569,413.031 545.5,415.5C542.713,417.72 540.38,420.386 538.5,423.5C540.883,431.437 541.049,439.437 539,447.5C538.208,450.106 536.708,452.106 534.5,453.5C534.83,457.021 536.33,460.021 539,462.5C541.557,466.945 543.557,471.611 545,476.5C548.572,467.681 553.405,459.681 559.5,452.5C563.7,444.962 569.034,438.296 575.5,432.5C581.492,425.175 587.825,418.175 594.5,411.5C603.173,402.827 612.173,394.494 621.5,386.5C641.638,368.032 662.971,351.032 685.5,335.5C695.685,328.152 706.019,320.986 716.5,314C723.758,309.542 731.091,305.376 738.5,301.5C740.237,299.45 742.237,297.617 744.5,296C764.155,285.342 783.822,275.009 803.5,265C806.929,264.467 810.262,263.633 813.5,262.5C815.515,261.076 817.848,260.41 820.5,260.5C823.754,258.255 827.42,256.755 831.5,256C847.97,252.743 860.637,257.909 869.5,271.5C871.105,278.603 871.772,285.937 871.5,293.5L869.5,295.5C868.142,308.93 866.142,322.263 863.5,335.5C861.303,340.756 859.303,346.089 857.5,351.5C853.503,367.487 849.503,383.487 845.5,399.5L844.5,399.5C842.793,407.002 840.793,414.335 838.5,421.5C836.8,432.006 834.466,442.339 831.5,452.5C830.371,459.525 828.371,466.192 825.5,472.5C820.873,488.09 813.373,502.09 803,514.5C800.577,517.364 797.744,519.697 794.5,521.5C780.828,532.833 765.161,540.166 747.5,543.5C743.068,545.092 738.402,546.259 733.5,547C722.356,548.528 711.356,550.028 700.5,551.5C704.732,553.4 708.399,556.067 711.5,559.5C717.205,564.204 722.205,569.537 726.5,575.5C732.405,582.644 736.739,590.644 739.5,599.5C741.589,602.437 743.089,605.77 744,609.5C745.696,616.813 747.196,624.147 748.5,631.5C752.448,655.18 752.448,678.847 748.5,702.5C744.01,715.148 738.176,727.148 731,738.5C727.619,743.282 723.786,747.615 719.5,751.5C708.547,763.769 695.547,773.435 680.5,780.5C677.912,782.625 674.912,783.958 671.5,784.5C649.151,793.666 627.818,791.666 607.5,778.5C596.549,771.877 587.216,763.544 579.5,753.5C577.147,751.14 575.147,748.473 573.5,745.5C562.774,730.722 554.108,714.722 547.5,697.5C541.968,684.055 537.968,670.055 535.5,655.5C534.47,652.05 533.137,648.717 531.5,645.5C530.506,653.479 527.84,660.812 523.5,667.5C522.732,668.263 522.232,669.263 522,670.5C521.812,692.876 521.312,715.209 520.5,737.5C516.56,740.042 512.227,740.875 507.5,740C505.43,739.052 503.93,737.552 503,735.5C502.202,715.149 502.368,694.816 503.5,674.5C502.975,671.971 501.975,669.638 500.5,667.5C499.89,666.609 499.557,665.609 499.5,664.5C495.811,658.09 493.811,651.09 493.5,643.5L492.5,643.5C489.867,660.371 485.534,676.704 479.5,692.5C473.703,709.759 466.036,726.093 456.5,741.5C454.167,744.167 451.833,746.833 449.5,749.5C444.536,757.129 438.536,763.796 431.5,769.5C427.369,774.071 422.369,777.404 416.5,779.5C413.898,781.81 410.898,783.643 407.5,785C394.521,789.663 381.188,791.163 367.5,789.5C363.707,788.569 360.041,787.235 356.5,785.5C349.697,783.732 343.364,780.898 337.5,777C328.142,769.636 318.809,762.303 309.5,755C300.322,746.137 292.989,735.971 287.5,724.5C281.262,714.454 277.596,703.454 276.5,691.5C275.669,684.869 275.336,678.202 275.5,671.5C275.333,659.162 275.5,646.829 276,634.5C276.419,630.608 277.252,626.942 278.5,623.5C278.643,617.969 279.643,612.635 281.5,607.5C284.208,595.686 289.208,585.019 296.5,575.5C302.188,567.812 308.854,561.146 316.5,555.5C317.894,553.292 319.894,551.792 322.5,551C313.303,550.226 304.303,549.059 295.5,547.5C292.721,547.721 290.054,547.388 287.5,546.5C277.576,545.191 267.909,542.858 258.5,539.5C254.314,537.257 249.981,535.09 245.5,533C242.957,531.618 240.957,529.785 239.5,527.5C237.407,526.955 235.407,526.122 233.5,525C227.978,520.308 222.645,515.475 217.5,510.5C209.801,502.127 204.135,492.46 200.5,481.5C198.747,478.854 197.747,475.854 197.5,472.5C194.871,467.128 192.704,461.461 191,455.5C188.057,444.175 185.223,432.841 182.5,421.5C179.565,413.1 177.231,404.433 175.5,395.5C173.997,391.659 172.664,387.659 171.5,383.5C169.817,378.083 168.151,372.75 166.5,367.5C165.921,362.093 164.921,356.76 163.5,351.5C162.055,348.063 161.055,344.397 160.5,340.5ZM175.5,319.5C177.178,324.85 178.845,330.183 180.5,335.5C182.301,342.375 183.968,349.375 185.5,356.5C189.181,373.219 193.514,389.885 198.5,406.5L201.5,406.5C203.302,405.542 205.302,404.875 207.5,404.5C209.663,403.531 211.996,402.698 214.5,402C233.603,399.448 252.603,398.948 271.5,400.5C297.199,401.001 321.866,406.001 345.5,415.5C352.297,417.154 358.964,419.321 365.5,422C377.535,428.007 389.535,434.007 401.5,440C412.547,446.553 422.547,454.386 431.5,463.5C434.056,464.543 436.223,466.21 438,468.5C441.002,472.334 444.169,476 447.5,479.5C454.437,486.938 461.603,494.271 469,501.5C469.678,499.402 469.511,497.402 468.5,495.5C459.489,480.14 449.489,465.473 438.5,451.5C435.705,449.249 433.372,446.582 431.5,443.5C417.829,429.829 403.829,416.496 389.5,403.5C387.833,402.5 386.5,401.167 385.5,399.5C381.537,396.871 377.871,393.871 374.5,390.5C372.537,388.721 370.371,387.054 368,385.5C367.536,384.906 367.369,384.239 367.5,383.5C366.448,383.649 365.448,383.483 364.5,383C362.695,380.597 360.362,378.93 357.5,378C348.681,370.758 339.681,363.758 330.5,357C323.451,353.443 317.118,348.943 311.5,343.5C302.352,339.401 294.018,334.067 286.5,327.5C263.225,313.365 239.558,300.032 215.5,287.5C212.779,287.037 210.112,286.371 207.5,285.5C200.275,283.018 192.942,280.518 185.5,278C181.167,277.333 176.833,277.333 172.5,278L171,279.5C169.849,287.849 170.683,295.849 173.5,303.5C174.968,308.714 175.635,314.047 175.5,319.5ZM495.5,486.5C494.25,495.649 492.917,504.649 491.5,513.5C491.795,515.735 491.461,517.735 490.5,519.5L490.5,543.5C491.175,556.234 492.508,568.901 494.5,581.5C495.473,583.948 495.806,586.615 495.5,589.5C496.338,589.842 496.672,590.508 496.5,591.5C498.403,605.206 501.736,618.539 506.5,631.5C509.544,636.662 511.211,642.328 511.5,648.5L512.5,648.5C515.756,640.979 518.756,633.312 521.5,625.5C525.789,612.084 529.455,598.417 532.5,584.5C533.222,578.112 534.222,571.779 535.5,565.5C535.298,563.05 535.631,560.717 536.5,558.5L536.5,543.5C537.437,535.555 537.77,527.555 537.5,519.5C535.912,509.924 534.078,500.257 532,490.5C529.559,480.219 525.392,470.719 519.5,462C515.778,461.762 512.111,461.262 508.5,460.5C507.817,460.863 507.15,461.196 506.5,461.5C505.154,463.537 503.82,465.537 502.5,467.5C500.002,473.862 497.669,480.195 495.5,486.5ZM500.5,431.5C501.167,433.5 501.833,435.5 502.5,437.5C506.168,444.167 511.501,446 518.5,443C522.016,438.105 523.349,432.605 522.5,426.5C521.559,424.228 520.226,422.228 518.5,420.5C516.847,420.34 515.514,419.674 514.5,418.5C508.039,416.818 503.872,419.151 502,425.5C501.809,427.708 501.309,429.708 500.5,431.5ZM591.5,441.5C582.681,451.813 574.348,462.48 566.5,473.5C563.748,478.674 560.748,483.674 557.5,488.5C556.9,491.298 555.9,493.965 554.5,496.5C555.246,497.736 555.579,499.07 555.5,500.5C560.915,494.051 566.582,487.718 572.5,481.5C577.146,474.854 582.812,469.188 589.5,464.5C601.892,453.128 615.559,443.461 630.5,435.5L630.5,434.5C658.231,418.699 687.897,408.032 719.5,402.5C724.711,401.778 730.044,400.945 735.5,400C751.5,399.333 767.5,399.333 783.5,400C797.226,401.509 810.892,403.342 824.5,405.5C824.205,403.265 824.539,401.265 825.5,399.5C827.211,391.982 829.211,384.649 831.5,377.5C834.88,363.309 838.546,349.309 842.5,335.5C846.167,319.503 849.833,303.503 853.5,287.5C853.472,284.084 852.472,281.084 850.5,278.5L849.5,278.5C844.886,277.45 840.22,277.283 835.5,278C826.006,280.107 817.006,283.274 808.5,287.5C799.525,289.823 791.192,293.49 783.5,298.5L782.5,298.5C774.125,303.236 765.791,307.902 757.5,312.5C744.561,320.112 731.895,328.112 719.5,336.5C716.32,338.255 713.32,340.255 710.5,342.5C707.996,343.584 705.663,344.917 703.5,346.5L703.5,347.5C697.732,351.037 692.399,355.037 687.5,359.5C684.484,360.343 681.817,361.843 679.5,364C666.979,373.697 654.646,383.531 642.5,393.5C640.098,395.909 637.431,397.909 634.5,399.5C631.14,403.527 627.473,407.194 623.5,410.5C618.466,414.533 614.133,419.2 610.5,424.5C603.591,429.403 597.257,435.07 591.5,441.5ZM795.5,420.5L783.5,420.5C767.497,420.333 751.497,420.5 735.5,421C725.222,422.884 714.889,424.384 704.5,425.5C699.478,426.505 694.478,427.672 689.5,429C688.244,429.417 687.577,430.25 687.5,431.5C670.328,435.421 654.328,442.088 639.5,451.5C637.95,452.441 636.284,453.107 634.5,453.5C621.145,462.525 608.479,472.525 596.5,483.5C592.167,488.5 587.5,493.167 582.5,497.5C580.856,499.481 579.19,501.481 577.5,503.5C578.09,504.799 579.09,505.632 580.5,506C602,513.952 623.667,521.118 645.5,527.5C658.14,529.384 670.806,531.051 683.5,532.5C700.897,531.395 718.231,529.729 735.5,527.5C746.267,524.809 756.934,521.809 767.5,518.5C776.693,513.392 785.026,507.059 792.5,499.5C802.753,484.312 809.753,467.645 813.5,449.5C813.747,448.287 814.414,447.62 815.5,447.5C815.365,442.047 816.032,436.714 817.5,431.5C818.924,429.485 819.59,427.152 819.5,424.5C811.388,423.058 803.388,421.725 795.5,420.5ZM703.5,575.5C694.069,565.238 683.069,557.071 670.5,551C657.453,548.21 644.453,545.377 631.5,542.5C620.422,540.139 609.755,536.805 599.5,532.5C584.152,527.828 569.486,521.495 555.5,513.5C554.913,514.233 554.913,515.233 555.5,516.5C566.86,533.208 577.86,550.208 588.5,567.5C594.511,576.862 600.511,586.195 606.5,595.5C611.321,601.138 615.654,607.138 619.5,613.5C627.569,623.073 636.235,632.24 645.5,641C660.5,653.333 675.5,665.667 690.5,678C693.453,680.752 695.786,683.918 697.5,687.5C700.144,690.773 702.311,694.44 704,698.5C707.524,710.644 708.357,722.977 706.5,735.5C706.351,736.552 706.517,737.552 707,738.5C710.03,733.985 713.197,729.651 716.5,725.5C724.982,713.183 730.149,699.516 732,684.5C732.188,670.831 731.855,657.164 731,643.5C730.062,640.402 728.228,638.069 725.5,636.5C715.537,631.354 705.204,627.021 694.5,623.5C690.429,622.644 686.429,621.477 682.5,620C676.529,616.404 674.863,611.237 677.5,604.5C678.025,603.808 678.692,603.308 679.5,603C688.076,601.983 696.076,603.483 703.5,607.5C711.055,609.075 718.222,611.741 725,615.5C725.334,613.153 725.167,610.819 724.5,608.5C722.658,604.32 720.992,599.987 719.5,595.5C714.577,588.569 709.244,581.903 703.5,575.5ZM591.5,739.5C597.996,745.829 604.663,751.995 611.5,758C619.733,764.58 629.067,768.746 639.5,770.5L643.5,770.5C643.666,762.16 643.5,753.827 643,745.5C642.319,742.804 641.152,740.471 639.5,738.5C630.23,733.369 621.896,727.035 614.5,719.5C611.944,718.457 609.777,716.79 608,714.5C601.91,708.251 596.41,701.584 591.5,694.5C586.204,687.268 581.371,679.601 577,671.5C575.801,668.274 575.301,664.941 575.5,661.5L575.5,660.5C575.414,659.504 575.748,658.671 576.5,658C584.51,653.334 590.177,655.167 593.5,663.5C598.656,673.128 604.822,682.128 612,690.5C618.066,698.068 624.9,704.734 632.5,710.5C639.936,715.422 647.269,720.589 654.5,726C657.147,728.801 659.147,731.968 660.5,735.5C661.29,736.609 661.79,737.942 662,739.5C662.5,748.494 662.666,757.494 662.5,766.5C662.435,766.938 662.601,767.272 663,767.5C669.746,762.73 675.912,757.396 681.5,751.5C686.384,740.024 688.384,728.024 687.5,715.5C686.223,705.355 681.89,696.689 674.5,689.5C663.378,680.434 652.045,671.6 640.5,663C634.63,657.298 628.964,651.465 623.5,645.5C616.448,638.782 610.115,631.449 604.5,623.5C596.476,612.799 588.81,601.799 581.5,590.5C578.5,585.833 575.5,581.167 572.5,576.5C566.5,567.167 560.5,557.833 554.5,548.5C554.422,555.515 554.089,562.515 553.5,569.5L552.5,569.5C552.31,574.37 551.644,579.036 550.5,583.5C549.719,591.862 548.719,600.195 547.5,608.5C547.334,614.509 547.501,620.509 548,626.5C548.242,630.43 549.075,634.097 550.5,637.5C551.606,651.046 554.606,664.046 559.5,676.5C563.235,689.296 568.568,701.296 575.5,712.5C576.38,715.262 577.546,717.929 579,720.5C583.187,726.89 587.354,733.224 591.5,739.5ZM472.5,655.5C474.956,643.084 477.289,630.751 479.5,618.5L479.5,604.5C477.857,595.041 476.857,585.375 476.5,575.5C475.353,565.649 474.187,555.649 473,545.5C468.908,554.03 464.075,562.03 458.5,569.5C456.225,574.429 453.559,579.096 450.5,583.5C446.983,589.881 442.983,595.881 438.5,601.5C432.04,612.763 424.374,623.096 415.5,632.5C413.913,635.268 412.08,637.935 410,640.5C395.454,655.152 379.954,668.486 363.5,680.5C362.391,680.557 361.391,680.89 360.5,681.5C358.323,684.754 355.323,686.754 351.5,687.5C348.284,691.901 344.784,696.235 341,700.5C336.022,711.627 334.189,723.294 335.5,735.5C336.381,741.194 338.381,746.527 341.5,751.5C342.728,752.306 343.728,753.306 344.5,754.5C349.647,758.803 354.98,762.97 360.5,767C362.345,768.128 364.345,768.628 366.5,768.5L366.5,737.5L367.5,737.5C367.592,733.316 369.259,729.983 372.5,727.5C374.628,724.87 376.961,722.37 379.5,720C388.623,713.212 397.456,706.046 406,698.5C413.501,690.14 420.001,681.14 425.5,671.5C427.506,667.794 429.506,664.127 431.5,660.5C431.916,658.248 433.249,656.748 435.5,656C448.826,653.797 452.826,658.63 447.5,670.5C447.672,671.492 447.338,672.158 446.5,672.5C442.998,681.518 437.998,689.518 431.5,696.5C430.567,699.37 428.9,701.704 426.5,703.5C419.055,713.733 410.055,722.4 399.5,729.5C397.194,731.139 395.194,733.139 393.5,735.5L391.5,735.5C390.167,736.933 388.667,738.267 387,739.5C386.802,741.382 386.302,743.048 385.5,744.5C385.167,746.5 384.833,748.5 384.5,750.5L384.5,767.5C384.285,769.179 384.952,770.179 386.5,770.5C397.384,768.396 407.384,764.062 416.5,757.5C426.799,746.863 436.133,735.53 444.5,723.5C447.673,716.482 451.339,709.815 455.5,703.5C459.296,692.78 463.296,682.113 467.5,671.5C468.796,665.95 470.463,660.617 472.5,655.5ZM294.5,687.5C295.85,698.207 298.85,708.541 303.5,718.5C308.191,724.536 312.525,730.869 316.5,737.5C316.477,729.038 316.644,720.371 317,711.5C317.098,708.478 317.932,705.811 319.5,703.5C320.591,697.318 323.258,691.984 327.5,687.5C333.569,677.763 341.569,670.096 351.5,664.5C362.142,656.197 372.809,647.864 383.5,639.5C389.167,634.5 394.5,629.167 399.5,623.5C404.484,616.52 409.817,609.854 415.5,603.5C420.822,594.861 426.156,586.195 431.5,577.5C433.512,574.795 435.512,572.128 437.5,569.5C443.41,558.92 449.743,548.587 456.5,538.5C459.199,534.81 461.865,531.143 464.5,527.5C466.934,523.618 469.601,519.952 472.5,516.5C472.631,515.761 472.464,515.094 472,514.5C461.773,520.7 450.94,525.366 439.5,528.5C432.283,532.228 424.617,534.895 416.5,536.5C416.5,537.167 416.167,537.5 415.5,537.5C408.368,539.1 401.368,541.1 394.5,543.5C390.864,544.326 387.197,544.992 383.5,545.5C377.75,547.229 371.75,548.229 365.5,548.5C358.891,549.817 352.557,552.151 346.5,555.5C346.158,556.338 345.492,556.672 344.5,556.5C340.465,559.857 336.132,562.857 331.5,565.5C331.5,566.167 331.167,566.5 330.5,566.5C326.226,570.598 321.726,574.598 317,578.5C313.257,582.732 309.757,587.065 306.5,591.5C304.164,597.504 301.831,603.504 299.5,609.5C298.61,611.782 298.444,614.115 299,616.5C299.816,615.177 300.983,614.511 302.5,614.5C307.782,611.854 313.448,610.187 319.5,609.5C320.287,607.896 321.62,607.229 323.5,607.5C332.601,603.876 341.934,602.876 351.5,604.5C355.5,609.5 355.5,614.5 351.5,619.5C340.339,622.712 329.006,625.879 317.5,629C309.943,632.23 302.61,635.73 295.5,639.5C294.516,655.422 294.183,671.422 294.5,687.5ZM283.5,527.5L287.5,527.5C296.191,529.546 304.858,531.213 313.5,532.5L319.5,532.5C330.109,533.095 340.776,533.095 351.5,532.5C362.178,530.831 372.844,529.165 383.5,527.5C385.838,525.96 388.505,525.294 391.5,525.5C393.905,524.232 396.572,523.565 399.5,523.5C407.626,520.459 415.959,517.792 424.5,515.5C432.419,512.214 440.419,508.881 448.5,505.5C446.918,503.985 445.584,502.319 444.5,500.5C440.167,496.833 436.167,492.833 432.5,488.5C425.175,482.508 418.175,476.175 411.5,469.5C404.825,464.831 398.158,460.164 391.5,455.5C371.908,445.7 351.908,437.033 331.5,429.5C317.071,425.56 302.404,422.893 287.5,421.5C271.524,420.578 255.524,420.245 239.5,420.5C227.827,421.406 216.161,422.406 204.5,423.5C204.062,423.435 203.728,423.601 203.5,424C205.688,431.772 207.688,439.606 209.5,447.5C213.053,460.009 217.386,472.342 222.5,484.5C224.422,488.663 227.088,492.33 230.5,495.5C233.118,500.413 236.452,504.746 240.5,508.5C241.492,508.328 242.158,508.662 242.5,509.5C249.008,513.588 255.675,517.421 262.5,521C269.565,523.343 276.565,525.51 283.5,527.5Z"/>
    </g>
</svg>
