<?xml version="1.0" encoding="UTF-8" standalone="no"?>
<!DOCTYPE svg PUBLIC "-//W3C//DTD SVG 1.1//EN" "http://www.w3.org/Graphics/SVG/1.1/DTD/svg11.dtd">
<svg width="100%" height="100%" viewBox="0 0 1024 1024" version="1.1" xmlns="http://www.w3.org/2000/svg" xmlns:xlink="http://www.w3.org/1999/xlink" xml:space="preserve" xmlns:serif="http://www.serif.com/" style="fill-rule:evenodd;clip-rule:evenodd;stroke-linejoin:round;stroke-miterlimit:2;">
    <g transform="matrix(1.22625,0,0,1.22625,-103.533,-165.334)">
        <path d="M268.5,868.5C263.078,863.323 260.078,856.99 259.5,849.5C246.972,852.226 234.305,853.059 221.5,852C203.161,848.337 189.828,838.171 181.5,821.5C160.364,821.295 142.864,813.295 129,797.5C124.917,790.625 119.917,784.625 114,779.5C108.139,780.361 102.305,781.361 96.5,782.5C85.552,780.944 82.052,774.944 86,764.5C87.432,762.561 89.265,761.228 91.5,760.5C107.917,759.312 123.583,755.145 138.5,748C176.534,730.483 214.201,712.15 251.5,693C273.014,682.581 292.014,668.747 308.5,651.5C314.474,644.893 319.974,637.893 325,630.5C336.167,610.167 347.333,589.833 358.5,569.5C312.788,565.239 277.621,543.906 253,505.5C251.56,499.805 252.726,494.805 256.5,490.5C258.44,489.905 260.44,489.572 262.5,489.5C298.923,495.146 335.256,494.813 371.5,488.5C395.077,484.523 418.077,478.523 440.5,470.5C443.297,459.942 446.797,449.608 451,439.5C455.209,395.543 467.875,354.21 489,315.5C509.186,279.65 538.019,253.15 575.5,236C630.913,217.446 681.246,226.446 726.5,263L748,284.5L766,308.5C782.276,296.852 800.442,290.352 820.5,289C844.202,287.546 867.535,289.879 890.5,296C897.833,298 905.167,300 912.5,302C919.948,305.718 921.448,311.218 917,318.5C915.745,319.211 914.579,320.044 913.5,321C890.848,318.73 869.182,322.396 848.5,332C837.698,337.568 827.365,343.901 817.5,351C803.018,363.405 788.351,375.572 773.5,387.5C773.709,388.086 774.043,388.586 774.5,389C819.575,399.391 865.241,405.391 911.5,407C920.071,410.601 921.571,416.101 916,423.5C889.722,436.216 862.222,445.383 833.5,451C813.247,454.204 792.914,455.204 772.5,454C774.956,456.408 776.789,459.241 778,462.5C790.273,501.59 797.44,541.59 799.5,582.5C799.221,597.284 797.888,611.95 795.5,626.5C782.945,683.985 755.278,732.651 712.5,772.5C677.482,802.842 637.148,822.842 591.5,832.5C590.697,833.423 590.53,834.423 591,835.5C593.001,838.331 595.167,840.997 597.5,843.5C601.261,849.112 606.261,852.945 612.5,855C660.5,855.333 708.5,855.667 756.5,856C761.936,858.369 764.102,862.535 763,868.5C762.042,873.79 758.876,876.624 753.5,877C703.167,877.667 652.833,877.667 602.5,877C599.554,876.194 596.888,874.861 594.5,873C590.288,868.293 586.288,863.46 582.5,858.5C575.829,851.33 568.996,844.33 562,837.5C527.977,842.073 494.477,839.573 461.5,830C455.431,828.58 449.764,826.413 444.5,823.5C436.258,821.029 428.258,817.862 420.5,814C419.167,813.333 417.833,813.333 416.5,814C388.001,830.748 359.668,847.748 331.5,865C322.146,870.679 312.146,874.679 301.5,877C288.83,879.885 277.83,877.051 268.5,868.5ZM137.5,773.5C151.753,794.788 171.753,803.954 197.5,801C199.662,802.645 200.995,804.812 201.5,807.5C200.04,810.029 199.54,812.696 200,815.5C208.648,825.999 219.815,830.999 233.5,830.5C244.965,830.05 255.965,827.55 266.5,823C270.594,822.233 274.594,822.566 278.5,824C282.336,830.484 282.336,836.984 278.5,843.5C278.974,847.281 280.641,850.448 283.5,853C293.08,856.577 302.413,855.91 311.5,851C364.532,819.489 417.199,787.489 469.5,755C482.555,752.054 487.389,756.887 484,769.5C478.277,774.611 472.11,779.111 465.5,783C456.392,788.447 447.058,793.447 437.5,798C449.208,803.069 461.208,807.236 473.5,810.5C512.801,819.675 552.134,819.675 591.5,810.5C618.455,803.796 643.789,793.296 667.5,779C744.582,726.335 780.748,653.168 776,559.5C772.177,530.563 767.01,501.896 760.5,473.5C747.617,496.926 734.45,520.259 721,543.5C713.515,550.868 707.515,549.868 703,540.5C702.28,534.377 703.614,528.711 707,523.5C723.667,494.833 740.333,466.167 757,437.5C756.809,417.543 753.142,398.21 746,379.5C742.229,362.129 744.729,345.796 753.5,330.5C738.508,302.673 717.508,280.507 690.5,264C635.566,236.783 585.899,243.95 541.5,285.5C522.264,303.275 507.43,324.275 497,348.5C487.227,370.596 480.727,393.596 477.5,417.5C475.097,430.491 472.763,443.158 470.5,455.5C485.067,448.588 500.067,442.755 515.5,438C560.984,425.874 601.651,434.874 637.5,465C660.367,488.222 675.867,515.722 684,547.5C694.71,582.706 690.71,616.04 672,647.5C647.645,678.348 615.812,692.014 576.5,688.5C567.023,687.42 557.69,685.587 548.5,683C509.162,671.011 478.828,647.511 457.5,612.5C429.742,610.128 407.408,598.128 390.5,576.5C388.745,573.32 386.745,570.32 384.5,567.5C371.15,592.876 357.316,617.876 343,642.5C336.909,651.013 330.576,659.346 324,667.5C319.906,672.102 315.406,676.102 310.5,679.5C309.167,681.167 307.833,682.833 306.5,684.5C292.702,694.907 278.036,704.074 262.5,712C220.668,732.637 179.001,753.137 137.5,773.5ZM377.5,509.5C367.44,511.938 357.107,513.438 346.5,514C326.5,514.333 306.5,514.667 286.5,515C304.068,531.95 325.068,542.283 349.5,546C365.18,546.462 380.847,546.462 396.5,546C398.002,546.583 399.335,547.416 400.5,548.5C414.227,579.872 438.227,593.372 472.5,589C476.02,589.504 478.52,591.337 480,594.5C480.245,598.853 480.245,603.187 480,607.5C481.399,610.629 483.065,613.629 485,616.5C512.914,648.87 548.414,665.87 591.5,667.5C622.371,665.663 645.204,651.33 660,624.5C663.443,616.506 665.443,608.172 666,599.5C668.387,557.998 656.72,520.998 631,488.5C610.33,464.754 584.163,453.421 552.5,454.5C535.539,454.994 519.206,458.494 503.5,465C479.066,476.217 454.4,486.884 429.5,497C412.528,502.743 395.195,506.91 377.5,509.5ZM302.5,749.5C315.55,749.705 320.383,756.038 317,768.5C316.167,770.667 314.667,772.167 312.5,773C298.011,775.844 292.178,770.011 295,755.5C297.114,752.879 299.614,750.879 302.5,749.5ZM669.5,336.5C683.265,334.932 690.431,340.932 691,354.5C687.285,368.282 678.785,372.782 665.5,368C659.312,362.1 657.146,354.933 659,346.5C661.106,341.557 664.606,338.224 669.5,336.5ZM823.5,311.5C788.165,312.677 768.998,330.677 766,365.5C770.447,360.515 775.614,356.349 781.5,353C798.763,336.032 818.43,322.532 840.5,312.5C835.025,311.511 829.358,311.178 823.5,311.5ZM778.5,412.5C778.823,419.148 778.156,425.648 776.5,432C802.82,432.557 828.82,429.89 854.5,424C829.03,420.983 803.697,417.15 778.5,412.5Z"/>
    </g>
</svg>
