<?xml version="1.0" encoding="UTF-8" standalone="no"?>
<!DOCTYPE svg PUBLIC "-//W3C//DTD SVG 1.1//EN" "http://www.w3.org/Graphics/SVG/1.1/DTD/svg11.dtd">
<svg width="100%" height="100%" viewBox="0 0 1024 1024" version="1.1" xmlns="http://www.w3.org/2000/svg" xmlns:xlink="http://www.w3.org/1999/xlink" xml:space="preserve" xmlns:serif="http://www.serif.com/" style="fill-rule:evenodd;clip-rule:evenodd;stroke-linejoin:round;stroke-miterlimit:2;">
    <g transform="matrix(1.71735,0,0,1.71735,-374.158,-345.786)">
        <path d="M675.5,689.5C671.291,727.764 652.624,756.598 619.5,776C603.301,785.178 585.967,791.178 567.5,794C549.023,795.084 530.523,795.584 512,795.5C458.457,803.773 414.124,787.773 379,747.5C365.536,730.896 357.869,711.896 356,690.5C355.833,625.497 355.333,560.497 354.5,495.5C325.506,509.313 296.839,508.646 268.5,493.5C256.192,486.024 246.358,476.024 239,463.5C231.803,444.35 234.469,426.684 247,410.5C259.49,395.502 275.323,386.002 294.5,382C306.464,380.829 318.464,380.162 330.5,380C308.814,362.472 296.647,339.639 294,311.5C291.687,287.664 295.021,264.664 304,242.5C308.603,234.89 314.603,233.557 322,238.5C323.093,241.309 324.26,243.976 325.5,246.5C327.101,253.633 329.101,260.633 331.5,267.5C343.513,301.014 364.846,326.848 395.5,345C414.439,357.209 434.772,366.543 456.5,373C464.278,373.925 471.944,373.425 479.5,371.5C482,365.082 486.667,362.582 493.5,364C503.991,368.807 506.491,376.307 501,386.5C495.111,390.356 488.611,392.856 481.5,394C461.526,399.199 443.026,396.032 426,384.5C410.386,392.447 398.386,404.114 390,419.5C383.867,430.03 380.201,441.363 379,453.5C378.652,501.887 378.319,550.221 378,598.5C392.086,580.033 410.586,568.533 433.5,564C486.167,563.333 538.833,563.333 591.5,564C612.604,566.489 630.604,575.155 645.5,590C648.423,592.416 650.757,595.25 652.5,598.5C653.499,552.003 653.832,505.336 653.5,458.5C652.37,427.729 639.37,403.562 614.5,386C612.833,385.167 611.167,384.333 609.5,383.5C590.929,395.992 570.595,399.825 548.5,395C541.134,392.442 538.301,387.275 540,379.5C541.698,370.793 546.865,367.293 555.5,369C558.29,369.561 560.623,370.894 562.5,373C568.167,373.667 573.833,373.667 579.5,373C616.947,360.379 649.78,340.546 678,313.5C694.422,292.656 706.088,269.323 713,243.5C714.305,240.039 716.471,237.372 719.5,235.5C722.978,235.184 726.312,235.684 729.5,237C737.173,249.352 741.673,262.852 743,277.5C748.272,309.073 741.605,337.74 723,363.5C717.38,370.127 710.88,375.627 703.5,380C735.65,376.043 762.483,385.876 784,409.5C796.743,425.315 800.077,442.981 794,462.5C785.562,480.271 772.062,492.437 753.5,499C728.106,508.338 703.106,507.505 678.5,496.5C677.883,496.611 677.383,496.944 677,497.5C676.833,561.668 676.333,625.668 675.5,689.5ZM676.5,401.5C675.653,402.966 674.32,403.8 672.5,404C668.821,404.787 665.154,405.621 661.5,406.5C672.09,427.099 678.09,448.932 679.5,472C702.482,485.64 726.149,486.973 750.5,476C768.523,468.462 776.023,454.962 773,435.5C766.659,417.837 754.159,407.337 735.5,404C718.167,403.667 700.833,403.333 683.5,403C681.134,402.56 678.801,402.06 676.5,401.5ZM315.5,282.5C315.208,295.202 315.708,307.869 317,320.5C319.223,328.949 322.557,336.949 327,344.5C337.167,358.667 349.333,370.833 363.5,381C369.582,385.383 376.249,388.05 383.5,389C388.718,383.28 394.384,378.113 400.5,373.5C389.159,366.831 378.159,359.664 367.5,352C343.687,333.479 326.354,310.313 315.5,282.5ZM355.5,400.5C355.389,401.117 355.056,401.617 354.5,402C335.53,403.224 316.53,403.891 297.5,404C283.954,406.52 272.787,413.02 264,423.5C252.679,440.281 254.513,455.448 269.5,469C296.948,487.24 324.948,488.073 353.5,471.5C355.338,448.969 361.338,427.635 371.5,407.5C365.881,405.688 360.548,403.354 355.5,400.5ZM720.5,281.5C720.162,283.854 719.662,286.187 719,288.5C712.504,304.827 703.004,319.16 690.5,331.5C673.529,347.974 654.529,361.474 633.5,372C639.359,377.195 645.192,382.362 651,387.5C662.781,382.859 673.948,377.026 684.5,370C715.153,348.182 727.153,318.682 720.5,281.5ZM436.5,585.5C428.272,587.769 420.272,590.936 412.5,595C385.314,615.222 373.147,642.389 376,676.5C380.212,729.381 408.379,760.881 460.5,771C494.832,772.992 529.165,772.992 563.5,771C570.563,769.99 577.563,768.656 584.5,767C622.866,755.637 646.366,730.47 655,691.5C659.513,667.589 656.18,644.922 645,623.5C632.317,601.831 613.484,589.331 588.5,586C537.834,585.5 487.168,585.333 436.5,585.5ZM443.5,632.5C454.834,632.673 464.334,637.006 472,645.5C477.739,658.432 473.572,663.932 459.5,662C456.008,659.994 452.674,657.828 449.5,655.5C439.022,660.731 438.355,666.897 447.5,674C451.752,673.897 455.752,672.564 459.5,670C470.436,668.04 475.269,672.54 474,683.5C472.939,686.562 471.106,689.062 468.5,691C447.605,701.702 431.772,696.536 421,675.5C415.858,654.448 423.358,640.115 443.5,632.5ZM576.5,632.5C597.211,632.541 608.877,642.874 611.5,663.5C608.064,688.046 594.064,698.879 569.5,696C559.03,692.556 554.53,685.389 556,674.5C557.873,670.973 560.873,669.307 565,669.5C570.524,670.064 575.691,671.73 580.5,674.5C588.11,670.134 589.444,664.301 584.5,657C582.833,656.167 581.167,655.333 579.5,654.5C575.899,657.594 571.899,660.094 567.5,662C558.873,665.041 554.207,662.207 553.5,653.5C553.871,648.259 556.205,644.092 560.5,641C565.483,637.344 570.816,634.511 576.5,632.5ZM731.5,205.5C735.152,212.708 733.818,218.708 727.5,223.5C721.992,225.609 717.492,224.275 714,219.5C712.201,212.675 713.701,206.842 718.5,202C723.585,200.668 727.919,201.835 731.5,205.5ZM317.5,201.5C321.015,202.345 323.681,204.345 325.5,207.5C327.969,214.362 326.302,219.862 320.5,224C308.561,225.038 304.061,219.538 307,207.5C308.916,202.755 312.416,200.755 317.5,201.5ZM394.5,287.5C424.515,307.524 456.515,311.024 490.5,298C500.171,294.171 508.837,288.838 516.5,282C520.167,280 523.833,280 527.5,282C535.926,289.88 545.593,295.713 556.5,299.5C563.037,302.648 570.037,304.481 577.5,305C595.096,305.615 612.096,302.615 628.5,296C640.739,291.218 650.739,283.551 658.5,273C661.366,271.543 664.366,271.21 667.5,272C675.504,275.954 677.671,282.12 674,290.5C652.629,311.934 626.796,324.434 596.5,328C567.549,330.826 542.049,322.992 520,304.5C516.133,308.846 511.633,312.346 506.5,315C493.685,321.955 480.018,326.288 465.5,328C425.066,332.191 391.566,319.024 365,288.5C360.293,272.871 365.459,268.038 380.5,274C384.859,278.957 389.526,283.457 394.5,287.5ZM439.5,449.5C460.555,447.115 474.388,455.781 481,475.5C483.766,500.571 472.599,514.571 447.5,517.5C419.032,511.227 409.199,494.227 418,466.5C423.339,458.307 430.506,452.64 439.5,449.5ZM444.5,472.5C438.055,475.656 436.222,480.656 439,487.5C440.857,493.178 444.691,495.345 450.5,494C456.316,490.868 458.816,486.034 458,479.5C455.579,473.371 451.079,471.038 444.5,472.5ZM571.5,449.5C599.159,447.335 613.326,460.001 614,487.5C612.534,501.598 605.034,510.765 591.5,515C577.503,519.229 565.337,516.062 555,505.5C543.724,487.742 545.224,471.242 559.5,456C563.434,453.536 567.434,451.369 571.5,449.5ZM576.5,472.5C573.284,474.573 571.284,477.573 570.5,481.5C570.891,487.241 573.558,491.408 578.5,494C588.231,494.257 592.397,489.424 591,479.5C588.278,473.108 583.445,470.775 576.5,472.5Z"/>
    </g>
</svg>
