<?xml version="1.0" encoding="UTF-8" standalone="no"?>
<!DOCTYPE svg PUBLIC "-//W3C//DTD SVG 1.1//EN" "http://www.w3.org/Graphics/SVG/1.1/DTD/svg11.dtd">
<svg width="100%" height="100%" viewBox="0 0 1024 1024" version="1.1" xmlns="http://www.w3.org/2000/svg" xmlns:xlink="http://www.w3.org/1999/xlink" xml:space="preserve" xmlns:serif="http://www.serif.com/" style="fill-rule:evenodd;clip-rule:evenodd;stroke-linejoin:round;stroke-miterlimit:2;">
    <g transform="matrix(1.56647,0,0,1.56647,-290.58,-324.444)">
        <path d="M810.5,506.5C839.215,524.342 846.381,548.675 832,579.5C817.081,602.053 795.914,613.887 768.5,615C742.126,615.63 715.792,615.63 689.5,615C694.226,616.353 698.893,618.02 703.5,620C716.665,627.415 729.665,635.081 742.5,643C748.673,647.556 749.839,653.056 746,659.5C741.946,661.923 737.779,662.09 733.5,660C715.658,648.576 697.325,637.909 678.5,628C671.833,623.333 665.167,618.667 658.5,614C628.414,604.459 599.081,592.959 570.5,579.5C569.741,583.359 567.741,586.359 564.5,588.5C586.163,602.534 596.497,622.534 595.5,648.5C595.48,657.617 594.48,666.617 592.5,675.5C586.698,695.391 579.198,714.725 570,733.5C556.315,757.537 543.148,781.87 530.5,806.5C527.797,811.377 524.464,815.877 520.5,820C513.544,824.209 507.711,823.042 503,816.5C477.806,778.28 456.473,737.947 439,695.5C431.772,675.797 428.772,655.464 430,634.5C432.126,615.228 441.126,600.228 457,589.5C456.6,586.509 455.433,583.676 453.5,581C424.844,593.336 395.51,604.336 365.5,614C360.013,618.576 354.347,622.909 348.5,627C328.126,639.187 307.459,650.854 286.5,662C278.26,662.085 274.76,657.918 276,649.5C277.122,647.376 278.622,645.543 280.5,644C294.669,635.414 309.003,627.081 323.5,619C326.432,617.855 329.432,617.022 332.5,616.5C333.043,616.44 333.376,616.107 333.5,615.5C319.339,614.174 305.339,614.174 291.5,615.5C273.014,616.365 254.68,615.199 236.5,612C205.981,603.078 188.981,582.911 185.5,551.5C186.408,530.099 196.408,514.599 215.5,505C218.167,504.333 220.833,503.667 223.5,503C290.833,502.5 358.166,502.333 425.5,502.5L425.5,497.5C426.612,478.653 433.112,461.986 445,447.5C450.675,442.656 456.175,437.656 461.5,432.5C455.842,418.656 456.342,404.99 463,391.5C469.704,381.61 478.871,375.61 490.5,373.5C489.298,369.422 487.798,365.422 486,361.5C469.361,328.877 450.694,297.543 430,267.5L426.5,264C407.833,263.667 389.167,263.333 370.5,263C365.008,259.858 363.508,255.358 366,249.5C367.214,247.951 368.714,246.785 370.5,246C390.167,245.333 409.833,245.333 429.5,246C436.101,248.22 441.601,252.053 446,257.5C468.786,291.392 489.286,326.725 507.5,363.5C512.12,364.493 516.786,364.827 521.5,364.5C521.737,361.353 522.57,358.353 524,355.5C540.29,320.234 559.623,286.901 582,255.5L590.5,247C610.769,245.369 631.102,245.036 651.5,246C656.599,247.695 658.432,251.195 657,256.5C655.772,260.704 652.939,262.87 648.5,263C632.5,263.333 616.5,263.667 600.5,264C597.906,266.086 595.906,268.586 594.5,271.5C572.708,302.733 553.708,335.733 537.5,370.5C536.711,370.783 536.044,371.283 535.5,372C560.546,381.251 570.713,399.084 566,425.5C565.484,428.034 564.317,430.2 562.5,432C586.063,449.625 598.729,473.125 600.5,502.5C667.501,502.333 734.501,502.5 801.5,503C804.647,503.881 807.647,505.047 810.5,506.5ZM444.5,522.5C445.809,528.742 447.309,535.076 449,541.5C451.362,547.431 454.195,553.098 457.5,558.5C463.924,542.246 474.257,529.079 488.5,519C499.411,512.501 511.078,510.834 523.5,514C544.728,522.895 559.562,538.062 568,559.5C580.813,536.953 584.647,512.953 579.5,487.5C574.973,468.464 564.14,454.131 547,444.5C524.404,461.381 501.57,461.715 478.5,445.5C457.649,455.498 446.483,472.165 445,495.5C444.5,504.494 444.334,513.494 444.5,522.5ZM508.5,385.5C498.564,387.388 490.064,392.055 483,399.5C477.013,410.812 478.847,420.645 488.5,429C508.352,443.107 526.185,440.94 542,422.5C547.747,411.759 546.247,402.259 537.5,394C528.639,388.533 518.972,385.7 508.5,385.5ZM778.5,557.5C779.794,558.29 780.961,559.29 782,560.5C783.761,568.406 780.595,572.573 772.5,573C732.167,573.667 691.833,573.667 651.5,573C646.79,572.625 642.123,571.958 637.5,571C622.267,565.715 607.267,559.882 592.5,553.5C591.876,557.927 589.709,561.261 586,563.5C585.251,564.635 585.417,565.635 586.5,566.5C610.525,578.455 635.525,587.955 661.5,595C699.461,596.636 737.461,596.969 775.5,596C801.924,592.242 816.924,577.242 820.5,551C819.579,533.745 810.579,523.745 793.5,521C729.168,520.5 664.834,520.333 600.5,520.5C600.732,524.974 600.066,529.307 598.5,533.5C598.608,534.442 598.941,535.275 599.5,536C614.167,542 628.833,548 643.5,554C648.437,555.085 653.437,555.752 658.5,556C686.831,556.5 715.165,556.667 743.5,556.5C754.326,555.341 765.326,555.174 776.5,556C777.416,556.278 778.082,556.778 778.5,557.5ZM424.5,519.5C358.335,520.333 292.001,520.833 225.5,521C221.888,522.139 218.554,523.806 215.5,526C205.399,535.9 202.232,547.733 206,561.5C213.653,581.434 228.153,592.934 249.5,596C284.833,596.667 320.167,596.667 355.5,596C359.5,595.333 363.5,594.667 367.5,594C391.981,586.231 415.981,577.398 439.5,567.5C436.801,562.432 434.468,557.098 432.5,551.5C417.28,557.943 401.946,564.11 386.5,570C380.218,571.325 373.885,572.325 367.5,573C330.5,573.667 293.5,573.667 256.5,573C252.638,570.08 251.138,566.247 252,561.5C252.5,558.333 254.333,556.5 257.5,556C294.5,555.667 331.5,555.333 368.5,555C372.219,554.612 375.886,553.945 379.5,553C395.285,546.462 411.285,540.629 427.5,535.5C427.317,529.757 426.317,524.423 424.5,519.5ZM487.5,755.5C496.554,769.256 504.888,783.589 512.5,798.5C520.451,784.096 528.785,769.929 537.5,756C528.558,754.892 519.558,754.392 510.5,754.5C502.659,754.5 494.993,754.834 487.5,755.5ZM495.5,670.5C481.906,672.064 468.573,675.23 455.5,680C455.043,680.414 454.709,680.914 454.5,681.5C456.231,687.192 458.064,692.859 460,698.5C460.519,699.516 461.353,700.182 462.5,700.5C496.581,693.636 530.581,693.969 564.5,701.5C566.703,694.224 568.703,686.891 570.5,679.5C560.88,677.241 551.214,675.074 541.5,673C526.224,671.113 510.89,670.28 495.5,670.5ZM572.5,642.5C561.292,639.758 549.958,637.592 538.5,636C509.302,631.515 480.635,633.682 452.5,642.5C451.432,643.434 450.099,643.768 448.5,643.5L448.5,649.5C448.174,653.884 448.508,658.217 449.5,662.5C491.474,649.26 533.474,649.26 575.5,662.5L575.5,643.5C574.209,643.737 573.209,643.404 572.5,642.5ZM505.5,531.5C502.101,533.038 498.767,534.871 495.5,537C484.22,546.776 475.887,558.61 470.5,572.5C475.629,573.961 478.629,577.294 479.5,582.5C500.142,577.191 520.809,577.191 541.5,582.5C544.163,580.369 546.496,577.869 548.5,575C550.9,574.814 553.234,574.314 555.5,573.5C552.064,567.627 548.897,561.627 546,555.5C540.058,544.892 531.558,537.058 520.5,532C515.511,531.501 510.511,531.334 505.5,531.5ZM490.5,713.5C483.286,715.134 475.952,716.801 468.5,718.5C470.607,722.381 472.441,726.381 474,730.5C475.216,732.968 476.883,734.968 479,736.5C501.816,735.46 524.65,735.293 547.5,736C551.024,730.618 554.024,724.952 556.5,719C548.27,716.821 539.937,715.154 531.5,714C517.837,713.5 504.171,713.333 490.5,713.5ZM503.5,597.5C493.254,599.811 482.92,602.311 472.5,605C463.978,609.186 456.978,615.186 451.5,623C461.478,621.679 471.478,620.012 481.5,618C500.822,614.861 520.155,614.861 539.5,618C550.514,619.939 561.514,621.605 572.5,623C569.584,618.08 565.918,613.747 561.5,610C542.995,602.041 523.661,597.874 503.5,597.5Z"/>
    </g>
</svg>
