<?xml version="1.0" encoding="UTF-8" standalone="no"?>
<!DOCTYPE svg PUBLIC "-//W3C//DTD SVG 1.1//EN" "http://www.w3.org/Graphics/SVG/1.1/DTD/svg11.dtd">
<svg width="100%" height="100%" viewBox="0 0 1024 1024" version="1.1" xmlns="http://www.w3.org/2000/svg" xmlns:xlink="http://www.w3.org/1999/xlink" xml:space="preserve" xmlns:serif="http://www.serif.com/" style="fill-rule:evenodd;clip-rule:evenodd;stroke-linejoin:round;stroke-miterlimit:2;">
    <g transform="matrix(1.3066,0,0,1.3066,-136.936,-171.978)">
        <path d="M253.5,628.5C247.91,629.787 242.577,631.954 237.5,635C229.874,641.127 228.708,648.293 234,656.5C243.18,665.005 254.013,670.172 266.5,672C396.147,673.651 525.813,673.984 655.5,673C662.755,671.193 669.755,668.693 676.5,665.5C681.617,671.789 686.951,677.956 692.5,684C691.944,684.383 691.611,684.883 691.5,685.5C678.214,693.472 663.881,698.639 648.5,701C523.5,701.667 398.5,701.667 273.5,701C266.433,700.153 259.433,698.986 252.5,697.5C241.745,693.792 231.412,688.959 221.5,683C205.806,670.729 200.306,654.895 205,635.5C213.223,615.617 228.056,604.45 249.5,602C271.193,601.893 292.86,601.226 314.5,600C338.589,595.245 352.423,580.745 356,556.5C356.344,526.504 341.51,510.004 311.5,507C278.5,506.667 245.5,506.333 212.5,506C198.675,504.171 187.175,498.004 178,487.5C163.858,467.168 162.858,446.168 175,424.5C184.626,411.708 195.459,400.041 207.5,389.5C210.75,387.757 213.584,385.423 216,382.5C222.536,391.571 228.036,401.238 232.5,411.5C218.026,419.467 206.193,430.467 197,444.5C195.096,447.923 194.263,451.59 194.5,455.5C195.882,466.714 201.882,474.214 212.5,478C248.824,479.014 285.157,480.014 321.5,481C349.918,485.775 369.751,501.275 381,527.5C388.695,555.359 383.695,580.692 366,603.5C350.573,617.627 332.407,625.961 311.5,628.5L253.5,628.5ZM862.5,309.5C868.187,310.885 873.854,312.718 879.5,315C883.313,317.124 885.813,320.291 887,324.5C888.123,335.946 888.623,347.446 888.5,359C888.612,370.879 888.112,382.712 887,394.5C884.416,401.382 879.583,405.882 872.5,408C851.315,417.508 829.648,425.841 807.5,433C787.814,435.94 768.147,435.607 748.5,432C728.797,429.245 709.131,426.245 689.5,423C668.063,418.873 650.229,408.706 636,392.5C627.056,381.079 622.223,368.079 621.5,353.5L648.5,353.5C652.716,374.884 665.383,388.384 686.5,394C694.001,396.417 701.667,398.084 709.5,399C735.109,402.361 760.776,405.194 786.5,407.5C794.246,406.431 801.912,404.931 809.5,403C826.084,396.861 842.751,391.028 859.5,385.5L859.5,336.5C846.188,333.896 833.522,329.396 821.5,323L761.5,290C749.428,285.357 736.928,282.524 724,281.5C715.079,282.01 706.245,283.176 697.5,285C679.129,290.874 660.295,294.041 641,294.5C605.611,290.788 571.111,294.622 537.5,306C522.405,312.277 509.072,321.11 497.5,332.5C477.772,350.599 464.106,372.599 456.5,398.5C449.412,427.922 448.579,457.588 454,487.5C462.074,518.233 479.907,541.4 507.5,557C513.167,560 518.833,563 524.5,566C572.729,585.448 620.729,605.448 668.5,626C682.35,633.086 695.683,640.92 708.5,649.5C704.438,654.032 701.105,659.032 698.5,664.5C696.882,666.785 694.882,668.785 692.5,670.5C681.281,662.388 669.281,655.554 656.5,650C610.25,630.706 563.917,611.706 517.5,593C491.105,581.728 468.605,565.228 450,543.5C435.231,522.867 426.564,499.867 424,474.5C422.677,460.201 422.177,445.867 422.5,431.5C423.938,412.35 427.771,393.683 434,375.5C464.277,307.623 516.777,271.456 591.5,267C614.5,266.667 637.5,266.333 660.5,266C676.732,261.859 693.065,258.192 709.5,255C730.71,253.042 751.044,256.376 770.5,265C793.802,277.318 817.135,289.652 840.5,302C847.564,305.369 854.898,307.869 862.5,309.5ZM508.5,397.5C509.922,397.709 511.255,398.209 512.5,399C517.64,403.228 522.306,407.895 526.5,413L532.5,416C519.944,444.452 525.278,469.119 548.5,490C558.169,496.503 568.169,502.503 578.5,508C582.633,511.131 586.466,514.631 590,518.5C590.667,519.5 590.667,520.5 590,521.5C586.868,525.466 584.368,529.799 582.5,534.5C581.833,534.833 581.167,535.167 580.5,535.5C564.294,530.156 548.961,522.989 534.5,514C510.944,496.378 498.61,472.711 497.5,443C498.422,427.145 502.089,411.978 508.5,397.5ZM563.5,364.5C566.448,364.223 569.281,364.556 572,365.5C574.677,373.698 577.844,381.698 581.5,389.5C570.94,390.604 560.607,392.77 550.5,396C543.902,398.292 538.902,402.459 535.5,408.5C528.483,402.813 521.817,396.813 515.5,390.5C514.674,389.549 514.508,388.549 515,387.5C528.684,374.575 544.85,366.908 563.5,364.5ZM707.5,311.5C713.509,311.334 719.509,311.501 725.5,312C729.446,319.391 733.279,326.891 737,334.5C739.276,337.064 741.276,336.73 743,333.5C745.311,329.046 747.478,324.546 749.5,320C756.833,319.333 764.167,319.333 771.5,320C774.207,343.815 763.541,357.315 739.5,360.5C725.633,360.322 715.799,353.989 710,341.5C708.031,335.957 706.531,330.29 705.5,324.5C706.168,320.154 706.835,315.82 707.5,311.5ZM700.5,555.5C713.231,561.7 725.897,568.2 738.5,575C763.285,589.452 783.118,608.952 798,633.5C815.351,674.365 811.351,713.031 786,749.5C759.692,778.396 726.858,792.729 687.5,792.5L247.5,792.5C197.76,791.798 158.093,771.798 128.5,732.5C120.351,721.258 114.184,708.924 110,695.5C94.218,630.798 114.385,580.965 170.5,546C198.188,532.079 227.521,526.079 258.5,528C260.235,530.192 261.402,532.692 262,535.5C262.5,542.492 262.666,549.492 262.5,556.5C249.496,556.333 236.496,556.5 223.5,557C201.081,560.046 181.748,569.213 165.5,584.5C145.505,601.824 134.505,623.824 132.5,650.5C131.752,668.427 135.086,685.427 142.5,701.5C161.686,739.46 192.686,760.293 235.5,764C311.313,765.153 387.146,765.653 463,765.5C539.841,765.482 616.674,765.148 693.5,764.5C714.789,763.46 734.122,756.96 751.5,745C779.132,718.068 786.632,686.234 774,649.5C769.163,641.156 763.83,633.156 758,625.5C747.556,615.518 736.39,606.351 724.5,598C683.796,576.98 642.129,558.147 599.5,541.5C598.685,535.886 597.352,530.386 595.5,525C596.845,519.807 599.345,515.307 603,511.5C635.225,526.864 667.725,541.531 700.5,555.5Z"/>
    </g>
</svg>
