<?xml version="1.0" encoding="UTF-8" standalone="no"?>
<!DOCTYPE svg PUBLIC "-//W3C//DTD SVG 1.1//EN" "http://www.w3.org/Graphics/SVG/1.1/DTD/svg11.dtd">
<svg width="100%" height="100%" viewBox="0 0 1024 1024" version="1.1" xmlns="http://www.w3.org/2000/svg" xmlns:xlink="http://www.w3.org/1999/xlink" xml:space="preserve" xmlns:serif="http://www.serif.com/" style="fill-rule:evenodd;clip-rule:evenodd;stroke-linejoin:round;stroke-miterlimit:2;">
    <g transform="matrix(1.50627,0,0,1.50627,-267.364,-246.133)">
        <path d="M790.5,223.5C790.605,227.687 789.772,231.687 788,235.5C774.976,269.878 762.81,304.544 751.5,339.5C744.649,342.514 739.149,347.18 735,353.5C720.947,374.817 718.947,397.15 729,420.5C743.74,441.127 763.907,452.294 789.5,454C803.833,454.333 818.167,454.667 832.5,455C841.231,455.46 848.731,458.626 855,464.5C858.401,471.644 858.068,478.644 854,485.5C850.786,490.339 846.62,491.506 841.5,489C839.152,485.127 837.486,480.961 836.5,476.5C827.494,476.334 818.494,476.5 809.5,477C812.833,481.667 816.167,486.333 819.5,491C826.527,491.096 832.027,493.929 836,499.5C837.134,507.126 834.301,512.626 827.5,516C791.016,527.284 753.683,533.784 715.5,535.5C675.322,533.693 635.655,528.193 596.5,519C576.246,513.748 555.912,508.748 535.5,504C530.692,502.688 528.358,499.521 528.5,494.5C530.246,483.611 536.58,479.778 547.5,483C585.706,493.736 624.373,502.402 663.5,509C696.174,513.567 728.84,513.567 761.5,509C775.138,506.174 788.805,503.507 802.5,501C794.076,494.995 789.076,486.829 787.5,476.5C747.102,472.914 718.935,452.58 703,415.5C697.09,390.473 701.09,367.14 715,345.5C715.749,344.365 715.583,343.365 714.5,342.5C679.095,322.219 641.262,308.553 601,301.5C597.591,301.952 594.424,303.119 591.5,305C588.036,305.817 584.702,305.483 581.5,304C578.737,300.639 576.903,296.805 576,292.5C571.993,275.473 567.827,258.473 563.5,241.5C547.808,262.025 532.308,282.692 517,303.5C518.166,314.169 519.666,324.836 521.5,335.5C521.021,348.185 515.188,351.852 504,346.5C499.073,334.617 495.74,322.283 494,309.5C493.174,304.411 493.508,299.411 495,294.5C500.709,288.46 506.043,282.126 511,275.5C525.279,254.887 539.946,234.554 555,214.5C555.667,213.833 555.667,213.167 555,212.5L536.5,231C516.707,247.125 497.207,263.625 478,280.5C473.421,336.071 471.087,391.737 471,447.5C496.393,490.232 528.893,526.732 568.5,557C585.5,568.167 602.5,579.333 619.5,590.5C649.534,616.605 660.201,649.272 651.5,688.5C644.396,717.71 630.73,743.376 610.5,765.5C603.895,772.611 596.562,778.777 588.5,784C640.607,779.031 683.44,756.531 717,716.5C744.411,681.603 757.911,641.77 757.5,597C757.533,583.426 756.533,569.926 754.5,556.5C755.745,547.86 760.745,544.693 769.5,547C771.667,547.833 773.167,549.333 774,551.5C781.223,578.911 782.39,606.578 777.5,634.5C771.38,667.355 758.547,697.355 739,724.5C731.634,732.697 724.134,740.697 716.5,748.5C670.728,792.148 616.228,811.481 553,806.5C499.793,830.255 448.96,826.088 400.5,794C391.325,787.913 382.325,781.579 373.5,775C353.77,767.485 334.103,759.818 314.5,752C254.276,720.43 213.443,672.263 192,607.5C182.829,573.136 177.995,538.136 177.5,502.5C178.785,471.71 184.952,442.043 196,413.5C207.141,390.215 217.474,366.548 227,342.5C234.906,321.488 238.239,299.821 237,277.5C233.089,252.333 221.422,231.666 202,215.5C201.333,211.5 201.333,207.5 202,203.5C203.167,201 205,199.167 207.5,198C252.928,196.923 292.594,211.256 326.5,241C354.217,266.594 373.717,297.427 385,333.5C391.299,361.927 395.632,390.594 398,419.5C397.215,421.286 396.049,422.786 394.5,424C389.614,425.224 384.614,425.891 379.5,426C374.603,428.608 369.937,431.441 365.5,434.5C343.238,450.279 328.071,471.279 320,497.5C316.871,506.685 314.371,516.018 312.5,525.5C301.209,564.611 303.042,603.277 318,641.5C331.729,672.643 349.729,700.977 372,726.5C391.281,747.451 412.114,766.618 434.5,784C461.13,800.037 489.463,803.704 519.5,795C566.349,781.665 600.515,753.165 622,709.5C631.668,686.148 633.668,662.148 628,637.5C624.97,627.93 619.803,619.763 612.5,613C595.772,601.274 578.772,589.941 561.5,579C517.699,546.871 481.199,508.037 452,462.5C447.85,457.217 446.017,451.217 446.5,444.5L449.5,444.5C450.298,423.775 450.798,403.108 451,382.5C434.363,414.036 425.03,447.703 423,483.5C418.915,545.561 435.581,601.228 473,650.5C480.86,659.272 489.194,667.605 498,675.5C500.34,679.555 501.007,683.889 500,688.5C497.475,691.965 493.975,693.632 489.5,693.5C486.249,693.109 483.249,691.942 480.5,690C451.014,661.54 429.181,628.04 415,589.5C411.191,579.242 407.857,568.908 405,558.5C392.98,598.033 395.98,636.367 414,673.5C426.11,695.276 443.61,711.11 466.5,721C475.178,724.002 483.845,727.002 492.5,730C497.685,734.947 498.851,740.781 496,747.5L492.5,751C488.833,751.667 485.167,751.667 481.5,751C407.234,724.029 372.4,670.862 377,591.5C380.243,557.866 387.576,525.2 399,493.5C402.058,442.335 416.391,394.669 442,350.5C444.964,346.534 448.297,342.867 452,339.5C453.277,322.187 454.277,304.854 455,287.5C455.35,280.733 456.35,274.067 458,267.5C490.195,239.008 523.362,211.841 557.5,186C565.596,183.349 571.096,185.849 574,193.5C581.274,221.819 588.441,250.153 595.5,278.5C607.207,279.507 618.874,280.84 630.5,282.5C630.334,277.821 630.501,273.155 631,268.5C632.944,265.266 635.778,263.1 639.5,262C685.55,247.873 731.55,233.539 777.5,219C782.734,218.022 787.067,219.522 790.5,223.5ZM238.5,222.5C243.229,230.284 247.729,238.284 252,246.5C257.598,260.607 260.432,275.274 260.5,290.5C259.404,306.811 256.571,322.811 252,338.5C242.377,364.747 231.377,390.414 219,415.5C210.836,436.154 205.17,457.487 202,479.5C198.407,528.502 204.741,576.169 221,622.5C249.017,685.605 295.35,726.272 360,744.5C341.804,724.435 325.804,702.769 312,679.5C293.765,646.566 283.932,611.232 282.5,573.5C285.122,531.816 295.955,492.483 315,455.5C329.53,432.466 349.363,415.799 374.5,405.5C373.247,394.476 371.747,383.476 370,372.5C365.109,325.883 345.276,287.05 310.5,256C289.485,238.662 265.485,227.495 238.5,222.5ZM758.5,248.5C734.232,255.823 709.899,263.323 685.5,271C683.527,271.495 681.527,271.662 679.5,271.5C676.946,279.945 673.28,287.945 668.5,295.5C689.849,304.34 710.849,314.007 731.5,324.5C732.086,324.291 732.586,323.957 733,323.5C741.724,298.152 750.224,273.152 758.5,248.5ZM623.5,395.5C644.929,394.939 664.596,400.439 682.5,412C689.266,416.75 693.599,423.083 695.5,431C693.703,439.902 688.37,443.235 679.5,441L666.5,428C652.058,420.482 636.724,417.482 620.5,419C615.601,420.449 610.935,422.449 606.5,425L593.5,438C584.631,439.298 580.298,435.465 580.5,426.5C580.244,422.877 581.077,419.544 583,416.5C594.149,404.843 607.649,397.843 623.5,395.5Z"/>
    </g>
</svg>
