<?xml version="1.0" encoding="UTF-8" standalone="no"?>
<!DOCTYPE svg PUBLIC "-//W3C//DTD SVG 1.1//EN" "http://www.w3.org/Graphics/SVG/1.1/DTD/svg11.dtd">
<svg width="100%" height="100%" viewBox="0 0 1024 1024" version="1.1" xmlns="http://www.w3.org/2000/svg" xmlns:xlink="http://www.w3.org/1999/xlink" xml:space="preserve" xmlns:serif="http://www.serif.com/" style="fill-rule:evenodd;clip-rule:evenodd;stroke-linejoin:round;stroke-miterlimit:2;">
    <g transform="matrix(1.32974,0,0,1.32974,-156.138,-174.146)">
        <path d="M703.5,784.5C702.234,785.09 700.901,785.59 699.5,786C578.163,786.786 456.829,786.62 335.5,785.5C326.615,783.835 317.615,782.002 308.5,780C279.738,769.216 254.571,753.049 233,731.5C197.376,693.594 170.376,650.261 152,601.5C140.127,567.231 137.461,532.231 144,496.5C147.468,482.73 151.468,469.063 156,455.5C166.501,422.811 161.501,392.811 141,365.5L120,344.5C115.43,336.412 116.93,329.912 124.5,325C192.885,315.1 255.552,329.433 312.5,368C344.89,391.077 367.39,421.577 380,459.5C385.133,479.223 386.966,499.223 385.5,519.5C384.044,527.361 382.544,535.361 381,543.5C371.388,569.058 362.055,594.725 353,620.5C350.416,630.006 348.916,639.673 348.5,649.5C346.682,672.546 353.349,692.713 368.5,710C373.243,714.26 378.576,717.427 384.5,719.5C385.086,699.651 388.586,680.317 395,661.5C415.344,609.178 448.844,567.678 495.5,537C510.167,528 524.833,519 539.5,510C552.15,500.522 562.816,489.355 571.5,476.5C559.637,473.87 547.637,471.87 535.5,470.5C531.141,471.543 526.808,471.543 522.5,470.5C518.835,466.939 517.668,462.606 519,457.5C524.727,443.82 529.56,429.82 533.5,415.5C504.938,382.7 489.104,344.367 486,300.5C485.333,289.833 485.333,279.167 486,268.5C486.065,259.877 489.232,252.71 495.5,247C500.718,245.437 506.051,245.104 511.5,246C554.943,260.065 596.61,277.898 636.5,299.5C649.797,297.437 663.13,296.937 676.5,298C702.697,281.402 730.364,267.735 759.5,257C771.042,252.866 782.709,249.199 794.5,246C809.735,245.565 817.568,253.065 818,268.5C820.354,322.096 806.688,371.096 777,415.5C775.427,426.441 775.094,437.441 776,448.5C780.264,456.028 785.264,463.028 791,469.5C798.038,476.207 805.372,482.54 813,488.5C813.433,495.871 811.433,502.538 807,508.5C806.667,513.167 806.333,517.833 806,522.5C805.167,527.333 802.333,530.167 797.5,531C756.167,531.667 714.833,531.667 673.5,531C668.105,530.021 662.772,528.855 657.5,527.5C659.479,555.977 672.145,578.144 695.5,594C700.746,599.634 700.746,605.301 695.5,611C688.95,613.81 683.283,612.644 678.5,607.5C678.934,613.49 678.434,619.49 677,625.5C672.583,631.183 667.583,631.849 662,627.5C662.368,646.216 663.701,664.883 666,683.5C670.226,710.522 674.559,737.522 679,764.5C686.421,765.316 693.921,765.816 701.5,766C707.38,771.545 708.047,777.712 703.5,784.5ZM791.5,269.5C760.732,279.545 731.065,292.378 702.5,308C736.191,323.146 759.024,348.313 771,383.5C775.519,374.286 779.853,364.953 784,355.5C792.932,327.573 797.432,298.906 797.5,269.5L791.5,269.5ZM590.5,486.5C577.321,505.512 561.321,521.679 542.5,535C527.334,543.748 512.334,552.748 497.5,562C480.414,574.75 464.914,589.25 451,605.5C413.425,652.415 398.925,705.748 407.5,765.5C419.838,765.667 432.171,765.5 444.5,765C451.152,764.561 457.486,762.894 463.5,760C479.949,748.953 489.116,733.453 491,713.5C494.732,697.456 492.398,682.456 484,668.5C476.367,657.956 466.2,654.122 453.5,657C444.334,661.418 436.001,667.085 428.5,674C426.655,675.128 424.655,675.628 422.5,675.5C422.344,671.418 422.844,667.418 424,663.5C436.662,633.456 457.496,625.956 486.5,641C500.922,650.772 509.756,664.272 513,681.5C517.726,712.774 510.226,740.608 490.5,765C518.831,765.5 547.165,765.667 575.5,765.5C569.268,730.306 562.102,695.306 554,660.5C551.445,644.274 552.445,628.274 557,612.5C557.785,610.714 558.951,609.214 560.5,608C566.287,605.418 571.454,606.251 576,610.5C574.675,624.118 574.009,637.785 574,651.5C579.532,678.626 585.532,705.626 592,732.5C593.937,743.454 595.437,754.454 596.5,765.5L629.5,765.5C618.92,721.029 609.087,676.362 600,631.5C599.121,626.713 599.455,622.047 601,617.5C602.41,616.213 603.91,615.046 605.5,614C612.617,612.142 617.451,614.642 620,621.5C629.932,669.765 640.932,717.765 653,765.5C654.011,766.337 655.178,766.67 656.5,766.5C653.533,743.362 649.699,720.362 645,697.5C642.192,667.49 639.358,637.49 636.5,607.5C637.989,600.414 642.323,597.914 649.5,600C653.506,603.005 657.84,605.505 662.5,607.5L663.5,606.5C660.394,602.061 659.728,597.228 661.5,592C657.414,588.328 653.914,584.162 651,579.5C640.398,560.248 635.232,539.581 635.5,517.5C623.691,508.859 612.025,500.025 600.5,491C597.222,489.191 593.889,487.691 590.5,486.5ZM385.5,761.5C384.104,755.939 383.438,750.273 383.5,744.5C379.895,744.201 376.561,743.035 373.5,741C338.249,717.319 322.749,684.153 327,641.5C332.496,613.502 341.163,586.502 353,560.5C376.36,495.956 362.86,440.456 312.5,394C264.688,358.014 210.688,341.848 150.5,345.5C177.512,373.194 187.679,406.194 181,444.5C175.976,463.263 170.643,481.929 165,500.5C160.066,525.625 160.733,550.625 167,575.5C179.684,619.203 200.017,658.87 228,694.5C244.033,715.201 263.199,732.368 285.5,746C306.936,757.943 329.936,764.109 354.5,764.5L385.5,764.5L385.5,761.5ZM636.5,399.5C621.271,401.442 607.604,407.276 595.5,417C584.278,427.64 574.611,439.473 566.5,452.5C577.912,455.582 588.912,459.748 599.5,465C613.167,474.667 626.833,484.333 640.5,494C652.215,502.354 665.215,507.687 679.5,510C714.738,510.17 749.905,510.67 785,511.5C785.492,506.121 785.825,500.787 786,495.5C769.847,478.462 754.18,461.129 739,443.5C731.137,435.302 722.97,427.469 714.5,420C691.271,403.191 665.271,396.358 636.5,399.5ZM668.5,418.5C680.896,417.614 690.063,422.614 696,433.5C697.833,454.333 688.333,463.833 667.5,462C655.283,457.407 649.783,448.573 651,435.5C654.109,426.889 659.943,421.222 668.5,418.5ZM507.5,268.5C508.134,283.836 508.967,299.17 510,314.5C513.517,348.194 527.183,376.86 551,400.5C554.414,407.775 555.414,415.441 554,423.5C552.469,427.586 551.636,431.586 551.5,435.5C563.31,416.523 578.644,401.023 597.5,389C659.929,363.877 711.929,377.377 753.5,429.5C754.873,425.284 755.54,420.95 755.5,416.5C751.416,373.129 729.416,342.962 689.5,326C657.488,314.002 629.154,319.669 604.5,343C592.402,357.016 583.235,372.849 577,390.5C572.773,396.288 567.273,397.954 560.5,395.5C559.063,393.979 558.396,392.145 558.5,390C560.124,376.336 564.291,363.503 571,351.5C581.253,335.413 594.087,321.747 609.5,310.5C576.982,293.208 542.982,279.208 507.5,268.5ZM849.5,522.5C813.898,559.938 778.065,597.271 742,634.5C738.619,638.375 735.453,642.375 732.5,646.5C728.702,649.796 725.036,653.296 721.5,657C713.019,659.858 708.019,656.858 706.5,648C707.372,643.422 709.205,639.255 712,635.5C752.685,593.782 792.685,551.448 832,508.5C834.397,505.6 837.23,503.267 840.5,501.5C841.874,481.948 852.208,473.114 871.5,475C886.37,481.937 890.87,493.103 885,508.5C877.203,519.654 866.87,522.988 854,518.5C852.02,519.315 850.52,520.648 849.5,522.5Z"/>
    </g>
</svg>
