<?xml version="1.0" encoding="UTF-8" standalone="no"?>
<!DOCTYPE svg PUBLIC "-//W3C//DTD SVG 1.1//EN" "http://www.w3.org/Graphics/SVG/1.1/DTD/svg11.dtd">
<svg width="100%" height="100%" viewBox="0 0 1024 1024" version="1.1" xmlns="http://www.w3.org/2000/svg" xmlns:xlink="http://www.w3.org/1999/xlink" xml:space="preserve" xmlns:serif="http://www.serif.com/" style="fill-rule:evenodd;clip-rule:evenodd;stroke-linejoin:round;stroke-miterlimit:2;">
    <g transform="matrix(1.61678,0,0,1.61678,-306.294,-340.393)">
        <path d="M421.5,714.5C395.622,738.302 364.955,750.468 329.5,751C306.221,745.553 291.221,731.386 284.5,708.5C276.396,702.211 272.73,693.877 273.5,683.5C274.438,671.52 278.271,660.52 285,650.5C290.818,642.684 297.318,635.517 304.5,629C305.448,628.517 306.448,628.351 307.5,628.5C307.087,623.182 305.587,618.182 303,613.5C302.502,610.518 302.335,607.518 302.5,604.5C287.954,602.93 274.621,598.097 262.5,590C237.128,595.545 216.628,588.045 201,567.5C192.816,554.783 191.316,541.283 196.5,527C191.403,511.25 189.07,495.083 189.5,478.5C189.019,457.7 191.852,437.367 198,417.5C211.903,375.606 235.403,340.106 268.5,311C275.362,305.972 282.362,301.138 289.5,296.5C287.369,270.687 296.036,249.52 315.5,233C336.794,219.785 358.461,219.118 380.5,231C388.809,236.973 395.309,244.473 400,253.5C400.953,256.432 401.453,259.432 401.5,262.5C408.477,263.457 415.477,263.623 422.5,263C437.082,249.345 454.415,244.012 474.5,247C505.131,252.767 523.465,270.934 529.5,301.5C594.506,306.879 652.839,329.046 704.5,368C732.486,391.473 755.486,418.973 773.5,450.5C802.186,499.553 818.353,552.553 822,609.5C826.122,673.888 814.455,735.222 787,793.5C781.372,805.601 772.872,815.101 761.5,822C757.306,823.963 752.972,825.463 748.5,826.5C745.797,827.963 742.797,828.796 739.5,829C732.856,829.887 726.189,830.554 719.5,831C601.167,831.5 482.834,831.667 364.5,831.5C359.167,832.695 355.167,831.028 352.5,826.5C351.732,825.737 351.232,824.737 351,823.5C350.333,819.833 350.333,816.167 351,812.5C358.114,789.72 373.28,775.553 396.5,770C407.182,769.832 417.849,769.332 428.5,768.5C432.314,765.563 436.647,764.229 441.5,764.5C449.486,764.775 457.153,766.441 464.5,769.5C465.107,769.376 465.44,769.043 465.5,768.5C448.407,751.902 434.574,732.902 424,711.5C423.623,712.942 422.79,713.942 421.5,714.5ZM526.5,324.5C520.724,346.776 506.724,360.943 484.5,367C471.63,369.134 466.797,363.967 470,351.5C491.199,348.474 504.199,336.474 509,315.5C511.35,302.203 507.85,290.87 498.5,281.5C492.092,272.792 483.425,267.959 472.5,267C455.432,264.245 440.932,269.078 429,281.5C425.333,285.833 421.667,290.167 418,294.5C414.732,299.036 412.565,304.036 411.5,309.5C410.136,314.684 408.97,320.018 408,325.5C401.293,331.495 395.626,330.828 391,323.5C389.69,308.925 393.19,295.591 401.5,283.5C352.608,283.963 309.942,300.463 273.5,333C245.444,360.919 225.944,394.085 215,432.5C207.262,458.349 206.595,484.349 213,510.5C223.099,502.478 234.599,498.978 247.5,500C271.006,501.812 286.84,513.645 295,535.5C297.82,552.431 292.653,566.264 279.5,577C284.167,579 288.833,581 293.5,583C314.711,588.622 336.045,588.955 357.5,584C363.882,580.977 370.549,579.644 377.5,580C384.425,586.492 384.092,592.492 376.5,598C358.786,602.792 340.786,605.959 322.5,607.5C323.523,611.077 325.023,614.411 327,617.5C331.74,621.785 336.573,625.952 341.5,630C343.914,631.885 346.581,632.552 349.5,632C360.964,620.863 373.297,610.863 386.5,602C385.526,592.308 389.859,587.974 399.5,589C409.256,593.095 411.089,599.595 405,608.5C388.427,624.41 371.261,639.577 353.5,654C341.893,663.569 337.893,675.736 341.5,690.5C347.267,682.938 353.434,682.605 360,689.5C360.968,695.929 359.135,701.429 354.5,706C351.354,707.521 348.354,709.188 345.5,711C346.344,716.741 348.677,721.741 352.5,726C357.472,727.817 362.472,727.817 367.5,726C377.223,722.639 386.223,717.973 394.5,712C402.489,702.677 412.155,695.677 423.5,691C440.013,688.622 455.679,683.622 470.5,676C501.971,652.919 511.805,622.752 500,585.5C499.333,583.167 499.333,580.833 500,578.5C504.304,572.977 509.471,572.144 515.5,576C519.54,581.583 522.374,587.749 524,594.5C530.234,641.477 512.401,675.977 470.5,698C461.196,701.601 451.863,705.101 442.5,708.5C446.691,714.222 450.358,720.222 453.5,726.5C463.095,737.936 472.928,749.27 483,760.5C489.157,766.316 495.657,771.816 502.5,777C506.165,776.355 509.831,775.355 513.5,774C518.572,773.85 523.572,773.683 528.5,773.5C523.82,757.827 522.32,741.827 524,725.5C530.459,695.075 545.293,669.575 568.5,649C588.729,629.64 612.896,619.473 641,618.5C686.698,619.5 717.032,641.5 732,684.5C738.293,711.901 735.293,738.235 723,763.5C722.5,779.163 722.333,794.83 722.5,810.5C726.881,810.628 731.215,810.295 735.5,809.5C745.808,808.123 754.641,803.789 762,796.5C768.64,786.888 773.973,776.555 778,765.5C810.428,678.516 810.595,591.516 778.5,504.5C736.745,400.285 660.079,340.118 548.5,324C541.758,323.615 535.091,322.782 528.5,321.5C527.824,322.602 527.158,323.602 526.5,324.5ZM493.5,811.5L702.5,811.5C702.123,792.136 702.623,772.802 704,753.5C710.836,744.328 714.503,733.994 715,722.5C719.44,689.225 707.607,663.725 679.5,646C646.202,632.336 615.535,636.669 587.5,659C565.255,676.913 550.755,699.746 544,727.5C542.559,734.11 542.226,740.776 543,747.5C544.931,757.056 547.097,766.556 549.5,776C548.16,783.354 544.16,788.688 537.5,792C520.92,788.719 507.086,793.219 496,805.5C494.878,807.407 494.045,809.407 493.5,811.5ZM475.5,802.5C476.591,798.485 478.591,794.985 481.5,792C467.101,787.821 452.434,785.821 437.5,786C436.167,786.667 434.833,787.333 433.5,788C422.833,788.333 412.167,788.667 401.5,789C387.827,791.524 378.161,799.024 372.5,811.5L472.5,811.5C472.528,808.084 473.528,805.084 475.5,802.5ZM239.5,518.5C235.496,519.68 231.496,521.18 227.5,523C212.366,531.707 209.199,543.541 218,558.5C227.272,569.814 239.106,573.98 253.5,571C272.077,564.678 278.577,552.178 273,533.5C264.593,522.631 253.426,517.631 239.5,518.5ZM306.5,712.5C309.892,717.401 313.892,721.901 318.5,726C322.848,728.854 327.514,730.52 332.5,731C328.522,725.552 326.856,719.386 327.5,712.5C320.252,712.404 313.252,712.404 306.5,712.5ZM343.5,241.5C322.507,248.66 311.674,263.327 311,285.5C333.209,273.744 356.709,266.244 381.5,263C373.568,247.858 360.901,240.691 343.5,241.5ZM320.5,640.5C311.045,648.795 303.212,658.461 297,669.5C294.331,677.184 295.164,684.351 299.5,691C306.826,691.5 314.159,691.666 321.5,691.5C320.115,676.869 323.781,663.703 332.5,652C328.584,647.914 324.584,644.081 320.5,640.5ZM331.5,395.5C338.463,395.211 344.797,397.044 350.5,401C356.333,405.5 361.5,410.667 366,416.5C374.174,431.02 371.341,443.187 357.5,453C345.62,460.579 333.954,460.246 322.5,452C316.264,447.599 311.264,442.099 307.5,435.5C305.208,434.417 302.875,434.417 300.5,435.5C298.971,435.471 297.804,434.804 297,433.5C295.532,427.103 296.865,421.436 301,416.5C311.702,410.083 321.868,403.083 331.5,395.5ZM337.5,416.5C334.829,418.934 331.996,421.267 329,423.5C325.665,428.06 326.498,431.893 331.5,435C337.861,438.813 343.694,438.313 349,433.5C351.067,423.593 347.233,417.926 337.5,416.5ZM479.5,436.5C475.644,469.735 464.644,500.402 446.5,528.5C442.298,533.021 437.964,537.521 433.5,542C421.014,544.515 416.514,539.682 420,527.5C439.432,506.632 451.432,481.966 456,453.5C458.328,440.867 459.994,428.2 461,415.5C466.798,410.194 472.631,410.194 478.5,415.5C479.464,422.442 479.797,429.442 479.5,436.5Z"/>
    </g>
</svg>
