<?xml version="1.0" encoding="UTF-8" standalone="no"?>
<!DOCTYPE svg PUBLIC "-//W3C//DTD SVG 1.1//EN" "http://www.w3.org/Graphics/SVG/1.1/DTD/svg11.dtd">
<svg width="100%" height="100%" viewBox="0 0 1024 1024" version="1.1" xmlns="http://www.w3.org/2000/svg" xmlns:xlink="http://www.w3.org/1999/xlink" xml:space="preserve" xmlns:serif="http://www.serif.com/" style="fill-rule:evenodd;clip-rule:evenodd;stroke-linejoin:round;stroke-miterlimit:2;">
    <g transform="matrix(1.56749,0,0,1.56749,-303.393,-285.67)">
        <path d="M205.5,723.5C204.302,691.823 204.302,660.157 205.5,628.5C205.875,614.97 206.875,601.637 208.5,588.5C215.532,501.184 244.366,422.184 295,351.5C311.771,329.73 330.271,309.563 350.5,291C353.736,288.132 357.236,285.632 361,283.5C356.909,267.156 355.576,250.49 357,233.5C362.317,206.184 378.484,189.351 405.5,183C421.045,180.994 436.045,182.994 450.5,189C464.469,195.323 478.803,200.656 493.5,205C537.023,200.673 578.023,208.673 616.5,229C633.33,240.249 650.33,251.249 667.5,262C692.588,277.81 719.588,289.143 748.5,296C762.805,297.156 777.138,297.823 791.5,298C808.301,299.474 821.468,306.974 831,320.5C834.957,326.95 836.457,333.95 835.5,341.5C834.28,349.105 830.613,355.271 824.5,360C818.248,362.862 811.915,365.528 805.5,368L787.5,386C782.503,388.699 777.17,390.199 771.5,390.5L622.5,390.5C621.127,390.343 619.793,390.51 618.5,391C620.765,392.758 622.432,394.925 623.5,397.5C633.77,407.772 642.104,419.439 648.5,432.5C650.664,437.5 653.331,442.167 656.5,446.5C662.11,432.166 671.11,429.666 683.5,439C691.45,437.662 699.117,438.662 706.5,442C709.466,444.265 710.799,447.265 710.5,451C709.85,458.762 708.183,466.262 705.5,473.5C704.345,476.328 703.011,478.995 701.5,481.5C695.459,494.376 686.126,504.209 673.5,511C669.312,512.631 664.979,513.464 660.5,513.5C651.585,512.939 642.918,511.105 634.5,508C616.109,498.919 598.775,488.253 582.5,476C565.167,462.667 547.833,449.333 530.5,436C526.438,432.971 522.105,430.471 517.5,428.5C504.567,420.967 490.567,418.467 475.5,421C448.757,427.577 428.424,442.744 414.5,466.5C398.392,490.653 393.892,516.986 401,545.5C403.12,555.769 406.12,565.769 410,575.5C414.048,614.758 430.214,647.925 458.5,675C463.705,679.103 469.372,682.437 475.5,685C481.5,685.667 487.5,685.667 493.5,685C515.284,676.443 537.284,668.443 559.5,661C637.544,640.007 707.878,654.673 770.5,705C803.099,734.36 822.433,770.86 828.5,814.5C829.474,820.472 829.641,826.472 829,832.5C828.722,833.416 828.222,834.082 827.5,834.5L825.5,834.5C622.334,835.666 419,835.833 215.5,835C212.855,833.713 211.855,831.547 212.5,828.5C212.483,828.365 212.469,828.23 212.458,828.095C210.387,808.077 208.735,787.878 207.5,767.5C206.661,752.848 205.994,738.182 205.5,723.5ZM603.5,408.5C596.532,402.341 589.532,396.174 582.5,390C572.873,390.557 563.207,390.557 553.5,390C545.848,388.355 541.848,383.689 541.5,376C541.093,371.516 542.759,368.183 546.5,366C622.502,365.833 698.502,365.333 774.5,364.5C783.143,350.865 795.476,342.865 811.5,340.5C811.274,336.708 810.44,333.041 809,329.5C804.33,325.25 798.83,322.75 792.5,322C787.115,321.786 781.781,321.286 776.5,320.5C777.585,330.859 774.251,339.692 766.5,347C759.402,350.276 752.069,352.942 744.5,355C740.726,356.183 737.559,355.349 735,352.5C734.39,348.764 734.723,345.097 736,341.5C739.645,340.907 742.979,339.574 746,337.5C748.918,332.154 750.751,326.487 751.5,320.5C728.048,316.886 705.715,309.719 684.5,299C657.864,284.016 631.864,268.016 606.5,251C584.431,238.897 560.764,232.231 535.5,231C517.391,230.993 499.391,229.659 481.5,227C465.49,219.828 449.157,213.495 432.5,208C410.735,201.303 394.902,208.136 385,228.5C381.13,241.642 380.463,254.975 383,268.5C387.818,284.954 393.818,300.954 401,316.5C401.671,320.636 401.171,324.636 399.5,328.5C395.065,333.118 390.399,333.451 385.5,329.5C380.069,321.642 375.402,313.309 371.5,304.5C360.151,315.015 349.318,326.015 339,337.5C299.928,380.633 271.428,429.966 253.5,485.5C231.853,562.017 223.687,640.017 229,719.5C231.056,749.842 233.223,780.176 235.5,810.5C272.848,811.16 309.848,810.494 346.5,808.5C337.276,774.894 328.109,741.228 319,707.5C315.205,690.191 311.538,672.858 308,655.5C305.098,641.291 303.765,626.958 304,612.5C306.276,609.112 309.442,607.446 313.5,607.5C318.437,607.184 321.937,609.184 324,613.5C335.787,680.647 351.954,746.647 372.5,811.5L585.5,811.5C586.708,810.766 588.041,810.433 589.5,810.5C589.737,807.353 590.57,804.353 592,801.5C596.102,792.071 601.769,783.738 609,776.5C628.798,754.521 653.298,746.021 682.5,751C713.002,757.337 732.335,775.503 740.5,805.5C741.931,806.78 742.598,808.447 742.5,810.5L801.5,810.5L801.5,807.5C800.961,799.341 799.461,791.341 797,783.5C782.8,748.963 759.633,722.13 727.5,703C673.093,674.293 616.426,668.96 557.5,687C539.357,693.27 521.357,699.937 503.5,707C493.662,709.752 483.662,710.752 473.5,710C463.031,707.099 453.698,702.099 445.5,695C412.354,663.878 392.521,625.712 386,580.5C361.037,514.989 375.204,459.823 428.5,415C441.405,405.695 455.738,399.695 471.5,397C492.442,394.322 512.109,397.989 530.5,408C555.521,425.511 580.188,443.511 604.5,462C612.526,467.679 620.859,472.845 629.5,477.5C634.718,480.026 639.885,482.693 645,485.5C644.449,478.999 642.949,472.665 640.5,466.5C639.596,465.791 639.263,464.791 639.5,463.5C635.573,454.313 631.073,445.313 626,436.5C619.212,426.588 611.712,417.255 603.5,408.5ZM663.5,463.5C663.557,464.609 663.89,465.609 664.5,466.5C665.341,473.214 666.508,479.881 668,486.5C673.78,479.937 678.28,472.603 681.5,464.5C677.34,464.029 673.507,462.696 670,460.5C668.491,462.919 666.325,463.919 663.5,463.5ZM716.5,811.5C709.397,786.686 692.897,773.686 667,772.5C643.015,775.581 625.848,788.081 615.5,810C619.17,810.548 622.837,811.048 626.5,811.5L716.5,811.5ZM342.5,353.5C353.685,352.858 358.519,358.191 357,369.5C342.423,388.978 329.09,409.311 317,430.5C313.333,438.833 309.667,447.167 306,455.5C300.516,462.421 294.516,463.088 288,457.5C286,451.5 286,445.5 288,439.5C299.91,406.638 318.076,377.971 342.5,353.5ZM599.5,696.5C633.449,693.991 666.116,699.158 697.5,712C705.44,717.159 707.274,723.993 703,732.5C699.415,736.439 695.249,737.273 690.5,735C659.888,721.339 627.888,716.672 594.5,721C566.267,725.809 539.267,734.475 513.5,747C507.363,748.601 501.363,750.601 495.5,753C477.409,757.28 459.075,758.613 440.5,757C435.763,756.052 432.929,753.219 432,748.5C429.933,742.013 431.766,737.18 437.5,734C451.54,733.888 465.54,733.221 479.5,732C495.351,727.717 510.684,722.05 525.5,715C549.368,705.033 574.035,698.866 599.5,696.5ZM669.5,317.5C682.907,317.056 696.24,317.556 709.5,319C711.049,320.214 712.215,321.714 713,323.5C713.667,327.167 713.667,330.833 713,334.5C711.52,337.663 709.02,339.496 705.5,340C693.118,340.894 680.785,340.561 668.5,339C661.527,331.265 661.861,324.098 669.5,317.5ZM737.5,731.5C744.992,731.163 750.825,734.163 755,740.5C763.07,750.306 770.404,760.64 777,771.5C780.4,778.201 782.9,785.201 784.5,792.5C784.545,797.965 782.212,802.131 777.5,805C773.018,806.011 769.184,804.844 766,801.5C761.952,793.072 757.619,784.739 753,776.5C744.95,766.785 737.284,756.785 730,746.5C727.793,738.912 730.293,733.912 737.5,731.5ZM400.5,262.5C397.173,237.997 407.84,227.831 432.5,232C458.223,237.797 483.223,245.797 507.5,256C512.314,261.688 512.814,267.855 509,274.5C504.909,278.305 500.076,279.472 494.5,278C491.5,275.667 488.5,273.333 485.5,271C467.55,264.853 449.55,259.353 431.5,254.5L422.5,254.5C425.773,272.817 431.94,290.151 441,306.5C445.281,313.115 449.947,319.448 455,325.5C460.667,330.167 466.333,334.833 472,339.5C473.755,352.752 468.255,357.918 455.5,355C449.173,351.577 443.673,347.077 439,341.5C436.37,337.868 433.37,334.535 430,331.5C427.822,327.806 425.655,324.139 423.5,320.5C419.811,316.461 417.145,311.794 415.5,306.5C408.125,292.71 403.125,278.044 400.5,262.5ZM557.5,269.5C573.866,267.793 588.033,272.46 600,283.5C607.64,300.905 602.806,313.738 585.5,322C563.376,327.192 548.876,319.025 542,297.5C541.172,284.82 546.339,275.486 557.5,269.5ZM566.5,289.5C563.417,294.507 564.084,299.007 568.5,303C574.143,303.691 576.976,301.191 577,295.5C573.971,292.572 570.471,290.572 566.5,289.5ZM395.5,388.5C368.058,412.703 348.058,442.037 335.5,476.5C323.505,507.303 316.671,539.303 315,572.5C310.611,578.288 305.111,579.788 298.5,577C296.106,575.048 294.606,572.548 294,569.5C293.816,491.343 321.649,425.176 377.5,371C385.222,364.945 393.222,359.278 401.5,354C414.015,353.513 418.849,359.346 416,371.5C409.56,377.785 402.727,383.452 395.5,388.5Z"/>
    </g>
</svg>
