<?xml version="1.0" encoding="UTF-8" standalone="no"?>
<!DOCTYPE svg PUBLIC "-//W3C//DTD SVG 1.1//EN" "http://www.w3.org/Graphics/SVG/1.1/DTD/svg11.dtd">
<svg width="100%" height="100%" viewBox="0 0 1024 1024" version="1.1" xmlns="http://www.w3.org/2000/svg" xmlns:xlink="http://www.w3.org/1999/xlink" xml:space="preserve" xmlns:serif="http://www.serif.com/" style="fill-rule:evenodd;clip-rule:evenodd;stroke-linejoin:round;stroke-miterlimit:2;">
    <g transform="matrix(1.40648,0,0,1.40648,-207.923,-216.417)">
        <path d="M571.5,831.5C507.012,851.531 449.345,839.364 398.5,795C324.206,727.479 293.373,643.646 306,543.5C307.055,536.277 308.889,529.277 311.5,522.5C285.334,514.709 259.667,505.543 234.5,495C213.16,482.994 195.66,466.827 182,446.5C175.57,434.1 174.904,421.433 180,408.5C183.1,403.2 187.6,399.7 193.5,398C202.296,397.254 210.963,397.587 219.5,399C202.049,381.613 189.549,361.113 182,337.5C178.473,324.34 175.807,311.007 174,297.5C173.082,272.321 170.582,247.321 166.5,222.5C157.199,223.749 151.032,219.749 148,210.5C146.737,197.443 152.571,192.609 165.5,196C191.184,203.753 209.351,219.92 220,244.5C224.198,261.625 228.865,278.625 234,295.5C254.811,350.348 294.645,374.182 353.5,367C357.552,367.627 361.218,369.127 364.5,371.5C379.595,342.262 402.595,321.762 433.5,310C443.261,306.814 453.261,304.981 463.5,304.5C463.973,304.446 464.442,304.43 464.906,304.453C498.94,303.332 533.137,303.18 567.5,304C615.054,307.103 651.054,328.937 675.5,369.5C677.385,368.391 679.385,367.557 681.5,367C703.4,368.308 724.4,364.808 744.5,356.5C760.193,347.306 772.359,334.639 781,318.5C785.984,308.548 789.984,298.215 793,287.5C795.485,274.414 798.485,261.414 802,248.5C810.223,225.273 825.723,208.773 848.5,199C854.861,195.907 861.527,194.907 868.5,196C875.132,199.097 877.299,204.264 875,211.5C871.895,219.312 866.062,222.978 857.5,222.5C854.773,247.436 852.773,272.436 851.5,297.5C848.645,313.92 844.811,330.253 840,346.5C833.957,361.595 826.124,375.595 816.5,388.5C813.167,392.5 809.5,396.167 805.5,399.5C805.56,400.043 805.893,400.376 806.5,400.5C819.739,394.731 832.739,395.231 845.5,402C854.787,409.766 857.953,419.599 855,431.5C847.726,449.453 836.56,464.62 821.5,477C806.441,488.812 789.774,497.812 771.5,504C755.103,509.348 738.769,514.848 722.5,520.5C726.603,535.888 728.936,551.554 729.5,567.5C731.688,602.727 727.688,637.394 717.5,671.5C704.376,711.922 683.376,747.589 654.5,778.5C631.249,802.966 603.582,820.633 571.5,831.5ZM466.5,328.5C442.184,330.662 421.517,340.328 404.5,357.5C399.489,362.349 394.989,367.683 391,373.5C380.959,389.917 372.792,407.25 366.5,425.5C363.97,433.092 361.637,440.758 359.5,448.5C401.076,441.531 438.076,451.365 470.5,478C488.82,493.151 504.486,510.651 517.5,530.5C532.453,507.041 551.119,486.875 573.5,470C604.954,447.609 639.621,440.776 677.5,449.5C673.645,427.065 666.478,405.732 656,385.5C646.606,368.111 633.772,353.944 617.5,343C600.386,335.042 582.386,330.375 563.5,329C531.168,328.5 498.835,328.333 466.5,328.5ZM510.5,560.5C508.265,559.772 506.432,558.439 505,556.5C488.424,529.918 467.591,507.085 442.5,488C413.832,471.098 383.665,467.932 352,478.5C344.988,478.337 340.321,475.003 338,468.5C336.711,462.912 336.211,457.245 336.5,451.5C303.101,445.787 269.767,439.62 236.5,433C226.22,430.879 216.22,427.879 206.5,424C203.874,423.005 201.207,422.672 198.5,423C207.593,442.762 221.593,458.095 240.5,469C271.528,485.676 304.528,496.343 339.5,501C344.752,502.994 347.418,506.828 347.5,512.5C347.679,519.149 345.012,524.149 339.5,527.5C338.914,527.291 338.414,526.957 338,526.5C329.235,548.332 325.902,570.999 328,594.5C329.337,641.884 343.003,685.218 369,724.5C388.209,752.043 411.709,775.209 439.5,794C484.558,818.582 530.891,821.082 578.5,801.5C586.856,797.967 594.856,793.8 602.5,789C662.072,745.722 695.739,687.222 703.5,613.5C706.524,591.088 706.024,568.754 702,546.5C699.675,539.527 697.508,532.527 695.5,525.5C693.354,525.878 691.187,526.212 689,526.5C687.342,526.325 686.009,525.658 685,524.5C683.483,518.92 683.149,513.253 684,507.5C685.167,503.667 687.667,501.167 691.5,500C707.645,498.381 723.311,494.714 738.5,489C763.001,482.081 785.668,471.414 806.5,457C817.037,447.974 825.037,437.141 830.5,424.5C829.833,424.167 829.167,423.833 828.5,423.5C813.846,426.997 799.179,430.497 784.5,434C755.623,438.887 726.957,444.72 698.5,451.5C701.243,462.391 698.243,471.224 689.5,478C685.167,478.667 680.833,478.667 676.5,478C656.3,471.901 635.966,471.234 615.5,476C595.164,484.428 577.664,496.928 563,513.5C550.318,528.37 538.485,543.87 527.5,560C521.834,562.924 516.167,563.09 510.5,560.5ZM714.5,390.5C705.015,392.011 695.515,392.344 686,391.5C691.002,402.157 694.169,413.491 695.5,425.5C736.929,421.651 770.929,403.984 797.5,372.5C814.449,349.779 823.949,324.112 826,295.5C826.592,279.309 828.259,263.309 831,247.5C828.134,252.569 825.801,257.902 824,263.5C820.444,280.724 816.111,297.724 811,314.5C800.543,339.943 784.043,360.443 761.5,376C746.904,384.366 731.238,389.199 714.5,390.5ZM438.5,571.5C447.806,569.473 453.473,572.973 455.5,582C454.882,586.64 453.715,591.14 452,595.5C446.555,605.009 442.389,615.009 439.5,625.5C492.504,625.833 545.504,625.5 598.5,624.5C595.417,613.083 591.25,602.083 586,591.5C581.195,578.232 585.695,572.065 599.5,573C604.667,574.833 608.167,578.333 610,583.5C616.444,602.276 622.11,621.276 627,640.5C630.696,643.536 633.696,647.203 636,651.5C637.571,673.358 634.905,694.692 628,715.5C623.362,726.959 616.195,736.459 606.5,744C577.221,764.493 544.554,773.826 508.5,772C471.167,769.749 440.333,754.583 416,726.5C407.832,714.851 403.499,701.851 403,687.5C401.703,676.182 401.036,664.848 401,653.5C409.968,627.996 420.301,602.996 432,578.5C433.694,575.642 435.861,573.309 438.5,571.5ZM426.5,651.5C426.097,665.252 426.93,678.918 429,692.5C431.981,707.651 439.815,719.485 452.5,728C497.636,752.702 542.636,752.369 587.5,727C598.732,719.37 605.566,708.87 608,695.5C609.351,680.87 609.851,666.203 609.5,651.5L426.5,651.5ZM567.5,664.5C573.509,664.334 579.509,664.501 585.5,665C592.585,667.336 595.418,672.169 594,679.5C591.462,687.386 586.129,691.386 578,691.5C573.173,690.74 568.34,690.574 563.5,691C571.324,694.161 573.491,699.661 570,707.5C566.212,712.153 561.378,713.653 555.5,712C544.314,704.784 538.481,694.617 538,681.5C540.924,674.242 546.091,669.408 553.5,667C558.336,666.32 563.003,665.486 567.5,664.5ZM449.5,664.5C458.506,664.334 467.506,664.5 476.5,665C486.648,666.14 494.814,670.64 501,678.5C503.902,686.926 502.569,694.592 497,701.5C492.213,708.054 485.88,712.054 478,713.5C470.915,710.995 467.581,705.995 468,698.5C469.88,694.529 473.047,692.363 477.5,692C469.665,690.698 461.665,690.032 453.5,690C447.716,686.771 445.05,681.771 445.5,675C445.062,670.727 446.395,667.227 449.5,664.5ZM402.5,540.5C419.705,541.23 425.872,549.897 421,566.5C414.703,575.709 406.536,577.876 396.5,573C388.339,565.211 386.839,556.378 392,546.5C394.975,543.311 398.475,541.311 402.5,540.5ZM625.5,540.5C644.267,541.765 650.1,551.098 643,568.5C636.791,575.433 629.291,577.267 620.5,574C610.92,566.789 609.087,557.956 615,547.5C617.998,544.262 621.498,541.929 625.5,540.5ZM194.5,248.5C196.422,267.479 198.256,286.479 200,305.5C208.393,362.549 239.893,400.049 294.5,418C310.158,421.042 325.825,423.875 341.5,426.5C344.347,414.958 348.014,403.624 352.5,392.5L351.5,391.5C315.795,395.867 283.128,388.033 253.5,368C245.318,359.785 237.484,351.285 230,342.5C223.828,332.982 218.495,322.982 214,312.5C207.167,291.141 200.667,269.807 194.5,248.5Z"/>
    </g>
</svg>
