<?xml version="1.0" encoding="UTF-8" standalone="no"?>
<!DOCTYPE svg PUBLIC "-//W3C//DTD SVG 1.1//EN" "http://www.w3.org/Graphics/SVG/1.1/DTD/svg11.dtd">
<svg width="100%" height="100%" viewBox="0 0 1024 1024" version="1.1" xmlns="http://www.w3.org/2000/svg" xmlns:xlink="http://www.w3.org/1999/xlink" xml:space="preserve" xmlns:serif="http://www.serif.com/" style="fill-rule:evenodd;clip-rule:evenodd;stroke-linejoin:round;stroke-miterlimit:2;">
    <g transform="matrix(1.7669,0,0,1.7669,-469.958,-425.917)">
        <path d="M573.5,605.5C572.37,616.32 571.203,626.987 570,637.5C575.578,642.407 580.411,647.907 584.5,654C587.119,654.151 589.453,654.985 591.5,656.5C604.833,676.496 617.667,696.829 630,717.5C630.67,725.161 627.17,728.327 619.5,727C606.707,707.92 594.541,688.42 583,668.5C576.793,662.625 570.293,657.125 563.5,652C558.437,647.483 556.104,641.816 556.5,635C558.682,618.727 560.016,602.394 560.5,586C560.287,572.804 559.621,559.637 558.5,546.5C554.426,546.701 550.426,547.368 546.5,548.5C540.119,566.017 536.285,584.017 535,602.5C541.33,612.161 546.33,622.494 550,633.5C552.257,642.089 552.757,650.756 551.5,659.5C547.603,661.27 545.103,664.27 544,668.5C541.665,687.184 539.332,705.85 537,724.5C533.294,729.268 529.294,729.601 525,725.5C525.336,704.454 526.67,683.454 529,662.5C532.65,658.266 536.15,653.933 539.5,649.5C537.001,640.172 533.667,631.172 529.5,622.5C524.655,615.31 521.322,607.477 519.5,599C522.615,580.87 527.282,563.203 533.5,546C532.902,544.699 531.902,543.865 530.5,543.5C525.24,560.115 520.073,576.781 515,593.5C506.251,620.711 490.751,643.045 468.5,660.5C448.712,676.729 426.379,688.229 401.5,695C385.772,698.422 372.606,694.255 362,682.5C359.545,678.469 357.879,674.136 357,669.5C352.933,633.037 363.266,601.37 388,574.5C389.333,571.833 390.667,569.167 392,566.5C400.271,556.895 409.771,548.729 420.5,542C424.288,537.594 427.455,532.761 430,527.5C446.428,512.868 465.595,504.702 487.5,503C421.775,480.315 356.441,456.648 291.5,432C281.091,429.232 273.591,423.065 269,413.5C267.61,392.934 277.11,384.434 297.5,388C334.186,400.347 370.853,412.68 407.5,425C414.466,427.159 421.466,428.826 428.5,430C415.432,424.634 403.099,417.967 391.5,410C379.041,403.937 366.708,397.604 354.5,391C327.225,372.723 300.225,354.057 273.5,335C261.283,317.965 263.95,303.631 281.5,292C292.472,287.272 303.805,286.272 315.5,289C323.276,291.203 330.943,293.703 338.5,296.5C339.795,298.328 340.795,300.328 341.5,302.5C368.04,327.538 395.373,351.705 423.5,375C444.197,395.365 465.197,415.365 486.5,435C496.984,446.318 507.651,457.485 518.5,468.5C520.397,466.524 522.397,464.69 524.5,463C520.667,458.5 516.833,454 513,449.5C485.477,420.644 457.477,392.644 429,365.5C414.7,349.532 400.033,333.865 385,318.5C379.78,313.749 379.28,308.582 383.5,303C386.167,302.333 388.833,302.333 391.5,303C419.611,335.279 449.278,366.112 480.5,395.5C499.861,415.86 519.194,436.193 538.5,456.5C550.676,453.153 562.343,454.486 573.5,460.5C584.754,446.37 599.087,442.37 616.5,448.5C623.599,438.624 630.933,428.957 638.5,419.5C646.541,409.953 655.207,400.786 664.5,392C681.755,377.205 701.422,366.871 723.5,361C727.625,360.146 731.625,360.48 735.5,362C739.53,365.957 739.197,369.623 734.5,373C711.42,378.02 691.087,388.354 673.5,404C665.576,411.755 657.91,419.589 650.5,427.5C643.933,435.624 637.6,443.957 631.5,452.5C635.552,453.043 638.718,455.043 641,458.5C651.377,438.435 665.21,420.935 682.5,406C725.234,374.85 770.234,371.183 817.5,395C829.852,402.349 839.019,412.516 845,425.5C846.802,433.132 843.968,436.965 836.5,437C833.209,432.252 830.042,427.419 827,422.5C809.896,405.119 789.063,395.619 764.5,394C737.535,392.377 713.869,400.211 693.5,417.5C690.397,419.423 687.397,421.59 684.5,424C674.067,435.709 664.234,447.876 655,460.5C653.473,463.553 651.973,466.553 650.5,469.5C649.883,469.611 649.383,469.944 649,470.5C650.407,484.526 644.907,494.692 632.5,501C611.242,504.416 601.409,495.249 603,473.5C603.862,468.775 606.028,464.775 609.5,461.5C602.726,458.379 596.393,459.213 590.5,464C580.957,472.017 577.791,482.183 581,494.5C583.974,507.142 591.808,514.642 604.5,517C617.037,518.948 628.704,516.615 639.5,510C646.763,504.74 653.43,498.74 659.5,492C670.715,485.376 682.715,483.709 695.5,487C722.711,492.886 742.211,508.386 754,533.5C754.667,537.167 754.667,540.833 754,544.5C749.694,548.675 745.694,548.342 742,543.5C735.363,523.772 722.197,510.605 702.5,504C694.13,500.592 685.464,499.258 676.5,500C674.754,500.471 673.087,501.138 671.5,502C664.206,507.626 657.206,513.626 650.5,520C635.516,529.83 619.183,533.497 601.5,531C598.592,530.311 595.925,529.145 593.5,527.5C592.479,528.002 592.312,528.668 593,529.5C599.621,536.111 605.454,543.278 610.5,551C634.136,554.614 657.47,559.614 680.5,566C692.555,570.528 704.222,575.862 715.5,582C728.362,599.391 739.695,617.724 749.5,637C748.79,644.013 745.123,646.513 738.5,644.5C729.747,629.997 721.247,615.33 713,600.5C709.825,596.992 706.325,593.825 702.5,591C694.95,587.392 687.283,584.058 679.5,581C658.196,575.17 636.862,570.336 615.5,566.5C616.782,568.179 617.782,570.013 618.5,572C626.563,575.075 634.563,578.242 642.5,581.5C647.232,583.866 651.899,586.199 656.5,588.5C662.577,591.056 665.577,595.556 665.5,602C662.656,618.881 659.822,635.714 657,652.5C676.286,673.761 694.62,695.761 712,718.5C712.387,727.118 708.553,729.951 700.5,727C681.42,702.583 661.587,678.749 641,655.5C643.531,638.654 647.031,621.987 651.5,605.5C648.414,602.777 645.08,600.277 641.5,598C635.288,595.392 629.288,592.558 623.5,589.5C617.956,588.599 613.123,586.265 609,582.5C606.722,576.333 604.055,570.333 601,564.5C594.542,555.756 588.709,546.59 583.5,537C581.68,537.746 580.013,539.079 578.5,541C576.292,541.191 574.292,541.691 572.5,542.5C574.26,563.469 574.594,584.469 573.5,605.5ZM495.5,516.5C474.59,516.951 456.256,524.118 440.5,538C437.5,540.667 435.833,544 435.5,548C436.933,555.131 439.266,561.964 442.5,568.5C461.514,549.643 481.847,532.476 503.5,517C500.854,516.503 498.187,516.336 495.5,516.5ZM548.5,468.5C534.667,471.833 524.5,479.833 518,492.5C514.092,506.043 517.259,517.543 527.5,527C547.471,537.905 564.804,534.738 579.5,517.5C576.478,515.312 573.978,512.645 572,509.5C566.539,498.743 565.039,487.409 567.5,475.5C561.874,471.185 555.541,468.851 548.5,468.5ZM509.5,528.5C489.768,544.722 470.435,561.556 451.5,579C456.833,583.667 462.167,588.333 467.5,593C473.221,596.527 479.221,599.527 485.5,602C489.172,603.285 492.839,603.452 496.5,602.5C504.99,581.209 510.99,559.209 514.5,536.5C514.82,532.453 513.153,529.786 509.5,528.5ZM287.5,400.5C284.987,402.18 282.987,404.347 281.5,407C281.615,408.895 282.282,410.562 283.5,412C356.348,441.76 430.015,469.26 504.5,494.5C505.231,488.866 507.231,483.699 510.5,479C476.517,465.179 442.184,452.179 407.5,440C367.314,427.327 327.314,414.16 287.5,400.5ZM295.5,301.5L286.5,306C278.212,312.059 277.545,318.725 284.5,326C312.818,346.328 341.651,365.828 371,384.5C375.989,380.438 381.489,379.605 387.5,382C393.167,386.333 398.167,391.333 402.5,397C419.089,408.307 436.089,418.641 453.5,428C445.95,418.542 437.95,409.542 429.5,401C397.737,371.23 365.404,342.23 332.5,314C321.819,305.161 309.485,300.995 295.5,301.5ZM371.5,639.5C370.468,647.472 370.302,655.472 371,663.5C371.401,671.116 374.901,676.616 381.5,680C389.212,681.748 396.879,681.414 404.5,679C388.176,670.129 377.176,656.963 371.5,639.5ZM624.5,466.5C621.275,468.213 618.441,470.546 616,473.5C615.105,485.946 620.438,489.946 632,485.5C637.364,475.803 634.864,469.469 624.5,466.5ZM393.5,587.5C388.705,595.478 384.538,603.811 381,612.5C379.601,621.594 380.935,630.261 385,638.5C392.685,630.316 400.185,621.983 407.5,613.5C402.759,604.673 398.092,596.006 393.5,587.5ZM417.5,624.5C408.581,631.75 400.247,639.75 392.5,648.5C399.939,659.548 409.939,667.214 422.5,671.5C435.379,666.728 447.045,659.894 457.5,651C442.93,643.912 429.597,635.079 417.5,624.5ZM421.5,557.5C415.997,562.504 410.663,567.67 405.5,573C407.879,581.47 411.046,589.637 415,597.5C428.687,618.215 447.187,632.381 470.5,640C476.732,633.604 482.399,626.771 487.5,619.5C472.254,613.881 458.587,605.714 446.5,595C435.005,584.483 426.672,571.983 421.5,557.5ZM514.5,657.5C522.328,656.493 525.494,659.826 524,667.5C514.91,682.684 505.077,697.35 494.5,711.5C498.108,716.779 498.275,722.112 495,727.5C489.568,730.984 484.234,734.651 479,738.5C471.447,750.439 463.281,761.939 454.5,773C448.723,775.611 445.39,773.778 444.5,767.5C444.83,764.676 445.664,762.009 447,759.5C455.333,747.5 463.667,735.5 472,723.5C475.137,718.892 477.47,713.892 479,708.5C491.443,691.896 503.276,674.896 514.5,657.5Z"/>
    </g>
</svg>
