<?xml version="1.0" encoding="UTF-8" standalone="no"?>
<!DOCTYPE svg PUBLIC "-//W3C//DTD SVG 1.1//EN" "http://www.w3.org/Graphics/SVG/1.1/DTD/svg11.dtd">
<svg width="100%" height="100%" viewBox="0 0 1024 1024" version="1.1" xmlns="http://www.w3.org/2000/svg" xmlns:xlink="http://www.w3.org/1999/xlink" xml:space="preserve" xmlns:serif="http://www.serif.com/" style="fill-rule:evenodd;clip-rule:evenodd;stroke-linejoin:round;stroke-miterlimit:2;">
    <g transform="matrix(1.43755,0,0,1.43755,-226.638,-210.071)">
        <path d="M270.5,340.5C266.618,339.789 264.118,337.456 263,333.5C262.004,328.771 262.504,324.271 264.5,320C265.745,319.209 267.078,318.709 268.5,318.5C320.998,317.335 373.665,317.168 426.5,318C427.737,318.232 428.737,318.732 429.5,319.5C433.123,321.577 434.79,324.744 434.5,329C434.676,333.823 432.676,337.323 428.5,339.5C426.914,340.148 425.247,340.648 423.5,341C372.332,341.832 321.332,341.665 270.5,340.5ZM177.5,408.5C170.964,404.729 168.798,399.062 171,391.5C171.465,390.069 172.299,388.903 173.5,388C182.737,386.859 192.071,386.359 201.5,386.5C210.929,386.359 220.263,386.859 229.5,388C234.423,393.568 234.756,399.568 230.5,406C228.35,407.411 226.016,408.245 223.5,408.5C208.167,409.833 192.833,409.833 177.5,408.5ZM229.5,740.5C229.667,696.165 229.5,651.832 229,607.5C225.674,593.195 222.507,578.862 219.5,564.5C218.235,556.559 217.402,548.559 217,540.5C209.809,564.226 197.975,585.226 181.5,603.5C176.227,607.755 170.227,609.255 163.5,608C157.136,603.66 155.969,598.16 160,591.5C165.591,587.914 170.591,583.58 175,578.5C188.333,557.164 198.999,534.497 207,510.5C211.534,500.652 216.867,491.318 223,482.5C228.687,467.908 233.687,453.241 238,438.5C243.681,426.799 251.515,416.799 261.5,408.5C273.576,398.302 287.576,392.136 303.5,390C375.5,389.333 447.5,389.333 519.5,390C523.97,392.142 528.637,392.809 533.5,392L535.5,390C538.482,389.502 541.482,389.335 544.5,389.5C537.641,385.153 531.474,379.82 526,373.5C522.858,368.935 522.858,364.268 526,359.5C550.974,320.192 583.474,288.692 623.5,265C629.469,261.733 635.803,259.566 642.5,258.5C644.654,241.077 654.321,234.577 671.5,239C676.728,240.41 681.728,242.41 686.5,245C690.167,248 693.833,251 697.5,254C706.147,255.083 714.814,256.083 723.5,257C732.693,259.347 739.86,264.514 745,272.5C750.623,281.086 754.623,290.419 757,300.5L763,312.5C785.701,339.535 810.701,364.202 838,386.5C847,397.833 856,409.167 865,420.5C874.712,442.38 870.212,460.88 851.5,476C839.201,485.877 825.201,490.544 809.5,490C804.554,488.194 799.888,485.861 795.5,483C788.206,477.374 781.206,471.374 774.5,465C772.19,464.503 769.857,464.337 767.5,464.5C752.496,464.667 737.496,464.5 722.5,464C719.301,463.599 716.301,462.766 713.5,461.5C713.313,463.564 712.813,465.564 712,467.5C701.984,488.198 691.984,508.864 682,529.5C672.321,544.185 663.654,559.518 656,575.5C653.301,580.256 650.134,584.589 646.5,588.5C645.538,591.757 644.038,594.757 642,597.5C641.502,600.817 641.335,604.15 641.5,607.5C641.819,654.197 641.485,700.863 640.5,747.5C639.321,752.022 636.988,755.856 633.5,759C616.426,768.612 599.093,768.946 581.5,760C577.908,757.079 575.075,753.579 573,749.5C569.523,758.338 563.023,763.505 553.5,765C542.159,767.622 531.159,766.622 520.5,762C515.555,759.054 512.055,754.888 510,749.5C509.919,709.483 509.252,669.483 508,629.5C506.434,627.007 504.434,625.007 502,623.5C499.929,624.787 497.762,625.953 495.5,627C490.177,627.499 484.844,627.666 479.5,627.5L374.5,627.5C374.667,667.501 374.5,707.501 374,747.5C372.971,752.241 370.471,755.908 366.5,758.5C365.016,760.074 363.349,761.407 361.5,762.5C347.758,767.958 334.092,767.792 320.5,762C314.896,758.397 310.729,753.563 308,747.5C307.924,721.129 306.924,694.796 305,668.5C299.033,693.134 296.366,718.134 297,743.5C294.788,756.709 286.955,764.209 273.5,766C260.492,768.427 248.492,766.094 237.5,759C236.177,758.184 235.511,757.017 235.5,755.5C231.056,751.595 229.056,746.595 229.5,740.5ZM269.5,429.5C261.516,439.454 254.516,450.12 248.5,461.5C249.815,463.316 251.315,464.983 253,466.5C256.131,478.694 258.797,491.028 261,503.5C269.527,534.896 284.027,562.896 304.5,587.5C302.234,598.3 295.901,601.8 285.5,598C260.932,568.023 245.099,533.856 238,495.5C236.106,501.323 235.273,507.323 235.5,513.5C237.298,544.347 242.131,574.681 250,604.5C250.5,651.165 250.667,697.832 250.5,744.5L278.5,744.5C278.333,728.163 278.5,711.83 279,695.5C281.601,673.469 287.601,652.469 297,632.5C299.947,628.43 303.447,624.93 307.5,622C309.81,621.503 312.143,621.337 314.5,621.5C315.373,614.123 319.373,609.29 326.5,607C348.174,606.833 369.841,606.333 391.5,605.5C384.935,593.31 379.435,580.643 375,567.5C362.761,519.891 362.427,472.225 374,424.5C375.05,419.419 376.884,414.752 379.5,410.5C379.631,409.761 379.464,409.094 379,408.5C367.247,409.488 355.414,409.821 343.5,409.5C342.167,414.833 340.834,420.166 339.5,425.5C336.607,436.3 334.774,447.3 334,458.5C333.333,474.833 333.333,491.167 334,507.5C336.115,532.458 341.615,556.625 350.5,580C350.167,584 348.5,587.333 345.5,590C338.489,592.075 333.323,589.908 330,583.5C307.384,526.964 304.551,469.464 321.5,411C321.43,410.235 321.097,409.735 320.5,409.5C300.912,409.644 283.912,416.31 269.5,429.5ZM557.5,401.5C552.906,404.963 547.906,407.63 542.5,409.5L542.5,431.5C544.226,444.837 546.726,458.171 550,471.5C560.351,505.79 578.684,534.79 605,558.5C608.921,571.499 604.088,576.666 590.5,574C555.594,541.869 533.594,502.369 524.5,455.5C522.915,446.235 521.915,436.901 521.5,427.5C521.827,422.786 521.493,418.12 520.5,413.5C519.702,413.957 519.369,414.624 519.5,415.5C517.159,423.51 514.826,431.51 512.5,439.5C503.524,467.5 502.357,495.834 509,524.5C511.673,536.814 506.84,542.647 494.5,542C492.671,541.727 491.171,540.893 490,539.5C486.458,528.868 484.458,517.868 484,506.5C480.945,473.752 485.779,442.419 498.5,412.5C498.804,411.85 499.137,411.183 499.5,410.5C492.866,409.503 486.2,409.17 479.5,409.5L457.5,409.5C444.294,450.495 439.794,492.495 444,535.5C445.522,560.23 452.022,583.563 463.5,605.5C483.158,606.333 502.825,606.833 522.5,607C526.219,608.263 528.719,610.763 530,614.5C530.5,657.832 530.667,701.165 530.5,744.5L556.5,744.5C557.158,722.831 557.991,701.164 559,679.5C560.931,662.776 564.598,646.443 570,630.5C571.377,628.246 572.877,626.08 574.5,624C585.679,618.801 596.345,612.801 606.5,606C623.325,589.865 636.325,571.032 645.5,549.5C641.973,549.932 638.307,549.432 634.5,548C615.148,532.971 600.648,514.138 591,491.5C578.044,459.165 572.044,425.499 573,390.5C567.954,394.386 562.787,398.053 557.5,401.5ZM434.5,413.5C434.33,412.178 434.663,411.011 435.5,410C424.833,409.333 414.167,409.333 403.5,410C402.023,411.812 400.69,413.645 399.5,415.5C380.678,473.17 382.512,530.17 405,586.5C408.833,593 412.667,599.5 416.5,606C424.159,606.5 431.826,606.666 439.5,606.5C422.45,563.105 416.617,518.105 422,471.5C423.077,451.322 427.244,431.988 434.5,413.5ZM354.5,671.5L354.5,626.5L345.5,626.5C342.171,626.002 339.005,625.002 336,623.5C334.057,627.423 331.224,630.423 327.5,632.5L327.5,744.5L353.5,744.5L353.5,727.5C354.497,709.007 354.83,690.341 354.5,671.5ZM619.5,620.5C612.643,627.971 604.31,633.637 594.5,637.5C593.5,673.16 593.167,708.827 593.5,744.5L620.5,744.5C620.832,702.997 620.499,661.663 619.5,620.5ZM812.5,389.5C811.286,392.93 809.786,396.264 808,399.5C797.023,410.892 784.857,420.725 771.5,429C766.799,433.366 762.466,438.033 758.5,443C767.833,443.333 777.167,443.667 786.5,444C788.286,444.785 789.786,445.951 791,447.5C807.478,475.355 825.811,476.355 846,450.5C848.766,444.614 849.099,438.614 847,432.5C836.9,416.922 825.4,402.589 812.5,389.5ZM722.5,346.5C714.012,353.669 708.345,362.669 705.5,373.5C703.102,385.019 701.769,396.685 701.5,408.5C698.605,433.6 709.605,445.267 734.5,443.5C735.28,439.873 736.78,436.54 739,433.5C749.254,418.249 762.42,406.082 778.5,397C785.136,391.366 791.469,385.366 797.5,379C780.309,362.643 763.976,345.476 748.5,327.5C738.669,332.344 730.002,338.677 722.5,346.5ZM643.5,279.5C623.186,288.998 604.853,301.498 588.5,317C573.377,332.45 559.377,348.783 546.5,366C550.919,368.045 555.252,370.378 559.5,373C560.5,373.667 561.5,373.667 562.5,373C587.259,348.452 615.593,329.118 647.5,315C648.545,311.073 648.045,307.24 646,303.5C645.388,295.326 644.555,287.326 643.5,279.5ZM663.5,256.5C662.839,268.471 663.339,280.471 665,292.5C665.739,296.385 667.073,300.052 669,303.5C673.966,307.764 677.132,313.098 678.5,319.5C678.886,325.512 676.553,330.012 671.5,333C664.489,335.075 659.323,332.908 656,326.5C653.626,328.539 651.626,330.872 650,333.5C645.255,356.258 643.589,379.258 645,402.5C647.17,435.147 658.003,464.481 677.5,490.5C683.756,478.32 689.756,465.987 695.5,453.5C689.445,446.061 684.945,437.727 682,428.5C678.824,411.184 678.824,393.85 682,376.5C686.049,362.737 690.383,349.07 695,335.5C697.069,311.237 692.069,288.57 680,267.5C675.387,262.367 669.887,258.7 663.5,256.5ZM706.5,275.5C712.513,290.897 715.846,306.897 716.5,323.5C718.65,321.851 720.65,320.018 722.5,318C728.49,315.34 734.156,312.174 739.5,308.5C735.325,297.979 729.992,288.146 723.5,279C717.536,278.703 711.869,277.536 706.5,275.5ZM625.5,347.5C625.141,349.371 624.141,350.871 622.5,352C614.538,356.224 607.038,361.057 600,366.5C593.617,398.732 594.617,430.732 603,462.5C611.609,492.762 627.942,517.762 652,537.5C653.982,537.01 655.649,536.01 657,534.5C659.025,527.74 661.358,521.073 664,514.5L670.5,508C667.588,506.76 664.921,505.094 662.5,503C647.847,487.877 637.68,470.043 632,449.5C622.844,415.682 620.678,381.682 625.5,347.5ZM710.5,563.5C740.502,563.333 770.502,563.5 800.5,564C806.603,567.04 808.769,571.874 807,578.5C802.805,584.931 796.805,587.931 789,587.5C761.843,586.715 734.677,586.215 707.5,586C698.697,577.002 699.697,569.502 710.5,563.5ZM705.5,617.5C721.17,617.333 736.837,617.5 752.5,618C759.198,621.464 761.365,626.964 759,634.5C757.833,637 756,638.833 753.5,640C737.5,640.667 721.5,640.667 705.5,640C698.657,635.8 696.824,629.967 700,622.5C701.107,619.887 702.94,618.22 705.5,617.5ZM423.5,689.5C437.504,689.333 451.504,689.5 465.5,690C473.079,692.483 475.579,697.65 473,705.5C471.895,708.937 469.728,711.437 466.5,713C453.5,713.667 440.5,713.667 427.5,713C419.263,710.032 416.096,704.198 418,695.5C419.36,692.977 421.193,690.977 423.5,689.5Z"/>
    </g>
</svg>
