<?xml version="1.0" encoding="UTF-8" standalone="no"?>
<!DOCTYPE svg PUBLIC "-//W3C//DTD SVG 1.1//EN" "http://www.w3.org/Graphics/SVG/1.1/DTD/svg11.dtd">
<svg width="100%" height="100%" viewBox="0 0 1024 1024" version="1.1" xmlns="http://www.w3.org/2000/svg" xmlns:xlink="http://www.w3.org/1999/xlink" xml:space="preserve" xmlns:serif="http://www.serif.com/" style="fill-rule:evenodd;clip-rule:evenodd;stroke-linejoin:round;stroke-miterlimit:2;">
    <g transform="matrix(1.52269,0,0,1.52269,-235.256,-300.607)">
        <path d="M348.5,811.5C313.595,789.779 281.095,764.779 251,736.5C231.306,715.463 216.973,691.13 208,663.5C199.075,634.697 199.408,606.03 209,577.5C217.82,557.861 227.154,538.527 237,519.5C242.899,506.372 248.232,493.039 253,479.5C261.647,454.103 254.814,434.269 232.5,420C210.537,410.841 188.87,411.507 167.5,422C159.336,424.5 155.003,421.5 154.5,413C155.137,405.358 159.137,400.358 166.5,398C176.483,394.137 186.816,391.803 197.5,391C226.426,351.274 262.093,344.274 304.5,370C338.318,396.49 353.484,431.323 350,474.5C349.205,481.604 347.872,488.604 346,495.5C333.819,525.375 322.819,555.708 313,586.5C307.312,604.506 305.979,622.84 309,641.5C315.449,661.964 326.783,679.297 343,693.5C327.537,659.817 322.537,624.483 328,587.5C333.897,539.207 354.064,498.041 388.5,464C432.206,425.434 481.873,415.601 537.5,434.5C537.833,433.333 538.167,432.167 538.5,431C536.335,412.52 534.335,394.02 532.5,375.5C499.936,349.697 485.436,316.03 489,274.5C496.21,243.27 515.71,227.77 547.5,228C565.885,232.938 581.052,242.772 593,257.5C598.081,264 602.915,270.666 607.5,277.5C622.278,270.712 637.778,267.045 654,266.5C671.536,267.974 688.703,271.307 705.5,276.5C715.81,259.684 729.143,245.517 745.5,234C771.789,222.111 794.622,226.945 814,248.5C826.82,269.057 830.153,291.057 824,314.5C819.814,331.332 812.148,346.332 801,359.5C793.712,366.967 786.046,373.967 778,380.5C776.584,394.828 775.251,409.161 774,423.5C771.289,440.718 768.455,457.885 765.5,475C768.034,494.776 770.034,514.609 771.5,534.5C771.163,560.02 765.663,584.353 755,607.5C752.777,623.718 747.777,639.051 740,653.5C734.413,663.68 728.079,673.346 721,682.5C718.665,701.005 715.498,719.338 711.5,737.5C729.399,742.902 744.566,752.569 757,766.5C761.95,774.333 765.95,782.666 769,791.5C771.824,803.454 774.324,815.454 776.5,827.5C777.447,832.223 776.114,836.056 772.5,839C668.501,839.5 564.501,839.667 460.5,839.5C430.132,840.663 400.799,835.829 372.5,825C363.952,821.232 355.952,816.732 348.5,811.5ZM423.5,817.5L433.5,817.5C540.172,818.165 646.505,817.498 752.5,815.5C750.81,794.276 741.477,777.442 724.5,765C710.527,758.671 695.86,755.004 680.5,754C593.833,753.667 507.167,753.333 420.5,753C369.294,743.498 329.127,717.332 300,674.5C286.157,647.089 282.824,618.422 290,588.5C302.333,554.167 314.667,519.833 327,485.5C335.317,448.456 325.817,416.956 298.5,391C280.88,377.942 261.547,374.275 240.5,380C233.408,383.875 227.075,388.708 221.5,394.5C250.623,401.124 269.123,418.791 277,447.5C278.078,458.624 277.412,469.624 275,480.5C264.05,512.398 250.384,543.064 234,572.5C219.714,603.331 218.714,634.665 231,666.5C240.385,689.442 253.885,709.609 271.5,727C301.957,755.131 334.957,779.798 370.5,801C386.2,809.354 402.867,814.521 420.5,816.5C421.791,816.263 422.791,816.596 423.5,817.5ZM628.5,731.5L631.5,731.5C635.913,717.176 638.413,702.509 639,687.5C642.388,649.036 632.721,614.369 610,583.5C602.968,576.803 596.302,569.803 590,562.5C588,558.833 588,555.167 590,551.5C595.286,546.347 600.786,546.18 606.5,551C638.597,580.026 656.763,616.193 661,659.5C665.727,653.103 670.06,646.436 674,639.5C684.609,612.844 689.276,585.177 688,556.5C694,551.167 700,551.167 706,556.5C713.216,603.811 701.383,645.644 670.5,682C667.772,684.865 664.438,686.365 660.5,686.5C659.591,701.713 657.258,716.713 653.5,731.5C665.159,732.055 676.826,732.388 688.5,732.5C690.355,725.434 692.521,718.434 695,711.5C696.739,699.512 698.406,687.512 700,675.5C710.592,660.66 719.925,644.993 728,628.5C732.166,617.193 734.833,605.526 736,593.5C745.787,575.314 750.287,555.814 749.5,535C748.262,516.123 746.596,497.29 744.5,478.5C746.892,459.492 749.059,440.492 751,421.5C734.064,438.775 716.23,454.942 697.5,470C669.947,484.201 642.614,483.868 615.5,469C596.37,452.873 577.537,436.373 559,419.5C559.045,437.161 559.378,454.828 560,472.5C561.986,486.277 565.153,499.777 569.5,513C567.462,523.765 561.628,526.931 552,522.5C542.444,501.222 537.944,478.889 538.5,455.5C529.547,453.24 520.547,451.073 511.5,449C479.126,442.476 449.126,448.142 421.5,466C377.966,498.876 353.466,542.709 348,597.5C342.991,638.444 352.991,675.11 378,707.5C401.716,734.771 428.882,738.937 459.5,720C471.893,708.924 474.727,695.757 468,680.5C466.345,675.063 467.845,670.897 472.5,668C478.554,667.274 483.388,669.441 487,674.5C497.4,694.979 494.9,713.646 479.5,730.5C503.994,731.498 528.661,731.831 553.5,731.5C554.978,731.762 556.311,731.429 557.5,730.5C560.896,723.041 563.729,715.375 566,707.5C573.007,671.324 563.84,640.158 538.5,614C516.034,593.847 491.701,591.18 465.5,606C456.5,613.667 448.167,622 440.5,631C434.349,632.408 430.182,630.241 428,624.5C427.174,619.471 428.174,614.805 431,610.5C436.497,603.006 442.664,596.173 449.5,590C440.887,555.378 450.887,527.712 479.5,507C491.971,501.792 497.137,505.958 495,519.5C489.023,525.145 483.357,531.145 478,537.5C468.627,550.653 466.127,564.986 470.5,580.5C474.524,578.24 478.858,576.74 483.5,576C497.609,574.206 511.275,575.873 524.5,581C547.227,592.394 564.727,609.227 577,631.5C590.99,663.843 592.823,696.843 582.5,730.5C597.658,731.496 612.991,731.83 628.5,731.5ZM702.5,396.5C700.395,400.977 701.728,402.81 706.5,402C707.539,398.603 706.206,396.77 702.5,396.5ZM653.5,287.5C646.245,288.227 638.912,289.393 631.5,291C609.741,296.798 591.575,308.298 577,325.5C568.158,335.179 563.158,346.513 562,359.5C569.603,354.519 577.769,350.685 586.5,348C604.574,343.683 621.241,346.683 636.5,357C644.744,364.74 652.411,372.907 659.5,381.5C666.686,368.147 677.019,357.981 690.5,351C713.579,344.181 734.579,348.348 753.5,363.5C752.4,349.06 747.233,336.06 738,324.5C715.413,299.797 687.246,287.464 653.5,287.5ZM537.5,248.5C519.862,255.395 510.195,268.395 508.5,287.5C509.6,300.234 512.434,312.567 517,324.5C523.105,335.712 530.438,346.045 539,355.5C546.587,326.582 562.753,303.749 587.5,287C583.705,280.574 579.538,274.407 575,268.5C565.683,255.924 553.183,249.257 537.5,248.5ZM596.5,367.5C583.104,371.534 571.104,378.201 560.5,387.5C581.099,409.267 602.432,430.101 624.5,450C627.718,452.777 631.385,454.777 635.5,456C653.495,461.382 670.829,459.716 687.5,451C709.333,430.5 731.167,410 753,389.5C745.063,383.74 736.563,378.24 727.5,373C713.814,365.818 701.147,367.152 689.5,377L677.5,392C682.464,392.912 687.464,393.412 692.5,393.5C693.972,386.866 698.139,383.199 705,382.5C714.865,384.529 721.031,390.529 723.5,400.5C721.96,415.889 713.627,423.055 698.5,422C672.361,407.221 646.028,406.887 619.5,421C611.93,423.922 605.43,422.422 600,416.5C594.185,408.011 593.185,399.011 597,389.5C608,379.313 617.5,380.647 625.5,393.5C630.15,394.341 634.816,394.175 639.5,393C636.963,390.094 634.796,386.927 633,383.5C623.624,371.727 611.457,366.394 596.5,367.5ZM654.5,426.5C662.875,425.38 670.042,427.714 676,433.5C678.736,442.31 675.903,448.477 667.5,452C654.409,456.619 645.742,452.453 641.5,439.5C642.036,437.058 642.869,434.725 644,432.5C647.101,429.648 650.601,427.648 654.5,426.5ZM611.5,396.5C608.73,398.888 608.897,400.888 612,402.5C613.732,402.266 614.566,401.266 614.5,399.5C614.484,397.484 613.484,396.484 611.5,396.5ZM767.5,248.5C749.235,255.751 735.235,268.085 725.5,285.5C733.123,291.952 740.623,298.619 748,305.5C761.178,320.188 769.844,337.188 774,356.5C778.368,352.467 782.368,348.134 786,343.5C801.397,324.965 807.73,303.632 805,279.5C800.549,259.558 788.049,249.224 767.5,248.5Z"/>
    </g>
</svg>
