<?xml version="1.0" encoding="UTF-8" standalone="no"?>
<!DOCTYPE svg PUBLIC "-//W3C//DTD SVG 1.1//EN" "http://www.w3.org/Graphics/SVG/1.1/DTD/svg11.dtd">
<svg width="100%" height="100%" viewBox="0 0 1024 1024" version="1.1" xmlns="http://www.w3.org/2000/svg" xmlns:xlink="http://www.w3.org/1999/xlink" xml:space="preserve" xmlns:serif="http://www.serif.com/" style="fill-rule:evenodd;clip-rule:evenodd;stroke-linejoin:round;stroke-miterlimit:2;">
    <g transform="matrix(1.33445,0,0,1.33445,-86.4714,-190.833)">
        <path d="M585.5,209.5C582.853,207.189 580.186,204.856 577.5,202.5C572.565,203.448 567.565,203.781 562.5,203.5C540.633,253.255 518.466,302.922 496,352.5C488.747,358.247 482.247,357.581 476.5,350.5C449.666,302.814 422.999,254.981 396.5,207C393.294,206.704 390.128,206.204 387,205.5C346.186,246.981 304.686,287.814 262.5,328C253.04,333.173 246.54,330.673 243,320.5C229.703,267.052 217.37,213.385 206,159.5C204.123,150.557 207.623,145.557 216.5,144.5C363.747,192.797 512.747,198.63 663.5,162C684.833,156 706.167,150 727.5,144C742.314,140.477 748.48,146.311 746,161.5C734.103,213.985 723.103,266.652 713,319.5C712.392,321.066 711.558,322.4 710.5,323.5C706.393,328.182 701.727,328.682 696.5,325C659.186,286.525 622.186,248.025 585.5,209.5ZM688.5,282.5C691.026,284.854 693.192,287.52 695,290.5C702.685,251.422 710.852,212.422 719.5,173.5C719.167,172.833 718.833,172.167 718.5,171.5C681.619,182.22 644.286,191.054 606.5,198C609.039,200.37 611.372,202.87 613.5,205.5C638.89,230.889 663.89,256.556 688.5,282.5ZM230.5,172.5C241.467,214.034 251.967,255.7 262,297.5C293.68,265.986 325.18,234.32 356.5,202.5C330.628,197.159 304.628,191.992 278.5,187C262.247,182.773 246.247,177.94 230.5,172.5ZM527.5,206.5C517.049,208.108 506.383,208.941 495.5,209C476.833,209.667 458.167,209.667 439.5,209C434.25,208.807 429.083,208.307 424,207.5C443.677,245.229 464.344,282.562 486,319.5C487.937,313.024 490.27,306.691 493,300.5C507.914,270.003 521.748,239.003 534.5,207.5C532.257,206.526 529.924,206.192 527.5,206.5ZM428.5,706.5C382.111,700.22 341.445,681.72 306.5,651C274.724,619.525 258.391,581.359 257.5,536.5C227.385,531.53 206.219,515.196 194,487.5C189.791,474.158 187.957,460.492 188.5,446.5C172.202,445.168 155.869,444.334 139.5,444C131.77,441.041 128.937,435.541 131,427.5C132.122,425.376 133.622,423.543 135.5,422C156.665,419.365 177.665,420.531 198.5,425.5C216.666,381.373 249.666,356.54 297.5,351C356.11,348.552 400.943,372.052 432,421.5C432.483,422.448 432.649,423.448 432.5,424.5C445.804,427.243 458.804,431.077 471.5,436C490.218,445.194 508.552,455.194 526.5,466C548.427,477.649 571.76,482.983 596.5,482C608.561,480.936 620.227,478.269 631.5,474C637.052,471.84 642.385,472.173 647.5,475C652.212,483.206 650.546,489.872 642.5,495C640.091,496.707 637.425,497.54 634.5,497.5C631.92,511.327 626.587,523.994 618.5,535.5C631.995,532.742 643.662,526.242 653.5,516C659.06,511.014 665.06,510.348 671.5,514C673.764,515.779 675.097,518.113 675.5,521C669.258,539.693 659.925,556.526 647.5,571.5C626.805,600.358 601.139,623.858 570.5,642C562.384,646.393 554.051,650.226 545.5,653.5C532.813,658.396 519.813,662.729 506.5,666.5C516.573,683.416 528.74,698.75 543,712.5C543.667,715.5 543.667,718.5 543,721.5C540.666,728.16 537.832,734.493 534.5,740.5C532.014,746.805 529.014,752.805 525.5,758.5L722.5,758.5C728.645,757.51 734.978,757.177 741.5,757.5C741.168,696.664 741.501,635.998 742.5,575.5C742.492,565.496 747.492,560.996 757.5,562C760.548,562.606 763.048,564.106 765,566.5C766.351,572.072 766.851,577.738 766.5,583.5L766.5,610.5C766.667,707.167 766.5,803.834 766,900.5C762.203,910.152 755.703,912.652 746.5,908C744.683,906.2 743.516,904.034 743,901.5C742.5,861.501 742.333,821.501 742.5,781.5L543.5,781.5C543.434,787.732 540.267,790.732 534,790.5C525.288,789.64 518.288,785.64 513,778.5C512.239,781.053 511.406,783.553 510.5,786C502.759,791.551 496.426,790.384 491.5,782.5C474.847,781.501 458.18,781.167 441.5,781.5C442.478,787.848 439.811,791.182 433.5,791.5C430.567,791.534 427.9,790.701 425.5,789C421.667,784.5 417.833,780 414,775.5C414.314,785.195 409.814,789.029 400.5,787C397.597,784.428 394.431,782.261 391,780.5C334.196,781.494 277.363,781.827 220.5,781.5C221.833,820.833 221.833,860.167 220.5,899.5C218.442,908.066 213.109,911.566 204.5,910C201.667,908.5 199.5,906.333 198,903.5C197.168,814.666 197.334,725.999 198.5,637.5C200.128,632.889 203.462,630.556 208.5,630.5C214.841,630.521 218.841,633.521 220.5,639.5C221.833,662.5 221.833,685.5 220.5,708.5L220.5,758.5C277.837,758.833 335.171,758.5 392.5,757.5C401.811,745.688 411.311,734.022 421,722.5C424.86,717.782 427.36,712.449 428.5,706.5ZM623.5,564.5C625.002,562.825 626.335,560.992 627.5,559C601.612,569.899 574.612,577.899 546.5,583C493.012,588.004 451.512,568.171 422,523.5C407.883,500.917 403.55,476.583 409,450.5C409.731,448.101 410.898,445.935 412.5,444C384.993,440.671 364.16,450.837 350,474.5C343.115,486.481 337.782,499.148 334,512.5C332.6,515.902 330.433,518.736 327.5,521C312.976,529.452 297.309,534.619 280.5,536.5C281.54,577.744 297.54,611.911 328.5,639C362.385,666.079 401.052,681.413 444.5,685C446.049,686.214 447.215,687.714 448,689.5C448.607,693.537 448.44,697.537 447.5,701.5C451.967,707.08 453.467,713.413 452,720.5C445,730.833 438,741.167 431,751.5C429.798,753.677 429.298,756.011 429.5,758.5C452.836,758.667 476.169,758.5 499.5,758C503.479,750.509 507.146,743.009 510.5,735.5C512.968,730.064 515.301,724.564 517.5,719C510.785,711.073 503.951,703.24 497,695.5C491.321,686.81 485.154,678.477 478.5,670.5C459.079,667.526 440.413,662.026 422.5,654C380.443,631.277 352.277,597.111 338,551.5C336.739,538.87 342.239,534.37 354.5,538C359.322,548.448 364.155,558.948 369,569.5C378.569,586.737 390.736,601.904 405.5,615C427.237,633.364 452.404,643.53 481,645.5C501.277,644.017 520.777,639.351 539.5,631.5C572.789,615.886 600.789,593.553 623.5,564.5ZM434.5,448.5C426.915,470.918 429.415,492.251 442,512.5C462.121,541.816 489.955,558.149 525.5,561.5C563.193,557.501 590.86,538.834 608.5,505.5C577.768,508.984 548.435,503.484 520.5,489C504.67,480.253 489.004,471.253 473.5,462C460.93,456.199 447.93,451.699 434.5,448.5ZM303.5,373.5C261.89,378.594 233.057,400.594 217,439.5C212.421,450.525 211.421,461.859 214,473.5C221.796,495.623 237.296,508.789 260.5,513C277.951,514.472 294.617,511.472 310.5,504C316.444,490.546 322.611,477.046 329,463.5C344.991,434.882 369.491,420.382 402.5,420C377.421,388.118 344.421,372.618 303.5,373.5ZM241.5,445.5C255.798,443.972 262.965,450.306 263,464.5C257.728,477.551 248.561,481.384 235.5,476C227.806,468.806 226.639,460.639 232,451.5C235.147,449.35 238.313,447.35 241.5,445.5Z"/>
    </g>
</svg>
